mtllib debris-wood.mtl
g debris-wood
v 0.22926 0.05 0.10813
v 0.22926 0 0.10813
v 0.21952 0.05 0.15557
v 0.21952 0 0.15557
v -0.21952 0 0.1264
v -0.21952 0.05 0.1264
v -0.22926 0 0.17384
v -0.22926 0.05 0.17384
v 0.2229 0.05 0.20387
v 0.2229 0 0.20387
v -0.19948 0 0.0546
v 0.20915 0 0.081741
v -0.19948 0.05 0.0546
v 0.20915 0.05 0.081741
v 0.19948 0 0.22737
v -0.20915 0 0.20023
v 0.19948 0.05 0.22737
v -0.20915 0.05 0.20023
v -0.2229 0 0.0781
v -0.2229 0.05 0.0781
v -0.0045192 0.1 0.25284
v -0.0045192 0.05 0.25284
v -0.049158 0.1 0.23407
v -0.049158 0.05 0.23407
v 0.064722 0.05 -0.19094
v 0.064722 0.1 -0.19094
v 0.020084 0.05 -0.2097
v 0.020084 0.1 -0.2097
v -0.0972 0.1 0.228
v -0.0972 0.05 0.228
v 0.13127 0.05 -0.15733
v 0.025273 0.05 0.23824
v 0.13127 0.1 -0.15733
v 0.025273 0.1 0.23824
v -0.1157 0.05 0.20047
v -0.0097089 0.05 -0.19511
v -0.1157 0.1 0.20047
v -0.0097089 0.1 -0.19511
v 0.11276 0.05 -0.18487
v 0.11276 0.1 -0.18487
v 0.19367 0.05 -0.23602
v 0.19367 0 -0.23602
v 0.20497 0.05 -0.18893
v 0.20497 0 -0.18893
v -0.20497 0 -0.0291
v -0.20497 0.05 -0.0291
v -0.19367 0 0.017986
v -0.19367 0.05 0.017986
v 0.22852 0.05 -0.14662
v 0.22852 0 -0.14662
v -0.21729 0 -0.10262
v 0.16427 0 -0.25139
v -0.21729 0.05 -0.10262
v 0.16427 0.05 -0.25139
v 0.21729 0 -0.11541
v -0.16427 0 0.033357
v 0.21729 0.05 -0.11541
v -0.16427 0.05 0.033357
v -0.22852 0 -0.07141
v -0.22852 0.05 -0.07141
vn 0.97616 0 -0.21707
vn 0.97957 0 0.20113
vn -0.97957 0 -0.20113
vn -0.97616 0 0.21707
vn 0.99756 0 -0.069806
vn 0.93887 0 0.34426
vn -0.35926 0 -0.93324
vn 0.47953 0 -0.87752
vn 0.35926 0 0.93324
vn -0.47953 0 0.87752
vn -0.93887 0 -0.34426
vn -0.99756 0 0.069806
vn 0 1 0
vn 0 -1 0
vn 0.023329 0 0.99973
vn -0.38756 0 0.92184
vn 0.38756 0 -0.92184
vn -0.023329 0 -0.99973
vn -0.12528 0 0.99212
vn -0.52007 0 0.85413
vn 0.98524 0 -0.17115
vn 0.76767 0 0.64085
vn -0.98524 0 0.17115
vn -0.76767 0 -0.64085
vn 0.52007 0 -0.85413
vn 0.12528 0 -0.99212
vn 0.7919 0 -0.61065
vn 0.97238 0 -0.2334
vn -0.97238 0 0.2334
vn -0.7919 0 0.61065
vn 0.87375 0 -0.48638
vn 0.99625 0 -0.086516
vn -0.72122 0 -0.69271
vn 0.062005 0 -0.99808
vn 0.72122 0 0.69271
vn -0.062005 0 0.99808
vn -0.99625 0 0.086516
vn -0.87375 0 0.48638
vt 0.21875 0.355
vt 0.21875 0.275
usemtl colormap
f 3/1/2 2/2/1 1/1/1
f 2/2/1 3/1/2 4/2/2
f 7/2/4 6/1/3 5/2/3
f 6/1/3 7/2/4 8/1/4
f 9/1/6 4/2/5 3/1/5
f 4/2/5 9/1/6 10/2/6
f 13/1/7 12/2/8 11/2/7
f 12/2/8 13/1/7 14/1/8
f 17/1/9 16/2/10 15/2/9
f 16/2/10 17/1/9 18/1/10
f 5/2/12 20/1/11 19/2/11
f 20/1/11 5/2/12 6/1/12
f 16/2/10 8/1/4 7/2/4
f 8/1/4 16/2/10 18/1/10
f 19/2/11 13/1/7 11/2/7
f 13/1/7 19/2/11 20/1/11
f 1/1/1 12/2/8 14/1/8
f 12/2/8 1/1/1 2/2/1
f 17/1/9 10/2/6 9/1/6
f 10/2/6 17/1/9 15/2/9
f 14/1/13 3/1/13 1/1/13
f 17/1/13 3/1/13 14/1/13
f 3/1/13 17/1/13 9/1/13
f 17/1/13 14/1/13 13/1/13
f 17/1/13 13/1/13 18/1/13
f 18/1/13 13/1/13 20/1/13
f 18/1/13 20/1/13 6/1/13
f 8/1/13 18/1/13 6/1/13
f 15/2/14 4/2/14 10/2/14
f 12/2/14 4/2/14 15/2/14
f 4/2/14 12/2/14 2/2/14
f 12/2/14 15/2/14 16/2/14
f 12/2/14 16/2/14 11/2/14
f 11/2/14 16/2/14 7/2/14
f 11/2/14 7/2/14 5/2/14
f 19/2/14 11/2/14 5/2/14
f 23/1/16 22/2/15 21/1/15
f 22/2/15 23/1/16 24/2/16
f 27/2/18 26/1/17 25/2/17
f 26/1/17 27/2/18 28/1/18
f 29/1/20 24/2/19 23/1/19
f 24/2/19 29/1/20 30/2/20
f 33/1/21 32/2/22 31/2/21
f 32/2/22 33/1/21 34/1/22
f 37/1/23 36/2/24 35/2/23
f 36/2/24 37/1/23 38/1/24
f 25/2/26 40/1/25 39/2/25
f 40/1/25 25/2/26 26/1/26
f 36/2/24 28/1/18 27/2/18
f 28/1/18 36/2/24 38/1/24
f 39/2/25 33/1/21 31/2/21
f 33/1/21 39/2/25 40/1/25
f 21/1/15 32/2/22 34/1/22
f 32/2/22 21/1/15 22/2/15
f 37/1/23 30/2/20 29/1/20
f 30/2/20 37/1/23 35/2/23
f 34/1/13 23/1/13 21/1/13
f 37/1/13 23/1/13 34/1/13
f 23/1/13 37/1/13 29/1/13
f 37/1/13 34/1/13 33/1/13
f 37/1/13 33/1/13 38/1/13
f 38/1/13 33/1/13 40/1/13
f 38/1/13 40/1/13 26/1/13
f 28/1/13 38/1/13 26/1/13
f 35/2/14 24/2/14 30/2/14
f 32/2/14 24/2/14 35/2/14
f 24/2/14 32/2/14 22/2/14
f 32/2/14 35/2/14 36/2/14
f 32/2/14 36/2/14 31/2/14
f 31/2/14 36/2/14 27/2/14
f 31/2/14 27/2/14 25/2/14
f 39/2/14 31/2/14 25/2/14
f 43/1/28 42/2/27 41/1/27
f 42/2/27 43/1/28 44/2/28
f 47/2/30 46/1/29 45/2/29
f 46/1/29 47/2/30 48/1/30
f 49/1/32 44/2/31 43/1/31
f 44/2/31 49/1/32 50/2/32
f 53/1/33 52/2/34 51/2/33
f 52/2/34 53/1/33 54/1/34
f 57/1/35 56/2/36 55/2/35
f 56/2/36 57/1/35 58/1/36
f 45/2/38 60/1/37 59/2/37
f 60/1/37 45/2/38 46/1/38
f 56/2/36 48/1/30 47/2/30
f 48/1/30 56/2/36 58/1/36
f 59/2/37 53/1/33 51/2/33
f 53/1/33 59/2/37 60/1/37
f 41/1/27 52/2/34 54/1/34
f 52/2/34 41/1/27 42/2/27
f 57/1/35 50/2/32 49/1/32
f 50/2/32 57/1/35 55/2/35
f 54/1/13 43/1/13 41/1/13
f 57/1/13 43/1/13 54/1/13
f 43/1/13 57/1/13 49/1/13
f 57/1/13 54/1/13 53/1/13
f 57/1/13 53/1/13 58/1/13
f 58/1/13 53/1/13 60/1/13
f 58/1/13 60/1/13 46/1/13
f 48/1/13 58/1/13 46/1/13
f 55/2/14 44/2/14 50/2/14
f 52/2/14 44/2/14 55/2/14
f 44/2/14 52/2/14 42/2/14
f 52/2/14 55/2/14 56/2/14
f 52/2/14 56/2/14 51/2/14
f 51/2/14 56/2/14 47/2/14
f 51/2/14 47/2/14 45/2/14
f 59/2/14 51/2/14 45/2/14
g debris-wood
usemtl colormap
f 3/1/2 2/2/1 1/1/1
f 2/2/1 3/1/2 4/2/2
f 7/2/4 6/1/3 5/2/3
f 6/1/3 7/2/4 8/1/4
f 9/1/6 4/2/5 3/1/5
f 4/2/5 9/1/6 10/2/6
f 13/1/7 12/2/8 11/2/7
f 12/2/8 13/1/7 14/1/8
f 17/1/9 16/2/10 15/2/9
f 16/2/10 17/1/9 18/1/10
f 5/2/12 20/1/11 19/2/11
f 20/1/11 5/2/12 6/1/12
f 16/2/10 8/1/4 7/2/4
f 8/1/4 16/2/10 18/1/10
f 19/2/11 13/1/7 11/2/7
f 13/1/7 19/2/11 20/1/11
f 1/1/1 12/2/8 14/1/8
f 12/2/8 1/1/1 2/2/1
f 17/1/9 10/2/6 9/1/6
f 10/2/6 17/1/9 15/2/9
f 14/1/13 3/1/13 1/1/13
f 17/1/13 3/1/13 14/1/13
f 3/1/13 17/1/13 9/1/13
f 17/1/13 14/1/13 13/1/13
f 17/1/13 13/1/13 18/1/13
f 18/1/13 13/1/13 20/1/13
f 18/1/13 20/1/13 6/1/13
f 8/1/13 18/1/13 6/1/13
f 15/2/14 4/2/14 10/2/14
f 12/2/14 4/2/14 15/2/14
f 4/2/14 12/2/14 2/2/14
f 12/2/14 15/2/14 16/2/14
f 12/2/14 16/2/14 11/2/14
f 11/2/14 16/2/14 7/2/14
f 11/2/14 7/2/14 5/2/14
f 19/2/14 11/2/14 5/2/14
f 23/1/16 22/2/15 21/1/15
f 22/2/15 23/1/16 24/2/16
f 27/2/18 26/1/17 25/2/17
f 26/1/17 27/2/18 28/1/18
f 29/1/20 24/2/19 23/1/19
f 24/2/19 29/1/20 30/2/20
f 33/1/21 32/2/22 31/2/21
f 32/2/22 33/1/21 34/1/22
f 37/1/23 36/2/24 35/2/23
f 36/2/24 37/1/23 38/1/24
f 25/2/26 40/1/25 39/2/25
f 40/1/25 25/2/26 26/1/26
f 36/2/24 28/1/18 27/2/18
f 28/1/18 36/2/24 38/1/24
f 39/2/25 33/1/21 31/2/21
f 33/1/21 39/2/25 40/1/25
f 21/1/15 32/2/22 34/1/22
f 32/2/22 21/1/15 22/2/15
f 37/1/23 30/2/20 29/1/20
f 30/2/20 37/1/23 35/2/23
f 34/1/13 23/1/13 21/1/13
f 37/1/13 23/1/13 34/1/13
f 23/1/13 37/1/13 29/1/13
f 37/1/13 34/1/13 33/1/13
f 37/1/13 33/1/13 38/1/13
f 38/1/13 33/1/13 40/1/13
f 38/1/13 40/1/13 26/1/13
f 28/1/13 38/1/13 26/1/13
f 35/2/14 24/2/14 30/2/14
f 32/2/14 24/2/14 35/2/14
f 24/2/14 32/2/14 22/2/14
f 32/2/14 35/2/14 36/2/14
f 32/2/14 36/2/14 31/2/14
f 31/2/14 36/2/14 27/2/14
f 31/2/14 27/2/14 25/2/14
f 39/2/14 31/2/14 25/2/14
f 43/1/28 42/2/27 41/1/27
f 42/2/27 43/1/28 44/2/28
f 47/2/30 46/1/29 45/2/29
f 46/1/29 47/2/30 48/1/30
f 49/1/32 44/2/31 43/1/31
f 44/2/31 49/1/32 50/2/32
f 53/1/33 52/2/34 51/2/33
f 52/2/34 53/1/33 54/1/34
f 57/1/35 56/2/36 55/2/35
f 56/2/36 57/1/35 58/1/36
f 45/2/38 60/1/37 59/2/37
f 60/1/37 45/2/38 46/1/38
f 56/2/36 48/1/30 47/2/30
f 48/1/30 56/2/36 58/1/36
f 59/2/37 53/1/33 51/2/33
f 53/1/33 59/2/37 60/1/37
f 41/1/27 52/2/34 54/1/34
f 52/2/34 41/1/27 42/2/27
f 57/1/35 50/2/32 49/1/32
f 50/2/32 57/1/35 55/2/35
f 54/1/13 43/1/13 41/1/13
f 57/1/13 43/1/13 54/1/13
f 43/1/13 57/1/13 49/1/13
f 57/1/13 54/1/13 53/1/13
f 57/1/13 53/1/13 58/1/13
f 58/1/13 53/1/13 60/1/13
f 58/1/13 60/1/13 46/1/13
f 48/1/13 58/1/13 46/1/13
f 55/2/14 44/2/14 50/2/14
f 52/2/14 44/2/14 55/2/14
f 44/2/14 52/2/14 42/2/14
f 52/2/14 55/2/14 56/2/14
f 52/2/14 56/2/14 51/2/14
f 51/2/14 56/2/14 47/2/14
f 51/2/14 47/2/14 45/2/14
f 59/2/14 51/2/14 45/2/14
