mtllib hay-bale-bundled.mtl
g hay-bale-bundled
v -0.13646 0.0076879 0.15376
v -0.13646 9.4694e-17 0
v -0.20129 0.0076879 0.15376
v -0.20129 9.4694e-17 0
v -0.13646 0.37215 0.15376
v -0.13646 0.31803 0.20827
v -0.20129 0.37215 0.15376
v -0.20129 0.31803 0.20827
v -0.13646 0.061807 0.20827
v -0.20129 0.061807 0.20827
v -0.13646 0.18992 0.21559
v -0.20129 0.18992 0.21559
v -0.13646 0.31803 -0.20827
v -0.13646 0.37215 -0.15376
v -0.20129 0.31803 -0.20827
v -0.20129 0.37215 -0.15376
v -0.13646 0.37984 0
v -0.20129 0.37984 0
v -0.20129 0.18992 -0.21559
v -0.13646 0.18992 -0.21559
v -0.13646 0.0076879 -0.15376
v -0.20129 0.0076879 -0.15376
v -0.21629 0.18992 -0.20056
v -0.21629 0.31144 -0.19362
v -0.21629 0.068402 -0.19362
v -0.21629 0.022382 -0.14727
v -0.21629 0.35746 -0.14727
v -0.21629 0.015019 0
v -0.21629 0.36482 0
v -0.21629 0.022382 0.14727
v -0.21629 0.35746 0.14727
v -0.21629 0.068402 0.19362
v -0.21629 0.31144 0.19362
v -0.21629 0.18992 0.20056
v -0.20129 0.061807 -0.20827
v -0.13646 0.061807 -0.20827
v -0.12146 0.18992 -0.20056
v -0.12146 0.068402 -0.19362
v -0.12146 0.31144 -0.19362
v -0.12146 0.35746 -0.14727
v -0.12146 0.022382 -0.14727
v -0.12146 0.36482 0
v -0.12146 0.015019 0
v -0.12146 0.35746 0.14727
v -0.12146 0.022382 0.14727
v -0.12146 0.31144 0.19362
v -0.12146 0.068402 0.19362
v -0.12146 0.18992 0.20056
v 0.20129 0.0076879 0.15376
v 0.20129 8.9055e-17 0
v 0.13646 0.0076879 0.15376
v 0.13646 8.9055e-17 0
v 0.20129 0.37215 0.15376
v 0.20129 0.31803 0.20827
v 0.13646 0.37215 0.15376
v 0.13646 0.31803 0.20827
v 0.20129 0.061807 0.20827
v 0.13646 0.061807 0.20827
v 0.20129 0.18992 0.21559
v 0.13646 0.18992 0.21559
v 0.20129 0.31803 -0.20827
v 0.20129 0.37215 -0.15376
v 0.13646 0.31803 -0.20827
v 0.13646 0.37215 -0.15376
v 0.20129 0.37984 0
v 0.13646 0.37984 0
v 0.13646 0.18992 -0.21559
v 0.20129 0.18992 -0.21559
v 0.20129 0.0076879 -0.15376
v 0.13646 0.0076879 -0.15376
v 0.12146 0.18992 -0.20056
v 0.12146 0.31144 -0.19362
v 0.12146 0.068402 -0.19362
v 0.12146 0.022382 -0.14727
v 0.12146 0.35746 -0.14727
v 0.12146 0.015019 0
v 0.12146 0.36482 0
v 0.12146 0.022382 0.14727
v 0.12146 0.35746 0.14727
v 0.12146 0.068402 0.19362
v 0.12146 0.31144 0.19362
v 0.12146 0.18992 0.20056
v 0.13646 0.061807 -0.20827
v 0.20129 0.061807 -0.20827
v 0.21629 0.18992 -0.20056
v 0.21629 0.068402 -0.19362
v 0.21629 0.31144 -0.19362
v 0.21629 0.35746 -0.14727
v 0.21629 0.022382 -0.14727
v 0.21629 0.36482 0
v 0.21629 0.015019 0
v 0.21629 0.35746 0.14727
v 0.21629 0.022382 0.14727
v 0.21629 0.31144 0.19362
v 0.21629 0.068402 0.19362
v 0.21629 0.18992 0.20056
v -0.21629 0.35087 3.6096e-15
v -0.21629 0.34436 0.1303
v -0.30329 0.36697 2.3534e-15
v -0.30329 0.3598 0.14333
v -0.21629 0.18992 0.1827
v -0.30329 0.18992 0.20097
v -0.21629 0.29849 0.1765
v -0.30329 0.30935 0.19415
v -0.30329 0.070493 -0.19415
v -0.21629 0.08135 -0.1765
v -0.30329 0.18992 -0.20097
v -0.21629 0.18992 -0.1827
v -0.21629 0.08135 0.1765
v -0.21629 0.035486 0.1303
v -0.30329 0.070493 0.19415
v -0.30329 0.020043 0.14333
v -0.21629 0.34436 -0.1303
v -0.30329 0.3598 -0.14333
v -0.21629 0.29849 -0.1765
v -0.30329 0.30935 -0.19415
v -0.21629 0.028971 3.6096e-15
v -0.21629 0.035486 -0.1303
v -0.30329 0.012876 2.3534e-15
v -0.30329 0.020043 -0.14333
v 0.30329 0.18992 0.20097
v 0.21629 0.18992 0.1827
v 0.30329 0.30935 0.19415
v 0.21629 0.29849 0.1765
v 0.30329 0.3598 0.14333
v 0.21629 0.34436 0.1303
v 0.30329 0.070493 0.19415
v 0.21629 0.08135 0.1765
v 0.30329 0.070493 -0.19415
v 0.30329 0.18992 -0.20097
v 0.21629 0.08135 -0.1765
v 0.21629 0.18992 -0.1827
v 0.30329 0.020043 0.14333
v 0.21629 0.035486 0.1303
v 0.30329 0.30935 -0.19415
v 0.30329 0.3598 -0.14333
v 0.21629 0.29849 -0.1765
v 0.21629 0.34436 -0.1303
v 0.30329 0.012876 3.6096e-15
v 0.21629 0.028971 3.6096e-15
v 0.30329 0.020043 -0.14333
v 0.21629 0.035486 -0.1303
v 0.30329 0.36697 3.6096e-15
v 0.21629 0.35087 3.6096e-15
v -0.30329 0.09693 -0.12473
v -0.30329 0.18992 -0.13004
v -0.30329 0.090694 3.6096e-15
v -0.30329 0.28291 -0.12473
v -0.30329 0.28915 1.3659e-14
v -0.30329 0.09693 0.12473
v -0.30329 0.28291 0.12473
v -0.30329 0.18992 0.13004
v -0.25329 0.18992 -0.11574
v -0.25329 0.27268 -0.11101
v -0.25329 0.10716 -0.11101
v -0.25329 0.10161 6.1218e-15
v -0.25329 0.27823 1.4915e-14
v -0.25329 0.10716 0.11101
v -0.25329 0.27268 0.11101
v -0.25329 0.18992 0.11574
v 0.30329 0.28291 -0.12473
v 0.25329 0.27268 -0.11101
v 0.30329 0.28915 -7.6956e-15
v 0.25329 0.27823 -1.3348e-14
v 0.25329 0.18992 -0.11574
v 0.25329 0.10716 -0.11101
v 0.25329 0.10161 -4.5553e-15
v 0.25329 0.27268 0.11101
v 0.25329 0.10716 0.11101
v 0.25329 0.18992 0.11574
v 0.30329 0.09693 -0.12473
v 0.30329 0.18992 -0.13004
v 0.30329 0.28291 0.12473
v 0.30329 0.090694 2.3534e-15
v 0.30329 0.09693 0.12473
v 0.30329 0.18992 0.13004
v -3.1403e-16 0.070493 0.19415
v -3.1403e-16 0.18992 0.20097
v -3.1403e-16 0.3598 0.14333
v -3.1403e-16 0.30935 0.19415
v -3.1403e-16 0.18992 -0.20097
v -3.1403e-16 0.30935 -0.19415
v -3.1403e-16 0.020043 0.14333
v -3.1403e-16 0.070493 -0.19415
v -3.1403e-16 0.012876 3.6096e-15
v -3.1403e-16 0.020043 -0.14333
v -3.1403e-16 0.3598 -0.14333
v -3.1403e-16 0.36697 3.6096e-15
vn 0.36861 -0.85034 0.37556
vn 0.37873 -0.92551 0
vn -0.36861 -0.85034 0.37556
vn -0.37873 -0.92551 0
vn 0.36861 0.85034 0.37556
vn 0.36861 0.38161 0.84765
vn -0.36861 0.85034 0.37556
vn -0.36861 0.38161 0.84765
vn 0.36861 -0.38161 0.84765
vn -0.36861 -0.38161 0.84765
vn 0.37822 0 0.92571
vn -0.37822 0 0.92571
vn 0.36861 0.38161 -0.84765
vn 0.36861 0.85034 -0.37556
vn -0.36861 0.38161 -0.84765
vn -0.36861 0.85034 -0.37556
vn 0.37873 0.92551 0
vn -0.37873 0.92551 0
vn -0.37822 0 -0.92571
vn 0.37822 0 -0.92571
vn 0.36861 -0.85034 -0.37556
vn -0.36861 -0.85034 -0.37556
vn -0.91909 0 -0.39404
vn -0.90003 0.17891 -0.39741
vn -0.90003 -0.17891 -0.39741
vn -0.90003 -0.39868 -0.17608
vn -0.90003 0.39868 -0.17608
vn -0.91967 -0.39268 0
vn -0.91967 0.39268 0
vn -0.90003 -0.39868 0.17608
vn -0.90003 0.39868 0.17608
vn -0.90003 -0.17891 0.39741
vn -0.90003 0.17891 0.39741
vn -0.91909 0 0.39404
vn -0.36861 -0.38161 -0.84765
vn 0.36861 -0.38161 -0.84765
vn 0.91909 0 -0.39404
vn 0.90003 -0.17891 -0.39741
vn 0.90003 0.17891 -0.39741
vn 0.90003 0.39868 -0.17608
vn 0.90003 -0.39868 -0.17608
vn 0.91967 0.39268 0
vn 0.91967 -0.39268 0
vn 0.90003 0.39868 0.17608
vn 0.90003 -0.39868 0.17608
vn 0.90003 0.17891 0.39741
vn 0.90003 -0.17891 0.39741
vn 0.91909 0 0.39404
vn 0.18191 0.98331 0
vn 0.21658 0.8991 0.38041
vn 0.21835 0.88727 0.40629
vn 0.20552 0 0.97865
vn 0.22968 0.39303 0.89038
vn 0.23006 0.40507 0.88487
vn 0.23006 -0.40507 -0.88487
vn 0.22968 -0.39303 -0.89038
vn 0.20552 0 -0.97865
vn 0.22968 -0.39303 0.89038
vn 0.21658 -0.8991 0.38041
vn 0.23006 -0.40507 0.88487
vn 0.21835 -0.88727 0.40629
vn 0.21658 0.8991 -0.38041
vn 0.21835 0.88727 -0.40629
vn 0.22968 0.39303 -0.89038
vn 0.23006 0.40507 -0.88487
vn 0.18191 -0.98331 0
vn 0.21658 -0.8991 -0.38041
vn 0.21835 -0.88727 -0.40629
vn -0.20552 0 0.97865
vn -0.23006 0.40507 0.88487
vn -0.22968 0.39303 0.89038
vn -0.21835 0.88727 0.40629
vn -0.21658 0.8991 0.38041
vn -0.23006 -0.40507 0.88487
vn -0.22968 -0.39303 0.89038
vn -0.23006 -0.40507 -0.88487
vn -0.20552 0 -0.97865
vn -0.22968 -0.39303 -0.89038
vn -0.21835 -0.88727 0.40629
vn -0.21658 -0.8991 0.38041
vn -0.23006 0.40507 -0.88487
vn -0.21835 0.88727 -0.40629
vn -0.22968 0.39303 -0.89038
vn -0.21658 0.8991 -0.38041
vn -0.18191 -0.98331 0
vn -0.21835 -0.88727 -0.40629
vn -0.21658 -0.8991 -0.38041
vn -0.18191 0.98331 0
vn -1 0 0
vn -0.21328 -0.97699 0
vn -0.31945 -0.68924 0.6503
vn -0.32133 -0.66056 0.67854
vn -0.32133 0.66056 0.67854
vn -0.27505 0 0.96143
vn -0.31945 0.68924 0.6503
vn -0.21328 0.97699 0
vn -0.31945 0.68924 -0.6503
vn -0.32133 0.66056 -0.67854
vn -0.31945 -0.68924 -0.6503
vn -0.32133 -0.66056 -0.67854
vn -0.27505 0 -0.96143
vn 0.32133 -0.66056 0.67854
vn 0.31945 -0.68924 0.6503
vn 0.21328 -0.97699 0
vn 1 0 0
vn 0.32133 0.66056 0.67854
vn 0.31945 0.68924 0.6503
vn 0.27505 0 0.96143
vn 0.21328 0.97699 0
vn 0.27505 0 -0.96143
vn 0.31945 -0.68924 -0.6503
vn 0.32133 -0.66056 -0.67854
vn 0.32133 0.66056 -0.67854
vn 0.31945 0.68924 -0.6503
vn 0 -0.41297 0.91074
vn 0 0 1
vn 0.094555 -0.40607 0.90894
vn 0.084171 0 0.99645
vn 0 0.9124 0.4093
vn 0 0.41297 0.91074
vn -0.089136 0.91357 0.3968
vn -0.094555 0.40607 0.90894
vn -0.084171 0 -0.99645
vn 0 0 -1
vn -0.094555 0.40607 -0.90894
vn 0 0.41297 -0.91074
vn 0.089136 -0.91357 0.3968
vn 0 -0.9124 0.4093
vn 0 -0.41297 -0.91074
vn -0.094555 -0.40607 -0.90894
vn 0 -1 0
vn 0 -0.9124 -0.4093
vn -0.07421 -0.99724 0
vn -0.089136 -0.91357 -0.3968
vn 0.094555 0.40607 0.90894
vn 0.089136 0.91357 -0.3968
vn 0.07421 0.99724 0
vn 0 0.9124 -0.4093
vn 0 1 0
vn -0.089136 0.91357 -0.3968
vn 0.089136 0.91357 0.3968
vn 0.089136 -0.91357 -0.3968
vn 0.094555 -0.40607 -0.90894
vn -0.089136 -0.91357 0.3968
vn 0.094555 0.40607 -0.90894
vn -0.084171 0 0.99645
vn 0.07421 -0.99724 0
vn -0.07421 0.99724 0
vn 0.084171 0 -0.99645
vn -0.094555 -0.40607 0.90894
vt 0.34375 0.029048
vt 0.34375 0.025
vt 0.34375 0.22095
vt 0.34375 0.19246
vt 0.34375 0.057544
vt 0.34375 0.125
vt 0.34375 0.225
vt 0.34375 0.18898
vt 0.34375 0.061016
vt 0.34375 0.036785
vt 0.34375 0.21321
vt 0.34375 0.032908
vt 0.34375 0.21709
vt 0.46875 0.46591
vt 0.46875 0.46223
vt 0.46875 0.475
vt 0.46875 0.47095
vt 0.46875 0.375
vt 0.46875 0.43632
vt 0.46875 0.44246
vt 0.46875 0.30754
vt 0.46875 0.31368
vt 0.46875 0.28777
vt 0.46875 0.27905
vt 0.46875 0.28409
vt 0.46875 0.275
vt 0.46875 0.32248
vt 0.46875 0.31895
vt 0.46875 0.42752
vt 0.46875 0.43105
vt 0.46875 0.42175
vt 0.46875 0.32825
vt 0.46875 0.32512
vt 0.46875 0.42488
usemtl colormap
f 3/1/3 2/2/2 1/1/1
f 2/2/2 3/1/3 4/2/4
f 7/3/7 6/4/6 5/3/5
f 6/4/6 7/3/7 8/4/8
f 11/6/11 10/5/10 9/5/9
f 10/5/10 11/6/11 12/6/12
f 15/4/15 14/3/14 13/4/13
f 14/3/14 15/4/15 16/3/16
f 6/4/6 12/6/12 11/6/11
f 12/6/12 6/4/6 8/4/8
f 16/3/16 17/7/17 14/3/14
f 17/7/17 16/3/16 18/7/18
f 18/7/18 5/3/5 17/7/17
f 5/3/5 18/7/18 7/3/7
f 10/5/10 1/1/1 9/5/9
f 1/1/1 10/5/10 3/1/3
f 15/4/15 20/6/20 19/6/19
f 20/6/20 15/4/15 13/4/13
f 4/2/4 21/1/21 2/2/2
f 21/1/21 4/2/4 22/1/22
f 25/9/25 24/8/24 23/6/23
f 24/8/24 25/9/25 26/10/26
f 24/8/24 26/10/26 27/11/27
f 27/11/27 26/10/26 28/12/28
f 27/11/27 28/12/28 29/13/29
f 29/13/29 28/12/28 30/10/30
f 29/13/29 30/10/30 31/11/31
f 31/11/31 30/10/30 32/9/32
f 31/11/31 32/9/32 33/8/33
f 33/8/33 32/9/32 34/6/34
f 19/6/19 36/5/36 35/5/35
f 36/5/36 19/6/19 20/6/20
f 22/1/22 36/5/36 21/1/21
f 36/5/36 22/1/22 35/5/35
f 39/8/39 38/9/38 37/6/37
f 38/9/38 39/8/39 40/11/40
f 38/9/38 40/11/40 41/10/41
f 41/10/41 40/11/40 42/13/42
f 41/10/41 42/13/42 43/12/43
f 43/12/43 42/13/42 44/11/44
f 43/12/43 44/11/44 45/10/45
f 45/10/45 44/11/44 46/8/46
f 45/10/45 46/8/46 47/9/47
f 47/9/47 46/8/46 48/6/48
f 24/8/24 16/3/16 15/4/15
f 16/3/16 24/8/24 27/11/27
f 22/1/22 25/9/25 35/5/35
f 25/9/25 22/1/22 26/10/26
f 34/6/34 8/4/8 33/8/33
f 8/4/8 34/6/34 12/6/12
f 10/5/10 34/6/34 32/9/32
f 34/6/34 10/5/10 12/6/12
f 35/5/35 23/6/23 19/6/19
f 23/6/23 35/5/35 25/9/25
f 27/11/27 18/7/18 16/3/16
f 18/7/18 27/11/27 29/13/29
f 33/8/33 7/3/7 31/11/31
f 7/3/7 33/8/33 8/4/8
f 23/6/23 15/4/15 19/6/19
f 15/4/15 23/6/23 24/8/24
f 3/1/3 28/12/28 4/2/4
f 28/12/28 3/1/3 30/10/30
f 3/1/3 32/9/32 30/10/30
f 32/9/32 3/1/3 10/5/10
f 17/7/17 40/11/40 14/3/14
f 40/11/40 17/7/17 42/13/42
f 48/6/48 9/5/9 47/9/47
f 9/5/9 48/6/48 11/6/11
f 47/9/47 1/1/1 45/10/45
f 1/1/1 47/9/47 9/5/9
f 37/6/37 36/5/36 20/6/20
f 36/5/36 37/6/37 38/9/38
f 5/3/5 46/8/46 44/11/44
f 46/8/46 5/3/5 6/4/6
f 45/10/45 2/2/2 43/12/43
f 2/2/2 45/10/45 1/1/1
f 6/4/6 48/6/48 46/8/46
f 48/6/48 6/4/6 11/6/11
f 41/10/41 2/2/2 21/1/21
f 2/2/2 41/10/41 43/12/43
f 14/3/14 39/8/39 13/4/13
f 39/8/39 14/3/14 40/11/40
f 31/11/31 18/7/18 29/13/29
f 18/7/18 31/11/31 7/3/7
f 4/2/4 26/10/26 22/1/22
f 26/10/26 4/2/4 28/12/28
f 5/3/5 42/13/42 17/7/17
f 42/13/42 5/3/5 44/11/44
f 13/4/13 37/6/37 20/6/20
f 37/6/37 13/4/13 39/8/39
f 38/9/38 21/1/21 36/5/36
f 21/1/21 38/9/38 41/10/41
f 51/1/3 50/2/2 49/1/1
f 50/2/2 51/1/3 52/2/4
f 55/3/7 54/4/6 53/3/5
f 54/4/6 55/3/7 56/4/8
f 59/6/11 58/5/10 57/5/9
f 58/5/10 59/6/11 60/6/12
f 63/4/15 62/3/14 61/4/13
f 62/3/14 63/4/15 64/3/16
f 54/4/6 60/6/12 59/6/11
f 60/6/12 54/4/6 56/4/8
f 64/3/16 65/7/17 62/3/14
f 65/7/17 64/3/16 66/7/18
f 66/7/18 53/3/5 65/7/17
f 53/3/5 66/7/18 55/3/7
f 58/5/10 49/1/1 57/5/9
f 49/1/1 58/5/10 51/1/3
f 63/4/15 68/6/20 67/6/19
f 68/6/20 63/4/15 61/4/13
f 52/2/4 69/1/21 50/2/2
f 69/1/21 52/2/4 70/1/22
f 73/9/25 72/8/24 71/6/23
f 72/8/24 73/9/25 74/10/26
f 72/8/24 74/10/26 75/11/27
f 75/11/27 74/10/26 76/12/28
f 75/11/27 76/12/28 77/13/29
f 77/13/29 76/12/28 78/10/30
f 77/13/29 78/10/30 79/11/31
f 79/11/31 78/10/30 80/9/32
f 79/11/31 80/9/32 81/8/33
f 81/8/33 80/9/32 82/6/34
f 67/6/19 84/5/36 83/5/35
f 84/5/36 67/6/19 68/6/20
f 70/1/22 84/5/36 69/1/21
f 84/5/36 70/1/22 83/5/35
f 87/8/39 86/9/38 85/6/37
f 86/9/38 87/8/39 88/11/40
f 86/9/38 88/11/40 89/10/41
f 89/10/41 88/11/40 90/13/42
f 89/10/41 90/13/42 91/12/43
f 91/12/43 90/13/42 92/11/44
f 91/12/43 92/11/44 93/10/45
f 93/10/45 92/11/44 94/8/46
f 93/10/45 94/8/46 95/9/47
f 95/9/47 94/8/46 96/6/48
f 72/8/24 64/3/16 63/4/15
f 64/3/16 72/8/24 75/11/27
f 70/1/22 73/9/25 83/5/35
f 73/9/25 70/1/22 74/10/26
f 82/6/34 56/4/8 81/8/33
f 56/4/8 82/6/34 60/6/12
f 58/5/10 82/6/34 80/9/32
f 82/6/34 58/5/10 60/6/12
f 83/5/35 71/6/23 67/6/19
f 71/6/23 83/5/35 73/9/25
f 75/11/27 66/7/18 64/3/16
f 66/7/18 75/11/27 77/13/29
f 81/8/33 55/3/7 79/11/31
f 55/3/7 81/8/33 56/4/8
f 71/6/23 63/4/15 67/6/19
f 63/4/15 71/6/23 72/8/24
f 51/1/3 76/12/28 52/2/4
f 76/12/28 51/1/3 78/10/30
f 51/1/3 80/9/32 78/10/30
f 80/9/32 51/1/3 58/5/10
f 65/7/17 88/11/40 62/3/14
f 88/11/40 65/7/17 90/13/42
f 96/6/48 57/5/9 95/9/47
f 57/5/9 96/6/48 59/6/11
f 95/9/47 49/1/1 93/10/45
f 49/1/1 95/9/47 57/5/9
f 85/6/37 84/5/36 68/6/20
f 84/5/36 85/6/37 86/9/38
f 53/3/5 94/8/46 92/11/44
f 94/8/46 53/3/5 54/4/6
f 93/10/45 50/2/2 91/12/43
f 50/2/2 93/10/45 49/1/1
f 54/4/6 96/6/48 94/8/46
f 96/6/48 54/4/6 59/6/11
f 89/10/41 50/2/2 69/1/21
f 50/2/2 89/10/41 91/12/43
f 62/3/14 87/8/39 61/4/13
f 87/8/39 62/3/14 88/11/40
f 79/11/31 66/7/18 77/13/29
f 66/7/18 79/11/31 55/3/7
f 52/2/4 74/10/26 70/1/22
f 74/10/26 52/2/4 76/12/28
f 53/3/5 90/13/42 65/7/17
f 90/13/42 53/3/5 92/11/44
f 61/4/13 85/6/37 68/6/20
f 85/6/37 61/4/13 87/8/39
f 86/9/38 69/1/21 84/5/36
f 69/1/21 86/9/38 89/10/41
f 99/16/49 98/15/50 97/14/49
f 98/15/50 99/16/49 100/17/51
f 103/19/53 102/18/52 101/18/52
f 102/18/52 103/19/53 104/20/54
f 107/18/57 106/22/56 105/21/55
f 106/22/56 107/18/57 108/18/57
f 111/21/60 110/23/59 109/22/58
f 110/23/59 111/21/60 112/24/61
f 114/17/63 97/14/49 113/15/62
f 97/14/49 114/17/63 99/16/49
f 109/22/58 102/18/52 111/21/60
f 102/18/52 109/22/58 101/18/52
f 100/17/51 103/19/53 98/15/50
f 103/19/53 100/17/51 104/20/54
f 116/20/65 113/15/62 115/19/64
f 113/15/62 116/20/65 114/17/63
f 119/26/66 118/23/67 117/25/66
f 118/23/67 119/26/66 120/24/68
f 107/18/57 115/19/64 108/18/57
f 115/19/64 107/18/57 116/20/65
f 112/24/61 117/25/66 110/23/59
f 117/25/66 112/24/61 119/26/66
f 120/24/68 106/22/56 118/23/67
f 106/22/56 120/24/68 105/21/55
f 123/20/70 122/18/69 121/18/69
f 122/18/69 123/20/70 124/19/71
f 126/15/73 123/20/70 125/17/72
f 123/20/70 126/15/73 124/19/71
f 121/18/69 128/22/75 127/21/74
f 128/22/75 121/18/69 122/18/69
f 131/22/78 130/18/77 129/21/76
f 130/18/77 131/22/78 132/18/77
f 128/22/75 133/24/79 127/21/74
f 133/24/79 128/22/75 134/23/80
f 137/19/83 136/17/82 135/20/81
f 136/17/82 137/19/83 138/15/84
f 134/23/80 139/26/85 133/24/79
f 139/26/85 134/23/80 140/25/85
f 137/19/83 130/18/77 132/18/77
f 130/18/77 137/19/83 135/20/81
f 142/23/87 129/21/76 141/24/86
f 129/21/76 142/23/87 131/22/78
f 144/14/88 125/17/72 143/16/88
f 125/17/72 144/14/88 126/15/73
f 138/15/84 143/16/88 136/17/82
f 143/16/88 138/15/84 144/14/88
f 140/25/85 141/24/86 139/26/85
f 141/24/86 140/25/85 142/23/87
f 105/21/89 116/20/89 107/18/89
f 116/20/89 105/21/89 120/24/89
f 116/20/89 120/24/89 114/17/89
f 114/17/89 120/24/89 145/27/89
f 145/27/89 120/24/89 119/26/89
f 114/17/89 145/27/89 146/18/89
f 145/27/89 119/26/89 147/28/89
f 148/29/89 114/17/89 146/18/89
f 114/17/89 148/29/89 99/16/89
f 99/16/89 148/29/89 149/30/89
f 147/28/89 119/26/89 112/24/89
f 99/16/89 149/30/89 100/17/89
f 147/28/89 112/24/89 150/27/89
f 100/17/89 149/30/89 151/29/89
f 150/27/89 112/24/89 152/18/89
f 100/17/89 151/29/89 152/18/89
f 100/17/89 152/18/89 112/24/89
f 100/17/89 112/24/89 111/21/89
f 100/17/89 111/21/89 104/20/89
f 104/20/89 111/21/89 102/18/89
f 155/32/89 154/31/89 153/18/89
f 154/31/89 155/32/89 156/33/89
f 154/31/89 156/33/89 157/34/89
f 157/34/89 156/33/89 158/32/89
f 157/34/89 158/32/89 159/31/89
f 159/31/89 158/32/89 160/18/89
f 149/30/90 154/31/91 157/34/90
f 154/31/91 149/30/90 148/29/92
f 155/32/95 146/18/94 145/27/93
f 146/18/94 155/32/95 153/18/94
f 145/27/93 156/33/96 155/32/95
f 156/33/96 145/27/93 147/28/96
f 147/28/96 158/32/97 156/33/96
f 158/32/97 147/28/96 150/27/98
f 154/31/91 146/18/94 153/18/94
f 146/18/94 154/31/91 148/29/92
f 151/29/100 157/34/90 159/31/99
f 157/34/90 151/29/100 149/30/90
f 152/18/101 159/31/99 160/18/101
f 159/31/99 152/18/101 151/29/100
f 152/18/101 158/32/97 150/27/98
f 158/32/97 152/18/101 160/18/101
f 163/30/104 162/31/103 161/29/102
f 162/31/103 163/30/104 164/34/104
f 162/31/105 166/32/105 165/18/105
f 166/32/105 162/31/105 164/34/105
f 166/32/105 164/34/105 167/33/105
f 167/33/105 164/34/105 168/31/105
f 167/33/105 168/31/105 169/32/105
f 169/32/105 168/31/105 170/18/105
f 172/18/108 166/32/107 171/27/106
f 166/32/107 172/18/108 165/18/108
f 135/20/105 129/21/105 130/18/105
f 129/21/105 135/20/105 136/17/105
f 129/21/105 136/17/105 141/24/105
f 141/24/105 136/17/105 161/29/105
f 161/29/105 136/17/105 143/16/105
f 141/24/105 161/29/105 172/18/105
f 161/29/105 143/16/105 163/30/105
f 171/27/105 141/24/105 172/18/105
f 163/30/105 143/16/105 173/29/105
f 141/24/105 171/27/105 139/26/105
f 139/26/105 171/27/105 174/28/105
f 139/26/105 174/28/105 175/27/105
f 173/29/105 143/16/105 125/17/105
f 139/26/105 175/27/105 133/24/105
f 173/29/105 125/17/105 176/18/105
f 133/24/105 175/27/105 176/18/105
f 133/24/105 176/18/105 125/17/105
f 133/24/105 125/17/105 123/20/105
f 133/24/105 123/20/105 127/21/105
f 127/21/105 123/20/105 121/18/105
f 166/32/107 174/28/109 171/27/106
f 174/28/109 166/32/107 167/33/109
f 168/31/111 176/18/110 170/18/110
f 176/18/110 168/31/111 173/29/112
f 167/33/109 175/27/113 174/28/109
f 175/27/113 167/33/109 169/32/114
f 169/32/114 176/18/110 175/27/113
f 176/18/110 169/32/114 170/18/110
f 172/18/108 162/31/103 165/18/108
f 162/31/103 172/18/108 161/29/102
f 173/29/112 164/34/104 163/30/104
f 164/34/104 173/29/112 168/31/111
f 128/22/117 178/18/116 177/21/115
f 178/18/116 128/22/117 122/18/118
f 98/15/121 180/20/120 179/17/119
f 180/20/120 98/15/121 103/19/122
f 115/19/125 181/18/124 108/18/123
f 181/18/124 115/19/125 182/20/126
f 177/21/115 134/23/127 128/22/117
f 134/23/127 177/21/115 183/24/128
f 106/22/130 181/18/124 184/21/129
f 181/18/124 106/22/130 108/18/123
f 117/25/133 186/24/132 185/26/131
f 186/24/132 117/25/133 118/23/134
f 124/19/135 178/18/116 122/18/118
f 178/18/116 124/19/135 180/20/120
f 187/17/138 144/14/137 138/15/136
f 144/14/137 187/17/138 188/16/139
f 115/19/125 187/17/138 182/20/126
f 187/17/138 115/19/125 113/15/140
f 188/16/139 126/15/141 144/14/137
f 126/15/141 188/16/139 179/17/119
f 186/24/132 131/22/143 142/23/142
f 131/22/143 186/24/132 184/21/129
f 110/23/144 185/26/131 183/24/128
f 185/26/131 110/23/144 117/25/133
f 182/20/126 138/15/136 137/19/145
f 138/15/136 182/20/126 187/17/138
f 179/17/119 124/19/135 126/15/141
f 124/19/135 179/17/119 180/20/120
f 178/18/116 103/19/122 101/18/146
f 103/19/122 178/18/116 180/20/120
f 183/24/128 140/25/147 134/23/127
f 140/25/147 183/24/128 185/26/131
f 113/15/140 188/16/139 187/17/138
f 188/16/139 113/15/140 97/14/148
f 181/18/124 131/22/143 184/21/129
f 131/22/143 181/18/124 132/18/149
f 185/26/131 142/23/142 140/25/147
f 142/23/142 185/26/131 186/24/132
f 97/14/148 179/17/119 188/16/139
f 179/17/119 97/14/148 98/15/121
f 181/18/124 137/19/145 132/18/149
f 137/19/145 181/18/124 182/20/126
f 109/22/150 183/24/128 177/21/115
f 183/24/128 109/22/150 110/23/144
f 178/18/116 109/22/150 177/21/115
f 109/22/150 178/18/116 101/18/146
f 118/23/134 184/21/129 186/24/132
f 184/21/129 118/23/134 106/22/130
g hay-bale-bundled
usemtl colormap
f 3/1/3 2/2/2 1/1/1
f 2/2/2 3/1/3 4/2/4
f 7/3/7 6/4/6 5/3/5
f 6/4/6 7/3/7 8/4/8
f 11/6/11 10/5/10 9/5/9
f 10/5/10 11/6/11 12/6/12
f 15/4/15 14/3/14 13/4/13
f 14/3/14 15/4/15 16/3/16
f 6/4/6 12/6/12 11/6/11
f 12/6/12 6/4/6 8/4/8
f 16/3/16 17/7/17 14/3/14
f 17/7/17 16/3/16 18/7/18
f 18/7/18 5/3/5 17/7/17
f 5/3/5 18/7/18 7/3/7
f 10/5/10 1/1/1 9/5/9
f 1/1/1 10/5/10 3/1/3
f 15/4/15 20/6/20 19/6/19
f 20/6/20 15/4/15 13/4/13
f 4/2/4 21/1/21 2/2/2
f 21/1/21 4/2/4 22/1/22
f 25/9/25 24/8/24 23/6/23
f 24/8/24 25/9/25 26/10/26
f 24/8/24 26/10/26 27/11/27
f 27/11/27 26/10/26 28/12/28
f 27/11/27 28/12/28 29/13/29
f 29/13/29 28/12/28 30/10/30
f 29/13/29 30/10/30 31/11/31
f 31/11/31 30/10/30 32/9/32
f 31/11/31 32/9/32 33/8/33
f 33/8/33 32/9/32 34/6/34
f 19/6/19 36/5/36 35/5/35
f 36/5/36 19/6/19 20/6/20
f 22/1/22 36/5/36 21/1/21
f 36/5/36 22/1/22 35/5/35
f 39/8/39 38/9/38 37/6/37
f 38/9/38 39/8/39 40/11/40
f 38/9/38 40/11/40 41/10/41
f 41/10/41 40/11/40 42/13/42
f 41/10/41 42/13/42 43/12/43
f 43/12/43 42/13/42 44/11/44
f 43/12/43 44/11/44 45/10/45
f 45/10/45 44/11/44 46/8/46
f 45/10/45 46/8/46 47/9/47
f 47/9/47 46/8/46 48/6/48
f 24/8/24 16/3/16 15/4/15
f 16/3/16 24/8/24 27/11/27
f 22/1/22 25/9/25 35/5/35
f 25/9/25 22/1/22 26/10/26
f 34/6/34 8/4/8 33/8/33
f 8/4/8 34/6/34 12/6/12
f 10/5/10 34/6/34 32/9/32
f 34/6/34 10/5/10 12/6/12
f 35/5/35 23/6/23 19/6/19
f 23/6/23 35/5/35 25/9/25
f 27/11/27 18/7/18 16/3/16
f 18/7/18 27/11/27 29/13/29
f 33/8/33 7/3/7 31/11/31
f 7/3/7 33/8/33 8/4/8
f 23/6/23 15/4/15 19/6/19
f 15/4/15 23/6/23 24/8/24
f 3/1/3 28/12/28 4/2/4
f 28/12/28 3/1/3 30/10/30
f 3/1/3 32/9/32 30/10/30
f 32/9/32 3/1/3 10/5/10
f 17/7/17 40/11/40 14/3/14
f 40/11/40 17/7/17 42/13/42
f 48/6/48 9/5/9 47/9/47
f 9/5/9 48/6/48 11/6/11
f 47/9/47 1/1/1 45/10/45
f 1/1/1 47/9/47 9/5/9
f 37/6/37 36/5/36 20/6/20
f 36/5/36 37/6/37 38/9/38
f 5/3/5 46/8/46 44/11/44
f 46/8/46 5/3/5 6/4/6
f 45/10/45 2/2/2 43/12/43
f 2/2/2 45/10/45 1/1/1
f 6/4/6 48/6/48 46/8/46
f 48/6/48 6/4/6 11/6/11
f 41/10/41 2/2/2 21/1/21
f 2/2/2 41/10/41 43/12/43
f 14/3/14 39/8/39 13/4/13
f 39/8/39 14/3/14 40/11/40
f 31/11/31 18/7/18 29/13/29
f 18/7/18 31/11/31 7/3/7
f 4/2/4 26/10/26 22/1/22
f 26/10/26 4/2/4 28/12/28
f 5/3/5 42/13/42 17/7/17
f 42/13/42 5/3/5 44/11/44
f 13/4/13 37/6/37 20/6/20
f 37/6/37 13/4/13 39/8/39
f 38/9/38 21/1/21 36/5/36
f 21/1/21 38/9/38 41/10/41
f 51/1/3 50/2/2 49/1/1
f 50/2/2 51/1/3 52/2/4
f 55/3/7 54/4/6 53/3/5
f 54/4/6 55/3/7 56/4/8
f 59/6/11 58/5/10 57/5/9
f 58/5/10 59/6/11 60/6/12
f 63/4/15 62/3/14 61/4/13
f 62/3/14 63/4/15 64/3/16
f 54/4/6 60/6/12 59/6/11
f 60/6/12 54/4/6 56/4/8
f 64/3/16 65/7/17 62/3/14
f 65/7/17 64/3/16 66/7/18
f 66/7/18 53/3/5 65/7/17
f 53/3/5 66/7/18 55/3/7
f 58/5/10 49/1/1 57/5/9
f 49/1/1 58/5/10 51/1/3
f 63/4/15 68/6/20 67/6/19
f 68/6/20 63/4/15 61/4/13
f 52/2/4 69/1/21 50/2/2
f 69/1/21 52/2/4 70/1/22
f 73/9/25 72/8/24 71/6/23
f 72/8/24 73/9/25 74/10/26
f 72/8/24 74/10/26 75/11/27
f 75/11/27 74/10/26 76/12/28
f 75/11/27 76/12/28 77/13/29
f 77/13/29 76/12/28 78/10/30
f 77/13/29 78/10/30 79/11/31
f 79/11/31 78/10/30 80/9/32
f 79/11/31 80/9/32 81/8/33
f 81/8/33 80/9/32 82/6/34
f 67/6/19 84/5/36 83/5/35
f 84/5/36 67/6/19 68/6/20
f 70/1/22 84/5/36 69/1/21
f 84/5/36 70/1/22 83/5/35
f 87/8/39 86/9/38 85/6/37
f 86/9/38 87/8/39 88/11/40
f 86/9/38 88/11/40 89/10/41
f 89/10/41 88/11/40 90/13/42
f 89/10/41 90/13/42 91/12/43
f 91/12/43 90/13/42 92/11/44
f 91/12/43 92/11/44 93/10/45
f 93/10/45 92/11/44 94/8/46
f 93/10/45 94/8/46 95/9/47
f 95/9/47 94/8/46 96/6/48
f 72/8/24 64/3/16 63/4/15
f 64/3/16 72/8/24 75/11/27
f 70/1/22 73/9/25 83/5/35
f 73/9/25 70/1/22 74/10/26
f 82/6/34 56/4/8 81/8/33
f 56/4/8 82/6/34 60/6/12
f 58/5/10 82/6/34 80/9/32
f 82/6/34 58/5/10 60/6/12
f 83/5/35 71/6/23 67/6/19
f 71/6/23 83/5/35 73/9/25
f 75/11/27 66/7/18 64/3/16
f 66/7/18 75/11/27 77/13/29
f 81/8/33 55/3/7 79/11/31
f 55/3/7 81/8/33 56/4/8
f 71/6/23 63/4/15 67/6/19
f 63/4/15 71/6/23 72/8/24
f 51/1/3 76/12/28 52/2/4
f 76/12/28 51/1/3 78/10/30
f 51/1/3 80/9/32 78/10/30
f 80/9/32 51/1/3 58/5/10
f 65/7/17 88/11/40 62/3/14
f 88/11/40 65/7/17 90/13/42
f 96/6/48 57/5/9 95/9/47
f 57/5/9 96/6/48 59/6/11
f 95/9/47 49/1/1 93/10/45
f 49/1/1 95/9/47 57/5/9
f 85/6/37 84/5/36 68/6/20
f 84/5/36 85/6/37 86/9/38
f 53/3/5 94/8/46 92/11/44
f 94/8/46 53/3/5 54/4/6
f 93/10/45 50/2/2 91/12/43
f 50/2/2 93/10/45 49/1/1
f 54/4/6 96/6/48 94/8/46
f 96/6/48 54/4/6 59/6/11
f 89/10/41 50/2/2 69/1/21
f 50/2/2 89/10/41 91/12/43
f 62/3/14 87/8/39 61/4/13
f 87/8/39 62/3/14 88/11/40
f 79/11/31 66/7/18 77/13/29
f 66/7/18 79/11/31 55/3/7
f 52/2/4 74/10/26 70/1/22
f 74/10/26 52/2/4 76/12/28
f 53/3/5 90/13/42 65/7/17
f 90/13/42 53/3/5 92/11/44
f 61/4/13 85/6/37 68/6/20
f 85/6/37 61/4/13 87/8/39
f 86/9/38 69/1/21 84/5/36
f 69/1/21 86/9/38 89/10/41
f 99/16/49 98/15/50 97/14/49
f 98/15/50 99/16/49 100/17/51
f 103/19/53 102/18/52 101/18/52
f 102/18/52 103/19/53 104/20/54
f 107/18/57 106/22/56 105/21/55
f 106/22/56 107/18/57 108/18/57
f 111/21/60 110/23/59 109/22/58
f 110/23/59 111/21/60 112/24/61
f 114/17/63 97/14/49 113/15/62
f 97/14/49 114/17/63 99/16/49
f 109/22/58 102/18/52 111/21/60
f 102/18/52 109/22/58 101/18/52
f 100/17/51 103/19/53 98/15/50
f 103/19/53 100/17/51 104/20/54
f 116/20/65 113/15/62 115/19/64
f 113/15/62 116/20/65 114/17/63
f 119/26/66 118/23/67 117/25/66
f 118/23/67 119/26/66 120/24/68
f 107/18/57 115/19/64 108/18/57
f 115/19/64 107/18/57 116/20/65
f 112/24/61 117/25/66 110/23/59
f 117/25/66 112/24/61 119/26/66
f 120/24/68 106/22/56 118/23/67
f 106/22/56 120/24/68 105/21/55
f 123/20/70 122/18/69 121/18/69
f 122/18/69 123/20/70 124/19/71
f 126/15/73 123/20/70 125/17/72
f 123/20/70 126/15/73 124/19/71
f 121/18/69 128/22/75 127/21/74
f 128/22/75 121/18/69 122/18/69
f 131/22/78 130/18/77 129/21/76
f 130/18/77 131/22/78 132/18/77
f 128/22/75 133/24/79 127/21/74
f 133/24/79 128/22/75 134/23/80
f 137/19/83 136/17/82 135/20/81
f 136/17/82 137/19/83 138/15/84
f 134/23/80 139/26/85 133/24/79
f 139/26/85 134/23/80 140/25/85
f 137/19/83 130/18/77 132/18/77
f 130/18/77 137/19/83 135/20/81
f 142/23/87 129/21/76 141/24/86
f 129/21/76 142/23/87 131/22/78
f 144/14/88 125/17/72 143/16/88
f 125/17/72 144/14/88 126/15/73
f 138/15/84 143/16/88 136/17/82
f 143/16/88 138/15/84 144/14/88
f 140/25/85 141/24/86 139/26/85
f 141/24/86 140/25/85 142/23/87
f 105/21/89 116/20/89 107/18/89
f 116/20/89 105/21/89 120/24/89
f 116/20/89 120/24/89 114/17/89
f 114/17/89 120/24/89 145/27/89
f 145/27/89 120/24/89 119/26/89
f 114/17/89 145/27/89 146/18/89
f 145/27/89 119/26/89 147/28/89
f 148/29/89 114/17/89 146/18/89
f 114/17/89 148/29/89 99/16/89
f 99/16/89 148/29/89 149/30/89
f 147/28/89 119/26/89 112/24/89
f 99/16/89 149/30/89 100/17/89
f 147/28/89 112/24/89 150/27/89
f 100/17/89 149/30/89 151/29/89
f 150/27/89 112/24/89 152/18/89
f 100/17/89 151/29/89 152/18/89
f 100/17/89 152/18/89 112/24/89
f 100/17/89 112/24/89 111/21/89
f 100/17/89 111/21/89 104/20/89
f 104/20/89 111/21/89 102/18/89
f 155/32/89 154/31/89 153/18/89
f 154/31/89 155/32/89 156/33/89
f 154/31/89 156/33/89 157/34/89
f 157/34/89 156/33/89 158/32/89
f 157/34/89 158/32/89 159/31/89
f 159/31/89 158/32/89 160/18/89
f 149/30/90 154/31/91 157/34/90
f 154/31/91 149/30/90 148/29/92
f 155/32/95 146/18/94 145/27/93
f 146/18/94 155/32/95 153/18/94
f 145/27/93 156/33/96 155/32/95
f 156/33/96 145/27/93 147/28/96
f 147/28/96 158/32/97 156/33/96
f 158/32/97 147/28/96 150/27/98
f 154/31/91 146/18/94 153/18/94
f 146/18/94 154/31/91 148/29/92
f 151/29/100 157/34/90 159/31/99
f 157/34/90 151/29/100 149/30/90
f 152/18/101 159/31/99 160/18/101
f 159/31/99 152/18/101 151/29/100
f 152/18/101 158/32/97 150/27/98
f 158/32/97 152/18/101 160/18/101
f 163/30/104 162/31/103 161/29/102
f 162/31/103 163/30/104 164/34/104
f 162/31/105 166/32/105 165/18/105
f 166/32/105 162/31/105 164/34/105
f 166/32/105 164/34/105 167/33/105
f 167/33/105 164/34/105 168/31/105
f 167/33/105 168/31/105 169/32/105
f 169/32/105 168/31/105 170/18/105
f 172/18/108 166/32/107 171/27/106
f 166/32/107 172/18/108 165/18/108
f 135/20/105 129/21/105 130/18/105
f 129/21/105 135/20/105 136/17/105
f 129/21/105 136/17/105 141/24/105
f 141/24/105 136/17/105 161/29/105
f 161/29/105 136/17/105 143/16/105
f 141/24/105 161/29/105 172/18/105
f 161/29/105 143/16/105 163/30/105
f 171/27/105 141/24/105 172/18/105
f 163/30/105 143/16/105 173/29/105
f 141/24/105 171/27/105 139/26/105
f 139/26/105 171/27/105 174/28/105
f 139/26/105 174/28/105 175/27/105
f 173/29/105 143/16/105 125/17/105
f 139/26/105 175/27/105 133/24/105
f 173/29/105 125/17/105 176/18/105
f 133/24/105 175/27/105 176/18/105
f 133/24/105 176/18/105 125/17/105
f 133/24/105 125/17/105 123/20/105
f 133/24/105 123/20/105 127/21/105
f 127/21/105 123/20/105 121/18/105
f 166/32/107 174/28/109 171/27/106
f 174/28/109 166/32/107 167/33/109
f 168/31/111 176/18/110 170/18/110
f 176/18/110 168/31/111 173/29/112
f 167/33/109 175/27/113 174/28/109
f 175/27/113 167/33/109 169/32/114
f 169/32/114 176/18/110 175/27/113
f 176/18/110 169/32/114 170/18/110
f 172/18/108 162/31/103 165/18/108
f 162/31/103 172/18/108 161/29/102
f 173/29/112 164/34/104 163/30/104
f 164/34/104 173/29/112 168/31/111
f 128/22/117 178/18/116 177/21/115
f 178/18/116 128/22/117 122/18/118
f 98/15/121 180/20/120 179/17/119
f 180/20/120 98/15/121 103/19/122
f 115/19/125 181/18/124 108/18/123
f 181/18/124 115/19/125 182/20/126
f 177/21/115 134/23/127 128/22/117
f 134/23/127 177/21/115 183/24/128
f 106/22/130 181/18/124 184/21/129
f 181/18/124 106/22/130 108/18/123
f 117/25/133 186/24/132 185/26/131
f 186/24/132 117/25/133 118/23/134
f 124/19/135 178/18/116 122/18/118
f 178/18/116 124/19/135 180/20/120
f 187/17/138 144/14/137 138/15/136
f 144/14/137 187/17/138 188/16/139
f 115/19/125 187/17/138 182/20/126
f 187/17/138 115/19/125 113/15/140
f 188/16/139 126/15/141 144/14/137
f 126/15/141 188/16/139 179/17/119
f 186/24/132 131/22/143 142/23/142
f 131/22/143 186/24/132 184/21/129
f 110/23/144 185/26/131 183/24/128
f 185/26/131 110/23/144 117/25/133
f 182/20/126 138/15/136 137/19/145
f 138/15/136 182/20/126 187/17/138
f 179/17/119 124/19/135 126/15/141
f 124/19/135 179/17/119 180/20/120
f 178/18/116 103/19/122 101/18/146
f 103/19/122 178/18/116 180/20/120
f 183/24/128 140/25/147 134/23/127
f 140/25/147 183/24/128 185/26/131
f 113/15/140 188/16/139 187/17/138
f 188/16/139 113/15/140 97/14/148
f 181/18/124 131/22/143 184/21/129
f 131/22/143 181/18/124 132/18/149
f 185/26/131 142/23/142 140/25/147
f 142/23/142 185/26/131 186/24/132
f 97/14/148 179/17/119 188/16/139
f 179/17/119 97/14/148 98/15/121
f 181/18/124 137/19/145 132/18/149
f 137/19/145 181/18/124 182/20/126
f 109/22/150 183/24/128 177/21/115
f 183/24/128 109/22/150 110/23/144
f 178/18/116 109/22/150 177/21/115
f 109/22/150 178/18/116 101/18/146
f 118/23/134 184/21/129 186/24/132
f 184/21/129 118/23/134 106/22/130
