mtllib hay-bale.mtl
g hay-bale
v -0.21629 0.35087 2.8876e-15
v -0.21629 0.34436 0.1303
v -0.30329 0.36697 1.6315e-15
v -0.30329 0.3598 0.14333
v -0.21629 0.18992 0.1827
v -0.30329 0.18992 0.20097
v -0.21629 0.29849 0.1765
v -0.30329 0.30935 0.19415
v -0.30329 0.070493 -0.19415
v -0.21629 0.08135 -0.1765
v -0.30329 0.18992 -0.20097
v -0.21629 0.18992 -0.1827
v -0.21629 0.08135 0.1765
v -0.21629 0.035486 0.1303
v -0.30329 0.070493 0.19415
v -0.30329 0.020043 0.14333
v -0.21629 0.34436 -0.1303
v -0.30329 0.3598 -0.14333
v -0.21629 0.29849 -0.1765
v -0.30329 0.30935 -0.19415
v -0.21629 0.028971 2.8876e-15
v -0.21629 0.035486 -0.1303
v -0.30329 0.012876 1.6315e-15
v -0.30329 0.020043 -0.14333
v 0.30329 0.18992 0.20097
v 0.21629 0.18992 0.1827
v 0.30329 0.30935 0.19415
v 0.21629 0.29849 0.1765
v 0.30329 0.3598 0.14333
v 0.21629 0.34436 0.1303
v 0.30329 0.070493 0.19415
v 0.21629 0.08135 0.1765
v 0.30329 0.070493 -0.19415
v 0.30329 0.18992 -0.20097
v 0.21629 0.08135 -0.1765
v 0.21629 0.18992 -0.1827
v 0.30329 0.020043 0.14333
v 0.21629 0.035486 0.1303
v 0.30329 0.30935 -0.19415
v 0.30329 0.3598 -0.14333
v 0.21629 0.29849 -0.1765
v 0.21629 0.34436 -0.1303
v 0.30329 0.012876 2.8876e-15
v 0.21629 0.028971 2.8876e-15
v 0.30329 0.020043 -0.14333
v 0.21629 0.035486 -0.1303
v 0.30329 0.36697 2.8876e-15
v 0.21629 0.35087 2.8876e-15
v -0.30329 0.09693 -0.12473
v -0.30329 0.18992 -0.13004
v -0.30329 0.090694 2.8876e-15
v -0.30329 0.28291 -0.12473
v -0.30329 0.28915 1.2937e-14
v -0.30329 0.09693 0.12473
v -0.30329 0.28291 0.12473
v -0.30329 0.18992 0.13004
v -0.25329 0.18992 -0.11574
v -0.25329 0.27268 -0.11101
v -0.25329 0.10716 -0.11101
v -0.25329 0.10161 5.3999e-15
v -0.25329 0.27823 1.4193e-14
v -0.25329 0.10716 0.11101
v -0.25329 0.27268 0.11101
v -0.25329 0.18992 0.11574
v 0.30329 0.28291 -0.12473
v 0.25329 0.27268 -0.11101
v 0.30329 0.28915 -8.4175e-15
v 0.25329 0.27823 -1.407e-14
v 0.25329 0.18992 -0.11574
v 0.25329 0.10716 -0.11101
v 0.25329 0.10161 -5.2772e-15
v 0.25329 0.27268 0.11101
v 0.25329 0.10716 0.11101
v 0.25329 0.18992 0.11574
v 0.30329 0.09693 -0.12473
v 0.30329 0.18992 -0.13004
v 0.30329 0.28291 0.12473
v 0.30329 0.090694 1.6315e-15
v 0.30329 0.09693 0.12473
v 0.30329 0.18992 0.13004
v -3.1403e-16 0.070493 0.19415
v -3.1403e-16 0.18992 0.20097
v -3.1403e-16 0.3598 0.14333
v -3.1403e-16 0.30935 0.19415
v -3.1403e-16 0.18992 -0.20097
v -3.1403e-16 0.30935 -0.19415
v -3.1403e-16 0.020043 0.14333
v -3.1403e-16 0.070493 -0.19415
v -3.1403e-16 0.012876 2.8876e-15
v -3.1403e-16 0.020043 -0.14333
v -3.1403e-16 0.3598 -0.14333
v -3.1403e-16 0.36697 2.8876e-15
vn 0.18191 0.98331 0
vn 0.21658 0.8991 0.38041
vn 0.21835 0.88727 0.40629
vn 0.20552 0 0.97865
vn 0.22968 0.39303 0.89038
vn 0.23006 0.40507 0.88487
vn 0.23006 -0.40507 -0.88487
vn 0.22968 -0.39303 -0.89038
vn 0.20552 0 -0.97865
vn 0.22968 -0.39303 0.89038
vn 0.21658 -0.8991 0.38041
vn 0.23006 -0.40507 0.88487
vn 0.21835 -0.88727 0.40629
vn 0.21658 0.8991 -0.38041
vn 0.21835 0.88727 -0.40629
vn 0.22968 0.39303 -0.89038
vn 0.23006 0.40507 -0.88487
vn 0.18191 -0.98331 0
vn 0.21658 -0.8991 -0.38041
vn 0.21835 -0.88727 -0.40629
vn -0.20552 0 0.97865
vn -0.23006 0.40507 0.88487
vn -0.22968 0.39303 0.89038
vn -0.21835 0.88727 0.40629
vn -0.21658 0.8991 0.38041
vn -0.23006 -0.40507 0.88487
vn -0.22968 -0.39303 0.89038
vn -0.23006 -0.40507 -0.88487
vn -0.20552 0 -0.97865
vn -0.22968 -0.39303 -0.89038
vn -0.21835 -0.88727 0.40629
vn -0.21658 -0.8991 0.38041
vn -0.23006 0.40507 -0.88487
vn -0.21835 0.88727 -0.40629
vn -0.22968 0.39303 -0.89038
vn -0.21658 0.8991 -0.38041
vn -0.18191 -0.98331 0
vn -0.21835 -0.88727 -0.40629
vn -0.21658 -0.8991 -0.38041
vn -0.18191 0.98331 0
vn -1 0 0
vn -0.21328 -0.97699 0
vn -0.31945 -0.68924 0.6503
vn -0.32133 -0.66056 0.67854
vn -0.32133 0.66056 0.67854
vn -0.27505 0 0.96143
vn -0.31945 0.68924 0.6503
vn -0.21328 0.97699 0
vn -0.31945 0.68924 -0.6503
vn -0.32133 0.66056 -0.67854
vn -0.31945 -0.68924 -0.6503
vn -0.32133 -0.66056 -0.67854
vn -0.27505 0 -0.96143
vn 0.32133 -0.66056 0.67854
vn 0.31945 -0.68924 0.6503
vn 0.21328 -0.97699 0
vn 1 0 0
vn 0.32133 0.66056 0.67854
vn 0.31945 0.68924 0.6503
vn 0.27505 0 0.96143
vn 0.21328 0.97699 0
vn 0.27505 0 -0.96143
vn 0.31945 -0.68924 -0.6503
vn 0.32133 -0.66056 -0.67854
vn 0.32133 0.66056 -0.67854
vn 0.31945 0.68924 -0.6503
vn 0 -0.41297 0.91074
vn 0 0 1
vn 0.094555 -0.40607 0.90894
vn 0.084171 0 0.99645
vn 0 0.9124 0.4093
vn 0 0.41297 0.91074
vn -0.089136 0.91357 0.3968
vn -0.094555 0.40607 0.90894
vn -0.084171 0 -0.99645
vn 0 0 -1
vn -0.094555 0.40607 -0.90894
vn 0 0.41297 -0.91074
vn 0.089136 -0.91357 0.3968
vn 0 -0.9124 0.4093
vn 0 -0.41297 -0.91074
vn -0.094555 -0.40607 -0.90894
vn 0 -1 0
vn 0 -0.9124 -0.4093
vn -0.07421 -0.99724 0
vn -0.089136 -0.91357 -0.3968
vn 0.094555 0.40607 0.90894
vn 0.089136 0.91357 -0.3968
vn 0.07421 0.99724 0
vn 0 0.9124 -0.4093
vn 0 1 0
vn -0.089136 0.91357 -0.3968
vn 0.089136 0.91357 0.3968
vn 0.089136 -0.91357 -0.3968
vn 0.094555 -0.40607 -0.90894
vn -0.089136 -0.91357 0.3968
vn 0.094555 0.40607 -0.90894
vn -0.084171 0 0.99645
vn 0.07421 -0.99724 0
vn -0.07421 0.99724 0
vn 0.084171 0 -0.99645
vn -0.094555 -0.40607 0.90894
vt 0.46875 0.46591
vt 0.46875 0.46223
vt 0.46875 0.475
vt 0.46875 0.47095
vt 0.46875 0.375
vt 0.46875 0.43632
vt 0.46875 0.44246
vt 0.46875 0.30754
vt 0.46875 0.31368
vt 0.46875 0.28777
vt 0.46875 0.27905
vt 0.46875 0.28409
vt 0.46875 0.275
vt 0.46875 0.32248
vt 0.46875 0.31895
vt 0.46875 0.42752
vt 0.46875 0.43105
vt 0.46875 0.42175
vt 0.46875 0.32825
vt 0.46875 0.32512
vt 0.46875 0.42488
usemtl colormap
f 3/3/1 2/2/2 1/1/1
f 2/2/2 3/3/1 4/4/3
f 7/6/5 6/5/4 5/5/4
f 6/5/4 7/6/5 8/7/6
f 11/5/9 10/9/8 9/8/7
f 10/9/8 11/5/9 12/5/9
f 15/8/12 14/10/11 13/9/10
f 14/10/11 15/8/12 16/11/13
f 18/4/15 1/1/1 17/2/14
f 1/1/1 18/4/15 3/3/1
f 13/9/10 6/5/4 15/8/12
f 6/5/4 13/9/10 5/5/4
f 4/4/3 7/6/5 2/2/2
f 7/6/5 4/4/3 8/7/6
f 20/7/17 17/2/14 19/6/16
f 17/2/14 20/7/17 18/4/15
f 23/13/18 22/10/19 21/12/18
f 22/10/19 23/13/18 24/11/20
f 11/5/9 19/6/16 12/5/9
f 19/6/16 11/5/9 20/7/17
f 16/11/13 21/12/18 14/10/11
f 21/12/18 16/11/13 23/13/18
f 24/11/20 10/9/8 22/10/19
f 10/9/8 24/11/20 9/8/7
f 27/7/22 26/5/21 25/5/21
f 26/5/21 27/7/22 28/6/23
f 30/2/25 27/7/22 29/4/24
f 27/7/22 30/2/25 28/6/23
f 25/5/21 32/9/27 31/8/26
f 32/9/27 25/5/21 26/5/21
f 35/9/30 34/5/29 33/8/28
f 34/5/29 35/9/30 36/5/29
f 32/9/27 37/11/31 31/8/26
f 37/11/31 32/9/27 38/10/32
f 41/6/35 40/4/34 39/7/33
f 40/4/34 41/6/35 42/2/36
f 38/10/32 43/13/37 37/11/31
f 43/13/37 38/10/32 44/12/37
f 41/6/35 34/5/29 36/5/29
f 34/5/29 41/6/35 39/7/33
f 46/10/39 33/8/28 45/11/38
f 33/8/28 46/10/39 35/9/30
f 48/1/40 29/4/24 47/3/40
f 29/4/24 48/1/40 30/2/25
f 42/2/36 47/3/40 40/4/34
f 47/3/40 42/2/36 48/1/40
f 44/12/37 45/11/38 43/13/37
f 45/11/38 44/12/37 46/10/39
f 9/8/41 20/7/41 11/5/41
f 20/7/41 9/8/41 24/11/41
f 20/7/41 24/11/41 18/4/41
f 18/4/41 24/11/41 49/14/41
f 49/14/41 24/11/41 23/13/41
f 18/4/41 49/14/41 50/5/41
f 49/14/41 23/13/41 51/15/41
f 52/16/41 18/4/41 50/5/41
f 18/4/41 52/16/41 3/3/41
f 3/3/41 52/16/41 53/17/41
f 51/15/41 23/13/41 16/11/41
f 3/3/41 53/17/41 4/4/41
f 51/15/41 16/11/41 54/14/41
f 4/4/41 53/17/41 55/16/41
f 54/14/41 16/11/41 56/5/41
f 4/4/41 55/16/41 56/5/41
f 4/4/41 56/5/41 16/11/41
f 4/4/41 16/11/41 15/8/41
f 4/4/41 15/8/41 8/7/41
f 8/7/41 15/8/41 6/5/41
f 59/19/41 58/18/41 57/5/41
f 58/18/41 59/19/41 60/20/41
f 58/18/41 60/20/41 61/21/41
f 61/21/41 60/20/41 62/19/41
f 61/21/41 62/19/41 63/18/41
f 63/18/41 62/19/41 64/5/41
f 53/17/42 58/18/43 61/21/42
f 58/18/43 53/17/42 52/16/44
f 59/19/47 50/5/46 49/14/45
f 50/5/46 59/19/47 57/5/46
f 49/14/45 60/20/48 59/19/47
f 60/20/48 49/14/45 51/15/48
f 51/15/48 62/19/49 60/20/48
f 62/19/49 51/15/48 54/14/50
f 58/18/43 50/5/46 57/5/46
f 50/5/46 58/18/43 52/16/44
f 55/16/52 61/21/42 63/18/51
f 61/21/42 55/16/52 53/17/42
f 56/5/53 63/18/51 64/5/53
f 63/18/51 56/5/53 55/16/52
f 56/5/53 62/19/49 54/14/50
f 62/19/49 56/5/53 64/5/53
f 67/17/56 66/18/55 65/16/54
f 66/18/55 67/17/56 68/21/56
f 66/18/57 70/19/57 69/5/57
f 70/19/57 66/18/57 68/21/57
f 70/19/57 68/21/57 71/20/57
f 71/20/57 68/21/57 72/18/57
f 71/20/57 72/18/57 73/19/57
f 73/19/57 72/18/57 74/5/57
f 76/5/60 70/19/59 75/14/58
f 70/19/59 76/5/60 69/5/60
f 39/7/57 33/8/57 34/5/57
f 33/8/57 39/7/57 40/4/57
f 33/8/57 40/4/57 45/11/57
f 45/11/57 40/4/57 65/16/57
f 65/16/57 40/4/57 47/3/57
f 45/11/57 65/16/57 76/5/57
f 65/16/57 47/3/57 67/17/57
f 75/14/57 45/11/57 76/5/57
f 67/17/57 47/3/57 77/16/57
f 45/11/57 75/14/57 43/13/57
f 43/13/57 75/14/57 78/15/57
f 43/13/57 78/15/57 79/14/57
f 77/16/57 47/3/57 29/4/57
f 43/13/57 79/14/57 37/11/57
f 77/16/57 29/4/57 80/5/57
f 37/11/57 79/14/57 80/5/57
f 37/11/57 80/5/57 29/4/57
f 37/11/57 29/4/57 27/7/57
f 37/11/57 27/7/57 31/8/57
f 31/8/57 27/7/57 25/5/57
f 70/19/59 78/15/61 75/14/58
f 78/15/61 70/19/59 71/20/61
f 72/18/63 80/5/62 74/5/62
f 80/5/62 72/18/63 77/16/64
f 71/20/61 79/14/65 78/15/61
f 79/14/65 71/20/61 73/19/66
f 73/19/66 80/5/62 79/14/65
f 80/5/62 73/19/66 74/5/62
f 76/5/60 66/18/55 69/5/60
f 66/18/55 76/5/60 65/16/54
f 77/16/64 68/21/56 67/17/56
f 68/21/56 77/16/64 72/18/63
f 32/9/69 82/5/68 81/8/67
f 82/5/68 32/9/69 26/5/70
f 2/2/73 84/7/72 83/4/71
f 84/7/72 2/2/73 7/6/74
f 19/6/77 85/5/76 12/5/75
f 85/5/76 19/6/77 86/7/78
f 81/8/67 38/10/79 32/9/69
f 38/10/79 81/8/67 87/11/80
f 10/9/82 85/5/76 88/8/81
f 85/5/76 10/9/82 12/5/75
f 21/12/85 90/11/84 89/13/83
f 90/11/84 21/12/85 22/10/86
f 28/6/87 82/5/68 26/5/70
f 82/5/68 28/6/87 84/7/72
f 91/4/90 48/1/89 42/2/88
f 48/1/89 91/4/90 92/3/91
f 19/6/77 91/4/90 86/7/78
f 91/4/90 19/6/77 17/2/92
f 92/3/91 30/2/93 48/1/89
f 30/2/93 92/3/91 83/4/71
f 90/11/84 35/9/95 46/10/94
f 35/9/95 90/11/84 88/8/81
f 14/10/96 89/13/83 87/11/80
f 89/13/83 14/10/96 21/12/85
f 86/7/78 42/2/88 41/6/97
f 42/2/88 86/7/78 91/4/90
f 83/4/71 28/6/87 30/2/93
f 28/6/87 83/4/71 84/7/72
f 82/5/68 7/6/74 5/5/98
f 7/6/74 82/5/68 84/7/72
f 87/11/80 44/12/99 38/10/79
f 44/12/99 87/11/80 89/13/83
f 17/2/92 92/3/91 91/4/90
f 92/3/91 17/2/92 1/1/100
f 85/5/76 35/9/95 88/8/81
f 35/9/95 85/5/76 36/5/101
f 89/13/83 46/10/94 44/12/99
f 46/10/94 89/13/83 90/11/84
f 1/1/100 83/4/71 92/3/91
f 83/4/71 1/1/100 2/2/73
f 85/5/76 41/6/97 36/5/101
f 41/6/97 85/5/76 86/7/78
f 13/9/102 87/11/80 81/8/67
f 87/11/80 13/9/102 14/10/96
f 82/5/68 13/9/102 81/8/67
f 13/9/102 82/5/68 5/5/98
f 22/10/86 88/8/81 90/11/84
f 88/8/81 22/10/86 10/9/82
g hay-bale
usemtl colormap
f 3/3/1 2/2/2 1/1/1
f 2/2/2 3/3/1 4/4/3
f 7/6/5 6/5/4 5/5/4
f 6/5/4 7/6/5 8/7/6
f 11/5/9 10/9/8 9/8/7
f 10/9/8 11/5/9 12/5/9
f 15/8/12 14/10/11 13/9/10
f 14/10/11 15/8/12 16/11/13
f 18/4/15 1/1/1 17/2/14
f 1/1/1 18/4/15 3/3/1
f 13/9/10 6/5/4 15/8/12
f 6/5/4 13/9/10 5/5/4
f 4/4/3 7/6/5 2/2/2
f 7/6/5 4/4/3 8/7/6
f 20/7/17 17/2/14 19/6/16
f 17/2/14 20/7/17 18/4/15
f 23/13/18 22/10/19 21/12/18
f 22/10/19 23/13/18 24/11/20
f 11/5/9 19/6/16 12/5/9
f 19/6/16 11/5/9 20/7/17
f 16/11/13 21/12/18 14/10/11
f 21/12/18 16/11/13 23/13/18
f 24/11/20 10/9/8 22/10/19
f 10/9/8 24/11/20 9/8/7
f 27/7/22 26/5/21 25/5/21
f 26/5/21 27/7/22 28/6/23
f 30/2/25 27/7/22 29/4/24
f 27/7/22 30/2/25 28/6/23
f 25/5/21 32/9/27 31/8/26
f 32/9/27 25/5/21 26/5/21
f 35/9/30 34/5/29 33/8/28
f 34/5/29 35/9/30 36/5/29
f 32/9/27 37/11/31 31/8/26
f 37/11/31 32/9/27 38/10/32
f 41/6/35 40/4/34 39/7/33
f 40/4/34 41/6/35 42/2/36
f 38/10/32 43/13/37 37/11/31
f 43/13/37 38/10/32 44/12/37
f 41/6/35 34/5/29 36/5/29
f 34/5/29 41/6/35 39/7/33
f 46/10/39 33/8/28 45/11/38
f 33/8/28 46/10/39 35/9/30
f 48/1/40 29/4/24 47/3/40
f 29/4/24 48/1/40 30/2/25
f 42/2/36 47/3/40 40/4/34
f 47/3/40 42/2/36 48/1/40
f 44/12/37 45/11/38 43/13/37
f 45/11/38 44/12/37 46/10/39
f 9/8/41 20/7/41 11/5/41
f 20/7/41 9/8/41 24/11/41
f 20/7/41 24/11/41 18/4/41
f 18/4/41 24/11/41 49/14/41
f 49/14/41 24/11/41 23/13/41
f 18/4/41 49/14/41 50/5/41
f 49/14/41 23/13/41 51/15/41
f 52/16/41 18/4/41 50/5/41
f 18/4/41 52/16/41 3/3/41
f 3/3/41 52/16/41 53/17/41
f 51/15/41 23/13/41 16/11/41
f 3/3/41 53/17/41 4/4/41
f 51/15/41 16/11/41 54/14/41
f 4/4/41 53/17/41 55/16/41
f 54/14/41 16/11/41 56/5/41
f 4/4/41 55/16/41 56/5/41
f 4/4/41 56/5/41 16/11/41
f 4/4/41 16/11/41 15/8/41
f 4/4/41 15/8/41 8/7/41
f 8/7/41 15/8/41 6/5/41
f 59/19/41 58/18/41 57/5/41
f 58/18/41 59/19/41 60/20/41
f 58/18/41 60/20/41 61/21/41
f 61/21/41 60/20/41 62/19/41
f 61/21/41 62/19/41 63/18/41
f 63/18/41 62/19/41 64/5/41
f 53/17/42 58/18/43 61/21/42
f 58/18/43 53/17/42 52/16/44
f 59/19/47 50/5/46 49/14/45
f 50/5/46 59/19/47 57/5/46
f 49/14/45 60/20/48 59/19/47
f 60/20/48 49/14/45 51/15/48
f 51/15/48 62/19/49 60/20/48
f 62/19/49 51/15/48 54/14/50
f 58/18/43 50/5/46 57/5/46
f 50/5/46 58/18/43 52/16/44
f 55/16/52 61/21/42 63/18/51
f 61/21/42 55/16/52 53/17/42
f 56/5/53 63/18/51 64/5/53
f 63/18/51 56/5/53 55/16/52
f 56/5/53 62/19/49 54/14/50
f 62/19/49 56/5/53 64/5/53
f 67/17/56 66/18/55 65/16/54
f 66/18/55 67/17/56 68/21/56
f 66/18/57 70/19/57 69/5/57
f 70/19/57 66/18/57 68/21/57
f 70/19/57 68/21/57 71/20/57
f 71/20/57 68/21/57 72/18/57
f 71/20/57 72/18/57 73/19/57
f 73/19/57 72/18/57 74/5/57
f 76/5/60 70/19/59 75/14/58
f 70/19/59 76/5/60 69/5/60
f 39/7/57 33/8/57 34/5/57
f 33/8/57 39/7/57 40/4/57
f 33/8/57 40/4/57 45/11/57
f 45/11/57 40/4/57 65/16/57
f 65/16/57 40/4/57 47/3/57
f 45/11/57 65/16/57 76/5/57
f 65/16/57 47/3/57 67/17/57
f 75/14/57 45/11/57 76/5/57
f 67/17/57 47/3/57 77/16/57
f 45/11/57 75/14/57 43/13/57
f 43/13/57 75/14/57 78/15/57
f 43/13/57 78/15/57 79/14/57
f 77/16/57 47/3/57 29/4/57
f 43/13/57 79/14/57 37/11/57
f 77/16/57 29/4/57 80/5/57
f 37/11/57 79/14/57 80/5/57
f 37/11/57 80/5/57 29/4/57
f 37/11/57 29/4/57 27/7/57
f 37/11/57 27/7/57 31/8/57
f 31/8/57 27/7/57 25/5/57
f 70/19/59 78/15/61 75/14/58
f 78/15/61 70/19/59 71/20/61
f 72/18/63 80/5/62 74/5/62
f 80/5/62 72/18/63 77/16/64
f 71/20/61 79/14/65 78/15/61
f 79/14/65 71/20/61 73/19/66
f 73/19/66 80/5/62 79/14/65
f 80/5/62 73/19/66 74/5/62
f 76/5/60 66/18/55 69/5/60
f 66/18/55 76/5/60 65/16/54
f 77/16/64 68/21/56 67/17/56
f 68/21/56 77/16/64 72/18/63
f 32/9/69 82/5/68 81/8/67
f 82/5/68 32/9/69 26/5/70
f 2/2/73 84/7/72 83/4/71
f 84/7/72 2/2/73 7/6/74
f 19/6/77 85/5/76 12/5/75
f 85/5/76 19/6/77 86/7/78
f 81/8/67 38/10/79 32/9/69
f 38/10/79 81/8/67 87/11/80
f 10/9/82 85/5/76 88/8/81
f 85/5/76 10/9/82 12/5/75
f 21/12/85 90/11/84 89/13/83
f 90/11/84 21/12/85 22/10/86
f 28/6/87 82/5/68 26/5/70
f 82/5/68 28/6/87 84/7/72
f 91/4/90 48/1/89 42/2/88
f 48/1/89 91/4/90 92/3/91
f 19/6/77 91/4/90 86/7/78
f 91/4/90 19/6/77 17/2/92
f 92/3/91 30/2/93 48/1/89
f 30/2/93 92/3/91 83/4/71
f 90/11/84 35/9/95 46/10/94
f 35/9/95 90/11/84 88/8/81
f 14/10/96 89/13/83 87/11/80
f 89/13/83 14/10/96 21/12/85
f 86/7/78 42/2/88 41/6/97
f 42/2/88 86/7/78 91/4/90
f 83/4/71 28/6/87 30/2/93
f 28/6/87 83/4/71 84/7/72
f 82/5/68 7/6/74 5/5/98
f 7/6/74 82/5/68 84/7/72
f 87/11/80 44/12/99 38/10/79
f 44/12/99 87/11/80 89/13/83
f 17/2/92 92/3/91 91/4/90
f 92/3/91 17/2/92 1/1/100
f 85/5/76 35/9/95 88/8/81
f 35/9/95 85/5/76 36/5/101
f 89/13/83 46/10/94 44/12/99
f 46/10/94 89/13/83 90/11/84
f 1/1/100 83/4/71 92/3/91
f 83/4/71 1/1/100 2/2/73
f 85/5/76 41/6/97 36/5/101
f 41/6/97 85/5/76 86/7/78
f 13/9/102 87/11/80 81/8/67
f 87/11/80 13/9/102 14/10/96
f 82/5/68 13/9/102 81/8/67
f 13/9/102 82/5/68 5/5/98
f 22/10/86 88/8/81 90/11/84
f 88/8/81 22/10/86 10/9/82
