mtllib lightpost-single.mtl
g lightpost-single
v 0.055612 1.2634 -5.8787e-16
v 0.027804 1.2634 0.048159
v 0.027804 1.2634 -0.048159
v -0.027804 1.2634 -0.048159
v -0.027804 1.2634 0.048159
v -0.055612 1.2634 -5.8787e-16
v 0.06371 1.119 -3.6333e-16
v 0.031853 1.119 -0.055172
v 0.031853 1.119 0.055172
v -0.031853 1.119 0.055172
v -0.031853 1.119 -0.055172
v -0.06371 1.119 -3.6333e-16
v -0.038377 1.159 -0.066472
v 0.038377 1.159 -0.066472
v 0.076759 1.159 -5.8787e-16
v 0.038377 1.159 0.066472
v -0.076759 1.159 -5.8787e-16
v -0.038377 1.159 0.066472
v -0.031 1.175 0.041878
v -0.031 1.237 0.041878
v -0.0279 1.1905 0.086208
v -0.0248 1.1982 0.13054
v -0.0217 1.1982 0.17487
v -0.0186 1.1905 0.2192
v -0.0155 1.237 0.26353
v -0.0155 1.175 0.26353
v -0.0279 1.2525 0.086208
v -0.0186 1.2525 0.2192
v -0.0248 1.2602 0.13054
v -0.0217 1.2602 0.17487
v 0.0186 1.2525 0.2192
v 0.0155 1.237 0.26353
v 0.031 1.175 0.041878
v 0.0279 1.1905 0.086208
v 0.0279 1.2525 0.086208
v 0.0248 1.2602 0.13054
v 0.0217 1.2602 0.17487
v 0.0248 1.1982 0.13054
v 0.0217 1.1982 0.17487
v 0.0186 1.1905 0.2192
v 0.031 1.237 0.041878
v 0.0155 1.175 0.26353
v -0.070327 0.36738 1.4329e-15
v -0.070327 0.39425 1.4329e-15
v -0.035163 0.36738 0.060905
v -0.035163 0.39425 0.060905
v -0.035163 0.36738 -0.060905
v -0.035163 0.39425 -0.060905
v 0.070327 0.39425 1.4329e-15
v 0.070327 0.36738 1.4329e-15
v 0.035163 0.39425 0.060905
v 0.035163 0.36738 0.060905
v -0.019111 0.44368 -0.033101
v -0.038223 0.44368 1.4329e-15
v 0.035163 0.39425 -0.060905
v 0.019111 0.44368 -0.033101
v 0.035163 0.36738 -0.060905
v 0.019111 0.44368 0.033101
v -0.019111 0.44368 0.033101
v 0.038223 0.44368 1.4329e-15
v 0.032759 0.090364 0.05674
v -0.032759 0.090364 0.05674
v 0.039881 0.30222 0.069074
v -0.039881 0.30222 0.069074
v -0.039881 0.30222 -0.069074
v -0.07976 0.30222 1.4329e-15
v -0.032759 0.090364 -0.05674
v -0.065518 0.090364 1.4329e-15
v 0.032759 0.090364 -0.05674
v 0.039881 0.30222 -0.069074
v 0.07976 0.30222 1.4329e-15
v 0.065518 0.090364 1.4329e-15
v 0.027842 0.34738 -0.048225
v 0.055685 0.34738 1.4329e-15
v -0.027842 0.34738 -0.048225
v -0.055685 0.34738 1.4329e-15
v 0.027842 0.34738 0.048225
v -0.027842 0.34738 0.048225
v -0.023617 1.119 -0.040906
v 0.023617 1.119 -0.040906
v 0.047237 1.119 1.6411e-15
v 0.038223 0.44368 1.6411e-15
v 0.023617 1.119 0.040906
v -0.023617 1.119 0.040906
v -0.038223 0.44368 1.6411e-15
v -0.047237 1.119 1.6411e-15
v 0.054375 0.97244 0.34401
v 0.023616 0.97244 0.31325
v 0.054375 1.1203 0.34401
v 0.023616 1.1203 0.31325
v 0.054375 0.97244 0.28249
v 0.054375 1.1203 0.28249
v 0.085134 0.97244 0.31325
v 0.085134 1.1203 0.31325
v -0.023616 0.97244 0.31325
v -0.054375 0.97244 0.34401
v -0.023616 1.1203 0.31325
v -0.054375 1.1203 0.34401
v -0.085134 0.97244 0.31325
v -0.085134 1.1203 0.31325
v -0.054375 0.97244 0.28249
v -0.054375 1.1203 0.28249
v 0.085134 0.97244 0.2045
v 0.054375 0.97244 0.23526
v 0.085134 1.1203 0.2045
v 0.054375 1.1203 0.23526
v 0.023616 0.97244 0.2045
v 0.023616 1.1203 0.2045
v 0.054375 0.97244 0.17374
v 0.054375 1.1203 0.17374
v -0.054375 0.97244 0.23526
v -0.085134 0.97244 0.2045
v -0.054375 1.1203 0.23526
v -0.085134 1.1203 0.2045
v -0.054375 0.97244 0.17374
v -0.054375 1.1203 0.17374
v -0.023616 0.97244 0.2045
v -0.023616 1.1203 0.2045
v 0.07395 0.92894 0.35458
v 2.3842e-07 0.92894 0.36328
v 0.07395 0.97244 0.35458
v 2.3842e-07 0.97244 0.36328
v -0.07395 0.92894 0.16318
v 2.3842e-07 0.92894 0.15448
v -0.07395 0.97244 0.16318
v 2.3842e-07 0.97244 0.15448
v 0.0957 0.97244 0.18493
v 0.0957 0.92894 0.18493
v 0.1044 0.97244 0.25888
v 0.1044 0.92894 0.25888
v -0.1044 0.92894 0.25888
v -0.1044 0.97244 0.25888
v -0.0957 0.92894 0.33283
v -0.0957 0.97244 0.33283
v -0.0957 0.92894 0.18493
v -0.0957 0.97244 0.18493
v 0.0957 0.97244 0.33283
v 0.0957 0.92894 0.33283
v -0.07395 0.92894 0.35458
v -0.07395 0.97244 0.35458
v 0.07395 0.97244 0.16318
v 0.07395 0.92894 0.16318
v 0.076125 1.2073 0.25888
v 0.06525 1.2073 0.32413
v 0.06525 1.2073 0.19363
v 2.3842e-07 1.2073 0.18275
v 2.3842e-07 1.2073 0.335
v -0.06525 1.2073 0.19363
v -0.06525 1.2073 0.32413
v -0.076125 1.2073 0.25888
v 2.3842e-07 1.1638 0.335
v -0.06525 1.1638 0.32413
v 0.06525 1.1638 0.19363
v 0.076125 1.1638 0.25888
v -0.06525 1.1638 0.19363
v 2.3842e-07 1.1638 0.18275
v -0.076125 1.1638 0.25888
v 0.06525 1.1638 0.32413
v 0.07395 1.1203 0.35458
v 2.3842e-07 1.1203 0.36328
v 0.07395 1.1638 0.35458
v 2.3842e-07 1.1638 0.36328
v -0.07395 1.1203 0.16318
v 2.3842e-07 1.1203 0.15448
v -0.07395 1.1638 0.16318
v 2.3842e-07 1.1638 0.15448
v 0.0957 1.1638 0.18493
v 0.0957 1.1203 0.18493
v 0.1044 1.1638 0.25888
v 0.1044 1.1203 0.25888
v -0.1044 1.1203 0.25888
v -0.1044 1.1638 0.25888
v -0.0957 1.1203 0.33283
v -0.0957 1.1638 0.33283
v -0.0957 1.1203 0.18493
v -0.0957 1.1638 0.18493
v 0.0957 1.1638 0.33283
v 0.0957 1.1203 0.33283
v -0.07395 1.1203 0.35458
v -0.07395 1.1638 0.35458
v 0.07395 1.1638 0.16318
v 0.07395 1.1203 0.16318
v -0.03375 1.2073 0.22513
v -1.0779e-14 1.2073 0.2195
v -0.027675 1.2666 0.2312
v -1.0237e-14 1.2666 0.22659
v -0.039375 1.2073 0.25888
v -0.032287 1.2666 0.25888
v -0.03375 1.2073 0.29263
v -0.027675 1.2666 0.28655
v -1.0779e-14 1.2073 0.29825
v -1.0237e-14 1.2666 0.29117
v 0.03375 1.2073 0.22513
v 0.027675 1.2666 0.2312
v 0.03375 1.2073 0.29263
v 0.027675 1.2666 0.28655
v 0.039375 1.2073 0.25888
v 0.032287 1.2666 0.25888
v 0.076429 -5.6399e-17 0.10157
v -0.076429 2.1369e-17 0.10157
v 0.068303 0.090364 0.093448
v -0.068303 0.090364 0.093448
v -0.076429 -1.9206e-17 -0.10157
v 0.076429 3.1513e-17 -0.10157
v -0.068303 0.090364 -0.093448
v 0.068303 0.090364 -0.093448
v -0.10157 1.0817e-18 -0.076429
v -0.093448 0.090364 -0.068303
v -0.10157 -2.2587e-17 0.076429
v -0.093448 0.090364 0.068303
v 0.10157 -1.5824e-17 -0.076429
v 0.10157 2.1369e-17 0.076429
v 0.093448 0.090364 -0.068303
v 0.093448 0.090364 0.068303
v -0.05655 0.97244 0.20233
v -0.05655 1.1203 0.20233
v -0.06525 0.97244 0.25888
v -0.06525 1.1203 0.25888
v 0.05655 0.97244 0.31543
v 2.3842e-07 0.97244 0.32413
v 0.05655 1.1203 0.31543
v 2.3842e-07 1.1203 0.32413
v 0.05655 1.1203 0.20233
v 0.05655 0.97244 0.20233
v 0.06525 1.1203 0.25888
v 0.06525 0.97244 0.25888
v 2.3842e-07 0.97244 0.19363
v 2.3842e-07 1.1203 0.19363
v -0.05655 0.97244 0.31543
v -0.05655 1.1203 0.31543
vn 0 1 0
vn 0 -1 0
vn -0.47533 -0.31013 -0.82334
vn 0.47533 -0.31013 -0.82334
vn -0.49918 -0.056513 -0.86465
vn 0.49918 -0.056513 -0.86465
vn 0.9984 -0.056515 0
vn 0.95069 -0.31014 0
vn 0.49918 -0.056513 0.86465
vn 0.47533 -0.31013 0.82334
vn -0.9984 -0.056515 0
vn -0.49918 -0.056513 0.86465
vn -0.95069 -0.31014 0
vn -0.47533 -0.31013 0.82334
vn 0.49003 0.19852 0.8488
vn -0.49003 0.19852 0.8488
vn 0.49003 0.19852 -0.8488
vn 0.9801 0.19853 0
vn -0.49003 0.19852 -0.8488
vn -0.9801 0.19853 0
vn -0.99756 -8.316e-09 0.06976
vn 0 0.96861 0.24858
vn 0 0.94396 0.33006
vn 0 -0.94396 0.33006
vn 0 -0.96684 0.25537
vn 0 0.96684 -0.25537
vn 0 0.99592 -0.090243
vn 0 0.99658 0.082618
vn 0 -0.99592 0.090243
vn 0 -0.99658 -0.082618
vn 0 -0.96861 -0.24858
vn 0.99756 -8.316e-09 0.06976
vn 0 -0.94396 -0.33006
vn 0 0.94396 -0.33006
vn -0.95856 -0.28487 0
vn -1 0 0
vn -0.47928 -0.28487 0.83015
vn -0.49999 0 0.86603
vn -0.47928 -0.28487 -0.83015
vn -0.49999 0 -0.86603
vn 1 0 0
vn 0.95856 -0.28487 0
vn 0.49999 0 0.86603
vn 0.47928 -0.28487 0.83015
vn -0.41932 0.54467 -0.7263
vn -0.41933 0.54467 -0.72629
vn -0.83865 0.54467 0
vn 0.41932 0.54467 -0.7263
vn 0.41933 0.54467 -0.72629
vn 0.47928 -0.28487 -0.83015
vn 0.49999 0 -0.86603
vn 0.41932 0.54467 0.7263
vn -0.41932 0.54467 0.7263
vn 0.41933 0.54467 0.72629
vn -0.41933 0.54467 0.72629
vn 0.83865 0.54467 0
vn 0.49888 -0.067077 0.86407
vn -0.49888 -0.067077 0.86407
vn 0.49888 -0.067077 0.86407
vn -0.49888 -0.067077 0.86407
vn -0.49888 -0.067077 -0.86407
vn -0.99775 -0.067078 0
vn -0.49888 -0.067077 -0.86407
vn 0.49888 -0.067077 -0.86407
vn 0.49888 -0.067077 -0.86407
vn 0.99775 -0.067078 0
vn 0.44124 0.47036 -0.76424
vn 0.88247 0.47036 0
vn 0.44124 0.47036 -0.76425
vn -0.44124 0.47036 -0.76424
vn -0.44124 0.47036 -0.76425
vn -0.88247 0.47036 0
vn 0.44124 0.47036 0.76424
vn -0.44124 0.47036 0.76424
vn 0.44124 0.47036 0.76425
vn -0.44124 0.47036 0.76425
vn -0.40344 -0.5907 -0.69879
vn 0.40344 -0.5907 -0.69879
vn 0.80688 -0.59071 0
vn 0.40344 -0.5907 0.69879
vn -0.40344 -0.5907 0.69879
vn -0.80688 -0.59071 0
vn -0.49994 -0.013345 -0.86596
vn 0.49994 -0.013345 -0.86596
vn -0.49994 -0.013345 -0.86596
vn 0.49994 -0.013345 -0.86596
vn 0.99991 -0.013346 0
vn 0.49994 -0.013345 0.86596
vn -0.49994 -0.013345 0.86596
vn 0.49994 -0.013345 0.86596
vn -0.49994 -0.013345 0.86596
vn -0.99991 -0.013346 0
vn -0.70711 0 0.70711
vn -0.70711 0 -0.70711
vn 0.70711 0 -0.70711
vn 0.70711 0 0.70711
vn 0.70711 0 0.70711
vn -0.70711 0 0.70711
vn -0.70711 0 -0.70711
vn 0.70711 0 -0.70711
vn 0.43609 0 0.8999
vn 0 0 1
vn -0.43609 0 -0.8999
vn 0 0 -1
vn 0.8999 0 -0.43609
vn 1 0 0
vn -1 0 0
vn -0.8999 0 0.43609
vn -0.8999 0 -0.43609
vn 0.8999 0 0.43609
vn -0.43609 0 0.8999
vn 0.43609 0 -0.8999
vn -0.1644 0 0.98639
vn 0.98639 0 -0.1644
vn -0.1644 0 -0.98639
vn -0.98639 0 -0.1644
vn -0.98639 0 0.1644
vn 0.1644 0 0.98639
vn 0.98639 0 0.1644
vn 0.1644 0 -0.98639
vn -0.16327 0.11718 -0.9796
vn 0 0.11877 -0.99292
vn -0.99292 0.11877 0
vn -0.9796 0.11718 0.16327
vn 0 0.11877 0.99292
vn -0.16327 0.11718 0.9796
vn 0.16327 0.11718 -0.9796
vn 0.16327 0.11718 0.9796
vn -0.9796 0.11718 -0.16327
vn 0.9796 0.11718 -0.16327
vn 0.99292 0.11877 0
vn 0.9796 0.11718 0.16327
vn 0.39038 0.11722 0.91316
vn -0.39038 0.11722 0.91316
vn 0.3688 0.1161 0.92223
vn -0.3688 0.1161 0.92223
vn -0.39038 0.11722 -0.91316
vn 0.39038 0.11722 -0.91316
vn -0.3688 0.1161 -0.92223
vn 0.3688 0.1161 -0.92223
vn -0.91316 0.11722 -0.39038
vn -0.92223 0.1161 -0.3688
vn -0.91316 0.11722 0.39038
vn -0.92223 0.1161 0.3688
vn 0.91316 0.11722 -0.39038
vn 0.91316 0.11722 0.39038
vn 0.92223 0.1161 -0.3688
vn 0.92223 0.1161 0.3688
vn -0.98837 0 -0.15206
vn 0.15206 0 0.98837
vn 0.98837 0 -0.15206
vn -0.15206 0 -0.98837
vn -0.98837 0 0.15206
vn -0.15206 0 0.98837
vn 0.98837 0 0.15206
vn 0.15206 0 -0.98837
vt 0.71875 0.475
vt 0.71875 0.275
vt 0.71875 0.3304
vt 0.71875 0.315
vt 0.71875 0.355
vt 0.71875 0.395
vt 0.71875 0.435
vt 0.71875 0.33843
vt 0.71875 0.34426
vt 0.71875 0.355
vt 0.71875 0.27826
vt 0.71875 0.32427
vt 0.71875 0.33408
vt 0.71875 0.325
vt 0.71875 0.425
vt 0.96875 0.025
vt 0.96875 0.225
vt 0.96875 0.075
vt 0.96875 0.175
vt 0.78125 0.375
usemtl colormap
f 3/1/1 2/1/1 1/1/1
f 2/1/1 3/1/1 4/1/1
f 2/1/1 4/1/1 5/1/1
f 5/1/1 4/1/1 6/1/1
f 9/2/2 8/2/2 7/2/2
f 8/2/2 9/2/2 10/2/2
f 8/2/2 10/2/2 11/2/2
f 11/2/2 10/2/2 12/2/2
f 13/3/5 8/2/4 11/2/3
f 8/2/4 13/3/5 14/3/6
f 16/3/9 7/2/8 15/3/7
f 7/2/8 16/3/9 9/2/10
f 12/2/13 18/3/12 17/3/11
f 18/3/12 12/2/13 10/2/14
f 11/2/3 17/3/11 13/3/5
f 17/3/11 11/2/3 12/2/13
f 15/3/7 8/2/4 14/3/6
f 8/2/4 15/3/7 7/2/8
f 16/3/9 10/2/14 9/2/10
f 10/2/14 16/3/9 18/3/12
f 2/1/15 18/3/12 16/3/9
f 18/3/12 2/1/15 5/1/16
f 3/1/17 15/3/7 14/3/6
f 15/3/7 3/1/17 1/1/18
f 4/1/19 14/3/6 13/3/5
f 14/3/6 4/1/19 3/1/17
f 17/3/11 4/1/19 13/3/5
f 4/1/19 17/3/11 6/1/20
f 2/1/15 15/3/7 1/1/18
f 15/3/7 2/1/15 16/3/9
f 18/3/12 6/1/20 17/3/11
f 6/1/20 18/3/12 5/1/16
f 21/4/21 20/2/21 19/2/21
f 22/5/21 20/2/21 21/4/21
f 20/2/21 22/5/21 23/6/21
f 24/7/21 20/2/21 23/6/21
f 25/1/21 20/2/21 24/7/21
f 25/1/21 24/7/21 26/1/21
f 25/1/21 27/4/21 20/2/21
f 28/7/21 27/4/21 25/1/21
f 28/7/21 29/5/21 27/4/21
f 29/5/21 28/7/21 30/6/21
f 25/1/23 31/7/22 28/7/22
f 31/7/22 25/1/23 32/1/23
f 34/4/25 19/2/24 33/2/24
f 19/2/24 34/4/25 21/4/25
f 29/5/27 35/4/26 27/4/26
f 35/4/26 29/5/27 36/5/27
f 30/6/28 36/5/27 29/5/27
f 36/5/27 30/6/28 37/6/28
f 28/7/22 37/6/28 30/6/28
f 37/6/28 28/7/22 31/7/22
f 39/6/30 22/5/29 38/5/29
f 22/5/29 39/6/30 23/6/30
f 40/7/31 23/6/30 39/6/30
f 23/6/30 40/7/31 24/7/31
f 31/7/32 36/5/32 37/6/32
f 36/5/32 31/7/32 35/4/32
f 35/4/32 31/7/32 32/1/32
f 35/4/32 32/1/32 41/2/32
f 41/2/32 32/1/32 40/7/32
f 40/7/32 32/1/32 42/1/32
f 41/2/32 40/7/32 39/6/32
f 38/5/32 41/2/32 39/6/32
f 34/4/32 41/2/32 38/5/32
f 41/2/32 34/4/32 33/2/32
f 42/1/33 24/7/31 40/7/31
f 24/7/31 42/1/33 26/1/33
f 27/4/26 41/2/34 20/2/34
f 41/2/34 27/4/26 35/4/26
f 38/5/29 21/4/25 34/4/25
f 21/4/25 38/5/29 22/5/29
f 45/8/37 44/9/36 43/8/35
f 44/9/36 45/8/37 46/9/38
f 43/8/35 48/9/40 47/8/39
f 48/9/40 43/8/35 44/9/36
f 51/9/43 50/8/42 49/9/41
f 50/8/42 51/9/43 52/8/44
f 51/9/43 45/8/37 52/8/44
f 45/8/37 51/9/43 46/9/38
f 44/9/47 53/10/46 48/9/45
f 53/10/46 44/9/47 54/10/47
f 53/10/46 55/9/48 48/9/45
f 55/9/48 53/10/46 56/10/49
f 48/9/40 57/8/50 47/8/39
f 57/8/50 48/9/40 55/9/51
f 58/10/54 46/9/53 51/9/52
f 46/9/53 58/10/54 59/10/55
f 56/10/49 49/9/56 55/9/48
f 49/9/56 56/10/49 60/10/56
f 58/10/54 49/9/56 60/10/56
f 49/9/56 58/10/54 51/9/52
f 46/9/53 54/10/47 44/9/47
f 54/10/47 46/9/53 59/10/55
f 49/9/41 57/8/50 55/9/51
f 57/8/50 49/9/41 50/8/42
f 63/12/59 62/11/58 61/11/57
f 62/11/58 63/12/59 64/12/60
f 67/11/63 66/12/62 65/12/61
f 66/12/62 67/11/63 68/11/62
f 65/12/61 69/11/64 67/11/63
f 69/11/64 65/12/61 70/12/65
f 62/11/58 66/12/62 68/11/62
f 66/12/62 62/11/58 64/12/60
f 71/12/66 69/11/64 70/12/65
f 69/11/64 71/12/66 72/11/66
f 63/12/59 72/11/66 71/12/66
f 72/11/66 63/12/59 61/11/57
f 73/13/69 71/12/68 70/12/67
f 71/12/68 73/13/69 74/13/68
f 75/13/71 70/12/67 65/12/70
f 70/12/67 75/13/71 73/13/69
f 66/12/72 75/13/71 65/12/70
f 75/13/71 66/12/72 76/13/72
f 77/13/75 64/12/74 63/12/73
f 64/12/74 77/13/75 78/13/76
f 77/13/75 71/12/68 74/13/68
f 71/12/68 77/13/75 63/12/73
f 64/12/74 76/13/72 66/12/72
f 76/13/72 64/12/74 78/13/76
f 47/8/39 73/13/78 75/13/77
f 73/13/78 47/8/39 57/8/50
f 50/8/42 73/13/78 57/8/50
f 73/13/78 50/8/42 74/13/79
f 52/8/44 74/13/79 50/8/42
f 74/13/79 52/8/44 77/13/80
f 52/8/44 78/13/81 77/13/80
f 78/13/81 52/8/44 45/8/37
f 78/13/81 43/8/35 76/13/82
f 43/8/35 78/13/81 45/8/37
f 75/13/77 43/8/35 47/8/39
f 43/8/35 75/13/77 76/13/82
f 79/2/85 56/1/84 53/1/83
f 56/1/84 79/2/85 80/2/86
f 81/2/87 56/1/84 80/2/86
f 56/1/84 81/2/87 82/1/87
f 83/2/90 59/1/89 58/1/88
f 59/1/89 83/2/90 84/2/91
f 59/1/89 86/2/92 85/1/92
f 86/2/92 59/1/89 84/2/91
f 53/1/83 86/2/92 79/2/85
f 86/2/92 53/1/83 85/1/92
f 83/2/90 82/1/87 81/2/87
f 82/1/87 83/2/90 58/1/88
f 89/2/93 88/1/93 87/1/93
f 88/1/93 89/2/93 90/2/93
f 88/1/94 92/2/94 91/1/94
f 92/2/94 88/1/94 90/2/94
f 92/2/95 93/1/95 91/1/95
f 93/1/95 92/2/95 94/2/95
f 89/2/96 93/1/96 94/2/96
f 93/1/96 89/2/96 87/1/96
f 97/2/97 96/1/97 95/1/97
f 96/1/97 97/2/97 98/2/97
f 96/1/98 100/2/98 99/1/98
f 100/2/98 96/1/98 98/2/98
f 100/2/99 101/1/99 99/1/99
f 101/1/99 100/2/99 102/2/99
f 97/2/100 101/1/100 102/2/100
f 101/1/100 97/2/100 95/1/100
f 105/2/97 104/1/97 103/1/97
f 104/1/97 105/2/97 106/2/97
f 104/1/98 108/2/98 107/1/98
f 108/2/98 104/1/98 106/2/98
f 108/2/99 109/1/99 107/1/99
f 109/1/99 108/2/99 110/2/99
f 105/2/100 109/1/100 110/2/100
f 109/1/100 105/2/100 103/1/100
f 113/2/93 112/1/93 111/1/93
f 112/1/93 113/2/93 114/2/93
f 112/1/94 116/2/94 115/1/94
f 116/2/94 112/1/94 114/2/94
f 116/2/95 117/1/95 115/1/95
f 117/1/95 116/2/95 118/2/95
f 113/2/96 117/1/96 118/2/96
f 117/1/96 113/2/96 111/1/96
f 121/15/101 120/14/102 119/14/101
f 120/14/102 121/15/101 122/15/102
f 125/15/103 124/14/104 123/14/103
f 124/14/104 125/15/103 126/15/104
f 129/15/106 128/14/105 127/15/105
f 128/14/105 129/15/106 130/14/106
f 133/14/108 132/15/107 131/14/107
f 132/15/107 133/14/108 134/15/108
f 135/14/109 125/15/103 123/14/103
f 125/15/103 135/14/109 136/15/109
f 121/15/101 138/14/110 137/15/110
f 138/14/110 121/15/101 119/14/101
f 139/14/111 134/15/108 133/14/108
f 134/15/108 139/14/111 140/15/111
f 127/15/105 142/14/112 141/15/112
f 142/14/112 127/15/105 128/14/105
f 127/15/1 137/15/1 129/15/1
f 137/15/1 127/15/1 141/15/1
f 137/15/1 141/15/1 121/15/1
f 121/15/1 141/15/1 126/15/1
f 121/15/1 126/15/1 122/15/1
f 122/15/1 126/15/1 125/15/1
f 122/15/1 125/15/1 140/15/1
f 140/15/1 125/15/1 136/15/1
f 140/15/1 136/15/1 134/15/1
f 134/15/1 136/15/1 132/15/1
f 138/14/2 128/14/2 130/14/2
f 128/14/2 138/14/2 119/14/2
f 128/14/2 119/14/2 142/14/2
f 142/14/2 119/14/2 120/14/2
f 142/14/2 120/14/2 124/14/2
f 124/14/2 120/14/2 139/14/2
f 124/14/2 139/14/2 123/14/2
f 123/14/2 139/14/2 133/14/2
f 123/14/2 133/14/2 135/14/2
f 135/14/2 133/14/2 131/14/2
f 122/15/102 139/14/111 120/14/102
f 139/14/111 122/15/102 140/15/111
f 137/15/110 130/14/106 129/15/106
f 130/14/106 137/15/110 138/14/110
f 131/14/107 136/15/109 135/14/109
f 136/15/109 131/14/107 132/15/107
f 126/15/104 142/14/112 124/14/104
f 142/14/112 126/15/104 141/15/112
f 145/15/1 144/15/1 143/15/1
f 144/15/1 145/15/1 146/15/1
f 144/15/1 146/15/1 147/15/1
f 147/15/1 146/15/1 148/15/1
f 147/15/1 148/15/1 149/15/1
f 149/15/1 148/15/1 150/15/1
f 147/15/102 152/14/113 151/14/102
f 152/14/113 147/15/102 149/15/113
f 143/15/106 153/14/114 145/15/114
f 153/14/114 143/15/106 154/14/106
f 148/15/115 156/14/104 155/14/115
f 156/14/104 148/15/115 146/15/104
f 157/14/107 148/15/116 155/14/116
f 148/15/116 157/14/107 150/15/107
f 152/14/117 150/15/107 157/14/107
f 150/15/107 152/14/117 149/15/117
f 144/15/118 151/14/102 158/14/118
f 151/14/102 144/15/118 147/15/102
f 144/15/119 154/14/106 143/15/106
f 154/14/106 144/15/119 158/14/119
f 146/15/104 153/14/120 156/14/104
f 153/14/120 146/15/104 145/15/120
f 161/15/101 160/14/102 159/14/101
f 160/14/102 161/15/101 162/15/102
f 165/15/103 164/14/104 163/14/103
f 164/14/104 165/15/103 166/15/104
f 169/15/106 168/14/105 167/15/105
f 168/14/105 169/15/106 170/14/106
f 173/14/108 172/15/107 171/14/107
f 172/15/107 173/14/108 174/15/108
f 175/14/109 165/15/103 163/14/103
f 165/15/103 175/14/109 176/15/109
f 161/15/101 178/14/110 177/15/110
f 178/14/110 161/15/101 159/14/101
f 179/14/111 174/15/108 173/14/108
f 174/15/108 179/14/111 180/15/111
f 167/15/105 182/14/112 181/15/112
f 182/14/112 167/15/105 168/14/105
f 167/15/1 177/15/1 169/15/1
f 177/15/1 167/15/1 181/15/1
f 177/15/1 181/15/1 161/15/1
f 161/15/1 181/15/1 166/15/1
f 161/15/1 166/15/1 162/15/1
f 162/15/1 166/15/1 165/15/1
f 162/15/1 165/15/1 180/15/1
f 180/15/1 165/15/1 176/15/1
f 180/15/1 176/15/1 174/15/1
f 174/15/1 176/15/1 172/15/1
f 178/14/2 168/14/2 170/14/2
f 168/14/2 178/14/2 159/14/2
f 168/14/2 159/14/2 182/14/2
f 182/14/2 159/14/2 160/14/2
f 182/14/2 160/14/2 164/14/2
f 164/14/2 160/14/2 179/14/2
f 164/14/2 179/14/2 163/14/2
f 163/14/2 179/14/2 173/14/2
f 163/14/2 173/14/2 175/14/2
f 175/14/2 173/14/2 171/14/2
f 162/15/102 179/14/111 160/14/102
f 179/14/111 162/15/102 180/15/111
f 177/15/110 170/14/106 169/15/106
f 170/14/106 177/15/110 178/14/110
f 171/14/107 176/15/109 175/14/109
f 176/15/109 171/14/107 172/15/107
f 166/15/104 182/14/112 164/14/104
f 182/14/112 166/15/104 181/15/112
f 185/17/121 184/16/122 183/16/121
f 184/16/122 185/17/121 186/17/122
f 189/16/124 188/17/123 187/16/123
f 188/17/123 189/16/124 190/17/124
f 192/17/125 189/16/126 191/16/125
f 189/16/126 192/17/125 190/17/126
f 186/17/122 193/16/127 184/16/122
f 193/16/127 186/17/122 194/17/127
f 196/17/128 191/16/125 195/16/128
f 191/16/125 196/17/128 192/17/125
f 187/16/123 185/17/129 183/16/129
f 185/17/129 187/16/123 188/17/123
f 194/17/130 197/16/131 193/16/130
f 197/16/131 194/17/130 198/17/131
f 198/17/131 195/16/132 197/16/131
f 195/16/132 198/17/131 196/17/132
f 194/17/1 196/17/1 198/17/1
f 196/17/1 194/17/1 186/17/1
f 196/17/1 186/17/1 192/17/1
f 192/17/1 186/17/1 185/17/1
f 192/17/1 185/17/1 190/17/1
f 190/17/1 185/17/1 188/17/1
f 201/19/135 200/18/134 199/18/133
f 200/18/134 201/19/135 202/19/136
f 205/19/139 204/18/138 203/18/137
f 204/18/138 205/19/139 206/19/140
f 209/18/143 208/19/142 207/18/141
f 208/19/142 209/18/143 210/19/144
f 213/19/147 212/18/146 211/18/145
f 212/18/146 213/19/147 214/19/148
f 206/19/140 211/18/145 204/18/138
f 211/18/145 206/19/140 213/19/147
f 207/18/141 205/19/139 203/18/137
f 205/19/139 207/18/141 208/19/142
f 206/19/1 214/19/1 213/19/1
f 214/19/1 206/19/1 201/19/1
f 201/19/1 206/19/1 205/19/1
f 201/19/1 205/19/1 202/19/1
f 202/19/1 205/19/1 208/19/1
f 202/19/1 208/19/1 210/19/1
f 212/18/2 204/18/2 211/18/2
f 204/18/2 212/18/2 199/18/2
f 204/18/2 199/18/2 203/18/2
f 203/18/2 199/18/2 200/18/2
f 203/18/2 200/18/2 207/18/2
f 207/18/2 200/18/2 209/18/2
f 209/18/143 202/19/136 210/19/144
f 202/19/136 209/18/143 200/18/134
f 212/18/146 201/19/135 199/18/133
f 201/19/135 212/18/146 214/19/148
f 217/20/107 216/20/149 215/20/149
f 216/20/149 217/20/107 218/20/107
f 221/20/150 220/20/102 219/20/150
f 220/20/102 221/20/150 222/20/102
f 225/20/106 224/20/151 223/20/151
f 224/20/151 225/20/106 226/20/106
f 216/20/152 227/20/104 215/20/152
f 227/20/104 216/20/152 228/20/104
f 229/20/153 218/20/107 217/20/107
f 218/20/107 229/20/153 230/20/153
f 222/20/102 229/20/154 220/20/102
f 229/20/154 222/20/102 230/20/154
f 221/20/155 226/20/106 225/20/106
f 226/20/106 221/20/155 219/20/155
f 228/20/104 224/20/156 227/20/104
f 224/20/156 228/20/104 223/20/156
g lightpost-single
usemtl colormap
f 3/1/1 2/1/1 1/1/1
f 2/1/1 3/1/1 4/1/1
f 2/1/1 4/1/1 5/1/1
f 5/1/1 4/1/1 6/1/1
f 9/2/2 8/2/2 7/2/2
f 8/2/2 9/2/2 10/2/2
f 8/2/2 10/2/2 11/2/2
f 11/2/2 10/2/2 12/2/2
f 13/3/5 8/2/4 11/2/3
f 8/2/4 13/3/5 14/3/6
f 16/3/9 7/2/8 15/3/7
f 7/2/8 16/3/9 9/2/10
f 12/2/13 18/3/12 17/3/11
f 18/3/12 12/2/13 10/2/14
f 11/2/3 17/3/11 13/3/5
f 17/3/11 11/2/3 12/2/13
f 15/3/7 8/2/4 14/3/6
f 8/2/4 15/3/7 7/2/8
f 16/3/9 10/2/14 9/2/10
f 10/2/14 16/3/9 18/3/12
f 2/1/15 18/3/12 16/3/9
f 18/3/12 2/1/15 5/1/16
f 3/1/17 15/3/7 14/3/6
f 15/3/7 3/1/17 1/1/18
f 4/1/19 14/3/6 13/3/5
f 14/3/6 4/1/19 3/1/17
f 17/3/11 4/1/19 13/3/5
f 4/1/19 17/3/11 6/1/20
f 2/1/15 15/3/7 1/1/18
f 15/3/7 2/1/15 16/3/9
f 18/3/12 6/1/20 17/3/11
f 6/1/20 18/3/12 5/1/16
f 21/4/21 20/2/21 19/2/21
f 22/5/21 20/2/21 21/4/21
f 20/2/21 22/5/21 23/6/21
f 24/7/21 20/2/21 23/6/21
f 25/1/21 20/2/21 24/7/21
f 25/1/21 24/7/21 26/1/21
f 25/1/21 27/4/21 20/2/21
f 28/7/21 27/4/21 25/1/21
f 28/7/21 29/5/21 27/4/21
f 29/5/21 28/7/21 30/6/21
f 25/1/23 31/7/22 28/7/22
f 31/7/22 25/1/23 32/1/23
f 34/4/25 19/2/24 33/2/24
f 19/2/24 34/4/25 21/4/25
f 29/5/27 35/4/26 27/4/26
f 35/4/26 29/5/27 36/5/27
f 30/6/28 36/5/27 29/5/27
f 36/5/27 30/6/28 37/6/28
f 28/7/22 37/6/28 30/6/28
f 37/6/28 28/7/22 31/7/22
f 39/6/30 22/5/29 38/5/29
f 22/5/29 39/6/30 23/6/30
f 40/7/31 23/6/30 39/6/30
f 23/6/30 40/7/31 24/7/31
f 31/7/32 36/5/32 37/6/32
f 36/5/32 31/7/32 35/4/32
f 35/4/32 31/7/32 32/1/32
f 35/4/32 32/1/32 41/2/32
f 41/2/32 32/1/32 40/7/32
f 40/7/32 32/1/32 42/1/32
f 41/2/32 40/7/32 39/6/32
f 38/5/32 41/2/32 39/6/32
f 34/4/32 41/2/32 38/5/32
f 41/2/32 34/4/32 33/2/32
f 42/1/33 24/7/31 40/7/31
f 24/7/31 42/1/33 26/1/33
f 27/4/26 41/2/34 20/2/34
f 41/2/34 27/4/26 35/4/26
f 38/5/29 21/4/25 34/4/25
f 21/4/25 38/5/29 22/5/29
f 45/8/37 44/9/36 43/8/35
f 44/9/36 45/8/37 46/9/38
f 43/8/35 48/9/40 47/8/39
f 48/9/40 43/8/35 44/9/36
f 51/9/43 50/8/42 49/9/41
f 50/8/42 51/9/43 52/8/44
f 51/9/43 45/8/37 52/8/44
f 45/8/37 51/9/43 46/9/38
f 44/9/47 53/10/46 48/9/45
f 53/10/46 44/9/47 54/10/47
f 53/10/46 55/9/48 48/9/45
f 55/9/48 53/10/46 56/10/49
f 48/9/40 57/8/50 47/8/39
f 57/8/50 48/9/40 55/9/51
f 58/10/54 46/9/53 51/9/52
f 46/9/53 58/10/54 59/10/55
f 56/10/49 49/9/56 55/9/48
f 49/9/56 56/10/49 60/10/56
f 58/10/54 49/9/56 60/10/56
f 49/9/56 58/10/54 51/9/52
f 46/9/53 54/10/47 44/9/47
f 54/10/47 46/9/53 59/10/55
f 49/9/41 57/8/50 55/9/51
f 57/8/50 49/9/41 50/8/42
f 63/12/59 62/11/58 61/11/57
f 62/11/58 63/12/59 64/12/60
f 67/11/63 66/12/62 65/12/61
f 66/12/62 67/11/63 68/11/62
f 65/12/61 69/11/64 67/11/63
f 69/11/64 65/12/61 70/12/65
f 62/11/58 66/12/62 68/11/62
f 66/12/62 62/11/58 64/12/60
f 71/12/66 69/11/64 70/12/65
f 69/11/64 71/12/66 72/11/66
f 63/12/59 72/11/66 71/12/66
f 72/11/66 63/12/59 61/11/57
f 73/13/69 71/12/68 70/12/67
f 71/12/68 73/13/69 74/13/68
f 75/13/71 70/12/67 65/12/70
f 70/12/67 75/13/71 73/13/69
f 66/12/72 75/13/71 65/12/70
f 75/13/71 66/12/72 76/13/72
f 77/13/75 64/12/74 63/12/73
f 64/12/74 77/13/75 78/13/76
f 77/13/75 71/12/68 74/13/68
f 71/12/68 77/13/75 63/12/73
f 64/12/74 76/13/72 66/12/72
f 76/13/72 64/12/74 78/13/76
f 47/8/39 73/13/78 75/13/77
f 73/13/78 47/8/39 57/8/50
f 50/8/42 73/13/78 57/8/50
f 73/13/78 50/8/42 74/13/79
f 52/8/44 74/13/79 50/8/42
f 74/13/79 52/8/44 77/13/80
f 52/8/44 78/13/81 77/13/80
f 78/13/81 52/8/44 45/8/37
f 78/13/81 43/8/35 76/13/82
f 43/8/35 78/13/81 45/8/37
f 75/13/77 43/8/35 47/8/39
f 43/8/35 75/13/77 76/13/82
f 79/2/85 56/1/84 53/1/83
f 56/1/84 79/2/85 80/2/86
f 81/2/87 56/1/84 80/2/86
f 56/1/84 81/2/87 82/1/87
f 83/2/90 59/1/89 58/1/88
f 59/1/89 83/2/90 84/2/91
f 59/1/89 86/2/92 85/1/92
f 86/2/92 59/1/89 84/2/91
f 53/1/83 86/2/92 79/2/85
f 86/2/92 53/1/83 85/1/92
f 83/2/90 82/1/87 81/2/87
f 82/1/87 83/2/90 58/1/88
f 89/2/93 88/1/93 87/1/93
f 88/1/93 89/2/93 90/2/93
f 88/1/94 92/2/94 91/1/94
f 92/2/94 88/1/94 90/2/94
f 92/2/95 93/1/95 91/1/95
f 93/1/95 92/2/95 94/2/95
f 89/2/96 93/1/96 94/2/96
f 93/1/96 89/2/96 87/1/96
f 97/2/97 96/1/97 95/1/97
f 96/1/97 97/2/97 98/2/97
f 96/1/98 100/2/98 99/1/98
f 100/2/98 96/1/98 98/2/98
f 100/2/99 101/1/99 99/1/99
f 101/1/99 100/2/99 102/2/99
f 97/2/100 101/1/100 102/2/100
f 101/1/100 97/2/100 95/1/100
f 105/2/97 104/1/97 103/1/97
f 104/1/97 105/2/97 106/2/97
f 104/1/98 108/2/98 107/1/98
f 108/2/98 104/1/98 106/2/98
f 108/2/99 109/1/99 107/1/99
f 109/1/99 108/2/99 110/2/99
f 105/2/100 109/1/100 110/2/100
f 109/1/100 105/2/100 103/1/100
f 113/2/93 112/1/93 111/1/93
f 112/1/93 113/2/93 114/2/93
f 112/1/94 116/2/94 115/1/94
f 116/2/94 112/1/94 114/2/94
f 116/2/95 117/1/95 115/1/95
f 117/1/95 116/2/95 118/2/95
f 113/2/96 117/1/96 118/2/96
f 117/1/96 113/2/96 111/1/96
f 121/15/101 120/14/102 119/14/101
f 120/14/102 121/15/101 122/15/102
f 125/15/103 124/14/104 123/14/103
f 124/14/104 125/15/103 126/15/104
f 129/15/106 128/14/105 127/15/105
f 128/14/105 129/15/106 130/14/106
f 133/14/108 132/15/107 131/14/107
f 132/15/107 133/14/108 134/15/108
f 135/14/109 125/15/103 123/14/103
f 125/15/103 135/14/109 136/15/109
f 121/15/101 138/14/110 137/15/110
f 138/14/110 121/15/101 119/14/101
f 139/14/111 134/15/108 133/14/108
f 134/15/108 139/14/111 140/15/111
f 127/15/105 142/14/112 141/15/112
f 142/14/112 127/15/105 128/14/105
f 127/15/1 137/15/1 129/15/1
f 137/15/1 127/15/1 141/15/1
f 137/15/1 141/15/1 121/15/1
f 121/15/1 141/15/1 126/15/1
f 121/15/1 126/15/1 122/15/1
f 122/15/1 126/15/1 125/15/1
f 122/15/1 125/15/1 140/15/1
f 140/15/1 125/15/1 136/15/1
f 140/15/1 136/15/1 134/15/1
f 134/15/1 136/15/1 132/15/1
f 138/14/2 128/14/2 130/14/2
f 128/14/2 138/14/2 119/14/2
f 128/14/2 119/14/2 142/14/2
f 142/14/2 119/14/2 120/14/2
f 142/14/2 120/14/2 124/14/2
f 124/14/2 120/14/2 139/14/2
f 124/14/2 139/14/2 123/14/2
f 123/14/2 139/14/2 133/14/2
f 123/14/2 133/14/2 135/14/2
f 135/14/2 133/14/2 131/14/2
f 122/15/102 139/14/111 120/14/102
f 139/14/111 122/15/102 140/15/111
f 137/15/110 130/14/106 129/15/106
f 130/14/106 137/15/110 138/14/110
f 131/14/107 136/15/109 135/14/109
f 136/15/109 131/14/107 132/15/107
f 126/15/104 142/14/112 124/14/104
f 142/14/112 126/15/104 141/15/112
f 145/15/1 144/15/1 143/15/1
f 144/15/1 145/15/1 146/15/1
f 144/15/1 146/15/1 147/15/1
f 147/15/1 146/15/1 148/15/1
f 147/15/1 148/15/1 149/15/1
f 149/15/1 148/15/1 150/15/1
f 147/15/102 152/14/113 151/14/102
f 152/14/113 147/15/102 149/15/113
f 143/15/106 153/14/114 145/15/114
f 153/14/114 143/15/106 154/14/106
f 148/15/115 156/14/104 155/14/115
f 156/14/104 148/15/115 146/15/104
f 157/14/107 148/15/116 155/14/116
f 148/15/116 157/14/107 150/15/107
f 152/14/117 150/15/107 157/14/107
f 150/15/107 152/14/117 149/15/117
f 144/15/118 151/14/102 158/14/118
f 151/14/102 144/15/118 147/15/102
f 144/15/119 154/14/106 143/15/106
f 154/14/106 144/15/119 158/14/119
f 146/15/104 153/14/120 156/14/104
f 153/14/120 146/15/104 145/15/120
f 161/15/101 160/14/102 159/14/101
f 160/14/102 161/15/101 162/15/102
f 165/15/103 164/14/104 163/14/103
f 164/14/104 165/15/103 166/15/104
f 169/15/106 168/14/105 167/15/105
f 168/14/105 169/15/106 170/14/106
f 173/14/108 172/15/107 171/14/107
f 172/15/107 173/14/108 174/15/108
f 175/14/109 165/15/103 163/14/103
f 165/15/103 175/14/109 176/15/109
f 161/15/101 178/14/110 177/15/110
f 178/14/110 161/15/101 159/14/101
f 179/14/111 174/15/108 173/14/108
f 174/15/108 179/14/111 180/15/111
f 167/15/105 182/14/112 181/15/112
f 182/14/112 167/15/105 168/14/105
f 167/15/1 177/15/1 169/15/1
f 177/15/1 167/15/1 181/15/1
f 177/15/1 181/15/1 161/15/1
f 161/15/1 181/15/1 166/15/1
f 161/15/1 166/15/1 162/15/1
f 162/15/1 166/15/1 165/15/1
f 162/15/1 165/15/1 180/15/1
f 180/15/1 165/15/1 176/15/1
f 180/15/1 176/15/1 174/15/1
f 174/15/1 176/15/1 172/15/1
f 178/14/2 168/14/2 170/14/2
f 168/14/2 178/14/2 159/14/2
f 168/14/2 159/14/2 182/14/2
f 182/14/2 159/14/2 160/14/2
f 182/14/2 160/14/2 164/14/2
f 164/14/2 160/14/2 179/14/2
f 164/14/2 179/14/2 163/14/2
f 163/14/2 179/14/2 173/14/2
f 163/14/2 173/14/2 175/14/2
f 175/14/2 173/14/2 171/14/2
f 162/15/102 179/14/111 160/14/102
f 179/14/111 162/15/102 180/15/111
f 177/15/110 170/14/106 169/15/106
f 170/14/106 177/15/110 178/14/110
f 171/14/107 176/15/109 175/14/109
f 176/15/109 171/14/107 172/15/107
f 166/15/104 182/14/112 164/14/104
f 182/14/112 166/15/104 181/15/112
f 185/17/121 184/16/122 183/16/121
f 184/16/122 185/17/121 186/17/122
f 189/16/124 188/17/123 187/16/123
f 188/17/123 189/16/124 190/17/124
f 192/17/125 189/16/126 191/16/125
f 189/16/126 192/17/125 190/17/126
f 186/17/122 193/16/127 184/16/122
f 193/16/127 186/17/122 194/17/127
f 196/17/128 191/16/125 195/16/128
f 191/16/125 196/17/128 192/17/125
f 187/16/123 185/17/129 183/16/129
f 185/17/129 187/16/123 188/17/123
f 194/17/130 197/16/131 193/16/130
f 197/16/131 194/17/130 198/17/131
f 198/17/131 195/16/132 197/16/131
f 195/16/132 198/17/131 196/17/132
f 194/17/1 196/17/1 198/17/1
f 196/17/1 194/17/1 186/17/1
f 196/17/1 186/17/1 192/17/1
f 192/17/1 186/17/1 185/17/1
f 192/17/1 185/17/1 190/17/1
f 190/17/1 185/17/1 188/17/1
f 201/19/135 200/18/134 199/18/133
f 200/18/134 201/19/135 202/19/136
f 205/19/139 204/18/138 203/18/137
f 204/18/138 205/19/139 206/19/140
f 209/18/143 208/19/142 207/18/141
f 208/19/142 209/18/143 210/19/144
f 213/19/147 212/18/146 211/18/145
f 212/18/146 213/19/147 214/19/148
f 206/19/140 211/18/145 204/18/138
f 211/18/145 206/19/140 213/19/147
f 207/18/141 205/19/139 203/18/137
f 205/19/139 207/18/141 208/19/142
f 206/19/1 214/19/1 213/19/1
f 214/19/1 206/19/1 201/19/1
f 201/19/1 206/19/1 205/19/1
f 201/19/1 205/19/1 202/19/1
f 202/19/1 205/19/1 208/19/1
f 202/19/1 208/19/1 210/19/1
f 212/18/2 204/18/2 211/18/2
f 204/18/2 212/18/2 199/18/2
f 204/18/2 199/18/2 203/18/2
f 203/18/2 199/18/2 200/18/2
f 203/18/2 200/18/2 207/18/2
f 207/18/2 200/18/2 209/18/2
f 209/18/143 202/19/136 210/19/144
f 202/19/136 209/18/143 200/18/134
f 212/18/146 201/19/135 199/18/133
f 201/19/135 212/18/146 214/19/148
f 217/20/107 216/20/149 215/20/149
f 216/20/149 217/20/107 218/20/107
f 221/20/150 220/20/102 219/20/150
f 220/20/102 221/20/150 222/20/102
f 225/20/106 224/20/151 223/20/151
f 224/20/151 225/20/106 226/20/106
f 216/20/152 227/20/104 215/20/152
f 227/20/104 216/20/152 228/20/104
f 229/20/153 218/20/107 217/20/107
f 218/20/107 229/20/153 230/20/153
f 222/20/102 229/20/154 220/20/102
f 229/20/154 222/20/102 230/20/154
f 221/20/155 226/20/106 225/20/106
f 226/20/106 221/20/155 219/20/155
f 228/20/104 224/20/156 227/20/104
f 224/20/156 228/20/104 223/20/156
