mtllib pine-fall.mtl
g pine-fall
v 0.28478 1.7405 -3.79e-15
v 0.2794 1.7025 -0.16131
v 0.2794 1.7025 0.16131
v -1.4438e-15 1.7025 0.32262
v 0.14239 1.7405 0.24662
v 0 1.7025 -0.32262
v 0.14239 1.7405 -0.24662
v -0.2794 1.7025 0.16131
v -0.14239 1.7405 0.24662
v -0.2794 1.7025 -0.16131
v -0.28478 1.7405 -3.79e-15
v -0.14239 1.7405 -0.24662
v -0.18099 1.8826 -3.79e-15
v -0.21358 1.7405 0.12331
v -0.090496 1.8826 0.15674
v 0 1.7405 -0.24662
v -0.069089 2.2025 -3.6096e-15
v -0.034545 2.2025 0.059833
v -0.090496 1.8826 -0.15674
v 0.090496 1.8826 -0.15674
v -0.034545 2.2025 -0.059833
v 0.034545 2.2025 -0.059833
v 0.18099 1.8826 -3.79e-15
v 0.069089 2.2025 -3.6096e-16
v 0.21358 1.7405 0.12331
v 0 1.7405 0.24662
v 0.090496 1.8826 0.15674
v -5.7753e-15 1.6025 0.29036
v 0.25146 1.6025 0.14518
v -0.25146 1.6025 0.14518
v -7.2191e-15 1.6025 -0.29036
v 0.25146 1.6025 -0.14518
v 0.034545 2.2025 0.059833
v -0.25146 1.6025 -0.14518
v 0.21358 1.7405 -0.12331
v -0.21358 1.7405 -0.12331
v -7.941e-15 0.85924 -0.5405
v 0.46808 0.85924 -0.27025
v 0.23855 0.90461 -0.41317
v -0.46808 0.85924 -0.27025
v -0.23855 0.90461 -0.41317
v 0.46808 0.85924 0.27025
v -7.941e-15 0.85924 0.5405
v 0.23855 0.90461 0.41317
v -0.46808 0.85924 0.27025
v -0.23855 0.90461 0.41317
v 0.47709 0.90461 3.6096e-16
v -0.47709 0.90461 3.6096e-16
v 0.14898 1.057 -0.25805
v -6.4972e-15 0.90461 -0.41317
v -0.14898 1.057 -0.25805
v -0.14898 1.057 0.25805
v -0.29797 1.057 7.2191e-16
v -0.35782 0.90461 0.20659
v -0.1184 1.3025 -0.20508
v -0.23681 1.3025 5.4143e-16
v -5.0534e-15 0.90461 0.41317
v 0.14898 1.057 0.25805
v -0.35782 0.90461 -0.20659
v 0.29797 1.057 7.2191e-16
v 0.35782 0.90461 -0.20659
v -0.41191 0.75924 -0.23782
v -7.2191e-16 0.75924 -0.47564
v 0.35782 0.90461 0.20659
v 0.41191 0.75924 -0.23782
v -0.1184 1.3025 0.20508
v 0.41191 0.75924 0.23782
v -7.2191e-16 0.75924 0.47564
v -0.41191 0.75924 0.23782
v 0.1184 1.3025 0.20508
v 0.23681 1.3025 -1.8048e-16
v 0.1184 1.3025 -0.20508
v -0.11588 1.5147 -0.19615
v 0.18735 1.3133 -0.31995
v 0.098498 1.5302 -0.16968
v 0.37471 1.3133 0.0045544
v 0.36763 1.2633 -0.2077
v 0.36763 1.2633 0.21681
v -0.36763 1.2633 -0.2077
v 3.6096e-15 1.2633 -0.41995
v -0.18735 1.3133 -0.31995
v 2.1657e-15 1.2633 0.42906
v 0.18735 1.3133 0.32906
v -0.36763 1.2633 0.21681
v -0.18735 1.3133 0.32906
v -0.37471 1.3133 0.0045544
v 0.23176 1.5147 0.0045544
v 0.09363 1.7525 -0.16217
v 0.18726 1.7525 0
v -0.09363 1.7525 -0.16217
v 0.31616 1.1633 0.18709
v 3.6096e-15 1.1633 0.36963
v -0.28103 1.3133 -0.1577
v 7.2191e-16 1.3133 0.32906
v -0.31616 1.1633 0.18709
v 0.28103 1.3133 -0.1577
v 0.31616 1.1633 -0.17798
v 5.0534e-15 1.1633 -0.36052
v -0.31616 1.1633 -0.17798
v 0.28103 1.3133 0.16681
v -0.28103 1.3133 0.16681
v 0.11588 1.5147 0.20526
v -0.23176 1.5147 0.0045544
v 7.2191e-16 1.3133 -0.31995
v -0.18726 1.7525 0
v -0.09363 1.7525 0.16217
v -0.11588 1.5147 0.20526
v 0.09363 1.7525 0.16217
v 2.8876e-15 0.41797 -0.66728
v 0.57788 0.41797 -0.33364
v 0.2945 0.49656 -0.51009
v 0.57788 0.41797 0.33364
v 0 0.41797 0.66728
v 0.2945 0.49656 0.51009
v -0.57788 0.41797 -0.33364
v -0.2945 0.49656 -0.51009
v -0.589 0.49656 -4.5119e-16
v -0.57788 0.41797 0.33364
v -0.2945 0.49656 0.51009
v 0.589 0.49656 -4.5119e-16
v 0.44175 0.49656 0.25504
v -0.50853 0.31797 -0.2936
v 2.8876e-15 0.31797 -0.58721
v 0.38649 0.68979 -2.7072e-16
v 0.44175 0.49656 -0.25504
v 0.19324 0.68979 -0.33471
v 0 0.49656 -0.51009
v -0.19324 0.68979 -0.33471
v -0.15065 0.95246 -0.26094
v -0.38649 0.68979 -2.7072e-16
v -0.30131 0.95246 -8.1215e-16
v 0 0.49656 0.51009
v 0.50853 0.31797 -0.2936
v 0.50853 0.31797 0.2936
v -0.50853 0.31797 0.2936
v -0.15065 0.95246 0.26094
v -0.19324 0.68979 0.33471
v -0.44175 0.49656 -0.25504
v 0 0.31797 0.58721
v 0.15065 0.95246 -0.26094
v 0.19324 0.68979 0.33471
v 0.30131 0.95246 -9.0239e-17
v 0.15065 0.95246 0.26094
v -0.44175 0.49656 0.25504
v 0.13004 0.31797 1.858e-09
v 0.14682 0.16306 1.858e-09
v 0.053758 0.31797 0.13212
v 0.062149 0.16306 0.14666
v 0.062149 0.16306 -0.14666
v 0.053758 0.31797 -0.13212
v -0.17508 0.31797 1.858e-09
v -0.098803 0.31797 0.13212
v -0.19186 0.16306 1.858e-09
v -0.10719 0.16306 0.14666
v -0.10719 0.16306 -0.14666
v -0.098803 0.31797 -0.13212
v 0.099412 0 -0.2112
v 0.22135 0 1.858e-09
v 0.099412 0 0.2112
v -0.14446 0 -0.2112
v -0.26639 0 1.858e-09
v -0.14446 0 0.2112
v 0.17257 -0.1 1.858e-09
v 0.075025 -0.1 -0.16896
v 0.075025 -0.1 0.16896
v -0.12007 -0.1 -0.16896
v -0.12007 -0.1 0.16896
v -0.21762 -0.1 1.858e-09
vn 0.99014 -0.14009 0
vn 0.96796 -0.2511 0
vn 0.48398 -0.2511 0.83828
vn 0.49507 -0.14009 0.85749
vn 0.48398 -0.2511 -0.83828
vn 0.49507 -0.14009 -0.85749
vn -0.48398 -0.2511 0.83828
vn -0.49507 -0.14009 0.85749
vn -0.96796 -0.2511 0
vn -0.99014 -0.14009 0
vn -0.48398 -0.2511 -0.83828
vn -0.49507 -0.14009 -0.85749
vn -0.64927 0.66176 0.37486
vn -0.78043 0.43347 0.45058
vn -0.5809 0.74167 0.33538
vn 0 0.66176 -0.74971
vn 0 0.74167 -0.67076
vn 0 0.89443 -0.44721
vn -0.68031 0.73293 0
vn -0.34015 0.73293 0.58916
vn 0 0.43347 -0.90117
vn -0.34015 0.73293 -0.58916
vn 0.34015 0.73293 -0.58916
vn 0.78043 0.43347 -0.45058
vn 0.68031 0.73293 0
vn 0.64927 0.66176 0.37486
vn 0.3873 0.89443 0.22361
vn 0.5809 0.74167 0.33538
vn 0 0.66176 0.74971
vn 0 0.43347 0.90117
vn 0 0.74167 0.67076
vn 0.48156 -0.26909 0.83408
vn -0.48156 -0.26909 0.83408
vn 0.48156 -0.26909 -0.83408
vn 0.96311 -0.26909 0
vn 0.78043 0.43347 0.45058
vn 0.34015 0.73293 0.58916
vn -0.96311 -0.26909 0
vn 0.64927 0.66176 -0.37486
vn 0.5809 0.74167 -0.33538
vn 0.3873 0.89443 -0.22361
vn -0.64927 0.66176 -0.37486
vn -0.5809 0.74167 -0.33538
vn -0.3873 0.89443 -0.22361
vn 0 -1 0
vn -0.48156 -0.26909 -0.83408
vn 0 0.89443 0.44721
vn -0.3873 0.89443 0.22361
vn -0.78043 0.43347 -0.45058
vn 0.4445 -0.45791 -0.7699
vn 0.49043 -0.1947 -0.84945
vn -0.4445 -0.45791 -0.7699
vn -0.49043 -0.1947 -0.84945
vn 0.4445 -0.45791 0.7699
vn 0.49043 -0.1947 0.84945
vn -0.4445 -0.45791 0.7699
vn -0.49043 -0.1947 0.84945
vn 0.98086 -0.1947 0
vn 0.889 -0.45791 0
vn -0.889 -0.45791 0
vn -0.98086 -0.1947 0
vn 0 0.79875 -0.60167
vn 0 0.52128 -0.85339
vn 0 0.84759 -0.53066
vn -0.73905 0.52128 0.42669
vn -0.52106 0.79875 0.30083
vn -0.45956 0.84759 0.26533
vn -0.73905 0.52128 -0.42669
vn -0.84654 0.21091 -0.48875
vn 0 0.79875 0.60167
vn 0 0.84759 0.53066
vn 0 0.52128 0.85339
vn -0.52106 0.79875 -0.30083
vn -0.45956 0.84759 -0.26533
vn -0.29072 0.94197 -0.16785
vn 0.29072 -0.94197 0.16785
vn 0.45956 -0.84759 0.26533
vn 0.52106 -0.79875 0.30083
vn 0.52106 0.79875 -0.30083
vn 0.73905 0.52128 -0.42669
vn 0.45956 0.84759 -0.26533
vn -0.43594 -0.48973 -0.75506
vn 0.52106 0.79875 0.30083
vn 0.29072 0.94197 0.16785
vn 0.45956 0.84759 0.26533
vn -0.45956 -0.84759 -0.26533
vn -0.29072 -0.94197 -0.16785
vn -0.52106 -0.79875 -0.30083
vn -0.29072 0.94197 0.16785
vn 0.45956 -0.84759 -0.26533
vn 0.29072 -0.94197 -0.16785
vn 0.52106 -0.79875 -0.30083
vn 0.43594 -0.48973 -0.75506
vn -0.84654 0.21091 0.48875
vn 0.43594 -0.48973 0.75506
vn 0 0.94197 -0.33569
vn 0 -0.94197 0.33569
vn 0 -0.84759 0.53066
vn 0 -0.79875 0.60167
vn 0.87187 -0.48973 0
vn 0 0.21091 0.9775
vn 0.84654 0.21091 0.48875
vn 0.73905 0.52128 0.42669
vn 0.29072 0.94197 -0.16785
vn -0.29072 -0.94197 0.16785
vn -0.45956 -0.84759 0.26533
vn -0.52106 -0.79875 0.30083
vn 0 0.21091 -0.9775
vn 0.84654 0.21091 -0.48875
vn 0 0.94197 0.33569
vn 0 -0.84759 -0.53066
vn 0 -0.94197 -0.33569
vn 0 -0.79875 -0.60167
vn -0.43594 -0.48973 0.75506
vn -0.87187 -0.48973 0
vn 0.061175 0.38607 -0.92044
vn 0.019477 0.67498 -0.73758
vn 0.063361 0.35998 -0.93081
vn 0.91091 -0.4126 0
vn -0.45546 -0.4126 -0.78887
vn 0.45546 -0.4126 -0.78887
vn 0.45546 -0.4126 0.78887
vn -0.45546 -0.4126 0.78887
vn -0.91091 -0.4126 0
vn 0.78038 0.31514 -0.54008
vn 0.6326 0.66791 -0.39206
vn 0.7737 0.3413 -0.53376
vn 0.83049 0.09798 -0.54835
vn 0.85612 0.15079 -0.49428
vn 0 0.033782 -0.99943
vn 0.054679 0.080917 -0.99522
vn 0.44457 -0.45763 0.77002
vn -0.65481 0.65444 -0.37806
vn -0.58501 0.73735 -0.33775
vn 0.3873 -0.89443 0.22361
vn 0.58501 -0.73735 0.33775
vn 0.65481 -0.65444 0.37806
vn 0 0.65444 0.75611
vn 0 0.73735 0.67551
vn 0 -0.73735 -0.67551
vn 0 -0.89443 -0.44721
vn 0 -0.65444 -0.75611
vn -0.44457 -0.45763 0.77002
vn 0.56547 0.7574 -0.32648
vn 0.62877 0.68765 -0.36302
vn -0.3873 -0.89443 0.22361
vn -0.56547 -0.7574 0.32648
vn -0.6326 -0.66791 0.39206
vn -0.62877 -0.68765 0.36302
vn -0.44457 -0.45763 -0.77002
vn 0.65481 0.65444 0.37806
vn 0.58501 0.73735 0.33775
vn -0.58501 -0.73735 -0.33775
vn -0.3873 -0.89443 -0.22361
vn -0.65481 -0.65444 -0.37806
vn -0.65481 0.65444 0.37806
vn -0.58501 0.73735 0.33775
vn 0.58501 -0.73735 -0.33775
vn 0.3873 -0.89443 -0.22361
vn 0.65481 -0.65444 -0.37806
vn 0.88914 -0.45763 0
vn 0.80367 0.37258 0.464
vn 0.803 0.37452 0.46361
vn -0.80631 0.36491 -0.46552
vn -0.80561 0.36695 -0.46512
vn 0 0.73735 -0.67551
vn 0 0.65444 -0.75611
vn 0 -0.89443 0.44721
vn 0 -0.73735 0.67551
vn -0.019477 -0.67498 0.73758
vn 0 -0.65444 0.75611
vn -0.85354 0.16922 0.49279
vn -0.80367 0.37258 0.464
vn -0.803 0.37452 0.46361
vn 0 0.37733 0.92608
vn -0.88914 -0.45763 0
vn -0.85612 0.15079 -0.49428
vn 0 0.17837 0.98396
vn 0.44457 -0.45763 -0.77002
vn 0.85354 0.16922 0.49279
vn 0.43022 -0.50956 -0.74516
vn 0.43022 -0.50956 0.74516
vn -0.43022 -0.50956 -0.74516
vn -0.86043 -0.50956 0
vn -0.43022 -0.50956 0.74516
vn 0.86043 -0.50956 0
vn 0.57101 0.75184 0.32967
vn 0.52322 0.79686 0.30208
vn -0.52322 -0.79686 -0.30208
vn -0.57101 -0.75184 -0.32967
vn -0.41088 -0.56985 -0.71166
vn 0.57101 0.75184 -0.32967
vn 0.74179 0.51608 -0.42827
vn 0.52322 0.79686 -0.30208
vn 0 0.75184 -0.65934
vn 0 0.79686 -0.60416
vn 0 0.51608 -0.85654
vn -0.74179 0.51608 -0.42827
vn -0.83377 0.27038 -0.48138
vn 0 0.75184 0.65934
vn 0 0.79686 0.60416
vn 0 -0.79686 -0.60416
vn 0 -0.75184 -0.65934
vn 0.82175 -0.56985 0
vn -0.82175 -0.56985 0
vn 0 -0.79686 0.60416
vn 0 -0.75184 0.65934
vn -0.83377 0.27038 0.48138
vn -0.74179 0.51608 0.42827
vn -0.57101 0.75184 -0.32967
vn -0.52322 0.79686 -0.30208
vn 0.52322 -0.79686 0.30208
vn 0.57101 -0.75184 0.32967
vn 0.41088 -0.56985 0.71166
vn 0 0.27038 -0.96275
vn 0.74179 0.51608 0.42827
vn 0.83377 0.27038 0.48138
vn -0.57101 0.75184 0.32967
vn -0.52322 0.79686 0.30208
vn 0 0.51608 0.85654
vn 0 0.27038 0.96275
vn 0.52322 -0.79686 -0.30208
vn 0.57101 -0.75184 -0.32967
vn 0.83377 0.27038 -0.48138
vn -0.52322 -0.79686 0.30208
vn -0.57101 -0.75184 0.32967
vn 0.41088 -0.56985 -0.71166
vn -0.41088 -0.56985 0.71166
vn 0.99418 0.1077 0
vn 0.49709 0.1077 0.86099
vn 0.49709 0.1077 -0.86099
vn -0.99418 0.1077 0
vn -0.49709 0.1077 0.86099
vn -0.49709 0.1077 -0.86099
vn 0.49997 -0.011123 -0.86597
vn 0.99994 -0.011123 0
vn 0.45475 0.41568 -0.78766
vn 0.90951 0.41568 0
vn 0.45475 0.41568 0.78766
vn 0.49997 -0.011123 0.86597
vn -0.49997 -0.011123 -0.86597
vn -0.45475 0.41568 -0.78766
vn -0.99994 -0.011123 0
vn -0.90951 0.41568 0
vn -0.49997 -0.011123 0.86597
vn -0.45475 0.41568 0.78766
vn 0.4494 -0.43837 0.77838
vn -0.4494 -0.43837 0.77838
vn -0.89879 -0.43837 0
vn -0.4494 -0.43837 -0.77838
vn 0.4494 -0.43837 -0.77838
vn 0.89879 -0.43837 0
vt 0.46875 0.1634
vt 0.46875 0.15833
vt 0.46875 0.18235
vt 0.46875 0.225
vt 0.46875 0.145
vt 0.46875 0.15973
vt 0.46875 0.16641
vt 0.46875 0.18885
vt 0.46875 0.072719
vt 0.46875 0.045369
vt 0.46875 0.074825
vt 0.46875 0.03858
vt 0.46875 0.105
vt 0.46875 0.025
vt 0.46875 0.037609
vt 0.46875 0.047518
vt 0.46875 0.071882
vt 0.21875 0.275
vt 0.21875 0.37244
vt 0.21875 0.475
usemtl colormap
f 3/2/2 2/2/2 1/1/1
f 5/1/4 4/2/3 3/2/3
f 7/1/6 2/2/5 6/2/5
f 9/1/8 8/2/7 4/2/7
f 8/2/9 11/1/10 10/2/9
f 12/1/12 6/2/11 10/2/11
f 14/1/15 13/3/14 11/1/13
f 13/3/14 14/1/15 15/3/14
f 15/3/14 14/1/15 9/1/13
f 6/2/18 16/1/17 7/1/16
f 16/1/17 6/2/18 12/1/16
f 15/3/14 17/4/19 13/3/14
f 17/4/19 15/3/14 18/4/20
f 21/4/22 20/3/21 19/3/21
f 20/3/21 21/4/22 22/4/23
f 22/4/23 23/3/24 20/3/24
f 23/3/24 22/4/23 24/4/25
f 19/3/21 16/1/17 12/1/16
f 16/1/17 19/3/21 7/1/16
f 7/1/16 19/3/21 20/3/21
f 25/1/28 3/2/27 1/1/26
f 3/2/27 25/1/28 5/1/26
f 26/1/31 15/3/30 9/1/29
f 15/3/30 26/1/31 5/1/29
f 15/3/30 5/1/29 27/3/30
f 29/5/32 4/2/3 28/5/32
f 4/2/3 29/5/32 3/2/3
f 4/2/7 30/5/33 28/5/33
f 30/5/33 4/2/7 8/2/7
f 6/2/5 32/5/34 31/5/34
f 32/5/34 6/2/5 2/2/5
f 3/2/2 32/5/35 2/2/2
f 32/5/35 3/2/2 29/5/35
f 27/3/36 1/1/26 23/3/36
f 1/1/26 27/3/36 25/1/28
f 25/1/28 27/3/36 5/1/26
f 22/4/23 33/4/37 24/4/25
f 33/4/37 22/4/23 21/4/22
f 33/4/37 21/4/22 18/4/20
f 18/4/20 21/4/22 17/4/19
f 33/4/37 15/3/30 27/3/30
f 15/3/30 33/4/37 18/4/20
f 34/5/38 8/2/9 10/2/9
f 8/2/9 34/5/38 30/5/38
f 2/2/41 35/1/40 1/1/39
f 35/1/40 2/2/41 7/1/39
f 10/2/44 36/1/43 12/1/42
f 36/1/43 10/2/44 11/1/42
f 28/5/45 32/5/45 29/5/45
f 32/5/45 28/5/45 31/5/45
f 31/5/45 28/5/45 30/5/45
f 31/5/45 30/5/45 34/5/45
f 10/2/11 31/5/46 34/5/46
f 31/5/46 10/2/11 6/2/11
f 26/1/31 4/2/47 5/1/29
f 4/2/47 26/1/31 9/1/29
f 20/3/24 35/1/40 7/1/39
f 35/1/40 20/3/24 23/3/24
f 35/1/40 23/3/24 1/1/39
f 14/1/15 8/2/48 9/1/13
f 8/2/48 14/1/15 11/1/13
f 24/4/25 27/3/36 23/3/36
f 27/3/36 24/4/25 33/4/37
f 13/3/49 21/4/22 19/3/49
f 21/4/22 13/3/49 17/4/19
f 36/1/43 19/3/49 12/1/42
f 19/3/49 36/1/43 13/3/49
f 13/3/49 36/1/43 11/1/42
f 39/7/51 38/6/50 37/6/50
f 41/7/53 37/6/52 40/6/52
f 44/7/55 43/6/54 42/6/54
f 46/7/57 45/6/56 43/6/56
f 42/6/59 38/6/59 47/7/58
f 45/6/60 48/7/61 40/6/60
f 50/7/64 49/8/63 39/7/62
f 49/8/63 50/7/64 51/8/63
f 51/8/63 50/7/64 41/7/62
f 53/8/65 46/7/66 52/8/65
f 46/7/66 53/8/65 54/7/67
f 54/7/67 53/8/65 48/7/66
f 53/8/68 55/4/69 51/8/68
f 55/4/69 53/8/68 56/4/69
f 58/8/72 57/7/71 44/7/70
f 57/7/71 58/8/72 52/8/72
f 57/7/71 52/8/72 46/7/70
f 40/6/75 59/7/74 41/7/73
f 59/7/74 40/6/75 48/7/73
f 41/7/78 59/7/77 40/6/76
f 48/7/78 40/6/76 59/7/77
f 61/7/81 60/8/80 47/7/79
f 60/8/80 61/7/81 39/7/79
f 60/8/80 39/7/79 49/8/80
f 40/6/52 63/5/82 62/5/82
f 63/5/82 40/6/52 37/6/52
f 64/7/85 42/6/84 47/7/83
f 42/6/84 64/7/85 44/7/83
f 47/7/88 42/6/87 64/7/86
f 44/7/88 64/7/86 42/6/87
f 54/7/67 45/6/89 46/7/66
f 45/6/89 54/7/67 48/7/66
f 46/7/92 45/6/91 54/7/90
f 48/7/92 54/7/90 45/6/91
f 63/5/93 38/6/50 65/5/93
f 38/6/50 63/5/93 37/6/50
f 53/8/65 66/4/94 56/4/94
f 66/4/94 53/8/65 52/8/65
f 42/6/54 68/5/95 67/5/95
f 68/5/95 42/6/54 43/6/54
f 37/6/96 50/7/64 39/7/62
f 50/7/64 37/6/96 41/7/62
f 39/7/99 50/7/98 37/6/97
f 41/7/99 37/6/97 50/7/98
f 41/7/73 53/8/68 51/8/68
f 53/8/68 41/7/73 59/7/74
f 53/8/68 59/7/74 48/7/73
f 42/6/59 65/5/100 38/6/59
f 65/5/100 42/6/59 67/5/100
f 68/5/45 65/5/45 67/5/45
f 65/5/45 68/5/45 63/5/45
f 63/5/45 68/5/45 69/5/45
f 63/5/45 69/5/45 62/5/45
f 70/4/101 52/8/72 58/8/72
f 52/8/72 70/4/101 66/4/101
f 70/4/102 60/8/103 71/4/102
f 60/8/103 70/4/102 58/8/103
f 38/6/104 61/7/81 47/7/79
f 61/7/81 38/6/104 39/7/79
f 47/7/107 61/7/106 38/6/105
f 39/7/107 38/6/105 61/7/106
f 55/4/108 49/8/63 51/8/63
f 49/8/63 55/4/108 72/4/108
f 72/4/109 60/8/80 49/8/80
f 60/8/80 72/4/109 71/4/109
f 57/7/71 43/6/110 44/7/70
f 43/6/110 57/7/71 46/7/70
f 44/7/113 43/6/112 57/7/111
f 46/7/113 57/7/111 43/6/112
f 60/8/103 64/7/85 47/7/83
f 64/7/85 60/8/103 44/7/83
f 44/7/83 60/8/103 58/8/103
f 43/6/56 69/5/114 68/5/114
f 69/5/114 43/6/56 45/6/56
f 62/5/115 45/6/60 40/6/60
f 45/6/60 62/5/115 69/5/115
f 75/11/118 74/10/117 73/9/116
f 78/12/119 77/12/119 76/10/1
f 81/10/12 80/12/120 79/12/120
f 74/10/6 77/12/121 80/12/121
f 83/10/4 82/12/122 78/12/122
f 85/10/8 84/12/123 82/12/123
f 84/12/124 86/10/10 79/12/124
f 87/9/127 76/10/126 75/11/125
f 87/9/127 75/11/125 88/13/128
f 87/9/127 88/13/128 89/13/129
f 90/13/131 88/13/130 75/11/118
f 90/13/131 75/11/118 73/9/116
f 78/12/122 92/14/132 91/14/132
f 92/14/132 78/12/122 82/12/122
f 79/12/44 93/10/134 81/10/133
f 93/10/134 79/12/44 86/10/133
f 81/10/137 93/10/136 79/12/135
f 86/10/137 79/12/135 93/10/136
f 94/10/139 82/12/47 83/10/138
f 82/12/47 94/10/139 85/10/138
f 83/10/142 82/12/141 94/10/140
f 85/10/142 94/10/140 82/12/141
f 82/12/123 95/14/143 92/14/143
f 95/14/143 82/12/123 84/12/123
f 77/12/41 96/10/144 76/10/126
f 96/10/144 77/12/41 74/10/145
f 76/10/148 96/10/147 77/12/146
f 74/10/149 77/12/146 96/10/147
f 92/14/45 97/14/45 91/14/45
f 97/14/45 92/14/45 98/14/45
f 98/14/45 92/14/45 99/14/45
f 99/14/45 92/14/45 95/14/45
f 99/14/150 80/12/120 98/14/150
f 80/12/120 99/14/150 79/12/120
f 100/10/152 78/12/27 76/10/151
f 78/12/27 100/10/152 83/10/151
f 76/10/155 78/12/154 100/10/153
f 83/10/155 100/10/153 78/12/154
f 101/10/157 84/12/48 85/10/156
f 84/12/48 101/10/157 86/10/156
f 85/10/160 84/12/159 101/10/158
f 86/10/160 101/10/158 84/12/159
f 78/12/119 97/14/161 77/12/119
f 97/14/161 78/12/119 91/14/161
f 87/9/162 100/10/152 76/10/151
f 100/10/152 87/9/162 102/9/163
f 100/10/152 102/9/163 83/10/151
f 93/10/134 73/9/164 81/10/133
f 73/9/164 93/10/134 103/9/165
f 103/9/165 93/10/134 86/10/133
f 80/12/18 104/10/166 74/10/117
f 104/10/166 80/12/18 81/10/167
f 74/10/170 104/10/169 80/12/168
f 81/10/171 80/12/168 104/10/169
f 81/10/167 74/10/117 104/10/166
f 74/10/117 81/10/167 73/9/116
f 103/9/173 106/13/172 105/13/172
f 106/13/172 103/9/173 107/9/174
f 83/10/138 85/10/138 94/10/139
f 85/10/138 83/10/138 102/9/175
f 85/10/138 102/9/175 107/9/175
f 101/10/157 103/9/173 86/10/156
f 103/9/173 101/10/157 107/9/174
f 107/9/174 101/10/157 85/10/156
f 99/14/176 84/12/124 79/12/124
f 84/12/124 99/14/176 95/14/176
f 103/9/165 90/13/177 73/9/164
f 90/13/177 103/9/165 105/13/177
f 102/9/175 106/13/178 107/9/175
f 106/13/178 102/9/175 108/13/178
f 98/14/179 77/12/121 97/14/179
f 77/12/121 98/14/179 80/12/121
f 108/13/180 87/9/162 89/13/180
f 87/9/162 108/13/180 102/9/163
f 75/11/125 96/10/144 74/10/145
f 96/10/144 75/11/125 76/10/126
f 111/16/6 110/15/181 109/15/181
f 114/16/4 113/15/182 112/15/182
f 116/16/12 109/15/183 115/15/183
f 118/15/184 117/16/10 115/15/184
f 119/16/8 118/15/185 113/15/185
f 112/15/186 110/15/186 120/16/1
f 121/16/188 112/15/27 120/16/187
f 112/15/27 121/16/188 114/16/187
f 120/16/190 112/15/154 121/16/189
f 114/16/190 121/16/189 112/15/154
f 115/15/183 123/14/191 122/14/191
f 123/14/191 115/15/183 109/15/183
f 125/16/194 124/17/193 120/16/192
f 124/17/193 125/16/194 111/16/192
f 124/17/193 111/16/192 126/17/193
f 128/17/197 127/16/196 116/16/195
f 127/16/196 128/17/197 126/17/197
f 126/17/197 111/16/195 127/16/196
f 130/17/198 129/13/199 128/17/198
f 129/13/199 130/17/198 131/13/199
f 132/16/201 113/15/47 114/16/200
f 113/15/47 132/16/201 119/16/200
f 114/16/203 113/15/141 132/16/202
f 119/16/203 132/16/202 113/15/141
f 112/15/186 133/14/204 110/15/186
f 133/14/204 112/15/186 134/14/204
f 122/14/205 118/15/184 115/15/184
f 118/15/184 122/14/205 135/14/205
f 109/15/18 127/16/196 111/16/195
f 127/16/196 109/15/18 116/16/195
f 111/16/207 127/16/206 109/15/168
f 116/16/207 109/15/168 127/16/206
f 130/17/209 136/13/208 131/13/208
f 136/13/208 130/17/209 137/17/209
f 115/15/44 138/16/211 116/16/210
f 138/16/211 115/15/44 117/16/210
f 116/16/213 138/16/212 115/15/135
f 117/16/213 115/15/135 138/16/212
f 134/14/214 113/15/182 139/14/214
f 113/15/182 134/14/214 112/15/182
f 128/17/197 140/13/215 126/17/197
f 140/13/215 128/17/197 129/13/215
f 142/13/217 141/17/216 124/17/216
f 141/17/216 142/13/217 143/13/217
f 130/17/209 119/16/218 137/17/209
f 119/16/218 130/17/209 144/16/219
f 144/16/219 130/17/209 117/16/218
f 143/13/221 137/17/220 141/17/220
f 137/17/220 143/13/221 136/13/221
f 116/16/210 130/17/198 128/17/198
f 130/17/198 116/16/210 138/16/211
f 130/17/198 138/16/211 117/16/210
f 144/16/219 118/15/48 119/16/218
f 118/15/48 144/16/219 117/16/218
f 119/16/223 118/15/159 144/16/222
f 117/16/223 144/16/222 118/15/159
f 140/13/224 124/17/193 126/17/193
f 124/17/193 140/13/224 142/13/224
f 110/15/41 125/16/194 120/16/192
f 125/16/194 110/15/41 111/16/192
f 120/16/226 125/16/225 110/15/146
f 111/16/226 110/15/146 125/16/225
f 141/17/220 132/16/201 114/16/200
f 137/17/220 132/16/201 141/17/220
f 132/16/201 137/17/220 119/16/200
f 123/14/227 110/15/181 133/14/227
f 110/15/181 123/14/227 109/15/181
f 124/17/216 121/16/188 120/16/187
f 121/16/188 124/17/216 114/16/187
f 114/16/187 124/17/216 141/17/216
f 139/14/45 133/14/45 134/14/45
f 133/14/45 139/14/45 123/14/45
f 123/14/45 139/14/45 122/14/45
f 122/14/45 139/14/45 135/14/45
f 113/15/185 135/14/228 139/14/228
f 135/14/228 113/15/185 118/15/185
f 147/18/230 146/19/229 145/18/229
f 146/19/229 147/18/230 148/19/230
f 150/18/231 146/19/229 149/19/231
f 146/19/229 150/18/231 145/18/229
f 153/19/232 152/18/233 151/18/232
f 152/18/233 153/19/232 154/19/233
f 147/18/230 154/19/233 148/19/230
f 154/19/233 147/18/230 152/18/233
f 153/19/232 156/18/234 155/19/234
f 156/18/234 153/19/232 151/18/232
f 156/18/234 149/19/231 155/19/234
f 149/19/231 156/18/234 150/18/231
f 149/19/237 158/20/236 157/20/235
f 158/20/236 149/19/237 146/19/238
f 148/19/239 158/20/236 146/19/238
f 158/20/236 148/19/239 159/20/240
f 155/19/242 157/20/235 160/20/241
f 157/20/235 155/19/242 149/19/237
f 161/20/243 155/19/242 160/20/241
f 155/19/242 161/20/243 153/19/244
f 148/19/239 162/20/245 159/20/240
f 162/20/245 148/19/239 154/19/246
f 161/20/243 154/19/246 153/19/244
f 154/19/246 161/20/243 162/20/245
f 165/20/45 164/20/45 163/20/45
f 164/20/45 165/20/45 166/20/45
f 166/20/45 165/20/45 167/20/45
f 166/20/45 167/20/45 168/20/45
f 159/20/240 167/20/248 165/20/247
f 167/20/248 159/20/240 162/20/245
f 168/20/249 162/20/245 161/20/243
f 162/20/245 168/20/249 167/20/248
f 166/20/250 161/20/243 160/20/241
f 161/20/243 166/20/250 168/20/249
f 160/20/241 164/20/251 166/20/250
f 164/20/251 160/20/241 157/20/235
f 158/20/236 164/20/251 157/20/235
f 164/20/251 158/20/236 163/20/252
f 159/20/240 163/20/252 158/20/236
f 163/20/252 159/20/240 165/20/247
g pine-fall
usemtl colormap
f 3/2/2 2/2/2 1/1/1
f 5/1/4 4/2/3 3/2/3
f 7/1/6 2/2/5 6/2/5
f 9/1/8 8/2/7 4/2/7
f 8/2/9 11/1/10 10/2/9
f 12/1/12 6/2/11 10/2/11
f 14/1/15 13/3/14 11/1/13
f 13/3/14 14/1/15 15/3/14
f 15/3/14 14/1/15 9/1/13
f 6/2/18 16/1/17 7/1/16
f 16/1/17 6/2/18 12/1/16
f 15/3/14 17/4/19 13/3/14
f 17/4/19 15/3/14 18/4/20
f 21/4/22 20/3/21 19/3/21
f 20/3/21 21/4/22 22/4/23
f 22/4/23 23/3/24 20/3/24
f 23/3/24 22/4/23 24/4/25
f 19/3/21 16/1/17 12/1/16
f 16/1/17 19/3/21 7/1/16
f 7/1/16 19/3/21 20/3/21
f 25/1/28 3/2/27 1/1/26
f 3/2/27 25/1/28 5/1/26
f 26/1/31 15/3/30 9/1/29
f 15/3/30 26/1/31 5/1/29
f 15/3/30 5/1/29 27/3/30
f 29/5/32 4/2/3 28/5/32
f 4/2/3 29/5/32 3/2/3
f 4/2/7 30/5/33 28/5/33
f 30/5/33 4/2/7 8/2/7
f 6/2/5 32/5/34 31/5/34
f 32/5/34 6/2/5 2/2/5
f 3/2/2 32/5/35 2/2/2
f 32/5/35 3/2/2 29/5/35
f 27/3/36 1/1/26 23/3/36
f 1/1/26 27/3/36 25/1/28
f 25/1/28 27/3/36 5/1/26
f 22/4/23 33/4/37 24/4/25
f 33/4/37 22/4/23 21/4/22
f 33/4/37 21/4/22 18/4/20
f 18/4/20 21/4/22 17/4/19
f 33/4/37 15/3/30 27/3/30
f 15/3/30 33/4/37 18/4/20
f 34/5/38 8/2/9 10/2/9
f 8/2/9 34/5/38 30/5/38
f 2/2/41 35/1/40 1/1/39
f 35/1/40 2/2/41 7/1/39
f 10/2/44 36/1/43 12/1/42
f 36/1/43 10/2/44 11/1/42
f 28/5/45 32/5/45 29/5/45
f 32/5/45 28/5/45 31/5/45
f 31/5/45 28/5/45 30/5/45
f 31/5/45 30/5/45 34/5/45
f 10/2/11 31/5/46 34/5/46
f 31/5/46 10/2/11 6/2/11
f 26/1/31 4/2/47 5/1/29
f 4/2/47 26/1/31 9/1/29
f 20/3/24 35/1/40 7/1/39
f 35/1/40 20/3/24 23/3/24
f 35/1/40 23/3/24 1/1/39
f 14/1/15 8/2/48 9/1/13
f 8/2/48 14/1/15 11/1/13
f 24/4/25 27/3/36 23/3/36
f 27/3/36 24/4/25 33/4/37
f 13/3/49 21/4/22 19/3/49
f 21/4/22 13/3/49 17/4/19
f 36/1/43 19/3/49 12/1/42
f 19/3/49 36/1/43 13/3/49
f 13/3/49 36/1/43 11/1/42
f 39/7/51 38/6/50 37/6/50
f 41/7/53 37/6/52 40/6/52
f 44/7/55 43/6/54 42/6/54
f 46/7/57 45/6/56 43/6/56
f 42/6/59 38/6/59 47/7/58
f 45/6/60 48/7/61 40/6/60
f 50/7/64 49/8/63 39/7/62
f 49/8/63 50/7/64 51/8/63
f 51/8/63 50/7/64 41/7/62
f 53/8/65 46/7/66 52/8/65
f 46/7/66 53/8/65 54/7/67
f 54/7/67 53/8/65 48/7/66
f 53/8/68 55/4/69 51/8/68
f 55/4/69 53/8/68 56/4/69
f 58/8/72 57/7/71 44/7/70
f 57/7/71 58/8/72 52/8/72
f 57/7/71 52/8/72 46/7/70
f 40/6/75 59/7/74 41/7/73
f 59/7/74 40/6/75 48/7/73
f 41/7/78 59/7/77 40/6/76
f 48/7/78 40/6/76 59/7/77
f 61/7/81 60/8/80 47/7/79
f 60/8/80 61/7/81 39/7/79
f 60/8/80 39/7/79 49/8/80
f 40/6/52 63/5/82 62/5/82
f 63/5/82 40/6/52 37/6/52
f 64/7/85 42/6/84 47/7/83
f 42/6/84 64/7/85 44/7/83
f 47/7/88 42/6/87 64/7/86
f 44/7/88 64/7/86 42/6/87
f 54/7/67 45/6/89 46/7/66
f 45/6/89 54/7/67 48/7/66
f 46/7/92 45/6/91 54/7/90
f 48/7/92 54/7/90 45/6/91
f 63/5/93 38/6/50 65/5/93
f 38/6/50 63/5/93 37/6/50
f 53/8/65 66/4/94 56/4/94
f 66/4/94 53/8/65 52/8/65
f 42/6/54 68/5/95 67/5/95
f 68/5/95 42/6/54 43/6/54
f 37/6/96 50/7/64 39/7/62
f 50/7/64 37/6/96 41/7/62
f 39/7/99 50/7/98 37/6/97
f 41/7/99 37/6/97 50/7/98
f 41/7/73 53/8/68 51/8/68
f 53/8/68 41/7/73 59/7/74
f 53/8/68 59/7/74 48/7/73
f 42/6/59 65/5/100 38/6/59
f 65/5/100 42/6/59 67/5/100
f 68/5/45 65/5/45 67/5/45
f 65/5/45 68/5/45 63/5/45
f 63/5/45 68/5/45 69/5/45
f 63/5/45 69/5/45 62/5/45
f 70/4/101 52/8/72 58/8/72
f 52/8/72 70/4/101 66/4/101
f 70/4/102 60/8/103 71/4/102
f 60/8/103 70/4/102 58/8/103
f 38/6/104 61/7/81 47/7/79
f 61/7/81 38/6/104 39/7/79
f 47/7/107 61/7/106 38/6/105
f 39/7/107 38/6/105 61/7/106
f 55/4/108 49/8/63 51/8/63
f 49/8/63 55/4/108 72/4/108
f 72/4/109 60/8/80 49/8/80
f 60/8/80 72/4/109 71/4/109
f 57/7/71 43/6/110 44/7/70
f 43/6/110 57/7/71 46/7/70
f 44/7/113 43/6/112 57/7/111
f 46/7/113 57/7/111 43/6/112
f 60/8/103 64/7/85 47/7/83
f 64/7/85 60/8/103 44/7/83
f 44/7/83 60/8/103 58/8/103
f 43/6/56 69/5/114 68/5/114
f 69/5/114 43/6/56 45/6/56
f 62/5/115 45/6/60 40/6/60
f 45/6/60 62/5/115 69/5/115
f 75/11/118 74/10/117 73/9/116
f 78/12/119 77/12/119 76/10/1
f 81/10/12 80/12/120 79/12/120
f 74/10/6 77/12/121 80/12/121
f 83/10/4 82/12/122 78/12/122
f 85/10/8 84/12/123 82/12/123
f 84/12/124 86/10/10 79/12/124
f 87/9/127 76/10/126 75/11/125
f 87/9/127 75/11/125 88/13/128
f 87/9/127 88/13/128 89/13/129
f 90/13/131 88/13/130 75/11/118
f 90/13/131 75/11/118 73/9/116
f 78/12/122 92/14/132 91/14/132
f 92/14/132 78/12/122 82/12/122
f 79/12/44 93/10/134 81/10/133
f 93/10/134 79/12/44 86/10/133
f 81/10/137 93/10/136 79/12/135
f 86/10/137 79/12/135 93/10/136
f 94/10/139 82/12/47 83/10/138
f 82/12/47 94/10/139 85/10/138
f 83/10/142 82/12/141 94/10/140
f 85/10/142 94/10/140 82/12/141
f 82/12/123 95/14/143 92/14/143
f 95/14/143 82/12/123 84/12/123
f 77/12/41 96/10/144 76/10/126
f 96/10/144 77/12/41 74/10/145
f 76/10/148 96/10/147 77/12/146
f 74/10/149 77/12/146 96/10/147
f 92/14/45 97/14/45 91/14/45
f 97/14/45 92/14/45 98/14/45
f 98/14/45 92/14/45 99/14/45
f 99/14/45 92/14/45 95/14/45
f 99/14/150 80/12/120 98/14/150
f 80/12/120 99/14/150 79/12/120
f 100/10/152 78/12/27 76/10/151
f 78/12/27 100/10/152 83/10/151
f 76/10/155 78/12/154 100/10/153
f 83/10/155 100/10/153 78/12/154
f 101/10/157 84/12/48 85/10/156
f 84/12/48 101/10/157 86/10/156
f 85/10/160 84/12/159 101/10/158
f 86/10/160 101/10/158 84/12/159
f 78/12/119 97/14/161 77/12/119
f 97/14/161 78/12/119 91/14/161
f 87/9/162 100/10/152 76/10/151
f 100/10/152 87/9/162 102/9/163
f 100/10/152 102/9/163 83/10/151
f 93/10/134 73/9/164 81/10/133
f 73/9/164 93/10/134 103/9/165
f 103/9/165 93/10/134 86/10/133
f 80/12/18 104/10/166 74/10/117
f 104/10/166 80/12/18 81/10/167
f 74/10/170 104/10/169 80/12/168
f 81/10/171 80/12/168 104/10/169
f 81/10/167 74/10/117 104/10/166
f 74/10/117 81/10/167 73/9/116
f 103/9/173 106/13/172 105/13/172
f 106/13/172 103/9/173 107/9/174
f 83/10/138 85/10/138 94/10/139
f 85/10/138 83/10/138 102/9/175
f 85/10/138 102/9/175 107/9/175
f 101/10/157 103/9/173 86/10/156
f 103/9/173 101/10/157 107/9/174
f 107/9/174 101/10/157 85/10/156
f 99/14/176 84/12/124 79/12/124
f 84/12/124 99/14/176 95/14/176
f 103/9/165 90/13/177 73/9/164
f 90/13/177 103/9/165 105/13/177
f 102/9/175 106/13/178 107/9/175
f 106/13/178 102/9/175 108/13/178
f 98/14/179 77/12/121 97/14/179
f 77/12/121 98/14/179 80/12/121
f 108/13/180 87/9/162 89/13/180
f 87/9/162 108/13/180 102/9/163
f 75/11/125 96/10/144 74/10/145
f 96/10/144 75/11/125 76/10/126
f 111/16/6 110/15/181 109/15/181
f 114/16/4 113/15/182 112/15/182
f 116/16/12 109/15/183 115/15/183
f 118/15/184 117/16/10 115/15/184
f 119/16/8 118/15/185 113/15/185
f 112/15/186 110/15/186 120/16/1
f 121/16/188 112/15/27 120/16/187
f 112/15/27 121/16/188 114/16/187
f 120/16/190 112/15/154 121/16/189
f 114/16/190 121/16/189 112/15/154
f 115/15/183 123/14/191 122/14/191
f 123/14/191 115/15/183 109/15/183
f 125/16/194 124/17/193 120/16/192
f 124/17/193 125/16/194 111/16/192
f 124/17/193 111/16/192 126/17/193
f 128/17/197 127/16/196 116/16/195
f 127/16/196 128/17/197 126/17/197
f 126/17/197 111/16/195 127/16/196
f 130/17/198 129/13/199 128/17/198
f 129/13/199 130/17/198 131/13/199
f 132/16/201 113/15/47 114/16/200
f 113/15/47 132/16/201 119/16/200
f 114/16/203 113/15/141 132/16/202
f 119/16/203 132/16/202 113/15/141
f 112/15/186 133/14/204 110/15/186
f 133/14/204 112/15/186 134/14/204
f 122/14/205 118/15/184 115/15/184
f 118/15/184 122/14/205 135/14/205
f 109/15/18 127/16/196 111/16/195
f 127/16/196 109/15/18 116/16/195
f 111/16/207 127/16/206 109/15/168
f 116/16/207 109/15/168 127/16/206
f 130/17/209 136/13/208 131/13/208
f 136/13/208 130/17/209 137/17/209
f 115/15/44 138/16/211 116/16/210
f 138/16/211 115/15/44 117/16/210
f 116/16/213 138/16/212 115/15/135
f 117/16/213 115/15/135 138/16/212
f 134/14/214 113/15/182 139/14/214
f 113/15/182 134/14/214 112/15/182
f 128/17/197 140/13/215 126/17/197
f 140/13/215 128/17/197 129/13/215
f 142/13/217 141/17/216 124/17/216
f 141/17/216 142/13/217 143/13/217
f 130/17/209 119/16/218 137/17/209
f 119/16/218 130/17/209 144/16/219
f 144/16/219 130/17/209 117/16/218
f 143/13/221 137/17/220 141/17/220
f 137/17/220 143/13/221 136/13/221
f 116/16/210 130/17/198 128/17/198
f 130/17/198 116/16/210 138/16/211
f 130/17/198 138/16/211 117/16/210
f 144/16/219 118/15/48 119/16/218
f 118/15/48 144/16/219 117/16/218
f 119/16/223 118/15/159 144/16/222
f 117/16/223 144/16/222 118/15/159
f 140/13/224 124/17/193 126/17/193
f 124/17/193 140/13/224 142/13/224
f 110/15/41 125/16/194 120/16/192
f 125/16/194 110/15/41 111/16/192
f 120/16/226 125/16/225 110/15/146
f 111/16/226 110/15/146 125/16/225
f 141/17/220 132/16/201 114/16/200
f 137/17/220 132/16/201 141/17/220
f 132/16/201 137/17/220 119/16/200
f 123/14/227 110/15/181 133/14/227
f 110/15/181 123/14/227 109/15/181
f 124/17/216 121/16/188 120/16/187
f 121/16/188 124/17/216 114/16/187
f 114/16/187 124/17/216 141/17/216
f 139/14/45 133/14/45 134/14/45
f 133/14/45 139/14/45 123/14/45
f 123/14/45 139/14/45 122/14/45
f 122/14/45 139/14/45 135/14/45
f 113/15/185 135/14/228 139/14/228
f 135/14/228 113/15/185 118/15/185
f 147/18/230 146/19/229 145/18/229
f 146/19/229 147/18/230 148/19/230
f 150/18/231 146/19/229 149/19/231
f 146/19/229 150/18/231 145/18/229
f 153/19/232 152/18/233 151/18/232
f 152/18/233 153/19/232 154/19/233
f 147/18/230 154/19/233 148/19/230
f 154/19/233 147/18/230 152/18/233
f 153/19/232 156/18/234 155/19/234
f 156/18/234 153/19/232 151/18/232
f 156/18/234 149/19/231 155/19/234
f 149/19/231 156/18/234 150/18/231
f 149/19/237 158/20/236 157/20/235
f 158/20/236 149/19/237 146/19/238
f 148/19/239 158/20/236 146/19/238
f 158/20/236 148/19/239 159/20/240
f 155/19/242 157/20/235 160/20/241
f 157/20/235 155/19/242 149/19/237
f 161/20/243 155/19/242 160/20/241
f 155/19/242 161/20/243 153/19/244
f 148/19/239 162/20/245 159/20/240
f 162/20/245 148/19/239 154/19/246
f 161/20/243 154/19/246 153/19/244
f 154/19/246 161/20/243 162/20/245
f 165/20/45 164/20/45 163/20/45
f 164/20/45 165/20/45 166/20/45
f 166/20/45 165/20/45 167/20/45
f 166/20/45 167/20/45 168/20/45
f 159/20/240 167/20/248 165/20/247
f 167/20/248 159/20/240 162/20/245
f 168/20/249 162/20/245 161/20/243
f 162/20/245 168/20/249 167/20/248
f 166/20/250 161/20/243 160/20/241
f 161/20/243 166/20/250 168/20/249
f 160/20/241 164/20/251 166/20/250
f 164/20/251 160/20/241 157/20/235
f 158/20/236 164/20/251 157/20/235
f 164/20/251 158/20/236 163/20/252
f 159/20/240 163/20/252 158/20/236
f 163/20/252 159/20/240 165/20/247
