mtllib pine-crooked.mtl
g pine-crooked
v -0.25283 1.5288 -0.16131
v 0.025468 1.504 -0.32262
v -0.11298 1.5545 -0.24662
v -0.2548 1.5671 -5.4143e-16
v -0.25283 1.5288 0.16131
v 0.025468 1.504 0.32262
v -0.11298 1.5545 0.24662
v 0.3125 1.5165 -5.4143e-16
v 0.30376 1.4791 -0.16131
v 0.30376 1.4791 0.16131
v 0.17067 1.5292 0.24662
v 0.17067 1.5292 -0.24662
v 0.22175 1.6673 -5.4143e-16
v 0.13162 1.6753 0.15674
v 0.13873 1.9959 2.8876e-15
v 0.10432 1.9989 0.059833
v 0.028846 1.5418 0.24662
v 0.24158 1.5228 -0.12331
v 0.13162 1.6753 -0.15674
v -0.18389 1.5608 0.12331
v -0.04866 1.6914 -0.15674
v 0.035507 2.0051 -0.059833
v -0.1388 1.6995 -5.4143e-16
v 0.0010995 2.0081 -3.6096e-16
v -0.18389 1.5608 -0.12331
v -0.04866 1.6914 0.15674
v 0.035507 2.0051 0.059833
v 0.24158 1.5228 0.12331
v 0.10432 1.9989 -0.059833
v 0.028846 1.5418 -0.24662
v 0.26704 1.382 0.14518
v 0.26704 1.382 -0.14518
v 0.016579 1.4044 0.29036
v 0.016579 1.4044 -0.29036
v -0.23389 1.4267 0.14518
v -0.23389 1.4267 -0.14518
v 0.024464 0.82991 -0.5405
v 0.48998 0.78098 -0.27025
v 0.26645 0.8501 -0.41317
v -0.44105 0.87884 -0.27025
v -0.44527 0.9249 1.8048e-16
v -0.44105 0.87884 0.27025
v 0.024464 0.82991 0.5405
v -0.20803 0.89997 0.41317
v 0.50368 0.82516 1.8048e-16
v 0.48998 0.78098 0.27025
v -0.20803 0.89997 -0.41317
v 0.26645 0.8501 0.41317
v 0.014011 0.73046 0.47564
v -0.39565 0.77351 0.23782
v 0.029207 0.87503 0.41317
v 0.42367 0.6874 0.23782
v 0.42367 0.6874 -0.23782
v 0.014011 0.73046 -0.47564
v -0.39565 0.77351 -0.23782
v -0.32665 0.91244 -0.20659
v 0.38506 0.83763 -0.20659
v 0.38506 0.83763 0.20659
v -0.32665 0.91244 0.20659
v 0.029207 0.87503 -0.41317
v -0.10304 1.0421 -0.25805
v -0.046962 1.2831 -0.20508
v -0.2512 1.0577 5.4143e-16
v -0.16472 1.2955 3.6096e-16
v 0.1933 1.011 -0.25805
v -0.10304 1.0421 0.25805
v 0.18855 1.2583 -0.20508
v -0.046962 1.2831 0.20508
v 0.34147 0.99541 5.4143e-16
v 0.3063 1.2459 -3.6096e-16
v 0.1933 1.011 0.25805
v 0.18855 1.2583 0.20508
v 0.10411 1.4059 -0.17424
v 0.084143 1.6273 -0.16673
v -0.10268 1.6145 -0.16673
v 0.23812 1.3995 -6.3167e-16
v -0.10871 1.3759 -0.20071
v 0.20752 1.1956 -0.32451
v 0.39444 1.2083 -9.0239e-16
v 0.39078 1.1579 -0.21225
v 0.39078 1.1579 0.21225
v 0.023998 1.1329 0.42451
v 0.20752 1.1956 0.32451
v -0.34278 1.1079 0.21225
v -0.16632 1.1701 0.32451
v 0.17756 1.6337 -0.0045544
v -0.34278 1.1079 -0.21225
v 0.023998 1.1329 -0.42451
v -0.16632 1.1701 -0.32451
v -0.35324 1.1573 -9.0239e-16
v 0.34623 1.0547 0.18254
v 0.030799 1.0332 0.36507
v -0.25978 1.1637 -0.16225
v 0.020597 1.1828 0.32451
v -0.28463 1.0117 0.18254
v 0.30098 1.2019 -0.16225
v 0.34623 1.0547 -0.18254
v 0.030799 1.0332 -0.36507
v -0.28463 1.0117 -0.18254
v 0.30098 1.2019 0.16225
v -0.25978 1.1637 0.16225
v 0.020597 1.1828 -0.32451
v -0.10871 1.3759 0.20071
v -0.10268 1.6145 0.15762
v 0.12251 1.3916 0.20071
v 0.084143 1.6273 0.15762
v -0.1961 1.6082 -0.0045544
v -0.22432 1.368 -6.3167e-16
v -0.55997 0.41797 -0.33364
v -0.57109 0.49656 -1.8048e-16
v -0.55997 0.41797 0.33364
v 0.017913 0.41797 -0.66728
v 0.59579 0.41797 -0.33364
v 0.31241 0.49656 -0.51009
v 0.59579 0.41797 0.33364
v 0.017913 0.41797 0.66728
v 0.31241 0.49656 0.51009
v -0.27659 0.49656 -0.51009
v 0.60691 0.49656 -1.8048e-16
v -0.27659 0.49656 0.51009
v -0.42384 0.49656 0.25504
v 0.017913 0.49656 -0.51009
v 0.45966 0.49656 -0.25504
v -0.42384 0.49656 -0.25504
v 0.45966 0.49656 0.25504
v 0.017913 0.49656 0.51009
v -0.49062 0.31797 -0.2936
v -0.49062 0.31797 0.2936
v 0.52645 0.31797 0.2936
v 0.52645 0.31797 -0.2936
v 0.017913 0.31797 0.58721
v 0.017913 0.31797 -0.58721
v 0.21116 0.68979 -0.33471
v 0.16857 0.95246 -0.26094
v -0.17533 0.68979 -0.33471
v -0.13274 0.95246 -0.26094
v 0.4044 0.68979 0
v 0.21116 0.68979 0.33471
v 0.31922 0.95246 9.0239e-17
v 0.16857 0.95246 0.26094
v -0.36858 0.68979 0
v -0.2834 0.95246 -5.4143e-16
v -0.17533 0.68979 0.33471
v -0.13274 0.95246 0.26094
v 0.15256 0.31797 -1.2633e-15
v 0.16934 0.16306 -9.0239e-16
v 0.076281 0.31797 0.13212
v 0.084671 0.16306 0.14666
v 0.084671 0.16306 -0.14666
v 0.076281 0.31797 -0.13212
v -0.15256 0.31797 -1.2633e-15
v -0.076281 0.31797 0.13212
v -0.16934 0.16306 -9.0239e-16
v -0.084671 0.16306 0.14666
v -0.084671 0.16306 -0.14666
v -0.076281 0.31797 -0.13212
v 0.12193 0 -0.2112
v 0.24387 0 -1.8048e-16
v 0.12193 0 0.2112
v -0.12193 0 -0.2112
v -0.24387 0 1.8048e-16
v -0.12193 0 0.2112
v 0.19509 -0.1 1.8048e-16
v 0.097548 -0.1 -0.16896
v 0.097548 -0.1 0.16896
v -0.097548 -0.1 -0.16896
v -0.097548 -0.1 0.16896
v -0.19509 -0.1 4.5119e-16
vn -0.50439 -0.20708 -0.83828
vn -0.50556 -0.095523 -0.85749
vn -0.98645 -0.16406 0
vn -0.99867 -0.051514 0
vn -0.50439 -0.20708 0.83828
vn -0.50556 -0.095523 0.85749
vn 0.97377 -0.22755 0
vn 0.94181 -0.33615 0
vn 0.45974 -0.29313 0.83828
vn 0.48066 -0.18354 0.85749
vn 0.45974 -0.29313 -0.83828
vn 0.48066 -0.18354 -0.85749
vn 0.81588 0.36238 0.45058
vn 0.74277 0.66955 0
vn 0.40396 0.69979 0.58916
vn 0.058827 0.65914 0.74971
vn 0.079509 0.89089 0.44721
vn 0.065931 0.73874 0.67076
vn 0.70553 0.60143 -0.37486
vn 0.64453 0.6871 -0.33538
vn 0.81588 0.36238 -0.45058
vn -0.58787 0.71686 0.37486
vn -0.30626 0.92531 0.22361
vn -0.51267 0.79038 0.33538
vn -0.73881 0.50113 -0.45058
vn -0.27365 0.76026 -0.58916
vn -0.61246 0.7905 0
vn -0.58787 0.71686 -0.37486
vn -0.51267 0.79038 -0.33538
vn 0.038533 0.43176 0.90117
vn -0.27365 0.76026 0.58916
vn 0.70553 0.60143 0.37486
vn 0.64453 0.6871 0.33538
vn 0.40396 0.69979 -0.58916
vn 0.46527 0.85646 -0.22361
vn -0.30626 0.92531 -0.22361
vn -0.73881 0.50113 0.45058
vn 0.058827 0.65914 -0.74971
vn 0.065931 0.73874 -0.67076
vn 0.038533 0.43176 -0.90117
vn 0.079509 0.89089 -0.44721
vn 0.46527 0.85646 0.22361
vn -0.088894 -0.99604 0
vn 0.45573 -0.31084 0.83408
vn 0.45573 -0.31084 -0.83408
vn 0.93538 -0.35364 0
vn -0.50357 -0.22522 0.83408
vn -0.98322 -0.18241 0
vn -0.50357 -0.22522 -0.83408
vn 0.3942 -0.50186 -0.7699
vn 0.46739 -0.2449 -0.84945
vn -0.93199 -0.36247 0
vn -0.99584 -0.09111 0
vn -0.48993 -0.40894 0.7699
vn -0.5081 -0.14237 0.84945
vn 0.95514 -0.29617 0
vn 0.83626 -0.54833 0
vn -0.48993 -0.40894 -0.7699
vn -0.5081 -0.14237 -0.84945
vn 0.3942 -0.50186 0.7699
vn 0.46739 -0.2449 0.84945
vn -0.48474 -0.44148 0.75506
vn 0.083492 0.79437 0.60167
vn 0.098463 0.93681 0.33569
vn 0.088597 0.84294 0.53066
vn -0.10453 -0.99452 0
vn -0.43471 0.84884 -0.30083
vn -0.36845 0.89098 -0.26533
vn -0.19066 0.9672 -0.16785
vn 0.38236 -0.53262 0.75506
vn -0.91829 -0.39591 0
vn 0.6017 0.73991 -0.30083
vn 0.54564 0.79491 -0.26533
vn 0.38759 0.90642 -0.16785
vn -0.48474 -0.44148 -0.75506
vn 0.6017 0.73991 0.30083
vn 0.38759 0.90642 0.16785
vn 0.54564 0.79491 0.26533
vn 0.38236 -0.53262 -0.75506
vn -0.43471 0.84884 0.30083
vn -0.19066 0.9672 0.16785
vn -0.36845 0.89098 0.26533
vn 0.083492 0.79437 -0.60167
vn 0.088597 0.84294 -0.53066
vn 0.098463 0.93681 -0.33569
vn 0.81591 -0.57818 0
vn -0.68052 0.59568 -0.42669
vn -0.81986 0.29824 -0.48875
vn 0.054489 0.51842 -0.85339
vn -0.68052 0.59568 0.42669
vn 0.022046 0.20976 -0.9775
vn -0.81986 0.29824 0.48875
vn 0.78949 0.44117 -0.42669
vn 0.86395 0.12127 -0.48875
vn 0.78949 0.44117 0.42669
vn 0.86395 0.12127 0.48875
vn 0.054489 0.51842 0.85339
vn 0.022046 0.20976 0.9775
vn 0.03873 0.36346 -0.93081
vn -0.0022977 0.033704 -0.99943
vn 0.049048 0.084448 -0.99522
vn 0.8219 0.15424 -0.54835
vn 0.75714 0.36749 -0.54008
vn 0.7487 0.39313 -0.53376
vn 0.034774 0.38934 -0.92044
vn -0.026477 0.67474 -0.73758
vn 0.99737 -0.072418 0
vn 0.93686 -0.34969 0
vn 0.48246 -0.38067 0.78887
vn 0.50345 -0.10609 0.85749
vn -0.42634 -0.44263 0.78887
vn -0.4844 -0.17343 0.85749
vn 0.84388 0.20867 -0.49428
vn -0.42634 -0.44263 -0.78887
vn -0.4844 -0.17343 -0.85749
vn 0.48246 -0.38067 -0.78887
vn 0.50345 -0.10609 -0.85749
vn -0.88074 -0.4736 0
vn -0.97832 -0.20711 0
vn 0.5857 0.70939 -0.39206
vn 0.47467 -0.42633 0.77002
vn -0.69781 0.60839 -0.37806
vn -0.6338 0.69585 -0.33775
vn -0.44724 0.86601 -0.22361
vn -0.044512 0.65293 0.75611
vn -0.060835 0.89236 0.44721
vn -0.050151 0.73564 0.67551
vn -0.41242 -0.48681 0.77002
vn 0.51265 0.79411 -0.32648
vn 0.32557 0.9187 -0.22361
vn 0.58055 0.72882 -0.36302
vn 0.068015 -0.99768 0
vn -0.41242 -0.48681 -0.77002
vn 0.60878 0.69746 0.37806
vn 0.32557 0.9187 0.22361
vn 0.5335 0.77543 0.33775
vn -0.69781 0.60839 0.37806
vn -0.44724 0.86601 0.22361
vn -0.6338 0.69585 0.33775
vn -0.85596 -0.51704 0
vn 0.91821 -0.39609 0
vn 0.47467 -0.42633 -0.77002
vn -0.050151 0.73564 -0.67551
vn -0.060835 0.89236 -0.44721
vn -0.044512 0.65293 -0.75611
vn -0.025664 0.37645 0.92608
vn -0.012132 0.17795 0.98396
vn -0.86307 0.11077 0.49279
vn -0.82715 0.31706 0.464
vn -0.82661 0.31903 0.46361
vn 0.77647 0.42638 0.464
vn 0.77566 0.42826 0.46361
vn -0.82926 0.30922 -0.46552
vn -0.8644 0.092212 -0.49428
vn -0.8287 0.31131 -0.46512
vn 0.84005 0.22688 0.49279
vn -0.86043 -0.50956 0
vn -0.99014 -0.14009 0
vn 0.43022 -0.50956 -0.74516
vn 0.49507 -0.14009 -0.85749
vn 0.43022 -0.50956 0.74516
vn 0.49507 -0.14009 0.85749
vn -0.43022 -0.50956 -0.74516
vn -0.49507 -0.14009 -0.85749
vn 0.99014 -0.14009 0
vn 0.86043 -0.50956 0
vn -0.43022 -0.50956 0.74516
vn -0.49507 -0.14009 0.85749
vn -0.57101 0.75184 0.32967
vn -0.3873 0.89443 0.22361
vn -0.52322 0.79686 0.30208
vn 0 0.75184 -0.65934
vn 0 0.79686 -0.60416
vn 0 0.89443 -0.44721
vn 0.57101 0.75184 -0.32967
vn 0.52322 0.79686 -0.30208
vn 0.3873 0.89443 -0.22361
vn -0.57101 0.75184 -0.32967
vn -0.52322 0.79686 -0.30208
vn -0.3873 0.89443 -0.22361
vn 0.57101 0.75184 0.32967
vn 0.3873 0.89443 0.22361
vn 0.52322 0.79686 0.30208
vn 0 0.75184 0.65934
vn 0 0.89443 0.44721
vn 0 0.79686 0.60416
vn -0.82175 -0.56985 0
vn 0 -1 0
vn 0.82175 -0.56985 0
vn -0.41088 -0.56985 0.71166
vn 0.41088 -0.56985 0.71166
vn 0.41088 -0.56985 -0.71166
vn -0.41088 -0.56985 -0.71166
vn 0 0.51608 -0.85654
vn 0 0.27038 -0.96275
vn 0.74179 0.51608 0.42827
vn 0.83377 0.27038 0.48138
vn 0.74179 0.51608 -0.42827
vn 0.83377 0.27038 -0.48138
vn -0.74179 0.51608 -0.42827
vn -0.83377 0.27038 -0.48138
vn 0 0.51608 0.85654
vn 0 0.27038 0.96275
vn -0.83377 0.27038 0.48138
vn -0.74179 0.51608 0.42827
vn -0.088597 -0.84294 -0.53066
vn -0.098463 -0.93681 -0.33569
vn -0.083492 -0.79437 -0.60167
vn 0.19066 -0.9672 0.16785
vn 0.36845 -0.89098 0.26533
vn 0.43471 -0.84884 0.30083
vn -0.38759 -0.90642 0.16785
vn -0.54564 -0.79491 0.26533
vn -0.6017 -0.73991 0.30083
vn -0.54564 -0.79491 -0.26533
vn -0.38759 -0.90642 -0.16785
vn -0.6017 -0.73991 -0.30083
vn 0.36845 -0.89098 -0.26533
vn 0.19066 -0.9672 -0.16785
vn 0.43471 -0.84884 -0.30083
vn -0.098463 -0.93681 0.33569
vn -0.088597 -0.84294 0.53066
vn -0.083492 -0.79437 0.60167
vn 0.44724 -0.86601 0.22361
vn 0.6338 -0.69585 0.33775
vn 0.69781 -0.60839 0.37806
vn 0.050151 -0.73564 -0.67551
vn 0.060835 -0.89236 -0.44721
vn 0.044512 -0.65293 -0.75611
vn -0.32557 -0.9187 0.22361
vn -0.51265 -0.79411 0.32648
vn -0.5857 -0.70939 0.39206
vn -0.58055 -0.72882 0.36302
vn -0.5335 -0.77543 -0.33775
vn -0.32557 -0.9187 -0.22361
vn -0.60878 -0.69746 -0.37806
vn 0.6338 -0.69585 -0.33775
vn 0.44724 -0.86601 -0.22361
vn 0.69781 -0.60839 -0.37806
vn 0.060835 -0.89236 0.44721
vn 0.050151 -0.73564 0.67551
vn 0.026477 -0.67474 0.73758
vn 0.044512 -0.65293 0.75611
vn 0.52322 -0.79686 -0.30208
vn 0.3873 -0.89443 -0.22361
vn 0.57101 -0.75184 -0.32967
vn 0 -0.89443 0.44721
vn 0 -0.79686 0.60416
vn 0 -0.75184 0.65934
vn -0.3873 -0.89443 0.22361
vn -0.52322 -0.79686 0.30208
vn -0.57101 -0.75184 0.32967
vn 0.3873 -0.89443 0.22361
vn 0.52322 -0.79686 0.30208
vn 0.57101 -0.75184 0.32967
vn -0.52322 -0.79686 -0.30208
vn -0.3873 -0.89443 -0.22361
vn -0.57101 -0.75184 -0.32967
vn 0 -0.79686 -0.60416
vn 0 -0.89443 -0.44721
vn 0 -0.75184 -0.65934
vn 0.99418 0.1077 0
vn 0.49709 0.1077 0.86099
vn 0.49709 0.1077 -0.86099
vn -0.99418 0.1077 0
vn -0.49709 0.1077 0.86099
vn -0.49709 0.1077 -0.86099
vn 0.49997 -0.011123 -0.86597
vn 0.99994 -0.011123 0
vn 0.45475 0.41568 -0.78766
vn 0.90951 0.41568 0
vn 0.45475 0.41568 0.78766
vn 0.49997 -0.011123 0.86597
vn -0.49997 -0.011123 -0.86597
vn -0.45475 0.41568 -0.78766
vn -0.99994 -0.011123 0
vn -0.90951 0.41568 0
vn -0.49997 -0.011123 0.86597
vn -0.45475 0.41568 0.78766
vn 0.4494 -0.43837 0.77838
vn -0.4494 -0.43837 0.77838
vn -0.89879 -0.43837 0
vn -0.4494 -0.43837 -0.77838
vn 0.4494 -0.43837 -0.77838
vn 0.89879 -0.43837 0
vt 0.71875 0.40833
vt 0.71875 0.4134
vt 0.71875 0.43235
vt 0.71875 0.475
vt 0.71875 0.395
vt 0.71875 0.40973
vt 0.71875 0.41641
vt 0.71875 0.43885
vt 0.71875 0.32482
vt 0.71875 0.355
vt 0.71875 0.32272
vt 0.71875 0.29537
vt 0.71875 0.28858
vt 0.71875 0.275
vt 0.71875 0.28761
vt 0.71875 0.29752
vt 0.71875 0.32188
vt 0.46875 0.16641
vt 0.46875 0.15973
vt 0.46875 0.03858
vt 0.46875 0.045369
vt 0.46875 0.047518
vt 0.46875 0.037609
vt 0.21875 0.275
vt 0.21875 0.37244
vt 0.21875 0.475
usemtl colormap
f 3/2/2 2/1/1 1/1/1
f 5/1/3 4/2/4 1/1/3
f 7/2/6 5/1/5 6/1/5
f 10/1/8 9/1/8 8/2/7
f 11/2/10 6/1/9 10/1/9
f 12/2/12 9/1/11 2/1/11
f 15/4/14 14/3/13 13/3/13
f 14/3/13 15/4/14 16/4/15
f 17/2/18 6/1/17 11/2/16
f 6/1/17 17/2/18 7/2/16
f 19/3/21 18/2/20 12/2/19
f 18/2/20 19/3/21 13/3/21
f 18/2/20 13/3/21 8/2/19
f 20/2/24 5/1/23 7/2/22
f 5/1/23 20/2/24 4/2/22
f 23/3/25 22/4/26 21/3/25
f 22/4/26 23/3/25 24/4/27
f 25/2/29 21/3/25 3/2/28
f 21/3/25 25/2/29 23/3/25
f 23/3/25 25/2/29 4/2/28
f 16/4/15 26/3/30 14/3/30
f 26/3/30 16/4/15 27/4/31
f 14/3/13 8/2/32 13/3/13
f 8/2/32 14/3/13 28/2/33
f 28/2/33 14/3/13 11/2/32
f 29/4/34 16/4/15 15/4/14
f 16/4/15 29/4/34 22/4/26
f 16/4/15 22/4/26 27/4/31
f 27/4/31 22/4/26 24/4/27
f 9/1/35 18/2/20 8/2/19
f 18/2/20 9/1/35 12/2/19
f 1/1/36 25/2/29 3/2/28
f 25/2/29 1/1/36 4/2/28
f 29/4/34 13/3/21 19/3/21
f 13/3/21 29/4/34 15/4/14
f 17/2/18 26/3/30 7/2/16
f 26/3/30 17/2/18 11/2/16
f 26/3/30 11/2/16 14/3/30
f 20/2/24 23/3/37 4/2/22
f 23/3/37 20/2/24 26/3/37
f 26/3/37 20/2/24 7/2/22
f 26/3/37 24/4/27 23/3/37
f 24/4/27 26/3/37 27/4/31
f 21/3/40 30/2/39 3/2/38
f 30/2/39 21/3/40 12/2/38
f 12/2/38 21/3/40 19/3/40
f 2/1/41 30/2/39 12/2/38
f 30/2/39 2/1/41 3/2/38
f 28/2/33 10/1/42 8/2/32
f 10/1/42 28/2/33 11/2/32
f 22/4/26 19/3/40 21/3/40
f 19/3/40 22/4/26 29/4/34
f 33/5/43 32/5/43 31/5/43
f 32/5/43 33/5/43 34/5/43
f 34/5/43 33/5/43 35/5/43
f 34/5/43 35/5/43 36/5/43
f 31/5/44 6/1/9 33/5/44
f 6/1/9 31/5/44 10/1/9
f 2/1/11 32/5/45 34/5/45
f 32/5/45 2/1/11 9/1/11
f 10/1/8 32/5/46 9/1/8
f 32/5/46 10/1/8 31/5/46
f 6/1/5 35/5/47 33/5/47
f 35/5/47 6/1/5 5/1/5
f 36/5/48 5/1/3 1/1/3
f 5/1/3 36/5/48 35/5/48
f 1/1/1 34/5/49 36/5/49
f 34/5/49 1/1/1 2/1/1
f 39/7/51 38/6/50 37/6/50
f 42/6/52 41/7/53 40/6/52
f 44/7/55 42/6/54 43/6/54
f 46/6/57 38/6/57 45/7/56
f 47/7/59 37/6/58 40/6/58
f 48/7/61 43/6/60 46/6/60
f 43/6/54 50/5/62 49/5/62
f 50/5/62 43/6/54 42/6/54
f 51/7/65 43/6/64 48/7/63
f 43/6/64 51/7/65 44/7/63
f 49/5/66 53/5/66 52/5/66
f 53/5/66 49/5/66 54/5/66
f 54/5/66 49/5/66 50/5/66
f 54/5/66 50/5/66 55/5/66
f 40/6/69 56/7/68 47/7/67
f 56/7/68 40/6/69 41/7/67
f 46/6/60 49/5/70 52/5/70
f 49/5/70 46/6/60 43/6/60
f 55/5/71 42/6/52 40/6/52
f 42/6/52 55/5/71 50/5/71
f 38/6/74 57/7/73 45/7/72
f 57/7/73 38/6/74 39/7/72
f 40/6/58 54/5/75 55/5/75
f 54/5/75 40/6/58 37/6/58
f 58/7/78 46/6/77 45/7/76
f 46/6/77 58/7/78 48/7/76
f 37/6/50 53/5/79 54/5/79
f 53/5/79 37/6/50 38/6/50
f 59/7/82 42/6/81 44/7/80
f 42/6/81 59/7/82 41/7/80
f 37/6/85 60/7/84 39/7/83
f 60/7/84 37/6/85 47/7/83
f 46/6/57 53/5/86 38/6/57
f 53/5/86 46/6/57 52/5/86
f 63/8/87 62/4/88 61/8/87
f 62/4/88 63/8/87 64/4/88
f 60/7/84 65/8/89 39/7/83
f 65/8/89 60/7/84 61/8/89
f 61/8/89 60/7/84 47/7/83
f 63/8/90 44/7/80 66/8/90
f 44/7/80 63/8/90 59/7/82
f 59/7/82 63/8/90 41/7/80
f 62/4/91 65/8/89 61/8/89
f 65/8/89 62/4/91 67/4/91
f 63/8/90 68/4/92 64/4/92
f 68/4/92 63/8/90 66/8/90
f 67/4/94 69/8/93 65/8/93
f 69/8/93 67/4/94 70/4/94
f 69/8/95 58/7/78 45/7/76
f 58/7/78 69/8/95 48/7/76
f 48/7/76 69/8/95 71/8/95
f 72/4/96 69/8/95 70/4/96
f 69/8/95 72/4/96 71/8/95
f 71/8/97 68/4/98 66/8/97
f 68/4/98 71/8/97 72/4/98
f 47/7/67 63/8/87 61/8/87
f 63/8/87 47/7/67 56/7/68
f 63/8/87 56/7/68 41/7/67
f 57/7/73 69/8/93 45/7/72
f 69/8/93 57/7/73 39/7/72
f 69/8/93 39/7/72 65/8/93
f 71/8/97 51/7/65 48/7/63
f 51/7/65 71/8/97 66/8/97
f 51/7/65 66/8/97 44/7/63
f 75/10/101 74/10/100 73/9/99
f 76/11/104 73/9/103 74/10/102
f 73/9/99 78/12/106 77/11/105
f 81/13/108 80/13/108 79/12/107
f 75/10/101 73/9/99 77/11/105
f 83/12/110 82/13/109 81/13/109
f 85/12/112 84/13/111 82/13/111
f 76/11/104 74/10/102 86/10/113
f 89/12/115 88/13/114 87/13/114
f 78/12/117 80/13/116 88/13/116
f 84/13/118 90/12/119 87/13/118
f 76/11/104 79/12/120 73/9/103
f 81/13/109 92/14/121 91/14/121
f 92/14/121 81/13/109 82/13/109
f 87/13/124 93/12/123 89/12/122
f 93/12/123 87/13/124 90/12/122
f 94/12/127 82/13/126 83/12/125
f 82/13/126 94/12/127 85/12/125
f 82/13/111 95/14/128 92/14/128
f 95/14/128 82/13/111 84/13/111
f 80/13/130 96/12/129 79/12/120
f 96/12/129 80/13/130 78/12/131
f 92/14/132 97/14/132 91/14/132
f 97/14/132 92/14/132 98/14/132
f 98/14/132 92/14/132 99/14/132
f 99/14/132 92/14/132 95/14/132
f 99/14/133 88/13/114 98/14/133
f 88/13/114 99/14/133 87/13/114
f 100/12/136 81/13/135 79/12/134
f 81/13/135 100/12/136 83/12/134
f 101/12/139 84/13/138 85/12/137
f 84/13/138 101/12/139 90/12/137
f 99/14/140 84/13/118 87/13/118
f 84/13/118 99/14/140 95/14/140
f 81/13/108 97/14/141 80/13/108
f 97/14/141 81/13/108 91/14/141
f 98/14/142 80/13/116 97/14/142
f 80/13/116 98/14/142 88/13/116
f 88/13/144 102/12/143 78/12/106
f 102/12/143 88/13/144 89/12/145
f 105/11/146 104/10/147 103/11/146
f 104/10/147 105/11/146 106/10/147
f 89/12/145 78/12/106 102/12/143
f 78/12/106 89/12/145 77/11/105
f 108/11/149 104/10/148 107/10/148
f 104/10/148 108/11/149 103/11/150
f 101/12/139 108/11/149 90/12/137
f 108/11/149 101/12/139 103/11/150
f 103/11/150 101/12/139 85/12/137
f 76/11/151 100/12/136 79/12/134
f 100/12/136 76/11/151 105/11/152
f 100/12/136 105/11/152 83/12/134
f 108/11/155 75/10/154 77/11/153
f 75/10/154 108/11/155 107/10/154
f 93/12/123 77/11/153 89/12/122
f 77/11/153 93/12/123 108/11/155
f 108/11/155 93/12/123 90/12/122
f 83/12/125 85/12/125 94/12/127
f 85/12/125 83/12/125 103/11/146
f 103/11/146 83/12/125 105/11/146
f 73/9/103 96/12/129 78/12/131
f 96/12/129 73/9/103 79/12/120
f 106/10/156 76/11/151 86/10/156
f 76/11/151 106/10/156 105/11/152
f 111/15/157 110/16/158 109/15/157
f 114/16/160 113/15/159 112/15/159
f 117/16/162 116/15/161 115/15/161
f 118/16/164 112/15/163 109/15/163
f 115/15/166 113/15/166 119/16/165
f 120/16/168 111/15/167 116/15/167
f 121/16/171 111/15/170 120/16/169
f 111/15/170 121/16/171 110/16/169
f 112/15/174 122/16/173 114/16/172
f 122/16/173 112/15/174 118/16/172
f 113/15/177 123/16/176 119/16/175
f 123/16/176 113/15/177 114/16/175
f 109/15/180 124/16/179 118/16/178
f 124/16/179 109/15/180 110/16/178
f 125/16/183 115/15/182 119/16/181
f 115/15/182 125/16/183 117/16/181
f 126/16/186 116/15/185 117/16/184
f 116/15/185 126/16/186 120/16/184
f 127/14/187 111/15/157 109/15/157
f 111/15/157 127/14/187 128/14/187
f 131/14/188 130/14/188 129/14/188
f 130/14/188 131/14/188 132/14/188
f 132/14/188 131/14/188 127/14/188
f 127/14/188 131/14/188 128/14/188
f 115/15/166 130/14/189 113/15/166
f 130/14/189 115/15/166 129/14/189
f 116/15/167 128/14/190 131/14/190
f 128/14/190 116/15/167 111/15/167
f 129/14/191 116/15/161 131/14/191
f 116/15/161 129/14/191 115/15/161
f 132/14/192 113/15/159 130/14/192
f 113/15/159 132/14/192 112/15/159
f 109/15/163 132/14/193 127/14/193
f 132/14/193 109/15/163 112/15/163
f 135/17/194 134/10/195 133/17/194
f 134/10/195 135/17/194 136/10/195
f 139/10/197 138/17/196 137/17/196
f 138/17/196 139/10/197 140/10/197
f 134/10/199 137/17/198 133/17/198
f 137/17/198 134/10/199 139/10/199
f 141/17/200 136/10/201 135/17/200
f 136/10/201 141/17/200 142/10/201
f 140/10/203 143/17/202 138/17/202
f 143/17/202 140/10/203 144/10/203
f 141/17/205 144/10/204 142/10/204
f 144/10/204 141/17/205 143/17/205
f 141/17/205 120/16/169 143/17/205
f 120/16/169 141/17/205 121/16/171
f 121/16/171 141/17/205 110/16/169
f 118/16/178 141/17/200 135/17/200
f 141/17/200 118/16/178 124/16/179
f 141/17/200 124/16/179 110/16/178
f 137/17/196 125/16/183 119/16/181
f 125/16/183 137/17/196 117/16/181
f 117/16/181 137/17/196 138/17/196
f 123/16/176 137/17/198 119/16/175
f 137/17/198 123/16/176 114/16/175
f 137/17/198 114/16/175 133/17/198
f 138/17/202 126/16/186 117/16/184
f 143/17/202 126/16/186 138/17/202
f 126/16/186 143/17/202 120/16/184
f 135/17/194 122/16/173 118/16/172
f 122/16/173 135/17/194 133/17/194
f 133/17/194 114/16/172 122/16/173
f 48/18/208 43/19/207 51/18/206
f 44/18/208 51/18/206 43/19/207
f 47/18/211 56/18/210 40/19/209
f 41/18/211 40/19/209 56/18/210
f 45/18/214 57/18/213 38/19/212
f 39/18/214 38/19/212 57/18/213
f 45/18/217 46/19/216 58/18/215
f 48/18/217 58/18/215 46/19/216
f 44/18/220 42/19/219 59/18/218
f 41/18/220 59/18/218 42/19/219
f 39/18/223 60/18/222 37/19/221
f 47/18/223 37/19/221 60/18/222
f 89/21/226 93/21/225 87/20/224
f 90/21/226 87/20/224 93/21/225
f 83/21/229 82/20/228 94/21/227
f 85/21/229 94/21/227 82/20/228
f 79/21/232 96/21/231 80/20/230
f 78/21/233 80/20/230 96/21/231
f 79/21/236 81/20/235 100/21/234
f 83/21/236 100/21/234 81/20/235
f 85/21/239 84/20/238 101/21/237
f 90/21/239 101/21/237 84/20/238
f 78/21/242 102/21/241 88/20/240
f 89/21/243 88/20/240 102/21/241
f 120/22/246 111/23/245 121/22/244
f 110/22/246 121/22/244 111/23/245
f 114/22/249 122/22/248 112/23/247
f 118/22/249 112/23/247 122/22/248
f 119/22/252 123/22/251 113/23/250
f 114/22/252 113/23/250 123/22/251
f 118/22/255 124/22/254 109/23/253
f 110/22/255 109/23/253 124/22/254
f 119/22/258 115/23/257 125/22/256
f 117/22/258 125/22/256 115/23/257
f 117/22/261 116/23/260 126/22/259
f 120/22/261 126/22/259 116/23/260
f 147/24/263 146/25/262 145/24/262
f 146/25/262 147/24/263 148/25/263
f 150/24/264 146/25/262 149/25/264
f 146/25/262 150/24/264 145/24/262
f 153/25/265 152/24/266 151/24/265
f 152/24/266 153/25/265 154/25/266
f 147/24/263 154/25/266 148/25/263
f 154/25/266 147/24/263 152/24/266
f 153/25/265 156/24/267 155/25/267
f 156/24/267 153/25/265 151/24/265
f 156/24/267 149/25/264 155/25/267
f 149/25/264 156/24/267 150/24/264
f 149/25/270 158/26/269 157/26/268
f 158/26/269 149/25/270 146/25/271
f 148/25/272 158/26/269 146/25/271
f 158/26/269 148/25/272 159/26/273
f 155/25/275 157/26/268 160/26/274
f 157/26/268 155/25/275 149/25/270
f 161/26/276 155/25/275 160/26/274
f 155/25/275 161/26/276 153/25/277
f 148/25/272 162/26/278 159/26/273
f 162/26/278 148/25/272 154/25/279
f 161/26/276 154/25/279 153/25/277
f 154/25/279 161/26/276 162/26/278
f 165/26/188 164/26/188 163/26/188
f 164/26/188 165/26/188 166/26/188
f 166/26/188 165/26/188 167/26/188
f 166/26/188 167/26/188 168/26/188
f 159/26/273 167/26/281 165/26/280
f 167/26/281 159/26/273 162/26/278
f 168/26/282 162/26/278 161/26/276
f 162/26/278 168/26/282 167/26/281
f 166/26/283 161/26/276 160/26/274
f 161/26/276 166/26/283 168/26/282
f 160/26/274 164/26/284 166/26/283
f 164/26/284 160/26/274 157/26/268
f 158/26/269 164/26/284 157/26/268
f 164/26/284 158/26/269 163/26/285
f 159/26/273 163/26/285 158/26/269
f 163/26/285 159/26/273 165/26/280
g pine-crooked
usemtl colormap
f 3/2/2 2/1/1 1/1/1
f 5/1/3 4/2/4 1/1/3
f 7/2/6 5/1/5 6/1/5
f 10/1/8 9/1/8 8/2/7
f 11/2/10 6/1/9 10/1/9
f 12/2/12 9/1/11 2/1/11
f 15/4/14 14/3/13 13/3/13
f 14/3/13 15/4/14 16/4/15
f 17/2/18 6/1/17 11/2/16
f 6/1/17 17/2/18 7/2/16
f 19/3/21 18/2/20 12/2/19
f 18/2/20 19/3/21 13/3/21
f 18/2/20 13/3/21 8/2/19
f 20/2/24 5/1/23 7/2/22
f 5/1/23 20/2/24 4/2/22
f 23/3/25 22/4/26 21/3/25
f 22/4/26 23/3/25 24/4/27
f 25/2/29 21/3/25 3/2/28
f 21/3/25 25/2/29 23/3/25
f 23/3/25 25/2/29 4/2/28
f 16/4/15 26/3/30 14/3/30
f 26/3/30 16/4/15 27/4/31
f 14/3/13 8/2/32 13/3/13
f 8/2/32 14/3/13 28/2/33
f 28/2/33 14/3/13 11/2/32
f 29/4/34 16/4/15 15/4/14
f 16/4/15 29/4/34 22/4/26
f 16/4/15 22/4/26 27/4/31
f 27/4/31 22/4/26 24/4/27
f 9/1/35 18/2/20 8/2/19
f 18/2/20 9/1/35 12/2/19
f 1/1/36 25/2/29 3/2/28
f 25/2/29 1/1/36 4/2/28
f 29/4/34 13/3/21 19/3/21
f 13/3/21 29/4/34 15/4/14
f 17/2/18 26/3/30 7/2/16
f 26/3/30 17/2/18 11/2/16
f 26/3/30 11/2/16 14/3/30
f 20/2/24 23/3/37 4/2/22
f 23/3/37 20/2/24 26/3/37
f 26/3/37 20/2/24 7/2/22
f 26/3/37 24/4/27 23/3/37
f 24/4/27 26/3/37 27/4/31
f 21/3/40 30/2/39 3/2/38
f 30/2/39 21/3/40 12/2/38
f 12/2/38 21/3/40 19/3/40
f 2/1/41 30/2/39 12/2/38
f 30/2/39 2/1/41 3/2/38
f 28/2/33 10/1/42 8/2/32
f 10/1/42 28/2/33 11/2/32
f 22/4/26 19/3/40 21/3/40
f 19/3/40 22/4/26 29/4/34
f 33/5/43 32/5/43 31/5/43
f 32/5/43 33/5/43 34/5/43
f 34/5/43 33/5/43 35/5/43
f 34/5/43 35/5/43 36/5/43
f 31/5/44 6/1/9 33/5/44
f 6/1/9 31/5/44 10/1/9
f 2/1/11 32/5/45 34/5/45
f 32/5/45 2/1/11 9/1/11
f 10/1/8 32/5/46 9/1/8
f 32/5/46 10/1/8 31/5/46
f 6/1/5 35/5/47 33/5/47
f 35/5/47 6/1/5 5/1/5
f 36/5/48 5/1/3 1/1/3
f 5/1/3 36/5/48 35/5/48
f 1/1/1 34/5/49 36/5/49
f 34/5/49 1/1/1 2/1/1
f 39/7/51 38/6/50 37/6/50
f 42/6/52 41/7/53 40/6/52
f 44/7/55 42/6/54 43/6/54
f 46/6/57 38/6/57 45/7/56
f 47/7/59 37/6/58 40/6/58
f 48/7/61 43/6/60 46/6/60
f 43/6/54 50/5/62 49/5/62
f 50/5/62 43/6/54 42/6/54
f 51/7/65 43/6/64 48/7/63
f 43/6/64 51/7/65 44/7/63
f 49/5/66 53/5/66 52/5/66
f 53/5/66 49/5/66 54/5/66
f 54/5/66 49/5/66 50/5/66
f 54/5/66 50/5/66 55/5/66
f 40/6/69 56/7/68 47/7/67
f 56/7/68 40/6/69 41/7/67
f 46/6/60 49/5/70 52/5/70
f 49/5/70 46/6/60 43/6/60
f 55/5/71 42/6/52 40/6/52
f 42/6/52 55/5/71 50/5/71
f 38/6/74 57/7/73 45/7/72
f 57/7/73 38/6/74 39/7/72
f 40/6/58 54/5/75 55/5/75
f 54/5/75 40/6/58 37/6/58
f 58/7/78 46/6/77 45/7/76
f 46/6/77 58/7/78 48/7/76
f 37/6/50 53/5/79 54/5/79
f 53/5/79 37/6/50 38/6/50
f 59/7/82 42/6/81 44/7/80
f 42/6/81 59/7/82 41/7/80
f 37/6/85 60/7/84 39/7/83
f 60/7/84 37/6/85 47/7/83
f 46/6/57 53/5/86 38/6/57
f 53/5/86 46/6/57 52/5/86
f 63/8/87 62/4/88 61/8/87
f 62/4/88 63/8/87 64/4/88
f 60/7/84 65/8/89 39/7/83
f 65/8/89 60/7/84 61/8/89
f 61/8/89 60/7/84 47/7/83
f 63/8/90 44/7/80 66/8/90
f 44/7/80 63/8/90 59/7/82
f 59/7/82 63/8/90 41/7/80
f 62/4/91 65/8/89 61/8/89
f 65/8/89 62/4/91 67/4/91
f 63/8/90 68/4/92 64/4/92
f 68/4/92 63/8/90 66/8/90
f 67/4/94 69/8/93 65/8/93
f 69/8/93 67/4/94 70/4/94
f 69/8/95 58/7/78 45/7/76
f 58/7/78 69/8/95 48/7/76
f 48/7/76 69/8/95 71/8/95
f 72/4/96 69/8/95 70/4/96
f 69/8/95 72/4/96 71/8/95
f 71/8/97 68/4/98 66/8/97
f 68/4/98 71/8/97 72/4/98
f 47/7/67 63/8/87 61/8/87
f 63/8/87 47/7/67 56/7/68
f 63/8/87 56/7/68 41/7/67
f 57/7/73 69/8/93 45/7/72
f 69/8/93 57/7/73 39/7/72
f 69/8/93 39/7/72 65/8/93
f 71/8/97 51/7/65 48/7/63
f 51/7/65 71/8/97 66/8/97
f 51/7/65 66/8/97 44/7/63
f 75/10/101 74/10/100 73/9/99
f 76/11/104 73/9/103 74/10/102
f 73/9/99 78/12/106 77/11/105
f 81/13/108 80/13/108 79/12/107
f 75/10/101 73/9/99 77/11/105
f 83/12/110 82/13/109 81/13/109
f 85/12/112 84/13/111 82/13/111
f 76/11/104 74/10/102 86/10/113
f 89/12/115 88/13/114 87/13/114
f 78/12/117 80/13/116 88/13/116
f 84/13/118 90/12/119 87/13/118
f 76/11/104 79/12/120 73/9/103
f 81/13/109 92/14/121 91/14/121
f 92/14/121 81/13/109 82/13/109
f 87/13/124 93/12/123 89/12/122
f 93/12/123 87/13/124 90/12/122
f 94/12/127 82/13/126 83/12/125
f 82/13/126 94/12/127 85/12/125
f 82/13/111 95/14/128 92/14/128
f 95/14/128 82/13/111 84/13/111
f 80/13/130 96/12/129 79/12/120
f 96/12/129 80/13/130 78/12/131
f 92/14/132 97/14/132 91/14/132
f 97/14/132 92/14/132 98/14/132
f 98/14/132 92/14/132 99/14/132
f 99/14/132 92/14/132 95/14/132
f 99/14/133 88/13/114 98/14/133
f 88/13/114 99/14/133 87/13/114
f 100/12/136 81/13/135 79/12/134
f 81/13/135 100/12/136 83/12/134
f 101/12/139 84/13/138 85/12/137
f 84/13/138 101/12/139 90/12/137
f 99/14/140 84/13/118 87/13/118
f 84/13/118 99/14/140 95/14/140
f 81/13/108 97/14/141 80/13/108
f 97/14/141 81/13/108 91/14/141
f 98/14/142 80/13/116 97/14/142
f 80/13/116 98/14/142 88/13/116
f 88/13/144 102/12/143 78/12/106
f 102/12/143 88/13/144 89/12/145
f 105/11/146 104/10/147 103/11/146
f 104/10/147 105/11/146 106/10/147
f 89/12/145 78/12/106 102/12/143
f 78/12/106 89/12/145 77/11/105
f 108/11/149 104/10/148 107/10/148
f 104/10/148 108/11/149 103/11/150
f 101/12/139 108/11/149 90/12/137
f 108/11/149 101/12/139 103/11/150
f 103/11/150 101/12/139 85/12/137
f 76/11/151 100/12/136 79/12/134
f 100/12/136 76/11/151 105/11/152
f 100/12/136 105/11/152 83/12/134
f 108/11/155 75/10/154 77/11/153
f 75/10/154 108/11/155 107/10/154
f 93/12/123 77/11/153 89/12/122
f 77/11/153 93/12/123 108/11/155
f 108/11/155 93/12/123 90/12/122
f 83/12/125 85/12/125 94/12/127
f 85/12/125 83/12/125 103/11/146
f 103/11/146 83/12/125 105/11/146
f 73/9/103 96/12/129 78/12/131
f 96/12/129 73/9/103 79/12/120
f 106/10/156 76/11/151 86/10/156
f 76/11/151 106/10/156 105/11/152
f 111/15/157 110/16/158 109/15/157
f 114/16/160 113/15/159 112/15/159
f 117/16/162 116/15/161 115/15/161
f 118/16/164 112/15/163 109/15/163
f 115/15/166 113/15/166 119/16/165
f 120/16/168 111/15/167 116/15/167
f 121/16/171 111/15/170 120/16/169
f 111/15/170 121/16/171 110/16/169
f 112/15/174 122/16/173 114/16/172
f 122/16/173 112/15/174 118/16/172
f 113/15/177 123/16/176 119/16/175
f 123/16/176 113/15/177 114/16/175
f 109/15/180 124/16/179 118/16/178
f 124/16/179 109/15/180 110/16/178
f 125/16/183 115/15/182 119/16/181
f 115/15/182 125/16/183 117/16/181
f 126/16/186 116/15/185 117/16/184
f 116/15/185 126/16/186 120/16/184
f 127/14/187 111/15/157 109/15/157
f 111/15/157 127/14/187 128/14/187
f 131/14/188 130/14/188 129/14/188
f 130/14/188 131/14/188 132/14/188
f 132/14/188 131/14/188 127/14/188
f 127/14/188 131/14/188 128/14/188
f 115/15/166 130/14/189 113/15/166
f 130/14/189 115/15/166 129/14/189
f 116/15/167 128/14/190 131/14/190
f 128/14/190 116/15/167 111/15/167
f 129/14/191 116/15/161 131/14/191
f 116/15/161 129/14/191 115/15/161
f 132/14/192 113/15/159 130/14/192
f 113/15/159 132/14/192 112/15/159
f 109/15/163 132/14/193 127/14/193
f 132/14/193 109/15/163 112/15/163
f 135/17/194 134/10/195 133/17/194
f 134/10/195 135/17/194 136/10/195
f 139/10/197 138/17/196 137/17/196
f 138/17/196 139/10/197 140/10/197
f 134/10/199 137/17/198 133/17/198
f 137/17/198 134/10/199 139/10/199
f 141/17/200 136/10/201 135/17/200
f 136/10/201 141/17/200 142/10/201
f 140/10/203 143/17/202 138/17/202
f 143/17/202 140/10/203 144/10/203
f 141/17/205 144/10/204 142/10/204
f 144/10/204 141/17/205 143/17/205
f 141/17/205 120/16/169 143/17/205
f 120/16/169 141/17/205 121/16/171
f 121/16/171 141/17/205 110/16/169
f 118/16/178 141/17/200 135/17/200
f 141/17/200 118/16/178 124/16/179
f 141/17/200 124/16/179 110/16/178
f 137/17/196 125/16/183 119/16/181
f 125/16/183 137/17/196 117/16/181
f 117/16/181 137/17/196 138/17/196
f 123/16/176 137/17/198 119/16/175
f 137/17/198 123/16/176 114/16/175
f 137/17/198 114/16/175 133/17/198
f 138/17/202 126/16/186 117/16/184
f 143/17/202 126/16/186 138/17/202
f 126/16/186 143/17/202 120/16/184
f 135/17/194 122/16/173 118/16/172
f 122/16/173 135/17/194 133/17/194
f 133/17/194 114/16/172 122/16/173
f 48/18/208 43/19/207 51/18/206
f 44/18/208 51/18/206 43/19/207
f 47/18/211 56/18/210 40/19/209
f 41/18/211 40/19/209 56/18/210
f 45/18/214 57/18/213 38/19/212
f 39/18/214 38/19/212 57/18/213
f 45/18/217 46/19/216 58/18/215
f 48/18/217 58/18/215 46/19/216
f 44/18/220 42/19/219 59/18/218
f 41/18/220 59/18/218 42/19/219
f 39/18/223 60/18/222 37/19/221
f 47/18/223 37/19/221 60/18/222
f 89/21/226 93/21/225 87/20/224
f 90/21/226 87/20/224 93/21/225
f 83/21/229 82/20/228 94/21/227
f 85/21/229 94/21/227 82/20/228
f 79/21/232 96/21/231 80/20/230
f 78/21/233 80/20/230 96/21/231
f 79/21/236 81/20/235 100/21/234
f 83/21/236 100/21/234 81/20/235
f 85/21/239 84/20/238 101/21/237
f 90/21/239 101/21/237 84/20/238
f 78/21/242 102/21/241 88/20/240
f 89/21/243 88/20/240 102/21/241
f 120/22/246 111/23/245 121/22/244
f 110/22/246 121/22/244 111/23/245
f 114/22/249 122/22/248 112/23/247
f 118/22/249 112/23/247 122/22/248
f 119/22/252 123/22/251 113/23/250
f 114/22/252 113/23/250 123/22/251
f 118/22/255 124/22/254 109/23/253
f 110/22/255 109/23/253 124/22/254
f 119/22/258 115/23/257 125/22/256
f 117/22/258 125/22/256 115/23/257
f 117/22/261 116/23/260 126/22/259
f 120/22/261 126/22/259 116/23/260
f 147/24/263 146/25/262 145/24/262
f 146/25/262 147/24/263 148/25/263
f 150/24/264 146/25/262 149/25/264
f 146/25/262 150/24/264 145/24/262
f 153/25/265 152/24/266 151/24/265
f 152/24/266 153/25/265 154/25/266
f 147/24/263 154/25/266 148/25/263
f 154/25/266 147/24/263 152/24/266
f 153/25/265 156/24/267 155/25/267
f 156/24/267 153/25/265 151/24/265
f 156/24/267 149/25/264 155/25/267
f 149/25/264 156/24/267 150/24/264
f 149/25/270 158/26/269 157/26/268
f 158/26/269 149/25/270 146/25/271
f 148/25/272 158/26/269 146/25/271
f 158/26/269 148/25/272 159/26/273
f 155/25/275 157/26/268 160/26/274
f 157/26/268 155/25/275 149/25/270
f 161/26/276 155/25/275 160/26/274
f 155/25/275 161/26/276 153/25/277
f 148/25/272 162/26/278 159/26/273
f 162/26/278 148/25/272 154/25/279
f 161/26/276 154/25/279 153/25/277
f 154/25/279 161/26/276 162/26/278
f 165/26/188 164/26/188 163/26/188
f 164/26/188 165/26/188 166/26/188
f 166/26/188 165/26/188 167/26/188
f 166/26/188 167/26/188 168/26/188
f 159/26/273 167/26/281 165/26/280
f 167/26/281 159/26/273 162/26/278
f 168/26/282 162/26/278 161/26/276
f 162/26/278 168/26/282 167/26/281
f 166/26/283 161/26/276 160/26/274
f 161/26/276 166/26/283 168/26/282
f 160/26/274 164/26/284 166/26/283
f 164/26/284 160/26/274 157/26/268
f 158/26/269 164/26/284 157/26/268
f 164/26/284 158/26/269 163/26/285
f 159/26/273 163/26/285 158/26/269
f 163/26/285 159/26/273 165/26/280
