mtllib pine.mtl
g pine
v 0.28478 1.7405 -3.79e-15
v 0.2794 1.7025 -0.16131
v 0.2794 1.7025 0.16131
v -1.4438e-15 1.7025 0.32262
v 0.14239 1.7405 0.24662
v 0 1.7025 -0.32262
v 0.14239 1.7405 -0.24662
v -0.2794 1.7025 0.16131
v -0.14239 1.7405 0.24662
v -0.2794 1.7025 -0.16131
v -0.28478 1.7405 -3.79e-15
v -0.14239 1.7405 -0.24662
v -0.18099 1.8826 -3.79e-15
v -0.21358 1.7405 0.12331
v -0.090496 1.8826 0.15674
v 0 1.7405 -0.24662
v -0.069089 2.2025 -3.6096e-15
v -0.034545 2.2025 0.059833
v -0.090496 1.8826 -0.15674
v 0.090496 1.8826 -0.15674
v -0.034545 2.2025 -0.059833
v 0.034545 2.2025 -0.059833
v 0.18099 1.8826 -3.79e-15
v 0.069089 2.2025 -3.6096e-16
v 0.21358 1.7405 0.12331
v 0 1.7405 0.24662
v 0.090496 1.8826 0.15674
v -5.7753e-15 1.6025 0.29036
v 0.25146 1.6025 0.14518
v -0.25146 1.6025 0.14518
v -7.2191e-15 1.6025 -0.29036
v 0.25146 1.6025 -0.14518
v 0.034545 2.2025 0.059833
v -0.25146 1.6025 -0.14518
v 0.21358 1.7405 -0.12331
v -0.21358 1.7405 -0.12331
v -7.941e-15 0.85924 -0.5405
v 0.46808 0.85924 -0.27025
v 0.23855 0.90461 -0.41317
v -0.46808 0.85924 -0.27025
v -0.23855 0.90461 -0.41317
v 0.46808 0.85924 0.27025
v -7.941e-15 0.85924 0.5405
v 0.23855 0.90461 0.41317
v -0.46808 0.85924 0.27025
v -0.23855 0.90461 0.41317
v 0.47709 0.90461 3.6096e-16
v -0.47709 0.90461 3.6096e-16
v 0.14898 1.057 -0.25805
v -6.4972e-15 0.90461 -0.41317
v -0.14898 1.057 -0.25805
v -0.14898 1.057 0.25805
v -0.29797 1.057 7.2191e-16
v -0.35782 0.90461 0.20659
v -0.1184 1.3025 -0.20508
v -0.23681 1.3025 5.4143e-16
v -5.0534e-15 0.90461 0.41317
v 0.14898 1.057 0.25805
v -0.35782 0.90461 -0.20659
v 0.29797 1.057 7.2191e-16
v 0.35782 0.90461 -0.20659
v -0.41191 0.75924 -0.23782
v -7.2191e-16 0.75924 -0.47564
v 0.35782 0.90461 0.20659
v 0.41191 0.75924 -0.23782
v -0.1184 1.3025 0.20508
v 0.41191 0.75924 0.23782
v -7.2191e-16 0.75924 0.47564
v -0.41191 0.75924 0.23782
v 0.1184 1.3025 0.20508
v 0.23681 1.3025 -1.8048e-16
v 0.1184 1.3025 -0.20508
v -0.11588 1.5147 -0.19615
v 0.18735 1.3133 -0.31995
v 0.098498 1.5302 -0.16968
v 0.37471 1.3133 0.0045544
v 0.36763 1.2633 -0.2077
v 0.36763 1.2633 0.21681
v -0.36763 1.2633 -0.2077
v 3.6096e-15 1.2633 -0.41995
v -0.18735 1.3133 -0.31995
v 2.1657e-15 1.2633 0.42906
v 0.18735 1.3133 0.32906
v -0.36763 1.2633 0.21681
v -0.18735 1.3133 0.32906
v -0.37471 1.3133 0.0045544
v 0.23176 1.5147 0.0045544
v 0.09363 1.7525 -0.16217
v 0.18726 1.7525 0
v -0.09363 1.7525 -0.16217
v 0.31616 1.1633 0.18709
v 3.6096e-15 1.1633 0.36963
v -0.28103 1.3133 -0.1577
v 7.2191e-16 1.3133 0.32906
v -0.31616 1.1633 0.18709
v 0.28103 1.3133 -0.1577
v 0.31616 1.1633 -0.17798
v 5.0534e-15 1.1633 -0.36052
v -0.31616 1.1633 -0.17798
v 0.28103 1.3133 0.16681
v -0.28103 1.3133 0.16681
v 0.11588 1.5147 0.20526
v -0.23176 1.5147 0.0045544
v 7.2191e-16 1.3133 -0.31995
v -0.18726 1.7525 0
v -0.09363 1.7525 0.16217
v -0.11588 1.5147 0.20526
v 0.09363 1.7525 0.16217
v 2.8876e-15 0.41797 -0.66728
v 0.57788 0.41797 -0.33364
v 0.2945 0.49656 -0.51009
v 0.57788 0.41797 0.33364
v 0 0.41797 0.66728
v 0.2945 0.49656 0.51009
v -0.57788 0.41797 -0.33364
v -0.2945 0.49656 -0.51009
v -0.589 0.49656 -4.5119e-16
v -0.57788 0.41797 0.33364
v -0.2945 0.49656 0.51009
v 0.589 0.49656 -4.5119e-16
v 0.44175 0.49656 0.25504
v -0.50853 0.31797 -0.2936
v 2.8876e-15 0.31797 -0.58721
v 0.38649 0.68979 -2.7072e-16
v 0.44175 0.49656 -0.25504
v 0.19324 0.68979 -0.33471
v 0 0.49656 -0.51009
v -0.19324 0.68979 -0.33471
v -0.15065 0.95246 -0.26094
v -0.38649 0.68979 -2.7072e-16
v -0.30131 0.95246 -8.1215e-16
v 0 0.49656 0.51009
v 0.50853 0.31797 -0.2936
v 0.50853 0.31797 0.2936
v -0.50853 0.31797 0.2936
v -0.15065 0.95246 0.26094
v -0.19324 0.68979 0.33471
v -0.44175 0.49656 -0.25504
v 0 0.31797 0.58721
v 0.15065 0.95246 -0.26094
v 0.19324 0.68979 0.33471
v 0.30131 0.95246 -9.0239e-17
v 0.15065 0.95246 0.26094
v -0.44175 0.49656 0.25504
v 0.13004 0.31797 1.858e-09
v 0.14682 0.16306 1.858e-09
v 0.053758 0.31797 0.13212
v 0.062149 0.16306 0.14666
v 0.062149 0.16306 -0.14666
v 0.053758 0.31797 -0.13212
v -0.17508 0.31797 1.858e-09
v -0.098803 0.31797 0.13212
v -0.19186 0.16306 1.858e-09
v -0.10719 0.16306 0.14666
v -0.10719 0.16306 -0.14666
v -0.098803 0.31797 -0.13212
v 0.099412 0 -0.2112
v 0.22135 0 1.858e-09
v 0.099412 0 0.2112
v -0.14446 0 -0.2112
v -0.26639 0 1.858e-09
v -0.14446 0 0.2112
v 0.17257 -0.1 1.858e-09
v 0.075025 -0.1 -0.16896
v 0.075025 -0.1 0.16896
v -0.12007 -0.1 -0.16896
v -0.12007 -0.1 0.16896
v -0.21762 -0.1 1.858e-09
vn 0.99014 -0.14009 0
vn 0.96796 -0.2511 0
vn 0.48398 -0.2511 0.83828
vn 0.49507 -0.14009 0.85749
vn 0.48398 -0.2511 -0.83828
vn 0.49507 -0.14009 -0.85749
vn -0.48398 -0.2511 0.83828
vn -0.49507 -0.14009 0.85749
vn -0.96796 -0.2511 0
vn -0.99014 -0.14009 0
vn -0.48398 -0.2511 -0.83828
vn -0.49507 -0.14009 -0.85749
vn -0.64927 0.66176 0.37486
vn -0.78043 0.43347 0.45058
vn -0.5809 0.74167 0.33538
vn 0 0.66176 -0.74971
vn 0 0.74167 -0.67076
vn 0 0.89443 -0.44721
vn -0.68031 0.73293 0
vn -0.34015 0.73293 0.58916
vn 0 0.43347 -0.90117
vn -0.34015 0.73293 -0.58916
vn 0.34015 0.73293 -0.58916
vn 0.78043 0.43347 -0.45058
vn 0.68031 0.73293 0
vn 0.64927 0.66176 0.37486
vn 0.3873 0.89443 0.22361
vn 0.5809 0.74167 0.33538
vn 0 0.66176 0.74971
vn 0 0.43347 0.90117
vn 0 0.74167 0.67076
vn 0.48156 -0.26909 0.83408
vn -0.48156 -0.26909 0.83408
vn 0.48156 -0.26909 -0.83408
vn 0.96311 -0.26909 0
vn 0.78043 0.43347 0.45058
vn 0.34015 0.73293 0.58916
vn -0.96311 -0.26909 0
vn 0.64927 0.66176 -0.37486
vn 0.5809 0.74167 -0.33538
vn 0.3873 0.89443 -0.22361
vn -0.64927 0.66176 -0.37486
vn -0.5809 0.74167 -0.33538
vn -0.3873 0.89443 -0.22361
vn 0 -1 0
vn -0.48156 -0.26909 -0.83408
vn 0 0.89443 0.44721
vn -0.3873 0.89443 0.22361
vn -0.78043 0.43347 -0.45058
vn 0.4445 -0.45791 -0.7699
vn 0.49043 -0.1947 -0.84945
vn -0.4445 -0.45791 -0.7699
vn -0.49043 -0.1947 -0.84945
vn 0.4445 -0.45791 0.7699
vn 0.49043 -0.1947 0.84945
vn -0.4445 -0.45791 0.7699
vn -0.49043 -0.1947 0.84945
vn 0.98086 -0.1947 0
vn 0.889 -0.45791 0
vn -0.889 -0.45791 0
vn -0.98086 -0.1947 0
vn 0 0.79875 -0.60167
vn 0 0.52128 -0.85339
vn 0 0.84759 -0.53066
vn -0.73905 0.52128 0.42669
vn -0.52106 0.79875 0.30083
vn -0.45956 0.84759 0.26533
vn -0.73905 0.52128 -0.42669
vn -0.84654 0.21091 -0.48875
vn 0 0.79875 0.60167
vn 0 0.84759 0.53066
vn 0 0.52128 0.85339
vn -0.52106 0.79875 -0.30083
vn -0.45956 0.84759 -0.26533
vn -0.29072 0.94197 -0.16785
vn 0.52106 0.79875 -0.30083
vn 0.73905 0.52128 -0.42669
vn 0.45956 0.84759 -0.26533
vn -0.43594 -0.48973 -0.75506
vn 0.52106 0.79875 0.30083
vn 0.29072 0.94197 0.16785
vn 0.45956 0.84759 0.26533
vn -0.29072 0.94197 0.16785
vn 0.43594 -0.48973 -0.75506
vn -0.84654 0.21091 0.48875
vn 0.43594 -0.48973 0.75506
vn 0 0.94197 -0.33569
vn 0.87187 -0.48973 0
vn 0 0.21091 0.9775
vn 0.84654 0.21091 0.48875
vn 0.73905 0.52128 0.42669
vn 0.29072 0.94197 -0.16785
vn 0 0.21091 -0.9775
vn 0.84654 0.21091 -0.48875
vn 0 0.94197 0.33569
vn -0.43594 -0.48973 0.75506
vn -0.87187 -0.48973 0
vn 0.061175 0.38607 -0.92044
vn 0.019477 0.67498 -0.73758
vn 0.063361 0.35998 -0.93081
vn 0.91091 -0.4126 0
vn -0.45546 -0.4126 -0.78887
vn 0.45546 -0.4126 -0.78887
vn 0.45546 -0.4126 0.78887
vn -0.45546 -0.4126 0.78887
vn -0.91091 -0.4126 0
vn 0.78038 0.31514 -0.54008
vn 0.6326 0.66791 -0.39206
vn 0.7737 0.3413 -0.53376
vn 0.83049 0.09798 -0.54835
vn 0.85612 0.15079 -0.49428
vn 0 0.033782 -0.99943
vn 0.054679 0.080917 -0.99522
vn 0.44457 -0.45763 0.77002
vn -0.65481 0.65444 -0.37806
vn -0.58501 0.73735 -0.33775
vn 0 0.65444 0.75611
vn 0 0.73735 0.67551
vn -0.44457 -0.45763 0.77002
vn 0.56547 0.7574 -0.32648
vn 0.62877 0.68765 -0.36302
vn -0.44457 -0.45763 -0.77002
vn 0.65481 0.65444 0.37806
vn 0.58501 0.73735 0.33775
vn -0.65481 0.65444 0.37806
vn -0.58501 0.73735 0.33775
vn 0.88914 -0.45763 0
vn 0.80367 0.37258 0.464
vn 0.803 0.37452 0.46361
vn -0.80631 0.36491 -0.46552
vn -0.80561 0.36695 -0.46512
vn 0 0.73735 -0.67551
vn 0 0.65444 -0.75611
vn -0.85354 0.16922 0.49279
vn -0.80367 0.37258 0.464
vn -0.803 0.37452 0.46361
vn 0 0.37733 0.92608
vn -0.88914 -0.45763 0
vn -0.85612 0.15079 -0.49428
vn 0 0.17837 0.98396
vn 0.44457 -0.45763 -0.77002
vn 0.85354 0.16922 0.49279
vn 0.43022 -0.50956 -0.74516
vn 0.43022 -0.50956 0.74516
vn -0.43022 -0.50956 -0.74516
vn -0.86043 -0.50956 0
vn -0.43022 -0.50956 0.74516
vn 0.86043 -0.50956 0
vn 0.57101 0.75184 0.32967
vn 0.52322 0.79686 0.30208
vn -0.41088 -0.56985 -0.71166
vn 0.57101 0.75184 -0.32967
vn 0.74179 0.51608 -0.42827
vn 0.52322 0.79686 -0.30208
vn 0 0.75184 -0.65934
vn 0 0.79686 -0.60416
vn 0 0.51608 -0.85654
vn -0.74179 0.51608 -0.42827
vn -0.83377 0.27038 -0.48138
vn 0 0.75184 0.65934
vn 0 0.79686 0.60416
vn 0.82175 -0.56985 0
vn -0.82175 -0.56985 0
vn -0.83377 0.27038 0.48138
vn -0.74179 0.51608 0.42827
vn -0.57101 0.75184 -0.32967
vn -0.52322 0.79686 -0.30208
vn 0.41088 -0.56985 0.71166
vn 0 0.27038 -0.96275
vn 0.74179 0.51608 0.42827
vn 0.83377 0.27038 0.48138
vn -0.57101 0.75184 0.32967
vn -0.52322 0.79686 0.30208
vn 0 0.51608 0.85654
vn 0 0.27038 0.96275
vn 0.83377 0.27038 -0.48138
vn 0.41088 -0.56985 -0.71166
vn -0.41088 -0.56985 0.71166
vn 0.29072 -0.94197 0.16785
vn 0.45956 -0.84759 0.26533
vn 0.52106 -0.79875 0.30083
vn -0.45956 -0.84759 -0.26533
vn -0.29072 -0.94197 -0.16785
vn -0.52106 -0.79875 -0.30083
vn 0.45956 -0.84759 -0.26533
vn 0.29072 -0.94197 -0.16785
vn 0.52106 -0.79875 -0.30083
vn 0 -0.94197 0.33569
vn 0 -0.84759 0.53066
vn 0 -0.79875 0.60167
vn -0.29072 -0.94197 0.16785
vn -0.45956 -0.84759 0.26533
vn -0.52106 -0.79875 0.30083
vn 0 -0.84759 -0.53066
vn 0 -0.94197 -0.33569
vn 0 -0.79875 -0.60167
vn 0.3873 -0.89443 0.22361
vn 0.58501 -0.73735 0.33775
vn 0.65481 -0.65444 0.37806
vn 0 -0.73735 -0.67551
vn 0 -0.89443 -0.44721
vn 0 -0.65444 -0.75611
vn -0.3873 -0.89443 0.22361
vn -0.56547 -0.7574 0.32648
vn -0.6326 -0.66791 0.39206
vn -0.62877 -0.68765 0.36302
vn -0.58501 -0.73735 -0.33775
vn -0.3873 -0.89443 -0.22361
vn -0.65481 -0.65444 -0.37806
vn 0.58501 -0.73735 -0.33775
vn 0.3873 -0.89443 -0.22361
vn 0.65481 -0.65444 -0.37806
vn 0 -0.89443 0.44721
vn 0 -0.73735 0.67551
vn -0.019477 -0.67498 0.73758
vn 0 -0.65444 0.75611
vn -0.52322 -0.79686 -0.30208
vn -0.57101 -0.75184 -0.32967
vn 0 -0.79686 -0.60416
vn 0 -0.75184 -0.65934
vn 0 -0.79686 0.60416
vn 0 -0.75184 0.65934
vn 0.52322 -0.79686 0.30208
vn 0.57101 -0.75184 0.32967
vn 0.52322 -0.79686 -0.30208
vn 0.57101 -0.75184 -0.32967
vn -0.52322 -0.79686 0.30208
vn -0.57101 -0.75184 0.32967
vn 0.99418 0.1077 0
vn 0.49709 0.1077 0.86099
vn 0.49709 0.1077 -0.86099
vn -0.99418 0.1077 0
vn -0.49709 0.1077 0.86099
vn -0.49709 0.1077 -0.86099
vn 0.49997 -0.011123 -0.86597
vn 0.99994 -0.011123 0
vn 0.45475 0.41568 -0.78766
vn 0.90951 0.41568 0
vn 0.45475 0.41568 0.78766
vn 0.49997 -0.011123 0.86597
vn -0.49997 -0.011123 -0.86597
vn -0.45475 0.41568 -0.78766
vn -0.99994 -0.011123 0
vn -0.90951 0.41568 0
vn -0.49997 -0.011123 0.86597
vn -0.45475 0.41568 0.78766
vn 0.4494 -0.43837 0.77838
vn -0.4494 -0.43837 0.77838
vn -0.89879 -0.43837 0
vn -0.4494 -0.43837 -0.77838
vn 0.4494 -0.43837 -0.77838
vn 0.89879 -0.43837 0
vt 0.71875 0.4134
vt 0.71875 0.40833
vt 0.71875 0.43235
vt 0.71875 0.475
vt 0.71875 0.395
vt 0.71875 0.40973
vt 0.71875 0.41641
vt 0.71875 0.43885
vt 0.71875 0.32272
vt 0.71875 0.29537
vt 0.71875 0.32482
vt 0.71875 0.28858
vt 0.71875 0.355
vt 0.71875 0.275
vt 0.71875 0.28761
vt 0.71875 0.29752
vt 0.71875 0.32188
vt 0.46875 0.15973
vt 0.46875 0.16641
vt 0.46875 0.03858
vt 0.46875 0.045369
vt 0.46875 0.047518
vt 0.46875 0.037609
vt 0.21875 0.275
vt 0.21875 0.37244
vt 0.21875 0.475
usemtl colormap
f 3/2/2 2/2/2 1/1/1
f 5/1/4 4/2/3 3/2/3
f 7/1/6 2/2/5 6/2/5
f 9/1/8 8/2/7 4/2/7
f 8/2/9 11/1/10 10/2/9
f 12/1/12 6/2/11 10/2/11
f 14/1/15 13/3/14 11/1/13
f 13/3/14 14/1/15 15/3/14
f 15/3/14 14/1/15 9/1/13
f 6/2/18 16/1/17 7/1/16
f 16/1/17 6/2/18 12/1/16
f 15/3/14 17/4/19 13/3/14
f 17/4/19 15/3/14 18/4/20
f 21/4/22 20/3/21 19/3/21
f 20/3/21 21/4/22 22/4/23
f 22/4/23 23/3/24 20/3/24
f 23/3/24 22/4/23 24/4/25
f 19/3/21 16/1/17 12/1/16
f 16/1/17 19/3/21 7/1/16
f 7/1/16 19/3/21 20/3/21
f 25/1/28 3/2/27 1/1/26
f 3/2/27 25/1/28 5/1/26
f 26/1/31 15/3/30 9/1/29
f 15/3/30 26/1/31 5/1/29
f 15/3/30 5/1/29 27/3/30
f 29/5/32 4/2/3 28/5/32
f 4/2/3 29/5/32 3/2/3
f 4/2/7 30/5/33 28/5/33
f 30/5/33 4/2/7 8/2/7
f 6/2/5 32/5/34 31/5/34
f 32/5/34 6/2/5 2/2/5
f 3/2/2 32/5/35 2/2/2
f 32/5/35 3/2/2 29/5/35
f 27/3/36 1/1/26 23/3/36
f 1/1/26 27/3/36 25/1/28
f 25/1/28 27/3/36 5/1/26
f 22/4/23 33/4/37 24/4/25
f 33/4/37 22/4/23 21/4/22
f 33/4/37 21/4/22 18/4/20
f 18/4/20 21/4/22 17/4/19
f 33/4/37 15/3/30 27/3/30
f 15/3/30 33/4/37 18/4/20
f 34/5/38 8/2/9 10/2/9
f 8/2/9 34/5/38 30/5/38
f 2/2/41 35/1/40 1/1/39
f 35/1/40 2/2/41 7/1/39
f 10/2/44 36/1/43 12/1/42
f 36/1/43 10/2/44 11/1/42
f 28/5/45 32/5/45 29/5/45
f 32/5/45 28/5/45 31/5/45
f 31/5/45 28/5/45 30/5/45
f 31/5/45 30/5/45 34/5/45
f 10/2/11 31/5/46 34/5/46
f 31/5/46 10/2/11 6/2/11
f 26/1/31 4/2/47 5/1/29
f 4/2/47 26/1/31 9/1/29
f 20/3/24 35/1/40 7/1/39
f 35/1/40 20/3/24 23/3/24
f 35/1/40 23/3/24 1/1/39
f 14/1/15 8/2/48 9/1/13
f 8/2/48 14/1/15 11/1/13
f 24/4/25 27/3/36 23/3/36
f 27/3/36 24/4/25 33/4/37
f 13/3/49 21/4/22 19/3/49
f 21/4/22 13/3/49 17/4/19
f 36/1/43 19/3/49 12/1/42
f 19/3/49 36/1/43 13/3/49
f 13/3/49 36/1/43 11/1/42
f 39/7/51 38/6/50 37/6/50
f 41/7/53 37/6/52 40/6/52
f 44/7/55 43/6/54 42/6/54
f 46/7/57 45/6/56 43/6/56
f 42/6/59 38/6/59 47/7/58
f 45/6/60 48/7/61 40/6/60
f 50/7/64 49/8/63 39/7/62
f 49/8/63 50/7/64 51/8/63
f 51/8/63 50/7/64 41/7/62
f 53/8/65 46/7/66 52/8/65
f 46/7/66 53/8/65 54/7/67
f 54/7/67 53/8/65 48/7/66
f 53/8/68 55/4/69 51/8/68
f 55/4/69 53/8/68 56/4/69
f 58/8/72 57/7/71 44/7/70
f 57/7/71 58/8/72 52/8/72
f 57/7/71 52/8/72 46/7/70
f 40/6/75 59/7/74 41/7/73
f 59/7/74 40/6/75 48/7/73
f 61/7/78 60/8/77 47/7/76
f 60/8/77 61/7/78 39/7/76
f 60/8/77 39/7/76 49/8/77
f 40/6/52 63/5/79 62/5/79
f 63/5/79 40/6/52 37/6/52
f 64/7/82 42/6/81 47/7/80
f 42/6/81 64/7/82 44/7/80
f 54/7/67 45/6/83 46/7/66
f 45/6/83 54/7/67 48/7/66
f 63/5/84 38/6/50 65/5/84
f 38/6/50 63/5/84 37/6/50
f 53/8/65 66/4/85 56/4/85
f 66/4/85 53/8/65 52/8/65
f 42/6/54 68/5/86 67/5/86
f 68/5/86 42/6/54 43/6/54
f 37/6/87 50/7/64 39/7/62
f 50/7/64 37/6/87 41/7/62
f 41/7/73 53/8/68 51/8/68
f 53/8/68 41/7/73 59/7/74
f 53/8/68 59/7/74 48/7/73
f 42/6/59 65/5/88 38/6/59
f 65/5/88 42/6/59 67/5/88
f 68/5/45 65/5/45 67/5/45
f 65/5/45 68/5/45 63/5/45
f 63/5/45 68/5/45 69/5/45
f 63/5/45 69/5/45 62/5/45
f 70/4/89 52/8/72 58/8/72
f 52/8/72 70/4/89 66/4/89
f 70/4/90 60/8/91 71/4/90
f 60/8/91 70/4/90 58/8/91
f 38/6/92 61/7/78 47/7/76
f 61/7/78 38/6/92 39/7/76
f 55/4/93 49/8/63 51/8/63
f 49/8/63 55/4/93 72/4/93
f 72/4/94 60/8/77 49/8/77
f 60/8/77 72/4/94 71/4/94
f 57/7/71 43/6/95 44/7/70
f 43/6/95 57/7/71 46/7/70
f 60/8/91 64/7/82 47/7/80
f 64/7/82 60/8/91 44/7/80
f 44/7/80 60/8/91 58/8/91
f 43/6/56 69/5/96 68/5/96
f 69/5/96 43/6/56 45/6/56
f 62/5/97 45/6/60 40/6/60
f 45/6/60 62/5/97 69/5/97
f 75/11/100 74/10/99 73/9/98
f 78/12/101 77/12/101 76/10/1
f 81/10/12 80/12/102 79/12/102
f 74/10/6 77/12/103 80/12/103
f 83/10/4 82/12/104 78/12/104
f 85/10/8 84/12/105 82/12/105
f 84/12/106 86/10/10 79/12/106
f 87/9/109 76/10/108 75/11/107
f 87/9/109 75/11/107 88/13/110
f 87/9/109 88/13/110 89/13/111
f 90/13/113 88/13/112 75/11/100
f 90/13/113 75/11/100 73/9/98
f 78/12/104 92/14/114 91/14/114
f 92/14/114 78/12/104 82/12/104
f 79/12/44 93/10/116 81/10/115
f 93/10/116 79/12/44 86/10/115
f 94/10/118 82/12/47 83/10/117
f 82/12/47 94/10/118 85/10/117
f 82/12/105 95/14/119 92/14/119
f 95/14/119 82/12/105 84/12/105
f 77/12/41 96/10/120 76/10/108
f 96/10/120 77/12/41 74/10/121
f 92/14/45 97/14/45 91/14/45
f 97/14/45 92/14/45 98/14/45
f 98/14/45 92/14/45 99/14/45
f 99/14/45 92/14/45 95/14/45
f 99/14/122 80/12/102 98/14/122
f 80/12/102 99/14/122 79/12/102
f 100/10/124 78/12/27 76/10/123
f 78/12/27 100/10/124 83/10/123
f 101/10/126 84/12/48 85/10/125
f 84/12/48 101/10/126 86/10/125
f 78/12/101 97/14/127 77/12/101
f 97/14/127 78/12/101 91/14/127
f 87/9/128 100/10/124 76/10/123
f 100/10/124 87/9/128 102/9/129
f 100/10/124 102/9/129 83/10/123
f 93/10/116 73/9/130 81/10/115
f 73/9/130 93/10/116 103/9/131
f 103/9/131 93/10/116 86/10/115
f 80/12/18 104/10/132 74/10/99
f 104/10/132 80/12/18 81/10/133
f 81/10/133 74/10/99 104/10/132
f 74/10/99 81/10/133 73/9/98
f 103/9/135 106/13/134 105/13/134
f 106/13/134 103/9/135 107/9/136
f 83/10/117 85/10/117 94/10/118
f 85/10/117 83/10/117 102/9/137
f 85/10/117 102/9/137 107/9/137
f 101/10/126 103/9/135 86/10/125
f 103/9/135 101/10/126 107/9/136
f 107/9/136 101/10/126 85/10/125
f 99/14/138 84/12/106 79/12/106
f 84/12/106 99/14/138 95/14/138
f 103/9/131 90/13/139 73/9/130
f 90/13/139 103/9/131 105/13/139
f 102/9/137 106/13/140 107/9/137
f 106/13/140 102/9/137 108/13/140
f 98/14/141 77/12/103 97/14/141
f 77/12/103 98/14/141 80/12/103
f 108/13/142 87/9/128 89/13/142
f 87/9/128 108/13/142 102/9/129
f 75/11/107 96/10/120 74/10/121
f 96/10/120 75/11/107 76/10/108
f 111/16/6 110/15/143 109/15/143
f 114/16/4 113/15/144 112/15/144
f 116/16/12 109/15/145 115/15/145
f 118/15/146 117/16/10 115/15/146
f 119/16/8 118/15/147 113/15/147
f 112/15/148 110/15/148 120/16/1
f 121/16/150 112/15/27 120/16/149
f 112/15/27 121/16/150 114/16/149
f 115/15/145 123/14/151 122/14/151
f 123/14/151 115/15/145 109/15/145
f 125/16/154 124/17/153 120/16/152
f 124/17/153 125/16/154 111/16/152
f 124/17/153 111/16/152 126/17/153
f 128/17/157 127/16/156 116/16/155
f 127/16/156 128/17/157 126/17/157
f 126/17/157 111/16/155 127/16/156
f 130/17/158 129/13/159 128/17/158
f 129/13/159 130/17/158 131/13/159
f 132/16/161 113/15/47 114/16/160
f 113/15/47 132/16/161 119/16/160
f 112/15/148 133/14/162 110/15/148
f 133/14/162 112/15/148 134/14/162
f 122/14/163 118/15/146 115/15/146
f 118/15/146 122/14/163 135/14/163
f 109/15/18 127/16/156 111/16/155
f 127/16/156 109/15/18 116/16/155
f 130/17/165 136/13/164 131/13/164
f 136/13/164 130/17/165 137/17/165
f 115/15/44 138/16/167 116/16/166
f 138/16/167 115/15/44 117/16/166
f 134/14/168 113/15/144 139/14/168
f 113/15/144 134/14/168 112/15/144
f 128/17/157 140/13/169 126/17/157
f 140/13/169 128/17/157 129/13/169
f 142/13/171 141/17/170 124/17/170
f 141/17/170 142/13/171 143/13/171
f 130/17/165 119/16/172 137/17/165
f 119/16/172 130/17/165 144/16/173
f 144/16/173 130/17/165 117/16/172
f 143/13/175 137/17/174 141/17/174
f 137/17/174 143/13/175 136/13/175
f 116/16/166 130/17/158 128/17/158
f 130/17/158 116/16/166 138/16/167
f 130/17/158 138/16/167 117/16/166
f 144/16/173 118/15/48 119/16/172
f 118/15/48 144/16/173 117/16/172
f 140/13/176 124/17/153 126/17/153
f 124/17/153 140/13/176 142/13/176
f 110/15/41 125/16/154 120/16/152
f 125/16/154 110/15/41 111/16/152
f 141/17/174 132/16/161 114/16/160
f 137/17/174 132/16/161 141/17/174
f 132/16/161 137/17/174 119/16/160
f 123/14/177 110/15/143 133/14/177
f 110/15/143 123/14/177 109/15/143
f 124/17/170 121/16/150 120/16/149
f 121/16/150 124/17/170 114/16/149
f 114/16/149 124/17/170 141/17/170
f 139/14/45 133/14/45 134/14/45
f 133/14/45 139/14/45 123/14/45
f 123/14/45 139/14/45 122/14/45
f 122/14/45 139/14/45 135/14/45
f 113/15/147 135/14/178 139/14/178
f 135/14/178 113/15/147 118/15/147
f 41/19/181 59/19/180 40/18/179
f 48/19/181 40/18/179 59/19/180
f 47/19/184 42/18/183 64/19/182
f 44/19/184 64/19/182 42/18/183
f 46/19/187 45/18/186 54/19/185
f 48/19/187 54/19/185 45/18/186
f 39/19/190 50/19/189 37/18/188
f 41/19/190 37/18/188 50/19/189
f 47/19/193 61/19/192 38/18/191
f 39/19/193 38/18/191 61/19/192
f 44/19/196 43/18/195 57/19/194
f 46/19/196 57/19/194 43/18/195
f 81/21/199 93/21/198 79/20/197
f 86/21/199 79/20/197 93/21/198
f 83/21/202 82/20/201 94/21/200
f 85/21/202 94/21/200 82/20/201
f 76/21/205 96/21/204 77/20/203
f 74/21/206 77/20/203 96/21/204
f 76/21/209 78/20/208 100/21/207
f 83/21/209 100/21/207 78/20/208
f 85/21/212 84/20/211 101/21/210
f 86/21/212 101/21/210 84/20/211
f 74/21/215 104/21/214 80/20/213
f 81/21/216 80/20/213 104/21/214
f 120/22/218 112/23/208 121/22/217
f 114/22/218 121/22/217 112/23/208
f 114/22/220 113/23/201 132/22/219
f 119/22/220 132/22/219 113/23/201
f 111/22/222 127/22/221 109/23/213
f 116/22/222 109/23/213 127/22/221
f 116/22/224 138/22/223 115/23/197
f 117/22/224 115/23/197 138/22/223
f 119/22/226 118/23/211 144/22/225
f 117/22/226 144/22/225 118/23/211
f 120/22/228 125/22/227 110/23/203
f 111/22/228 110/23/203 125/22/227
f 147/24/230 146/25/229 145/24/229
f 146/25/229 147/24/230 148/25/230
f 150/24/231 146/25/229 149/25/231
f 146/25/229 150/24/231 145/24/229
f 153/25/232 152/24/233 151/24/232
f 152/24/233 153/25/232 154/25/233
f 147/24/230 154/25/233 148/25/230
f 154/25/233 147/24/230 152/24/233
f 153/25/232 156/24/234 155/25/234
f 156/24/234 153/25/232 151/24/232
f 156/24/234 149/25/231 155/25/234
f 149/25/231 156/24/234 150/24/231
f 149/25/237 158/26/236 157/26/235
f 158/26/236 149/25/237 146/25/238
f 148/25/239 158/26/236 146/25/238
f 158/26/236 148/25/239 159/26/240
f 155/25/242 157/26/235 160/26/241
f 157/26/235 155/25/242 149/25/237
f 161/26/243 155/25/242 160/26/241
f 155/25/242 161/26/243 153/25/244
f 148/25/239 162/26/245 159/26/240
f 162/26/245 148/25/239 154/25/246
f 161/26/243 154/25/246 153/25/244
f 154/25/246 161/26/243 162/26/245
f 165/26/45 164/26/45 163/26/45
f 164/26/45 165/26/45 166/26/45
f 166/26/45 165/26/45 167/26/45
f 166/26/45 167/26/45 168/26/45
f 159/26/240 167/26/248 165/26/247
f 167/26/248 159/26/240 162/26/245
f 168/26/249 162/26/245 161/26/243
f 162/26/245 168/26/249 167/26/248
f 166/26/250 161/26/243 160/26/241
f 161/26/243 166/26/250 168/26/249
f 160/26/241 164/26/251 166/26/250
f 164/26/251 160/26/241 157/26/235
f 158/26/236 164/26/251 157/26/235
f 164/26/251 158/26/236 163/26/252
f 159/26/240 163/26/252 158/26/236
f 163/26/252 159/26/240 165/26/247
g pine
usemtl colormap
f 3/2/2 2/2/2 1/1/1
f 5/1/4 4/2/3 3/2/3
f 7/1/6 2/2/5 6/2/5
f 9/1/8 8/2/7 4/2/7
f 8/2/9 11/1/10 10/2/9
f 12/1/12 6/2/11 10/2/11
f 14/1/15 13/3/14 11/1/13
f 13/3/14 14/1/15 15/3/14
f 15/3/14 14/1/15 9/1/13
f 6/2/18 16/1/17 7/1/16
f 16/1/17 6/2/18 12/1/16
f 15/3/14 17/4/19 13/3/14
f 17/4/19 15/3/14 18/4/20
f 21/4/22 20/3/21 19/3/21
f 20/3/21 21/4/22 22/4/23
f 22/4/23 23/3/24 20/3/24
f 23/3/24 22/4/23 24/4/25
f 19/3/21 16/1/17 12/1/16
f 16/1/17 19/3/21 7/1/16
f 7/1/16 19/3/21 20/3/21
f 25/1/28 3/2/27 1/1/26
f 3/2/27 25/1/28 5/1/26
f 26/1/31 15/3/30 9/1/29
f 15/3/30 26/1/31 5/1/29
f 15/3/30 5/1/29 27/3/30
f 29/5/32 4/2/3 28/5/32
f 4/2/3 29/5/32 3/2/3
f 4/2/7 30/5/33 28/5/33
f 30/5/33 4/2/7 8/2/7
f 6/2/5 32/5/34 31/5/34
f 32/5/34 6/2/5 2/2/5
f 3/2/2 32/5/35 2/2/2
f 32/5/35 3/2/2 29/5/35
f 27/3/36 1/1/26 23/3/36
f 1/1/26 27/3/36 25/1/28
f 25/1/28 27/3/36 5/1/26
f 22/4/23 33/4/37 24/4/25
f 33/4/37 22/4/23 21/4/22
f 33/4/37 21/4/22 18/4/20
f 18/4/20 21/4/22 17/4/19
f 33/4/37 15/3/30 27/3/30
f 15/3/30 33/4/37 18/4/20
f 34/5/38 8/2/9 10/2/9
f 8/2/9 34/5/38 30/5/38
f 2/2/41 35/1/40 1/1/39
f 35/1/40 2/2/41 7/1/39
f 10/2/44 36/1/43 12/1/42
f 36/1/43 10/2/44 11/1/42
f 28/5/45 32/5/45 29/5/45
f 32/5/45 28/5/45 31/5/45
f 31/5/45 28/5/45 30/5/45
f 31/5/45 30/5/45 34/5/45
f 10/2/11 31/5/46 34/5/46
f 31/5/46 10/2/11 6/2/11
f 26/1/31 4/2/47 5/1/29
f 4/2/47 26/1/31 9/1/29
f 20/3/24 35/1/40 7/1/39
f 35/1/40 20/3/24 23/3/24
f 35/1/40 23/3/24 1/1/39
f 14/1/15 8/2/48 9/1/13
f 8/2/48 14/1/15 11/1/13
f 24/4/25 27/3/36 23/3/36
f 27/3/36 24/4/25 33/4/37
f 13/3/49 21/4/22 19/3/49
f 21/4/22 13/3/49 17/4/19
f 36/1/43 19/3/49 12/1/42
f 19/3/49 36/1/43 13/3/49
f 13/3/49 36/1/43 11/1/42
f 39/7/51 38/6/50 37/6/50
f 41/7/53 37/6/52 40/6/52
f 44/7/55 43/6/54 42/6/54
f 46/7/57 45/6/56 43/6/56
f 42/6/59 38/6/59 47/7/58
f 45/6/60 48/7/61 40/6/60
f 50/7/64 49/8/63 39/7/62
f 49/8/63 50/7/64 51/8/63
f 51/8/63 50/7/64 41/7/62
f 53/8/65 46/7/66 52/8/65
f 46/7/66 53/8/65 54/7/67
f 54/7/67 53/8/65 48/7/66
f 53/8/68 55/4/69 51/8/68
f 55/4/69 53/8/68 56/4/69
f 58/8/72 57/7/71 44/7/70
f 57/7/71 58/8/72 52/8/72
f 57/7/71 52/8/72 46/7/70
f 40/6/75 59/7/74 41/7/73
f 59/7/74 40/6/75 48/7/73
f 61/7/78 60/8/77 47/7/76
f 60/8/77 61/7/78 39/7/76
f 60/8/77 39/7/76 49/8/77
f 40/6/52 63/5/79 62/5/79
f 63/5/79 40/6/52 37/6/52
f 64/7/82 42/6/81 47/7/80
f 42/6/81 64/7/82 44/7/80
f 54/7/67 45/6/83 46/7/66
f 45/6/83 54/7/67 48/7/66
f 63/5/84 38/6/50 65/5/84
f 38/6/50 63/5/84 37/6/50
f 53/8/65 66/4/85 56/4/85
f 66/4/85 53/8/65 52/8/65
f 42/6/54 68/5/86 67/5/86
f 68/5/86 42/6/54 43/6/54
f 37/6/87 50/7/64 39/7/62
f 50/7/64 37/6/87 41/7/62
f 41/7/73 53/8/68 51/8/68
f 53/8/68 41/7/73 59/7/74
f 53/8/68 59/7/74 48/7/73
f 42/6/59 65/5/88 38/6/59
f 65/5/88 42/6/59 67/5/88
f 68/5/45 65/5/45 67/5/45
f 65/5/45 68/5/45 63/5/45
f 63/5/45 68/5/45 69/5/45
f 63/5/45 69/5/45 62/5/45
f 70/4/89 52/8/72 58/8/72
f 52/8/72 70/4/89 66/4/89
f 70/4/90 60/8/91 71/4/90
f 60/8/91 70/4/90 58/8/91
f 38/6/92 61/7/78 47/7/76
f 61/7/78 38/6/92 39/7/76
f 55/4/93 49/8/63 51/8/63
f 49/8/63 55/4/93 72/4/93
f 72/4/94 60/8/77 49/8/77
f 60/8/77 72/4/94 71/4/94
f 57/7/71 43/6/95 44/7/70
f 43/6/95 57/7/71 46/7/70
f 60/8/91 64/7/82 47/7/80
f 64/7/82 60/8/91 44/7/80
f 44/7/80 60/8/91 58/8/91
f 43/6/56 69/5/96 68/5/96
f 69/5/96 43/6/56 45/6/56
f 62/5/97 45/6/60 40/6/60
f 45/6/60 62/5/97 69/5/97
f 75/11/100 74/10/99 73/9/98
f 78/12/101 77/12/101 76/10/1
f 81/10/12 80/12/102 79/12/102
f 74/10/6 77/12/103 80/12/103
f 83/10/4 82/12/104 78/12/104
f 85/10/8 84/12/105 82/12/105
f 84/12/106 86/10/10 79/12/106
f 87/9/109 76/10/108 75/11/107
f 87/9/109 75/11/107 88/13/110
f 87/9/109 88/13/110 89/13/111
f 90/13/113 88/13/112 75/11/100
f 90/13/113 75/11/100 73/9/98
f 78/12/104 92/14/114 91/14/114
f 92/14/114 78/12/104 82/12/104
f 79/12/44 93/10/116 81/10/115
f 93/10/116 79/12/44 86/10/115
f 94/10/118 82/12/47 83/10/117
f 82/12/47 94/10/118 85/10/117
f 82/12/105 95/14/119 92/14/119
f 95/14/119 82/12/105 84/12/105
f 77/12/41 96/10/120 76/10/108
f 96/10/120 77/12/41 74/10/121
f 92/14/45 97/14/45 91/14/45
f 97/14/45 92/14/45 98/14/45
f 98/14/45 92/14/45 99/14/45
f 99/14/45 92/14/45 95/14/45
f 99/14/122 80/12/102 98/14/122
f 80/12/102 99/14/122 79/12/102
f 100/10/124 78/12/27 76/10/123
f 78/12/27 100/10/124 83/10/123
f 101/10/126 84/12/48 85/10/125
f 84/12/48 101/10/126 86/10/125
f 78/12/101 97/14/127 77/12/101
f 97/14/127 78/12/101 91/14/127
f 87/9/128 100/10/124 76/10/123
f 100/10/124 87/9/128 102/9/129
f 100/10/124 102/9/129 83/10/123
f 93/10/116 73/9/130 81/10/115
f 73/9/130 93/10/116 103/9/131
f 103/9/131 93/10/116 86/10/115
f 80/12/18 104/10/132 74/10/99
f 104/10/132 80/12/18 81/10/133
f 81/10/133 74/10/99 104/10/132
f 74/10/99 81/10/133 73/9/98
f 103/9/135 106/13/134 105/13/134
f 106/13/134 103/9/135 107/9/136
f 83/10/117 85/10/117 94/10/118
f 85/10/117 83/10/117 102/9/137
f 85/10/117 102/9/137 107/9/137
f 101/10/126 103/9/135 86/10/125
f 103/9/135 101/10/126 107/9/136
f 107/9/136 101/10/126 85/10/125
f 99/14/138 84/12/106 79/12/106
f 84/12/106 99/14/138 95/14/138
f 103/9/131 90/13/139 73/9/130
f 90/13/139 103/9/131 105/13/139
f 102/9/137 106/13/140 107/9/137
f 106/13/140 102/9/137 108/13/140
f 98/14/141 77/12/103 97/14/141
f 77/12/103 98/14/141 80/12/103
f 108/13/142 87/9/128 89/13/142
f 87/9/128 108/13/142 102/9/129
f 75/11/107 96/10/120 74/10/121
f 96/10/120 75/11/107 76/10/108
f 111/16/6 110/15/143 109/15/143
f 114/16/4 113/15/144 112/15/144
f 116/16/12 109/15/145 115/15/145
f 118/15/146 117/16/10 115/15/146
f 119/16/8 118/15/147 113/15/147
f 112/15/148 110/15/148 120/16/1
f 121/16/150 112/15/27 120/16/149
f 112/15/27 121/16/150 114/16/149
f 115/15/145 123/14/151 122/14/151
f 123/14/151 115/15/145 109/15/145
f 125/16/154 124/17/153 120/16/152
f 124/17/153 125/16/154 111/16/152
f 124/17/153 111/16/152 126/17/153
f 128/17/157 127/16/156 116/16/155
f 127/16/156 128/17/157 126/17/157
f 126/17/157 111/16/155 127/16/156
f 130/17/158 129/13/159 128/17/158
f 129/13/159 130/17/158 131/13/159
f 132/16/161 113/15/47 114/16/160
f 113/15/47 132/16/161 119/16/160
f 112/15/148 133/14/162 110/15/148
f 133/14/162 112/15/148 134/14/162
f 122/14/163 118/15/146 115/15/146
f 118/15/146 122/14/163 135/14/163
f 109/15/18 127/16/156 111/16/155
f 127/16/156 109/15/18 116/16/155
f 130/17/165 136/13/164 131/13/164
f 136/13/164 130/17/165 137/17/165
f 115/15/44 138/16/167 116/16/166
f 138/16/167 115/15/44 117/16/166
f 134/14/168 113/15/144 139/14/168
f 113/15/144 134/14/168 112/15/144
f 128/17/157 140/13/169 126/17/157
f 140/13/169 128/17/157 129/13/169
f 142/13/171 141/17/170 124/17/170
f 141/17/170 142/13/171 143/13/171
f 130/17/165 119/16/172 137/17/165
f 119/16/172 130/17/165 144/16/173
f 144/16/173 130/17/165 117/16/172
f 143/13/175 137/17/174 141/17/174
f 137/17/174 143/13/175 136/13/175
f 116/16/166 130/17/158 128/17/158
f 130/17/158 116/16/166 138/16/167
f 130/17/158 138/16/167 117/16/166
f 144/16/173 118/15/48 119/16/172
f 118/15/48 144/16/173 117/16/172
f 140/13/176 124/17/153 126/17/153
f 124/17/153 140/13/176 142/13/176
f 110/15/41 125/16/154 120/16/152
f 125/16/154 110/15/41 111/16/152
f 141/17/174 132/16/161 114/16/160
f 137/17/174 132/16/161 141/17/174
f 132/16/161 137/17/174 119/16/160
f 123/14/177 110/15/143 133/14/177
f 110/15/143 123/14/177 109/15/143
f 124/17/170 121/16/150 120/16/149
f 121/16/150 124/17/170 114/16/149
f 114/16/149 124/17/170 141/17/170
f 139/14/45 133/14/45 134/14/45
f 133/14/45 139/14/45 123/14/45
f 123/14/45 139/14/45 122/14/45
f 122/14/45 139/14/45 135/14/45
f 113/15/147 135/14/178 139/14/178
f 135/14/178 113/15/147 118/15/147
f 41/19/181 59/19/180 40/18/179
f 48/19/181 40/18/179 59/19/180
f 47/19/184 42/18/183 64/19/182
f 44/19/184 64/19/182 42/18/183
f 46/19/187 45/18/186 54/19/185
f 48/19/187 54/19/185 45/18/186
f 39/19/190 50/19/189 37/18/188
f 41/19/190 37/18/188 50/19/189
f 47/19/193 61/19/192 38/18/191
f 39/19/193 38/18/191 61/19/192
f 44/19/196 43/18/195 57/19/194
f 46/19/196 57/19/194 43/18/195
f 81/21/199 93/21/198 79/20/197
f 86/21/199 79/20/197 93/21/198
f 83/21/202 82/20/201 94/21/200
f 85/21/202 94/21/200 82/20/201
f 76/21/205 96/21/204 77/20/203
f 74/21/206 77/20/203 96/21/204
f 76/21/209 78/20/208 100/21/207
f 83/21/209 100/21/207 78/20/208
f 85/21/212 84/20/211 101/21/210
f 86/21/212 101/21/210 84/20/211
f 74/21/215 104/21/214 80/20/213
f 81/21/216 80/20/213 104/21/214
f 120/22/218 112/23/208 121/22/217
f 114/22/218 121/22/217 112/23/208
f 114/22/220 113/23/201 132/22/219
f 119/22/220 132/22/219 113/23/201
f 111/22/222 127/22/221 109/23/213
f 116/22/222 109/23/213 127/22/221
f 116/22/224 138/22/223 115/23/197
f 117/22/224 115/23/197 138/22/223
f 119/22/226 118/23/211 144/22/225
f 117/22/226 144/22/225 118/23/211
f 120/22/228 125/22/227 110/23/203
f 111/22/228 110/23/203 125/22/227
f 147/24/230 146/25/229 145/24/229
f 146/25/229 147/24/230 148/25/230
f 150/24/231 146/25/229 149/25/231
f 146/25/229 150/24/231 145/24/229
f 153/25/232 152/24/233 151/24/232
f 152/24/233 153/25/232 154/25/233
f 147/24/230 154/25/233 148/25/230
f 154/25/233 147/24/230 152/24/233
f 153/25/232 156/24/234 155/25/234
f 156/24/234 153/25/232 151/24/232
f 156/24/234 149/25/231 155/25/234
f 149/25/231 156/24/234 150/24/231
f 149/25/237 158/26/236 157/26/235
f 158/26/236 149/25/237 146/25/238
f 148/25/239 158/26/236 146/25/238
f 158/26/236 148/25/239 159/26/240
f 155/25/242 157/26/235 160/26/241
f 157/26/235 155/25/242 149/25/237
f 161/26/243 155/25/242 160/26/241
f 155/25/242 161/26/243 153/25/244
f 148/25/239 162/26/245 159/26/240
f 162/26/245 148/25/239 154/25/246
f 161/26/243 154/25/246 153/25/244
f 154/25/246 161/26/243 162/26/245
f 165/26/45 164/26/45 163/26/45
f 164/26/45 165/26/45 166/26/45
f 166/26/45 165/26/45 167/26/45
f 166/26/45 167/26/45 168/26/45
f 159/26/240 167/26/248 165/26/247
f 167/26/248 159/26/240 162/26/245
f 168/26/249 162/26/245 161/26/243
f 162/26/245 168/26/249 167/26/248
f 166/26/250 161/26/243 160/26/241
f 161/26/243 166/26/250 168/26/249
f 160/26/241 164/26/251 166/26/250
f 164/26/251 160/26/241 157/26/235
f 158/26/236 164/26/251 157/26/235
f 164/26/251 158/26/236 163/26/252
f 159/26/240 163/26/252 158/26/236
f 163/26/252 159/26/240 165/26/247
