mtllib pumpkin.mtl
g pumpkin
v -0.0037235 0.11331 -0.079723
v 0.076 0.11331 -0.11275
v 0.0066753 0.18885 -0.069325
v 0.076 0.18885 -0.09804
v 0.14532 0.03777 -0.069325
v 0.076 0.03777 -0.09804
v 0.11759 0 -0.041595
v 0.076 0 -0.058824
v 0.034405 0 -0.041595
v 0.0066753 0.03777 -0.069325
v 0.13482 0 0
v 0.11759 0 0.041595
v 0.076 0 0.058824
v 0.034405 0 0.041595
v 0.017176 0 0
v 0.15572 0.11331 -0.079723
v 0.18875 0.11331 0
v 0.14532 0.18885 -0.069325
v 0.17404 0.18885 0
v 0.15572 0.11331 0.079723
v 0.076 0.11331 0.11275
v 0.14532 0.18885 0.069325
v 0.076 0.18885 0.09804
v 0.11759 0.22662 0.041595
v 0.076 0.22662 0.058824
v -0.036746 0.11331 0
v -0.02204 0.18885 0
v -0.0037235 0.11331 0.079723
v 0.0066753 0.18885 0.069325
v 0.13482 0.22662 0
v 0.14532 0.03777 0.069325
v 0.076 0.03777 0.09804
v 0.17404 0.03777 0
v 0.034405 0.22662 -0.041595
v 0.017176 0.22662 0
v 0.11759 0.22662 -0.041595
v 0.076 0.22662 -0.058824
v 0.034405 0.22662 0.041595
v -0.02204 0.03777 0
v 0.0066753 0.03777 0.069325
v -0.079723 0.11331 -0.15572
v 0 0.11331 -0.18875
v -0.069325 0.18885 -0.14532
v 0 0.18885 -0.17404
v 0.069325 0.03777 -0.14532
v 0 0.03777 -0.17404
v 0.041595 0 -0.11759
v 0 0 -0.13482
v -0.041595 0 -0.11759
v -0.069325 0.03777 -0.14532
v 0.058824 0 -0.076
v 0.041595 0 -0.034405
v 0 0 -0.017176
v -0.041595 0 -0.034405
v -0.058824 0 -0.076
v 0.079723 0.11331 -0.15572
v 0.11275 0.11331 -0.076
v 0.069325 0.18885 -0.14532
v 0.09804 0.18885 -0.076
v 0.079723 0.11331 0.0037235
v 0 0.11331 0.036746
v 0.069325 0.18885 -0.0066753
v 0 0.18885 0.02204
v 0.041595 0.22662 -0.034405
v 0 0.22662 -0.017176
v -0.11275 0.11331 -0.076
v -0.09804 0.18885 -0.076
v -0.079723 0.11331 0.0037235
v -0.069325 0.18885 -0.0066753
v 0.058824 0.22662 -0.076
v 0.069325 0.03777 -0.0066753
v 0 0.03777 0.02204
v 0.09804 0.03777 -0.076
v -0.041595 0.22662 -0.11759
v -0.058824 0.22662 -0.076
v 0.041595 0.22662 -0.11759
v 0 0.22662 -0.13482
v -0.041595 0.22662 -0.034405
v -0.09804 0.03777 -0.076
v -0.069325 0.03777 -0.0066753
v -0.079723 0.11331 -0.0037235
v 0 0.11331 -0.036746
v -0.069325 0.18885 0.0066753
v 0 0.18885 -0.02204
v 0.069325 0.03777 0.0066753
v 0 0.03777 -0.02204
v 0.041595 0 0.034405
v 0 0 0.017176
v -0.041595 0 0.034405
v -0.069325 0.03777 0.0066753
v 0.058824 0 0.076
v 0.041595 0 0.11759
v 0 0 0.13482
v -0.041595 0 0.11759
v -0.058824 0 0.076
v 0.079723 0.11331 -0.0037235
v 0.11275 0.11331 0.076
v 0.069325 0.18885 0.0066753
v 0.09804 0.18885 0.076
v 0.079723 0.11331 0.15572
v 0 0.11331 0.18875
v 0.069325 0.18885 0.14532
v 0 0.18885 0.17404
v 0.041595 0.22662 0.11759
v 0 0.22662 0.13482
v -0.11275 0.11331 0.076
v -0.09804 0.18885 0.076
v -0.079723 0.11331 0.15572
v -0.069325 0.18885 0.14532
v 0.058824 0.22662 0.076
v 0.069325 0.03777 0.14532
v 0 0.03777 0.17404
v 0.09804 0.03777 0.076
v -0.041595 0.22662 0.034405
v -0.058824 0.22662 0.076
v 0.041595 0.22662 0.034405
v 0 0.22662 0.017176
v -0.041595 0.22662 0.11759
v -0.09804 0.03777 0.076
v -0.069325 0.03777 0.14532
v -0.15572 0.11331 -0.079723
v -0.076 0.11331 -0.11275
v -0.14532 0.18885 -0.069325
v -0.076 0.18885 -0.09804
v -0.0066753 0.03777 -0.069325
v -0.076 0.03777 -0.09804
v -0.034405 0 -0.041595
v -0.076 0 -0.058824
v -0.11759 0 -0.041595
v -0.14532 0.03777 -0.069325
v -0.017176 0 0
v -0.034405 0 0.041595
v -0.076 0 0.058824
v -0.11759 0 0.041595
v -0.13482 0 0
v 0.0037235 0.11331 -0.079723
v 0.036746 0.11331 0
v -0.0066753 0.18885 -0.069325
v 0.02204 0.18885 0
v 0.0037235 0.11331 0.079723
v -0.076 0.11331 0.11275
v -0.0066753 0.18885 0.069325
v -0.076 0.18885 0.09804
v -0.034405 0.22662 0.041595
v -0.076 0.22662 0.058824
v -0.18875 0.11331 0
v -0.17404 0.18885 0
v -0.15572 0.11331 0.079723
v -0.14532 0.18885 0.069325
v -0.017176 0.22662 0
v -0.0066753 0.03777 0.069325
v -0.076 0.03777 0.09804
v 0.02204 0.03777 0
v -0.11759 0.22662 -0.041595
v -0.13482 0.22662 0
v -0.034405 0.22662 -0.041595
v -0.076 0.22662 -0.058824
v -0.11759 0.22662 0.041595
v -0.17404 0.03777 0
v -0.14532 0.03777 0.069325
v 0.020558 0.32115 7.2191e-16
v 0.0087269 0.31798 0.02957
v 0.0087269 0.31798 -0.02957
v -0.019835 0.31032 -0.041818
v -0.019835 0.31032 0.041818
v -0.048397 0.30267 -0.02957
v -0.048397 0.30267 0.02957
v -0.060228 0.2995 7.2191e-16
v -0.017302 0.23232 -0.017742
v -0.00016488 0.23691 -0.025091
v -0.00016488 0.23691 0.025091
v -0.017302 0.23232 0.017742
v -0.024401 0.23042 1.2706e-15
v 0.016972 0.24151 -0.017742
v 0.024071 0.24341 1.2706e-15
v 0.016972 0.24151 0.017742
v 0.05092 0.24562 -2.1946e-15
v 0.036006 0.24562 0.036006
v 0.036006 0.24562 -0.036006
v 4.0138e-15 0.24562 -0.05092
v 4.0138e-15 0.24562 0.05092
v -0.036006 0.24562 -0.036006
v -0.036006 0.24562 0.036006
v -0.05092 0.24562 -2.1946e-15
v 0.051053 0.20762 0.051053
v 1.7326e-16 0.20762 0.0722
v 0.051053 0.20762 -0.051053
v 0.0722 0.20762 0
v -0.051053 0.20762 -0.051053
v 1.7326e-16 0.20762 -0.0722
v -0.0722 0.20762 0
v -0.051053 0.20762 0.051053
vn -0.70711 0 -0.70711
vn 0 0 -1
vn -0.63169 0.44937 -0.63169
vn 0 0.44937 -0.89335
vn 0.63169 -0.44937 -0.63169
vn 0 -0.44937 -0.89335
vn 0.49052 -0.72026 -0.49052
vn 0 -0.72026 -0.6937
vn -0.49052 -0.72026 -0.49052
vn -0.63169 -0.44937 -0.63169
vn 0 -1 0
vn 0.70711 0 -0.70711
vn 1 0 0
vn 0.63169 0.44937 -0.63169
vn 0.89335 0.44937 0
vn 0.70711 0 0.70711
vn 0 0 1
vn 0.63169 0.44937 0.63169
vn 0 0.44937 0.89335
vn 0.31706 0.89383 0.31706
vn 0 0.89383 0.4484
vn -1 0 0
vn -0.89335 0.44937 0
vn -0.70711 0 0.70711
vn -0.63169 0.44937 0.63169
vn 0.4484 0.89383 0
vn 0.63169 -0.44937 0.63169
vn 0 -0.44937 0.89335
vn 0.49052 -0.72026 0.49052
vn 0 -0.72026 0.6937
vn 0.89335 -0.44937 0
vn -0.31706 0.89383 -0.31706
vn -0.4484 0.89383 0
vn 0.31706 0.89383 -0.31706
vn 0 0.89383 -0.4484
vn -0.31706 0.89383 0.31706
vn -0.6937 -0.72026 0
vn -0.89335 -0.44937 0
vn -0.63169 -0.44937 0.63169
vn -0.49052 -0.72026 0.49052
vn 0.6937 -0.72026 0
vn -0.25882 0.96593 0
vn -0.61141 -0.38636 -0.69058
vn 0.055633 -0.20762 -0.97663
vn 0.055633 -0.20762 0.97663
vn -0.61141 -0.38636 0.69058
vn -0.88771 -0.46039 0
vn 0.72268 -0.02889 -0.69058
vn 0.99898 0.045145 0
vn 0.72268 -0.02889 0.69058
vn 0.58782 0.80899 0
vn 0.41565 0.80899 0.41565
vn 0.41565 0.80899 -0.41565
vn 0 0.80899 -0.58782
vn 0 0.80899 0.58782
vn -0.41565 0.80899 -0.41565
vn -0.41565 0.80899 0.41565
vn -0.58782 0.80899 0
vn 0.61695 0.4886 0.61695
vn 0 0.4886 0.87251
vn 0.61695 0.4886 -0.61695
vn 0.87251 0.4886 0
vn -0.61695 0.4886 -0.61695
vn 0 0.4886 -0.87251
vn -0.87251 0.4886 0
vn -0.61695 0.4886 0.61695
vt 0.46875 0.125
vt 0.46875 0.19167
vt 0.46875 0.058333
vt 0.46875 0.025
vt 0.46875 0.225
vt 0.71875 0.475
vt 0.71875 0.275
vt 0.71875 0.425
vt 0.71875 0.325
usemtl colormap
f 3/2/3 2/1/2 1/1/1
f 2/1/2 3/2/3 4/2/4
f 7/4/7 6/3/6 5/3/5
f 6/3/6 7/4/7 8/4/8
f 9/4/9 6/3/6 8/4/8
f 6/3/6 9/4/9 10/3/10
f 12/4/11 7/4/11 11/4/11
f 7/4/11 12/4/11 13/4/11
f 7/4/11 13/4/11 8/4/11
f 8/4/11 13/4/11 14/4/11
f 8/4/11 14/4/11 9/4/11
f 9/4/11 14/4/11 15/4/11
f 18/2/14 17/1/13 16/1/12
f 17/1/13 18/2/14 19/2/15
f 22/2/18 21/1/17 20/1/16
f 21/1/17 22/2/18 23/2/19
f 24/5/20 23/2/19 22/2/18
f 23/2/19 24/5/20 25/5/21
f 28/1/24 27/2/23 26/1/22
f 27/2/23 28/1/24 29/2/25
f 30/5/26 22/2/18 19/2/15
f 22/2/18 30/5/26 24/5/20
f 20/1/16 32/3/28 31/3/27
f 32/3/28 20/1/16 21/1/17
f 32/3/28 12/4/29 31/3/27
f 12/4/29 32/3/28 13/4/30
f 1/1/1 6/3/6 10/3/10
f 6/3/6 1/1/1 2/1/2
f 26/1/22 3/2/3 1/1/1
f 3/2/3 26/1/22 27/2/23
f 23/2/19 28/1/24 21/1/17
f 28/1/24 23/2/19 29/2/25
f 20/1/16 33/3/31 17/1/13
f 33/3/31 20/1/16 31/3/27
f 3/2/3 35/5/33 34/5/32
f 35/5/33 3/2/3 27/2/23
f 4/2/4 36/5/34 18/2/14
f 36/5/34 4/2/4 37/5/35
f 38/5/36 23/2/19 25/5/21
f 23/2/19 38/5/36 29/2/25
f 15/4/37 10/3/10 9/4/9
f 10/3/10 15/4/37 39/3/38
f 40/3/39 13/4/30 32/3/28
f 13/4/30 40/3/39 14/4/40
f 40/3/39 15/4/37 14/4/40
f 15/4/37 40/3/39 39/3/38
f 40/3/39 26/1/22 39/3/38
f 26/1/22 40/3/39 28/1/24
f 4/2/4 16/1/12 2/1/2
f 16/1/12 4/2/4 18/2/14
f 22/2/18 17/1/13 19/2/15
f 17/1/13 22/2/18 20/1/16
f 35/5/33 29/2/25 38/5/36
f 29/2/25 35/5/33 27/2/23
f 31/3/27 11/4/41 33/3/31
f 11/4/41 31/3/27 12/4/29
f 3/2/3 37/5/35 4/2/4
f 37/5/35 3/2/3 34/5/32
f 21/1/17 40/3/39 32/3/28
f 40/3/39 21/1/17 28/1/24
f 2/1/2 5/3/5 6/3/6
f 5/3/5 2/1/2 16/1/12
f 11/4/41 5/3/5 33/3/31
f 5/3/5 11/4/41 7/4/7
f 17/1/13 5/3/5 16/1/12
f 5/3/5 17/1/13 33/3/31
f 10/3/10 26/1/22 1/1/1
f 26/1/22 10/3/10 39/3/38
f 18/2/14 30/5/26 19/2/15
f 30/5/26 18/2/14 36/5/34
f 36/5/34 24/5/20 30/5/26
f 24/5/20 36/5/34 37/5/35
f 24/5/20 37/5/35 25/5/21
f 25/5/21 37/5/35 34/5/32
f 25/5/21 34/5/32 38/5/36
f 38/5/36 34/5/32 35/5/33
f 43/2/3 42/1/2 41/1/1
f 42/1/2 43/2/3 44/2/4
f 47/4/7 46/3/6 45/3/5
f 46/3/6 47/4/7 48/4/8
f 49/4/9 46/3/6 48/4/8
f 46/3/6 49/4/9 50/3/10
f 52/4/11 47/4/11 51/4/11
f 47/4/11 52/4/11 53/4/11
f 47/4/11 53/4/11 48/4/11
f 48/4/11 53/4/11 54/4/11
f 48/4/11 54/4/11 49/4/11
f 49/4/11 54/4/11 55/4/11
f 58/2/14 57/1/13 56/1/12
f 57/1/13 58/2/14 59/2/15
f 62/2/18 61/1/17 60/1/16
f 61/1/17 62/2/18 63/2/19
f 64/5/20 63/2/19 62/2/18
f 63/2/19 64/5/20 65/5/21
f 68/1/24 67/2/23 66/1/22
f 67/2/23 68/1/24 69/2/25
f 70/5/26 62/2/18 59/2/15
f 62/2/18 70/5/26 64/5/20
f 60/1/16 72/3/28 71/3/27
f 72/3/28 60/1/16 61/1/17
f 72/3/28 52/4/29 71/3/27
f 52/4/29 72/3/28 53/4/30
f 41/1/1 46/3/6 50/3/10
f 46/3/6 41/1/1 42/1/2
f 66/1/22 43/2/3 41/1/1
f 43/2/3 66/1/22 67/2/23
f 63/2/19 68/1/24 61/1/17
f 68/1/24 63/2/19 69/2/25
f 60/1/16 73/3/31 57/1/13
f 73/3/31 60/1/16 71/3/27
f 43/2/3 75/5/33 74/5/32
f 75/5/33 43/2/3 67/2/23
f 44/2/4 76/5/34 58/2/14
f 76/5/34 44/2/4 77/5/35
f 78/5/36 63/2/19 65/5/21
f 63/2/19 78/5/36 69/2/25
f 55/4/37 50/3/10 49/4/9
f 50/3/10 55/4/37 79/3/38
f 80/3/39 53/4/30 72/3/28
f 53/4/30 80/3/39 54/4/40
f 80/3/39 55/4/37 54/4/40
f 55/4/37 80/3/39 79/3/38
f 80/3/39 66/1/22 79/3/38
f 66/1/22 80/3/39 68/1/24
f 44/2/4 56/1/12 42/1/2
f 56/1/12 44/2/4 58/2/14
f 62/2/18 57/1/13 59/2/15
f 57/1/13 62/2/18 60/1/16
f 75/5/33 69/2/25 78/5/36
f 69/2/25 75/5/33 67/2/23
f 71/3/27 51/4/41 73/3/31
f 51/4/41 71/3/27 52/4/29
f 43/2/3 77/5/35 44/2/4
f 77/5/35 43/2/3 74/5/32
f 61/1/17 80/3/39 72/3/28
f 80/3/39 61/1/17 68/1/24
f 42/1/2 45/3/5 46/3/6
f 45/3/5 42/1/2 56/1/12
f 51/4/41 45/3/5 73/3/31
f 45/3/5 51/4/41 47/4/7
f 57/1/13 45/3/5 56/1/12
f 45/3/5 57/1/13 73/3/31
f 50/3/10 66/1/22 41/1/1
f 66/1/22 50/3/10 79/3/38
f 58/2/14 70/5/26 59/2/15
f 70/5/26 58/2/14 76/5/34
f 76/5/34 64/5/20 70/5/26
f 64/5/20 76/5/34 77/5/35
f 64/5/20 77/5/35 65/5/21
f 65/5/21 77/5/35 74/5/32
f 65/5/21 74/5/32 78/5/36
f 78/5/36 74/5/32 75/5/33
f 83/2/3 82/1/2 81/1/1
f 82/1/2 83/2/3 84/2/4
f 87/4/7 86/3/6 85/3/5
f 86/3/6 87/4/7 88/4/8
f 89/4/9 86/3/6 88/4/8
f 86/3/6 89/4/9 90/3/10
f 92/4/11 87/4/11 91/4/11
f 87/4/11 92/4/11 93/4/11
f 87/4/11 93/4/11 88/4/11
f 88/4/11 93/4/11 94/4/11
f 88/4/11 94/4/11 89/4/11
f 89/4/11 94/4/11 95/4/11
f 98/2/14 97/1/13 96/1/12
f 97/1/13 98/2/14 99/2/15
f 102/2/18 101/1/17 100/1/16
f 101/1/17 102/2/18 103/2/19
f 104/5/20 103/2/19 102/2/18
f 103/2/19 104/5/20 105/5/21
f 108/1/24 107/2/23 106/1/22
f 107/2/23 108/1/24 109/2/25
f 110/5/26 102/2/18 99/2/15
f 102/2/18 110/5/26 104/5/20
f 100/1/16 112/3/28 111/3/27
f 112/3/28 100/1/16 101/1/17
f 112/3/28 92/4/29 111/3/27
f 92/4/29 112/3/28 93/4/30
f 81/1/1 86/3/6 90/3/10
f 86/3/6 81/1/1 82/1/2
f 106/1/22 83/2/3 81/1/1
f 83/2/3 106/1/22 107/2/23
f 103/2/19 108/1/24 101/1/17
f 108/1/24 103/2/19 109/2/25
f 100/1/16 113/3/31 97/1/13
f 113/3/31 100/1/16 111/3/27
f 83/2/3 115/5/33 114/5/32
f 115/5/33 83/2/3 107/2/23
f 84/2/4 116/5/34 98/2/14
f 116/5/34 84/2/4 117/5/35
f 118/5/36 103/2/19 105/5/21
f 103/2/19 118/5/36 109/2/25
f 95/4/37 90/3/10 89/4/9
f 90/3/10 95/4/37 119/3/38
f 120/3/39 93/4/30 112/3/28
f 93/4/30 120/3/39 94/4/40
f 120/3/39 95/4/37 94/4/40
f 95/4/37 120/3/39 119/3/38
f 120/3/39 106/1/22 119/3/38
f 106/1/22 120/3/39 108/1/24
f 84/2/4 96/1/12 82/1/2
f 96/1/12 84/2/4 98/2/14
f 102/2/18 97/1/13 99/2/15
f 97/1/13 102/2/18 100/1/16
f 115/5/33 109/2/25 118/5/36
f 109/2/25 115/5/33 107/2/23
f 111/3/27 91/4/41 113/3/31
f 91/4/41 111/3/27 92/4/29
f 83/2/3 117/5/35 84/2/4
f 117/5/35 83/2/3 114/5/32
f 101/1/17 120/3/39 112/3/28
f 120/3/39 101/1/17 108/1/24
f 82/1/2 85/3/5 86/3/6
f 85/3/5 82/1/2 96/1/12
f 91/4/41 85/3/5 113/3/31
f 85/3/5 91/4/41 87/4/7
f 97/1/13 85/3/5 96/1/12
f 85/3/5 97/1/13 113/3/31
f 90/3/10 106/1/22 81/1/1
f 106/1/22 90/3/10 119/3/38
f 98/2/14 110/5/26 99/2/15
f 110/5/26 98/2/14 116/5/34
f 116/5/34 104/5/20 110/5/26
f 104/5/20 116/5/34 117/5/35
f 104/5/20 117/5/35 105/5/21
f 105/5/21 117/5/35 114/5/32
f 105/5/21 114/5/32 118/5/36
f 118/5/36 114/5/32 115/5/33
f 123/2/3 122/1/2 121/1/1
f 122/1/2 123/2/3 124/2/4
f 127/4/7 126/3/6 125/3/5
f 126/3/6 127/4/7 128/4/8
f 129/4/9 126/3/6 128/4/8
f 126/3/6 129/4/9 130/3/10
f 132/4/11 127/4/11 131/4/11
f 127/4/11 132/4/11 133/4/11
f 127/4/11 133/4/11 128/4/11
f 128/4/11 133/4/11 134/4/11
f 128/4/11 134/4/11 129/4/11
f 129/4/11 134/4/11 135/4/11
f 138/2/14 137/1/13 136/1/12
f 137/1/13 138/2/14 139/2/15
f 142/2/18 141/1/17 140/1/16
f 141/1/17 142/2/18 143/2/19
f 144/5/20 143/2/19 142/2/18
f 143/2/19 144/5/20 145/5/21
f 148/1/24 147/2/23 146/1/22
f 147/2/23 148/1/24 149/2/25
f 150/5/26 142/2/18 139/2/15
f 142/2/18 150/5/26 144/5/20
f 140/1/16 152/3/28 151/3/27
f 152/3/28 140/1/16 141/1/17
f 152/3/28 132/4/29 151/3/27
f 132/4/29 152/3/28 133/4/30
f 121/1/1 126/3/6 130/3/10
f 126/3/6 121/1/1 122/1/2
f 146/1/22 123/2/3 121/1/1
f 123/2/3 146/1/22 147/2/23
f 143/2/19 148/1/24 141/1/17
f 148/1/24 143/2/19 149/2/25
f 140/1/16 153/3/31 137/1/13
f 153/3/31 140/1/16 151/3/27
f 123/2/3 155/5/33 154/5/32
f 155/5/33 123/2/3 147/2/23
f 124/2/4 156/5/34 138/2/14
f 156/5/34 124/2/4 157/5/35
f 158/5/36 143/2/19 145/5/21
f 143/2/19 158/5/36 149/2/25
f 135/4/37 130/3/10 129/4/9
f 130/3/10 135/4/37 159/3/38
f 160/3/39 133/4/30 152/3/28
f 133/4/30 160/3/39 134/4/40
f 160/3/39 135/4/37 134/4/40
f 135/4/37 160/3/39 159/3/38
f 160/3/39 146/1/22 159/3/38
f 146/1/22 160/3/39 148/1/24
f 124/2/4 136/1/12 122/1/2
f 136/1/12 124/2/4 138/2/14
f 142/2/18 137/1/13 139/2/15
f 137/1/13 142/2/18 140/1/16
f 155/5/33 149/2/25 158/5/36
f 149/2/25 155/5/33 147/2/23
f 151/3/27 131/4/41 153/3/31
f 131/4/41 151/3/27 132/4/29
f 123/2/3 157/5/35 124/2/4
f 157/5/35 123/2/3 154/5/32
f 141/1/17 160/3/39 152/3/28
f 160/3/39 141/1/17 148/1/24
f 122/1/2 125/3/5 126/3/6
f 125/3/5 122/1/2 136/1/12
f 131/4/41 125/3/5 153/3/31
f 125/3/5 131/4/41 127/4/7
f 137/1/13 125/3/5 136/1/12
f 125/3/5 137/1/13 153/3/31
f 130/3/10 146/1/22 121/1/1
f 146/1/22 130/3/10 159/3/38
f 138/2/14 150/5/26 139/2/15
f 150/5/26 138/2/14 156/5/34
f 156/5/34 144/5/20 150/5/26
f 144/5/20 156/5/34 157/5/35
f 144/5/20 157/5/35 145/5/21
f 145/5/21 157/5/35 154/5/32
f 145/5/21 154/5/32 158/5/36
f 158/5/36 154/5/32 155/5/33
f 163/6/42 162/6/42 161/6/42
f 162/6/42 163/6/42 164/6/42
f 162/6/42 164/6/42 165/6/42
f 165/6/42 164/6/42 166/6/42
f 165/6/42 166/6/42 167/6/42
f 167/6/42 166/6/42 168/6/42
f 166/6/43 170/7/44 169/7/43
f 170/7/44 166/6/43 164/6/44
f 165/6/45 172/7/46 171/7/45
f 172/7/46 165/6/45 167/6/46
f 169/7/43 168/6/47 166/6/43
f 168/6/47 169/7/43 173/7/47
f 161/6/49 174/7/48 163/6/48
f 174/7/48 161/6/49 175/7/49
f 162/6/50 175/7/49 161/6/49
f 175/7/49 162/6/50 176/7/50
f 173/7/47 167/6/46 168/6/47
f 167/6/46 173/7/47 172/7/46
f 162/6/50 171/7/45 176/7/50
f 171/7/45 162/6/50 165/6/45
f 164/6/44 174/7/48 170/7/44
f 174/7/48 164/6/44 163/6/48
f 179/8/53 178/8/52 177/8/51
f 178/8/52 179/8/53 180/8/54
f 178/8/52 180/8/54 181/8/55
f 181/8/55 180/8/54 182/8/56
f 181/8/55 182/8/56 183/8/57
f 183/8/57 182/8/56 184/8/58
f 178/8/52 186/9/60 185/9/59
f 186/9/60 178/8/52 181/8/55
f 179/8/53 188/9/62 187/9/61
f 188/9/62 179/8/53 177/8/51
f 182/8/56 190/9/64 189/9/63
f 190/9/64 182/8/56 180/8/54
f 191/9/65 182/8/56 189/9/63
f 182/8/56 191/9/65 184/8/58
f 191/9/65 183/8/57 184/8/58
f 183/8/57 191/9/65 192/9/66
f 180/8/54 187/9/61 190/9/64
f 187/9/61 180/8/54 179/8/53
f 178/8/52 188/9/62 177/8/51
f 188/9/62 178/8/52 185/9/59
f 181/8/55 192/9/66 186/9/60
f 192/9/66 181/8/55 183/8/57
g pumpkin
usemtl colormap
f 3/2/3 2/1/2 1/1/1
f 2/1/2 3/2/3 4/2/4
f 7/4/7 6/3/6 5/3/5
f 6/3/6 7/4/7 8/4/8
f 9/4/9 6/3/6 8/4/8
f 6/3/6 9/4/9 10/3/10
f 12/4/11 7/4/11 11/4/11
f 7/4/11 12/4/11 13/4/11
f 7/4/11 13/4/11 8/4/11
f 8/4/11 13/4/11 14/4/11
f 8/4/11 14/4/11 9/4/11
f 9/4/11 14/4/11 15/4/11
f 18/2/14 17/1/13 16/1/12
f 17/1/13 18/2/14 19/2/15
f 22/2/18 21/1/17 20/1/16
f 21/1/17 22/2/18 23/2/19
f 24/5/20 23/2/19 22/2/18
f 23/2/19 24/5/20 25/5/21
f 28/1/24 27/2/23 26/1/22
f 27/2/23 28/1/24 29/2/25
f 30/5/26 22/2/18 19/2/15
f 22/2/18 30/5/26 24/5/20
f 20/1/16 32/3/28 31/3/27
f 32/3/28 20/1/16 21/1/17
f 32/3/28 12/4/29 31/3/27
f 12/4/29 32/3/28 13/4/30
f 1/1/1 6/3/6 10/3/10
f 6/3/6 1/1/1 2/1/2
f 26/1/22 3/2/3 1/1/1
f 3/2/3 26/1/22 27/2/23
f 23/2/19 28/1/24 21/1/17
f 28/1/24 23/2/19 29/2/25
f 20/1/16 33/3/31 17/1/13
f 33/3/31 20/1/16 31/3/27
f 3/2/3 35/5/33 34/5/32
f 35/5/33 3/2/3 27/2/23
f 4/2/4 36/5/34 18/2/14
f 36/5/34 4/2/4 37/5/35
f 38/5/36 23/2/19 25/5/21
f 23/2/19 38/5/36 29/2/25
f 15/4/37 10/3/10 9/4/9
f 10/3/10 15/4/37 39/3/38
f 40/3/39 13/4/30 32/3/28
f 13/4/30 40/3/39 14/4/40
f 40/3/39 15/4/37 14/4/40
f 15/4/37 40/3/39 39/3/38
f 40/3/39 26/1/22 39/3/38
f 26/1/22 40/3/39 28/1/24
f 4/2/4 16/1/12 2/1/2
f 16/1/12 4/2/4 18/2/14
f 22/2/18 17/1/13 19/2/15
f 17/1/13 22/2/18 20/1/16
f 35/5/33 29/2/25 38/5/36
f 29/2/25 35/5/33 27/2/23
f 31/3/27 11/4/41 33/3/31
f 11/4/41 31/3/27 12/4/29
f 3/2/3 37/5/35 4/2/4
f 37/5/35 3/2/3 34/5/32
f 21/1/17 40/3/39 32/3/28
f 40/3/39 21/1/17 28/1/24
f 2/1/2 5/3/5 6/3/6
f 5/3/5 2/1/2 16/1/12
f 11/4/41 5/3/5 33/3/31
f 5/3/5 11/4/41 7/4/7
f 17/1/13 5/3/5 16/1/12
f 5/3/5 17/1/13 33/3/31
f 10/3/10 26/1/22 1/1/1
f 26/1/22 10/3/10 39/3/38
f 18/2/14 30/5/26 19/2/15
f 30/5/26 18/2/14 36/5/34
f 36/5/34 24/5/20 30/5/26
f 24/5/20 36/5/34 37/5/35
f 24/5/20 37/5/35 25/5/21
f 25/5/21 37/5/35 34/5/32
f 25/5/21 34/5/32 38/5/36
f 38/5/36 34/5/32 35/5/33
f 43/2/3 42/1/2 41/1/1
f 42/1/2 43/2/3 44/2/4
f 47/4/7 46/3/6 45/3/5
f 46/3/6 47/4/7 48/4/8
f 49/4/9 46/3/6 48/4/8
f 46/3/6 49/4/9 50/3/10
f 52/4/11 47/4/11 51/4/11
f 47/4/11 52/4/11 53/4/11
f 47/4/11 53/4/11 48/4/11
f 48/4/11 53/4/11 54/4/11
f 48/4/11 54/4/11 49/4/11
f 49/4/11 54/4/11 55/4/11
f 58/2/14 57/1/13 56/1/12
f 57/1/13 58/2/14 59/2/15
f 62/2/18 61/1/17 60/1/16
f 61/1/17 62/2/18 63/2/19
f 64/5/20 63/2/19 62/2/18
f 63/2/19 64/5/20 65/5/21
f 68/1/24 67/2/23 66/1/22
f 67/2/23 68/1/24 69/2/25
f 70/5/26 62/2/18 59/2/15
f 62/2/18 70/5/26 64/5/20
f 60/1/16 72/3/28 71/3/27
f 72/3/28 60/1/16 61/1/17
f 72/3/28 52/4/29 71/3/27
f 52/4/29 72/3/28 53/4/30
f 41/1/1 46/3/6 50/3/10
f 46/3/6 41/1/1 42/1/2
f 66/1/22 43/2/3 41/1/1
f 43/2/3 66/1/22 67/2/23
f 63/2/19 68/1/24 61/1/17
f 68/1/24 63/2/19 69/2/25
f 60/1/16 73/3/31 57/1/13
f 73/3/31 60/1/16 71/3/27
f 43/2/3 75/5/33 74/5/32
f 75/5/33 43/2/3 67/2/23
f 44/2/4 76/5/34 58/2/14
f 76/5/34 44/2/4 77/5/35
f 78/5/36 63/2/19 65/5/21
f 63/2/19 78/5/36 69/2/25
f 55/4/37 50/3/10 49/4/9
f 50/3/10 55/4/37 79/3/38
f 80/3/39 53/4/30 72/3/28
f 53/4/30 80/3/39 54/4/40
f 80/3/39 55/4/37 54/4/40
f 55/4/37 80/3/39 79/3/38
f 80/3/39 66/1/22 79/3/38
f 66/1/22 80/3/39 68/1/24
f 44/2/4 56/1/12 42/1/2
f 56/1/12 44/2/4 58/2/14
f 62/2/18 57/1/13 59/2/15
f 57/1/13 62/2/18 60/1/16
f 75/5/33 69/2/25 78/5/36
f 69/2/25 75/5/33 67/2/23
f 71/3/27 51/4/41 73/3/31
f 51/4/41 71/3/27 52/4/29
f 43/2/3 77/5/35 44/2/4
f 77/5/35 43/2/3 74/5/32
f 61/1/17 80/3/39 72/3/28
f 80/3/39 61/1/17 68/1/24
f 42/1/2 45/3/5 46/3/6
f 45/3/5 42/1/2 56/1/12
f 51/4/41 45/3/5 73/3/31
f 45/3/5 51/4/41 47/4/7
f 57/1/13 45/3/5 56/1/12
f 45/3/5 57/1/13 73/3/31
f 50/3/10 66/1/22 41/1/1
f 66/1/22 50/3/10 79/3/38
f 58/2/14 70/5/26 59/2/15
f 70/5/26 58/2/14 76/5/34
f 76/5/34 64/5/20 70/5/26
f 64/5/20 76/5/34 77/5/35
f 64/5/20 77/5/35 65/5/21
f 65/5/21 77/5/35 74/5/32
f 65/5/21 74/5/32 78/5/36
f 78/5/36 74/5/32 75/5/33
f 83/2/3 82/1/2 81/1/1
f 82/1/2 83/2/3 84/2/4
f 87/4/7 86/3/6 85/3/5
f 86/3/6 87/4/7 88/4/8
f 89/4/9 86/3/6 88/4/8
f 86/3/6 89/4/9 90/3/10
f 92/4/11 87/4/11 91/4/11
f 87/4/11 92/4/11 93/4/11
f 87/4/11 93/4/11 88/4/11
f 88/4/11 93/4/11 94/4/11
f 88/4/11 94/4/11 89/4/11
f 89/4/11 94/4/11 95/4/11
f 98/2/14 97/1/13 96/1/12
f 97/1/13 98/2/14 99/2/15
f 102/2/18 101/1/17 100/1/16
f 101/1/17 102/2/18 103/2/19
f 104/5/20 103/2/19 102/2/18
f 103/2/19 104/5/20 105/5/21
f 108/1/24 107/2/23 106/1/22
f 107/2/23 108/1/24 109/2/25
f 110/5/26 102/2/18 99/2/15
f 102/2/18 110/5/26 104/5/20
f 100/1/16 112/3/28 111/3/27
f 112/3/28 100/1/16 101/1/17
f 112/3/28 92/4/29 111/3/27
f 92/4/29 112/3/28 93/4/30
f 81/1/1 86/3/6 90/3/10
f 86/3/6 81/1/1 82/1/2
f 106/1/22 83/2/3 81/1/1
f 83/2/3 106/1/22 107/2/23
f 103/2/19 108/1/24 101/1/17
f 108/1/24 103/2/19 109/2/25
f 100/1/16 113/3/31 97/1/13
f 113/3/31 100/1/16 111/3/27
f 83/2/3 115/5/33 114/5/32
f 115/5/33 83/2/3 107/2/23
f 84/2/4 116/5/34 98/2/14
f 116/5/34 84/2/4 117/5/35
f 118/5/36 103/2/19 105/5/21
f 103/2/19 118/5/36 109/2/25
f 95/4/37 90/3/10 89/4/9
f 90/3/10 95/4/37 119/3/38
f 120/3/39 93/4/30 112/3/28
f 93/4/30 120/3/39 94/4/40
f 120/3/39 95/4/37 94/4/40
f 95/4/37 120/3/39 119/3/38
f 120/3/39 106/1/22 119/3/38
f 106/1/22 120/3/39 108/1/24
f 84/2/4 96/1/12 82/1/2
f 96/1/12 84/2/4 98/2/14
f 102/2/18 97/1/13 99/2/15
f 97/1/13 102/2/18 100/1/16
f 115/5/33 109/2/25 118/5/36
f 109/2/25 115/5/33 107/2/23
f 111/3/27 91/4/41 113/3/31
f 91/4/41 111/3/27 92/4/29
f 83/2/3 117/5/35 84/2/4
f 117/5/35 83/2/3 114/5/32
f 101/1/17 120/3/39 112/3/28
f 120/3/39 101/1/17 108/1/24
f 82/1/2 85/3/5 86/3/6
f 85/3/5 82/1/2 96/1/12
f 91/4/41 85/3/5 113/3/31
f 85/3/5 91/4/41 87/4/7
f 97/1/13 85/3/5 96/1/12
f 85/3/5 97/1/13 113/3/31
f 90/3/10 106/1/22 81/1/1
f 106/1/22 90/3/10 119/3/38
f 98/2/14 110/5/26 99/2/15
f 110/5/26 98/2/14 116/5/34
f 116/5/34 104/5/20 110/5/26
f 104/5/20 116/5/34 117/5/35
f 104/5/20 117/5/35 105/5/21
f 105/5/21 117/5/35 114/5/32
f 105/5/21 114/5/32 118/5/36
f 118/5/36 114/5/32 115/5/33
f 123/2/3 122/1/2 121/1/1
f 122/1/2 123/2/3 124/2/4
f 127/4/7 126/3/6 125/3/5
f 126/3/6 127/4/7 128/4/8
f 129/4/9 126/3/6 128/4/8
f 126/3/6 129/4/9 130/3/10
f 132/4/11 127/4/11 131/4/11
f 127/4/11 132/4/11 133/4/11
f 127/4/11 133/4/11 128/4/11
f 128/4/11 133/4/11 134/4/11
f 128/4/11 134/4/11 129/4/11
f 129/4/11 134/4/11 135/4/11
f 138/2/14 137/1/13 136/1/12
f 137/1/13 138/2/14 139/2/15
f 142/2/18 141/1/17 140/1/16
f 141/1/17 142/2/18 143/2/19
f 144/5/20 143/2/19 142/2/18
f 143/2/19 144/5/20 145/5/21
f 148/1/24 147/2/23 146/1/22
f 147/2/23 148/1/24 149/2/25
f 150/5/26 142/2/18 139/2/15
f 142/2/18 150/5/26 144/5/20
f 140/1/16 152/3/28 151/3/27
f 152/3/28 140/1/16 141/1/17
f 152/3/28 132/4/29 151/3/27
f 132/4/29 152/3/28 133/4/30
f 121/1/1 126/3/6 130/3/10
f 126/3/6 121/1/1 122/1/2
f 146/1/22 123/2/3 121/1/1
f 123/2/3 146/1/22 147/2/23
f 143/2/19 148/1/24 141/1/17
f 148/1/24 143/2/19 149/2/25
f 140/1/16 153/3/31 137/1/13
f 153/3/31 140/1/16 151/3/27
f 123/2/3 155/5/33 154/5/32
f 155/5/33 123/2/3 147/2/23
f 124/2/4 156/5/34 138/2/14
f 156/5/34 124/2/4 157/5/35
f 158/5/36 143/2/19 145/5/21
f 143/2/19 158/5/36 149/2/25
f 135/4/37 130/3/10 129/4/9
f 130/3/10 135/4/37 159/3/38
f 160/3/39 133/4/30 152/3/28
f 133/4/30 160/3/39 134/4/40
f 160/3/39 135/4/37 134/4/40
f 135/4/37 160/3/39 159/3/38
f 160/3/39 146/1/22 159/3/38
f 146/1/22 160/3/39 148/1/24
f 124/2/4 136/1/12 122/1/2
f 136/1/12 124/2/4 138/2/14
f 142/2/18 137/1/13 139/2/15
f 137/1/13 142/2/18 140/1/16
f 155/5/33 149/2/25 158/5/36
f 149/2/25 155/5/33 147/2/23
f 151/3/27 131/4/41 153/3/31
f 131/4/41 151/3/27 132/4/29
f 123/2/3 157/5/35 124/2/4
f 157/5/35 123/2/3 154/5/32
f 141/1/17 160/3/39 152/3/28
f 160/3/39 141/1/17 148/1/24
f 122/1/2 125/3/5 126/3/6
f 125/3/5 122/1/2 136/1/12
f 131/4/41 125/3/5 153/3/31
f 125/3/5 131/4/41 127/4/7
f 137/1/13 125/3/5 136/1/12
f 125/3/5 137/1/13 153/3/31
f 130/3/10 146/1/22 121/1/1
f 146/1/22 130/3/10 159/3/38
f 138/2/14 150/5/26 139/2/15
f 150/5/26 138/2/14 156/5/34
f 156/5/34 144/5/20 150/5/26
f 144/5/20 156/5/34 157/5/35
f 144/5/20 157/5/35 145/5/21
f 145/5/21 157/5/35 154/5/32
f 145/5/21 154/5/32 158/5/36
f 158/5/36 154/5/32 155/5/33
f 163/6/42 162/6/42 161/6/42
f 162/6/42 163/6/42 164/6/42
f 162/6/42 164/6/42 165/6/42
f 165/6/42 164/6/42 166/6/42
f 165/6/42 166/6/42 167/6/42
f 167/6/42 166/6/42 168/6/42
f 166/6/43 170/7/44 169/7/43
f 170/7/44 166/6/43 164/6/44
f 165/6/45 172/7/46 171/7/45
f 172/7/46 165/6/45 167/6/46
f 169/7/43 168/6/47 166/6/43
f 168/6/47 169/7/43 173/7/47
f 161/6/49 174/7/48 163/6/48
f 174/7/48 161/6/49 175/7/49
f 162/6/50 175/7/49 161/6/49
f 175/7/49 162/6/50 176/7/50
f 173/7/47 167/6/46 168/6/47
f 167/6/46 173/7/47 172/7/46
f 162/6/50 171/7/45 176/7/50
f 171/7/45 162/6/50 165/6/45
f 164/6/44 174/7/48 170/7/44
f 174/7/48 164/6/44 163/6/48
f 179/8/53 178/8/52 177/8/51
f 178/8/52 179/8/53 180/8/54
f 178/8/52 180/8/54 181/8/55
f 181/8/55 180/8/54 182/8/56
f 181/8/55 182/8/56 183/8/57
f 183/8/57 182/8/56 184/8/58
f 178/8/52 186/9/60 185/9/59
f 186/9/60 178/8/52 181/8/55
f 179/8/53 188/9/62 187/9/61
f 188/9/62 179/8/53 177/8/51
f 182/8/56 190/9/64 189/9/63
f 190/9/64 182/8/56 180/8/54
f 191/9/65 182/8/56 189/9/63
f 182/8/56 191/9/65 184/8/58
f 191/9/65 183/8/57 184/8/58
f 183/8/57 191/9/65 192/9/66
f 180/8/54 187/9/61 190/9/64
f 187/9/61 180/8/54 179/8/53
f 178/8/52 188/9/62 177/8/51
f 188/9/62 178/8/52 185/9/59
f 181/8/55 192/9/66 186/9/60
f 192/9/66 181/8/55 183/8/57
