mtllib rocks-tall.mtl
g rocks-tall
v 0.52269 1.2408e-16 0.081665
v 0.36567 1.2408e-16 -0.085287
v 0.45662 1.2408e-16 0.30113
v 0.14257 1.2408e-16 -0.032774
v 0.23352 1.2408e-16 0.35364
v 0.076499 1.2408e-16 0.18669
v 0.10996 0.048296 0.17881
v 0.24344 0.048296 0.32072
v 0.16612 0.048296 -0.0077311
v 0.43307 0.048296 0.27609
v 0.35576 0.048296 -0.052367
v 0.48923 0.048296 0.089542
v 0.1409 0.12702 0.17153
v 0.2526 0.12702 0.29029
v 0.1879 0.12702 0.015419
v 0.45829 0.12702 0.096823
v 0.41129 0.12702 0.25294
v 0.34659 0.12702 -0.021935
v 0.32578 0.15696 0.047204
v 0.38801 0.15696 0.11337
v 0.23737 0.15696 0.068015
v 0.36183 0.15696 0.20034
v 0.21118 0.15696 0.15499
v 0.27341 0.15696 0.22115
v -0.2986 1.2408e-16 0.011205
v -0.11322 1.2408e-16 0.21495
v -0.21484 1.2408e-16 -0.25121
v 0.15591 1.2408e-16 0.15628
v 0.054295 1.2408e-16 -0.30987
v 0.23967 1.2408e-16 -0.10613
v 0.1993 0.1808 -0.097332
v 0.041732 0.1808 -0.27051
v 0.12811 0.1808 0.12572
v -0.18703 0.1808 -0.22064
v -0.10066 0.1808 0.17559
v -0.25823 0.1808 0.0024046
v 0.15587 0.52377 -0.087864
v 0.098192 0.52377 0.09284
v 0.028216 0.52377 -0.22817
v -0.15712 0.52377 -0.18777
v -0.2148 0.52377 -0.0070627
v -0.087142 0.52377 0.13324
v -0.064978 0.58759 0.063803
v -0.14358 0.58759 -0.022587
v 0.049139 0.58759 0.038926
v -0.10806 0.58759 -0.13385
v 0.0060517 0.58759 -0.15873
v 0.084654 0.58759 -0.07234
v 0.35942 1.2408e-16 0.16508
v 0.41083 1.2408e-16 -0.077697
v 0.12347 1.2408e-16 0.24194
v 0.22629 1.2408e-16 -0.24361
v -0.061074 1.2408e-16 0.076026
v -0.0096606 1.2408e-16 -0.16675
v 0.01802 0.11614 -0.14186
v -0.025681 0.11614 0.064496
v 0.21858 0.11614 -0.20719
v 0.13118 0.11614 0.20552
v 0.37544 0.11614 -0.066168
v 0.33174 0.11614 0.14019
v 0.0478 0.33646 -0.11509
v 0.21028 0.33646 -0.16802
v 0.012395 0.33646 0.052093
v 0.13948 0.33646 0.16634
v 0.30196 0.33646 0.11342
v 0.33737 0.33646 -0.053765
v 0.27493 0.37746 -0.033426
v 0.25313 0.37746 0.069513
v 0.19668 0.37746 -0.10378
v 0.15308 0.37746 0.1021
v 0.074832 0.37746 0.031754
v 0.096632 0.37746 -0.071185
v -0.51045 0 0.055271
v -0.32893 0 0.1952
v -0.48002 0 -0.1719
v -0.11698 0 0.10796
v -0.26808 0 -0.25913
v -0.08656 0 -0.1192
v -0.11835 0.048296 -0.10612
v -0.27264 0.048296 -0.22506
v -0.14421 0.048296 0.086975
v -0.4528 0.048296 -0.15091
v -0.32436 0.048296 0.16113
v -0.47865 0.048296 0.042185
v -0.14774 0.12702 -0.09402
v -0.27686 0.12702 -0.19356
v -0.16938 0.12702 0.067572
v -0.44927 0.12702 0.030089
v -0.42763 0.12702 -0.1315
v -0.32014 0.12702 0.12963
v -0.31056 0.15696 0.05806
v -0.3825 0.15696 0.0026062
v -0.22657 0.15696 0.023489
v -0.37044 0.15696 -0.08742
v -0.21451 0.15696 -0.066537
v -0.28645 0.15696 -0.12199
v 0.24667 1.2408e-16 -0.041448
v 0.37257 1.2408e-16 -0.23297
v 0.017862 1.2408e-16 -0.054716
v 0.26965 1.2408e-16 -0.43776
v -0.085052 1.2408e-16 -0.25951
v 0.040843 1.2408e-16 -0.45103
v 0.056281 0.048296 -0.42031
v -0.050731 0.048296 -0.25752
v 0.25077 0.048296 -0.40903
v 0.036746 0.048296 -0.083444
v 0.33825 0.048296 -0.23496
v 0.23123 0.048296 -0.072166
v 0.070551 0.12702 -0.39191
v -0.019003 0.12702 -0.25568
v 0.23331 0.12702 -0.38247
v 0.21696 0.12702 -0.10056
v 0.054203 0.12702 -0.11
v 0.30652 0.12702 -0.2368
v 0.23444 0.15696 -0.24098
v 0.18454 0.15696 -0.16508
v 0.19365 0.15696 -0.32214
v 0.093865 0.15696 -0.17034
v 0.10297 0.15696 -0.3274
v 0.05308 0.15696 -0.2515
v 0.29729 1.2408e-16 0.12297
v 0.12311 1.2408e-16 -0.12129
v 0.17285 1.2408e-16 0.39594
v -0.17551 1.2408e-16 -0.092569
v -0.12577 1.2408e-16 0.42466
v -0.29995 1.2408e-16 0.18041
v -0.25516 0.081691 0.1761
v -0.1071 0.081691 0.38371
v -0.14938 0.081691 -0.055931
v 0.14673 0.081691 0.3593
v 0.10444 0.081691 -0.080343
v 0.2525 0.081691 0.12727
v 0.088726 0.203 -0.045862
v 0.21478 0.203 0.1309
v 0.12472 0.203 0.32845
v -0.091383 0.203 0.34923
v -0.21744 0.203 0.17247
v -0.12738 0.203 -0.025078
v 0.055346 0.2655 0.027361
v 0.13468 0.2655 0.1386
v -0.080659 0.2655 0.040441
v 0.078002 0.2655 0.26293
v -0.13733 0.2655 0.16477
v -0.058003 0.2655 0.27601
v 0.09871 -3.384e-16 0.28421
v 0.19752 -3.384e-16 0.28174
v 0.11623 0.080388 0.31288
v 0.18145 0.080388 0.31125
v 0.24906 -3.384e-16 0.36607
v 0.20179 -3.384e-16 0.45288
v 0.10299 -3.384e-16 0.45535
v 0.051445 -3.384e-16 0.37101
v 0.21546 0.080388 0.36691
v 0.18427 0.080388 0.4242
v 0.11906 0.080388 0.42583
v 0.085039 0.080388 0.37017
v 0.49778 -5.6399e-17 -0.19174
v 0.46716 -5.6399e-17 -0.23673
v 0.47412 -5.6399e-17 -0.14273
v 0.41984 -5.6399e-17 -0.13872
v 0.41289 -5.6399e-17 -0.23272
v 0.38923 -5.6399e-17 -0.18371
v 0.47932 0.044261 -0.19037
v 0.46371 0.044261 -0.15803
v 0.4233 0.044261 -0.21742
v 0.45912 0.044261 -0.22007
v 0.42789 0.044261 -0.15538
v 0.40769 0.044261 -0.18507
v -0.077494 1.2408e-16 -0.54236
v -0.062461 0.044261 -0.53158
v -0.08286 1.2408e-16 -0.48821
v -0.066002 0.044261 -0.49583
v -0.038644 1.2408e-16 -0.45648
v -0.03682 0.044261 -0.4749
v -0.027913 1.2408e-16 -0.56479
v -0.029737 0.044261 -0.54638
v 0.016303 1.2408e-16 -0.53307
v 0.010937 1.2408e-16 -0.47891
v -0.00055463 0.044261 -0.52544
v -0.004096 0.044261 -0.4897
v -0.30792 1.2408e-16 0.31008
v -0.3582 1.2408e-16 0.33089
v -0.3226 0.044261 0.29881
v -0.35578 0.044261 0.31255
v -0.39425 1.2408e-16 0.2438
v -0.37957 0.044261 0.25507
v -0.40137 1.2408e-16 0.29775
v -0.38427 0.044261 0.29068
v -0.3008 1.2408e-16 0.25613
v -0.34396 1.2408e-16 0.22299
v -0.3179 0.044261 0.26321
v -0.34638 0.044261 0.24133
v -0.12386 0.080388 -0.39387
v -0.15756 0.080388 -0.33802
v -0.15538 0.080388 -0.45099
v -0.22061 0.080388 -0.45224
v -0.22278 0.080388 -0.33928
v -0.2543 0.080388 -0.39639
v -0.23684 1.2408e-16 -0.48166
v -0.13802 1.2408e-16 -0.47976
v -0.090264 1.2408e-16 -0.39323
v -0.14132 1.2408e-16 -0.3086
v -0.2879 1.2408e-16 -0.39704
v -0.24014 1.2408e-16 -0.3105
vn 0 -1 0
vn -0.62007 0.52477 0.58321
vn -0.65258 0.4443 0.61379
vn -0.81511 0.52477 -0.24539
vn -0.85785 0.4443 -0.25826
vn 0.19504 0.52477 0.8286
vn 0.20526 0.4443 0.87205
vn 0.62007 0.52477 -0.58321
vn 0.65258 0.4443 -0.61379
vn -0.19504 0.52477 -0.8286
vn -0.20526 0.4443 -0.87205
vn 0.81511 0.52477 0.24539
vn 0.85785 0.4443 0.25826
vn -0.58482 0.59617 0.55006
vn -0.76877 0.59617 -0.23144
vn 0.76877 0.59617 0.23144
vn 0.58482 0.59617 -0.55006
vn 0.18395 0.59617 0.7815
vn 0.073595 0.96686 -0.24446
vn 0.2485 0.96686 -0.058493
vn -0.17491 0.96686 -0.18596
vn 0.17491 0.96686 0.18596
vn -0.2485 0.96686 0.058493
vn -0.073595 0.96686 0.24446
vn -0.18395 0.59617 -0.7815
vn 0.72559 0.19415 -0.66017
vn 0.73046 0.15724 -0.66461
vn 0.93452 0.19415 0.29829
vn 0.9408 0.15724 0.30029
vn -0.20894 0.19415 -0.95846
vn -0.21034 0.15724 -0.9649
vn -0.72559 0.19415 0.66017
vn -0.73046 0.15724 0.66461
vn 0.20894 0.19415 0.95846
vn 0.21034 0.15724 0.9649
vn -0.93452 0.19415 -0.29829
vn -0.9408 0.15724 -0.30029
vn 0.92169 0.25285 0.29419
vn 0.71562 0.25285 -0.65111
vn -0.20607 0.25285 -0.9453
vn -0.92169 0.25285 -0.29419
vn -0.71562 0.25285 0.65111
vn -0.1508 0.86836 0.47245
vn -0.48456 0.86836 0.10563
vn 0.33375 0.86836 0.36682
vn -0.33375 0.86836 -0.36682
vn 0.1508 0.86836 -0.47245
vn 0.48456 0.86836 -0.10563
vn 0.20607 0.25285 0.9453
vn -0.94266 0.26745 -0.19963
vn -0.95479 0.21793 -0.2022
vn -0.29845 0.26745 -0.91619
vn -0.30228 0.21793 -0.92797
vn -0.64422 0.26745 0.71656
vn -0.65251 0.21793 0.72577
vn 0.94266 0.26745 0.19963
vn 0.95479 0.21793 0.2022
vn 0.64422 0.26745 -0.71656
vn 0.65251 0.21793 -0.72577
vn 0.29845 0.26745 0.91619
vn 0.30228 0.21793 0.92797
vn -0.29081 0.34414 -0.89275
vn -0.91855 0.34414 -0.19452
vn -0.62774 0.34414 0.69822
vn 0.29081 0.34414 0.89275
vn 0.91855 0.34414 0.19452
vn 0.35861 0.92615 -0.11682
vn 0.28047 0.92615 0.25216
vn 0.078139 0.92615 -0.36897
vn -0.078139 0.92615 0.36897
vn -0.35861 0.92615 0.11682
vn -0.28047 0.92615 -0.25216
vn 0.62774 0.34414 -0.69822
vn 0.51971 0.52477 -0.67418
vn 0.54696 0.4443 -0.70953
vn 0.84371 0.52477 0.11299
vn 0.88795 0.4443 0.11892
vn -0.324 0.52477 -0.78717
vn -0.34099 0.4443 -0.82845
vn -0.51971 0.52477 0.67418
vn -0.54696 0.4443 0.70953
vn 0.324 0.52477 0.78717
vn 0.34099 0.4443 0.82845
vn -0.84371 0.52477 -0.11299
vn -0.88795 0.4443 -0.11892
vn 0.49017 0.59617 -0.63586
vn 0.79575 0.59617 0.10657
vn -0.79575 0.59617 -0.10657
vn -0.49017 0.59617 0.63586
vn -0.30558 0.59617 -0.74243
vn -0.033887 0.96686 0.25303
vn -0.23608 0.96686 0.09717
vn 0.20219 0.96686 0.15586
vn -0.20219 0.96686 -0.15586
vn 0.23608 0.96686 -0.09717
vn 0.033887 0.96686 -0.25303
vn 0.30558 0.59617 0.74243
vn -0.71132 0.52477 -0.46759
vn -0.74862 0.4443 -0.4921
vn 0.04928 0.52477 -0.84982
vn 0.051863 0.4443 -0.89438
vn -0.7606 0.52477 0.38223
vn -0.80048 0.4443 0.40227
vn 0.71132 0.52477 0.46759
vn 0.74862 0.4443 0.4921
vn 0.7606 0.52477 -0.38223
vn 0.80048 0.4443 -0.40227
vn -0.04928 0.52477 0.84982
vn -0.051863 0.4443 0.89438
vn -0.67089 0.59617 -0.44101
vn 0.046478 0.59617 -0.80151
vn -0.046478 0.59617 0.80151
vn 0.67089 0.59617 0.44101
vn -0.71737 0.59617 0.3605
vn 0.25486 0.96686 0.014779
vn 0.11463 0.96686 0.22811
vn 0.14023 0.96686 -0.21333
vn -0.14023 0.96686 0.21333
vn -0.11463 0.96686 -0.22811
vn -0.25486 0.96686 -0.014779
vn 0.71737 0.59617 -0.3605
vn -0.73485 0.43057 0.52404
vn -0.76034 0.3576 0.54222
vn -0.82125 0.43057 -0.37438
vn -0.84975 0.3576 -0.38737
vn 0.086405 0.43057 0.89841
vn 0.089403 0.3576 0.92959
vn 0.73485 0.43057 -0.52404
vn 0.76034 0.3576 -0.54222
vn -0.086405 0.43057 -0.89841
vn -0.089403 0.3576 -0.92959
vn 0.82125 0.43057 0.37438
vn 0.84975 0.3576 0.38737
vn 0.71644 0.47507 -0.51091
vn 0.08424 0.47507 0.8759
vn -0.80068 0.47507 -0.365
vn 0.80068 0.47507 0.365
vn -0.08424 0.47507 -0.8759
vn 0.1714 0.91063 -0.37599
vn 0.41132 0.91063 -0.039559
vn -0.23992 0.91063 -0.33643
vn 0.23992 0.91063 0.33643
vn -0.41132 0.91063 0.039559
vn -0.1714 0.91063 0.37599
vn -0.71644 0.47507 0.51091
vn -0.48113 0.38569 -0.78725
vn 0.44121 0.38569 -0.8103
vn -0.34274 0.75367 -0.56081
vn 0.3143 0.75367 -0.57723
vn 0.65705 0.75367 -0.016421
vn 0.34274 0.75367 0.56081
vn -0.3143 0.75367 0.57723
vn -0.65705 0.75367 0.016421
vn 0.48113 0.38569 0.78725
vn -0.44121 0.38569 0.8103
vn -0.92234 0.38569 0.023051
vn 0.92234 0.38569 -0.023051
vn 0.92012 0.38569 -0.068039
vn 0.51898 0.38569 0.76282
vn 0.65546 0.75367 -0.048469
vn 0.36971 0.75367 0.54341
vn -0.51898 0.38569 -0.76282
vn 0.40113 0.38569 -0.83086
vn -0.36971 0.75367 -0.54341
vn 0.28575 0.75367 -0.59188
vn -0.28575 0.75367 0.59188
vn -0.65546 0.75367 0.048469
vn -0.40113 0.38569 0.83086
vn -0.92012 0.38569 0.068039
vn -0.74964 0.38569 -0.53785
vn -0.53402 0.75367 -0.38315
vn -0.84061 0.38569 0.38028
vn -0.59882 0.75367 0.2709
vn -0.090971 0.38569 0.91813
vn -0.064805 0.75367 0.65405
vn 0.090971 0.38569 -0.91813
vn 0.064805 0.75367 -0.65405
vn 0.84061 0.38569 -0.38028
vn 0.74964 0.38569 0.53785
vn 0.59882 0.75367 -0.2709
vn 0.53402 0.75367 0.38315
vn 0.7318 0.38569 0.56188
vn -0.1207 0.38569 0.9147
vn 0.52131 0.75367 0.40026
vn -0.085981 0.75367 0.6516
vn -0.7318 0.38569 -0.56188
vn -0.52131 0.75367 -0.40026
vn -0.8525 0.38569 0.35282
vn -0.60729 0.75367 0.25134
vn 0.60729 0.75367 -0.25134
vn 0.085981 0.75367 -0.6516
vn 0.1207 0.38569 -0.9147
vn 0.8525 0.38569 -0.35282
vn 0.65713 0.75367 0.012665
vn 0.3176 0.75367 0.57542
vn 0.33953 0.75367 -0.56276
vn -0.3176 0.75367 -0.57542
vn -0.33953 0.75367 0.56276
vn -0.65713 0.75367 -0.012665
vn -0.44583 0.38569 -0.80776
vn 0.47663 0.38569 -0.78998
vn 0.92246 0.38569 0.017779
vn 0.44583 0.38569 0.80776
vn -0.92246 0.38569 -0.017779
vn -0.47663 0.38569 0.78998
vt 0.96875 0.025
vt 0.96875 0.086538
vt 0.96875 0.18685
vt 0.96875 0.225
vt 0.96875 0.20328
vt 0.96875 0.17792
vt 0.96875 0.075
vt 0.96875 0.175
usemtl colormap
f 3/1/1 2/1/1 1/1/1
f 2/1/1 3/1/1 4/1/1
f 4/1/1 3/1/1 5/1/1
f 4/1/1 5/1/1 6/1/1
f 5/1/2 7/2/3 6/1/2
f 7/2/3 5/1/2 8/2/3
f 7/2/5 4/1/4 6/1/4
f 4/1/4 7/2/5 9/2/5
f 10/2/7 5/1/6 3/1/6
f 5/1/6 10/2/7 8/2/7
f 11/2/9 1/1/8 2/1/8
f 1/1/8 11/2/9 12/2/9
f 9/2/11 2/1/10 4/1/10
f 2/1/10 9/2/11 11/2/11
f 12/2/13 3/1/12 1/1/12
f 3/1/12 12/2/13 10/2/13
f 8/2/3 13/3/14 7/2/3
f 13/3/14 8/2/3 14/3/14
f 13/3/15 9/2/5 7/2/5
f 9/2/5 13/3/15 15/3/15
f 16/3/16 10/2/13 12/2/13
f 10/2/13 16/3/16 17/3/16
f 18/3/17 12/2/9 11/2/9
f 12/2/9 18/3/17 16/3/17
f 17/3/18 8/2/7 10/2/7
f 8/2/7 17/3/18 14/3/18
f 21/4/21 20/4/20 19/4/19
f 20/4/20 21/4/21 22/4/22
f 22/4/22 21/4/21 23/4/23
f 22/4/22 23/4/23 24/4/24
f 15/3/25 11/2/11 9/2/11
f 11/2/11 15/3/25 18/3/25
f 13/3/14 24/4/24 23/4/23
f 24/4/24 13/3/14 14/3/14
f 13/3/15 21/4/21 15/3/15
f 21/4/21 13/3/15 23/4/23
f 20/4/20 17/3/16 16/3/16
f 17/3/16 20/4/20 22/4/22
f 19/4/19 16/3/17 18/3/17
f 16/3/17 19/4/19 20/4/20
f 15/3/25 19/4/19 18/3/25
f 19/4/19 15/3/25 21/4/21
f 24/4/24 17/3/18 22/4/22
f 17/3/18 24/4/24 14/3/18
f 27/1/1 26/1/1 25/1/1
f 26/1/1 27/1/1 28/1/1
f 28/1/1 27/1/1 29/1/1
f 28/1/1 29/1/1 30/1/1
f 29/1/26 31/2/27 30/1/26
f 31/2/27 29/1/26 32/2/27
f 31/2/29 28/1/28 30/1/28
f 28/1/28 31/2/29 33/2/29
f 34/2/31 29/1/30 27/1/30
f 29/1/30 34/2/31 32/2/31
f 35/2/33 25/1/32 26/1/32
f 25/1/32 35/2/33 36/2/33
f 33/2/35 26/1/34 28/1/34
f 26/1/34 33/2/35 35/2/35
f 36/2/37 27/1/36 25/1/36
f 27/1/36 36/2/37 34/2/37
f 37/5/38 33/2/29 31/2/29
f 33/2/29 37/5/38 38/5/38
f 32/2/27 37/5/39 31/2/27
f 37/5/39 32/2/27 39/5/39
f 40/5/40 32/2/31 34/2/31
f 32/2/31 40/5/40 39/5/40
f 41/5/41 34/2/37 36/2/37
f 34/2/37 41/5/41 40/5/41
f 42/5/42 36/2/33 35/2/33
f 36/2/33 42/5/42 41/5/42
f 45/4/45 44/4/44 43/4/43
f 44/4/44 45/4/45 46/4/46
f 46/4/46 45/4/45 47/4/47
f 47/4/47 45/4/45 48/4/48
f 38/5/49 35/2/35 33/2/35
f 35/2/35 38/5/49 42/5/49
f 37/5/38 45/4/45 38/5/38
f 45/4/45 37/5/38 48/4/48
f 37/5/39 47/4/47 48/4/48
f 47/4/47 37/5/39 39/5/39
f 44/4/44 40/5/41 41/5/41
f 40/5/41 44/4/44 46/4/46
f 42/5/42 44/4/44 41/5/42
f 44/4/44 42/5/42 43/4/43
f 38/5/49 43/4/43 42/5/49
f 43/4/43 38/5/49 45/4/45
f 47/4/47 40/5/40 46/4/46
f 40/5/40 47/4/47 39/5/40
f 51/1/1 50/1/1 49/1/1
f 50/1/1 51/1/1 52/1/1
f 52/1/1 51/1/1 53/1/1
f 52/1/1 53/1/1 54/1/1
f 53/1/50 55/2/51 54/1/50
f 55/2/51 53/1/50 56/2/51
f 55/2/53 52/1/52 54/1/52
f 52/1/52 55/2/53 57/2/53
f 58/2/55 53/1/54 51/1/54
f 53/1/54 58/2/55 56/2/55
f 59/2/57 49/1/56 50/1/56
f 49/1/56 59/2/57 60/2/57
f 57/2/59 50/1/58 52/1/58
f 50/1/58 57/2/59 59/2/59
f 60/2/61 51/1/60 49/1/60
f 51/1/60 60/2/61 58/2/61
f 61/5/62 57/2/53 55/2/53
f 57/2/53 61/5/62 62/5/62
f 56/2/51 61/5/63 55/2/51
f 61/5/63 56/2/51 63/5/63
f 64/5/64 56/2/55 58/2/55
f 56/2/55 64/5/64 63/5/64
f 65/5/65 58/2/61 60/2/61
f 58/2/61 65/5/65 64/5/65
f 66/5/66 60/2/57 59/2/57
f 60/2/57 66/5/66 65/5/66
f 69/4/69 68/4/68 67/4/67
f 68/4/68 69/4/69 70/4/70
f 70/4/70 69/4/69 71/4/71
f 71/4/71 69/4/69 72/4/72
f 62/5/73 59/2/59 57/2/59
f 59/2/59 62/5/73 66/5/73
f 61/5/62 69/4/69 62/5/62
f 69/4/69 61/5/62 72/4/72
f 61/5/63 71/4/71 72/4/72
f 71/4/71 61/5/63 63/5/63
f 68/4/68 64/5/65 65/5/65
f 64/5/65 68/4/68 70/4/70
f 66/5/66 68/4/68 65/5/66
f 68/4/68 66/5/66 67/4/67
f 62/5/73 67/4/67 66/5/73
f 67/4/67 62/5/73 69/4/69
f 71/4/71 64/5/64 70/4/70
f 64/5/64 71/4/71 63/5/64
f 75/1/1 74/1/1 73/1/1
f 74/1/1 75/1/1 76/1/1
f 76/1/1 75/1/1 77/1/1
f 76/1/1 77/1/1 78/1/1
f 77/1/74 79/2/75 78/1/74
f 79/2/75 77/1/74 80/2/75
f 79/2/77 76/1/76 78/1/76
f 76/1/76 79/2/77 81/2/77
f 82/2/79 77/1/78 75/1/78
f 77/1/78 82/2/79 80/2/79
f 83/2/81 73/1/80 74/1/80
f 73/1/80 83/2/81 84/2/81
f 81/2/83 74/1/82 76/1/82
f 74/1/82 81/2/83 83/2/83
f 84/2/85 75/1/84 73/1/84
f 75/1/84 84/2/85 82/2/85
f 80/2/75 85/3/86 79/2/75
f 85/3/86 80/2/75 86/3/86
f 85/3/87 81/2/77 79/2/77
f 81/2/77 85/3/87 87/3/87
f 88/3/88 82/2/85 84/2/85
f 82/2/85 88/3/88 89/3/88
f 90/3/89 84/2/81 83/2/81
f 84/2/81 90/3/89 88/3/89
f 89/3/90 80/2/79 82/2/79
f 80/2/79 89/3/90 86/3/90
f 93/4/93 92/4/92 91/4/91
f 92/4/92 93/4/93 94/4/94
f 94/4/94 93/4/93 95/4/95
f 94/4/94 95/4/95 96/4/96
f 87/3/97 83/2/83 81/2/83
f 83/2/83 87/3/97 90/3/97
f 85/3/86 96/4/96 95/4/95
f 96/4/96 85/3/86 86/3/86
f 85/3/87 93/4/93 87/3/87
f 93/4/93 85/3/87 95/4/95
f 92/4/92 89/3/88 88/3/88
f 89/3/88 92/4/92 94/4/94
f 91/4/91 88/3/89 90/3/89
f 88/3/89 91/4/91 92/4/92
f 87/3/97 91/4/91 90/3/97
f 91/4/91 87/3/97 93/4/93
f 96/4/96 89/3/90 94/4/94
f 89/3/90 96/4/96 86/3/90
f 99/1/1 98/1/1 97/1/1
f 98/1/1 99/1/1 100/1/1
f 100/1/1 99/1/1 101/1/1
f 100/1/1 101/1/1 102/1/1
f 101/1/98 103/2/99 102/1/98
f 103/2/99 101/1/98 104/2/99
f 103/2/101 100/1/100 102/1/100
f 100/1/100 103/2/101 105/2/101
f 106/2/103 101/1/102 99/1/102
f 101/1/102 106/2/103 104/2/103
f 107/2/105 97/1/104 98/1/104
f 97/1/104 107/2/105 108/2/105
f 105/2/107 98/1/106 100/1/106
f 98/1/106 105/2/107 107/2/107
f 108/2/109 99/1/108 97/1/108
f 99/1/108 108/2/109 106/2/109
f 104/2/99 109/3/110 103/2/99
f 109/3/110 104/2/99 110/3/110
f 109/3/111 105/2/101 103/2/101
f 105/2/101 109/3/111 111/3/111
f 112/3/112 106/2/109 108/2/109
f 106/2/109 112/3/112 113/3/112
f 114/3/113 108/2/105 107/2/105
f 108/2/105 114/3/113 112/3/113
f 113/3/114 104/2/103 106/2/103
f 104/2/103 113/3/114 110/3/114
f 117/4/117 116/4/116 115/4/115
f 116/4/116 117/4/117 118/4/118
f 118/4/118 117/4/117 119/4/119
f 118/4/118 119/4/119 120/4/120
f 111/3/121 107/2/107 105/2/107
f 107/2/107 111/3/121 114/3/121
f 109/3/110 120/4/120 119/4/119
f 120/4/120 109/3/110 110/3/110
f 109/3/111 117/4/117 111/3/111
f 117/4/117 109/3/111 119/4/119
f 116/4/116 113/3/112 112/3/112
f 113/3/112 116/4/116 118/4/118
f 115/4/115 112/3/113 114/3/113
f 112/3/113 115/4/115 116/4/116
f 111/3/121 115/4/115 114/3/121
f 115/4/115 111/3/121 117/4/117
f 120/4/120 113/3/114 118/4/118
f 113/3/114 120/4/120 110/3/114
f 123/1/1 122/1/1 121/1/1
f 122/1/1 123/1/1 124/1/1
f 124/1/1 123/1/1 125/1/1
f 124/1/1 125/1/1 126/1/1
f 125/1/122 127/2/123 126/1/122
f 127/2/123 125/1/122 128/2/123
f 127/2/125 124/1/124 126/1/124
f 124/1/124 127/2/125 129/2/125
f 130/2/127 125/1/126 123/1/126
f 125/1/126 130/2/127 128/2/127
f 131/2/129 121/1/128 122/1/128
f 121/1/128 131/2/129 132/2/129
f 129/2/131 122/1/130 124/1/130
f 122/1/130 129/2/131 131/2/131
f 132/2/133 123/1/132 121/1/132
f 123/1/132 132/2/133 130/2/133
f 133/6/134 132/2/129 131/2/129
f 132/2/129 133/6/134 134/6/134
f 135/6/135 128/2/127 130/2/127
f 128/2/127 135/6/135 136/6/135
f 137/6/136 129/2/125 127/2/125
f 129/2/125 137/6/136 138/6/136
f 134/6/137 130/2/133 132/2/133
f 130/2/133 134/6/137 135/6/137
f 138/6/138 131/2/131 129/2/131
f 131/2/131 138/6/138 133/6/138
f 141/4/141 140/4/140 139/4/139
f 140/4/140 141/4/141 142/4/142
f 142/4/142 141/4/141 143/4/143
f 142/4/142 143/4/143 144/4/144
f 128/2/123 137/6/145 127/2/123
f 137/6/145 128/2/123 136/6/145
f 139/4/139 134/6/134 133/6/134
f 134/6/134 139/4/139 140/4/140
f 142/4/142 136/6/135 135/6/135
f 136/6/135 142/4/142 144/4/144
f 137/6/136 141/4/141 138/6/136
f 141/4/141 137/6/136 143/4/143
f 138/6/138 139/4/139 133/6/138
f 139/4/139 138/6/138 141/4/141
f 140/4/140 135/6/137 134/6/137
f 135/6/137 140/4/140 142/4/142
f 137/6/145 144/4/144 143/4/143
f 144/4/144 137/6/145 136/6/145
f 147/8/148 146/7/147 145/7/146
f 146/7/147 147/8/148 148/8/149
f 150/7/1 146/7/1 149/7/1
f 146/7/1 150/7/1 151/7/1
f 146/7/1 151/7/1 145/7/1
f 145/7/1 151/7/1 152/7/1
f 148/8/149 154/8/151 153/8/150
f 154/8/151 148/8/149 155/8/152
f 155/8/152 148/8/149 147/8/148
f 155/8/152 147/8/148 156/8/153
f 154/8/151 151/7/155 150/7/154
f 151/7/155 154/8/151 155/8/152
f 152/7/156 155/8/152 156/8/153
f 155/8/152 152/7/156 151/7/155
f 148/8/149 149/7/157 146/7/147
f 149/7/157 148/8/149 153/8/150
f 152/7/156 147/8/148 145/7/146
f 147/8/148 152/7/156 156/8/153
f 153/8/150 150/7/154 149/7/157
f 150/7/154 153/8/150 154/8/151
f 159/7/1 158/7/1 157/7/1
f 158/7/1 159/7/1 160/7/1
f 158/7/1 160/7/1 161/7/1
f 161/7/1 160/7/1 162/7/1
f 163/8/160 159/7/159 157/7/158
f 159/7/159 163/8/160 164/8/161
f 165/8/164 158/7/163 161/7/162
f 158/7/163 165/8/164 166/8/165
f 166/8/165 164/8/161 163/8/160
f 164/8/161 166/8/165 167/8/166
f 167/8/166 166/8/165 165/8/164
f 167/8/166 165/8/164 168/8/167
f 166/8/165 157/7/158 158/7/163
f 157/7/158 166/8/165 163/8/160
f 164/8/161 160/7/168 159/7/159
f 160/7/168 164/8/161 167/8/166
f 162/7/169 167/8/166 168/8/167
f 167/8/166 162/7/169 160/7/168
f 162/7/169 165/8/164 161/7/162
f 165/8/164 162/7/169 168/8/167
f 171/7/172 170/8/171 169/7/170
f 170/8/171 171/7/172 172/8/173
f 174/8/175 171/7/172 173/7/174
f 171/7/172 174/8/175 172/8/173
f 170/8/171 175/7/176 169/7/170
f 175/7/176 170/8/171 176/8/177
f 178/7/1 175/7/1 177/7/1
f 175/7/1 178/7/1 173/7/1
f 175/7/1 173/7/1 169/7/1
f 169/7/1 173/7/1 171/7/1
f 179/8/180 178/7/179 177/7/178
f 178/7/179 179/8/180 180/8/181
f 180/8/181 173/7/174 178/7/179
f 173/7/174 180/8/181 174/8/175
f 176/8/177 180/8/181 179/8/180
f 180/8/181 176/8/177 174/8/175
f 174/8/175 176/8/177 170/8/171
f 174/8/175 170/8/171 172/8/173
f 176/8/177 177/7/178 175/7/176
f 177/7/178 176/8/177 179/8/180
f 183/8/184 182/7/183 181/7/182
f 182/7/183 183/8/184 184/8/185
f 187/7/188 186/8/187 185/7/186
f 186/8/187 187/7/188 188/8/189
f 181/7/1 190/7/1 189/7/1
f 190/7/1 181/7/1 182/7/1
f 190/7/1 182/7/1 185/7/1
f 185/7/1 182/7/1 187/7/1
f 192/8/191 183/8/184 191/8/190
f 183/8/184 192/8/191 184/8/185
f 184/8/185 192/8/191 186/8/187
f 184/8/185 186/8/187 188/8/189
f 186/8/187 190/7/192 185/7/186
f 190/7/192 186/8/187 192/8/191
f 192/8/191 189/7/193 190/7/192
f 189/7/193 192/8/191 191/8/190
f 191/8/190 181/7/182 189/7/193
f 181/7/182 191/8/190 183/8/184
f 184/8/185 187/7/188 182/7/183
f 187/7/188 184/8/185 188/8/189
f 195/8/196 194/8/195 193/8/194
f 194/8/195 195/8/196 196/8/197
f 194/8/195 196/8/197 197/8/198
f 197/8/198 196/8/197 198/8/199
f 196/8/197 200/7/201 199/7/200
f 200/7/201 196/8/197 195/8/196
f 194/8/195 201/7/202 193/8/194
f 201/7/202 194/8/195 202/7/203
f 203/7/204 196/8/197 199/7/200
f 196/8/197 203/7/204 198/8/199
f 202/7/1 200/7/1 201/7/1
f 200/7/1 202/7/1 199/7/1
f 199/7/1 202/7/1 204/7/1
f 199/7/1 204/7/1 203/7/1
f 195/8/196 201/7/202 200/7/201
f 201/7/202 195/8/196 193/8/194
f 194/8/195 204/7/205 202/7/203
f 204/7/205 194/8/195 197/8/198
f 204/7/205 198/8/199 203/7/204
f 198/8/199 204/7/205 197/8/198
g rocks-tall
usemtl colormap
f 3/1/1 2/1/1 1/1/1
f 2/1/1 3/1/1 4/1/1
f 4/1/1 3/1/1 5/1/1
f 4/1/1 5/1/1 6/1/1
f 5/1/2 7/2/3 6/1/2
f 7/2/3 5/1/2 8/2/3
f 7/2/5 4/1/4 6/1/4
f 4/1/4 7/2/5 9/2/5
f 10/2/7 5/1/6 3/1/6
f 5/1/6 10/2/7 8/2/7
f 11/2/9 1/1/8 2/1/8
f 1/1/8 11/2/9 12/2/9
f 9/2/11 2/1/10 4/1/10
f 2/1/10 9/2/11 11/2/11
f 12/2/13 3/1/12 1/1/12
f 3/1/12 12/2/13 10/2/13
f 8/2/3 13/3/14 7/2/3
f 13/3/14 8/2/3 14/3/14
f 13/3/15 9/2/5 7/2/5
f 9/2/5 13/3/15 15/3/15
f 16/3/16 10/2/13 12/2/13
f 10/2/13 16/3/16 17/3/16
f 18/3/17 12/2/9 11/2/9
f 12/2/9 18/3/17 16/3/17
f 17/3/18 8/2/7 10/2/7
f 8/2/7 17/3/18 14/3/18
f 21/4/21 20/4/20 19/4/19
f 20/4/20 21/4/21 22/4/22
f 22/4/22 21/4/21 23/4/23
f 22/4/22 23/4/23 24/4/24
f 15/3/25 11/2/11 9/2/11
f 11/2/11 15/3/25 18/3/25
f 13/3/14 24/4/24 23/4/23
f 24/4/24 13/3/14 14/3/14
f 13/3/15 21/4/21 15/3/15
f 21/4/21 13/3/15 23/4/23
f 20/4/20 17/3/16 16/3/16
f 17/3/16 20/4/20 22/4/22
f 19/4/19 16/3/17 18/3/17
f 16/3/17 19/4/19 20/4/20
f 15/3/25 19/4/19 18/3/25
f 19/4/19 15/3/25 21/4/21
f 24/4/24 17/3/18 22/4/22
f 17/3/18 24/4/24 14/3/18
f 27/1/1 26/1/1 25/1/1
f 26/1/1 27/1/1 28/1/1
f 28/1/1 27/1/1 29/1/1
f 28/1/1 29/1/1 30/1/1
f 29/1/26 31/2/27 30/1/26
f 31/2/27 29/1/26 32/2/27
f 31/2/29 28/1/28 30/1/28
f 28/1/28 31/2/29 33/2/29
f 34/2/31 29/1/30 27/1/30
f 29/1/30 34/2/31 32/2/31
f 35/2/33 25/1/32 26/1/32
f 25/1/32 35/2/33 36/2/33
f 33/2/35 26/1/34 28/1/34
f 26/1/34 33/2/35 35/2/35
f 36/2/37 27/1/36 25/1/36
f 27/1/36 36/2/37 34/2/37
f 37/5/38 33/2/29 31/2/29
f 33/2/29 37/5/38 38/5/38
f 32/2/27 37/5/39 31/2/27
f 37/5/39 32/2/27 39/5/39
f 40/5/40 32/2/31 34/2/31
f 32/2/31 40/5/40 39/5/40
f 41/5/41 34/2/37 36/2/37
f 34/2/37 41/5/41 40/5/41
f 42/5/42 36/2/33 35/2/33
f 36/2/33 42/5/42 41/5/42
f 45/4/45 44/4/44 43/4/43
f 44/4/44 45/4/45 46/4/46
f 46/4/46 45/4/45 47/4/47
f 47/4/47 45/4/45 48/4/48
f 38/5/49 35/2/35 33/2/35
f 35/2/35 38/5/49 42/5/49
f 37/5/38 45/4/45 38/5/38
f 45/4/45 37/5/38 48/4/48
f 37/5/39 47/4/47 48/4/48
f 47/4/47 37/5/39 39/5/39
f 44/4/44 40/5/41 41/5/41
f 40/5/41 44/4/44 46/4/46
f 42/5/42 44/4/44 41/5/42
f 44/4/44 42/5/42 43/4/43
f 38/5/49 43/4/43 42/5/49
f 43/4/43 38/5/49 45/4/45
f 47/4/47 40/5/40 46/4/46
f 40/5/40 47/4/47 39/5/40
f 51/1/1 50/1/1 49/1/1
f 50/1/1 51/1/1 52/1/1
f 52/1/1 51/1/1 53/1/1
f 52/1/1 53/1/1 54/1/1
f 53/1/50 55/2/51 54/1/50
f 55/2/51 53/1/50 56/2/51
f 55/2/53 52/1/52 54/1/52
f 52/1/52 55/2/53 57/2/53
f 58/2/55 53/1/54 51/1/54
f 53/1/54 58/2/55 56/2/55
f 59/2/57 49/1/56 50/1/56
f 49/1/56 59/2/57 60/2/57
f 57/2/59 50/1/58 52/1/58
f 50/1/58 57/2/59 59/2/59
f 60/2/61 51/1/60 49/1/60
f 51/1/60 60/2/61 58/2/61
f 61/5/62 57/2/53 55/2/53
f 57/2/53 61/5/62 62/5/62
f 56/2/51 61/5/63 55/2/51
f 61/5/63 56/2/51 63/5/63
f 64/5/64 56/2/55 58/2/55
f 56/2/55 64/5/64 63/5/64
f 65/5/65 58/2/61 60/2/61
f 58/2/61 65/5/65 64/5/65
f 66/5/66 60/2/57 59/2/57
f 60/2/57 66/5/66 65/5/66
f 69/4/69 68/4/68 67/4/67
f 68/4/68 69/4/69 70/4/70
f 70/4/70 69/4/69 71/4/71
f 71/4/71 69/4/69 72/4/72
f 62/5/73 59/2/59 57/2/59
f 59/2/59 62/5/73 66/5/73
f 61/5/62 69/4/69 62/5/62
f 69/4/69 61/5/62 72/4/72
f 61/5/63 71/4/71 72/4/72
f 71/4/71 61/5/63 63/5/63
f 68/4/68 64/5/65 65/5/65
f 64/5/65 68/4/68 70/4/70
f 66/5/66 68/4/68 65/5/66
f 68/4/68 66/5/66 67/4/67
f 62/5/73 67/4/67 66/5/73
f 67/4/67 62/5/73 69/4/69
f 71/4/71 64/5/64 70/4/70
f 64/5/64 71/4/71 63/5/64
f 75/1/1 74/1/1 73/1/1
f 74/1/1 75/1/1 76/1/1
f 76/1/1 75/1/1 77/1/1
f 76/1/1 77/1/1 78/1/1
f 77/1/74 79/2/75 78/1/74
f 79/2/75 77/1/74 80/2/75
f 79/2/77 76/1/76 78/1/76
f 76/1/76 79/2/77 81/2/77
f 82/2/79 77/1/78 75/1/78
f 77/1/78 82/2/79 80/2/79
f 83/2/81 73/1/80 74/1/80
f 73/1/80 83/2/81 84/2/81
f 81/2/83 74/1/82 76/1/82
f 74/1/82 81/2/83 83/2/83
f 84/2/85 75/1/84 73/1/84
f 75/1/84 84/2/85 82/2/85
f 80/2/75 85/3/86 79/2/75
f 85/3/86 80/2/75 86/3/86
f 85/3/87 81/2/77 79/2/77
f 81/2/77 85/3/87 87/3/87
f 88/3/88 82/2/85 84/2/85
f 82/2/85 88/3/88 89/3/88
f 90/3/89 84/2/81 83/2/81
f 84/2/81 90/3/89 88/3/89
f 89/3/90 80/2/79 82/2/79
f 80/2/79 89/3/90 86/3/90
f 93/4/93 92/4/92 91/4/91
f 92/4/92 93/4/93 94/4/94
f 94/4/94 93/4/93 95/4/95
f 94/4/94 95/4/95 96/4/96
f 87/3/97 83/2/83 81/2/83
f 83/2/83 87/3/97 90/3/97
f 85/3/86 96/4/96 95/4/95
f 96/4/96 85/3/86 86/3/86
f 85/3/87 93/4/93 87/3/87
f 93/4/93 85/3/87 95/4/95
f 92/4/92 89/3/88 88/3/88
f 89/3/88 92/4/92 94/4/94
f 91/4/91 88/3/89 90/3/89
f 88/3/89 91/4/91 92/4/92
f 87/3/97 91/4/91 90/3/97
f 91/4/91 87/3/97 93/4/93
f 96/4/96 89/3/90 94/4/94
f 89/3/90 96/4/96 86/3/90
f 99/1/1 98/1/1 97/1/1
f 98/1/1 99/1/1 100/1/1
f 100/1/1 99/1/1 101/1/1
f 100/1/1 101/1/1 102/1/1
f 101/1/98 103/2/99 102/1/98
f 103/2/99 101/1/98 104/2/99
f 103/2/101 100/1/100 102/1/100
f 100/1/100 103/2/101 105/2/101
f 106/2/103 101/1/102 99/1/102
f 101/1/102 106/2/103 104/2/103
f 107/2/105 97/1/104 98/1/104
f 97/1/104 107/2/105 108/2/105
f 105/2/107 98/1/106 100/1/106
f 98/1/106 105/2/107 107/2/107
f 108/2/109 99/1/108 97/1/108
f 99/1/108 108/2/109 106/2/109
f 104/2/99 109/3/110 103/2/99
f 109/3/110 104/2/99 110/3/110
f 109/3/111 105/2/101 103/2/101
f 105/2/101 109/3/111 111/3/111
f 112/3/112 106/2/109 108/2/109
f 106/2/109 112/3/112 113/3/112
f 114/3/113 108/2/105 107/2/105
f 108/2/105 114/3/113 112/3/113
f 113/3/114 104/2/103 106/2/103
f 104/2/103 113/3/114 110/3/114
f 117/4/117 116/4/116 115/4/115
f 116/4/116 117/4/117 118/4/118
f 118/4/118 117/4/117 119/4/119
f 118/4/118 119/4/119 120/4/120
f 111/3/121 107/2/107 105/2/107
f 107/2/107 111/3/121 114/3/121
f 109/3/110 120/4/120 119/4/119
f 120/4/120 109/3/110 110/3/110
f 109/3/111 117/4/117 111/3/111
f 117/4/117 109/3/111 119/4/119
f 116/4/116 113/3/112 112/3/112
f 113/3/112 116/4/116 118/4/118
f 115/4/115 112/3/113 114/3/113
f 112/3/113 115/4/115 116/4/116
f 111/3/121 115/4/115 114/3/121
f 115/4/115 111/3/121 117/4/117
f 120/4/120 113/3/114 118/4/118
f 113/3/114 120/4/120 110/3/114
f 123/1/1 122/1/1 121/1/1
f 122/1/1 123/1/1 124/1/1
f 124/1/1 123/1/1 125/1/1
f 124/1/1 125/1/1 126/1/1
f 125/1/122 127/2/123 126/1/122
f 127/2/123 125/1/122 128/2/123
f 127/2/125 124/1/124 126/1/124
f 124/1/124 127/2/125 129/2/125
f 130/2/127 125/1/126 123/1/126
f 125/1/126 130/2/127 128/2/127
f 131/2/129 121/1/128 122/1/128
f 121/1/128 131/2/129 132/2/129
f 129/2/131 122/1/130 124/1/130
f 122/1/130 129/2/131 131/2/131
f 132/2/133 123/1/132 121/1/132
f 123/1/132 132/2/133 130/2/133
f 133/6/134 132/2/129 131/2/129
f 132/2/129 133/6/134 134/6/134
f 135/6/135 128/2/127 130/2/127
f 128/2/127 135/6/135 136/6/135
f 137/6/136 129/2/125 127/2/125
f 129/2/125 137/6/136 138/6/136
f 134/6/137 130/2/133 132/2/133
f 130/2/133 134/6/137 135/6/137
f 138/6/138 131/2/131 129/2/131
f 131/2/131 138/6/138 133/6/138
f 141/4/141 140/4/140 139/4/139
f 140/4/140 141/4/141 142/4/142
f 142/4/142 141/4/141 143/4/143
f 142/4/142 143/4/143 144/4/144
f 128/2/123 137/6/145 127/2/123
f 137/6/145 128/2/123 136/6/145
f 139/4/139 134/6/134 133/6/134
f 134/6/134 139/4/139 140/4/140
f 142/4/142 136/6/135 135/6/135
f 136/6/135 142/4/142 144/4/144
f 137/6/136 141/4/141 138/6/136
f 141/4/141 137/6/136 143/4/143
f 138/6/138 139/4/139 133/6/138
f 139/4/139 138/6/138 141/4/141
f 140/4/140 135/6/137 134/6/137
f 135/6/137 140/4/140 142/4/142
f 137/6/145 144/4/144 143/4/143
f 144/4/144 137/6/145 136/6/145
f 147/8/148 146/7/147 145/7/146
f 146/7/147 147/8/148 148/8/149
f 150/7/1 146/7/1 149/7/1
f 146/7/1 150/7/1 151/7/1
f 146/7/1 151/7/1 145/7/1
f 145/7/1 151/7/1 152/7/1
f 148/8/149 154/8/151 153/8/150
f 154/8/151 148/8/149 155/8/152
f 155/8/152 148/8/149 147/8/148
f 155/8/152 147/8/148 156/8/153
f 154/8/151 151/7/155 150/7/154
f 151/7/155 154/8/151 155/8/152
f 152/7/156 155/8/152 156/8/153
f 155/8/152 152/7/156 151/7/155
f 148/8/149 149/7/157 146/7/147
f 149/7/157 148/8/149 153/8/150
f 152/7/156 147/8/148 145/7/146
f 147/8/148 152/7/156 156/8/153
f 153/8/150 150/7/154 149/7/157
f 150/7/154 153/8/150 154/8/151
f 159/7/1 158/7/1 157/7/1
f 158/7/1 159/7/1 160/7/1
f 158/7/1 160/7/1 161/7/1
f 161/7/1 160/7/1 162/7/1
f 163/8/160 159/7/159 157/7/158
f 159/7/159 163/8/160 164/8/161
f 165/8/164 158/7/163 161/7/162
f 158/7/163 165/8/164 166/8/165
f 166/8/165 164/8/161 163/8/160
f 164/8/161 166/8/165 167/8/166
f 167/8/166 166/8/165 165/8/164
f 167/8/166 165/8/164 168/8/167
f 166/8/165 157/7/158 158/7/163
f 157/7/158 166/8/165 163/8/160
f 164/8/161 160/7/168 159/7/159
f 160/7/168 164/8/161 167/8/166
f 162/7/169 167/8/166 168/8/167
f 167/8/166 162/7/169 160/7/168
f 162/7/169 165/8/164 161/7/162
f 165/8/164 162/7/169 168/8/167
f 171/7/172 170/8/171 169/7/170
f 170/8/171 171/7/172 172/8/173
f 174/8/175 171/7/172 173/7/174
f 171/7/172 174/8/175 172/8/173
f 170/8/171 175/7/176 169/7/170
f 175/7/176 170/8/171 176/8/177
f 178/7/1 175/7/1 177/7/1
f 175/7/1 178/7/1 173/7/1
f 175/7/1 173/7/1 169/7/1
f 169/7/1 173/7/1 171/7/1
f 179/8/180 178/7/179 177/7/178
f 178/7/179 179/8/180 180/8/181
f 180/8/181 173/7/174 178/7/179
f 173/7/174 180/8/181 174/8/175
f 176/8/177 180/8/181 179/8/180
f 180/8/181 176/8/177 174/8/175
f 174/8/175 176/8/177 170/8/171
f 174/8/175 170/8/171 172/8/173
f 176/8/177 177/7/178 175/7/176
f 177/7/178 176/8/177 179/8/180
f 183/8/184 182/7/183 181/7/182
f 182/7/183 183/8/184 184/8/185
f 187/7/188 186/8/187 185/7/186
f 186/8/187 187/7/188 188/8/189
f 181/7/1 190/7/1 189/7/1
f 190/7/1 181/7/1 182/7/1
f 190/7/1 182/7/1 185/7/1
f 185/7/1 182/7/1 187/7/1
f 192/8/191 183/8/184 191/8/190
f 183/8/184 192/8/191 184/8/185
f 184/8/185 192/8/191 186/8/187
f 184/8/185 186/8/187 188/8/189
f 186/8/187 190/7/192 185/7/186
f 190/7/192 186/8/187 192/8/191
f 192/8/191 189/7/193 190/7/192
f 189/7/193 192/8/191 191/8/190
f 191/8/190 181/7/182 189/7/193
f 181/7/182 191/8/190 183/8/184
f 184/8/185 187/7/188 182/7/183
f 187/7/188 184/8/185 188/8/189
f 195/8/196 194/8/195 193/8/194
f 194/8/195 195/8/196 196/8/197
f 194/8/195 196/8/197 197/8/198
f 197/8/198 196/8/197 198/8/199
f 196/8/197 200/7/201 199/7/200
f 200/7/201 196/8/197 195/8/196
f 194/8/195 201/7/202 193/8/194
f 201/7/202 194/8/195 202/7/203
f 203/7/204 196/8/197 199/7/200
f 196/8/197 203/7/204 198/8/199
f 202/7/1 200/7/1 201/7/1
f 200/7/1 202/7/1 199/7/1
f 199/7/1 202/7/1 204/7/1
f 199/7/1 204/7/1 203/7/1
f 195/8/196 201/7/202 200/7/201
f 201/7/202 195/8/196 193/8/194
f 194/8/195 204/7/205 202/7/203
f 204/7/205 194/8/195 197/8/198
f 204/7/205 198/8/199 203/7/204
f 198/8/199 204/7/205 197/8/198
