mtllib trunk-long.mtl
g trunk-long
v -0.19067 0 -0.19067
v 8.0363e-09 0 -0.26965
v -0.12988 0.16023 -0.12988
v 6.7552e-09 0.16023 -0.18368
v 0.15818 0.85 -0.094935
v 0.11198 0.85 -0.0758
v 0.15293 0.925 -0.10761
v 0.10673 0.925 -0.088474
v 6.9612e-09 0.7 -0.1975
v 0.13965 0.7 -0.13965
v 6.9612e-09 0.85 -0.1975
v 0.13965 0.925 -0.13965
v 6.9612e-09 1 -0.1975
v 0.13965 1 -0.13965
v 0.10139 0.799 -0.10139
v 6.1547e-09 0.799 -0.14338
v 0.10139 0.925 -0.10139
v 6.1547e-09 0.85 -0.14338
v 6.1547e-09 1 -0.14338
v 0.10139 1 -0.10139
v -0.057154 1 0.17383
v 1.0751e-09 1 0.1975
v -0.069827 0.925 0.16858
v 1.0751e-09 0.925 0.1975
v -0.13965 0.85 0.13965
v -0.13965 1 0.13965
v -0.0825 1 0.16333
v -0.13965 0.7 0.13965
v 1.0751e-09 0.7 0.1975
v -0.063366 1 0.11713
v -0.050693 0.925 0.12238
v -0.069605 0.85 -0.16867
v -0.050471 0.85 -0.12247
v -0.26965 0 -8.0363e-09
v -0.18368 0.16023 -6.7552e-09
v -0.19067 0 0.19067
v -0.12988 0.16023 0.12988
v 0.26965 0 0
v 0.19067 0 -0.19067
v 0.19067 0 0.19067
v 0 0 0.26965
v 0.1975 0.85 -1.0751e-09
v 0.13965 0.85 0.13965
v 0.14338 0.85 -1.8816e-09
v 0.10139 0.85 0.10139
v -0.10139 1 0.10139
v -0.10139 0.85 0.10139
v -0.10139 0.925 -0.10139
v -0.10139 0.85 -0.10139
v -0.14338 0.925 -6.1547e-09
v -0.10139 0.799 -0.10139
v -0.14338 0.799 -6.1547e-09
v -0.14338 0.85 -6.1547e-09
v -0.1975 0.7 -6.9612e-09
v -0.1975 0.85 -6.9612e-09
v 1.8816e-09 0.799 0.14338
v 0.10139 0.799 0.10139
v 1.8816e-09 0.925 0.14338
v 0.10139 0.925 0.10139
v -0.038019 1 0.12763
v 1.8816e-09 1 0.14338
v -0.10139 0.799 0.10139
v 0.12988 0.16023 0.12988
v 1.2811e-09 0.16023 0.18368
v 0.14338 0.799 -1.8816e-09
v 0.11723 0.925 -0.063127
v 0.14338 0.925 -1.8816e-09
v 0.18368 0.16023 -1.2811e-09
v -0.075818 0.85 -0.11198
v -0.094952 0.85 -0.15817
v -0.13965 0.85 -0.13965
v -0.063144 0.799 -0.11723
v -0.13965 0.925 -0.13965
v 0.1975 0.925 -1.0751e-09
v 0.16343 0.925 -0.082261
v -0.1975 0.925 -6.9612e-09
v -0.13965 0.7 -0.13965
v 0.13965 0.925 0.13965
v 0.1975 0.7 -1.0751e-09
v -0.082279 0.799 -0.16342
v 0.13965 0.7 0.13965
v 0.12988 0.16023 -0.12988
v -0.22953 0.77583 0.097129
v -0.22779 0.78806 0.10131
v -0.22744 0.76399 0.10215
v -0.22326 0.7935 0.11226
v -0.22277 0.75946 0.11345
v -0.21858 0.78897 0.12355
v -0.21823 0.7649 0.12439
v -0.2165 0.77712 0.12858
v -0.16186 0.81274 0.086041
v -0.18919 0.79779 0.097974
v -0.17152 0.80115 0.062721
v -0.19487 0.79098 0.084266
v -0.17078 0.74986 0.06451
v -0.17521 0.77511 0.053803
v -0.19444 0.76083 0.085317
v -0.19704 0.77567 0.079023
v -0.16081 0.74021 0.088572
v -0.18858 0.75516 0.099461
v -0.15115 0.7518 0.11189
v -0.1829 0.76197 0.11317
v -0.15189 0.80309 0.1101
v -0.18333 0.79212 0.11212
v -0.18073 0.77728 0.11841
v -0.14746 0.77785 0.12081
v 0.021473 0.31587 0.17536
v 0.0023314 0.3512 0.17304
v 0.049749 0.34124 0.2126
v 0.036962 0.36484 0.21105
v 0.073968 0.33221 0.20518
v 0.057731 0.30235 0.16426
v 0.053478 0.3807 0.26937
v 0.068835 0.35235 0.27123
v 0.088783 0.39101 0.182
v 0.064564 0.40004 0.18941
v 0.07991 0.39037 0.12955
v 0.043652 0.40389 0.14065
v 0.097924 0.34151 0.26232
v 0.1237 0.35452 0.24787
v 0.13107 0.38377 0.23633
v 0.060848 0.40995 0.25783
v 0.11572 0.41212 0.23447
v 0.086629 0.42296 0.24338
v 0.10157 0.36741 0.18354
v 0.099052 0.35504 0.13187
v 0.095433 0.34305 0.19315
v 0.089865 0.31858 0.14625
v 0.043099 0.3892 0.20144
v 0.011518 0.38766 0.15866
v 0.26438 0.65155 -0.080851
v 0.25284 0.6808 -0.088221
v 0.26624 0.6232 -0.096208
v 0.23839 0.69382 -0.114
v 0.25734 0.61236 -0.1253
v 0.22948 0.68298 -0.14309
v 0.24288 0.62538 -0.15108
v 0.23135 0.65463 -0.15845
v 0.13566 0.67474 -0.071025
v 0.18442 0.67089 -0.091937
v 0.15368 0.65852 -0.038891
v 0.19646 0.66005 -0.070472
v 0.12456 0.66123 -0.10728
v 0.17701 0.66186 -0.11616
v 0.16805 0.62206 -0.029705
v 0.20606 0.6357 -0.064336
v 0.17037 0.58672 -0.048847
v 0.20761 0.6121 -0.077122
v 0.15928 0.57321 -0.085104
v 0.2002 0.60307 -0.10134
v 0.14126 0.58943 -0.11724
v 0.18816 0.61391 -0.12281
v 0.12688 0.62589 -0.12642
v 0.17856 0.63826 -0.12894
v -0.23695 0.31834 -0.12568
v -0.24096 0.33598 -0.12024
v -0.23852 0.30124 -0.1178
v -0.24819 0.34383 -0.10465
v -0.24475 0.29471 -0.10121
v -0.25442 0.3373 -0.088053
v -0.25198 0.30256 -0.085619
v -0.25599 0.3202 -0.080171
v -0.16112 0.38043 -0.069725
v -0.19937 0.35492 -0.084682
v -0.14571 0.3637 -0.10294
v -0.19031 0.34508 -0.1042
v -0.14052 0.28968 -0.09775
v -0.13718 0.32611 -0.11454
v -0.18726 0.30157 -0.10116
v -0.18529 0.32299 -0.11103
v -0.15379 0.27575 -0.062389
v -0.19506 0.29339 -0.08037
v -0.1692 0.29248 -0.029178
v -0.20412 0.30322 -0.060847
v -0.17439 0.3665 -0.034365
v -0.20717 0.34673 -0.063896
v -0.20914 0.32531 -0.054024
v -0.17774 0.33007 -0.01757
vn -0.62308 0.47281 -0.62308
vn 0 0.47281 -0.88117
vn -0.68525 0.24673 -0.68525
vn 0 0.24673 -0.96908
vn 0 1 0
vn 0.37644 0.17991 0.9088
vn 0 -0.012763 -0.99992
vn 0.70705 -0.012763 -0.70705
vn 0.13677 0 -0.9906
vn 0.84392 0 -0.53647
vn 0.38268 0 -0.92388
vn 0.98079 0 -0.19509
vn -0.70711 0 0.70711
vn 0 0 1
vn -0.60375 0 0.79718
vn -0.13677 0 0.9906
vn -0.38268 0 0.92388
vn 0.55557 0 0.83147
vn 0.2174 0 0.97608
vn -0.70705 -0.012763 0.70705
vn 0 -0.012763 0.99992
vn 0.9088 0.17991 0.37644
vn -0.88117 0.47281 0
vn -0.96908 0.24673 0
vn -0.62308 0.47281 0.62308
vn -0.68525 0.24673 0.68525
vn 0 -1 0
vn -0.70711 0 -0.70711
vn 0.92388 0 0.38268
vn 0.79718 0 0.60375
vn 0.70711 0 0.70711
vn 1 0 0
vn 0.9906 0 0.13677
vn -0.99992 -0.012763 0
vn -0.9906 0 -0.13677
vn 0 0 -1
vn -0.60375 0 -0.79718
vn -0.38268 0 -0.92388
vn 0.60375 0 -0.79718
vn 0.70711 0 -0.70711
vn 0.62308 0.47281 0.62308
vn 0.34287 0.44415 0.82775
vn 0.68525 0.24673 0.68525
vn 0 0.24673 0.96908
vn -0.92388 0 0.38268
vn -1 0 0
vn -0.9906 0 0.13677
vn 0.96908 0.24673 0
vn 0.88117 0.47281 0
vn -0.34287 0.44415 0.82775
vn 0.38268 0 0.92388
vn -0.70705 -0.012763 -0.70705
vn -0.79718 0 -0.60375
vn -0.92388 0 -0.38268
vn 0.98079 0 0.19509
vn 0.84392 0 0.53647
vn -0.9088 0.17991 -0.37644
vn 0.92388 0 -0.38268
vn 0.99992 -0.012763 0
vn 0.9906 0 -0.13677
vn 0.89217 0.25974 -0.36955
vn 0.70705 -0.012763 0.70705
vn 0.62308 0.47281 -0.62308
vn 0.68525 0.24673 -0.68525
vn -0.37644 0.17991 -0.9088
vn -0.89217 0.25974 0.36955
vn -0.95203 -0.024403 -0.30502
vn -0.88621 0.43963 -0.14612
vn -0.87301 -0.47414 -0.11424
vn -0.71411 0.64613 0.26938
vn -0.69543 -0.64613 0.31447
vn -0.53653 0.47414 0.69809
vn -0.52332 -0.43963 0.72997
vn -0.4575 0.024403 0.88887
vn -0.42716 0.8932 0.14042
vn -0.29044 0.95343 0.081328
vn -0.66508 0.60774 -0.43396
vn -0.5444 0.64872 -0.53179
vn -0.64682 -0.65544 -0.38989
vn -0.75607 -0.033734 -0.65362
vn -0.52491 -0.69964 -0.48474
vn -0.64152 -0.036009 -0.76626
vn -0.40134 -0.8932 0.20276
vn -0.26288 -0.95343 0.14786
vn -0.16343 -0.60774 0.77714
vn -0.008918 -0.64872 0.76098
vn -0.18168 0.65544 0.73307
vn -0.028406 0.69964 0.71393
vn 0.088204 0.036009 0.99545
vn -0.07244 0.033734 0.9968
vn -0.40341 -0.5841 0.70434
vn -0.7472 0.050524 0.66268
vn -0.50849 -0.67317 0.53692
vn -0.86994 -0.0059344 0.49312
vn 0.17616 -0.92834 0.32733
vn 0.24776 -0.82679 0.505
vn -0.527 0.12253 0.84099
vn -0.23245 -0.42119 0.87668
vn 0.59495 0.73371 -0.32818
vn -0.089693 0.98888 -0.11859
vn 0.64609 0.75401 -0.11847
vn -0.0050891 0.99671 0.08087
vn 0.32545 -0.62912 0.70589
vn 0.8199 -0.37947 0.42868
vn 0.96126 0.18154 0.20742
vn -0.38564 0.68353 0.61973
vn 0.66672 0.72526 0.17173
vn 0.10881 0.93319 0.34251
vn 0.9564 0.066474 -0.28438
vn 0.98987 0.11939 -0.076811
vn 0.78293 -0.62197 -0.012858
vn 0.82488 -0.5354 0.18144
vn -0.69647 0.68251 0.2216
vn -0.58221 0.70532 0.40443
vn 0.90695 0.15673 0.391
vn 0.71316 0.64808 0.26719
vn 0.93821 -0.31949 0.13303
vn 0.47036 0.86675 -0.16587
vn 0.78862 -0.50161 -0.35561
vn 0.32078 0.68463 -0.65451
vn 0.54582 -0.28295 -0.78868
vn 0.35204 0.20841 -0.91249
vn 0.08087 0.99671 0.005089
vn -0.11779 0.98901 0.089356
vn 0.40443 0.70532 0.58221
vn 0.22236 0.68267 0.69607
vn -0.11847 0.75401 -0.64609
vn -0.32735 0.73387 -0.59522
vn 0.66268 0.050524 0.7472
vn 0.49386 -0.0057047 0.86952
vn 0.70434 -0.5841 0.40341
vn 0.53765 -0.67287 0.50811
vn 0.505 -0.82679 -0.24776
vn 0.32809 -0.92802 -0.17646
vn 0.18144 -0.5354 -0.82488
vn -0.012067 -0.62168 -0.78318
vn -0.076811 0.11939 -0.98987
vn -0.28356 0.066696 -0.95663
vn -0.45251 -0.093855 -0.8868
vn -0.55742 0.36824 -0.7441
vn -0.49365 -0.54172 -0.68033
vn -0.74692 0.57389 -0.3358
vn -0.65674 -0.71299 -0.24562
vn -0.91001 0.40261 0.098911
vn -0.84624 -0.50735 0.16268
vn -0.95115 -0.045253 0.30539
vn -0.47486 0.8486 -0.23321
vn -0.34204 0.92216 -0.18065
vn -0.2129 0.56432 -0.79763
vn -0.062412 0.61871 -0.78314
vn -0.12474 -0.6936 -0.70948
vn -0.067872 -0.074477 -0.99491
vn 0.031683 -0.72403 -0.68904
vn 0.09239 -0.063162 -0.99372
vn -0.3502 -0.93037 -0.10854
vn -0.20897 -0.97676 -0.047583
vn -0.61216 -0.64609 0.45588
vn -0.4886 -0.67332 0.5549
vn -0.70031 0.61183 0.36773
vn -0.5827 0.66942 0.4608
vn -0.6434 0.0085549 0.76548
vn -0.75718 -0.0072897 0.65316
vt 0.21875 0.275
vt 0.21875 0.30705
vt 0.21875 0.445
vt 0.21875 0.46
vt 0.21875 0.415
vt 0.21875 0.475
vt 0.21875 0.4348
vt 0.21875 0.43017
vt 0.21875 0.43261
vt 0.21875 0.4278
vt 0.21875 0.4337
vt 0.21875 0.42689
vt 0.21875 0.43279
vt 0.21875 0.42798
vt 0.21875 0.43042
vt 0.21875 0.43755
vt 0.21875 0.43456
vt 0.21875 0.43523
vt 0.21875 0.4332
vt 0.21875 0.42497
vt 0.21875 0.43002
vt 0.21875 0.42717
vt 0.21875 0.43013
vt 0.21875 0.42304
vt 0.21875 0.42603
vt 0.21875 0.42536
vt 0.21875 0.42739
vt 0.21875 0.43562
vt 0.21875 0.43342
vt 0.21875 0.43046
vt 0.21875 0.43057
vt 0.21875 0.33817
vt 0.21875 0.34524
vt 0.21875 0.34325
vt 0.21875 0.34797
vt 0.21875 0.34144
vt 0.21875 0.33547
vt 0.21875 0.35114
vt 0.21875 0.34547
vt 0.21875 0.3532
vt 0.21875 0.35501
vt 0.21875 0.35307
vt 0.21875 0.35578
vt 0.21875 0.3433
vt 0.21875 0.3459
vt 0.21875 0.35175
vt 0.21875 0.35699
vt 0.21875 0.35742
vt 0.21875 0.35959
vt 0.21875 0.34848
vt 0.21875 0.34601
vt 0.21875 0.34361
vt 0.21875 0.33872
vt 0.21875 0.35284
vt 0.21875 0.35253
vt 0.21875 0.40531
vt 0.21875 0.41116
vt 0.21875 0.39964
vt 0.21875 0.41376
vt 0.21875 0.39747
vt 0.21875 0.4116
vt 0.21875 0.40008
vt 0.21875 0.40593
vt 0.21875 0.40995
vt 0.21875 0.40918
vt 0.21875 0.4067
vt 0.21875 0.40701
vt 0.21875 0.40725
vt 0.21875 0.40737
vt 0.21875 0.39941
vt 0.21875 0.40214
vt 0.21875 0.39234
vt 0.21875 0.39742
vt 0.21875 0.38964
vt 0.21875 0.39561
vt 0.21875 0.39289
vt 0.21875 0.39778
vt 0.21875 0.40018
vt 0.21875 0.40265
vt 0.21875 0.33867
vt 0.21875 0.3422
vt 0.21875 0.33525
vt 0.21875 0.34377
vt 0.21875 0.33394
vt 0.21875 0.34246
vt 0.21875 0.33551
vt 0.21875 0.33904
vt 0.21875 0.35109
vt 0.21875 0.34598
vt 0.21875 0.34774
vt 0.21875 0.34402
vt 0.21875 0.33294
vt 0.21875 0.34022
vt 0.21875 0.33531
vt 0.21875 0.3396
vt 0.21875 0.33015
vt 0.21875 0.33368
vt 0.21875 0.3335
vt 0.21875 0.33564
vt 0.21875 0.3483
vt 0.21875 0.34435
vt 0.21875 0.34006
vt 0.21875 0.34101
vt 0.46875 0.4348
usemtl colormap
f 3/2/3 2/1/2 1/1/1
f 2/1/2 3/2/3 4/2/4
f 7/4/6 6/3/5 5/3/5
f 6/3/5 7/4/6 8/4/6
f 11/3/9 10/5/8 9/5/7
f 10/5/8 11/3/9 12/4/10
f 12/4/10 11/3/9 13/6/11
f 12/4/10 13/6/11 14/6/12
f 17/4/15 16/7/14 15/7/13
f 16/7/14 17/4/15 18/3/16
f 18/3/16 17/4/15 19/6/17
f 19/6/17 17/4/15 20/6/17
f 23/4/17 22/6/18 21/6/17
f 22/6/18 23/4/17 24/4/19
f 25/3/15 24/4/19 23/4/17
f 25/3/15 23/4/17 26/6/17
f 26/6/17 23/4/17 27/6/17
f 28/5/20 24/4/19 25/3/15
f 24/4/19 28/5/20 29/5/21
f 27/6/22 31/4/5 30/6/22
f 31/4/5 27/6/22 23/4/5
f 32/3/5 18/3/5 11/3/5
f 18/3/5 32/3/5 33/3/5
f 36/1/25 35/2/24 34/1/23
f 35/2/24 36/1/25 37/2/26
f 40/1/27 39/1/27 38/1/27
f 39/1/27 40/1/27 2/1/27
f 2/1/27 40/1/27 41/1/27
f 2/1/27 41/1/27 1/1/27
f 1/1/27 41/1/27 36/1/27
f 1/1/27 36/1/27 34/1/27
f 44/3/5 43/3/5 42/3/5
f 43/3/5 44/3/5 45/3/5
f 46/6/5 27/6/5 30/6/5
f 27/6/5 46/6/5 26/6/5
f 26/6/28 47/3/28 25/3/28
f 47/3/28 26/6/28 46/6/28
f 50/4/29 49/3/30 48/4/29
f 49/3/30 50/4/29 51/7/31
f 51/7/31 50/4/29 52/7/32
f 52/7/32 50/4/29 53/3/33
f 28/5/20 55/3/35 54/5/34
f 55/3/35 28/5/20 25/3/15
f 58/4/9 57/7/28 56/7/36
f 57/7/28 58/4/9 45/3/37
f 45/3/37 58/4/9 59/4/38
f 31/4/11 46/6/11 30/6/11
f 46/6/11 31/4/11 47/3/39
f 58/4/9 47/3/39 31/4/11
f 58/4/9 31/4/11 60/6/11
f 58/4/9 60/6/11 61/6/11
f 56/7/36 47/3/39 58/4/9
f 47/3/39 56/7/36 62/7/40
f 63/2/43 41/1/42 40/1/41
f 41/1/42 63/2/43 64/2/44
f 17/4/15 6/3/45 8/4/45
f 15/7/13 6/3/45 17/4/15
f 6/3/45 15/7/13 65/7/46
f 6/3/45 65/7/46 66/4/45
f 66/4/45 65/7/46 67/4/45
f 67/4/45 65/7/46 44/3/47
f 63/2/43 38/1/49 68/2/48
f 38/1/49 63/2/43 40/1/41
f 13/6/5 20/6/5 14/6/5
f 20/6/5 13/6/5 19/6/5
f 57/7/28 44/3/47 65/7/46
f 44/3/47 57/7/28 45/3/37
f 22/6/18 58/4/32 61/6/32
f 58/4/32 22/6/18 24/4/19
f 70/3/5 49/3/5 69/3/5
f 49/3/5 70/3/5 71/3/5
f 64/2/44 36/1/25 41/1/50
f 36/1/25 64/2/44 37/2/26
f 33/3/51 16/7/14 18/3/16
f 16/7/14 33/3/51 72/7/51
f 69/3/51 51/7/31 72/7/51
f 51/7/31 69/3/51 49/3/30
f 48/4/40 71/3/40 73/4/40
f 71/3/40 48/4/40 49/3/40
f 75/4/5 67/4/5 74/4/5
f 67/4/5 75/4/5 66/4/5
f 74/4/14 44/3/14 42/3/14
f 44/3/14 74/4/14 67/4/14
f 73/4/5 50/4/5 48/4/5
f 50/4/5 73/4/5 76/4/5
f 14/6/12 17/4/31 12/4/10
f 17/4/31 14/6/12 20/6/31
f 54/5/34 71/3/53 77/5/52
f 71/3/53 54/5/34 73/4/54
f 73/4/54 54/5/34 76/4/54
f 76/4/54 54/5/34 55/3/35
f 78/4/55 45/3/40 59/4/40
f 45/3/40 78/4/55 43/3/56
f 12/4/5 8/4/5 7/4/5
f 8/4/5 12/4/5 17/4/5
f 34/1/23 3/2/3 1/1/1
f 3/2/3 34/1/23 35/2/24
f 23/4/5 60/6/57 31/4/5
f 60/6/57 23/4/5 21/6/57
f 60/6/5 22/6/5 61/6/5
f 22/6/5 60/6/5 21/6/5
f 59/4/5 24/4/5 78/4/5
f 24/4/5 59/4/5 58/4/5
f 53/3/5 25/3/5 47/3/5
f 25/3/5 53/3/5 55/3/5
f 7/4/58 10/5/8 12/4/10
f 10/5/8 7/4/58 5/3/58
f 10/5/8 5/3/58 79/5/59
f 79/5/59 5/3/58 75/4/58
f 79/5/59 75/4/58 74/4/58
f 79/5/59 74/4/58 42/3/60
f 70/3/61 72/7/5 80/7/5
f 72/7/5 70/3/61 69/3/61
f 43/3/56 29/5/21 81/5/62
f 29/5/21 43/3/56 24/4/19
f 24/4/19 43/3/56 78/4/55
f 43/3/56 79/5/59 42/3/60
f 79/5/59 43/3/56 81/5/62
f 71/3/53 9/5/7 77/5/52
f 9/5/7 71/3/53 80/7/38
f 80/7/38 71/3/53 70/3/38
f 80/7/38 11/3/9 9/5/7
f 11/3/9 80/7/38 32/3/38
f 18/3/46 13/6/46 11/3/46
f 13/6/46 18/3/46 19/6/46
f 47/3/39 52/7/32 53/3/33
f 52/7/32 47/3/39 62/7/40
f 4/2/4 39/1/63 2/1/2
f 39/1/63 4/2/4 82/2/64
f 82/2/64 38/1/49 39/1/63
f 38/1/49 82/2/64 68/2/48
f 6/3/5 75/4/65 5/3/5
f 75/4/65 6/3/5 66/4/65
f 80/7/5 33/3/66 32/3/66
f 33/3/66 80/7/5 72/7/5
f 50/4/14 55/3/14 53/3/14
f 55/3/14 50/4/14 76/4/14
f 29/5/21 37/2/26 64/2/44
f 37/2/26 29/5/21 28/5/20
f 35/2/24 28/5/20 54/5/34
f 28/5/20 35/2/24 37/2/26
f 77/5/52 4/2/4 3/2/3
f 4/2/4 77/5/52 9/5/7
f 79/5/59 82/2/64 10/5/8
f 82/2/64 79/5/59 68/2/48
f 79/5/59 63/2/43 68/2/48
f 63/2/43 79/5/59 81/5/62
f 9/5/7 82/2/64 4/2/4
f 82/2/64 9/5/7 10/5/8
f 81/5/62 64/2/44 63/2/43
f 64/2/44 81/5/62 29/5/21
f 3/2/3 54/5/34 77/5/52
f 54/5/34 3/2/3 35/2/24
f 85/10/69 84/9/68 83/8/67
f 84/9/68 85/10/69 86/11/70
f 86/11/70 85/10/69 87/12/71
f 86/11/70 87/12/71 88/13/72
f 88/13/72 87/12/71 89/14/73
f 88/13/72 89/14/73 90/15/74
f 93/18/77 92/17/76 91/16/75
f 92/17/76 93/18/77 94/19/78
f 97/22/81 96/21/80 95/20/79
f 96/21/80 97/22/81 98/23/82
f 101/26/85 100/25/84 99/24/83
f 100/25/84 101/26/85 102/27/86
f 92/17/76 103/28/87 91/16/75
f 103/28/87 92/17/76 104/29/88
f 98/23/82 93/18/77 96/21/80
f 93/18/77 98/23/82 94/19/78
f 100/25/84 95/20/79 99/24/83
f 95/20/79 100/25/84 97/22/81
f 106/31/90 104/29/88 105/30/89
f 104/29/88 106/31/90 103/28/87
f 106/31/90 102/27/86 101/26/85
f 102/27/86 106/31/90 105/30/89
f 100/25/84 85/10/69 97/22/81
f 85/10/69 100/25/84 87/12/71
f 84/9/68 92/17/76 94/19/78
f 92/17/76 84/9/68 86/11/70
f 105/30/89 88/13/72 90/15/74
f 88/13/72 105/30/89 104/29/88
f 85/10/69 98/23/82 97/22/81
f 98/23/82 85/10/69 83/8/67
f 92/17/76 88/13/72 104/29/88
f 88/13/72 92/17/76 86/11/70
f 105/30/89 89/14/73 102/27/86
f 89/14/73 105/30/89 90/15/74
f 83/8/67 94/19/78 98/23/82
f 94/19/78 83/8/67 84/9/68
f 89/14/73 100/25/84 102/27/86
f 100/25/84 89/14/73 87/12/71
f 109/34/93 108/33/92 107/32/91
f 108/33/92 109/34/93 110/35/94
f 109/34/93 112/37/96 111/36/95
f 112/37/96 109/34/93 107/32/91
f 109/34/93 113/38/97 110/35/94
f 113/38/97 109/34/93 114/39/98
f 117/42/101 116/41/100 115/40/99
f 116/41/100 117/42/101 118/43/102
f 120/45/104 114/39/98 119/44/103
f 114/39/98 120/45/104 113/38/97
f 113/38/97 120/45/104 121/46/105
f 113/38/97 121/46/105 122/47/106
f 122/47/106 121/46/105 123/48/107
f 122/47/106 123/48/107 124/49/108
f 123/48/107 125/50/109 115/40/99
f 125/50/109 123/48/107 121/46/105
f 114/39/98 111/36/95 119/44/103
f 111/36/95 114/39/98 109/34/93
f 115/40/99 126/51/110 117/42/101
f 126/51/110 115/40/99 125/50/109
f 111/36/95 128/53/112 127/52/111
f 128/53/112 111/36/95 112/37/96
f 115/40/99 124/49/108 123/48/107
f 124/49/108 115/40/99 116/41/100
f 121/46/105 127/52/111 125/50/109
f 127/52/111 121/46/105 120/45/104
f 119/44/103 127/52/111 120/45/104
f 127/52/111 119/44/103 111/36/95
f 118/43/102 129/54/113 116/41/100
f 129/54/113 118/43/102 130/55/114
f 108/33/92 129/54/113 130/55/114
f 129/54/113 108/33/92 110/35/94
f 125/50/109 128/53/112 126/51/110
f 128/53/112 125/50/109 127/52/111
f 116/41/100 122/47/106 124/49/108
f 122/47/106 116/41/100 129/54/113
f 110/35/94 122/47/106 129/54/113
f 122/47/106 110/35/94 113/38/97
f 133/58/117 132/57/116 131/56/115
f 132/57/116 133/58/117 134/59/118
f 134/59/118 133/58/117 135/60/119
f 134/59/118 135/60/119 136/61/120
f 136/61/120 135/60/119 137/62/121
f 136/61/120 137/62/121 138/63/122
f 141/66/125 140/65/124 139/64/123
f 140/65/124 141/66/125 142/67/126
f 140/65/124 143/68/127 139/64/123
f 143/68/127 140/65/124 144/69/128
f 146/71/130 141/66/125 145/70/129
f 141/66/125 146/71/130 142/67/126
f 148/73/132 145/70/129 147/72/131
f 145/70/129 148/73/132 146/71/130
f 151/76/135 150/75/134 149/74/133
f 150/75/134 151/76/135 152/77/136
f 153/78/137 152/77/136 151/76/135
f 152/77/136 153/78/137 154/79/138
f 153/78/137 144/69/128 154/79/138
f 144/69/128 153/78/137 143/68/127
f 150/75/134 147/72/131 149/74/133
f 147/72/131 150/75/134 148/73/132
f 131/56/115 148/73/132 133/58/117
f 148/73/132 131/56/115 146/71/130
f 144/69/128 138/63/122 154/79/138
f 138/63/122 144/69/128 136/61/120
f 135/60/119 148/73/132 150/75/134
f 148/73/132 135/60/119 133/58/117
f 140/65/124 136/61/120 144/69/128
f 136/61/120 140/65/124 134/59/118
f 132/57/116 140/65/124 142/67/126
f 140/65/124 132/57/116 134/59/118
f 152/77/136 138/63/122 137/62/121
f 138/63/122 152/77/136 154/79/138
f 152/77/136 135/60/119 150/75/134
f 135/60/119 152/77/136 137/62/121
f 132/57/116 146/71/130 131/56/115
f 146/71/130 132/57/116 142/67/126
f 157/82/141 156/81/140 155/80/139
f 156/81/140 157/82/141 158/83/142
f 158/83/142 157/82/141 159/84/143
f 158/83/142 159/84/143 160/85/144
f 160/85/144 159/84/143 161/86/145
f 160/85/144 161/86/145 162/87/146
f 165/90/149 164/89/148 163/88/147
f 164/89/148 165/90/149 166/91/150
f 169/94/153 168/93/152 167/92/151
f 168/93/152 169/94/153 170/95/154
f 173/98/157 172/97/156 171/96/155
f 172/97/156 173/98/157 174/99/158
f 164/89/148 175/100/159 163/88/147
f 175/100/159 164/89/148 176/101/160
f 170/95/154 165/90/149 168/93/152
f 165/90/149 170/95/154 166/91/150
f 172/97/156 167/92/151 171/96/155
f 167/92/151 172/97/156 169/94/153
f 178/103/162 176/101/160 177/102/161
f 176/101/160 178/103/162 175/100/159
f 178/103/162 174/99/158 173/98/157
f 174/99/158 178/103/162 177/102/161
f 172/97/156 157/82/141 169/94/153
f 157/82/141 172/97/156 159/84/143
f 156/81/140 164/89/148 166/91/150
f 164/89/148 156/81/140 158/83/142
f 177/102/161 160/85/144 162/87/146
f 160/85/144 177/102/161 176/101/160
f 157/82/141 170/95/154 169/94/153
f 170/95/154 157/82/141 155/80/139
f 164/89/148 160/85/144 176/101/160
f 160/85/144 164/89/148 158/83/142
f 177/102/161 161/86/145 174/99/158
f 161/86/145 177/102/161 162/87/146
f 155/80/139 166/91/150 170/95/154
f 166/91/150 155/80/139 156/81/140
f 174/99/158 159/84/143 172/97/156
f 159/84/143 174/99/158 161/86/145
f 15/104/5 57/104/5 65/104/5
f 57/104/5 15/104/5 16/104/5
f 57/104/5 16/104/5 56/104/5
f 56/104/5 16/104/5 72/104/5
f 56/104/5 72/104/5 62/104/5
f 62/104/5 72/104/5 51/104/5
f 62/104/5 51/104/5 52/104/5
g trunk-long
usemtl colormap
f 3/2/3 2/1/2 1/1/1
f 2/1/2 3/2/3 4/2/4
f 7/4/6 6/3/5 5/3/5
f 6/3/5 7/4/6 8/4/6
f 11/3/9 10/5/8 9/5/7
f 10/5/8 11/3/9 12/4/10
f 12/4/10 11/3/9 13/6/11
f 12/4/10 13/6/11 14/6/12
f 17/4/15 16/7/14 15/7/13
f 16/7/14 17/4/15 18/3/16
f 18/3/16 17/4/15 19/6/17
f 19/6/17 17/4/15 20/6/17
f 23/4/17 22/6/18 21/6/17
f 22/6/18 23/4/17 24/4/19
f 25/3/15 24/4/19 23/4/17
f 25/3/15 23/4/17 26/6/17
f 26/6/17 23/4/17 27/6/17
f 28/5/20 24/4/19 25/3/15
f 24/4/19 28/5/20 29/5/21
f 27/6/22 31/4/5 30/6/22
f 31/4/5 27/6/22 23/4/5
f 32/3/5 18/3/5 11/3/5
f 18/3/5 32/3/5 33/3/5
f 36/1/25 35/2/24 34/1/23
f 35/2/24 36/1/25 37/2/26
f 40/1/27 39/1/27 38/1/27
f 39/1/27 40/1/27 2/1/27
f 2/1/27 40/1/27 41/1/27
f 2/1/27 41/1/27 1/1/27
f 1/1/27 41/1/27 36/1/27
f 1/1/27 36/1/27 34/1/27
f 44/3/5 43/3/5 42/3/5
f 43/3/5 44/3/5 45/3/5
f 46/6/5 27/6/5 30/6/5
f 27/6/5 46/6/5 26/6/5
f 26/6/28 47/3/28 25/3/28
f 47/3/28 26/6/28 46/6/28
f 50/4/29 49/3/30 48/4/29
f 49/3/30 50/4/29 51/7/31
f 51/7/31 50/4/29 52/7/32
f 52/7/32 50/4/29 53/3/33
f 28/5/20 55/3/35 54/5/34
f 55/3/35 28/5/20 25/3/15
f 58/4/9 57/7/28 56/7/36
f 57/7/28 58/4/9 45/3/37
f 45/3/37 58/4/9 59/4/38
f 31/4/11 46/6/11 30/6/11
f 46/6/11 31/4/11 47/3/39
f 58/4/9 47/3/39 31/4/11
f 58/4/9 31/4/11 60/6/11
f 58/4/9 60/6/11 61/6/11
f 56/7/36 47/3/39 58/4/9
f 47/3/39 56/7/36 62/7/40
f 63/2/43 41/1/42 40/1/41
f 41/1/42 63/2/43 64/2/44
f 17/4/15 6/3/45 8/4/45
f 15/7/13 6/3/45 17/4/15
f 6/3/45 15/7/13 65/7/46
f 6/3/45 65/7/46 66/4/45
f 66/4/45 65/7/46 67/4/45
f 67/4/45 65/7/46 44/3/47
f 63/2/43 38/1/49 68/2/48
f 38/1/49 63/2/43 40/1/41
f 13/6/5 20/6/5 14/6/5
f 20/6/5 13/6/5 19/6/5
f 57/7/28 44/3/47 65/7/46
f 44/3/47 57/7/28 45/3/37
f 22/6/18 58/4/32 61/6/32
f 58/4/32 22/6/18 24/4/19
f 70/3/5 49/3/5 69/3/5
f 49/3/5 70/3/5 71/3/5
f 64/2/44 36/1/25 41/1/50
f 36/1/25 64/2/44 37/2/26
f 33/3/51 16/7/14 18/3/16
f 16/7/14 33/3/51 72/7/51
f 69/3/51 51/7/31 72/7/51
f 51/7/31 69/3/51 49/3/30
f 48/4/40 71/3/40 73/4/40
f 71/3/40 48/4/40 49/3/40
f 75/4/5 67/4/5 74/4/5
f 67/4/5 75/4/5 66/4/5
f 74/4/14 44/3/14 42/3/14
f 44/3/14 74/4/14 67/4/14
f 73/4/5 50/4/5 48/4/5
f 50/4/5 73/4/5 76/4/5
f 14/6/12 17/4/31 12/4/10
f 17/4/31 14/6/12 20/6/31
f 54/5/34 71/3/53 77/5/52
f 71/3/53 54/5/34 73/4/54
f 73/4/54 54/5/34 76/4/54
f 76/4/54 54/5/34 55/3/35
f 78/4/55 45/3/40 59/4/40
f 45/3/40 78/4/55 43/3/56
f 12/4/5 8/4/5 7/4/5
f 8/4/5 12/4/5 17/4/5
f 34/1/23 3/2/3 1/1/1
f 3/2/3 34/1/23 35/2/24
f 23/4/5 60/6/57 31/4/5
f 60/6/57 23/4/5 21/6/57
f 60/6/5 22/6/5 61/6/5
f 22/6/5 60/6/5 21/6/5
f 59/4/5 24/4/5 78/4/5
f 24/4/5 59/4/5 58/4/5
f 53/3/5 25/3/5 47/3/5
f 25/3/5 53/3/5 55/3/5
f 7/4/58 10/5/8 12/4/10
f 10/5/8 7/4/58 5/3/58
f 10/5/8 5/3/58 79/5/59
f 79/5/59 5/3/58 75/4/58
f 79/5/59 75/4/58 74/4/58
f 79/5/59 74/4/58 42/3/60
f 70/3/61 72/7/5 80/7/5
f 72/7/5 70/3/61 69/3/61
f 43/3/56 29/5/21 81/5/62
f 29/5/21 43/3/56 24/4/19
f 24/4/19 43/3/56 78/4/55
f 43/3/56 79/5/59 42/3/60
f 79/5/59 43/3/56 81/5/62
f 71/3/53 9/5/7 77/5/52
f 9/5/7 71/3/53 80/7/38
f 80/7/38 71/3/53 70/3/38
f 80/7/38 11/3/9 9/5/7
f 11/3/9 80/7/38 32/3/38
f 18/3/46 13/6/46 11/3/46
f 13/6/46 18/3/46 19/6/46
f 47/3/39 52/7/32 53/3/33
f 52/7/32 47/3/39 62/7/40
f 4/2/4 39/1/63 2/1/2
f 39/1/63 4/2/4 82/2/64
f 82/2/64 38/1/49 39/1/63
f 38/1/49 82/2/64 68/2/48
f 6/3/5 75/4/65 5/3/5
f 75/4/65 6/3/5 66/4/65
f 80/7/5 33/3/66 32/3/66
f 33/3/66 80/7/5 72/7/5
f 50/4/14 55/3/14 53/3/14
f 55/3/14 50/4/14 76/4/14
f 29/5/21 37/2/26 64/2/44
f 37/2/26 29/5/21 28/5/20
f 35/2/24 28/5/20 54/5/34
f 28/5/20 35/2/24 37/2/26
f 77/5/52 4/2/4 3/2/3
f 4/2/4 77/5/52 9/5/7
f 79/5/59 82/2/64 10/5/8
f 82/2/64 79/5/59 68/2/48
f 79/5/59 63/2/43 68/2/48
f 63/2/43 79/5/59 81/5/62
f 9/5/7 82/2/64 4/2/4
f 82/2/64 9/5/7 10/5/8
f 81/5/62 64/2/44 63/2/43
f 64/2/44 81/5/62 29/5/21
f 3/2/3 54/5/34 77/5/52
f 54/5/34 3/2/3 35/2/24
f 85/10/69 84/9/68 83/8/67
f 84/9/68 85/10/69 86/11/70
f 86/11/70 85/10/69 87/12/71
f 86/11/70 87/12/71 88/13/72
f 88/13/72 87/12/71 89/14/73
f 88/13/72 89/14/73 90/15/74
f 93/18/77 92/17/76 91/16/75
f 92/17/76 93/18/77 94/19/78
f 97/22/81 96/21/80 95/20/79
f 96/21/80 97/22/81 98/23/82
f 101/26/85 100/25/84 99/24/83
f 100/25/84 101/26/85 102/27/86
f 92/17/76 103/28/87 91/16/75
f 103/28/87 92/17/76 104/29/88
f 98/23/82 93/18/77 96/21/80
f 93/18/77 98/23/82 94/19/78
f 100/25/84 95/20/79 99/24/83
f 95/20/79 100/25/84 97/22/81
f 106/31/90 104/29/88 105/30/89
f 104/29/88 106/31/90 103/28/87
f 106/31/90 102/27/86 101/26/85
f 102/27/86 106/31/90 105/30/89
f 100/25/84 85/10/69 97/22/81
f 85/10/69 100/25/84 87/12/71
f 84/9/68 92/17/76 94/19/78
f 92/17/76 84/9/68 86/11/70
f 105/30/89 88/13/72 90/15/74
f 88/13/72 105/30/89 104/29/88
f 85/10/69 98/23/82 97/22/81
f 98/23/82 85/10/69 83/8/67
f 92/17/76 88/13/72 104/29/88
f 88/13/72 92/17/76 86/11/70
f 105/30/89 89/14/73 102/27/86
f 89/14/73 105/30/89 90/15/74
f 83/8/67 94/19/78 98/23/82
f 94/19/78 83/8/67 84/9/68
f 89/14/73 100/25/84 102/27/86
f 100/25/84 89/14/73 87/12/71
f 109/34/93 108/33/92 107/32/91
f 108/33/92 109/34/93 110/35/94
f 109/34/93 112/37/96 111/36/95
f 112/37/96 109/34/93 107/32/91
f 109/34/93 113/38/97 110/35/94
f 113/38/97 109/34/93 114/39/98
f 117/42/101 116/41/100 115/40/99
f 116/41/100 117/42/101 118/43/102
f 120/45/104 114/39/98 119/44/103
f 114/39/98 120/45/104 113/38/97
f 113/38/97 120/45/104 121/46/105
f 113/38/97 121/46/105 122/47/106
f 122/47/106 121/46/105 123/48/107
f 122/47/106 123/48/107 124/49/108
f 123/48/107 125/50/109 115/40/99
f 125/50/109 123/48/107 121/46/105
f 114/39/98 111/36/95 119/44/103
f 111/36/95 114/39/98 109/34/93
f 115/40/99 126/51/110 117/42/101
f 126/51/110 115/40/99 125/50/109
f 111/36/95 128/53/112 127/52/111
f 128/53/112 111/36/95 112/37/96
f 115/40/99 124/49/108 123/48/107
f 124/49/108 115/40/99 116/41/100
f 121/46/105 127/52/111 125/50/109
f 127/52/111 121/46/105 120/45/104
f 119/44/103 127/52/111 120/45/104
f 127/52/111 119/44/103 111/36/95
f 118/43/102 129/54/113 116/41/100
f 129/54/113 118/43/102 130/55/114
f 108/33/92 129/54/113 130/55/114
f 129/54/113 108/33/92 110/35/94
f 125/50/109 128/53/112 126/51/110
f 128/53/112 125/50/109 127/52/111
f 116/41/100 122/47/106 124/49/108
f 122/47/106 116/41/100 129/54/113
f 110/35/94 122/47/106 129/54/113
f 122/47/106 110/35/94 113/38/97
f 133/58/117 132/57/116 131/56/115
f 132/57/116 133/58/117 134/59/118
f 134/59/118 133/58/117 135/60/119
f 134/59/118 135/60/119 136/61/120
f 136/61/120 135/60/119 137/62/121
f 136/61/120 137/62/121 138/63/122
f 141/66/125 140/65/124 139/64/123
f 140/65/124 141/66/125 142/67/126
f 140/65/124 143/68/127 139/64/123
f 143/68/127 140/65/124 144/69/128
f 146/71/130 141/66/125 145/70/129
f 141/66/125 146/71/130 142/67/126
f 148/73/132 145/70/129 147/72/131
f 145/70/129 148/73/132 146/71/130
f 151/76/135 150/75/134 149/74/133
f 150/75/134 151/76/135 152/77/136
f 153/78/137 152/77/136 151/76/135
f 152/77/136 153/78/137 154/79/138
f 153/78/137 144/69/128 154/79/138
f 144/69/128 153/78/137 143/68/127
f 150/75/134 147/72/131 149/74/133
f 147/72/131 150/75/134 148/73/132
f 131/56/115 148/73/132 133/58/117
f 148/73/132 131/56/115 146/71/130
f 144/69/128 138/63/122 154/79/138
f 138/63/122 144/69/128 136/61/120
f 135/60/119 148/73/132 150/75/134
f 148/73/132 135/60/119 133/58/117
f 140/65/124 136/61/120 144/69/128
f 136/61/120 140/65/124 134/59/118
f 132/57/116 140/65/124 142/67/126
f 140/65/124 132/57/116 134/59/118
f 152/77/136 138/63/122 137/62/121
f 138/63/122 152/77/136 154/79/138
f 152/77/136 135/60/119 150/75/134
f 135/60/119 152/77/136 137/62/121
f 132/57/116 146/71/130 131/56/115
f 146/71/130 132/57/116 142/67/126
f 157/82/141 156/81/140 155/80/139
f 156/81/140 157/82/141 158/83/142
f 158/83/142 157/82/141 159/84/143
f 158/83/142 159/84/143 160/85/144
f 160/85/144 159/84/143 161/86/145
f 160/85/144 161/86/145 162/87/146
f 165/90/149 164/89/148 163/88/147
f 164/89/148 165/90/149 166/91/150
f 169/94/153 168/93/152 167/92/151
f 168/93/152 169/94/153 170/95/154
f 173/98/157 172/97/156 171/96/155
f 172/97/156 173/98/157 174/99/158
f 164/89/148 175/100/159 163/88/147
f 175/100/159 164/89/148 176/101/160
f 170/95/154 165/90/149 168/93/152
f 165/90/149 170/95/154 166/91/150
f 172/97/156 167/92/151 171/96/155
f 167/92/151 172/97/156 169/94/153
f 178/103/162 176/101/160 177/102/161
f 176/101/160 178/103/162 175/100/159
f 178/103/162 174/99/158 173/98/157
f 174/99/158 178/103/162 177/102/161
f 172/97/156 157/82/141 169/94/153
f 157/82/141 172/97/156 159/84/143
f 156/81/140 164/89/148 166/91/150
f 164/89/148 156/81/140 158/83/142
f 177/102/161 160/85/144 162/87/146
f 160/85/144 177/102/161 176/101/160
f 157/82/141 170/95/154 169/94/153
f 170/95/154 157/82/141 155/80/139
f 164/89/148 160/85/144 176/101/160
f 160/85/144 164/89/148 158/83/142
f 177/102/161 161/86/145 174/99/158
f 161/86/145 177/102/161 162/87/146
f 155/80/139 166/91/150 170/95/154
f 166/91/150 155/80/139 156/81/140
f 174/99/158 159/84/143 172/97/156
f 159/84/143 174/99/158 161/86/145
f 15/104/5 57/104/5 65/104/5
f 57/104/5 15/104/5 16/104/5
f 57/104/5 16/104/5 56/104/5
f 56/104/5 16/104/5 72/104/5
f 56/104/5 72/104/5 62/104/5
f 62/104/5 72/104/5 51/104/5
f 62/104/5 51/104/5 52/104/5
