mtllib bridge.mtl
g bridge
v 0.20326 0.13191 0.375
v 0.11572 0.11505 0.4
v 0.20326 0.13191 -0.375
v 0.11572 0.11505 -0.40111
v 0.028178 0.098196 -0.375
v 0.028178 0.098196 0.375
v 0.047089 0 -0.375
v 0.047089 1.4664e-16 0.375
v 0.22217 0.033717 -0.375
v 0.22217 0.033717 0.375
v 0.13463 0.016859 -0.40111
v 0.13463 0.016859 0.4
v -0.028178 0.098196 -0.375
v -0.028178 0.098196 0.375
v -0.11572 0.11505 -0.40111
v -0.11572 0.11505 0.4
v -0.20326 0.13191 -0.375
v -0.20326 0.13191 0.375
v -0.22217 0.033717 -0.375
v -0.22217 0.033717 0.375
v -0.047089 -3.6096e-16 -0.375
v -0.047089 0 0.375
v -0.13463 0.016859 0.4
v -0.13463 0.016859 -0.40111
v -0.45793 0.16392 -0.37347
v -0.4039 0.24807 -0.37347
v -0.45793 0.16392 0.37347
v -0.4039 0.24807 0.37347
v -0.25731 0.15395 0.37347
v -0.3306 0.20101 0.39847
v -0.25731 0.15395 -0.37347
v -0.3306 0.20101 -0.39957
v -0.31133 0.069799 -0.37347
v -0.31133 0.069799 0.37347
v -0.38463 0.11686 0.39847
v -0.38463 0.11686 -0.39957
v 0.25558 0.15284 -0.375
v 0.25558 0.15284 0.375
v 0.30961 0.068694 -0.375
v 0.30961 0.068694 0.375
v 0.45965 0.16502 -0.375
v 0.45965 0.16502 0.375
v 0.40562 0.24917 -0.375
v 0.40562 0.24917 0.375
v 0.38463 0.11686 -0.40111
v 0.38463 0.11686 0.4
v 0.3306 0.20101 0.4
v 0.3306 0.20101 -0.40111
v 0.4873 0.46072 0.26764
v 0.5127 0.42115 0.26764
v 0.47945 0.47294 0.31236
v 0.52055 0.40892 0.31236
v 0.5 0.44093 0.34
v -0.5127 0.42115 0.26764
v -0.4873 0.46072 0.26764
v -0.52055 0.40892 0.31236
v -0.47945 0.47294 0.31236
v -0.5 0.44093 0.34
v -0.25487 0.32876 0.31236
v -0.26037 0.31502 0.26764
v -0.27815 0.27055 0.26764
v -0.28365 0.25682 0.31236
v -0.26926 0.29279 0.34
v 0.26926 0.29279 0.34
v 0.25487 0.32876 0.31236
v 0.30961 0.31869 0.34
v 0.45965 0.41502 0.34
v 0.28906 0.35071 0.31236
v 0.43909 0.44704 0.31236
v -9.0239e-17 0.26487 0.26764
v -9.0239e-17 0.27967 0.31236
v -0.042643 0.27309 0.26764
v -0.039895 0.28736 0.31236
v -0.21497 0.32107 0.31236
v -0.21772 0.3068 0.26764
v -0.22662 0.26063 0.26764
v 0.22662 0.26063 0.26764
v 0.27815 0.27055 0.26764
v 0.051535 0.22691 0.26764
v -0.051535 0.22691 0.26764
v -9.0239e-17 0.21699 0.26764
v 0.042643 0.27309 0.26764
v 0.32231 0.29891 0.26764
v 0.21772 0.3068 0.26764
v 0.26037 0.31502 0.26764
v 0.47235 0.39524 0.26764
v 0.29691 0.33848 0.26764
v 0.44694 0.43481 0.26764
v 0.4802 0.38301 0.31236
v 0.33016 0.28668 0.31236
v 0.28365 0.25682 0.31236
v 0.21497 0.32107 0.31236
v 0.039895 0.28736 0.31236
v -9.0239e-17 0.24093 0.34
v 0.047089 0.25 0.34
v 0.22217 0.28372 0.34
v -0.047089 0.25 0.34
v -0.22217 0.28372 0.34
v -9.0239e-17 0.20219 0.31236
v -0.054283 0.21264 0.31236
v -0.22936 0.24636 0.31236
v 0.054283 0.21264 0.31236
v 0.22936 0.24636 0.31236
v 0.4873 0.46072 -0.26875
v 0.5127 0.42115 -0.26875
v 0.47945 0.47294 -0.31347
v 0.52055 0.40892 -0.31347
v 0.5 0.44093 -0.34111
v -0.5127 0.42115 -0.26875
v -0.4873 0.46072 -0.26875
v -0.52055 0.40892 -0.31347
v -0.47945 0.47294 -0.31347
v -0.5 0.44093 -0.34111
v -0.25487 0.32876 -0.31347
v -0.26037 0.31502 -0.26875
v -0.27815 0.27055 -0.26875
v -0.28365 0.25682 -0.31347
v -0.26926 0.29279 -0.34111
v 0.26926 0.29279 -0.34111
v 0.25487 0.32876 -0.31347
v 0.30961 0.31869 -0.34111
v 0.45965 0.41502 -0.34111
v 0.28906 0.35071 -0.31347
v 0.43909 0.44704 -0.31347
v 1.1731e-15 0.26487 -0.26875
v 1.1731e-15 0.27967 -0.31347
v -0.042643 0.27309 -0.26875
v -0.039895 0.28736 -0.31347
v -0.21497 0.32107 -0.31347
v -0.21772 0.3068 -0.26875
v -0.22662 0.26063 -0.26875
v 0.22662 0.26063 -0.26875
v 0.27815 0.27055 -0.26875
v 0.051535 0.22691 -0.26875
v -0.051535 0.22691 -0.26875
v 1.1731e-15 0.21699 -0.26875
v 0.042643 0.27309 -0.26875
v 0.32231 0.29891 -0.26875
v 0.21772 0.3068 -0.26875
v 0.26037 0.31502 -0.26875
v 0.47235 0.39524 -0.26875
v 0.29691 0.33848 -0.26875
v 0.44694 0.43481 -0.26875
v 0.4802 0.38301 -0.31347
v 0.33016 0.28668 -0.31347
v 0.28365 0.25682 -0.31347
v 0.21497 0.32107 -0.31347
v 0.039895 0.28736 -0.31347
v 1.1731e-15 0.24093 -0.34111
v 0.047089 0.25 -0.34111
v 0.22217 0.28372 -0.34111
v -0.047089 0.25 -0.34111
v -0.22217 0.28372 -0.34111
v 1.1731e-15 0.20219 -0.31347
v -0.054283 0.21264 -0.31347
v -0.22936 0.24636 -0.31347
v 0.054283 0.21264 -0.31347
v 0.22936 0.24636 -0.31347
v 0.3606 0.33427 0.3
v 0.3606 0.1517 0.3
v 0.33987 0.33427 0.32853
v 0.33987 0.1517 0.32853
v 0.33987 0.33427 0.27147
v 0.33987 0.1517 0.27147
v 0.30633 0.1517 0.28237
v 0.30633 0.33427 0.28237
v 0.30633 0.1517 0.31763
v 0.30633 0.33427 0.31763
v -0.35487 0.1517 -0.28347
v -0.35487 0.33427 -0.28347
v -0.35487 0.1517 -0.31874
v -0.35487 0.33427 -0.31874
v -0.32133 0.1517 -0.32964
v -0.32133 0.33427 -0.32964
v -0.3006 0.33427 -0.30111
v -0.3006 0.1517 -0.30111
v -0.32133 0.33427 -0.27257
v -0.32133 0.1517 -0.27257
v -0.13999 0.058074 -0.28347
v -0.13999 0.26905 -0.28347
v -0.13999 0.058074 -0.31874
v -0.13999 0.26905 -0.31874
v -0.10645 0.058074 -0.32964
v -0.10645 0.26905 -0.32964
v -0.10645 0.058074 -0.27257
v -0.10645 0.26905 -0.27257
v -0.085718 0.26905 -0.30111
v -0.085718 0.058074 -0.30111
v -0.35487 0.1517 0.28237
v -0.35487 0.33427 0.28237
v -0.35487 0.1517 0.31763
v -0.35487 0.33427 0.31763
v -0.32133 0.1517 0.32853
v -0.32133 0.33427 0.32853
v -0.3006 0.33427 0.3
v -0.3006 0.1517 0.3
v -0.32133 0.33427 0.27147
v -0.32133 0.1517 0.27147
v -0.13999 0.058074 0.28237
v -0.13999 0.26905 0.28237
v -0.13999 0.058074 0.31763
v -0.13999 0.26905 0.31763
v -0.10645 0.058074 0.32853
v -0.10645 0.26905 0.32853
v -0.10645 0.058074 0.27147
v -0.10645 0.26905 0.27147
v -0.085718 0.26905 0.3
v -0.085718 0.058074 0.3
v 0.12499 0.26905 -0.27257
v 0.12499 0.058074 -0.27257
v 0.14572 0.26905 -0.30111
v 0.14572 0.058074 -0.30111
v 0.091448 0.058074 -0.28347
v 0.091448 0.26905 -0.28347
v 0.091448 0.058074 -0.31874
v 0.091448 0.26905 -0.31874
v 0.12499 0.058074 -0.32964
v 0.12499 0.26905 -0.32964
v 0.3606 0.33427 -0.30111
v 0.3606 0.1517 -0.30111
v 0.33987 0.33427 -0.32964
v 0.33987 0.1517 -0.32964
v 0.33987 0.33427 -0.27257
v 0.33987 0.1517 -0.27257
v 0.30633 0.1517 -0.28347
v 0.30633 0.33427 -0.28347
v 0.30633 0.1517 -0.31874
v 0.30633 0.33427 -0.31874
v 0.12499 0.26905 0.27147
v 0.12499 0.058074 0.27147
v 0.14572 0.26905 0.3
v 0.14572 0.058074 0.3
v 0.091448 0.058074 0.28237
v 0.091448 0.26905 0.28237
v 0.091448 0.058074 0.31763
v 0.091448 0.26905 0.31763
v 0.12499 0.058074 0.32853
v 0.12499 0.26905 0.32853
vn -0.18911 0.98196 0
vn -0.98196 -0.18911 0
vn 0.98196 0.18911 0
vn 0.18911 -0.98196 0
vn 0 0 1
vn 0.26514 0.051062 0.96286
vn -0.26514 -0.051062 0.96286
vn 0 0 -1
vn 0.27597 0.053146 -0.9597
vn -0.27597 -0.053146 -0.9597
vn 0.18911 0.98196 0
vn -0.98196 0.18911 0
vn 0.98196 -0.18911 0
vn 0.26514 -0.051062 0.96286
vn -0.18911 -0.98196 0
vn -0.26514 0.051062 0.96286
vn -0.27597 0.053146 -0.9597
vn 0.27597 -0.053146 -0.9597
vn -0.84149 0.54027 0
vn 0.54027 0.84149 0
vn 0.84149 -0.54027 0
vn -0.54027 -0.84149 0
vn -0.23215 0.14905 0.96119
vn 0.23215 -0.14905 0.96119
vn 0.24159 -0.15511 -0.9579
vn -0.24159 0.15511 -0.9579
vn -0.84149 -0.54027 0
vn 0.84149 0.54027 0
vn 0.54027 -0.84149 0
vn -0.54027 0.84149 0
vn 0.22722 0.14588 0.96286
vn -0.22722 -0.14588 0.96286
vn 0.23649 0.15184 -0.9597
vn -0.23649 -0.15184 -0.9597
vn 0.35008 0.87519 0.3339
vn 0.51383 0.80031 0.30902
vn 0.19875 0.49687 -0.84476
vn 0.31756 0.49462 -0.80902
vn -0.23341 -0.58352 -0.77784
vn -0.31756 -0.49462 -0.80902
vn -0.35528 -0.88821 0.29131
vn -0.51383 -0.80031 0.30902
vn -0.026007 -0.065018 0.99755
vn 0.026007 -0.065018 0.99755
vn -0.35008 0.87519 0.3339
vn -0.51383 0.80031 0.30902
vn 0 0.53514 -0.84476
vn 0 0.94261 0.3339
vn 0.11115 0.57718 -0.80902
vn 0.17985 0.9339 0.30902
vn -0.11115 -0.57718 -0.80902
vn 0.11115 -0.57718 -0.80902
vn 0.23341 -0.58352 -0.77784
vn 0 -0.62847 -0.77784
vn -0.11115 0.57718 -0.80902
vn 0.31756 -0.49462 -0.80902
vn -0.19875 0.49687 -0.84476
vn -0.31756 0.49462 -0.80902
vn 0.51383 -0.80031 0.30902
vn 0.35528 -0.88821 0.29131
vn -0.17985 0.9339 0.30902
vn 0 -0.070027 0.99755
vn 0 -0.95663 0.29131
vn -0.17985 -0.9339 0.30902
vn 0.17985 -0.9339 0.30902
vn 0.35008 0.87519 -0.3339
vn 0.51383 0.80031 -0.30902
vn 0.19875 0.49687 0.84476
vn 0.31756 0.49462 0.80902
vn -0.23341 -0.58352 0.77784
vn -0.31756 -0.49462 0.80902
vn -0.35528 -0.88821 -0.29131
vn -0.51383 -0.80031 -0.30902
vn -0.026007 -0.065018 -0.99755
vn 0.026007 -0.065018 -0.99755
vn -0.35008 0.87519 -0.3339
vn -0.51383 0.80031 -0.30902
vn 0 0.53514 0.84476
vn 0 0.94261 -0.3339
vn 0.11115 0.57718 0.80902
vn 0.17985 0.9339 -0.30902
vn -0.11115 -0.57718 0.80902
vn 0.11115 -0.57718 0.80902
vn 0.23341 -0.58352 0.77784
vn 0 -0.62847 0.77784
vn -0.11115 0.57718 0.80902
vn 0.31756 -0.49462 0.80902
vn -0.19875 0.49687 0.84476
vn -0.31756 0.49462 0.80902
vn 0.51383 -0.80031 -0.30902
vn 0.35528 -0.88821 -0.29131
vn -0.17985 0.9339 -0.30902
vn 0 -0.070027 -0.99755
vn 0 -0.95663 -0.29131
vn -0.17985 -0.9339 -0.30902
vn 0.17985 -0.9339 -0.30902
vn 1 0 0
vn 0.30902 0 0.95106
vn 0.30902 0 -0.95106
vn -0.80902 0 -0.58779
vn -0.80902 0 0.58779
vt 0.96875 0.225
vt 0.96875 0.19944
vt 0.96875 0.17388
vt 0.96875 0.025
vt 0.96875 0.076121
vt 0.96875 0.05056
vt 0.96875 0.13059
vt 0.96875 0.11941
vt 0.96875 0.1722
vt 0.96875 0.077796
vt 0.96875 0.11825
vt 0.96875 0.13175
vt 0.96875 0.078374
vt 0.96875 0.17163
vt 0.21875 0.47139
vt 0.21875 0.4597
vt 0.21875 0.475
vt 0.21875 0.45608
vt 0.21875 0.46554
vt 0.21875 0.4324
vt 0.21875 0.42834
vt 0.21875 0.4152
vt 0.21875 0.41114
vt 0.21875 0.42177
vt 0.21875 0.42942
vt 0.21875 0.45789
vt 0.21875 0.43888
vt 0.21875 0.46734
vt 0.21875 0.41352
vt 0.21875 0.41789
vt 0.21875 0.41595
vt 0.21875 0.42016
vt 0.21875 0.43013
vt 0.21875 0.42591
vt 0.21875 0.41227
vt 0.21875 0.4023
vt 0.21875 0.39937
vt 0.21875 0.42358
vt 0.21875 0.45204
vt 0.21875 0.43527
vt 0.21875 0.46373
vt 0.21875 0.44843
vt 0.21875 0.41996
vt 0.21875 0.40645
vt 0.21875 0.40913
vt 0.21875 0.41909
vt 0.21875 0.395
vt 0.21875 0.39809
vt 0.21875 0.40805
vt 0.21875 0.275
usemtl colormap
f 3/1/1 2/2/1 1/1/1
f 2/2/1 3/1/1 4/2/1
f 2/2/1 4/2/1 5/3/1
f 2/2/1 5/3/1 6/3/1
f 7/4/2 6/3/2 5/3/2
f 6/3/2 7/4/2 8/4/2
f 1/1/3 9/5/3 3/1/3
f 9/5/3 1/1/3 10/5/3
f 10/5/4 11/6/4 9/5/4
f 11/6/4 10/5/4 12/6/4
f 11/6/4 12/6/4 7/4/4
f 7/4/4 12/6/4 8/4/4
f 10/5/6 2/2/5 12/6/5
f 2/2/5 10/5/6 1/1/6
f 12/6/5 6/3/7 8/4/7
f 6/3/7 12/6/5 2/2/5
f 4/2/8 9/5/9 11/6/8
f 9/5/9 4/2/8 3/1/9
f 5/3/10 11/6/8 7/4/10
f 11/6/8 5/3/10 4/2/8
f 15/2/11 14/3/11 13/3/11
f 14/3/11 15/2/11 16/2/11
f 16/2/11 15/2/11 17/1/11
f 16/2/11 17/1/11 18/1/11
f 19/5/12 18/1/12 17/1/12
f 18/1/12 19/5/12 20/5/12
f 14/3/13 21/4/13 13/3/13
f 21/4/13 14/3/13 22/4/13
f 14/3/14 23/6/5 22/4/14
f 23/6/5 14/3/14 16/2/5
f 22/4/15 24/6/15 21/4/15
f 24/6/15 22/4/15 23/6/15
f 24/6/15 23/6/15 19/5/15
f 19/5/15 23/6/15 20/5/15
f 16/2/5 20/5/16 23/6/5
f 20/5/16 16/2/5 18/1/16
f 19/5/17 15/2/8 24/6/8
f 15/2/8 19/5/17 17/1/17
f 24/6/8 13/3/18 21/4/18
f 13/3/18 24/6/8 15/2/8
f 27/7/19 26/1/19 25/7/19
f 26/1/19 27/7/19 28/1/19
f 31/8/20 30/9/20 29/8/20
f 30/9/20 31/8/20 32/9/20
f 30/9/20 32/9/20 26/1/20
f 30/9/20 26/1/20 28/1/20
f 31/8/21 34/4/21 33/4/21
f 34/4/21 31/8/21 29/8/21
f 35/10/22 33/4/22 34/4/22
f 33/4/22 35/10/22 36/10/22
f 36/10/22 35/10/22 25/7/22
f 25/7/22 35/10/22 27/7/22
f 30/9/5 27/7/23 35/10/5
f 27/7/23 30/9/5 28/1/23
f 29/8/24 35/10/5 34/4/24
f 35/10/5 29/8/24 30/9/5
f 36/10/8 31/8/25 33/4/25
f 31/8/25 36/10/8 32/9/8
f 25/7/26 32/9/8 36/10/8
f 32/9/8 25/7/26 26/1/26
f 39/4/27 38/11/27 37/11/27
f 38/11/27 39/4/27 40/4/27
f 43/1/28 42/12/28 41/12/28
f 42/12/28 43/1/28 44/1/28
f 42/12/29 45/13/29 41/12/29
f 45/13/29 42/12/29 46/13/29
f 45/13/29 46/13/29 39/4/29
f 39/4/29 46/13/29 40/4/29
f 43/1/30 47/14/30 44/1/30
f 47/14/30 43/1/30 48/14/30
f 47/14/30 48/14/30 38/11/30
f 38/11/30 48/14/30 37/11/30
f 42/12/31 47/14/5 46/13/5
f 47/14/5 42/12/31 44/1/31
f 46/13/5 38/11/32 40/4/32
f 38/11/32 46/13/5 47/14/5
f 48/14/8 41/12/33 45/13/8
f 41/12/33 48/14/8 43/1/33
f 37/11/34 45/13/8 39/4/34
f 45/13/8 37/11/34 48/14/8
f 51/17/28 50/16/28 49/15/28
f 50/16/28 51/17/28 52/18/28
f 52/18/28 51/17/28 53/19/28
f 56/18/19 55/15/19 54/16/19
f 55/15/19 56/18/19 57/17/19
f 57/17/19 56/18/19 58/19/19
f 60/21/37 57/17/36 59/20/35
f 57/17/36 60/21/37 55/15/38
f 62/23/41 54/16/40 61/22/39
f 54/16/40 62/23/41 56/18/42
f 63/24/43 56/18/42 62/23/41
f 56/18/42 63/24/43 58/19/5
f 59/20/35 58/19/5 63/24/43
f 58/19/5 59/20/35 57/17/36
f 66/25/5 65/20/45 64/24/44
f 65/20/45 66/25/5 67/26/5
f 65/20/45 67/26/5 68/27/46
f 68/27/46 67/26/5 69/28/46
f 69/28/46 67/26/5 53/19/5
f 69/28/46 53/19/5 51/17/46
f 72/31/49 71/30/48 70/29/47
f 71/30/48 72/31/49 73/32/50
f 73/32/50 72/31/49 74/33/50
f 74/33/50 72/31/49 75/34/49
f 74/33/50 75/34/49 59/20/35
f 59/20/35 75/34/49 60/21/37
f 60/21/37 54/16/40 55/15/38
f 60/21/37 61/22/39 54/16/40
f 75/34/49 61/22/39 60/21/37
f 72/31/49 61/22/39 75/34/49
f 70/29/47 61/22/39 72/31/49
f 61/22/39 70/29/47 76/35/51
f 77/35/52 76/35/51 70/29/47
f 77/35/52 70/29/47 78/22/53
f 79/36/52 76/35/51 77/35/52
f 79/36/52 80/36/51 76/35/51
f 80/36/51 79/36/52 81/37/54
f 78/22/53 70/29/47 82/31/55
f 78/22/53 82/31/55 83/38/56
f 83/38/56 82/31/55 84/34/55
f 83/38/56 84/34/55 85/21/57
f 83/38/56 85/21/57 86/39/56
f 86/39/56 85/21/57 87/40/58
f 86/39/56 87/40/58 88/41/58
f 86/39/56 88/41/58 50/16/56
f 50/16/56 88/41/58 49/15/58
f 89/42/59 50/16/56 52/18/59
f 50/16/56 89/42/59 86/39/56
f 86/39/56 89/42/59 90/43/59
f 86/39/56 90/43/59 83/38/56
f 83/38/56 90/43/59 91/23/60
f 83/38/56 91/23/60 78/22/53
f 84/34/55 65/20/45 85/21/57
f 65/20/45 84/34/55 92/33/61
f 92/33/61 84/34/55 82/31/55
f 92/33/61 82/31/55 93/32/61
f 93/32/61 82/31/55 70/29/47
f 93/32/61 70/29/47 71/30/48
f 95/45/5 71/30/48 94/44/62
f 71/30/48 95/45/5 96/46/5
f 71/30/48 96/46/5 93/32/61
f 93/32/61 96/46/5 64/24/44
f 93/32/61 64/24/44 92/33/61
f 92/33/61 64/24/44 65/20/45
f 71/30/48 97/45/5 94/44/62
f 97/45/5 71/30/48 98/46/5
f 98/46/5 71/30/48 73/32/50
f 98/46/5 73/32/50 63/24/43
f 63/24/43 73/32/50 74/33/50
f 63/24/43 74/33/50 59/20/35
f 100/48/64 81/37/54 99/47/63
f 81/37/54 100/48/64 80/36/51
f 80/36/51 100/48/64 76/35/51
f 76/35/51 100/48/64 101/49/64
f 76/35/51 101/49/64 61/22/39
f 61/22/39 101/49/64 62/23/41
f 102/48/65 94/44/62 99/47/63
f 94/44/62 102/48/65 103/49/65
f 94/44/62 103/49/65 95/45/5
f 95/45/5 103/49/65 91/23/60
f 95/45/5 91/23/60 96/46/5
f 96/46/5 91/23/60 64/24/44
f 94/44/62 100/48/64 99/47/63
f 100/48/64 94/44/62 101/49/64
f 101/49/64 94/44/62 97/45/5
f 101/49/64 97/45/5 62/23/41
f 62/23/41 97/45/5 98/46/5
f 62/23/41 98/46/5 63/24/43
f 88/41/58 51/17/46 49/15/58
f 51/17/46 88/41/58 69/28/46
f 69/28/46 88/41/58 87/40/58
f 69/28/46 87/40/58 68/27/46
f 68/27/46 87/40/58 85/21/57
f 68/27/46 85/21/57 65/20/45
f 90/43/59 64/24/44 91/23/60
f 64/24/44 90/43/59 89/42/59
f 64/24/44 89/42/59 66/25/5
f 66/25/5 89/42/59 67/26/5
f 67/26/5 89/42/59 52/18/59
f 67/26/5 52/18/59 53/19/5
f 103/49/65 78/22/53 91/23/60
f 78/22/53 103/49/65 77/35/52
f 77/35/52 103/49/65 102/48/65
f 77/35/52 102/48/65 79/36/52
f 79/36/52 102/48/65 99/47/63
f 79/36/52 99/47/63 81/37/54
f 136/37/85 154/47/94 134/36/83
f 154/47/94 157/48/96 134/36/83
f 134/36/83 157/48/96 132/35/83
f 157/48/96 158/49/96 132/35/83
f 132/35/83 158/49/96 133/22/84
f 146/23/91 133/22/84 158/49/96
f 108/19/8 107/18/90 122/26/8
f 107/18/90 144/42/90 122/26/8
f 122/26/8 144/42/90 121/25/8
f 121/25/8 144/42/90 119/24/75
f 144/42/90 145/43/90 119/24/75
f 146/23/91 119/24/75 145/43/90
f 120/20/76 140/21/88 123/27/77
f 140/21/88 142/40/89 123/27/77
f 123/27/77 142/40/89 124/28/77
f 142/40/89 143/41/89 124/28/77
f 124/28/77 143/41/89 106/17/77
f 104/15/89 106/17/77 143/41/89
f 118/24/74 153/46/8 117/23/72
f 153/46/8 152/45/8 117/23/72
f 117/23/72 152/45/8 156/49/95
f 152/45/8 149/44/93 156/49/95
f 156/49/95 149/44/93 155/48/95
f 154/47/94 155/48/95 149/44/93
f 119/24/75 146/23/91 151/46/8
f 151/46/8 146/23/91 150/45/8
f 146/23/91 158/49/96 150/45/8
f 150/45/8 158/49/96 149/44/93
f 158/49/96 157/48/96 149/44/93
f 154/47/94 149/44/93 157/48/96
f 117/23/72 156/49/95 116/22/70
f 116/22/70 156/49/95 131/35/82
f 156/49/95 155/48/95 131/35/82
f 131/35/82 155/48/95 135/36/82
f 135/36/82 155/48/95 136/37/85
f 154/47/94 136/37/85 155/48/95
f 114/20/66 129/33/81 118/24/74
f 129/33/81 128/32/81 118/24/74
f 118/24/74 128/32/81 153/46/8
f 128/32/81 126/30/79 153/46/8
f 153/46/8 126/30/79 152/45/8
f 149/44/93 152/45/8 126/30/79
f 120/20/76 119/24/75 147/33/92
f 147/33/92 119/24/75 148/32/92
f 119/24/75 151/46/8 148/32/92
f 148/32/92 151/46/8 126/30/79
f 151/46/8 150/45/8 126/30/79
f 149/44/93 126/30/79 150/45/8
f 126/30/79 125/29/78 148/32/92
f 125/29/78 137/31/86 148/32/92
f 148/32/92 137/31/86 147/33/92
f 137/31/86 139/34/86 147/33/92
f 147/33/92 139/34/86 120/20/76
f 140/21/88 120/20/76 139/34/86
f 133/22/84 146/23/91 138/38/87
f 146/23/91 145/43/90 138/38/87
f 138/38/87 145/43/90 141/39/87
f 145/43/90 144/42/90 141/39/87
f 141/39/87 144/42/90 105/16/87
f 107/18/90 105/16/87 144/42/90
f 104/15/89 143/41/89 105/16/87
f 105/16/87 143/41/89 141/39/87
f 143/41/89 142/40/89 141/39/87
f 142/40/89 140/21/88 141/39/87
f 141/39/87 140/21/88 138/38/87
f 140/21/88 139/34/86 138/38/87
f 139/34/86 137/31/86 138/38/87
f 138/38/87 137/31/86 133/22/84
f 137/31/86 125/29/78 133/22/84
f 136/37/85 134/36/83 135/36/82
f 131/35/82 135/36/82 134/36/83
f 132/35/83 131/35/82 134/36/83
f 133/22/84 125/29/78 132/35/83
f 125/29/78 131/35/82 132/35/83
f 131/35/82 125/29/78 116/22/70
f 127/31/80 116/22/70 125/29/78
f 130/34/80 116/22/70 127/31/80
f 115/21/68 116/22/70 130/34/80
f 109/16/71 116/22/70 115/21/68
f 110/15/69 109/16/71 115/21/68
f 115/21/68 130/34/80 114/20/66
f 114/20/66 130/34/80 129/33/81
f 130/34/80 127/31/80 129/33/81
f 129/33/81 127/31/80 128/32/81
f 128/32/81 127/31/80 126/30/79
f 125/29/78 126/30/79 127/31/80
f 106/17/77 108/19/8 124/28/77
f 108/19/8 122/26/8 124/28/77
f 124/28/77 122/26/8 123/27/77
f 123/27/77 122/26/8 120/20/76
f 122/26/8 121/25/8 120/20/76
f 119/24/75 120/20/76 121/25/8
f 112/17/67 114/20/66 113/19/8
f 118/24/74 113/19/8 114/20/66
f 113/19/8 118/24/74 111/18/73
f 117/23/72 111/18/73 118/24/74
f 111/18/73 117/23/72 109/16/71
f 116/22/70 109/16/71 117/23/72
f 110/15/69 115/21/68 112/17/67
f 114/20/66 112/17/67 115/21/68
f 113/19/19 111/18/19 112/17/19
f 112/17/19 111/18/19 110/15/19
f 109/16/19 110/15/19 111/18/19
f 108/19/28 106/17/28 107/18/28
f 107/18/28 106/17/28 105/16/28
f 104/15/28 105/16/28 106/17/28
f 161/50/98 160/17/97 159/50/97
f 160/17/97 161/50/98 162/17/98
f 159/50/97 164/17/99 163/50/99
f 164/17/99 159/50/97 160/17/97
f 167/17/101 166/50/100 165/17/100
f 166/50/100 167/17/101 168/50/101
f 161/50/98 167/17/101 162/17/98
f 167/17/101 161/50/98 168/50/101
f 166/50/100 164/17/99 165/17/100
f 164/17/99 166/50/100 163/50/99
f 177/50/98 170/50/101 178/17/98
f 169/17/101 178/17/98 170/50/101
f 176/17/97 175/50/97 178/17/98
f 177/50/98 178/17/98 175/50/97
f 173/17/99 174/50/99 176/17/97
f 175/50/97 176/17/97 174/50/99
f 172/50/100 174/50/99 171/17/100
f 173/17/99 171/17/100 174/50/99
f 172/50/100 171/17/100 170/50/101
f 169/17/101 170/50/101 171/17/100
f 188/17/97 187/50/97 185/17/98
f 186/50/98 185/17/98 187/50/97
f 183/17/99 184/50/99 188/17/97
f 187/50/97 188/17/97 184/50/99
f 186/50/98 180/50/101 185/17/98
f 179/17/101 185/17/98 180/50/101
f 182/50/100 184/50/99 181/17/100
f 183/17/99 181/17/100 184/50/99
f 182/50/100 181/17/100 180/50/101
f 179/17/101 180/50/101 181/17/100
f 191/17/101 190/50/100 189/17/100
f 190/50/100 191/17/101 192/50/101
f 194/50/98 191/17/101 193/17/98
f 191/17/101 194/50/98 192/50/101
f 194/50/98 196/17/97 195/50/97
f 196/17/97 194/50/98 193/17/98
f 195/50/97 198/17/99 197/50/99
f 198/17/99 195/50/97 196/17/97
f 190/50/100 198/17/99 189/17/100
f 198/17/99 190/50/100 197/50/99
f 201/17/101 200/50/100 199/17/100
f 200/50/100 201/17/101 202/50/101
f 204/50/98 201/17/101 203/17/98
f 201/17/101 204/50/98 202/50/101
f 200/50/100 205/17/99 199/17/100
f 205/17/99 200/50/100 206/50/99
f 204/50/98 208/17/97 207/50/97
f 208/17/97 204/50/98 203/17/98
f 207/50/97 205/17/99 206/50/99
f 205/17/99 207/50/97 208/17/97
f 217/17/99 218/50/99 212/17/97
f 211/50/97 212/17/97 218/50/99
f 209/50/98 214/50/101 210/17/98
f 213/17/101 210/17/98 214/50/101
f 216/50/100 218/50/99 215/17/100
f 217/17/99 215/17/100 218/50/99
f 216/50/100 215/17/100 214/50/101
f 213/17/101 214/50/101 215/17/100
f 212/17/97 211/50/97 210/17/98
f 209/50/98 210/17/98 211/50/97
f 223/50/98 226/50/101 224/17/98
f 225/17/101 224/17/98 226/50/101
f 228/50/100 221/50/99 227/17/100
f 222/17/99 227/17/100 221/50/99
f 228/50/100 227/17/100 226/50/101
f 225/17/101 226/50/101 227/17/100
f 220/17/97 219/50/97 224/17/98
f 223/50/98 224/17/98 219/50/97
f 222/17/99 221/50/99 220/17/97
f 219/50/97 220/17/97 221/50/99
f 231/50/97 230/17/99 229/50/99
f 230/17/99 231/50/97 232/17/97
f 235/17/101 234/50/100 233/17/100
f 234/50/100 235/17/101 236/50/101
f 238/50/98 235/17/101 237/17/98
f 235/17/101 238/50/98 236/50/101
f 234/50/100 230/17/99 233/17/100
f 230/17/99 234/50/100 229/50/99
f 238/50/98 232/17/97 231/50/97
f 232/17/97 238/50/98 237/17/98
g bridge
usemtl colormap
f 3/1/1 2/2/1 1/1/1
f 2/2/1 3/1/1 4/2/1
f 2/2/1 4/2/1 5/3/1
f 2/2/1 5/3/1 6/3/1
f 7/4/2 6/3/2 5/3/2
f 6/3/2 7/4/2 8/4/2
f 1/1/3 9/5/3 3/1/3
f 9/5/3 1/1/3 10/5/3
f 10/5/4 11/6/4 9/5/4
f 11/6/4 10/5/4 12/6/4
f 11/6/4 12/6/4 7/4/4
f 7/4/4 12/6/4 8/4/4
f 10/5/6 2/2/5 12/6/5
f 2/2/5 10/5/6 1/1/6
f 12/6/5 6/3/7 8/4/7
f 6/3/7 12/6/5 2/2/5
f 4/2/8 9/5/9 11/6/8
f 9/5/9 4/2/8 3/1/9
f 5/3/10 11/6/8 7/4/10
f 11/6/8 5/3/10 4/2/8
f 15/2/11 14/3/11 13/3/11
f 14/3/11 15/2/11 16/2/11
f 16/2/11 15/2/11 17/1/11
f 16/2/11 17/1/11 18/1/11
f 19/5/12 18/1/12 17/1/12
f 18/1/12 19/5/12 20/5/12
f 14/3/13 21/4/13 13/3/13
f 21/4/13 14/3/13 22/4/13
f 14/3/14 23/6/5 22/4/14
f 23/6/5 14/3/14 16/2/5
f 22/4/15 24/6/15 21/4/15
f 24/6/15 22/4/15 23/6/15
f 24/6/15 23/6/15 19/5/15
f 19/5/15 23/6/15 20/5/15
f 16/2/5 20/5/16 23/6/5
f 20/5/16 16/2/5 18/1/16
f 19/5/17 15/2/8 24/6/8
f 15/2/8 19/5/17 17/1/17
f 24/6/8 13/3/18 21/4/18
f 13/3/18 24/6/8 15/2/8
f 27/7/19 26/1/19 25/7/19
f 26/1/19 27/7/19 28/1/19
f 31/8/20 30/9/20 29/8/20
f 30/9/20 31/8/20 32/9/20
f 30/9/20 32/9/20 26/1/20
f 30/9/20 26/1/20 28/1/20
f 31/8/21 34/4/21 33/4/21
f 34/4/21 31/8/21 29/8/21
f 35/10/22 33/4/22 34/4/22
f 33/4/22 35/10/22 36/10/22
f 36/10/22 35/10/22 25/7/22
f 25/7/22 35/10/22 27/7/22
f 30/9/5 27/7/23 35/10/5
f 27/7/23 30/9/5 28/1/23
f 29/8/24 35/10/5 34/4/24
f 35/10/5 29/8/24 30/9/5
f 36/10/8 31/8/25 33/4/25
f 31/8/25 36/10/8 32/9/8
f 25/7/26 32/9/8 36/10/8
f 32/9/8 25/7/26 26/1/26
f 39/4/27 38/11/27 37/11/27
f 38/11/27 39/4/27 40/4/27
f 43/1/28 42/12/28 41/12/28
f 42/12/28 43/1/28 44/1/28
f 42/12/29 45/13/29 41/12/29
f 45/13/29 42/12/29 46/13/29
f 45/13/29 46/13/29 39/4/29
f 39/4/29 46/13/29 40/4/29
f 43/1/30 47/14/30 44/1/30
f 47/14/30 43/1/30 48/14/30
f 47/14/30 48/14/30 38/11/30
f 38/11/30 48/14/30 37/11/30
f 42/12/31 47/14/5 46/13/5
f 47/14/5 42/12/31 44/1/31
f 46/13/5 38/11/32 40/4/32
f 38/11/32 46/13/5 47/14/5
f 48/14/8 41/12/33 45/13/8
f 41/12/33 48/14/8 43/1/33
f 37/11/34 45/13/8 39/4/34
f 45/13/8 37/11/34 48/14/8
f 51/17/28 50/16/28 49/15/28
f 50/16/28 51/17/28 52/18/28
f 52/18/28 51/17/28 53/19/28
f 56/18/19 55/15/19 54/16/19
f 55/15/19 56/18/19 57/17/19
f 57/17/19 56/18/19 58/19/19
f 60/21/37 57/17/36 59/20/35
f 57/17/36 60/21/37 55/15/38
f 62/23/41 54/16/40 61/22/39
f 54/16/40 62/23/41 56/18/42
f 63/24/43 56/18/42 62/23/41
f 56/18/42 63/24/43 58/19/5
f 59/20/35 58/19/5 63/24/43
f 58/19/5 59/20/35 57/17/36
f 66/25/5 65/20/45 64/24/44
f 65/20/45 66/25/5 67/26/5
f 65/20/45 67/26/5 68/27/46
f 68/27/46 67/26/5 69/28/46
f 69/28/46 67/26/5 53/19/5
f 69/28/46 53/19/5 51/17/46
f 72/31/49 71/30/48 70/29/47
f 71/30/48 72/31/49 73/32/50
f 73/32/50 72/31/49 74/33/50
f 74/33/50 72/31/49 75/34/49
f 74/33/50 75/34/49 59/20/35
f 59/20/35 75/34/49 60/21/37
f 60/21/37 54/16/40 55/15/38
f 60/21/37 61/22/39 54/16/40
f 75/34/49 61/22/39 60/21/37
f 72/31/49 61/22/39 75/34/49
f 70/29/47 61/22/39 72/31/49
f 61/22/39 70/29/47 76/35/51
f 77/35/52 76/35/51 70/29/47
f 77/35/52 70/29/47 78/22/53
f 79/36/52 76/35/51 77/35/52
f 79/36/52 80/36/51 76/35/51
f 80/36/51 79/36/52 81/37/54
f 78/22/53 70/29/47 82/31/55
f 78/22/53 82/31/55 83/38/56
f 83/38/56 82/31/55 84/34/55
f 83/38/56 84/34/55 85/21/57
f 83/38/56 85/21/57 86/39/56
f 86/39/56 85/21/57 87/40/58
f 86/39/56 87/40/58 88/41/58
f 86/39/56 88/41/58 50/16/56
f 50/16/56 88/41/58 49/15/58
f 89/42/59 50/16/56 52/18/59
f 50/16/56 89/42/59 86/39/56
f 86/39/56 89/42/59 90/43/59
f 86/39/56 90/43/59 83/38/56
f 83/38/56 90/43/59 91/23/60
f 83/38/56 91/23/60 78/22/53
f 84/34/55 65/20/45 85/21/57
f 65/20/45 84/34/55 92/33/61
f 92/33/61 84/34/55 82/31/55
f 92/33/61 82/31/55 93/32/61
f 93/32/61 82/31/55 70/29/47
f 93/32/61 70/29/47 71/30/48
f 95/45/5 71/30/48 94/44/62
f 71/30/48 95/45/5 96/46/5
f 71/30/48 96/46/5 93/32/61
f 93/32/61 96/46/5 64/24/44
f 93/32/61 64/24/44 92/33/61
f 92/33/61 64/24/44 65/20/45
f 71/30/48 97/45/5 94/44/62
f 97/45/5 71/30/48 98/46/5
f 98/46/5 71/30/48 73/32/50
f 98/46/5 73/32/50 63/24/43
f 63/24/43 73/32/50 74/33/50
f 63/24/43 74/33/50 59/20/35
f 100/48/64 81/37/54 99/47/63
f 81/37/54 100/48/64 80/36/51
f 80/36/51 100/48/64 76/35/51
f 76/35/51 100/48/64 101/49/64
f 76/35/51 101/49/64 61/22/39
f 61/22/39 101/49/64 62/23/41
f 102/48/65 94/44/62 99/47/63
f 94/44/62 102/48/65 103/49/65
f 94/44/62 103/49/65 95/45/5
f 95/45/5 103/49/65 91/23/60
f 95/45/5 91/23/60 96/46/5
f 96/46/5 91/23/60 64/24/44
f 94/44/62 100/48/64 99/47/63
f 100/48/64 94/44/62 101/49/64
f 101/49/64 94/44/62 97/45/5
f 101/49/64 97/45/5 62/23/41
f 62/23/41 97/45/5 98/46/5
f 62/23/41 98/46/5 63/24/43
f 88/41/58 51/17/46 49/15/58
f 51/17/46 88/41/58 69/28/46
f 69/28/46 88/41/58 87/40/58
f 69/28/46 87/40/58 68/27/46
f 68/27/46 87/40/58 85/21/57
f 68/27/46 85/21/57 65/20/45
f 90/43/59 64/24/44 91/23/60
f 64/24/44 90/43/59 89/42/59
f 64/24/44 89/42/59 66/25/5
f 66/25/5 89/42/59 67/26/5
f 67/26/5 89/42/59 52/18/59
f 67/26/5 52/18/59 53/19/5
f 103/49/65 78/22/53 91/23/60
f 78/22/53 103/49/65 77/35/52
f 77/35/52 103/49/65 102/48/65
f 77/35/52 102/48/65 79/36/52
f 79/36/52 102/48/65 99/47/63
f 79/36/52 99/47/63 81/37/54
f 136/37/85 154/47/94 134/36/83
f 154/47/94 157/48/96 134/36/83
f 134/36/83 157/48/96 132/35/83
f 157/48/96 158/49/96 132/35/83
f 132/35/83 158/49/96 133/22/84
f 146/23/91 133/22/84 158/49/96
f 108/19/8 107/18/90 122/26/8
f 107/18/90 144/42/90 122/26/8
f 122/26/8 144/42/90 121/25/8
f 121/25/8 144/42/90 119/24/75
f 144/42/90 145/43/90 119/24/75
f 146/23/91 119/24/75 145/43/90
f 120/20/76 140/21/88 123/27/77
f 140/21/88 142/40/89 123/27/77
f 123/27/77 142/40/89 124/28/77
f 142/40/89 143/41/89 124/28/77
f 124/28/77 143/41/89 106/17/77
f 104/15/89 106/17/77 143/41/89
f 118/24/74 153/46/8 117/23/72
f 153/46/8 152/45/8 117/23/72
f 117/23/72 152/45/8 156/49/95
f 152/45/8 149/44/93 156/49/95
f 156/49/95 149/44/93 155/48/95
f 154/47/94 155/48/95 149/44/93
f 119/24/75 146/23/91 151/46/8
f 151/46/8 146/23/91 150/45/8
f 146/23/91 158/49/96 150/45/8
f 150/45/8 158/49/96 149/44/93
f 158/49/96 157/48/96 149/44/93
f 154/47/94 149/44/93 157/48/96
f 117/23/72 156/49/95 116/22/70
f 116/22/70 156/49/95 131/35/82
f 156/49/95 155/48/95 131/35/82
f 131/35/82 155/48/95 135/36/82
f 135/36/82 155/48/95 136/37/85
f 154/47/94 136/37/85 155/48/95
f 114/20/66 129/33/81 118/24/74
f 129/33/81 128/32/81 118/24/74
f 118/24/74 128/32/81 153/46/8
f 128/32/81 126/30/79 153/46/8
f 153/46/8 126/30/79 152/45/8
f 149/44/93 152/45/8 126/30/79
f 120/20/76 119/24/75 147/33/92
f 147/33/92 119/24/75 148/32/92
f 119/24/75 151/46/8 148/32/92
f 148/32/92 151/46/8 126/30/79
f 151/46/8 150/45/8 126/30/79
f 149/44/93 126/30/79 150/45/8
f 126/30/79 125/29/78 148/32/92
f 125/29/78 137/31/86 148/32/92
f 148/32/92 137/31/86 147/33/92
f 137/31/86 139/34/86 147/33/92
f 147/33/92 139/34/86 120/20/76
f 140/21/88 120/20/76 139/34/86
f 133/22/84 146/23/91 138/38/87
f 146/23/91 145/43/90 138/38/87
f 138/38/87 145/43/90 141/39/87
f 145/43/90 144/42/90 141/39/87
f 141/39/87 144/42/90 105/16/87
f 107/18/90 105/16/87 144/42/90
f 104/15/89 143/41/89 105/16/87
f 105/16/87 143/41/89 141/39/87
f 143/41/89 142/40/89 141/39/87
f 142/40/89 140/21/88 141/39/87
f 141/39/87 140/21/88 138/38/87
f 140/21/88 139/34/86 138/38/87
f 139/34/86 137/31/86 138/38/87
f 138/38/87 137/31/86 133/22/84
f 137/31/86 125/29/78 133/22/84
f 136/37/85 134/36/83 135/36/82
f 131/35/82 135/36/82 134/36/83
f 132/35/83 131/35/82 134/36/83
f 133/22/84 125/29/78 132/35/83
f 125/29/78 131/35/82 132/35/83
f 131/35/82 125/29/78 116/22/70
f 127/31/80 116/22/70 125/29/78
f 130/34/80 116/22/70 127/31/80
f 115/21/68 116/22/70 130/34/80
f 109/16/71 116/22/70 115/21/68
f 110/15/69 109/16/71 115/21/68
f 115/21/68 130/34/80 114/20/66
f 114/20/66 130/34/80 129/33/81
f 130/34/80 127/31/80 129/33/81
f 129/33/81 127/31/80 128/32/81
f 128/32/81 127/31/80 126/30/79
f 125/29/78 126/30/79 127/31/80
f 106/17/77 108/19/8 124/28/77
f 108/19/8 122/26/8 124/28/77
f 124/28/77 122/26/8 123/27/77
f 123/27/77 122/26/8 120/20/76
f 122/26/8 121/25/8 120/20/76
f 119/24/75 120/20/76 121/25/8
f 112/17/67 114/20/66 113/19/8
f 118/24/74 113/19/8 114/20/66
f 113/19/8 118/24/74 111/18/73
f 117/23/72 111/18/73 118/24/74
f 111/18/73 117/23/72 109/16/71
f 116/22/70 109/16/71 117/23/72
f 110/15/69 115/21/68 112/17/67
f 114/20/66 112/17/67 115/21/68
f 113/19/19 111/18/19 112/17/19
f 112/17/19 111/18/19 110/15/19
f 109/16/19 110/15/19 111/18/19
f 108/19/28 106/17/28 107/18/28
f 107/18/28 106/17/28 105/16/28
f 104/15/28 105/16/28 106/17/28
f 161/50/98 160/17/97 159/50/97
f 160/17/97 161/50/98 162/17/98
f 159/50/97 164/17/99 163/50/99
f 164/17/99 159/50/97 160/17/97
f 167/17/101 166/50/100 165/17/100
f 166/50/100 167/17/101 168/50/101
f 161/50/98 167/17/101 162/17/98
f 167/17/101 161/50/98 168/50/101
f 166/50/100 164/17/99 165/17/100
f 164/17/99 166/50/100 163/50/99
f 177/50/98 170/50/101 178/17/98
f 169/17/101 178/17/98 170/50/101
f 176/17/97 175/50/97 178/17/98
f 177/50/98 178/17/98 175/50/97
f 173/17/99 174/50/99 176/17/97
f 175/50/97 176/17/97 174/50/99
f 172/50/100 174/50/99 171/17/100
f 173/17/99 171/17/100 174/50/99
f 172/50/100 171/17/100 170/50/101
f 169/17/101 170/50/101 171/17/100
f 188/17/97 187/50/97 185/17/98
f 186/50/98 185/17/98 187/50/97
f 183/17/99 184/50/99 188/17/97
f 187/50/97 188/17/97 184/50/99
f 186/50/98 180/50/101 185/17/98
f 179/17/101 185/17/98 180/50/101
f 182/50/100 184/50/99 181/17/100
f 183/17/99 181/17/100 184/50/99
f 182/50/100 181/17/100 180/50/101
f 179/17/101 180/50/101 181/17/100
f 191/17/101 190/50/100 189/17/100
f 190/50/100 191/17/101 192/50/101
f 194/50/98 191/17/101 193/17/98
f 191/17/101 194/50/98 192/50/101
f 194/50/98 196/17/97 195/50/97
f 196/17/97 194/50/98 193/17/98
f 195/50/97 198/17/99 197/50/99
f 198/17/99 195/50/97 196/17/97
f 190/50/100 198/17/99 189/17/100
f 198/17/99 190/50/100 197/50/99
f 201/17/101 200/50/100 199/17/100
f 200/50/100 201/17/101 202/50/101
f 204/50/98 201/17/101 203/17/98
f 201/17/101 204/50/98 202/50/101
f 200/50/100 205/17/99 199/17/100
f 205/17/99 200/50/100 206/50/99
f 204/50/98 208/17/97 207/50/97
f 208/17/97 204/50/98 203/17/98
f 207/50/97 205/17/99 206/50/99
f 205/17/99 207/50/97 208/17/97
f 217/17/99 218/50/99 212/17/97
f 211/50/97 212/17/97 218/50/99
f 209/50/98 214/50/101 210/17/98
f 213/17/101 210/17/98 214/50/101
f 216/50/100 218/50/99 215/17/100
f 217/17/99 215/17/100 218/50/99
f 216/50/100 215/17/100 214/50/101
f 213/17/101 214/50/101 215/17/100
f 212/17/97 211/50/97 210/17/98
f 209/50/98 210/17/98 211/50/97
f 223/50/98 226/50/101 224/17/98
f 225/17/101 224/17/98 226/50/101
f 228/50/100 221/50/99 227/17/100
f 222/17/99 227/17/100 221/50/99
f 228/50/100 227/17/100 226/50/101
f 225/17/101 226/50/101 227/17/100
f 220/17/97 219/50/97 224/17/98
f 223/50/98 224/17/98 219/50/97
f 222/17/99 221/50/99 220/17/97
f 219/50/97 220/17/97 221/50/99
f 231/50/97 230/17/99 229/50/99
f 230/17/99 231/50/97 232/17/97
f 235/17/101 234/50/100 233/17/100
f 234/50/100 235/17/101 236/50/101
f 238/50/98 235/17/101 237/17/98
f 235/17/101 238/50/98 236/50/101
f 234/50/100 230/17/99 233/17/100
f 230/17/99 234/50/100 229/50/99
f 238/50/98 232/17/97 231/50/97
f 232/17/97 238/50/98 237/17/98
