mtllib building-roof.mtl
g building-roof
v 0.05 0.95 -0.48273
v 0.05 0.95 -0.58273
v -0.05 0.95 -0.48273
v -0.05 0.95 -0.58273
v 0.078542 1.05 -0.58273
v 0.078542 1.05 0.58273
v -0.078542 1.05 -0.58273
v -0.078542 1.05 0.58273
v 0.05 0.95 0.58273
v 0.05 0.95 0.48273
v -0.05 0.95 0.58273
v -0.05 0.95 0.48273
v 0.64558 0.69761 -0.55345
v 0.59279 0.61268 -0.55345
v 0.67045 0.68215 -0.48273
v 0.61767 0.59722 -0.48273
v 0.53273 0.65 -0.58273
v 0.58552 0.73493 -0.58273
v -0.53273 0.65 -0.58273
v -0.58552 0.73493 -0.58273
v 0.59279 0.61268 0.55345
v 0.53273 0.65 0.58273
v 0.64558 0.69761 0.55345
v 0.58552 0.73493 0.58273
v 0.67045 0.68215 0.48273
v 0.61767 0.59722 0.48273
v 0.53273 0.65 0.48273
v 0.53273 0.65 -0.48273
v -0.58552 0.73493 0.58273
v -0.53273 0.65 0.58273
v -0.61767 0.59722 0.48273
v -0.67045 0.68215 0.48273
v -0.59279 0.61268 0.55345
v -0.64558 0.69761 0.55345
v -0.59279 0.61268 -0.55345
v -0.64558 0.69761 -0.55345
v -0.67045 0.68215 -0.48273
v -0.61767 0.59722 -0.48273
v -0.53273 0.65 0.48273
v -0.53273 0.65 -0.48273
v -0.42731 0.83325 0.29164
v -0.46302 0.81106 0.36446
v -0.35589 0.87764 0.29164
v -0.32018 0.89983 0.36446
v -0.42731 0.83325 0.43728
v -0.35589 0.87764 0.43728
v -0.42855 0.87134 0.32464
v -0.38949 0.89561 0.32464
v -0.44807 0.8592 0.36446
v -0.36997 0.90774 0.36446
v -0.42855 0.87134 0.40428
v -0.38949 0.89561 0.40428
v -0.34198 0.91376 0.36446
v -0.37295 0.89451 0.42761
v -0.37295 0.89451 0.3013
v -0.46586 0.83677 0.36446
v -0.43489 0.85602 0.3013
v -0.43489 0.85602 0.42761
v 0.26767 0.93246 -0.25412
v 0.30338 0.91027 -0.32694
v 0.19625 0.97685 -0.25412
v 0.16055 0.99904 -0.32694
v 0.26767 0.93246 -0.39976
v 0.19625 0.97685 -0.39976
v 0.26891 0.97055 -0.28712
v 0.22986 0.99482 -0.28712
v 0.28843 0.95841 -0.32694
v 0.21033 1.007 -0.32694
v 0.26891 0.97055 -0.36676
v 0.22986 0.99482 -0.36676
v 0.18234 1.013 -0.32694
v 0.21331 0.99372 -0.3901
v 0.21331 0.99372 -0.26379
v 0.30622 0.93598 -0.32694
v 0.27525 0.95523 -0.26379
v 0.27525 0.95523 -0.3901
v 0.35404 0.87879 0.41325
v 0.40815 0.84516 0.30292
v 0.24583 0.94603 0.41325
v 0.19173 0.97966 0.30292
v 0.35404 0.87879 0.19258
v 0.24583 0.94603 0.19258
v 0.35592 0.93649 0.36325
v 0.29674 0.97327 0.36325
v 0.3855 0.91811 0.30292
v 0.26716 0.99165 0.30292
v 0.35592 0.93649 0.24258
v 0.29674 0.97327 0.24258
v 0.22475 1.0008 0.30292
v 0.27168 0.9716 0.20723
v 0.27168 0.9716 0.3986
v 0.41245 0.88412 0.30292
v 0.36552 0.91328 0.3986
v 0.36552 0.91328 0.20723
v 0.43926 0.82583 0.1356
v 0.47496 0.80364 0.062779
v 0.36784 0.87021 0.1356
v 0.33213 0.89241 0.062779
v 0.43926 0.82583 -0.010041
v 0.36784 0.87021 -0.010041
v 0.44049 0.86392 0.1026
v 0.40144 0.88819 0.1026
v 0.46002 0.85178 0.062779
v 0.38191 0.90032 0.062779
v 0.44049 0.86392 0.022959
v 0.40144 0.88819 0.022959
v 0.35392 0.90633 0.062779
v 0.38489 0.88709 -0.00037555
v 0.38489 0.88709 0.12593
v 0.4778 0.82935 0.062779
v 0.44683 0.8486 0.12593
v 0.44683 0.8486 -0.00037555
v -0.23447 0.9531 -0.20473
v -0.27018 0.9309 -0.13191
v -0.16305 0.99748 -0.20473
v -0.12734 1.0197 -0.13191
v -0.23447 0.9531 -0.059086
v -0.16305 0.99748 -0.059086
v -0.23571 0.99118 -0.17173
v -0.19665 1.0155 -0.17173
v -0.25523 0.97905 -0.13191
v -0.17713 1.0276 -0.13191
v -0.23571 0.99118 -0.092086
v -0.19665 1.0155 -0.092086
v -0.14914 1.0336 -0.13191
v -0.18011 1.0144 -0.068752
v -0.18011 1.0144 -0.19506
v -0.27302 0.95661 -0.13191
v -0.24205 0.97586 -0.19506
v -0.24205 0.97586 -0.068752
v -0.52713 0.77122 -0.27218
v -0.58124 0.73759 -0.16185
v -0.41893 0.83847 -0.27218
v -0.36482 0.87209 -0.16185
v -0.52713 0.77122 -0.051515
v -0.41893 0.83847 -0.051515
v -0.52901 0.82892 -0.22218
v -0.46984 0.8657 -0.22218
v -0.55859 0.81054 -0.16185
v -0.44025 0.88408 -0.16185
v -0.52901 0.82892 -0.10151
v -0.46984 0.8657 -0.10151
v -0.39785 0.89319 -0.16185
v -0.44477 0.86403 -0.066159
v -0.44477 0.86403 -0.25754
v -0.58554 0.77655 -0.16185
v -0.53861 0.80571 -0.25754
v -0.53861 0.80571 -0.066159
v 0.4683 0 0.4683
v 0.4683 0 0.3817
v 0.3817 0 0.4683
v 0.3817 0 0.3817
v 0.48273 0.55 0.36727
v 0.48273 0.55 0.48273
v 0.36727 0.55 0.36727
v 0.36727 0.55 0.48273
v 0.4683 0 -0.3817
v 0.4683 0 -0.4683
v 0.3817 0 -0.3817
v 0.3817 0 -0.4683
v 0.48273 0.55 -0.48273
v 0.48273 0.55 -0.36727
v 0.36727 0.55 -0.48273
v 0.36727 0.55 -0.36727
v -0.3817 0 -0.3817
v -0.3817 0 -0.4683
v -0.4683 0 -0.3817
v -0.4683 0 -0.4683
v -0.36727 0.55 -0.48273
v -0.36727 0.55 -0.36727
v -0.48273 0.55 -0.48273
v -0.48273 0.55 -0.36727
v -0.3817 0 0.4683
v -0.3817 0 0.3817
v -0.4683 0 0.4683
v -0.4683 0 0.3817
v -0.36727 0.55 0.36727
v -0.36727 0.55 0.48273
v -0.48273 0.55 0.36727
v -0.48273 0.55 0.48273
v 0.48273 0.55 -0.48273
v 0.48273 0.55 0.48273
v -0.48273 0.55 -0.48273
v -0.05 0.95 -0.48273
v 0.05 0.95 -0.48273
v -0.48273 0.55 0.48273
v 0.05 0.95 0.48273
v -0.05 0.95 0.48273
vn -0.27446 -0.9616 0
vn 0.27446 -0.9616 0
vn 0.27446 0.9616 0
vn -0.27446 0.9616 0
vn 0.60058 -0.37324 -0.70711
vn 0.83303 -0.51769 -0.19509
vn 0.1657 -0.10298 -0.98079
vn -0.1657 -0.10298 -0.98079
vn 0 0 -1
vn 0.60058 -0.37324 0.70711
vn 0.1657 -0.10298 0.98079
vn 0.83303 -0.51769 0.19509
vn 0.52783 0.84935 0
vn -0.52783 -0.84935 0
vn 0 0 1
vn -0.1657 -0.10298 0.98079
vn -0.83303 -0.51769 0.19509
vn -0.60058 -0.37324 0.70711
vn -0.60058 -0.37324 -0.70711
vn -0.83303 -0.51769 -0.19509
vn 0.52783 -0.84935 0
vn -0.52783 0.84935 0
vn -0.14973 -0.6101 -0.77805
vn -0.53126 -0.84721 0
vn 0.61333 -0.13589 -0.77805
vn 0.99486 0.10122 0
vn -0.14973 -0.6101 0.77805
vn 0.61333 -0.13589 0.77805
vn -0.60999 0.76797 -0.19526
vn -0.41849 0.88698 -0.19526
vn -0.70575 0.70847 0
vn -0.32274 0.94649 0
vn -0.60999 0.76797 0.19526
vn -0.41849 0.88698 0.19526
vn 0.25699 0.96641 0
vn -0.052334 0.77418 0.6308
vn -0.052334 0.77418 -0.6308
vn -0.98031 0.19749 0
vn -0.67098 0.38972 -0.6308
vn -0.67098 0.38972 0.6308
vn 0.14973 -0.6101 0.77805
vn 0.53126 -0.84721 0
vn -0.61333 -0.13589 0.77805
vn -0.99486 0.10122 0
vn 0.14973 -0.6101 -0.77805
vn -0.61333 -0.13589 -0.77805
vn 0.60999 0.76797 0.19526
vn 0.41849 0.88698 0.19526
vn 0.70575 0.70847 0
vn 0.32274 0.94649 0
vn 0.60999 0.76797 -0.19526
vn 0.41849 0.88698 -0.19526
vn -0.25699 0.96641 0
vn 0.052334 0.77418 -0.6308
vn 0.052334 0.77418 0.6308
vn 0.98031 0.19749 0
vn 0.67098 0.38972 0.6308
vn 0.67098 0.38972 -0.6308
vn 0.14973 -0.6101 0.77805
vn 0.53126 -0.84721 0
vn -0.61333 -0.13589 0.77805
vn -0.99486 0.10122 0
vn 0.14973 -0.6101 -0.77805
vn -0.61333 -0.13589 -0.77805
vn 0.60999 0.76797 0.19526
vn 0.41849 0.88698 0.19526
vn 0.70575 0.70847 0
vn 0.32274 0.94649 0
vn 0.60999 0.76797 -0.19526
vn 0.41849 0.88698 -0.19526
vn -0.25699 0.96641 0
vn 0.052334 0.77418 -0.6308
vn 0.052334 0.77418 0.6308
vn 0.98031 0.19749 0
vn 0.67098 0.38972 0.6308
vn 0.67098 0.38972 -0.6308
vn -0.14973 -0.6101 -0.77805
vn -0.53126 -0.84721 0
vn 0.61333 -0.13589 -0.77805
vn 0.99486 0.10122 0
vn -0.14973 -0.6101 0.77805
vn 0.61333 -0.13589 0.77805
vn -0.60999 0.76797 -0.19526
vn -0.41849 0.88698 -0.19526
vn -0.70575 0.70847 0
vn -0.32274 0.94649 0
vn -0.60999 0.76797 0.19526
vn -0.41849 0.88698 0.19526
vn 0.25699 0.96641 0
vn -0.052334 0.77418 0.6308
vn -0.052334 0.77418 -0.6308
vn -0.98031 0.19749 0
vn -0.67098 0.38972 -0.6308
vn -0.67098 0.38972 0.6308
vn 0 -1 0
vn 0 1 0
vn -0.99966 -0.026234 0
vn 0 -0.026234 0.99966
vn 0.99966 -0.026234 0
vn 0 -0.026234 -0.99966
vn 0.89443 -0.44721 0
vn -0.89443 -0.44721 0
vt 0.96875 0.43083
vt 0.96875 0.475
vt 0.96875 0.31935
vt 0.96875 0.28183
vt 0.96875 0.31252
vt 0.96875 0.275
vt 0.96875 0.29832
vt 0.96875 0.33583
vt 0.90625 0.375
vt 0.09375 0.475
vt 0.09375 0.275
vt 0.96875 0.175
vt 0.96875 0.225
vt 0.96875 0.025
usemtl colormap
f 3/1/2 2/1/1 1/1/1
f 2/1/1 3/1/2 4/1/2
f 7/2/4 6/2/3 5/2/3
f 6/2/3 7/2/4 8/2/4
f 11/1/2 10/1/1 9/1/1
f 10/1/1 11/1/2 12/1/2
f 15/5/6 14/4/5 13/3/5
f 14/4/5 15/5/6 16/6/6
f 17/7/7 13/3/5 14/4/5
f 13/3/5 17/7/7 18/8/7
f 20/8/8 4/1/9 19/7/8
f 4/1/9 20/8/8 7/2/9
f 4/1/9 7/2/9 2/1/9
f 5/2/9 2/1/9 7/2/9
f 18/8/7 2/1/9 5/2/9
f 2/1/9 18/8/7 17/7/7
f 23/3/10 22/7/11 21/4/10
f 22/7/11 23/3/10 24/8/11
f 23/3/10 26/6/12 25/5/12
f 26/6/12 23/3/10 21/4/10
f 13/3/13 25/5/13 15/5/13
f 25/5/13 13/3/13 23/3/13
f 23/3/13 13/3/13 18/8/13
f 23/3/13 18/8/13 24/8/13
f 24/8/13 18/8/13 6/2/3
f 6/2/3 18/8/13 5/2/3
f 21/4/14 16/6/14 26/6/14
f 16/6/14 21/4/14 14/4/14
f 14/4/14 21/4/14 22/7/14
f 14/4/14 22/7/14 27/7/14
f 27/7/14 22/7/14 10/1/1
f 10/1/1 22/7/14 9/1/1
f 28/7/14 14/4/14 27/7/14
f 14/4/14 28/7/14 17/7/14
f 17/7/14 28/7/14 1/1/1
f 17/7/14 1/1/1 2/1/1
f 25/5/12 16/6/6 15/5/6
f 16/6/6 25/5/12 26/6/12
f 24/8/11 9/1/15 22/7/11
f 9/1/15 24/8/11 6/2/15
f 9/1/15 6/2/15 11/1/15
f 8/2/15 11/1/15 6/2/15
f 29/8/16 11/1/15 8/2/15
f 11/1/15 29/8/16 30/7/16
f 33/4/18 32/5/17 31/6/17
f 32/5/17 33/4/18 34/3/18
f 36/3/19 19/7/8 35/4/19
f 19/7/8 36/3/19 20/8/8
f 38/6/20 32/5/17 37/5/20
f 32/5/17 38/6/20 31/6/17
f 30/7/21 12/1/2 11/1/2
f 12/1/2 30/7/21 39/7/21
f 39/7/21 30/7/21 33/4/21
f 39/7/21 33/4/21 40/7/21
f 40/7/21 33/4/21 35/4/21
f 35/4/21 33/4/21 38/6/21
f 38/6/21 33/4/21 31/6/21
f 19/7/21 40/7/21 35/4/21
f 4/1/2 40/7/21 19/7/21
f 40/7/21 4/1/2 3/1/2
f 35/4/19 37/5/20 36/3/19
f 37/5/20 35/4/19 38/6/20
f 20/8/22 8/2/4 7/2/4
f 8/2/4 20/8/22 29/8/22
f 29/8/22 20/8/22 36/3/22
f 29/8/22 36/3/22 34/3/22
f 34/3/22 36/3/22 37/5/22
f 34/3/22 37/5/22 32/5/22
f 30/7/16 34/3/18 33/4/18
f 34/3/18 30/7/16 29/8/16
f 43/9/25 42/9/24 41/9/23
f 42/9/24 43/9/25 44/9/26
f 42/9/24 44/9/26 45/9/27
f 45/9/27 44/9/26 46/9/28
f 49/9/31 48/9/30 47/9/29
f 48/9/30 49/9/31 50/9/32
f 50/9/32 49/9/31 51/9/33
f 50/9/32 51/9/33 52/9/34
f 52/9/34 53/9/35 50/9/32
f 53/9/35 52/9/34 54/9/36
f 53/9/35 46/9/28 44/9/26
f 46/9/28 53/9/35 54/9/36
f 48/9/30 53/9/35 55/9/37
f 53/9/35 48/9/30 50/9/32
f 55/9/37 44/9/26 43/9/25
f 44/9/26 55/9/37 53/9/35
f 56/9/38 41/9/23 42/9/24
f 41/9/23 56/9/38 57/9/39
f 58/9/40 49/9/31 56/9/38
f 49/9/31 58/9/40 51/9/33
f 58/9/40 52/9/34 51/9/33
f 52/9/34 58/9/40 54/9/36
f 46/9/28 58/9/40 45/9/27
f 58/9/40 46/9/28 54/9/36
f 47/9/29 55/9/37 57/9/39
f 55/9/37 47/9/29 48/9/30
f 45/9/27 56/9/38 42/9/24
f 56/9/38 45/9/27 58/9/40
f 56/9/38 47/9/29 57/9/39
f 47/9/29 56/9/38 49/9/31
f 57/9/39 43/9/25 41/9/23
f 43/9/25 57/9/39 55/9/37
f 61/9/43 60/9/42 59/9/41
f 60/9/42 61/9/43 62/9/44
f 60/9/42 62/9/44 63/9/45
f 63/9/45 62/9/44 64/9/46
f 67/9/49 66/9/48 65/9/47
f 66/9/48 67/9/49 68/9/50
f 68/9/50 67/9/49 69/9/51
f 68/9/50 69/9/51 70/9/52
f 70/9/52 71/9/53 68/9/50
f 71/9/53 70/9/52 72/9/54
f 71/9/53 64/9/46 62/9/44
f 64/9/46 71/9/53 72/9/54
f 66/9/48 71/9/53 73/9/55
f 71/9/53 66/9/48 68/9/50
f 73/9/55 62/9/44 61/9/43
f 62/9/44 73/9/55 71/9/53
f 74/9/56 59/9/41 60/9/42
f 59/9/41 74/9/56 75/9/57
f 76/9/58 67/9/49 74/9/56
f 67/9/49 76/9/58 69/9/51
f 76/9/58 70/9/52 69/9/51
f 70/9/52 76/9/58 72/9/54
f 64/9/46 76/9/58 63/9/45
f 76/9/58 64/9/46 72/9/54
f 65/9/47 73/9/55 75/9/57
f 73/9/55 65/9/47 66/9/48
f 63/9/45 74/9/56 60/9/42
f 74/9/56 63/9/45 76/9/58
f 74/9/56 65/9/47 75/9/57
f 65/9/47 74/9/56 67/9/49
f 75/9/57 61/9/43 59/9/41
f 61/9/43 75/9/57 73/9/55
f 79/9/61 78/9/60 77/9/59
f 78/9/60 79/9/61 80/9/62
f 78/9/60 80/9/62 81/9/63
f 81/9/63 80/9/62 82/9/64
f 85/9/67 84/9/66 83/9/65
f 84/9/66 85/9/67 86/9/68
f 86/9/68 85/9/67 87/9/69
f 86/9/68 87/9/69 88/9/70
f 88/9/70 89/9/71 86/9/68
f 89/9/71 88/9/70 90/9/72
f 89/9/71 82/9/64 80/9/62
f 82/9/64 89/9/71 90/9/72
f 84/9/66 89/9/71 91/9/73
f 89/9/71 84/9/66 86/9/68
f 91/9/73 80/9/62 79/9/61
f 80/9/62 91/9/73 89/9/71
f 92/9/74 77/9/59 78/9/60
f 77/9/59 92/9/74 93/9/75
f 94/9/76 85/9/67 92/9/74
f 85/9/67 94/9/76 87/9/69
f 94/9/76 88/9/70 87/9/69
f 88/9/70 94/9/76 90/9/72
f 82/9/64 94/9/76 81/9/63
f 94/9/76 82/9/64 90/9/72
f 83/9/65 91/9/73 93/9/75
f 91/9/73 83/9/65 84/9/66
f 81/9/63 92/9/74 78/9/60
f 92/9/74 81/9/63 94/9/76
f 92/9/74 83/9/65 93/9/75
f 83/9/65 92/9/74 85/9/67
f 93/9/75 79/9/61 77/9/59
f 79/9/61 93/9/75 91/9/73
f 97/9/43 96/9/42 95/9/41
f 96/9/42 97/9/43 98/9/44
f 96/9/42 98/9/44 99/9/45
f 99/9/45 98/9/44 100/9/46
f 103/9/49 102/9/48 101/9/47
f 102/9/48 103/9/49 104/9/50
f 104/9/50 103/9/49 105/9/51
f 104/9/50 105/9/51 106/9/52
f 106/9/52 107/9/53 104/9/50
f 107/9/53 106/9/52 108/9/54
f 107/9/53 100/9/46 98/9/44
f 100/9/46 107/9/53 108/9/54
f 102/9/48 107/9/53 109/9/55
f 107/9/53 102/9/48 104/9/50
f 109/9/55 98/9/44 97/9/43
f 98/9/44 109/9/55 107/9/53
f 110/9/56 95/9/41 96/9/42
f 95/9/41 110/9/56 111/9/57
f 112/9/58 103/9/49 110/9/56
f 103/9/49 112/9/58 105/9/51
f 112/9/58 106/9/52 105/9/51
f 106/9/52 112/9/58 108/9/54
f 100/9/46 112/9/58 99/9/45
f 112/9/58 100/9/46 108/9/54
f 101/9/47 109/9/55 111/9/57
f 109/9/55 101/9/47 102/9/48
f 99/9/45 110/9/56 96/9/42
f 110/9/56 99/9/45 112/9/58
f 110/9/56 101/9/47 111/9/57
f 101/9/47 110/9/56 103/9/49
f 111/9/57 97/9/43 95/9/41
f 97/9/43 111/9/57 109/9/55
f 115/9/25 114/9/24 113/9/23
f 114/9/24 115/9/25 116/9/26
f 114/9/24 116/9/26 117/9/27
f 117/9/27 116/9/26 118/9/28
f 121/9/31 120/9/30 119/9/29
f 120/9/30 121/9/31 122/9/32
f 122/9/32 121/9/31 123/9/33
f 122/9/32 123/9/33 124/9/34
f 124/9/34 125/9/35 122/9/32
f 125/9/35 124/9/34 126/9/36
f 125/9/35 118/9/28 116/9/26
f 118/9/28 125/9/35 126/9/36
f 120/9/30 125/9/35 127/9/37
f 125/9/35 120/9/30 122/9/32
f 127/9/37 116/9/26 115/9/25
f 116/9/26 127/9/37 125/9/35
f 128/9/38 113/9/23 114/9/24
f 113/9/23 128/9/38 129/9/39
f 130/9/40 121/9/31 128/9/38
f 121/9/31 130/9/40 123/9/33
f 130/9/40 124/9/34 123/9/33
f 124/9/34 130/9/40 126/9/36
f 118/9/28 130/9/40 117/9/27
f 130/9/40 118/9/28 126/9/36
f 119/9/29 127/9/37 129/9/39
f 127/9/37 119/9/29 120/9/30
f 117/9/27 128/9/38 114/9/24
f 128/9/38 117/9/27 130/9/40
f 128/9/38 119/9/29 129/9/39
f 119/9/29 128/9/38 121/9/31
f 129/9/39 115/9/25 113/9/23
f 115/9/25 129/9/39 127/9/37
f 133/9/79 132/9/78 131/9/77
f 132/9/78 133/9/79 134/9/80
f 132/9/78 134/9/80 135/9/81
f 135/9/81 134/9/80 136/9/82
f 139/9/85 138/9/84 137/9/83
f 138/9/84 139/9/85 140/9/86
f 140/9/86 139/9/85 141/9/87
f 140/9/86 141/9/87 142/9/88
f 142/9/88 143/9/89 140/9/86
f 143/9/89 142/9/88 144/9/90
f 143/9/89 136/9/82 134/9/80
f 136/9/82 143/9/89 144/9/90
f 138/9/84 143/9/89 145/9/91
f 143/9/89 138/9/84 140/9/86
f 145/9/91 134/9/80 133/9/79
f 134/9/80 145/9/91 143/9/89
f 146/9/92 131/9/77 132/9/78
f 131/9/77 146/9/92 147/9/93
f 148/9/94 139/9/85 146/9/92
f 139/9/85 148/9/94 141/9/87
f 148/9/94 142/9/88 141/9/87
f 142/9/88 148/9/94 144/9/90
f 136/9/82 148/9/94 135/9/81
f 148/9/94 136/9/82 144/9/90
f 137/9/83 145/9/91 147/9/93
f 145/9/91 137/9/83 138/9/84
f 135/9/81 146/9/92 132/9/78
f 146/9/92 135/9/81 148/9/94
f 146/9/92 137/9/83 147/9/93
f 137/9/83 146/9/92 139/9/85
f 147/9/93 133/9/79 131/9/77
f 133/9/79 147/9/93 145/9/91
f 151/10/95 150/10/95 149/10/95
f 150/10/95 151/10/95 152/10/95
f 155/11/96 154/11/96 153/11/96
f 154/11/96 155/11/96 156/11/96
f 152/10/97 156/11/97 155/11/97
f 156/11/97 152/10/97 151/10/97
f 154/11/98 151/10/98 149/10/98
f 151/10/98 154/11/98 156/11/98
f 154/11/99 150/10/99 153/11/99
f 150/10/99 154/11/99 149/10/99
f 155/11/100 150/10/100 152/10/100
f 150/10/100 155/11/100 153/11/100
f 159/10/95 158/10/95 157/10/95
f 158/10/95 159/10/95 160/10/95
f 163/11/96 162/11/96 161/11/96
f 162/11/96 163/11/96 164/11/96
f 160/10/97 164/11/97 163/11/97
f 164/11/97 160/10/97 159/10/97
f 162/11/98 159/10/98 157/10/98
f 159/10/98 162/11/98 164/11/98
f 162/11/99 158/10/99 161/11/99
f 158/10/99 162/11/99 157/10/99
f 163/11/100 158/10/100 160/10/100
f 158/10/100 163/11/100 161/11/100
f 167/10/95 166/10/95 165/10/95
f 166/10/95 167/10/95 168/10/95
f 171/11/96 170/11/96 169/11/96
f 170/11/96 171/11/96 172/11/96
f 168/10/97 172/11/97 171/11/97
f 172/11/97 168/10/97 167/10/97
f 170/11/98 167/10/98 165/10/98
f 167/10/98 170/11/98 172/11/98
f 170/11/99 166/10/99 169/11/99
f 166/10/99 170/11/99 165/10/99
f 171/11/100 166/10/100 168/10/100
f 166/10/100 171/11/100 169/11/100
f 175/10/95 174/10/95 173/10/95
f 174/10/95 175/10/95 176/10/95
f 179/11/96 178/11/96 177/11/96
f 178/11/96 179/11/96 180/11/96
f 176/10/97 180/11/97 179/11/97
f 180/11/97 176/10/97 175/10/97
f 178/11/98 175/10/98 173/10/98
f 175/10/98 178/11/98 180/11/98
f 178/11/99 174/10/99 177/11/99
f 174/10/99 178/11/99 173/10/99
f 179/11/100 174/10/100 176/10/100
f 174/10/100 179/11/100 177/11/100
f 27/12/101 181/13/101 28/12/101
f 181/13/101 27/12/101 182/13/101
f 40/12/9 181/13/9 183/13/9
f 181/13/9 40/12/9 28/12/9
f 28/12/9 40/12/9 184/14/9
f 28/12/9 184/14/9 185/14/9
f 186/13/95 181/13/95 182/13/95
f 181/13/95 186/13/95 183/13/95
f 186/13/102 40/12/102 183/13/102
f 40/12/102 186/13/102 39/12/102
f 27/12/15 186/13/15 182/13/15
f 186/13/15 27/12/15 39/12/15
f 39/12/15 27/12/15 187/14/15
f 39/12/15 187/14/15 188/14/15
g building-roof
usemtl colormap
f 3/1/2 2/1/1 1/1/1
f 2/1/1 3/1/2 4/1/2
f 7/2/4 6/2/3 5/2/3
f 6/2/3 7/2/4 8/2/4
f 11/1/2 10/1/1 9/1/1
f 10/1/1 11/1/2 12/1/2
f 15/5/6 14/4/5 13/3/5
f 14/4/5 15/5/6 16/6/6
f 17/7/7 13/3/5 14/4/5
f 13/3/5 17/7/7 18/8/7
f 20/8/8 4/1/9 19/7/8
f 4/1/9 20/8/8 7/2/9
f 4/1/9 7/2/9 2/1/9
f 5/2/9 2/1/9 7/2/9
f 18/8/7 2/1/9 5/2/9
f 2/1/9 18/8/7 17/7/7
f 23/3/10 22/7/11 21/4/10
f 22/7/11 23/3/10 24/8/11
f 23/3/10 26/6/12 25/5/12
f 26/6/12 23/3/10 21/4/10
f 13/3/13 25/5/13 15/5/13
f 25/5/13 13/3/13 23/3/13
f 23/3/13 13/3/13 18/8/13
f 23/3/13 18/8/13 24/8/13
f 24/8/13 18/8/13 6/2/3
f 6/2/3 18/8/13 5/2/3
f 21/4/14 16/6/14 26/6/14
f 16/6/14 21/4/14 14/4/14
f 14/4/14 21/4/14 22/7/14
f 14/4/14 22/7/14 27/7/14
f 27/7/14 22/7/14 10/1/1
f 10/1/1 22/7/14 9/1/1
f 28/7/14 14/4/14 27/7/14
f 14/4/14 28/7/14 17/7/14
f 17/7/14 28/7/14 1/1/1
f 17/7/14 1/1/1 2/1/1
f 25/5/12 16/6/6 15/5/6
f 16/6/6 25/5/12 26/6/12
f 24/8/11 9/1/15 22/7/11
f 9/1/15 24/8/11 6/2/15
f 9/1/15 6/2/15 11/1/15
f 8/2/15 11/1/15 6/2/15
f 29/8/16 11/1/15 8/2/15
f 11/1/15 29/8/16 30/7/16
f 33/4/18 32/5/17 31/6/17
f 32/5/17 33/4/18 34/3/18
f 36/3/19 19/7/8 35/4/19
f 19/7/8 36/3/19 20/8/8
f 38/6/20 32/5/17 37/5/20
f 32/5/17 38/6/20 31/6/17
f 30/7/21 12/1/2 11/1/2
f 12/1/2 30/7/21 39/7/21
f 39/7/21 30/7/21 33/4/21
f 39/7/21 33/4/21 40/7/21
f 40/7/21 33/4/21 35/4/21
f 35/4/21 33/4/21 38/6/21
f 38/6/21 33/4/21 31/6/21
f 19/7/21 40/7/21 35/4/21
f 4/1/2 40/7/21 19/7/21
f 40/7/21 4/1/2 3/1/2
f 35/4/19 37/5/20 36/3/19
f 37/5/20 35/4/19 38/6/20
f 20/8/22 8/2/4 7/2/4
f 8/2/4 20/8/22 29/8/22
f 29/8/22 20/8/22 36/3/22
f 29/8/22 36/3/22 34/3/22
f 34/3/22 36/3/22 37/5/22
f 34/3/22 37/5/22 32/5/22
f 30/7/16 34/3/18 33/4/18
f 34/3/18 30/7/16 29/8/16
f 43/9/25 42/9/24 41/9/23
f 42/9/24 43/9/25 44/9/26
f 42/9/24 44/9/26 45/9/27
f 45/9/27 44/9/26 46/9/28
f 49/9/31 48/9/30 47/9/29
f 48/9/30 49/9/31 50/9/32
f 50/9/32 49/9/31 51/9/33
f 50/9/32 51/9/33 52/9/34
f 52/9/34 53/9/35 50/9/32
f 53/9/35 52/9/34 54/9/36
f 53/9/35 46/9/28 44/9/26
f 46/9/28 53/9/35 54/9/36
f 48/9/30 53/9/35 55/9/37
f 53/9/35 48/9/30 50/9/32
f 55/9/37 44/9/26 43/9/25
f 44/9/26 55/9/37 53/9/35
f 56/9/38 41/9/23 42/9/24
f 41/9/23 56/9/38 57/9/39
f 58/9/40 49/9/31 56/9/38
f 49/9/31 58/9/40 51/9/33
f 58/9/40 52/9/34 51/9/33
f 52/9/34 58/9/40 54/9/36
f 46/9/28 58/9/40 45/9/27
f 58/9/40 46/9/28 54/9/36
f 47/9/29 55/9/37 57/9/39
f 55/9/37 47/9/29 48/9/30
f 45/9/27 56/9/38 42/9/24
f 56/9/38 45/9/27 58/9/40
f 56/9/38 47/9/29 57/9/39
f 47/9/29 56/9/38 49/9/31
f 57/9/39 43/9/25 41/9/23
f 43/9/25 57/9/39 55/9/37
f 61/9/43 60/9/42 59/9/41
f 60/9/42 61/9/43 62/9/44
f 60/9/42 62/9/44 63/9/45
f 63/9/45 62/9/44 64/9/46
f 67/9/49 66/9/48 65/9/47
f 66/9/48 67/9/49 68/9/50
f 68/9/50 67/9/49 69/9/51
f 68/9/50 69/9/51 70/9/52
f 70/9/52 71/9/53 68/9/50
f 71/9/53 70/9/52 72/9/54
f 71/9/53 64/9/46 62/9/44
f 64/9/46 71/9/53 72/9/54
f 66/9/48 71/9/53 73/9/55
f 71/9/53 66/9/48 68/9/50
f 73/9/55 62/9/44 61/9/43
f 62/9/44 73/9/55 71/9/53
f 74/9/56 59/9/41 60/9/42
f 59/9/41 74/9/56 75/9/57
f 76/9/58 67/9/49 74/9/56
f 67/9/49 76/9/58 69/9/51
f 76/9/58 70/9/52 69/9/51
f 70/9/52 76/9/58 72/9/54
f 64/9/46 76/9/58 63/9/45
f 76/9/58 64/9/46 72/9/54
f 65/9/47 73/9/55 75/9/57
f 73/9/55 65/9/47 66/9/48
f 63/9/45 74/9/56 60/9/42
f 74/9/56 63/9/45 76/9/58
f 74/9/56 65/9/47 75/9/57
f 65/9/47 74/9/56 67/9/49
f 75/9/57 61/9/43 59/9/41
f 61/9/43 75/9/57 73/9/55
f 79/9/61 78/9/60 77/9/59
f 78/9/60 79/9/61 80/9/62
f 78/9/60 80/9/62 81/9/63
f 81/9/63 80/9/62 82/9/64
f 85/9/67 84/9/66 83/9/65
f 84/9/66 85/9/67 86/9/68
f 86/9/68 85/9/67 87/9/69
f 86/9/68 87/9/69 88/9/70
f 88/9/70 89/9/71 86/9/68
f 89/9/71 88/9/70 90/9/72
f 89/9/71 82/9/64 80/9/62
f 82/9/64 89/9/71 90/9/72
f 84/9/66 89/9/71 91/9/73
f 89/9/71 84/9/66 86/9/68
f 91/9/73 80/9/62 79/9/61
f 80/9/62 91/9/73 89/9/71
f 92/9/74 77/9/59 78/9/60
f 77/9/59 92/9/74 93/9/75
f 94/9/76 85/9/67 92/9/74
f 85/9/67 94/9/76 87/9/69
f 94/9/76 88/9/70 87/9/69
f 88/9/70 94/9/76 90/9/72
f 82/9/64 94/9/76 81/9/63
f 94/9/76 82/9/64 90/9/72
f 83/9/65 91/9/73 93/9/75
f 91/9/73 83/9/65 84/9/66
f 81/9/63 92/9/74 78/9/60
f 92/9/74 81/9/63 94/9/76
f 92/9/74 83/9/65 93/9/75
f 83/9/65 92/9/74 85/9/67
f 93/9/75 79/9/61 77/9/59
f 79/9/61 93/9/75 91/9/73
f 97/9/43 96/9/42 95/9/41
f 96/9/42 97/9/43 98/9/44
f 96/9/42 98/9/44 99/9/45
f 99/9/45 98/9/44 100/9/46
f 103/9/49 102/9/48 101/9/47
f 102/9/48 103/9/49 104/9/50
f 104/9/50 103/9/49 105/9/51
f 104/9/50 105/9/51 106/9/52
f 106/9/52 107/9/53 104/9/50
f 107/9/53 106/9/52 108/9/54
f 107/9/53 100/9/46 98/9/44
f 100/9/46 107/9/53 108/9/54
f 102/9/48 107/9/53 109/9/55
f 107/9/53 102/9/48 104/9/50
f 109/9/55 98/9/44 97/9/43
f 98/9/44 109/9/55 107/9/53
f 110/9/56 95/9/41 96/9/42
f 95/9/41 110/9/56 111/9/57
f 112/9/58 103/9/49 110/9/56
f 103/9/49 112/9/58 105/9/51
f 112/9/58 106/9/52 105/9/51
f 106/9/52 112/9/58 108/9/54
f 100/9/46 112/9/58 99/9/45
f 112/9/58 100/9/46 108/9/54
f 101/9/47 109/9/55 111/9/57
f 109/9/55 101/9/47 102/9/48
f 99/9/45 110/9/56 96/9/42
f 110/9/56 99/9/45 112/9/58
f 110/9/56 101/9/47 111/9/57
f 101/9/47 110/9/56 103/9/49
f 111/9/57 97/9/43 95/9/41
f 97/9/43 111/9/57 109/9/55
f 115/9/25 114/9/24 113/9/23
f 114/9/24 115/9/25 116/9/26
f 114/9/24 116/9/26 117/9/27
f 117/9/27 116/9/26 118/9/28
f 121/9/31 120/9/30 119/9/29
f 120/9/30 121/9/31 122/9/32
f 122/9/32 121/9/31 123/9/33
f 122/9/32 123/9/33 124/9/34
f 124/9/34 125/9/35 122/9/32
f 125/9/35 124/9/34 126/9/36
f 125/9/35 118/9/28 116/9/26
f 118/9/28 125/9/35 126/9/36
f 120/9/30 125/9/35 127/9/37
f 125/9/35 120/9/30 122/9/32
f 127/9/37 116/9/26 115/9/25
f 116/9/26 127/9/37 125/9/35
f 128/9/38 113/9/23 114/9/24
f 113/9/23 128/9/38 129/9/39
f 130/9/40 121/9/31 128/9/38
f 121/9/31 130/9/40 123/9/33
f 130/9/40 124/9/34 123/9/33
f 124/9/34 130/9/40 126/9/36
f 118/9/28 130/9/40 117/9/27
f 130/9/40 118/9/28 126/9/36
f 119/9/29 127/9/37 129/9/39
f 127/9/37 119/9/29 120/9/30
f 117/9/27 128/9/38 114/9/24
f 128/9/38 117/9/27 130/9/40
f 128/9/38 119/9/29 129/9/39
f 119/9/29 128/9/38 121/9/31
f 129/9/39 115/9/25 113/9/23
f 115/9/25 129/9/39 127/9/37
f 133/9/79 132/9/78 131/9/77
f 132/9/78 133/9/79 134/9/80
f 132/9/78 134/9/80 135/9/81
f 135/9/81 134/9/80 136/9/82
f 139/9/85 138/9/84 137/9/83
f 138/9/84 139/9/85 140/9/86
f 140/9/86 139/9/85 141/9/87
f 140/9/86 141/9/87 142/9/88
f 142/9/88 143/9/89 140/9/86
f 143/9/89 142/9/88 144/9/90
f 143/9/89 136/9/82 134/9/80
f 136/9/82 143/9/89 144/9/90
f 138/9/84 143/9/89 145/9/91
f 143/9/89 138/9/84 140/9/86
f 145/9/91 134/9/80 133/9/79
f 134/9/80 145/9/91 143/9/89
f 146/9/92 131/9/77 132/9/78
f 131/9/77 146/9/92 147/9/93
f 148/9/94 139/9/85 146/9/92
f 139/9/85 148/9/94 141/9/87
f 148/9/94 142/9/88 141/9/87
f 142/9/88 148/9/94 144/9/90
f 136/9/82 148/9/94 135/9/81
f 148/9/94 136/9/82 144/9/90
f 137/9/83 145/9/91 147/9/93
f 145/9/91 137/9/83 138/9/84
f 135/9/81 146/9/92 132/9/78
f 146/9/92 135/9/81 148/9/94
f 146/9/92 137/9/83 147/9/93
f 137/9/83 146/9/92 139/9/85
f 147/9/93 133/9/79 131/9/77
f 133/9/79 147/9/93 145/9/91
f 151/10/95 150/10/95 149/10/95
f 150/10/95 151/10/95 152/10/95
f 155/11/96 154/11/96 153/11/96
f 154/11/96 155/11/96 156/11/96
f 152/10/97 156/11/97 155/11/97
f 156/11/97 152/10/97 151/10/97
f 154/11/98 151/10/98 149/10/98
f 151/10/98 154/11/98 156/11/98
f 154/11/99 150/10/99 153/11/99
f 150/10/99 154/11/99 149/10/99
f 155/11/100 150/10/100 152/10/100
f 150/10/100 155/11/100 153/11/100
f 159/10/95 158/10/95 157/10/95
f 158/10/95 159/10/95 160/10/95
f 163/11/96 162/11/96 161/11/96
f 162/11/96 163/11/96 164/11/96
f 160/10/97 164/11/97 163/11/97
f 164/11/97 160/10/97 159/10/97
f 162/11/98 159/10/98 157/10/98
f 159/10/98 162/11/98 164/11/98
f 162/11/99 158/10/99 161/11/99
f 158/10/99 162/11/99 157/10/99
f 163/11/100 158/10/100 160/10/100
f 158/10/100 163/11/100 161/11/100
f 167/10/95 166/10/95 165/10/95
f 166/10/95 167/10/95 168/10/95
f 171/11/96 170/11/96 169/11/96
f 170/11/96 171/11/96 172/11/96
f 168/10/97 172/11/97 171/11/97
f 172/11/97 168/10/97 167/10/97
f 170/11/98 167/10/98 165/10/98
f 167/10/98 170/11/98 172/11/98
f 170/11/99 166/10/99 169/11/99
f 166/10/99 170/11/99 165/10/99
f 171/11/100 166/10/100 168/10/100
f 166/10/100 171/11/100 169/11/100
f 175/10/95 174/10/95 173/10/95
f 174/10/95 175/10/95 176/10/95
f 179/11/96 178/11/96 177/11/96
f 178/11/96 179/11/96 180/11/96
f 176/10/97 180/11/97 179/11/97
f 180/11/97 176/10/97 175/10/97
f 178/11/98 175/10/98 173/10/98
f 175/10/98 178/11/98 180/11/98
f 178/11/99 174/10/99 177/11/99
f 174/10/99 178/11/99 173/10/99
f 179/11/100 174/10/100 176/10/100
f 174/10/100 179/11/100 177/11/100
f 27/12/101 181/13/101 28/12/101
f 181/13/101 27/12/101 182/13/101
f 40/12/9 181/13/9 183/13/9
f 181/13/9 40/12/9 28/12/9
f 28/12/9 40/12/9 184/14/9
f 28/12/9 184/14/9 185/14/9
f 186/13/95 181/13/95 182/13/95
f 181/13/95 186/13/95 183/13/95
f 186/13/102 40/12/102 183/13/102
f 40/12/102 186/13/102 39/12/102
f 27/12/15 186/13/15 182/13/15
f 186/13/15 27/12/15 39/12/15
f 39/12/15 27/12/15 187/14/15
f 39/12/15 187/14/15 188/14/15
