mtllib fence.mtl
g fence
v 0.38002 -5.6399e-18 -0.075
v 0.46998 2.82e-17 -0.075
v 0.36822 0.37 -0.086794
v 0.48178 0.37 -0.086794
v 0.46998 -2.82e-17 0.075
v 0.38002 -5.6399e-18 0.075
v 0.48178 0.37 0.086794
v 0.36822 0.37 0.086794
v 0.33821 0.37 -0.056779
v 0.33821 0.37 0.056779
v 0.35 -5.6399e-18 -0.044985
v 0.35 5.6399e-18 0.044985
v 0.51179 0.37 -0.056779
v 0.5 2.82e-17 -0.044985
v 0.51179 0.37 0.056779
v 0.5 -2.82e-17 0.044985
v 0.48273 0.4 -0.045281
v 0.48273 0.4 0.045281
v 0.47028 0.4 -0.057735
v 0.47028 0.4 0.057735
v 0.37972 0.4 -0.057735
v 0.37972 0.4 0.057735
v 0.36727 0.4 -0.045281
v 0.36727 0.4 0.045281
v -0.46998 -5.6399e-18 -0.075
v -0.38002 2.82e-17 -0.075
v -0.48178 0.37 -0.086794
v -0.36822 0.37 -0.086794
v -0.38002 -2.82e-17 0.075
v -0.46998 -5.6399e-18 0.075
v -0.36822 0.37 0.086794
v -0.48178 0.37 0.086794
v -0.51179 0.37 -0.056779
v -0.51179 0.37 0.056779
v -0.5 -5.6399e-18 -0.044985
v -0.5 5.6399e-18 0.044985
v -0.33821 0.37 -0.056779
v -0.35 2.82e-17 -0.044985
v -0.33821 0.37 0.056779
v -0.35 -2.82e-17 0.044985
v -0.36727 0.4 -0.045281
v -0.36727 0.4 0.045281
v -0.37972 0.4 -0.057735
v -0.37972 0.4 0.057735
v -0.47028 0.4 -0.057735
v -0.47028 0.4 0.057735
v -0.48273 0.4 -0.045281
v -0.48273 0.4 0.045281
v 0.34634 0.30777 -0.044721
v 0.36463 0.2682 -0.044721
v 0.34069 0.32 0
v 0.37028 0.25598 0
v 0.35549 0.28799 0.027639
v -0.37366 0.2682 -0.044721
v -0.35537 0.30777 -0.044721
v -0.37931 0.25598 0
v -0.34972 0.32 0
v -0.36451 0.28799 0.027639
v -0.18802 0.17581 0
v -0.19198 0.16207 -0.044721
v -0.20478 0.11761 -0.044721
v -0.20874 0.10387 0
v -0.19838 0.13984 0.027639
v 0.18935 0.13984 0.027639
v 0.17899 0.17581 0
v 0.21841 0.16575 0.027639
v 0.32643 0.26208 0.027639
v 0.20361 0.19776 0
v 0.31163 0.29409 0
v -0.0045143 0.11193 -0.044721
v -0.0045143 0.12673 0
v -0.035217 0.12014 -0.044721
v -0.033239 0.13441 0
v -0.1593 0.16813 0
v -0.16127 0.15386 -0.044721
v -0.16768 0.10769 -0.044721
v 0.15865 0.10769 -0.044721
v 0.19575 0.11761 -0.044721
v 0.032591 0.073969 -0.044721
v -0.04162 0.073969 -0.044721
v -0.0045143 0.064044 -0.044721
v 0.026189 0.12014 -0.044721
v 0.22755 0.14597 -0.044721
v 0.15225 0.15386 -0.044721
v 0.18295 0.16207 -0.044721
v 0.33558 0.24229 -0.044721
v 0.20926 0.18554 -0.044721
v 0.31729 0.28186 -0.044721
v 0.34123 0.23007 0
v 0.2332 0.13374 0
v 0.19971 0.10387 0
v 0.15027 0.16813 0
v 0.02421 0.13441 0
v -0.0045143 0.087988 0.027639
v 0.02939 0.097056 0.027639
v 0.15545 0.13077 0.027639
v -0.038419 0.097056 0.027639
v -0.16448 0.13077 0.027639
v -0.0045143 0.049246 0
v -0.043598 0.0597 0
v -0.16966 0.093418 0
v 0.03457 0.0597 0
v 0.16063 0.093418 0
v -0.30208 0.18405 0
v -0.31074 0.18405 -0.090413
v -0.31074 0.18405 0.090413
v -0.33459 0.18405 0.11426
v -0.33459 0.18405 -0.11426
v -0.425 0.18405 0.12292
v -0.425 0.18405 -0.12292
v -0.51541 0.18405 0.11426
v -0.51541 0.18405 -0.11426
v -0.53926 0.18405 0.090413
v -0.53926 0.18405 -0.090413
v -0.54792 0.18405 0
v -0.30208 0.31595 0
v -0.31074 0.31595 0.090413
v -0.31074 0.31595 -0.090413
v -0.33459 0.31595 -0.11426
v -0.33459 0.31595 0.11426
v -0.425 0.31595 -0.12292
v -0.425 0.31595 0.12292
v -0.51541 0.31595 -0.11426
v -0.51541 0.31595 0.11426
v -0.53926 0.31595 -0.090413
v -0.53926 0.31595 0.090413
v -0.54792 0.31595 0
v -0.33359 0.25 0.072331
v -0.35267 0.25 0.091411
v -0.51641 0.25 0.072331
v -0.49733 0.25 0.091411
v -0.35267 0.25 -0.091411
v -0.33359 0.25 -0.072331
v -0.49733 0.25 -0.091411
v -0.51641 0.25 -0.072331
v -0.425 0.25 0.098333
v -0.425 0.25 -0.098333
v -0.52333 0.25 -7.2191e-16
v -0.32667 0.25 -7.2191e-16
v 0.54792 0.18405 0
v 0.53926 0.18405 -0.090413
v 0.53926 0.18405 0.090413
v 0.51541 0.18405 0.11426
v 0.51541 0.18405 -0.11426
v 0.425 0.18405 0.12292
v 0.425 0.18405 -0.12292
v 0.33459 0.18405 0.11426
v 0.33459 0.18405 -0.11426
v 0.31074 0.18405 0.090413
v 0.31074 0.18405 -0.090413
v 0.30208 0.18405 0
v 0.54792 0.31595 0
v 0.53926 0.31595 0.090413
v 0.53926 0.31595 -0.090413
v 0.51541 0.31595 -0.11426
v 0.51541 0.31595 0.11426
v 0.425 0.31595 -0.12292
v 0.425 0.31595 0.12292
v 0.33459 0.31595 -0.11426
v 0.33459 0.31595 0.11426
v 0.31074 0.31595 -0.090413
v 0.31074 0.31595 0.090413
v 0.30208 0.31595 0
v 0.51641 0.25 0.072331
v 0.49733 0.25 0.091411
v 0.33359 0.25 0.072331
v 0.35267 0.25 0.091411
v 0.49733 0.25 -0.091411
v 0.51641 0.25 -0.072331
v 0.35267 0.25 -0.091411
v 0.33359 0.25 -0.072331
v 0.425 0.25 0.098333
v 0.425 0.25 -0.098333
v 0.32667 0.25 -7.2191e-16
v 0.52333 0.25 -7.2191e-16
vn -0.37842 -0.041537 -0.9247
vn 0.37842 -0.041537 -0.9247
vn -0.36112 0.34205 -0.86752
vn 0.36112 0.34205 -0.86752
vn 0.37842 -0.041537 0.9247
vn -0.37842 -0.041537 0.9247
vn 0.36112 0.34205 0.86752
vn -0.36112 0.34205 0.86752
vn -0.86752 0.34205 -0.36112
vn -0.86752 0.34205 0.36112
vn -0.9247 -0.041537 -0.37842
vn -0.9247 -0.041537 0.37842
vn 0.86752 0.34205 -0.36112
vn 0.9247 -0.041537 -0.37842
vn 0.86752 0.34205 0.36112
vn 0.9247 -0.041537 0.37842
vn 0 -1 0
vn 0.41288 0.89423 -0.17286
vn 0.41288 0.89423 0.17286
vn 0.17286 0.89423 -0.41288
vn 0.17286 0.89423 0.41288
vn -0.17286 0.89423 -0.41288
vn -0.17286 0.89423 0.41288
vn -0.41288 0.89423 -0.17286
vn -0.41288 0.89423 0.17286
vn 0.90771 0.41961 0
vn -0.90771 0.41961 0
vn 0.4607 0.82925 0.31638
vn 0.63952 0.71717 0.27692
vn 0.27111 0.48799 -0.82968
vn 0.42175 0.47296 -0.77359
vn -0.31627 -0.56929 -0.75887
vn -0.42175 -0.47296 -0.77359
vn -0.46684 -0.8403 0.2756
vn -0.63952 -0.71717 0.27692
vn -0.03611 -0.064998 0.99723
vn 0 0 1
vn 0.03611 -0.064998 0.99723
vn -0.4607 0.82925 0.31638
vn -0.63952 0.71717 0.27692
vn 0 0.53514 -0.84476
vn 0 0.94261 0.3339
vn 0.1535 0.5739 -0.80441
vn 0.24612 0.92017 0.30448
vn -0.1535 -0.5739 -0.80441
vn 0.1535 -0.5739 -0.80441
vn 0.31627 -0.56929 -0.75887
vn 0 -0.62847 -0.77784
vn -0.1535 0.5739 -0.80441
vn 0.42175 -0.47296 -0.77359
vn -0.27111 0.48799 -0.82968
vn -0.42175 0.47296 -0.77359
vn 0.63952 -0.71717 0.27692
vn 0.46684 -0.8403 0.2756
vn -0.24612 0.92017 0.30448
vn 0 -0.070027 0.99755
vn 0 -0.95663 0.29131
vn -0.24612 -0.92017 0.30448
vn 0.24612 -0.92017 0.30448
vn 0 1 0
vn 0.84028 0.39342 0.37302
vn 0.82339 0.39658 0.40589
vn 0.37302 0.39342 0.84028
vn 0.40589 0.39658 0.82339
vn -0.84028 -0.39342 0.37302
vn -0.82339 -0.39658 0.40589
vn -0.37302 -0.39342 0.84028
vn -0.40589 -0.39658 0.82339
vn 0.40589 -0.39658 -0.82339
vn 0.37302 -0.39342 -0.84028
vn 0.82339 -0.39658 -0.40589
vn 0.84028 -0.39342 -0.37302
vn -0.40589 -0.39658 -0.82339
vn -0.82339 -0.39658 -0.40589
vn -0.37302 -0.39342 -0.84028
vn -0.84028 -0.39342 -0.37302
vn 0 0.34926 0.93703
vn 0 0.34926 -0.93703
vn 0.40589 0.39658 -0.82339
vn 0.37302 0.39342 -0.84028
vn -0.93703 0.34926 0
vn -0.84028 0.39342 0.37302
vn -0.82339 0.39658 0.40589
vn 0.93703 0.34926 0
vn -0.40589 0.39658 0.82339
vn -0.37302 0.39342 0.84028
vn -0.82339 0.39658 -0.40589
vn -0.84028 0.39342 -0.37302
vn -0.40589 0.39658 -0.82339
vn -0.37302 0.39342 -0.84028
vn 0.82339 0.39658 -0.40589
vn 0.84028 0.39342 -0.37302
vn 0.37302 -0.39342 0.84028
vn 0 -0.34926 0.93703
vn 0.40589 -0.39658 0.82339
vn 0 -0.34926 -0.93703
vn 0.93703 -0.34926 0
vn 0.84028 -0.39342 0.37302
vn 0.82339 -0.39658 0.40589
vn -0.93703 -0.34926 0
vt 0.96875 0.025
vt 0.96875 0.21
vt 0.96875 0.225
vt 0.21875 0.47139
vt 0.21875 0.4597
vt 0.21875 0.475
vt 0.21875 0.45608
vt 0.21875 0.46554
vt 0.21875 0.4324
vt 0.21875 0.42834
vt 0.21875 0.4152
vt 0.21875 0.41114
vt 0.21875 0.42177
vt 0.21875 0.42942
vt 0.21875 0.45789
vt 0.21875 0.43888
vt 0.21875 0.46734
vt 0.21875 0.41352
vt 0.21875 0.41789
vt 0.21875 0.41595
vt 0.21875 0.42016
vt 0.21875 0.43013
vt 0.21875 0.42591
vt 0.21875 0.41227
vt 0.21875 0.4023
vt 0.21875 0.39937
vt 0.21875 0.42358
vt 0.21875 0.45204
vt 0.21875 0.43527
vt 0.21875 0.46373
vt 0.21875 0.44843
vt 0.21875 0.41996
vt 0.21875 0.40645
vt 0.21875 0.40913
vt 0.21875 0.41909
vt 0.21875 0.395
vt 0.21875 0.39809
vt 0.21875 0.40805
vt 0.21875 0.33392
vt 0.21875 0.425
vt 0.21875 0.37946
usemtl colormap
f 3/2/3 2/1/2 1/1/1
f 2/1/2 3/2/3 4/2/4
f 7/2/7 6/1/6 5/1/5
f 6/1/6 7/2/7 8/2/8
f 11/1/11 10/2/10 9/2/9
f 10/2/10 11/1/11 12/1/12
f 15/2/15 14/1/14 13/2/13
f 14/1/14 15/2/15 16/1/16
f 6/1/6 10/2/10 12/1/12
f 10/2/10 6/1/6 8/2/8
f 13/2/13 2/1/2 4/2/4
f 2/1/2 13/2/13 14/1/14
f 5/1/17 14/1/17 16/1/17
f 14/1/17 5/1/17 2/1/17
f 2/1/17 5/1/17 6/1/17
f 2/1/17 6/1/17 1/1/17
f 1/1/17 6/1/17 12/1/17
f 1/1/17 12/1/17 11/1/17
f 1/1/1 9/2/9 3/2/3
f 9/2/9 1/1/1 11/1/11
f 15/2/15 5/1/5 16/1/16
f 5/1/5 15/2/15 7/2/7
f 19/3/20 18/3/19 17/3/18
f 18/3/19 19/3/20 20/3/21
f 20/3/21 19/3/20 21/3/22
f 20/3/21 21/3/22 22/3/23
f 22/3/23 21/3/22 23/3/24
f 22/3/23 23/3/24 24/3/25
f 17/3/18 15/2/15 13/2/13
f 15/2/15 17/3/18 18/3/19
f 21/3/22 4/2/4 3/2/3
f 4/2/4 21/3/22 19/3/20
f 4/2/4 17/3/18 13/2/13
f 17/3/18 4/2/4 19/3/20
f 3/2/3 23/3/24 21/3/22
f 23/3/24 3/2/3 9/2/9
f 24/3/25 8/2/8 22/3/23
f 8/2/8 24/3/25 10/2/10
f 20/3/21 8/2/8 7/2/7
f 8/2/8 20/3/21 22/3/23
f 10/2/10 23/3/24 9/2/9
f 23/3/24 10/2/10 24/3/25
f 18/3/19 7/2/7 15/2/15
f 7/2/7 18/3/19 20/3/21
f 27/2/3 26/1/2 25/1/1
f 26/1/2 27/2/3 28/2/4
f 31/2/7 30/1/6 29/1/5
f 30/1/6 31/2/7 32/2/8
f 35/1/11 34/2/10 33/2/9
f 34/2/10 35/1/11 36/1/12
f 39/2/15 38/1/14 37/2/13
f 38/1/14 39/2/15 40/1/16
f 30/1/6 34/2/10 36/1/12
f 34/2/10 30/1/6 32/2/8
f 37/2/13 26/1/2 28/2/4
f 26/1/2 37/2/13 38/1/14
f 29/1/17 38/1/17 40/1/17
f 38/1/17 29/1/17 26/1/17
f 26/1/17 29/1/17 30/1/17
f 26/1/17 30/1/17 25/1/17
f 25/1/17 30/1/17 36/1/17
f 25/1/17 36/1/17 35/1/17
f 25/1/1 33/2/9 27/2/3
f 33/2/9 25/1/1 35/1/11
f 39/2/15 29/1/5 40/1/16
f 29/1/5 39/2/15 31/2/7
f 43/3/20 42/3/19 41/3/18
f 42/3/19 43/3/20 44/3/21
f 44/3/21 43/3/20 45/3/22
f 44/3/21 45/3/22 46/3/23
f 46/3/23 45/3/22 47/3/24
f 46/3/23 47/3/24 48/3/25
f 41/3/18 39/2/15 37/2/13
f 39/2/15 41/3/18 42/3/19
f 45/3/22 28/2/4 27/2/3
f 28/2/4 45/3/22 43/3/20
f 28/2/4 41/3/18 37/2/13
f 41/3/18 28/2/4 43/3/20
f 27/2/3 47/3/24 45/3/22
f 47/3/24 27/2/3 33/2/9
f 48/3/25 32/2/8 46/3/23
f 32/2/8 48/3/25 34/2/10
f 44/3/21 32/2/8 31/2/7
f 32/2/8 44/3/21 46/3/23
f 34/2/10 47/3/24 33/2/9
f 47/3/24 34/2/10 48/3/25
f 42/3/19 31/2/7 39/2/15
f 31/2/7 42/3/19 44/3/21
f 51/6/26 50/5/26 49/4/26
f 50/5/26 51/6/26 52/7/26
f 52/7/26 51/6/26 53/8/26
f 56/7/27 55/4/27 54/5/27
f 55/4/27 56/7/27 57/6/27
f 57/6/27 56/7/27 58/8/27
f 60/10/30 57/6/29 59/9/28
f 57/6/29 60/10/30 55/4/31
f 62/12/34 54/5/33 61/11/32
f 54/5/33 62/12/34 56/7/35
f 63/13/36 56/7/35 62/12/34
f 56/7/35 63/13/36 58/8/37
f 59/9/28 58/8/37 63/13/36
f 58/8/37 59/9/28 57/6/29
f 66/14/37 65/9/39 64/13/38
f 65/9/39 66/14/37 67/15/37
f 65/9/39 67/15/37 68/16/40
f 68/16/40 67/15/37 69/17/40
f 69/17/40 67/15/37 53/8/37
f 69/17/40 53/8/37 51/6/40
f 72/20/43 71/19/42 70/18/41
f 71/19/42 72/20/43 73/21/44
f 73/21/44 72/20/43 74/22/44
f 74/22/44 72/20/43 75/23/43
f 74/22/44 75/23/43 59/9/28
f 59/9/28 75/23/43 60/10/30
f 60/10/30 54/5/33 55/4/31
f 60/10/30 61/11/32 54/5/33
f 75/23/43 61/11/32 60/10/30
f 72/20/43 61/11/32 75/23/43
f 70/18/41 61/11/32 72/20/43
f 61/11/32 70/18/41 76/24/45
f 77/24/46 76/24/45 70/18/41
f 77/24/46 70/18/41 78/11/47
f 79/25/46 76/24/45 77/24/46
f 79/25/46 80/25/45 76/24/45
f 80/25/45 79/25/46 81/26/48
f 78/11/47 70/18/41 82/20/49
f 78/11/47 82/20/49 83/27/50
f 83/27/50 82/20/49 84/23/49
f 83/27/50 84/23/49 85/10/51
f 83/27/50 85/10/51 86/28/50
f 86/28/50 85/10/51 87/29/52
f 86/28/50 87/29/52 88/30/52
f 86/28/50 88/30/52 50/5/50
f 50/5/50 88/30/52 49/4/52
f 89/31/53 50/5/50 52/7/53
f 50/5/50 89/31/53 86/28/50
f 86/28/50 89/31/53 90/32/53
f 86/28/50 90/32/53 83/27/50
f 83/27/50 90/32/53 91/12/54
f 83/27/50 91/12/54 78/11/47
f 84/23/49 65/9/39 85/10/51
f 65/9/39 84/23/49 92/22/55
f 92/22/55 84/23/49 82/20/49
f 92/22/55 82/20/49 93/21/55
f 93/21/55 82/20/49 70/18/41
f 93/21/55 70/18/41 71/19/42
f 95/34/37 71/19/42 94/33/56
f 71/19/42 95/34/37 96/35/37
f 71/19/42 96/35/37 93/21/55
f 93/21/55 96/35/37 64/13/38
f 93/21/55 64/13/38 92/22/55
f 92/22/55 64/13/38 65/9/39
f 71/19/42 97/34/37 94/33/56
f 97/34/37 71/19/42 98/35/37
f 98/35/37 71/19/42 73/21/44
f 98/35/37 73/21/44 63/13/36
f 63/13/36 73/21/44 74/22/44
f 63/13/36 74/22/44 59/9/28
f 100/37/58 81/26/48 99/36/57
f 81/26/48 100/37/58 80/25/45
f 80/25/45 100/37/58 76/24/45
f 76/24/45 100/37/58 101/38/58
f 76/24/45 101/38/58 61/11/32
f 61/11/32 101/38/58 62/12/34
f 102/37/59 94/33/56 99/36/57
f 94/33/56 102/37/59 103/38/59
f 94/33/56 103/38/59 95/34/37
f 95/34/37 103/38/59 91/12/54
f 95/34/37 91/12/54 96/35/37
f 96/35/37 91/12/54 64/13/38
f 94/33/56 100/37/58 99/36/57
f 100/37/58 94/33/56 101/38/58
f 101/38/58 94/33/56 97/34/37
f 101/38/58 97/34/37 62/12/34
f 62/12/34 97/34/37 98/35/37
f 62/12/34 98/35/37 63/13/36
f 88/30/52 51/6/40 49/4/52
f 51/6/40 88/30/52 69/17/40
f 69/17/40 88/30/52 87/29/52
f 69/17/40 87/29/52 68/16/40
f 68/16/40 87/29/52 85/10/51
f 68/16/40 85/10/51 65/9/39
f 90/32/53 64/13/38 91/12/54
f 64/13/38 90/32/53 89/31/53
f 64/13/38 89/31/53 66/14/37
f 66/14/37 89/31/53 67/15/37
f 67/15/37 89/31/53 52/7/53
f 67/15/37 52/7/53 53/8/37
f 103/38/59 78/11/47 91/12/54
f 78/11/47 103/38/59 77/24/46
f 77/24/46 103/38/59 102/37/59
f 77/24/46 102/37/59 79/25/46
f 79/25/46 102/37/59 99/36/57
f 79/25/46 99/36/57 81/26/48
f 106/39/17 105/39/17 104/39/17
f 105/39/17 106/39/17 107/39/17
f 105/39/17 107/39/17 108/39/17
f 108/39/17 107/39/17 109/39/17
f 108/39/17 109/39/17 110/39/17
f 110/39/17 109/39/17 111/39/17
f 110/39/17 111/39/17 112/39/17
f 112/39/17 111/39/17 113/39/17
f 112/39/17 113/39/17 114/39/17
f 114/39/17 113/39/17 115/39/17
f 118/40/60 117/40/60 116/40/60
f 117/40/60 118/40/60 119/40/60
f 117/40/60 119/40/60 120/40/60
f 120/40/60 119/40/60 121/40/60
f 120/40/60 121/40/60 122/40/60
f 122/40/60 121/40/60 123/40/60
f 122/40/60 123/40/60 124/40/60
f 124/40/60 123/40/60 125/40/60
f 124/40/60 125/40/60 126/40/60
f 126/40/60 125/40/60 127/40/60
f 129/41/63 106/39/62 128/41/61
f 106/39/62 129/41/63 107/39/64
f 131/41/67 126/40/66 130/41/65
f 126/40/66 131/41/67 124/40/68
f 118/40/71 132/41/70 119/40/69
f 132/41/70 118/40/71 133/41/72
f 134/41/75 125/40/74 123/40/73
f 125/40/74 134/41/75 135/41/76
f 129/41/63 109/39/77 107/39/64
f 109/39/77 129/41/63 136/41/77
f 137/41/78 108/39/79 110/39/78
f 108/39/79 137/41/78 132/41/80
f 115/39/81 130/41/82 138/41/81
f 130/41/82 115/39/81 113/39/83
f 128/41/61 104/39/84 139/41/84
f 104/39/84 128/41/61 106/39/62
f 136/41/77 111/39/85 109/39/77
f 111/39/85 136/41/77 131/41/86
f 115/39/81 135/41/88 114/39/87
f 135/41/88 115/39/81 138/41/81
f 134/41/90 110/39/78 112/39/89
f 110/39/78 134/41/90 137/41/78
f 133/41/92 104/39/84 105/39/91
f 104/39/84 133/41/92 139/41/84
f 120/40/95 136/41/94 129/41/93
f 136/41/94 120/40/95 122/40/94
f 123/40/73 137/41/96 134/41/75
f 137/41/96 123/40/73 121/40/96
f 121/40/96 132/41/70 137/41/96
f 132/41/70 121/40/96 119/40/69
f 116/40/97 128/41/98 139/41/97
f 128/41/98 116/40/97 117/40/99
f 130/41/65 127/40/100 138/41/100
f 127/40/100 130/41/65 126/40/66
f 113/39/83 131/41/86 130/41/82
f 131/41/86 113/39/83 111/39/85
f 135/41/76 127/40/100 125/40/74
f 127/40/100 135/41/76 138/41/100
f 122/40/94 131/41/67 136/41/94
f 131/41/67 122/40/94 124/40/68
f 117/40/99 129/41/93 128/41/98
f 129/41/93 117/40/99 120/40/95
f 114/39/87 134/41/90 112/39/89
f 134/41/90 114/39/87 135/41/88
f 132/41/80 105/39/91 108/39/79
f 105/39/91 132/41/80 133/41/92
f 116/40/97 133/41/72 118/40/71
f 133/41/72 116/40/97 139/41/97
f 142/39/17 141/39/17 140/39/17
f 141/39/17 142/39/17 143/39/17
f 141/39/17 143/39/17 144/39/17
f 144/39/17 143/39/17 145/39/17
f 144/39/17 145/39/17 146/39/17
f 146/39/17 145/39/17 147/39/17
f 146/39/17 147/39/17 148/39/17
f 148/39/17 147/39/17 149/39/17
f 148/39/17 149/39/17 150/39/17
f 150/39/17 149/39/17 151/39/17
f 154/40/60 153/40/60 152/40/60
f 153/40/60 154/40/60 155/40/60
f 153/40/60 155/40/60 156/40/60
f 156/40/60 155/40/60 157/40/60
f 156/40/60 157/40/60 158/40/60
f 158/40/60 157/40/60 159/40/60
f 158/40/60 159/40/60 160/40/60
f 160/40/60 159/40/60 161/40/60
f 160/40/60 161/40/60 162/40/60
f 162/40/60 161/40/60 163/40/60
f 165/41/63 142/39/62 164/41/61
f 142/39/62 165/41/63 143/39/64
f 167/41/67 162/40/66 166/41/65
f 162/40/66 167/41/67 160/40/68
f 154/40/71 168/41/70 155/40/69
f 168/41/70 154/40/71 169/41/72
f 170/41/75 161/40/74 159/40/73
f 161/40/74 170/41/75 171/41/76
f 165/41/63 145/39/77 143/39/64
f 145/39/77 165/41/63 172/41/77
f 173/41/78 144/39/79 146/39/78
f 144/39/79 173/41/78 168/41/80
f 151/39/81 166/41/82 174/41/81
f 166/41/82 151/39/81 149/39/83
f 164/41/61 140/39/84 175/41/84
f 140/39/84 164/41/61 142/39/62
f 172/41/77 147/39/85 145/39/77
f 147/39/85 172/41/77 167/41/86
f 151/39/81 171/41/88 150/39/87
f 171/41/88 151/39/81 174/41/81
f 170/41/90 146/39/78 148/39/89
f 146/39/78 170/41/90 173/41/78
f 169/41/92 140/39/84 141/39/91
f 140/39/84 169/41/92 175/41/84
f 156/40/95 172/41/94 165/41/93
f 172/41/94 156/40/95 158/40/94
f 159/40/73 173/41/96 170/41/75
f 173/41/96 159/40/73 157/40/96
f 157/40/96 168/41/70 173/41/96
f 168/41/70 157/40/96 155/40/69
f 152/40/97 164/41/98 175/41/97
f 164/41/98 152/40/97 153/40/99
f 166/41/65 163/40/100 174/41/100
f 163/40/100 166/41/65 162/40/66
f 149/39/83 167/41/86 166/41/82
f 167/41/86 149/39/83 147/39/85
f 171/41/76 163/40/100 161/40/74
f 163/40/100 171/41/76 174/41/100
f 158/40/94 167/41/67 172/41/94
f 167/41/67 158/40/94 160/40/68
f 153/40/99 165/41/93 164/41/98
f 165/41/93 153/40/99 156/40/95
f 150/39/87 170/41/90 148/39/89
f 170/41/90 150/39/87 171/41/88
f 168/41/80 141/39/91 144/39/79
f 141/39/91 168/41/80 169/41/92
f 152/40/97 169/41/72 154/40/71
f 169/41/72 152/40/97 175/41/97
g fence
usemtl colormap
f 3/2/3 2/1/2 1/1/1
f 2/1/2 3/2/3 4/2/4
f 7/2/7 6/1/6 5/1/5
f 6/1/6 7/2/7 8/2/8
f 11/1/11 10/2/10 9/2/9
f 10/2/10 11/1/11 12/1/12
f 15/2/15 14/1/14 13/2/13
f 14/1/14 15/2/15 16/1/16
f 6/1/6 10/2/10 12/1/12
f 10/2/10 6/1/6 8/2/8
f 13/2/13 2/1/2 4/2/4
f 2/1/2 13/2/13 14/1/14
f 5/1/17 14/1/17 16/1/17
f 14/1/17 5/1/17 2/1/17
f 2/1/17 5/1/17 6/1/17
f 2/1/17 6/1/17 1/1/17
f 1/1/17 6/1/17 12/1/17
f 1/1/17 12/1/17 11/1/17
f 1/1/1 9/2/9 3/2/3
f 9/2/9 1/1/1 11/1/11
f 15/2/15 5/1/5 16/1/16
f 5/1/5 15/2/15 7/2/7
f 19/3/20 18/3/19 17/3/18
f 18/3/19 19/3/20 20/3/21
f 20/3/21 19/3/20 21/3/22
f 20/3/21 21/3/22 22/3/23
f 22/3/23 21/3/22 23/3/24
f 22/3/23 23/3/24 24/3/25
f 17/3/18 15/2/15 13/2/13
f 15/2/15 17/3/18 18/3/19
f 21/3/22 4/2/4 3/2/3
f 4/2/4 21/3/22 19/3/20
f 4/2/4 17/3/18 13/2/13
f 17/3/18 4/2/4 19/3/20
f 3/2/3 23/3/24 21/3/22
f 23/3/24 3/2/3 9/2/9
f 24/3/25 8/2/8 22/3/23
f 8/2/8 24/3/25 10/2/10
f 20/3/21 8/2/8 7/2/7
f 8/2/8 20/3/21 22/3/23
f 10/2/10 23/3/24 9/2/9
f 23/3/24 10/2/10 24/3/25
f 18/3/19 7/2/7 15/2/15
f 7/2/7 18/3/19 20/3/21
f 27/2/3 26/1/2 25/1/1
f 26/1/2 27/2/3 28/2/4
f 31/2/7 30/1/6 29/1/5
f 30/1/6 31/2/7 32/2/8
f 35/1/11 34/2/10 33/2/9
f 34/2/10 35/1/11 36/1/12
f 39/2/15 38/1/14 37/2/13
f 38/1/14 39/2/15 40/1/16
f 30/1/6 34/2/10 36/1/12
f 34/2/10 30/1/6 32/2/8
f 37/2/13 26/1/2 28/2/4
f 26/1/2 37/2/13 38/1/14
f 29/1/17 38/1/17 40/1/17
f 38/1/17 29/1/17 26/1/17
f 26/1/17 29/1/17 30/1/17
f 26/1/17 30/1/17 25/1/17
f 25/1/17 30/1/17 36/1/17
f 25/1/17 36/1/17 35/1/17
f 25/1/1 33/2/9 27/2/3
f 33/2/9 25/1/1 35/1/11
f 39/2/15 29/1/5 40/1/16
f 29/1/5 39/2/15 31/2/7
f 43/3/20 42/3/19 41/3/18
f 42/3/19 43/3/20 44/3/21
f 44/3/21 43/3/20 45/3/22
f 44/3/21 45/3/22 46/3/23
f 46/3/23 45/3/22 47/3/24
f 46/3/23 47/3/24 48/3/25
f 41/3/18 39/2/15 37/2/13
f 39/2/15 41/3/18 42/3/19
f 45/3/22 28/2/4 27/2/3
f 28/2/4 45/3/22 43/3/20
f 28/2/4 41/3/18 37/2/13
f 41/3/18 28/2/4 43/3/20
f 27/2/3 47/3/24 45/3/22
f 47/3/24 27/2/3 33/2/9
f 48/3/25 32/2/8 46/3/23
f 32/2/8 48/3/25 34/2/10
f 44/3/21 32/2/8 31/2/7
f 32/2/8 44/3/21 46/3/23
f 34/2/10 47/3/24 33/2/9
f 47/3/24 34/2/10 48/3/25
f 42/3/19 31/2/7 39/2/15
f 31/2/7 42/3/19 44/3/21
f 51/6/26 50/5/26 49/4/26
f 50/5/26 51/6/26 52/7/26
f 52/7/26 51/6/26 53/8/26
f 56/7/27 55/4/27 54/5/27
f 55/4/27 56/7/27 57/6/27
f 57/6/27 56/7/27 58/8/27
f 60/10/30 57/6/29 59/9/28
f 57/6/29 60/10/30 55/4/31
f 62/12/34 54/5/33 61/11/32
f 54/5/33 62/12/34 56/7/35
f 63/13/36 56/7/35 62/12/34
f 56/7/35 63/13/36 58/8/37
f 59/9/28 58/8/37 63/13/36
f 58/8/37 59/9/28 57/6/29
f 66/14/37 65/9/39 64/13/38
f 65/9/39 66/14/37 67/15/37
f 65/9/39 67/15/37 68/16/40
f 68/16/40 67/15/37 69/17/40
f 69/17/40 67/15/37 53/8/37
f 69/17/40 53/8/37 51/6/40
f 72/20/43 71/19/42 70/18/41
f 71/19/42 72/20/43 73/21/44
f 73/21/44 72/20/43 74/22/44
f 74/22/44 72/20/43 75/23/43
f 74/22/44 75/23/43 59/9/28
f 59/9/28 75/23/43 60/10/30
f 60/10/30 54/5/33 55/4/31
f 60/10/30 61/11/32 54/5/33
f 75/23/43 61/11/32 60/10/30
f 72/20/43 61/11/32 75/23/43
f 70/18/41 61/11/32 72/20/43
f 61/11/32 70/18/41 76/24/45
f 77/24/46 76/24/45 70/18/41
f 77/24/46 70/18/41 78/11/47
f 79/25/46 76/24/45 77/24/46
f 79/25/46 80/25/45 76/24/45
f 80/25/45 79/25/46 81/26/48
f 78/11/47 70/18/41 82/20/49
f 78/11/47 82/20/49 83/27/50
f 83/27/50 82/20/49 84/23/49
f 83/27/50 84/23/49 85/10/51
f 83/27/50 85/10/51 86/28/50
f 86/28/50 85/10/51 87/29/52
f 86/28/50 87/29/52 88/30/52
f 86/28/50 88/30/52 50/5/50
f 50/5/50 88/30/52 49/4/52
f 89/31/53 50/5/50 52/7/53
f 50/5/50 89/31/53 86/28/50
f 86/28/50 89/31/53 90/32/53
f 86/28/50 90/32/53 83/27/50
f 83/27/50 90/32/53 91/12/54
f 83/27/50 91/12/54 78/11/47
f 84/23/49 65/9/39 85/10/51
f 65/9/39 84/23/49 92/22/55
f 92/22/55 84/23/49 82/20/49
f 92/22/55 82/20/49 93/21/55
f 93/21/55 82/20/49 70/18/41
f 93/21/55 70/18/41 71/19/42
f 95/34/37 71/19/42 94/33/56
f 71/19/42 95/34/37 96/35/37
f 71/19/42 96/35/37 93/21/55
f 93/21/55 96/35/37 64/13/38
f 93/21/55 64/13/38 92/22/55
f 92/22/55 64/13/38 65/9/39
f 71/19/42 97/34/37 94/33/56
f 97/34/37 71/19/42 98/35/37
f 98/35/37 71/19/42 73/21/44
f 98/35/37 73/21/44 63/13/36
f 63/13/36 73/21/44 74/22/44
f 63/13/36 74/22/44 59/9/28
f 100/37/58 81/26/48 99/36/57
f 81/26/48 100/37/58 80/25/45
f 80/25/45 100/37/58 76/24/45
f 76/24/45 100/37/58 101/38/58
f 76/24/45 101/38/58 61/11/32
f 61/11/32 101/38/58 62/12/34
f 102/37/59 94/33/56 99/36/57
f 94/33/56 102/37/59 103/38/59
f 94/33/56 103/38/59 95/34/37
f 95/34/37 103/38/59 91/12/54
f 95/34/37 91/12/54 96/35/37
f 96/35/37 91/12/54 64/13/38
f 94/33/56 100/37/58 99/36/57
f 100/37/58 94/33/56 101/38/58
f 101/38/58 94/33/56 97/34/37
f 101/38/58 97/34/37 62/12/34
f 62/12/34 97/34/37 98/35/37
f 62/12/34 98/35/37 63/13/36
f 88/30/52 51/6/40 49/4/52
f 51/6/40 88/30/52 69/17/40
f 69/17/40 88/30/52 87/29/52
f 69/17/40 87/29/52 68/16/40
f 68/16/40 87/29/52 85/10/51
f 68/16/40 85/10/51 65/9/39
f 90/32/53 64/13/38 91/12/54
f 64/13/38 90/32/53 89/31/53
f 64/13/38 89/31/53 66/14/37
f 66/14/37 89/31/53 67/15/37
f 67/15/37 89/31/53 52/7/53
f 67/15/37 52/7/53 53/8/37
f 103/38/59 78/11/47 91/12/54
f 78/11/47 103/38/59 77/24/46
f 77/24/46 103/38/59 102/37/59
f 77/24/46 102/37/59 79/25/46
f 79/25/46 102/37/59 99/36/57
f 79/25/46 99/36/57 81/26/48
f 106/39/17 105/39/17 104/39/17
f 105/39/17 106/39/17 107/39/17
f 105/39/17 107/39/17 108/39/17
f 108/39/17 107/39/17 109/39/17
f 108/39/17 109/39/17 110/39/17
f 110/39/17 109/39/17 111/39/17
f 110/39/17 111/39/17 112/39/17
f 112/39/17 111/39/17 113/39/17
f 112/39/17 113/39/17 114/39/17
f 114/39/17 113/39/17 115/39/17
f 118/40/60 117/40/60 116/40/60
f 117/40/60 118/40/60 119/40/60
f 117/40/60 119/40/60 120/40/60
f 120/40/60 119/40/60 121/40/60
f 120/40/60 121/40/60 122/40/60
f 122/40/60 121/40/60 123/40/60
f 122/40/60 123/40/60 124/40/60
f 124/40/60 123/40/60 125/40/60
f 124/40/60 125/40/60 126/40/60
f 126/40/60 125/40/60 127/40/60
f 129/41/63 106/39/62 128/41/61
f 106/39/62 129/41/63 107/39/64
f 131/41/67 126/40/66 130/41/65
f 126/40/66 131/41/67 124/40/68
f 118/40/71 132/41/70 119/40/69
f 132/41/70 118/40/71 133/41/72
f 134/41/75 125/40/74 123/40/73
f 125/40/74 134/41/75 135/41/76
f 129/41/63 109/39/77 107/39/64
f 109/39/77 129/41/63 136/41/77
f 137/41/78 108/39/79 110/39/78
f 108/39/79 137/41/78 132/41/80
f 115/39/81 130/41/82 138/41/81
f 130/41/82 115/39/81 113/39/83
f 128/41/61 104/39/84 139/41/84
f 104/39/84 128/41/61 106/39/62
f 136/41/77 111/39/85 109/39/77
f 111/39/85 136/41/77 131/41/86
f 115/39/81 135/41/88 114/39/87
f 135/41/88 115/39/81 138/41/81
f 134/41/90 110/39/78 112/39/89
f 110/39/78 134/41/90 137/41/78
f 133/41/92 104/39/84 105/39/91
f 104/39/84 133/41/92 139/41/84
f 120/40/95 136/41/94 129/41/93
f 136/41/94 120/40/95 122/40/94
f 123/40/73 137/41/96 134/41/75
f 137/41/96 123/40/73 121/40/96
f 121/40/96 132/41/70 137/41/96
f 132/41/70 121/40/96 119/40/69
f 116/40/97 128/41/98 139/41/97
f 128/41/98 116/40/97 117/40/99
f 130/41/65 127/40/100 138/41/100
f 127/40/100 130/41/65 126/40/66
f 113/39/83 131/41/86 130/41/82
f 131/41/86 113/39/83 111/39/85
f 135/41/76 127/40/100 125/40/74
f 127/40/100 135/41/76 138/41/100
f 122/40/94 131/41/67 136/41/94
f 131/41/67 122/40/94 124/40/68
f 117/40/99 129/41/93 128/41/98
f 129/41/93 117/40/99 120/40/95
f 114/39/87 134/41/90 112/39/89
f 134/41/90 114/39/87 135/41/88
f 132/41/80 105/39/91 108/39/79
f 105/39/91 132/41/80 133/41/92
f 116/40/97 133/41/72 118/40/71
f 133/41/72 116/40/97 139/41/97
f 142/39/17 141/39/17 140/39/17
f 141/39/17 142/39/17 143/39/17
f 141/39/17 143/39/17 144/39/17
f 144/39/17 143/39/17 145/39/17
f 144/39/17 145/39/17 146/39/17
f 146/39/17 145/39/17 147/39/17
f 146/39/17 147/39/17 148/39/17
f 148/39/17 147/39/17 149/39/17
f 148/39/17 149/39/17 150/39/17
f 150/39/17 149/39/17 151/39/17
f 154/40/60 153/40/60 152/40/60
f 153/40/60 154/40/60 155/40/60
f 153/40/60 155/40/60 156/40/60
f 156/40/60 155/40/60 157/40/60
f 156/40/60 157/40/60 158/40/60
f 158/40/60 157/40/60 159/40/60
f 158/40/60 159/40/60 160/40/60
f 160/40/60 159/40/60 161/40/60
f 160/40/60 161/40/60 162/40/60
f 162/40/60 161/40/60 163/40/60
f 165/41/63 142/39/62 164/41/61
f 142/39/62 165/41/63 143/39/64
f 167/41/67 162/40/66 166/41/65
f 162/40/66 167/41/67 160/40/68
f 154/40/71 168/41/70 155/40/69
f 168/41/70 154/40/71 169/41/72
f 170/41/75 161/40/74 159/40/73
f 161/40/74 170/41/75 171/41/76
f 165/41/63 145/39/77 143/39/64
f 145/39/77 165/41/63 172/41/77
f 173/41/78 144/39/79 146/39/78
f 144/39/79 173/41/78 168/41/80
f 151/39/81 166/41/82 174/41/81
f 166/41/82 151/39/81 149/39/83
f 164/41/61 140/39/84 175/41/84
f 140/39/84 164/41/61 142/39/62
f 172/41/77 147/39/85 145/39/77
f 147/39/85 172/41/77 167/41/86
f 151/39/81 171/41/88 150/39/87
f 171/41/88 151/39/81 174/41/81
f 170/41/90 146/39/78 148/39/89
f 146/39/78 170/41/90 173/41/78
f 169/41/92 140/39/84 141/39/91
f 140/39/84 169/41/92 175/41/84
f 156/40/95 172/41/94 165/41/93
f 172/41/94 156/40/95 158/40/94
f 159/40/73 173/41/96 170/41/75
f 173/41/96 159/40/73 157/40/96
f 157/40/96 168/41/70 173/41/96
f 168/41/70 157/40/96 155/40/69
f 152/40/97 164/41/98 175/41/97
f 164/41/98 152/40/97 153/40/99
f 166/41/65 163/40/100 174/41/100
f 163/40/100 166/41/65 162/40/66
f 149/39/83 167/41/86 166/41/82
f 167/41/86 149/39/83 147/39/85
f 171/41/76 163/40/100 161/40/74
f 163/40/100 171/41/76 174/41/100
f 158/40/94 167/41/67 172/41/94
f 167/41/67 158/40/94 160/40/68
f 153/40/99 165/41/93 164/41/98
f 165/41/93 153/40/99 156/40/95
f 150/39/87 170/41/90 148/39/89
f 170/41/90 150/39/87 171/41/88
f 168/41/80 141/39/91 144/39/79
f 141/39/91 168/41/80 169/41/92
f 152/40/97 169/41/72 154/40/71
f 169/41/72 152/40/97 175/41/97
