mtllib flag.mtl
g flag
v 0.02555 0.75 -0.02555
v 0.02555 0.75 0.02555
v -0.02555 0.75 -0.02555
v -0.02555 0.75 0.02555
v 0.04375 0.1785 -0.04375
v 0.04375 0.1785 0.04375
v -0.04375 0.1785 -0.04375
v -0.04375 0.1785 0.04375
v 0.32344 0.52745 0.061803
v 0.32344 0.62597 0.061803
v 0.35408 0.56171 0.036208
v 0.35408 0.59172 0.036208
v 0.35408 0.59172 -0.013792
v 0.35408 0.56171 -0.013792
v 0.32344 0.52745 0.011803
v 0.32344 0.62597 0.011803
v 0.21175 0.48977 0.061803
v 0.21175 0.48977 0.011803
v 0.18972 0.48201 0.043402
v 0.18972 0.48201 -0.0065983
v 0.16769 0.47426 0.025
v 0.16769 0.47426 -0.025
v 0.26759 0.50884 0.075
v 0.26759 0.50884 0.025
v 0.11185 0.45519 0.011803
v 0.11185 0.45519 -0.038197
v 0.076 0.44324 0.020274
v 0.076 0.44324 -0.029726
v 0.076 0.71019 -0.029726
v 0.076 0.71019 0.020274
v 0.056 0.69577 -0.025
v 0.056 0.69577 0.025
v 0.056 0.45765 -0.025
v 0.11185 0.69824 -0.038197
v 0.056 0.45765 0.025
v 0.11185 0.69824 0.011803
v 0.16769 0.67917 0.025
v 0.18972 0.67141 0.043402
v 0.21175 0.66366 0.061803
v 0.16769 0.67917 -0.025
v 0.18972 0.67141 -0.0065983
v 0.21175 0.66366 0.011803
v 0.26759 0.64459 0.025
v 0.26759 0.64459 0.075
v -0.031 0.64577 -0.056
v 0.031 0.64577 -0.056
v -0.031 0.69577 -0.056
v 0.031 0.69577 -0.056
v -0.056 0.64577 -0.031
v -0.056 0.69577 -0.031
v 0.056 0.69577 -0.031
v 0.056 0.64577 -0.031
v 0.031 0.64577 0.056
v -0.031 0.64577 0.056
v 0.031 0.69577 0.056
v -0.031 0.69577 0.056
v 0.056 0.69577 0.031
v 0.056 0.64577 0.031
v -0.056 0.64577 0.031
v -0.056 0.69577 0.031
v -0.031 0.45765 -0.056
v 0.031 0.45765 -0.056
v -0.031 0.50765 -0.056
v 0.031 0.50765 -0.056
v -0.056 0.45765 -0.031
v -0.056 0.50765 -0.031
v -0.056 0.45765 0.031
v -0.056 0.50765 0.031
v 0.031 0.45765 0.056
v -0.031 0.45765 0.056
v 0.031 0.50765 0.056
v -0.031 0.50765 0.056
v 0.056 0.50765 -0.031
v 0.056 0.45765 -0.031
v 0.056 0.50765 0.031
v 0.056 0.45765 0.031
v 0.078207 0.1785 -0.043293
v 0.078207 0.1785 0.043293
v 0.043293 0.1785 -0.078207
v 0.043293 0.1785 0.078207
v -0.043293 0.1785 -0.078207
v -0.043293 0.1785 0.078207
v -0.078207 0.1785 -0.043293
v -0.078207 0.1785 0.043293
v 0.068779 -1.6243e-15 0.038074
v 0.068779 -1.6243e-15 -0.038074
v 0.038074 -1.6243e-15 0.068779
v 0.038074 -1.6243e-15 -0.068779
v -0.038074 -1.6243e-15 0.068779
v -0.038074 -1.6243e-15 -0.068779
v -0.068779 -1.6243e-15 0.038074
v -0.068779 -1.6243e-15 -0.038074
vn 0 1 0
vn 0.99949 0.03183 0
vn 0 0.03183 -0.99949
vn 0 0.03183 0.99949
vn -0.99949 0.03183 0
vn 0.36743 0 0.93005
vn 0.64112 0 0.76744
vn 0.95788 0.28718 0
vn 0.95788 -0.28718 0
vn 0.91392 0.4059 0
vn 0.91392 -0.4059 0
vn -0.36743 0 -0.93005
vn -0.64112 0 -0.76744
vn 0.59545 0.8034 0
vn 0.4914 0.87094 0
vn 0.59545 -0.8034 0
vn 0.4914 -0.87094 0
vn 0.32616 -0.94531 0
vn 0.3287 -0.94443 0
vn 0.33201 -0.94328 0
vn 0.31971 -0.94752 0
vn 0.31971 -0.94752 0
vn -0.21702 -0.97617 0
vn -0.085254 -0.99636 0
vn -0.085254 0.99636 0
vn -0.21702 0.97617 0
vn -0.87651 0.48138 0
vn -0.90462 0.42621 0
vn -0.22997 0 -0.9732
vn -0.047786 0 -0.99886
vn 0.22997 0 0.9732
vn 0.047786 0 0.99886
vn -0.90462 -0.42621 0
vn -0.87651 -0.48138 0
vn 0.31971 0.94752 0
vn 0.31971 0.94752 0
vn -0.40854 0 0.91274
vn -0.64112 0 0.76744
vn -0.48708 0 0.87335
vn 0.40854 0 -0.91274
vn 0.64112 0 -0.76744
vn 0.48708 0 -0.87335
vn 0.047567 0 -0.99887
vn -0.047567 0 0.99887
vn 0.3287 0.94443 0
vn 0.32616 0.94531 0
vn 0.33201 0.94328 0
vn -0.38268 0 -0.92388
vn 0.38268 0 -0.92388
vn -0.92388 0 -0.38268
vn 0.92388 0 -0.38268
vn 0.38268 0 0.92388
vn -0.38268 0 0.92388
vn 0.92388 0 0.38268
vn -0.92388 0 0.38268
vn 0 -1 0
vn -0.92274 -0.059871 -0.38074
vn -0.38074 -0.059871 -0.92274
vn -0.92172 -0.059889 -0.38321
vn -0.38321 -0.059889 -0.92172
vn 0.92274 -0.059871 0.38074
vn 0.38074 -0.059871 0.92274
vn 0.92172 -0.059889 0.38321
vn 0.38321 -0.059889 0.92172
vn 0.38074 -0.059871 -0.92274
vn 0.92274 -0.059871 -0.38074
vn 0.38321 -0.059889 -0.92172
vn 0.92172 -0.059889 -0.38321
vn -0.92172 -0.059889 0.38321
vn -0.92274 -0.059871 0.38074
vn -0.38074 -0.059871 0.92274
vn -0.38321 -0.059889 0.92172
vt 0.96875 0.225
vt 0.96875 0.049154
vt 0.96875 0.33809
vt 0.96875 0.41191
vt 0.96875 0.36376
vt 0.96875 0.38624
vt 0.96875 0.30986
vt 0.96875 0.30405
vt 0.96875 0.29824
vt 0.96875 0.32415
vt 0.96875 0.28395
vt 0.96875 0.275
vt 0.96875 0.475
vt 0.96875 0.4642
vt 0.96875 0.2858
vt 0.96875 0.46605
vt 0.96875 0.45176
vt 0.96875 0.44595
vt 0.96875 0.44014
vt 0.96875 0.42585
vt 0.96875 0.375
vt 0.96875 0.425
vt 0.96875 0.325
vt 0.09375 0.425
vt 0.09375 0.325
usemtl colormap
f 3/1/1 2/1/1 1/1/1
f 2/1/1 3/1/1 4/1/1
f 1/1/2 6/2/2 5/2/2
f 6/2/2 1/1/2 2/1/2
f 3/1/3 5/2/3 7/2/3
f 5/2/3 3/1/3 1/1/3
f 2/1/4 8/2/4 6/2/4
f 8/2/4 2/1/4 4/1/4
f 8/2/5 3/1/5 7/2/5
f 3/1/5 8/2/5 4/1/5
f 11/5/7 10/4/6 9/3/6
f 10/4/6 11/5/7 12/6/7
f 12/6/10 14/5/9 13/6/8
f 14/5/9 12/6/10 11/5/11
f 16/4/12 14/5/13 15/3/12
f 14/5/13 16/4/12 13/6/13
f 16/4/14 12/6/10 13/6/8
f 12/6/10 16/4/14 10/4/15
f 11/5/11 15/3/16 14/5/9
f 15/3/16 11/5/11 9/3/17
f 19/8/20 18/7/19 17/7/18
f 18/7/19 19/8/20 20/8/20
f 20/8/20 19/8/20 21/9/19
f 20/8/20 21/9/19 22/9/18
f 17/7/18 24/10/22 23/10/21
f 24/10/22 17/7/18 18/7/19
f 27/12/23 26/11/21 25/11/22
f 26/11/21 27/12/23 28/12/24
f 31/14/27 30/13/26 29/13/25
f 30/13/26 31/14/27 32/14/28
f 33/15/29 26/11/30 28/12/29
f 26/11/30 33/15/29 34/16/30
f 34/16/30 33/15/29 31/14/29
f 34/16/30 31/14/29 29/13/29
f 25/11/32 35/15/31 27/12/31
f 35/15/31 25/11/32 36/16/32
f 35/15/31 36/16/32 32/14/31
f 32/14/31 36/16/32 30/13/31
f 35/15/33 28/12/24 27/12/23
f 28/12/24 35/15/33 33/15/34
f 23/10/21 15/3/16 9/3/17
f 15/3/16 23/10/21 24/10/22
f 35/15/33 31/14/27 33/15/34
f 31/14/27 35/15/33 32/14/28
f 29/13/25 36/16/36 34/16/35
f 36/16/36 29/13/25 30/13/26
f 21/9/37 36/16/32 25/11/32
f 36/16/32 21/9/37 37/17/37
f 19/8/38 37/17/37 21/9/37
f 37/17/37 19/8/38 17/7/39
f 37/17/37 17/7/39 38/18/38
f 38/18/38 17/7/39 39/19/39
f 40/17/40 20/8/41 22/9/40
f 20/8/41 40/17/40 18/7/42
f 18/7/42 40/17/40 41/18/41
f 18/7/42 41/18/41 42/19/42
f 43/20/43 15/3/12 24/10/43
f 15/3/12 43/20/43 16/4/12
f 34/16/30 22/9/40 26/11/30
f 22/9/40 34/16/30 40/17/40
f 42/19/42 24/10/43 18/7/42
f 24/10/43 42/19/42 43/20/43
f 23/10/44 39/19/39 17/7/39
f 39/19/39 23/10/44 44/20/44
f 9/3/6 44/20/44 23/10/44
f 44/20/44 9/3/6 10/4/6
f 42/19/45 44/20/35 43/20/36
f 44/20/35 42/19/45 39/19/46
f 34/16/35 37/17/45 40/17/46
f 37/17/45 34/16/35 36/16/36
f 43/20/36 10/4/15 16/4/14
f 10/4/15 43/20/36 44/20/35
f 41/18/47 39/19/46 42/19/45
f 39/19/46 41/18/47 38/18/47
f 38/18/47 41/18/47 40/17/46
f 38/18/47 40/17/46 37/17/45
f 25/11/22 22/9/18 21/9/19
f 22/9/18 25/11/22 26/11/21
f 47/22/48 46/21/49 45/21/48
f 46/21/49 47/22/48 48/22/49
f 49/21/50 47/22/48 45/21/48
f 47/22/48 49/21/50 50/22/50
f 51/22/51 46/21/49 48/22/49
f 46/21/49 51/22/51 52/21/51
f 55/22/52 54/21/53 53/21/52
f 54/21/53 55/22/52 56/22/53
f 57/22/54 52/21/51 51/22/51
f 52/21/51 57/22/54 58/21/54
f 55/22/52 58/21/54 57/22/54
f 58/21/54 55/22/52 53/21/52
f 59/21/55 50/22/50 49/21/50
f 50/22/50 59/21/55 60/22/55
f 54/21/53 60/22/55 59/21/55
f 60/22/55 54/21/53 56/22/53
f 48/22/1 57/22/1 51/22/1
f 57/22/1 48/22/1 55/22/1
f 55/22/1 48/22/1 47/22/1
f 55/22/1 47/22/1 56/22/1
f 56/22/1 47/22/1 50/22/1
f 56/22/1 50/22/1 60/22/1
f 53/21/56 52/21/56 58/21/56
f 52/21/56 53/21/56 46/21/56
f 46/21/56 53/21/56 54/21/56
f 46/21/56 54/21/56 45/21/56
f 45/21/56 54/21/56 59/21/56
f 45/21/56 59/21/56 49/21/56
f 63/22/48 62/23/49 61/23/48
f 62/23/49 63/22/48 64/22/49
f 67/23/55 66/22/50 65/23/50
f 66/22/50 67/23/55 68/22/55
f 71/22/52 70/23/53 69/23/52
f 70/23/53 71/22/52 72/22/53
f 75/22/54 74/23/51 73/22/51
f 74/23/51 75/22/54 76/23/54
f 71/22/52 76/23/54 75/22/54
f 76/23/54 71/22/52 69/23/52
f 70/23/53 68/22/55 67/23/55
f 68/22/55 70/23/53 72/22/53
f 73/22/51 62/23/49 64/22/49
f 62/23/49 73/22/51 74/23/51
f 65/23/50 63/22/48 61/23/48
f 63/22/48 65/23/50 66/22/50
f 64/22/1 75/22/1 73/22/1
f 75/22/1 64/22/1 71/22/1
f 71/22/1 64/22/1 63/22/1
f 71/22/1 63/22/1 72/22/1
f 72/22/1 63/22/1 66/22/1
f 72/22/1 66/22/1 68/22/1
f 69/23/56 74/23/56 76/23/56
f 74/23/56 69/23/56 62/23/56
f 62/23/56 69/23/56 70/23/56
f 62/23/56 70/23/56 61/23/56
f 61/23/56 70/23/56 67/23/56
f 61/23/56 67/23/56 65/23/56
f 79/24/1 78/24/1 77/24/1
f 78/24/1 79/24/1 80/24/1
f 80/24/1 79/24/1 81/24/1
f 80/24/1 81/24/1 82/24/1
f 82/24/1 81/24/1 83/24/1
f 82/24/1 83/24/1 84/24/1
f 87/25/56 86/25/56 85/25/56
f 86/25/56 87/25/56 88/25/56
f 88/25/56 87/25/56 89/25/56
f 88/25/56 89/25/56 90/25/56
f 90/25/56 89/25/56 91/25/56
f 90/25/56 91/25/56 92/25/56
f 83/24/59 90/25/58 92/25/57
f 90/25/58 83/24/59 81/24/60
f 78/24/63 87/25/62 85/25/61
f 87/25/62 78/24/63 80/24/64
f 79/24/67 86/25/66 88/25/65
f 86/25/66 79/24/67 77/24/68
f 81/24/60 88/25/65 90/25/58
f 88/25/65 81/24/60 79/24/67
f 92/25/57 84/24/69 83/24/59
f 84/24/69 92/25/57 91/25/70
f 78/24/63 86/25/66 77/24/68
f 86/25/66 78/24/63 85/25/61
f 80/24/64 89/25/71 87/25/62
f 89/25/71 80/24/64 82/24/72
f 89/25/71 84/24/69 91/25/70
f 84/24/69 89/25/71 82/24/72
g flag
usemtl colormap
f 3/1/1 2/1/1 1/1/1
f 2/1/1 3/1/1 4/1/1
f 1/1/2 6/2/2 5/2/2
f 6/2/2 1/1/2 2/1/2
f 3/1/3 5/2/3 7/2/3
f 5/2/3 3/1/3 1/1/3
f 2/1/4 8/2/4 6/2/4
f 8/2/4 2/1/4 4/1/4
f 8/2/5 3/1/5 7/2/5
f 3/1/5 8/2/5 4/1/5
f 11/5/7 10/4/6 9/3/6
f 10/4/6 11/5/7 12/6/7
f 12/6/10 14/5/9 13/6/8
f 14/5/9 12/6/10 11/5/11
f 16/4/12 14/5/13 15/3/12
f 14/5/13 16/4/12 13/6/13
f 16/4/14 12/6/10 13/6/8
f 12/6/10 16/4/14 10/4/15
f 11/5/11 15/3/16 14/5/9
f 15/3/16 11/5/11 9/3/17
f 19/8/20 18/7/19 17/7/18
f 18/7/19 19/8/20 20/8/20
f 20/8/20 19/8/20 21/9/19
f 20/8/20 21/9/19 22/9/18
f 17/7/18 24/10/22 23/10/21
f 24/10/22 17/7/18 18/7/19
f 27/12/23 26/11/21 25/11/22
f 26/11/21 27/12/23 28/12/24
f 31/14/27 30/13/26 29/13/25
f 30/13/26 31/14/27 32/14/28
f 33/15/29 26/11/30 28/12/29
f 26/11/30 33/15/29 34/16/30
f 34/16/30 33/15/29 31/14/29
f 34/16/30 31/14/29 29/13/29
f 25/11/32 35/15/31 27/12/31
f 35/15/31 25/11/32 36/16/32
f 35/15/31 36/16/32 32/14/31
f 32/14/31 36/16/32 30/13/31
f 35/15/33 28/12/24 27/12/23
f 28/12/24 35/15/33 33/15/34
f 23/10/21 15/3/16 9/3/17
f 15/3/16 23/10/21 24/10/22
f 35/15/33 31/14/27 33/15/34
f 31/14/27 35/15/33 32/14/28
f 29/13/25 36/16/36 34/16/35
f 36/16/36 29/13/25 30/13/26
f 21/9/37 36/16/32 25/11/32
f 36/16/32 21/9/37 37/17/37
f 19/8/38 37/17/37 21/9/37
f 37/17/37 19/8/38 17/7/39
f 37/17/37 17/7/39 38/18/38
f 38/18/38 17/7/39 39/19/39
f 40/17/40 20/8/41 22/9/40
f 20/8/41 40/17/40 18/7/42
f 18/7/42 40/17/40 41/18/41
f 18/7/42 41/18/41 42/19/42
f 43/20/43 15/3/12 24/10/43
f 15/3/12 43/20/43 16/4/12
f 34/16/30 22/9/40 26/11/30
f 22/9/40 34/16/30 40/17/40
f 42/19/42 24/10/43 18/7/42
f 24/10/43 42/19/42 43/20/43
f 23/10/44 39/19/39 17/7/39
f 39/19/39 23/10/44 44/20/44
f 9/3/6 44/20/44 23/10/44
f 44/20/44 9/3/6 10/4/6
f 42/19/45 44/20/35 43/20/36
f 44/20/35 42/19/45 39/19/46
f 34/16/35 37/17/45 40/17/46
f 37/17/45 34/16/35 36/16/36
f 43/20/36 10/4/15 16/4/14
f 10/4/15 43/20/36 44/20/35
f 41/18/47 39/19/46 42/19/45
f 39/19/46 41/18/47 38/18/47
f 38/18/47 41/18/47 40/17/46
f 38/18/47 40/17/46 37/17/45
f 25/11/22 22/9/18 21/9/19
f 22/9/18 25/11/22 26/11/21
f 47/22/48 46/21/49 45/21/48
f 46/21/49 47/22/48 48/22/49
f 49/21/50 47/22/48 45/21/48
f 47/22/48 49/21/50 50/22/50
f 51/22/51 46/21/49 48/22/49
f 46/21/49 51/22/51 52/21/51
f 55/22/52 54/21/53 53/21/52
f 54/21/53 55/22/52 56/22/53
f 57/22/54 52/21/51 51/22/51
f 52/21/51 57/22/54 58/21/54
f 55/22/52 58/21/54 57/22/54
f 58/21/54 55/22/52 53/21/52
f 59/21/55 50/22/50 49/21/50
f 50/22/50 59/21/55 60/22/55
f 54/21/53 60/22/55 59/21/55
f 60/22/55 54/21/53 56/22/53
f 48/22/1 57/22/1 51/22/1
f 57/22/1 48/22/1 55/22/1
f 55/22/1 48/22/1 47/22/1
f 55/22/1 47/22/1 56/22/1
f 56/22/1 47/22/1 50/22/1
f 56/22/1 50/22/1 60/22/1
f 53/21/56 52/21/56 58/21/56
f 52/21/56 53/21/56 46/21/56
f 46/21/56 53/21/56 54/21/56
f 46/21/56 54/21/56 45/21/56
f 45/21/56 54/21/56 59/21/56
f 45/21/56 59/21/56 49/21/56
f 63/22/48 62/23/49 61/23/48
f 62/23/49 63/22/48 64/22/49
f 67/23/55 66/22/50 65/23/50
f 66/22/50 67/23/55 68/22/55
f 71/22/52 70/23/53 69/23/52
f 70/23/53 71/22/52 72/22/53
f 75/22/54 74/23/51 73/22/51
f 74/23/51 75/22/54 76/23/54
f 71/22/52 76/23/54 75/22/54
f 76/23/54 71/22/52 69/23/52
f 70/23/53 68/22/55 67/23/55
f 68/22/55 70/23/53 72/22/53
f 73/22/51 62/23/49 64/22/49
f 62/23/49 73/22/51 74/23/51
f 65/23/50 63/22/48 61/23/48
f 63/22/48 65/23/50 66/22/50
f 64/22/1 75/22/1 73/22/1
f 75/22/1 64/22/1 71/22/1
f 71/22/1 64/22/1 63/22/1
f 71/22/1 63/22/1 72/22/1
f 72/22/1 63/22/1 66/22/1
f 72/22/1 66/22/1 68/22/1
f 69/23/56 74/23/56 76/23/56
f 74/23/56 69/23/56 62/23/56
f 62/23/56 69/23/56 70/23/56
f 62/23/56 70/23/56 61/23/56
f 61/23/56 70/23/56 67/23/56
f 61/23/56 67/23/56 65/23/56
f 79/24/1 78/24/1 77/24/1
f 78/24/1 79/24/1 80/24/1
f 80/24/1 79/24/1 81/24/1
f 80/24/1 81/24/1 82/24/1
f 82/24/1 81/24/1 83/24/1
f 82/24/1 83/24/1 84/24/1
f 87/25/56 86/25/56 85/25/56
f 86/25/56 87/25/56 88/25/56
f 88/25/56 87/25/56 89/25/56
f 88/25/56 89/25/56 90/25/56
f 90/25/56 89/25/56 91/25/56
f 90/25/56 91/25/56 92/25/56
f 83/24/59 90/25/58 92/25/57
f 90/25/58 83/24/59 81/24/60
f 78/24/63 87/25/62 85/25/61
f 87/25/62 78/24/63 80/24/64
f 79/24/67 86/25/66 88/25/65
f 86/25/66 79/24/67 77/24/68
f 81/24/60 88/25/65 90/25/58
f 88/25/65 81/24/60 79/24/67
f 92/25/57 84/24/69 83/24/59
f 84/24/69 92/25/57 91/25/70
f 78/24/63 86/25/66 77/24/68
f 86/25/66 78/24/63 85/25/61
f 80/24/64 89/25/71 87/25/62
f 89/25/71 80/24/64 82/24/72
f 89/25/71 84/24/69 91/25/70
f 84/24/69 89/25/71 82/24/72
