mtllib tree-high.mtl
g tree-high
v 0.46371 0.99945 -7.6604e-09
v 0.39205 1.0671 -6.3249e-09
v 0.38225 0.92112 -0.22069
v 0.19602 1.0671 -0.33952
v -0.39205 1.0671 5.3606e-09
v -0.19602 1.0671 0.33952
v -0.46371 0.99945 6.1612e-09
v -0.38225 0.92112 0.22069
v -0.23185 0.99945 0.40158
v -0.23185 0.99945 -0.40158
v -6.578e-09 0.92112 -0.44138
v 0.23185 0.99945 -0.40158
v -0.38225 0.92112 -0.22069
v -0.19602 1.0671 -0.33952
v 0.38225 0.92112 0.22069
v 0.19602 1.0671 0.33952
v 0.23185 0.99945 0.40158
v 3.0199e-09 0.92112 0.44138
v 7.2191e-16 0.87745 -7.4959e-10
v 0.11571 1.4242 -0.20041
v 0.23142 1.4242 -3.4489e-09
v -0.11571 1.4242 -0.20041
v 0.11571 1.4242 0.20041
v -0.23142 1.4242 3.4489e-09
v -0.11571 1.4242 0.20041
v 0.30779 1.3418 -0.1777
v 0.37338 1.4049 -5.7412e-09
v 0.31925 1.4593 -4.7192e-09
v 0.15963 1.4593 -0.27648
v -0.37338 1.4049 5.3879e-09
v -0.31925 1.4593 4.7966e-09
v -0.15963 1.4593 0.27648
v -0.30779 1.3418 0.1777
v -0.18669 1.4049 0.32336
v -0.18669 1.4049 -0.32336
v -5.2966e-09 1.3418 -0.3554
v 0.18669 1.4049 -0.32336
v -0.30779 1.3418 -0.1777
v -0.15963 1.4593 -0.27648
v 0.30779 1.3418 0.1777
v 0.15963 1.4593 0.27648
v 0.18669 1.4049 0.32336
v 2.4316e-09 1.3418 0.3554
v 2.1296e-15 1.3066 -1.7661e-10
v 0.15274 1.8313 -1.5311e-09
v 0.076368 1.8313 0.13227
v -0.076368 1.8313 -0.13227
v -0.15274 1.8313 3.0215e-09
v 0.076368 1.8313 -0.13227
v -0.076368 1.8313 0.13227
v 0.21237 1.7622 -0.12261
v 0.12882 1.8057 -0.22312
v 2.3013e-15 1.7379 5.5758e-10
v -3.6547e-09 1.7622 -0.24523
v -0.12882 1.8057 -0.22312
v -0.21237 1.7622 0.12261
v -0.25763 1.8057 4.3971e-09
v -0.12882 1.8057 0.22312
v 1.6778e-09 1.7622 0.24523
v -0.21237 1.7622 -0.12261
v 0.12882 1.8057 0.22312
v 0.21237 1.7622 0.12261
v 0.25763 1.8057 -3.282e-09
v 0.24054 1.8433 -2.8787e-09
v -0.12027 1.8433 -0.20831
v -0.24054 1.8433 4.291e-09
v -0.12027 1.8433 0.20831
v 0.12027 1.8433 0.20831
v 0.12027 1.8433 -0.20831
v 0.052694 2.2839 4.0833e-10
v 0.026347 2.2839 0.045634
v 0.026347 2.2839 -0.045634
v -0.026347 2.2839 0.045634
v -0.026347 2.2839 -0.045634
v -0.052694 2.2839 1.9789e-09
v -0.052694 1.9999 -0.091268
v 0.052694 1.9999 -0.091268
v 0.10539 1.9999 -3.7698e-10
v 0.052694 1.9999 0.091268
v -0.052694 1.9999 0.091268
v -0.10539 1.9999 2.7643e-09
v -0.019004 0.61943 -0.063423
v -0.019004 0.61943 0.082577
v 0.012606 0.52599 -0.045173
v 0.012606 0.52599 0.064327
v 0.20227 0.52599 0.064327
v 0.10744 0.52599 0.11908
v 0.23388 0.61943 0.082577
v 0.10744 0.61943 0.15558
v 0.20227 0.71287 -0.045173
v 0.10744 0.71287 -0.099923
v 0.23388 0.61943 -0.063423
v 0.10744 0.61943 -0.13642
v 0.10744 0.52599 -0.099923
v 0.012606 0.71287 -0.045173
v 0.20227 0.52599 -0.045173
v 0.012606 0.71287 0.064327
v 0.20227 0.71287 0.064327
v 0.10744 0.71287 0.11908
v -0.194 0.31943 -0.013423
v -0.194 0.31943 0.13258
v -0.16239 0.21577 0.0048266
v -0.16239 0.21577 0.11433
v 0.027266 0.21577 0.11433
v -0.067564 0.21577 0.16908
v 0.058876 0.31943 0.13258
v -0.067564 0.31943 0.20558
v 0.027266 0.42309 0.0048266
v -0.067564 0.42309 -0.049923
v 0.058876 0.31943 -0.013423
v -0.067564 0.31943 -0.086423
v -0.067564 0.21577 -0.049923
v -0.16239 0.42309 0.0048266
v 0.027266 0.21577 0.0048266
v -0.16239 0.42309 0.11433
v 0.027266 0.42309 0.11433
v -0.067564 0.42309 0.16908
v 0.013566 0.53471 0.19693
v 0.013566 0.49143 0.20852
v -0.031236 0.53471 0.19693
v -0.031236 0.49143 0.20852
v -0.04617 0.50415 0.025172
v 0.0285 0.50415 0.025172
v -0.04617 0.43202 0.044498
v 0.0285 0.43202 0.044498
v 0.022401 0.77746 -0.23184
v 0.022401 0.82073 -0.22024
v -0.022401 0.77746 -0.23184
v -0.022401 0.82073 -0.22024
v 0.037335 0.71805 -0.067815
v -0.037335 0.71805 -0.067815
v -0.037335 0.79017 -0.048489
v 0.037335 0.79017 -0.048489
v 0.13166 -5.854e-17 0.076013
v 0.13166 -5.854e-17 0.035278
v 0.09638 -5.854e-17 0.09638
v 0.13166 -5.854e-17 0
v 0.13166 -5.854e-17 -0.076013
v 0.09638 -4.1085e-17 -0.09638
v 0.065829 -5.854e-17 0.11402
v 0 -5.854e-17 -0.15203
v 0 -5.854e-17 0.15203
v -0.09638 -4.1085e-17 0.09638
v -0.13166 -5.854e-17 -0.076013
v -0.13166 -5.854e-17 0.076013
v -0.077818 0.29818 -0.044928
v 0 0.29818 -0.089856
v -0.08764 0.94455 -0.050599
v 0 0.94455 -0.1012
v 0.077818 0.29818 0.044928
v 0 0.29818 0.089856
v 0.08764 0.94455 0.050599
v 0 0.94455 0.1012
v -0.08764 0.94455 0.050599
v -0.077818 0.29818 0.044928
v 0.08764 0.94455 -0.050599
v 0.077818 0.29818 -0.044928
vn 0.68644 0.72719 0
vn 0.81174 0.58402 0
vn 0.69464 0.59719 -0.40105
vn 0.42105 0.59775 -0.68221
vn -0.80134 0.59775 -0.023533
vn -0.41825 0.59783 0.68386
vn -0.70764 0.70594 -0.029938
vn -0.71077 0.55635 0.43044
vn -0.38607 0.70414 0.59593
vn -0.38607 0.70414 -0.59593
vn 0 0.45296 -0.89153
vn 0.38607 0.70414 -0.59593
vn -0.69464 0.59719 -0.40105
vn -0.42105 0.59775 -0.68221
vn 0.69464 0.59719 0.40105
vn 0.42105 0.59775 0.68221
vn 0.38607 0.70414 0.59593
vn 0 0.45296 0.89153
vn 0.085269 -0.99514 -0.04923
vn 0.12722 -0.96709 -0.22035
vn 0 -1 0
vn 0 -0.99514 -0.09846
vn -0.12722 -0.96709 -0.22035
vn -0.085269 -0.99514 0.04923
vn -0.25444 -0.96709 0
vn -0.12722 -0.96709 0.22035
vn 0 -0.99514 0.09846
vn -0.085269 -0.99514 -0.04923
vn 0.12722 -0.96709 0.22035
vn 0.085269 -0.99514 0.04923
vn 0.25444 -0.96709 0
vn 0.45599 0.41023 -0.7898
vn 0.91198 0.41022 0
vn -0.45599 0.41023 -0.7898
vn 0.45599 0.41023 0.7898
vn -0.91198 0.41022 0
vn -0.45599 0.41023 0.7898
vn 0.70567 0.5797 -0.40742
vn 0.70934 0.70486 0
vn 0.82155 0.57014 0
vn 0.42418 0.58245 -0.69341
vn -0.72762 0.68544 -0.027096
vn -0.8126 0.58245 -0.020648
vn -0.42179 0.58252 0.69481
vn -0.71948 0.54297 0.43304
vn -0.39263 0.68395 0.61486
vn -0.39263 0.68395 -0.61486
vn 0.39263 0.68395 -0.61486
vn -0.70567 0.5797 -0.40742
vn -0.42418 0.58245 -0.69341
vn 0.70567 0.5797 0.40742
vn 0.42418 0.58245 0.69341
vn 0.39263 0.68395 0.61486
vn 0.9127 0.40864 0
vn 0.45635 0.40864 0.79042
vn -0.45635 0.40864 -0.79042
vn -0.9127 0.40864 0
vn 0.45635 0.40864 -0.79042
vn -0.45635 0.40864 0.79042
vn 0.79186 0.40489 -0.45718
vn 0.9103 0.41395 0
vn 0.84885 0.52864 0
vn 0.79186 0.40489 0.45718
vn -0.79186 0.40489 -0.45718
vn -0.4193 0.52398 -0.74137
vn -0.8517 0.52398 0.0075572
vn -0.43989 0.4238 -0.79176
vn -0.78828 0.42128 0.44848
vn -0.42006 0.52398 0.74094
vn -0.43989 0.4238 0.79176
vn -0.90577 0.42357 0.013297
vn 0.43989 0.4238 -0.79176
vn 0.4193 0.52398 0.74137
vn 0.4193 0.52398 -0.74137
vn 0.43989 0.4238 0.79176
vn 0.73506 0.678 0
vn 0.36753 0.678 0.63658
vn 0.36753 0.678 -0.63658
vn -0.36753 0.678 0.63658
vn -0.36753 0.678 -0.63658
vn -0.73506 0.678 0
vn -0.44151 0.46933 -0.76472
vn 0.44151 0.46933 -0.76472
vn 0.88302 0.46933 0
vn 0.44151 0.46933 0.76472
vn -0.44151 0.46933 0.76472
vn -0.88302 0.46933 0
vn -0.86603 0 -0.5
vn -0.86603 0 0.5
vn -0.57721 -0.7455 -0.33325
vn -0.57721 -0.7455 0.33325
vn 0.57721 -0.7455 0.33325
vn 0 -0.7455 0.66651
vn 0.86603 0 0.5
vn 0 0 1
vn 0.57721 0.7455 -0.33325
vn 0 0.7455 -0.66651
vn 0.86603 0 -0.5
vn 0 0 -1
vn 0 -0.7455 -0.66651
vn -0.57721 0.7455 -0.33325
vn 0.57721 -0.7455 -0.33325
vn -0.57721 0.7455 0.33325
vn 0.57721 0.7455 0.33325
vn 0 0.7455 0.66651
vn -0.58849 -0.73365 -0.33977
vn -0.58849 -0.73365 0.33977
vn 0.58849 -0.73365 0.33977
vn 0 -0.73365 0.67953
vn 0.58849 0.73365 -0.33977
vn 0 0.73365 -0.67953
vn 0 -0.73365 -0.67953
vn -0.58849 0.73365 -0.33977
vn 0.58849 -0.73365 -0.33977
vn -0.58849 0.73365 0.33977
vn 0.58849 0.73365 0.33977
vn 0 0.73365 0.67953
vn 0 0.25882 0.96593
vn 0 0.98454 -0.17518
vn -0.99633 0.022156 0.082689
vn 0.99633 0.022156 0.082689
vn 0 -0.94022 0.34056
vn 1.1515e-07 0.25882 -0.96593
vn 4.0598e-08 -0.94022 -0.34056
vn -0.99633 0.022156 -0.082689
vn 0.99633 0.022156 -0.082689
vn -2.0883e-08 0.98454 0.17518
vn -0.86191 0.097357 -0.49762
vn 0 0.097357 -0.99525
vn -0.86589 -0.017544 -0.49992
vn 0 -0.017544 -0.99985
vn 0.86191 0.097357 0.49762
vn 0 0.097357 0.99525
vn 0.86589 -0.017544 0.49992
vn 0 -0.017544 0.99985
vn -0.86589 -0.017544 0.49992
vn -0.86191 0.097357 0.49762
vn 0.86589 -0.017544 -0.49992
vn 0.86191 0.097357 -0.49762
vn 0 0.20411 0.97895
vn -0.49204 0.17769 0.85224
vn -0.84779 0.20411 0.48947
vn -0.84779 0.20411 -0.48947
vn 0 0.20411 -0.97895
vn 0.49204 0.17769 -0.85224
vn 0.84779 0.20411 -0.48947
vn 0.84779 0.20411 0.48947
vn 0.49204 0.17769 0.85224
vn 0.98409 0.17769 0
vt 0.21875 0.069628
vt 0.21875 0.094373
vt 0.21875 0.040975
vt 0.21875 0.025
vt 0.21875 0.225
vt 0.21875 0.038405
vt 0.21875 0.06245
vt 0.21875 0.083215
vt 0.21875 0.033888
vt 0.21875 0.049829
vt 0.21875 0.063597
vt 0.21875 0.12097
vt 0.21875 0.11272
vt 0.21875 0.10764
vt 0.96875 0.185
vt 0.96875 0.065
vt 0.96875 0.225
vt 0.96875 0.025
vt 0.96875 0.145
vt 0.96875 0.17026
usemtl colormap
f 3/3/3 2/2/2 1/1/1
f 2/2/2 3/3/3 4/2/4
f 7/1/7 6/2/6 5/2/5
f 6/2/6 7/1/7 8/3/8
f 9/1/9 6/2/6 8/3/8
f 12/1/12 11/3/11 10/1/10
f 5/2/5 14/2/14 13/3/13
f 7/1/7 5/2/5 13/3/13
f 15/3/15 1/1/1 2/2/2
f 16/2/16 15/3/15 2/2/2
f 17/1/17 15/3/15 16/2/16
f 9/1/9 18/3/18 17/1/17
f 13/3/13 14/2/14 10/1/10
f 3/3/3 12/1/12 4/2/4
f 19/4/21 12/1/20 3/3/19
f 11/3/22 12/1/20 19/4/21
f 10/1/23 11/3/22 19/4/21
f 7/1/25 19/4/21 8/3/24
f 8/3/24 19/4/21 9/1/26
f 9/1/26 19/4/21 18/3/27
f 13/3/28 10/1/23 19/4/21
f 7/1/25 13/3/28 19/4/21
f 19/4/21 17/1/29 18/3/27
f 19/4/21 15/3/30 17/1/29
f 19/4/21 1/1/31 15/3/30
f 19/4/21 3/3/19 1/1/31
f 20/5/32 2/2/2 4/2/4
f 2/2/2 20/5/32 21/5/33
f 22/5/34 4/2/4 14/2/14
f 4/2/4 22/5/34 20/5/32
f 21/5/33 16/2/16 2/2/2
f 16/2/16 21/5/33 23/5/35
f 16/2/16 9/1/9 17/1/17
f 9/1/9 16/2/16 6/2/6
f 5/2/5 22/5/34 14/2/14
f 22/5/34 5/2/5 24/5/36
f 14/2/14 12/1/12 10/1/10
f 12/1/12 14/2/14 4/2/4
f 5/2/5 25/5/37 24/5/36
f 25/5/37 5/2/5 6/2/6
f 23/5/35 6/2/6 16/2/16
f 6/2/6 23/5/35 25/5/37
f 28/8/40 27/7/39 26/6/38
f 28/8/40 26/6/38 29/8/41
f 32/8/44 31/8/43 30/7/42
f 32/8/44 30/7/42 33/6/45
f 34/7/46 32/8/44 33/6/45
f 37/7/48 36/6/11 35/7/47
f 31/8/43 39/8/50 38/6/49
f 30/7/42 31/8/43 38/6/49
f 40/6/51 27/7/39 28/8/40
f 41/8/52 40/6/51 28/8/40
f 42/7/53 40/6/51 41/8/52
f 34/7/46 43/6/18 42/7/53
f 38/6/49 39/8/50 35/7/47
f 26/6/38 37/7/48 29/8/41
f 44/4/21 37/7/20 26/6/19
f 36/6/22 37/7/20 44/4/21
f 35/7/23 36/6/22 44/4/21
f 30/7/25 44/4/21 33/6/24
f 33/6/24 44/4/21 34/7/26
f 34/7/26 44/4/21 43/6/27
f 38/6/28 35/7/23 44/4/21
f 30/7/25 38/6/28 44/4/21
f 44/4/21 42/7/29 43/6/27
f 44/4/21 40/6/30 42/7/29
f 44/4/21 27/7/31 40/6/30
f 44/4/21 26/6/19 27/7/31
f 45/5/54 41/8/52 28/8/40
f 41/8/52 45/5/54 46/5/55
f 41/8/52 34/7/46 42/7/53
f 34/7/46 41/8/52 32/8/44
f 31/8/43 47/5/56 39/8/50
f 47/5/56 31/8/43 48/5/57
f 49/5/58 28/8/40 29/8/41
f 28/8/40 49/5/58 45/5/54
f 46/5/55 32/8/44 41/8/52
f 32/8/44 46/5/55 50/5/59
f 39/8/50 37/7/48 35/7/47
f 37/7/48 39/8/50 29/8/41
f 31/8/43 50/5/59 48/5/57
f 50/5/59 31/8/43 32/8/44
f 47/5/56 29/8/41 39/8/50
f 29/8/41 47/5/56 49/5/58
f 53/4/21 52/10/20 51/9/19
f 54/9/22 52/10/20 53/4/21
f 55/10/23 54/9/22 53/4/21
f 57/10/25 53/4/21 56/9/24
f 56/9/24 53/4/21 58/10/26
f 58/10/26 53/4/21 59/9/27
f 60/9/28 55/10/23 53/4/21
f 57/10/25 60/9/28 53/4/21
f 53/4/21 61/10/29 59/9/27
f 53/4/21 62/9/30 61/10/29
f 53/4/21 63/10/31 62/9/30
f 53/4/21 51/9/19 63/10/31
f 64/11/62 63/10/61 51/9/60
f 62/9/63 63/10/61 64/11/62
f 66/11/66 65/11/65 60/9/64
f 60/9/64 65/11/65 55/10/67
f 58/10/70 67/11/69 56/9/68
f 57/10/71 66/11/66 60/9/64
f 52/10/72 54/9/11 55/10/67
f 67/11/69 66/11/66 57/10/71
f 67/11/69 57/10/71 56/9/68
f 68/11/73 62/9/63 64/11/62
f 64/11/62 51/9/60 69/11/74
f 51/9/60 52/10/72 69/11/74
f 61/10/75 62/9/63 68/11/73
f 58/10/70 59/9/18 61/10/75
f 72/5/78 71/5/77 70/5/76
f 71/5/77 72/5/78 73/5/79
f 73/5/79 72/5/78 74/5/80
f 73/5/79 74/5/80 75/5/81
f 74/5/80 77/12/83 76/12/82
f 77/12/83 74/5/80 72/5/78
f 70/5/76 79/12/85 78/12/84
f 79/12/85 70/5/76 71/5/77
f 71/5/77 80/12/86 79/12/85
f 80/12/86 71/5/77 73/5/79
f 81/12/87 73/5/79 75/5/81
f 73/5/79 81/12/87 80/12/86
f 81/12/87 74/5/80 76/12/82
f 74/5/80 81/12/87 75/5/81
f 72/5/78 78/12/84 77/12/83
f 78/12/84 72/5/78 70/5/76
f 65/11/65 52/10/72 55/10/67
f 52/10/72 65/11/65 69/11/74
f 68/11/73 58/10/70 61/10/75
f 58/10/70 68/11/73 67/11/69
f 78/12/84 68/11/73 64/11/62
f 68/11/73 78/12/84 79/12/85
f 76/12/82 69/11/74 65/11/65
f 69/11/74 76/12/82 77/12/83
f 79/12/85 67/11/69 68/11/73
f 67/11/69 79/12/85 80/12/86
f 66/11/66 80/12/86 81/12/87
f 80/12/86 66/11/66 67/11/69
f 66/11/66 76/12/82 65/11/65
f 76/12/82 66/11/66 81/12/87
f 77/12/83 64/11/62 69/11/74
f 64/11/62 77/12/83 78/12/84
f 84/4/90 83/13/89 82/13/88
f 83/13/89 84/4/90 85/4/91
f 88/13/94 87/4/93 86/4/92
f 87/4/93 88/13/94 89/13/95
f 92/13/98 91/5/97 90/5/96
f 91/5/97 92/13/98 93/13/99
f 94/4/100 82/13/88 93/13/99
f 82/13/88 94/4/100 84/4/90
f 95/5/101 93/13/99 82/13/88
f 93/13/99 95/5/101 91/5/97
f 93/13/99 96/4/102 94/4/100
f 96/4/102 93/13/99 92/13/98
f 83/13/89 95/5/101 82/13/88
f 95/5/101 83/13/89 97/5/103
f 91/5/97 98/5/104 90/5/96
f 98/5/104 91/5/97 99/5/105
f 99/5/105 91/5/97 95/5/101
f 99/5/105 95/5/101 97/5/103
f 88/13/94 90/5/96 98/5/104
f 90/5/96 88/13/94 92/13/98
f 88/13/94 96/4/102 92/13/98
f 96/4/102 88/13/94 86/4/92
f 89/13/95 85/4/91 87/4/93
f 85/4/91 89/13/95 83/13/89
f 98/5/104 89/13/95 88/13/94
f 89/13/95 98/5/104 99/5/105
f 99/5/105 83/13/89 89/13/95
f 83/13/89 99/5/105 97/5/103
f 87/4/93 96/4/102 86/4/92
f 96/4/102 87/4/93 94/4/100
f 94/4/100 87/4/93 85/4/91
f 94/4/100 85/4/91 84/4/90
f 102/4/106 101/14/89 100/14/88
f 101/14/89 102/4/106 103/4/107
f 106/14/94 105/4/109 104/4/108
f 105/4/109 106/14/94 107/14/95
f 110/14/98 109/5/111 108/5/110
f 109/5/111 110/14/98 111/14/99
f 112/4/112 100/14/88 111/14/99
f 100/14/88 112/4/112 102/4/106
f 113/5/113 111/14/99 100/14/88
f 111/14/99 113/5/113 109/5/111
f 111/14/99 114/4/114 112/4/112
f 114/4/114 111/14/99 110/14/98
f 101/14/89 113/5/113 100/14/88
f 113/5/113 101/14/89 115/5/115
f 109/5/111 116/5/116 108/5/110
f 116/5/116 109/5/111 117/5/117
f 117/5/117 109/5/111 113/5/113
f 117/5/117 113/5/113 115/5/115
f 106/14/94 108/5/110 116/5/116
f 108/5/110 106/14/94 110/14/98
f 106/14/94 114/4/114 110/14/98
f 114/4/114 106/14/94 104/4/108
f 107/14/95 103/4/107 105/4/109
f 103/4/107 107/14/95 101/14/89
f 116/5/116 107/14/95 106/14/94
f 107/14/95 116/5/116 117/5/117
f 117/5/117 101/14/89 107/14/95
f 101/14/89 117/5/117 115/5/115
f 105/4/109 114/4/114 104/4/108
f 114/4/114 105/4/109 112/4/112
f 112/4/112 105/4/109 103/4/107
f 112/4/112 103/4/107 102/4/106
f 120/15/118 119/16/118 118/15/118
f 119/16/118 120/15/118 121/16/118
f 118/15/119 122/17/119 120/15/119
f 122/17/119 118/15/119 123/17/119
f 121/16/120 122/17/120 124/18/120
f 122/17/120 121/16/120 120/15/120
f 123/17/121 119/16/121 125/18/121
f 119/16/121 123/17/121 118/15/121
f 124/18/122 119/16/122 121/16/122
f 119/16/122 124/18/122 125/18/122
f 128/15/123 127/16/123 126/15/123
f 127/16/123 128/15/123 129/16/123
f 130/17/124 128/15/124 126/15/124
f 128/15/124 130/17/124 131/17/124
f 129/16/125 131/17/125 132/18/125
f 131/17/125 129/16/125 128/15/125
f 130/17/126 127/16/126 133/18/126
f 127/16/126 130/17/126 126/15/126
f 132/18/127 127/16/127 129/16/127
f 127/16/127 132/18/127 133/18/127
f 136/19/21 135/19/21 134/19/21
f 135/19/21 136/19/21 137/19/21
f 137/19/21 136/19/21 138/19/21
f 138/19/21 136/19/21 139/19/21
f 139/19/21 136/19/21 140/19/21
f 139/19/21 140/19/21 141/19/21
f 141/19/21 140/19/21 142/19/21
f 141/19/21 142/19/21 143/19/21
f 141/19/21 143/19/21 144/19/21
f 144/19/21 143/19/21 145/19/21
f 148/17/130 147/20/129 146/20/128
f 147/20/129 148/17/130 149/17/131
f 152/17/134 151/20/133 150/20/132
f 151/20/133 152/17/134 153/17/135
f 146/20/128 154/17/136 148/17/130
f 154/17/136 146/20/128 155/20/137
f 153/17/135 155/20/137 151/20/133
f 155/20/137 153/17/135 154/17/136
f 152/17/134 157/20/139 156/17/138
f 157/20/139 152/17/134 150/20/132
f 149/17/131 157/20/139 147/20/129
f 157/20/139 149/17/131 156/17/138
f 151/20/133 143/19/141 142/19/140
f 155/20/137 143/19/141 151/20/133
f 143/19/141 155/20/137 145/19/142
f 145/19/142 146/20/128 144/19/143
f 146/20/128 145/19/142 155/20/137
f 147/20/129 139/19/145 141/19/144
f 157/20/139 139/19/145 147/20/129
f 139/19/145 157/20/139 138/19/146
f 150/20/132 136/19/148 134/19/147
f 136/19/148 150/20/132 140/19/148
f 140/19/148 150/20/132 142/19/140
f 142/19/140 150/20/132 151/20/133
f 157/20/139 137/19/149 138/19/146
f 137/19/149 157/20/139 150/20/132
f 137/19/149 150/20/132 135/19/149
f 135/19/149 150/20/132 134/19/147
f 146/20/128 141/19/144 144/19/143
f 141/19/144 146/20/128 147/20/129
g tree-high
usemtl colormap
f 3/3/3 2/2/2 1/1/1
f 2/2/2 3/3/3 4/2/4
f 7/1/7 6/2/6 5/2/5
f 6/2/6 7/1/7 8/3/8
f 9/1/9 6/2/6 8/3/8
f 12/1/12 11/3/11 10/1/10
f 5/2/5 14/2/14 13/3/13
f 7/1/7 5/2/5 13/3/13
f 15/3/15 1/1/1 2/2/2
f 16/2/16 15/3/15 2/2/2
f 17/1/17 15/3/15 16/2/16
f 9/1/9 18/3/18 17/1/17
f 13/3/13 14/2/14 10/1/10
f 3/3/3 12/1/12 4/2/4
f 19/4/21 12/1/20 3/3/19
f 11/3/22 12/1/20 19/4/21
f 10/1/23 11/3/22 19/4/21
f 7/1/25 19/4/21 8/3/24
f 8/3/24 19/4/21 9/1/26
f 9/1/26 19/4/21 18/3/27
f 13/3/28 10/1/23 19/4/21
f 7/1/25 13/3/28 19/4/21
f 19/4/21 17/1/29 18/3/27
f 19/4/21 15/3/30 17/1/29
f 19/4/21 1/1/31 15/3/30
f 19/4/21 3/3/19 1/1/31
f 20/5/32 2/2/2 4/2/4
f 2/2/2 20/5/32 21/5/33
f 22/5/34 4/2/4 14/2/14
f 4/2/4 22/5/34 20/5/32
f 21/5/33 16/2/16 2/2/2
f 16/2/16 21/5/33 23/5/35
f 16/2/16 9/1/9 17/1/17
f 9/1/9 16/2/16 6/2/6
f 5/2/5 22/5/34 14/2/14
f 22/5/34 5/2/5 24/5/36
f 14/2/14 12/1/12 10/1/10
f 12/1/12 14/2/14 4/2/4
f 5/2/5 25/5/37 24/5/36
f 25/5/37 5/2/5 6/2/6
f 23/5/35 6/2/6 16/2/16
f 6/2/6 23/5/35 25/5/37
f 28/8/40 27/7/39 26/6/38
f 28/8/40 26/6/38 29/8/41
f 32/8/44 31/8/43 30/7/42
f 32/8/44 30/7/42 33/6/45
f 34/7/46 32/8/44 33/6/45
f 37/7/48 36/6/11 35/7/47
f 31/8/43 39/8/50 38/6/49
f 30/7/42 31/8/43 38/6/49
f 40/6/51 27/7/39 28/8/40
f 41/8/52 40/6/51 28/8/40
f 42/7/53 40/6/51 41/8/52
f 34/7/46 43/6/18 42/7/53
f 38/6/49 39/8/50 35/7/47
f 26/6/38 37/7/48 29/8/41
f 44/4/21 37/7/20 26/6/19
f 36/6/22 37/7/20 44/4/21
f 35/7/23 36/6/22 44/4/21
f 30/7/25 44/4/21 33/6/24
f 33/6/24 44/4/21 34/7/26
f 34/7/26 44/4/21 43/6/27
f 38/6/28 35/7/23 44/4/21
f 30/7/25 38/6/28 44/4/21
f 44/4/21 42/7/29 43/6/27
f 44/4/21 40/6/30 42/7/29
f 44/4/21 27/7/31 40/6/30
f 44/4/21 26/6/19 27/7/31
f 45/5/54 41/8/52 28/8/40
f 41/8/52 45/5/54 46/5/55
f 41/8/52 34/7/46 42/7/53
f 34/7/46 41/8/52 32/8/44
f 31/8/43 47/5/56 39/8/50
f 47/5/56 31/8/43 48/5/57
f 49/5/58 28/8/40 29/8/41
f 28/8/40 49/5/58 45/5/54
f 46/5/55 32/8/44 41/8/52
f 32/8/44 46/5/55 50/5/59
f 39/8/50 37/7/48 35/7/47
f 37/7/48 39/8/50 29/8/41
f 31/8/43 50/5/59 48/5/57
f 50/5/59 31/8/43 32/8/44
f 47/5/56 29/8/41 39/8/50
f 29/8/41 47/5/56 49/5/58
f 53/4/21 52/10/20 51/9/19
f 54/9/22 52/10/20 53/4/21
f 55/10/23 54/9/22 53/4/21
f 57/10/25 53/4/21 56/9/24
f 56/9/24 53/4/21 58/10/26
f 58/10/26 53/4/21 59/9/27
f 60/9/28 55/10/23 53/4/21
f 57/10/25 60/9/28 53/4/21
f 53/4/21 61/10/29 59/9/27
f 53/4/21 62/9/30 61/10/29
f 53/4/21 63/10/31 62/9/30
f 53/4/21 51/9/19 63/10/31
f 64/11/62 63/10/61 51/9/60
f 62/9/63 63/10/61 64/11/62
f 66/11/66 65/11/65 60/9/64
f 60/9/64 65/11/65 55/10/67
f 58/10/70 67/11/69 56/9/68
f 57/10/71 66/11/66 60/9/64
f 52/10/72 54/9/11 55/10/67
f 67/11/69 66/11/66 57/10/71
f 67/11/69 57/10/71 56/9/68
f 68/11/73 62/9/63 64/11/62
f 64/11/62 51/9/60 69/11/74
f 51/9/60 52/10/72 69/11/74
f 61/10/75 62/9/63 68/11/73
f 58/10/70 59/9/18 61/10/75
f 72/5/78 71/5/77 70/5/76
f 71/5/77 72/5/78 73/5/79
f 73/5/79 72/5/78 74/5/80
f 73/5/79 74/5/80 75/5/81
f 74/5/80 77/12/83 76/12/82
f 77/12/83 74/5/80 72/5/78
f 70/5/76 79/12/85 78/12/84
f 79/12/85 70/5/76 71/5/77
f 71/5/77 80/12/86 79/12/85
f 80/12/86 71/5/77 73/5/79
f 81/12/87 73/5/79 75/5/81
f 73/5/79 81/12/87 80/12/86
f 81/12/87 74/5/80 76/12/82
f 74/5/80 81/12/87 75/5/81
f 72/5/78 78/12/84 77/12/83
f 78/12/84 72/5/78 70/5/76
f 65/11/65 52/10/72 55/10/67
f 52/10/72 65/11/65 69/11/74
f 68/11/73 58/10/70 61/10/75
f 58/10/70 68/11/73 67/11/69
f 78/12/84 68/11/73 64/11/62
f 68/11/73 78/12/84 79/12/85
f 76/12/82 69/11/74 65/11/65
f 69/11/74 76/12/82 77/12/83
f 79/12/85 67/11/69 68/11/73
f 67/11/69 79/12/85 80/12/86
f 66/11/66 80/12/86 81/12/87
f 80/12/86 66/11/66 67/11/69
f 66/11/66 76/12/82 65/11/65
f 76/12/82 66/11/66 81/12/87
f 77/12/83 64/11/62 69/11/74
f 64/11/62 77/12/83 78/12/84
f 84/4/90 83/13/89 82/13/88
f 83/13/89 84/4/90 85/4/91
f 88/13/94 87/4/93 86/4/92
f 87/4/93 88/13/94 89/13/95
f 92/13/98 91/5/97 90/5/96
f 91/5/97 92/13/98 93/13/99
f 94/4/100 82/13/88 93/13/99
f 82/13/88 94/4/100 84/4/90
f 95/5/101 93/13/99 82/13/88
f 93/13/99 95/5/101 91/5/97
f 93/13/99 96/4/102 94/4/100
f 96/4/102 93/13/99 92/13/98
f 83/13/89 95/5/101 82/13/88
f 95/5/101 83/13/89 97/5/103
f 91/5/97 98/5/104 90/5/96
f 98/5/104 91/5/97 99/5/105
f 99/5/105 91/5/97 95/5/101
f 99/5/105 95/5/101 97/5/103
f 88/13/94 90/5/96 98/5/104
f 90/5/96 88/13/94 92/13/98
f 88/13/94 96/4/102 92/13/98
f 96/4/102 88/13/94 86/4/92
f 89/13/95 85/4/91 87/4/93
f 85/4/91 89/13/95 83/13/89
f 98/5/104 89/13/95 88/13/94
f 89/13/95 98/5/104 99/5/105
f 99/5/105 83/13/89 89/13/95
f 83/13/89 99/5/105 97/5/103
f 87/4/93 96/4/102 86/4/92
f 96/4/102 87/4/93 94/4/100
f 94/4/100 87/4/93 85/4/91
f 94/4/100 85/4/91 84/4/90
f 102/4/106 101/14/89 100/14/88
f 101/14/89 102/4/106 103/4/107
f 106/14/94 105/4/109 104/4/108
f 105/4/109 106/14/94 107/14/95
f 110/14/98 109/5/111 108/5/110
f 109/5/111 110/14/98 111/14/99
f 112/4/112 100/14/88 111/14/99
f 100/14/88 112/4/112 102/4/106
f 113/5/113 111/14/99 100/14/88
f 111/14/99 113/5/113 109/5/111
f 111/14/99 114/4/114 112/4/112
f 114/4/114 111/14/99 110/14/98
f 101/14/89 113/5/113 100/14/88
f 113/5/113 101/14/89 115/5/115
f 109/5/111 116/5/116 108/5/110
f 116/5/116 109/5/111 117/5/117
f 117/5/117 109/5/111 113/5/113
f 117/5/117 113/5/113 115/5/115
f 106/14/94 108/5/110 116/5/116
f 108/5/110 106/14/94 110/14/98
f 106/14/94 114/4/114 110/14/98
f 114/4/114 106/14/94 104/4/108
f 107/14/95 103/4/107 105/4/109
f 103/4/107 107/14/95 101/14/89
f 116/5/116 107/14/95 106/14/94
f 107/14/95 116/5/116 117/5/117
f 117/5/117 101/14/89 107/14/95
f 101/14/89 117/5/117 115/5/115
f 105/4/109 114/4/114 104/4/108
f 114/4/114 105/4/109 112/4/112
f 112/4/112 105/4/109 103/4/107
f 112/4/112 103/4/107 102/4/106
f 120/15/118 119/16/118 118/15/118
f 119/16/118 120/15/118 121/16/118
f 118/15/119 122/17/119 120/15/119
f 122/17/119 118/15/119 123/17/119
f 121/16/120 122/17/120 124/18/120
f 122/17/120 121/16/120 120/15/120
f 123/17/121 119/16/121 125/18/121
f 119/16/121 123/17/121 118/15/121
f 124/18/122 119/16/122 121/16/122
f 119/16/122 124/18/122 125/18/122
f 128/15/123 127/16/123 126/15/123
f 127/16/123 128/15/123 129/16/123
f 130/17/124 128/15/124 126/15/124
f 128/15/124 130/17/124 131/17/124
f 129/16/125 131/17/125 132/18/125
f 131/17/125 129/16/125 128/15/125
f 130/17/126 127/16/126 133/18/126
f 127/16/126 130/17/126 126/15/126
f 132/18/127 127/16/127 129/16/127
f 127/16/127 132/18/127 133/18/127
f 136/19/21 135/19/21 134/19/21
f 135/19/21 136/19/21 137/19/21
f 137/19/21 136/19/21 138/19/21
f 138/19/21 136/19/21 139/19/21
f 139/19/21 136/19/21 140/19/21
f 139/19/21 140/19/21 141/19/21
f 141/19/21 140/19/21 142/19/21
f 141/19/21 142/19/21 143/19/21
f 141/19/21 143/19/21 144/19/21
f 144/19/21 143/19/21 145/19/21
f 148/17/130 147/20/129 146/20/128
f 147/20/129 148/17/130 149/17/131
f 152/17/134 151/20/133 150/20/132
f 151/20/133 152/17/134 153/17/135
f 146/20/128 154/17/136 148/17/130
f 154/17/136 146/20/128 155/20/137
f 153/17/135 155/20/137 151/20/133
f 155/20/137 153/17/135 154/17/136
f 152/17/134 157/20/139 156/17/138
f 157/20/139 152/17/134 150/20/132
f 149/17/131 157/20/139 147/20/129
f 157/20/139 149/17/131 156/17/138
f 151/20/133 143/19/141 142/19/140
f 155/20/137 143/19/141 151/20/133
f 143/19/141 155/20/137 145/19/142
f 145/19/142 146/20/128 144/19/143
f 146/20/128 145/19/142 155/20/137
f 147/20/129 139/19/145 141/19/144
f 157/20/139 139/19/145 147/20/129
f 139/19/145 157/20/139 138/19/146
f 150/20/132 136/19/148 134/19/147
f 136/19/148 150/20/132 140/19/148
f 140/19/148 150/20/132 142/19/140
f 142/19/140 150/20/132 151/20/133
f 157/20/139 137/19/149 138/19/146
f 137/19/149 157/20/139 150/20/132
f 137/19/149 150/20/132 135/19/149
f 135/19/149 150/20/132 134/19/147
f 146/20/128 141/19/144 144/19/143
f 141/19/144 146/20/128 147/20/129
