mtllib tree.mtl
g tree
v 0.46371 0.39945 -7.6604e-09
v 0.39205 0.4671 -6.3249e-09
v 0.38225 0.32112 -0.22069
v 0.19602 0.4671 -0.33952
v -0.39205 0.4671 5.3606e-09
v -0.19602 0.4671 0.33952
v -0.46371 0.39945 6.1612e-09
v -0.38225 0.32112 0.22069
v -0.23185 0.39945 0.40158
v -0.23185 0.39945 -0.40158
v -6.578e-09 0.32112 -0.44138
v 0.23185 0.39945 -0.40158
v -0.38225 0.32112 -0.22069
v -0.19602 0.4671 -0.33952
v 0.38225 0.32112 0.22069
v 0.19602 0.4671 0.33952
v 0.23185 0.39945 0.40158
v 3.0199e-09 0.32112 0.44138
v 7.2191e-16 0.27745 -7.4959e-10
v 0.11571 0.8242 -0.20041
v 0.23142 0.8242 -3.4489e-09
v -0.11571 0.8242 -0.20041
v 0.11571 0.8242 0.20041
v -0.23142 0.8242 3.4489e-09
v -0.11571 0.8242 0.20041
v 0.30779 0.74179 -0.1777
v 0.37338 0.80486 -5.7412e-09
v 0.31925 0.85933 -4.7192e-09
v 0.15963 0.85933 -0.27648
v -0.37338 0.80486 5.3879e-09
v -0.31925 0.85933 4.7966e-09
v -0.15963 0.85933 0.27648
v -0.30779 0.74179 0.1777
v -0.18669 0.80486 0.32336
v -0.18669 0.80486 -0.32336
v -5.2966e-09 0.74179 -0.3554
v 0.18669 0.80486 -0.32336
v -0.30779 0.74179 -0.1777
v -0.15963 0.85933 -0.27648
v 0.30779 0.74179 0.1777
v 0.15963 0.85933 0.27648
v 0.18669 0.80486 0.32336
v 2.4316e-09 0.74179 0.3554
v 2.8515e-15 0.70663 -1.7662e-10
v 0.15274 1.2312 -1.5311e-09
v 0.076368 1.2312 0.13227
v -0.076368 1.2312 -0.13227
v -0.15274 1.2312 3.0215e-09
v 0.076368 1.2312 -0.13227
v -0.076368 1.2312 0.13227
v 0.21237 1.1622 -0.12261
v 0.12882 1.2057 -0.22312
v 3.0232e-15 1.1379 5.5758e-10
v -3.6547e-09 1.1622 -0.24523
v -0.12882 1.2057 -0.22312
v -0.21237 1.1622 0.12261
v -0.25763 1.2057 4.3971e-09
v -0.12882 1.2057 0.22312
v 1.6778e-09 1.1622 0.24523
v -0.21237 1.1622 -0.12261
v 0.12882 1.2057 0.22312
v 0.21237 1.1622 0.12261
v 0.25763 1.2057 -3.282e-09
v 0.24054 1.2433 -2.8787e-09
v -0.12027 1.2433 -0.20831
v -0.24054 1.2433 4.291e-09
v -0.12027 1.2433 0.20831
v 0.12027 1.2433 0.20831
v 0.12027 1.2433 -0.20831
v 0.052694 1.6839 4.0833e-10
v 0.026347 1.6839 0.045634
v 0.026347 1.6839 -0.045634
v -0.026347 1.6839 0.045634
v -0.026347 1.6839 -0.045634
v -0.052694 1.6839 1.9789e-09
v -0.052694 1.3999 -0.091268
v 0.052694 1.3999 -0.091268
v 0.10539 1.3999 -3.7698e-10
v 0.052694 1.3999 0.091268
v -0.052694 1.3999 0.091268
v -0.10539 1.3999 2.7642e-09
v 0.061389 0.4212 -0.035443
v 0.061389 0.4212 0.035443
v 2.1657e-15 0.4212 -0.070886
v 2.1657e-15 0.4212 0.070886
v -0.061389 0.4212 -0.035443
v -0.061389 0.4212 0.035443
v 0.16721 -3.491e-17 0.096536
v 0.16721 -3.491e-17 0.044803
v 0.1224 -3.491e-17 0.1224
v 0.16721 -3.491e-17 -6.4972e-15
v 0.16721 -3.491e-17 -0.096536
v -3.6096e-15 -3.491e-17 -0.19307
v 0.083603 -3.491e-17 0.1448
v -3.6096e-15 -3.491e-17 0.19307
v -0.16721 -3.491e-17 0.096536
v -0.16721 -3.491e-17 -0.096536
v 0 0.1404 0.1249
v -0.10817 0.1404 0.06245
v 0.10817 0.1404 0.06245
v -0.10817 0.1404 -0.06245
v 0.10817 0.1404 -0.06245
v 0 0.1404 -0.1249
vn 0.68644 0.72719 0
vn 0.81174 0.58402 0
vn 0.69464 0.59719 -0.40105
vn 0.42105 0.59775 -0.68221
vn -0.80134 0.59775 -0.023533
vn -0.41825 0.59783 0.68386
vn -0.70764 0.70594 -0.029938
vn -0.71077 0.55635 0.43044
vn -0.38607 0.70414 0.59593
vn -0.38607 0.70414 -0.59593
vn 0 0.45296 -0.89153
vn 0.38607 0.70414 -0.59593
vn -0.69464 0.59719 -0.40105
vn -0.42105 0.59775 -0.68221
vn 0.69464 0.59719 0.40105
vn 0.42105 0.59775 0.68221
vn 0.38607 0.70414 0.59593
vn 0 0.45296 0.89153
vn 0.085269 -0.99514 -0.04923
vn 0.12722 -0.96709 -0.22035
vn 0 -1 0
vn 0 -0.99514 -0.09846
vn -0.12722 -0.96709 -0.22035
vn -0.085269 -0.99514 0.04923
vn -0.25444 -0.96709 0
vn -0.12722 -0.96709 0.22035
vn 0 -0.99514 0.09846
vn -0.085269 -0.99514 -0.04923
vn 0.12722 -0.96709 0.22035
vn 0.085269 -0.99514 0.04923
vn 0.25444 -0.96709 0
vn 0.45599 0.41023 -0.7898
vn 0.91198 0.41022 0
vn -0.45599 0.41023 -0.7898
vn 0.45599 0.41023 0.7898
vn -0.91198 0.41022 0
vn -0.45599 0.41023 0.7898
vn 0.70567 0.5797 -0.40742
vn 0.70934 0.70486 0
vn 0.82155 0.57014 0
vn 0.42418 0.58245 -0.69341
vn -0.72762 0.68544 -0.027096
vn -0.8126 0.58245 -0.020648
vn -0.42179 0.58252 0.69481
vn -0.71948 0.54297 0.43304
vn -0.39263 0.68395 0.61486
vn -0.39263 0.68395 -0.61486
vn 0.39263 0.68395 -0.61486
vn -0.70567 0.5797 -0.40742
vn -0.42418 0.58245 -0.69341
vn 0.70567 0.5797 0.40742
vn 0.42418 0.58245 0.69341
vn 0.39263 0.68395 0.61486
vn 0.9127 0.40864 0
vn 0.45635 0.40864 0.79042
vn -0.45635 0.40864 -0.79042
vn -0.9127 0.40864 0
vn 0.45635 0.40864 -0.79042
vn -0.45635 0.40864 0.79042
vn 0.79186 0.40489 -0.45718
vn 0.9103 0.41395 0
vn 0.84885 0.52864 0
vn 0.79186 0.40489 0.45718
vn -0.79186 0.40489 -0.45718
vn -0.4193 0.52398 -0.74137
vn -0.8517 0.52398 0.0075572
vn -0.43989 0.4238 -0.79176
vn -0.78828 0.42128 0.44848
vn -0.42006 0.52398 0.74094
vn -0.43989 0.4238 0.79176
vn -0.90577 0.42357 0.013297
vn 0.43989 0.4238 -0.79176
vn 0.4193 0.52398 0.74137
vn 0.4193 0.52398 -0.74137
vn 0.43989 0.4238 0.79176
vn 0.73506 0.678 0
vn 0.36753 0.678 0.63658
vn 0.36753 0.678 -0.63658
vn -0.36753 0.678 0.63658
vn -0.36753 0.678 -0.63658
vn -0.73506 0.678 0
vn -0.44151 0.46933 -0.76472
vn 0.44151 0.46933 -0.76472
vn 0.88302 0.46933 0
vn 0.44151 0.46933 0.76472
vn -0.44151 0.46933 0.76472
vn -0.88302 0.46933 0
vn 0 1 0
vn 0 0.32879 0.9444
vn -0.81788 0.32879 0.4722
vn 0 0.18889 0.982
vn -0.85044 0.18889 0.491
vn 0.81788 0.32879 0.4722
vn 0.85044 0.18889 0.491
vn -0.81788 0.32879 -0.4722
vn -0.85044 0.18889 -0.491
vn 0.81788 0.32879 -0.4722
vn 0.85044 0.18889 -0.491
vn 0 0.32879 -0.9444
vn 0 0.18889 -0.982
vn -0.77904 0.43679 -0.44978
vn -0.77904 0.43679 0.44978
vn 0.77904 0.43679 -0.44978
vn 0.92181 0.38763 0
vn 0.77904 0.43679 0.44978
vn 0 0.43679 -0.89956
vn 0 0.43679 0.89956
vn 0.46091 0.38763 0.79832
vt 0.21875 0.069628
vt 0.21875 0.094373
vt 0.21875 0.040975
vt 0.21875 0.025
vt 0.21875 0.225
vt 0.21875 0.038405
vt 0.21875 0.06245
vt 0.21875 0.083215
vt 0.21875 0.033888
vt 0.21875 0.049829
vt 0.21875 0.063597
vt 0.21875 0.12097
vt 0.96875 0.225
vt 0.96875 0.145
vt 0.96875 0.17167
usemtl colormap
f 3/3/3 2/2/2 1/1/1
f 2/2/2 3/3/3 4/2/4
f 7/1/7 6/2/6 5/2/5
f 6/2/6 7/1/7 8/3/8
f 9/1/9 6/2/6 8/3/8
f 12/1/12 11/3/11 10/1/10
f 5/2/5 14/2/14 13/3/13
f 7/1/7 5/2/5 13/3/13
f 15/3/15 1/1/1 2/2/2
f 16/2/16 15/3/15 2/2/2
f 17/1/17 15/3/15 16/2/16
f 9/1/9 18/3/18 17/1/17
f 13/3/13 14/2/14 10/1/10
f 3/3/3 12/1/12 4/2/4
f 19/4/21 12/1/20 3/3/19
f 11/3/22 12/1/20 19/4/21
f 10/1/23 11/3/22 19/4/21
f 7/1/25 19/4/21 8/3/24
f 8/3/24 19/4/21 9/1/26
f 9/1/26 19/4/21 18/3/27
f 13/3/28 10/1/23 19/4/21
f 7/1/25 13/3/28 19/4/21
f 19/4/21 17/1/29 18/3/27
f 19/4/21 15/3/30 17/1/29
f 19/4/21 1/1/31 15/3/30
f 19/4/21 3/3/19 1/1/31
f 20/5/32 2/2/2 4/2/4
f 2/2/2 20/5/32 21/5/33
f 22/5/34 4/2/4 14/2/14
f 4/2/4 22/5/34 20/5/32
f 21/5/33 16/2/16 2/2/2
f 16/2/16 21/5/33 23/5/35
f 16/2/16 9/1/9 17/1/17
f 9/1/9 16/2/16 6/2/6
f 5/2/5 22/5/34 14/2/14
f 22/5/34 5/2/5 24/5/36
f 14/2/14 12/1/12 10/1/10
f 12/1/12 14/2/14 4/2/4
f 5/2/5 25/5/37 24/5/36
f 25/5/37 5/2/5 6/2/6
f 23/5/35 6/2/6 16/2/16
f 6/2/6 23/5/35 25/5/37
f 28/8/40 27/7/39 26/6/38
f 28/8/40 26/6/38 29/8/41
f 32/8/44 31/8/43 30/7/42
f 32/8/44 30/7/42 33/6/45
f 34/7/46 32/8/44 33/6/45
f 37/7/48 36/6/11 35/7/47
f 31/8/43 39/8/50 38/6/49
f 30/7/42 31/8/43 38/6/49
f 40/6/51 27/7/39 28/8/40
f 41/8/52 40/6/51 28/8/40
f 42/7/53 40/6/51 41/8/52
f 34/7/46 43/6/18 42/7/53
f 38/6/49 39/8/50 35/7/47
f 26/6/38 37/7/48 29/8/41
f 44/4/21 37/7/20 26/6/19
f 36/6/22 37/7/20 44/4/21
f 35/7/23 36/6/22 44/4/21
f 30/7/25 44/4/21 33/6/24
f 33/6/24 44/4/21 34/7/26
f 34/7/26 44/4/21 43/6/27
f 38/6/28 35/7/23 44/4/21
f 30/7/25 38/6/28 44/4/21
f 44/4/21 42/7/29 43/6/27
f 44/4/21 40/6/30 42/7/29
f 44/4/21 27/7/31 40/6/30
f 44/4/21 26/6/19 27/7/31
f 45/5/54 41/8/52 28/8/40
f 41/8/52 45/5/54 46/5/55
f 41/8/52 34/7/46 42/7/53
f 34/7/46 41/8/52 32/8/44
f 31/8/43 47/5/56 39/8/50
f 47/5/56 31/8/43 48/5/57
f 49/5/58 28/8/40 29/8/41
f 28/8/40 49/5/58 45/5/54
f 46/5/55 32/8/44 41/8/52
f 32/8/44 46/5/55 50/5/59
f 39/8/50 37/7/48 35/7/47
f 37/7/48 39/8/50 29/8/41
f 31/8/43 50/5/59 48/5/57
f 50/5/59 31/8/43 32/8/44
f 47/5/56 29/8/41 39/8/50
f 29/8/41 47/5/56 49/5/58
f 53/4/21 52/10/20 51/9/19
f 54/9/22 52/10/20 53/4/21
f 55/10/23 54/9/22 53/4/21
f 57/10/25 53/4/21 56/9/24
f 56/9/24 53/4/21 58/10/26
f 58/10/26 53/4/21 59/9/27
f 60/9/28 55/10/23 53/4/21
f 57/10/25 60/9/28 53/4/21
f 53/4/21 61/10/29 59/9/27
f 53/4/21 62/9/30 61/10/29
f 53/4/21 63/10/31 62/9/30
f 53/4/21 51/9/19 63/10/31
f 64/11/62 63/10/61 51/9/60
f 62/9/63 63/10/61 64/11/62
f 66/11/66 65/11/65 60/9/64
f 60/9/64 65/11/65 55/10/67
f 58/10/70 67/11/69 56/9/68
f 57/10/71 66/11/66 60/9/64
f 52/10/72 54/9/11 55/10/67
f 67/11/69 66/11/66 57/10/71
f 67/11/69 57/10/71 56/9/68
f 68/11/73 62/9/63 64/11/62
f 64/11/62 51/9/60 69/11/74
f 51/9/60 52/10/72 69/11/74
f 61/10/75 62/9/63 68/11/73
f 58/10/70 59/9/18 61/10/75
f 72/5/78 71/5/77 70/5/76
f 71/5/77 72/5/78 73/5/79
f 73/5/79 72/5/78 74/5/80
f 73/5/79 74/5/80 75/5/81
f 74/5/80 77/12/83 76/12/82
f 77/12/83 74/5/80 72/5/78
f 70/5/76 79/12/85 78/12/84
f 79/12/85 70/5/76 71/5/77
f 71/5/77 80/12/86 79/12/85
f 80/12/86 71/5/77 73/5/79
f 81/12/87 73/5/79 75/5/81
f 73/5/79 81/12/87 80/12/86
f 81/12/87 74/5/80 76/12/82
f 74/5/80 81/12/87 75/5/81
f 72/5/78 78/12/84 77/12/83
f 78/12/84 72/5/78 70/5/76
f 65/11/65 52/10/72 55/10/67
f 52/10/72 65/11/65 69/11/74
f 68/11/73 58/10/70 61/10/75
f 58/10/70 68/11/73 67/11/69
f 78/12/84 68/11/73 64/11/62
f 68/11/73 78/12/84 79/12/85
f 76/12/82 69/11/74 65/11/65
f 69/11/74 76/12/82 77/12/83
f 79/12/85 67/11/69 68/11/73
f 67/11/69 79/12/85 80/12/86
f 66/11/66 80/12/86 81/12/87
f 80/12/86 66/11/66 67/11/69
f 66/11/66 76/12/82 65/11/65
f 76/12/82 66/11/66 81/12/87
f 77/12/83 64/11/62 69/11/74
f 64/11/62 77/12/83 78/12/84
f 84/13/88 83/13/88 82/13/88
f 83/13/88 84/13/88 85/13/88
f 85/13/88 84/13/88 86/13/88
f 85/13/88 86/13/88 87/13/88
f 90/14/21 89/14/21 88/14/21
f 89/14/21 90/14/21 91/14/21
f 91/14/21 90/14/21 92/14/21
f 92/14/21 90/14/21 93/14/21
f 93/14/21 90/14/21 94/14/21
f 93/14/21 94/14/21 95/14/21
f 93/14/21 95/14/21 96/14/21
f 93/14/21 96/14/21 97/14/21
f 85/13/91 99/15/90 98/15/89
f 99/15/90 85/13/91 87/13/92
f 83/13/94 98/15/89 100/15/93
f 98/15/89 83/13/94 85/13/91
f 99/15/90 86/13/96 101/15/95
f 86/13/96 99/15/90 87/13/92
f 82/13/98 100/15/93 102/15/97
f 100/15/93 82/13/98 83/13/94
f 86/13/96 103/15/99 101/15/95
f 103/15/99 86/13/96 84/13/100
f 84/13/100 102/15/97 103/15/99
f 102/15/97 84/13/100 82/13/98
f 96/14/102 101/15/95 97/14/101
f 101/15/95 96/14/102 99/15/90
f 102/15/97 91/14/104 92/14/103
f 91/14/104 102/15/97 100/15/93
f 91/14/104 100/15/93 89/14/104
f 89/14/104 100/15/93 88/14/105
f 103/15/99 92/14/103 93/14/106
f 92/14/103 103/15/99 102/15/97
f 101/15/95 93/14/106 97/14/101
f 93/14/106 101/15/95 103/15/99
f 98/15/89 96/14/102 95/14/107
f 96/14/102 98/15/89 99/15/90
f 100/15/93 90/14/108 88/14/105
f 90/14/108 100/15/93 94/14/108
f 94/14/108 100/15/93 95/14/107
f 95/14/107 100/15/93 98/15/89
g tree
usemtl colormap
f 3/3/3 2/2/2 1/1/1
f 2/2/2 3/3/3 4/2/4
f 7/1/7 6/2/6 5/2/5
f 6/2/6 7/1/7 8/3/8
f 9/1/9 6/2/6 8/3/8
f 12/1/12 11/3/11 10/1/10
f 5/2/5 14/2/14 13/3/13
f 7/1/7 5/2/5 13/3/13
f 15/3/15 1/1/1 2/2/2
f 16/2/16 15/3/15 2/2/2
f 17/1/17 15/3/15 16/2/16
f 9/1/9 18/3/18 17/1/17
f 13/3/13 14/2/14 10/1/10
f 3/3/3 12/1/12 4/2/4
f 19/4/21 12/1/20 3/3/19
f 11/3/22 12/1/20 19/4/21
f 10/1/23 11/3/22 19/4/21
f 7/1/25 19/4/21 8/3/24
f 8/3/24 19/4/21 9/1/26
f 9/1/26 19/4/21 18/3/27
f 13/3/28 10/1/23 19/4/21
f 7/1/25 13/3/28 19/4/21
f 19/4/21 17/1/29 18/3/27
f 19/4/21 15/3/30 17/1/29
f 19/4/21 1/1/31 15/3/30
f 19/4/21 3/3/19 1/1/31
f 20/5/32 2/2/2 4/2/4
f 2/2/2 20/5/32 21/5/33
f 22/5/34 4/2/4 14/2/14
f 4/2/4 22/5/34 20/5/32
f 21/5/33 16/2/16 2/2/2
f 16/2/16 21/5/33 23/5/35
f 16/2/16 9/1/9 17/1/17
f 9/1/9 16/2/16 6/2/6
f 5/2/5 22/5/34 14/2/14
f 22/5/34 5/2/5 24/5/36
f 14/2/14 12/1/12 10/1/10
f 12/1/12 14/2/14 4/2/4
f 5/2/5 25/5/37 24/5/36
f 25/5/37 5/2/5 6/2/6
f 23/5/35 6/2/6 16/2/16
f 6/2/6 23/5/35 25/5/37
f 28/8/40 27/7/39 26/6/38
f 28/8/40 26/6/38 29/8/41
f 32/8/44 31/8/43 30/7/42
f 32/8/44 30/7/42 33/6/45
f 34/7/46 32/8/44 33/6/45
f 37/7/48 36/6/11 35/7/47
f 31/8/43 39/8/50 38/6/49
f 30/7/42 31/8/43 38/6/49
f 40/6/51 27/7/39 28/8/40
f 41/8/52 40/6/51 28/8/40
f 42/7/53 40/6/51 41/8/52
f 34/7/46 43/6/18 42/7/53
f 38/6/49 39/8/50 35/7/47
f 26/6/38 37/7/48 29/8/41
f 44/4/21 37/7/20 26/6/19
f 36/6/22 37/7/20 44/4/21
f 35/7/23 36/6/22 44/4/21
f 30/7/25 44/4/21 33/6/24
f 33/6/24 44/4/21 34/7/26
f 34/7/26 44/4/21 43/6/27
f 38/6/28 35/7/23 44/4/21
f 30/7/25 38/6/28 44/4/21
f 44/4/21 42/7/29 43/6/27
f 44/4/21 40/6/30 42/7/29
f 44/4/21 27/7/31 40/6/30
f 44/4/21 26/6/19 27/7/31
f 45/5/54 41/8/52 28/8/40
f 41/8/52 45/5/54 46/5/55
f 41/8/52 34/7/46 42/7/53
f 34/7/46 41/8/52 32/8/44
f 31/8/43 47/5/56 39/8/50
f 47/5/56 31/8/43 48/5/57
f 49/5/58 28/8/40 29/8/41
f 28/8/40 49/5/58 45/5/54
f 46/5/55 32/8/44 41/8/52
f 32/8/44 46/5/55 50/5/59
f 39/8/50 37/7/48 35/7/47
f 37/7/48 39/8/50 29/8/41
f 31/8/43 50/5/59 48/5/57
f 50/5/59 31/8/43 32/8/44
f 47/5/56 29/8/41 39/8/50
f 29/8/41 47/5/56 49/5/58
f 53/4/21 52/10/20 51/9/19
f 54/9/22 52/10/20 53/4/21
f 55/10/23 54/9/22 53/4/21
f 57/10/25 53/4/21 56/9/24
f 56/9/24 53/4/21 58/10/26
f 58/10/26 53/4/21 59/9/27
f 60/9/28 55/10/23 53/4/21
f 57/10/25 60/9/28 53/4/21
f 53/4/21 61/10/29 59/9/27
f 53/4/21 62/9/30 61/10/29
f 53/4/21 63/10/31 62/9/30
f 53/4/21 51/9/19 63/10/31
f 64/11/62 63/10/61 51/9/60
f 62/9/63 63/10/61 64/11/62
f 66/11/66 65/11/65 60/9/64
f 60/9/64 65/11/65 55/10/67
f 58/10/70 67/11/69 56/9/68
f 57/10/71 66/11/66 60/9/64
f 52/10/72 54/9/11 55/10/67
f 67/11/69 66/11/66 57/10/71
f 67/11/69 57/10/71 56/9/68
f 68/11/73 62/9/63 64/11/62
f 64/11/62 51/9/60 69/11/74
f 51/9/60 52/10/72 69/11/74
f 61/10/75 62/9/63 68/11/73
f 58/10/70 59/9/18 61/10/75
f 72/5/78 71/5/77 70/5/76
f 71/5/77 72/5/78 73/5/79
f 73/5/79 72/5/78 74/5/80
f 73/5/79 74/5/80 75/5/81
f 74/5/80 77/12/83 76/12/82
f 77/12/83 74/5/80 72/5/78
f 70/5/76 79/12/85 78/12/84
f 79/12/85 70/5/76 71/5/77
f 71/5/77 80/12/86 79/12/85
f 80/12/86 71/5/77 73/5/79
f 81/12/87 73/5/79 75/5/81
f 73/5/79 81/12/87 80/12/86
f 81/12/87 74/5/80 76/12/82
f 74/5/80 81/12/87 75/5/81
f 72/5/78 78/12/84 77/12/83
f 78/12/84 72/5/78 70/5/76
f 65/11/65 52/10/72 55/10/67
f 52/10/72 65/11/65 69/11/74
f 68/11/73 58/10/70 61/10/75
f 58/10/70 68/11/73 67/11/69
f 78/12/84 68/11/73 64/11/62
f 68/11/73 78/12/84 79/12/85
f 76/12/82 69/11/74 65/11/65
f 69/11/74 76/12/82 77/12/83
f 79/12/85 67/11/69 68/11/73
f 67/11/69 79/12/85 80/12/86
f 66/11/66 80/12/86 81/12/87
f 80/12/86 66/11/66 67/11/69
f 66/11/66 76/12/82 65/11/65
f 76/12/82 66/11/66 81/12/87
f 77/12/83 64/11/62 69/11/74
f 64/11/62 77/12/83 78/12/84
f 84/13/88 83/13/88 82/13/88
f 83/13/88 84/13/88 85/13/88
f 85/13/88 84/13/88 86/13/88
f 85/13/88 86/13/88 87/13/88
f 90/14/21 89/14/21 88/14/21
f 89/14/21 90/14/21 91/14/21
f 91/14/21 90/14/21 92/14/21
f 92/14/21 90/14/21 93/14/21
f 93/14/21 90/14/21 94/14/21
f 93/14/21 94/14/21 95/14/21
f 93/14/21 95/14/21 96/14/21
f 93/14/21 96/14/21 97/14/21
f 85/13/91 99/15/90 98/15/89
f 99/15/90 85/13/91 87/13/92
f 83/13/94 98/15/89 100/15/93
f 98/15/89 83/13/94 85/13/91
f 99/15/90 86/13/96 101/15/95
f 86/13/96 99/15/90 87/13/92
f 82/13/98 100/15/93 102/15/97
f 100/15/93 82/13/98 83/13/94
f 86/13/96 103/15/99 101/15/95
f 103/15/99 86/13/96 84/13/100
f 84/13/100 102/15/97 103/15/99
f 102/15/97 84/13/100 82/13/98
f 96/14/102 101/15/95 97/14/101
f 101/15/95 96/14/102 99/15/90
f 102/15/97 91/14/104 92/14/103
f 91/14/104 102/15/97 100/15/93
f 91/14/104 100/15/93 89/14/104
f 89/14/104 100/15/93 88/14/105
f 103/15/99 92/14/103 93/14/106
f 92/14/103 103/15/99 102/15/97
f 101/15/95 93/14/106 97/14/101
f 93/14/106 101/15/95 103/15/99
f 98/15/89 96/14/102 95/14/107
f 96/14/102 98/15/89 99/15/90
f 100/15/93 90/14/108 88/14/105
f 90/14/108 100/15/93 94/14/108
f 94/14/108 100/15/93 95/14/107
f 95/14/107 100/15/93 98/15/89
