mtllib weapon-bow.mtl
g weapon-bow
v -0.07688 0.2886 0.11176
v 0 0.2886 0.11176
v -0.07688 0.37885 0.072305
v 0 0.37885 0.072305
v -0.07688 0.032962 0
v -0.07688 0.099851 0.072305
v -0.07688 0 0.019778
v -0.07688 0.055293 0.13496
v -0.07688 0.1901 0.11176
v -0.07688 0.42341 0.13496
v -0.07688 0.17437 0.18701
v -0.07688 0.30433 0.18701
v -0.07688 0.4787 0.019778
v -0.07688 0.44574 0
v 0 0.44574 0
v 0 0.4787 0.019778
v 0 0.099851 0.072305
v 0 0.1901 0.11176
v 0 0.42341 0.13496
v 0 0.055293 0.13496
v 0 0.17437 0.18701
v 0 0.30433 0.18701
v 0 5.0466e-14 0.019778
v 0 0.032962 0
v -0.015813 0.44574 0.035
v -0.015813 0.032962 0.035
v -0.03844 0.44574 0.057627
v -0.03844 0.032962 0.057627
v -0.061067 0.032962 0.035
v -0.061067 0.44574 0.035
v -0.03844 0.032962 0.012373
v -0.03844 0.44574 0.012373
v -0.00894 0.1901 0.20889
v -0.06794 0.1901 0.20889
v -0.00894 0.30433 0.20889
v -0.06794 0.30433 0.20889
v -0.09794 0.1901 0.17889
v -0.09794 0.30433 0.17889
v 0.02106 0.30433 0.11989
v 0.02106 0.1901 0.11989
v 0.02106 0.30433 0.17889
v 0.02106 0.1901 0.17889
v -0.00894 0.30433 0.089887
v -0.06794 0.30433 0.089887
v -0.09794 0.30433 0.11989
v -0.00894 0.1901 0.089887
v -0.06794 0.1901 0.089887
v -0.09794 0.1901 0.11989
vn 0 -0.20462 -0.97884
vn 0 -0.57958 -0.81492
vn -1 0 0
vn 0 0.51452 -0.85748
vn 0 0.57958 -0.81492
vn 0 0.20462 -0.97884
vn 1 0 0
vn 0 -0.40057 0.91627
vn 0 -0.20462 0.97884
vn 0 -0.73406 -0.67908
vn 0 0.20462 0.97884
vn 0 0.73406 -0.67908
vn 0 0.69447 0.71952
vn 0 -0.51452 -0.85748
vn 0 -0.9015 0.43278
vn 0 0.9015 0.43278
vn 0.70711 0 0.70711
vn -0.70711 0 0.70711
vn -0.70711 0 -0.70711
vn 0.70711 0 -0.70711
vn 0.38268 0 0.92388
vn -0.38268 0 0.92388
vn -0.92388 0 0.38268
vn 0.92388 0 -0.38268
vn 0.92388 0 0.38268
vn 0 1 0
vn 0 -1 0
vn -0.38268 0 -0.92388
vn 0.38268 0 -0.92388
vn -0.92388 0 -0.38268
vt 0.96875 0.14558
vt 0.96875 0.18328
vt 0.96875 0.038771
vt 0.96875 0.066717
vt 0.96875 0.025
vt 0.96875 0.048101
vt 0.96875 0.10442
vt 0.96875 0.2019
vt 0.96875 0.097851
vt 0.96875 0.15215
vt 0.96875 0.225
vt 0.96875 0.21123
vt 0.21875 0.275
vt 0.21875 0.475
vt 0.71875 0.075
vt 0.71875 0.175
usemtl colormap
f 3/2/2 2/1/1 1/1/1
f 2/1/1 3/2/2 4/2/2
f 7/5/3 6/4/3 5/3/3
f 6/4/3 7/5/3 8/6/3
f 6/4/3 8/6/3 9/7/3
f 9/7/3 8/6/3 1/1/3
f 10/8/3 1/1/3 8/6/3
f 10/8/3 8/6/3 11/9/3
f 10/8/3 11/9/3 12/10/3
f 10/8/3 3/2/3 1/1/3
f 13/11/3 3/2/3 10/8/3
f 3/2/3 13/11/3 14/12/3
f 13/11/4 15/12/4 14/12/4
f 15/12/4 13/11/4 16/11/4
f 9/7/6 17/4/5 6/4/5
f 17/4/5 9/7/6 18/7/6
f 16/11/7 4/2/7 15/12/7
f 4/2/7 16/11/7 19/8/7
f 4/2/7 19/8/7 2/1/7
f 2/1/7 19/8/7 18/7/7
f 18/7/7 19/8/7 20/6/7
f 20/6/7 17/4/7 18/7/7
f 20/6/7 19/8/7 21/9/7
f 21/9/7 19/8/7 22/10/7
f 23/5/7 17/4/7 20/6/7
f 17/4/7 23/5/7 24/3/7
f 1/1/1 18/7/6 9/7/6
f 18/7/6 1/1/1 2/1/1
f 20/6/8 11/9/9 8/6/8
f 11/9/9 20/6/8 21/9/9
f 3/2/2 15/12/10 4/2/2
f 15/12/10 3/2/2 14/12/10
f 21/9/9 12/10/11 11/9/9
f 12/10/11 21/9/9 22/10/11
f 5/3/12 17/4/5 24/3/12
f 17/4/5 5/3/12 6/4/5
f 22/10/11 10/8/13 12/10/11
f 10/8/13 22/10/11 19/8/13
f 5/3/14 23/5/14 7/5/14
f 23/5/14 5/3/14 24/3/14
f 20/6/15 7/5/15 23/5/15
f 7/5/15 20/6/15 8/6/15
f 16/11/16 10/8/13 19/8/13
f 10/8/13 16/11/16 13/11/16
f 27/13/17 26/14/17 25/13/17
f 26/14/17 27/13/17 28/14/17
f 27/13/18 29/14/18 28/14/18
f 29/14/18 27/13/18 30/13/18
f 29/14/19 32/13/19 31/14/19
f 32/13/19 29/14/19 30/13/19
f 32/13/20 26/14/20 31/14/20
f 26/14/20 32/13/20 25/13/20
f 35/16/21 34/15/22 33/15/21
f 34/15/22 35/16/21 36/16/22
f 34/15/22 38/16/23 37/15/23
f 38/16/23 34/15/22 36/16/22
f 41/16/25 40/15/24 39/16/24
f 40/15/24 41/16/25 42/15/25
f 35/16/21 42/15/25 41/16/25
f 42/15/25 35/16/21 33/15/21
f 43/16/26 41/16/26 39/16/26
f 41/16/26 43/16/26 35/16/26
f 35/16/26 43/16/26 44/16/26
f 35/16/26 44/16/26 36/16/26
f 36/16/26 44/16/26 45/16/26
f 36/16/26 45/16/26 38/16/26
f 33/15/27 40/15/27 42/15/27
f 40/15/27 33/15/27 46/15/27
f 46/15/27 33/15/27 34/15/27
f 46/15/27 34/15/27 47/15/27
f 47/15/27 34/15/27 37/15/27
f 47/15/27 37/15/27 48/15/27
f 44/16/28 46/15/29 47/15/28
f 46/15/29 44/16/28 43/16/29
f 39/16/24 46/15/29 43/16/29
f 46/15/29 39/16/24 40/15/24
f 37/15/23 45/16/30 48/15/30
f 45/16/30 37/15/23 38/16/23
f 48/15/30 44/16/28 47/15/28
f 44/16/28 48/15/30 45/16/30
g weapon-bow
usemtl colormap
f 3/2/2 2/1/1 1/1/1
f 2/1/1 3/2/2 4/2/2
f 7/5/3 6/4/3 5/3/3
f 6/4/3 7/5/3 8/6/3
f 6/4/3 8/6/3 9/7/3
f 9/7/3 8/6/3 1/1/3
f 10/8/3 1/1/3 8/6/3
f 10/8/3 8/6/3 11/9/3
f 10/8/3 11/9/3 12/10/3
f 10/8/3 3/2/3 1/1/3
f 13/11/3 3/2/3 10/8/3
f 3/2/3 13/11/3 14/12/3
f 13/11/4 15/12/4 14/12/4
f 15/12/4 13/11/4 16/11/4
f 9/7/6 17/4/5 6/4/5
f 17/4/5 9/7/6 18/7/6
f 16/11/7 4/2/7 15/12/7
f 4/2/7 16/11/7 19/8/7
f 4/2/7 19/8/7 2/1/7
f 2/1/7 19/8/7 18/7/7
f 18/7/7 19/8/7 20/6/7
f 20/6/7 17/4/7 18/7/7
f 20/6/7 19/8/7 21/9/7
f 21/9/7 19/8/7 22/10/7
f 23/5/7 17/4/7 20/6/7
f 17/4/7 23/5/7 24/3/7
f 1/1/1 18/7/6 9/7/6
f 18/7/6 1/1/1 2/1/1
f 20/6/8 11/9/9 8/6/8
f 11/9/9 20/6/8 21/9/9
f 3/2/2 15/12/10 4/2/2
f 15/12/10 3/2/2 14/12/10
f 21/9/9 12/10/11 11/9/9
f 12/10/11 21/9/9 22/10/11
f 5/3/12 17/4/5 24/3/12
f 17/4/5 5/3/12 6/4/5
f 22/10/11 10/8/13 12/10/11
f 10/8/13 22/10/11 19/8/13
f 5/3/14 23/5/14 7/5/14
f 23/5/14 5/3/14 24/3/14
f 20/6/15 7/5/15 23/5/15
f 7/5/15 20/6/15 8/6/15
f 16/11/16 10/8/13 19/8/13
f 10/8/13 16/11/16 13/11/16
f 27/13/17 26/14/17 25/13/17
f 26/14/17 27/13/17 28/14/17
f 27/13/18 29/14/18 28/14/18
f 29/14/18 27/13/18 30/13/18
f 29/14/19 32/13/19 31/14/19
f 32/13/19 29/14/19 30/13/19
f 32/13/20 26/14/20 31/14/20
f 26/14/20 32/13/20 25/13/20
f 35/16/21 34/15/22 33/15/21
f 34/15/22 35/16/21 36/16/22
f 34/15/22 38/16/23 37/15/23
f 38/16/23 34/15/22 36/16/22
f 41/16/25 40/15/24 39/16/24
f 40/15/24 41/16/25 42/15/25
f 35/16/21 42/15/25 41/16/25
f 42/15/25 35/16/21 33/15/21
f 43/16/26 41/16/26 39/16/26
f 41/16/26 43/16/26 35/16/26
f 35/16/26 43/16/26 44/16/26
f 35/16/26 44/16/26 36/16/26
f 36/16/26 44/16/26 45/16/26
f 36/16/26 45/16/26 38/16/26
f 33/15/27 40/15/27 42/15/27
f 40/15/27 33/15/27 46/15/27
f 46/15/27 33/15/27 34/15/27
f 46/15/27 34/15/27 47/15/27
f 47/15/27 34/15/27 37/15/27
f 47/15/27 37/15/27 48/15/27
f 44/16/28 46/15/29 47/15/28
f 46/15/29 44/16/28 43/16/29
f 39/16/24 46/15/29 43/16/29
f 46/15/29 39/16/24 40/15/24
f 37/15/23 45/16/30 48/15/30
f 45/16/30 37/15/23 38/16/23
f 48/15/30 44/16/28 47/15/28
f 44/16/28 48/15/30 45/16/30
