mtllib boat-sail-a.mtl
g boat-sail-a
v -0.40698 0 -1.585
v 0.40698 0 -1.585
v -0.6783 0.2 -1.6814
v 0.6783 0.2 -1.6814
v -0.8925 0.6 -1.785
v 0.8925 0.6 -1.785
v 0.40698 0 0.21794
v 0.17809 0 0.58107
v 1.3283e-13 0 0.67964
v -0.17809 0 0.58107
v -0.40698 0 0.21794
v 0.8925 0.6 0.9725
v 0.6783 0.2 0.6863
v 0.29682 0.2 1.2915
v 0.39055 0.6 1.7688
v 6.0063e-13 0.6 1.985
v 4.216e-13 0.2 1.4558
v -0.39055 0.6 1.7688
v -0.29682 0.2 1.2915
v -0.8925 0.6 0.9725
v -0.6783 0.2 0.6863
v -0.24875 0.9 1.6187
v 5.2555e-13 0.9 1.7564
v -0.39055 0.9 1.7688
v -0.6925 0.9 0.91473
v 6.0063e-13 0.9 1.985
v -0.8925 0.9 0.9725
v 0.24875 0.9 1.6187
v -0.6925 0.9 -1.585
v 0.39055 0.9 1.7688
v -0.8925 0.9 -1.785
v 0.6925 0.9 -1.585
v 0.8925 0.9 -1.785
v 0.6925 0.9 0.91473
v 0.8925 0.9 0.9725
v -0.28353 0.7 0.11473
v -0.28353 0.8725 0.11473
v -0.28353 0.7 1.0441
v -0.28353 0.8725 0.9578
v -0.28353 0.78625 1.0441
v 0.28353 0.8725 0.11473
v 0.28353 0.7 0.11473
v 0.28353 0.8725 0.9578
v 0.28353 0.7 1.0441
v 0.28353 0.78625 1.0441
v -0.4925 1.3 0.014727
v -0.3925 1.3 0.11473
v -0.4925 1.3 0.11473
v -0.4925 1.3 -1.085
v 0.3925 1.3 0.11473
v 0.4925 1.3 0.014727
v 0.4925 1.3 0.11473
v 0.4925 1.3 -1.085
v -0.4925 0.7 -1.085
v 0.4925 0.7 -1.085
v -0.4925 0.7 0.014727
v -0.3925 0.7 0.11473
v 0.3925 0.7 0.11473
v 0.4925 0.7 0.014727
v -0.6925 0.7 0.91473
v -0.24875 0.7 1.6187
v 0.6925 0.7 0.91473
v 0.24875 0.7 1.6187
v 5.2555e-13 0.7 1.7564
v 0.6925 0.7 -1.585
v -0.6925 0.7 -1.585
v 0.5925 1.3 0.31473
v -0.5925 1.3 0.31473
v 0.5925 1.5 0.31473
v -0.5925 1.5 0.31473
v 0.6925 1.5 0.21473
v 0.6925 1.3 0.21473
v -0.6925 1.3 0.21473
v -0.6925 1.5 0.21473
v -0.5925 1.3 -1.285
v 0.5925 1.3 -1.285
v -0.5925 1.5 -1.285
v 0.5925 1.5 -1.285
v 0.6925 1.5 -1.185
v 0.6925 1.3 -1.185
v -0.6925 1.3 -1.185
v -0.6925 1.5 -1.185
v 0.28353 1.5 -0.070475
v -0.28353 1.5 -0.070475
v 0.28353 1.5862 -0.070475
v -0.28353 1.5862 -0.070475
v 0.28353 1.6725 -0.15672
v -0.28353 1.6725 -0.15672
v -0.28353 1.5 -0.9998
v 0.28353 1.5 -0.9998
v -0.28353 1.5862 -0.9998
v 0.28353 1.5862 -0.9998
v 0.28353 1.6725 -0.91355
v -0.28353 1.6725 -0.91355
v 0.8925 0.9 -0.885
v 0.8925 1 -0.985
v 0.8925 0.9 -1.385
v 0.8925 1 -1.285
v 0.6925 1 -0.985
v 0.6925 1 -1.285
v 0.6925 0.9 -0.885
v 0.6925 0.9 -1.385
v -0.6925 0.9 -0.885
v -0.6925 1 -0.985
v -0.6925 0.9 -1.385
v -0.6925 1 -1.285
v -0.8925 1 -0.985
v -0.8925 1 -1.285
v -0.8925 0.9 -0.885
v -0.8925 0.9 -1.385
v -0.6925 0.9 0.715
v -0.6925 1 0.615
v -0.6925 0.9 0.215
v -0.6925 1 0.315
v -0.8925 1 0.615
v -0.8925 1 0.315
v -0.8925 0.9 0.715
v -0.8925 0.9 0.215
v 0.8925 0.9 0.715
v 0.8925 1 0.615
v 0.8925 0.9 0.215
v 0.8925 1 0.315
v 0.6925 1 0.615
v 0.6925 1 0.315
v 0.6925 0.9 0.715
v 0.6925 0.9 0.215
vn 0 -0.43423 -0.9008
vn 0 -0.25071 -0.96806
vn 0 -1 0
vn 0.88156 -0.47207 0
vn 0.75444 -0.59785 0.27092
vn 0.81696 -0.55345 0.16208
vn 0.53234 -0.69738 0.47988
vn 0.4407 -0.72873 0.52415
vn 0 -0.79775 0.60299
vn -0.4407 -0.72873 0.52415
vn -0.53234 -0.69738 0.47988
vn -0.75444 -0.59785 0.27092
vn -0.81696 -0.55345 0.16208
vn -0.88156 -0.47207 0
vn -0.59335 -0.80494 0
vn -0.39343 -0.90554 0.15877
vn -0.51808 -0.85293 0.064093
vn -0.19202 -0.95257 0.23607
vn -0.26196 -0.9395 0.2207
vn 0 -0.96837 0.24953
vn 0.26196 -0.9395 0.2207
vn 0.19202 -0.95257 0.23607
vn 0.51808 -0.85293 0.064093
vn 0.39343 -0.90554 0.15877
vn 0.59335 -0.80494 0
vn 0 1 0
vn -1 0 0
vn 1 0 0
vn 0 0 1
vn 0 0.38268 0.92388
vn 0 0.92388 0.38268
vn 0 0 -1
vn -0.92388 0 0.38268
vn -0.38268 0 0.92388
vn 0.38268 0 0.92388
vn 0.92388 0 0.38268
vn 0.68671 0 0.72693
vn 0.84597 0 0.53324
vn -0.68671 0 0.72693
vn -0.84597 0 0.53324
vn 0.84597 0 -0.53324
vn 0.68671 0 -0.72693
vn -0.84597 0 -0.53324
vn -0.68671 0 -0.72693
vn -0.38268 0 -0.92388
vn 0.38268 0 -0.92388
vn 0.92388 0 -0.38268
vn -0.92388 0 -0.38268
vn 0 0.38268 -0.92388
vn 0 0.92388 -0.38268
vn 1 0 3.5894e-13
vn -1.3736e-13 0.92388 0.38268
vn 1.3736e-13 0.92388 -0.38268
vn -1 0 -3.5894e-13
vn 2.5381e-13 0.70711 -0.70711
vn -2.5381e-13 0.70711 0.70711
vt 0.71875 0.025
vt 0.71875 0.069444
vt 0.71875 0.15833
vt 0.71875 0.225
vt 0.71875 0.125
vt 0.71875 0.175
vt 0.71875 0.40833
vt 0.71875 0.475
vt 0.71875 0.43056
vt 0.71875 0.425
vt 0.71875 0.275
vt 0.71875 0.375
usemtl colormap
f 3/2/1 2/1/1 1/1/1
f 2/1/1 3/2/1 4/2/1
f 5/3/2 4/2/2 3/2/2
f 4/2/2 5/3/2 6/3/2
f 8/1/3 2/1/3 7/1/3
f 2/1/3 8/1/3 1/1/3
f 1/1/3 8/1/3 9/1/3
f 1/1/3 9/1/3 10/1/3
f 1/1/3 10/1/3 11/1/3
f 12/3/5 4/2/4 6/3/4
f 4/2/4 12/3/5 13/2/6
f 12/3/5 14/2/7 13/2/6
f 14/2/7 12/3/5 15/3/8
f 16/3/9 14/2/7 15/3/8
f 14/2/7 16/3/9 17/2/9
f 18/3/10 17/2/9 16/3/9
f 17/2/9 18/3/10 19/2/11
f 20/3/12 19/2/11 18/3/10
f 19/2/11 20/3/12 21/2/13
f 20/3/12 3/2/14 21/2/13
f 3/2/14 20/3/12 5/3/14
f 1/1/15 21/2/16 3/2/15
f 21/2/16 1/1/15 11/1/17
f 11/1/17 19/2/18 21/2/16
f 19/2/18 11/1/17 10/1/19
f 9/1/20 19/2/18 10/1/19
f 19/2/18 9/1/20 17/2/20
f 8/1/21 17/2/20 9/1/20
f 17/2/20 8/1/21 14/2/22
f 7/1/23 14/2/22 8/1/21
f 14/2/22 7/1/23 13/2/24
f 7/1/23 4/2/25 13/2/24
f 4/2/25 7/1/23 2/1/25
f 24/4/26 23/4/26 22/4/26
f 24/4/26 22/4/26 25/4/26
f 26/4/26 23/4/26 24/4/26
f 24/4/26 25/4/26 27/4/26
f 26/4/26 28/4/26 23/4/26
f 27/4/26 25/4/26 29/4/26
f 30/4/26 28/4/26 26/4/26
f 29/4/26 31/4/26 27/4/26
f 32/4/26 31/4/26 29/4/26
f 32/4/26 33/4/26 31/4/26
f 30/4/26 34/4/26 28/4/26
f 33/4/26 32/4/26 34/4/26
f 35/4/26 34/4/26 30/4/26
f 34/4/26 35/4/26 33/4/26
f 38/1/27 37/4/27 36/1/27
f 37/4/27 38/1/27 39/4/27
f 39/4/27 38/1/27 40/5/27
f 43/4/28 42/1/28 41/4/28
f 42/1/28 43/4/28 44/1/28
f 44/1/28 43/4/28 45/5/28
f 45/5/30 38/1/29 44/1/29
f 38/1/29 45/5/30 40/5/30
f 43/4/31 40/5/30 45/5/30
f 40/5/30 43/4/31 39/4/31
f 41/4/26 39/4/31 43/4/31
f 39/4/31 41/4/26 37/4/26
f 48/6/26 47/6/26 46/6/26
f 47/6/26 49/6/26 46/6/26
f 50/6/26 49/6/26 47/6/26
f 51/6/26 49/6/26 50/6/26
f 50/6/26 52/6/26 51/6/26
f 49/6/26 51/6/26 53/6/26
f 49/6/32 55/1/32 54/1/32
f 55/1/32 49/6/32 53/6/32
f 56/1/33 49/6/27 54/1/27
f 49/6/27 56/1/33 46/6/33
f 57/1/34 46/6/33 56/1/33
f 46/6/33 57/1/34 47/6/34
f 57/1/34 50/6/35 47/6/34
f 50/6/35 57/1/34 58/1/35
f 59/1/36 50/6/35 58/1/35
f 50/6/35 59/1/36 51/6/36
f 55/1/28 51/6/36 59/1/36
f 51/6/36 55/1/28 53/6/28
f 58/1/3 55/1/3 59/1/3
f 55/1/3 58/1/3 54/1/3
f 54/1/3 58/1/3 57/1/3
f 54/1/3 57/1/3 56/1/3
f 31/8/32 6/7/32 5/7/32
f 6/7/32 31/8/32 33/8/32
f 30/8/37 16/7/29 15/7/37
f 16/7/29 30/8/37 26/8/29
f 30/8/37 12/7/38 35/8/38
f 12/7/38 30/8/37 15/7/37
f 26/8/29 18/7/39 16/7/29
f 18/7/39 26/8/29 24/8/39
f 18/7/39 27/8/40 20/7/40
f 27/8/40 18/7/39 24/8/39
f 22/8/42 60/9/41 25/8/41
f 60/9/41 22/8/42 61/9/42
f 63/9/44 34/8/43 62/9/43
f 34/8/43 63/9/44 28/8/44
f 23/8/32 63/9/44 64/9/32
f 63/9/44 23/8/32 28/8/44
f 22/8/42 64/9/32 61/9/42
f 64/9/32 22/8/42 23/8/32
f 32/8/29 66/9/29 65/9/29
f 66/9/29 32/8/29 29/8/29
f 35/8/28 6/7/28 33/8/28
f 6/7/28 35/8/28 12/7/28
f 20/7/27 31/8/27 5/7/27
f 31/8/27 20/7/27 27/8/27
f 65/9/26 63/9/26 62/9/26
f 63/9/26 65/9/26 66/9/26
f 63/9/26 66/9/26 64/9/26
f 64/9/26 66/9/26 61/9/26
f 61/9/26 66/9/26 60/9/26
f 62/9/27 32/8/27 65/9/27
f 32/8/27 62/9/27 34/8/27
f 25/8/28 66/9/28 29/8/28
f 66/9/28 25/8/28 60/9/28
f 69/8/35 68/10/34 67/10/35
f 68/10/34 69/8/35 70/8/34
f 69/8/35 72/10/36 71/8/36
f 72/10/36 69/8/35 67/10/35
f 68/10/34 74/8/33 73/10/33
f 74/8/33 68/10/34 70/8/34
f 77/8/45 76/10/46 75/10/45
f 76/10/46 77/8/45 78/8/46
f 79/8/47 76/10/46 78/8/46
f 76/10/46 79/8/47 80/10/47
f 81/10/48 77/8/45 75/10/45
f 77/8/45 81/10/48 82/8/48
f 73/10/33 82/8/48 81/10/48
f 82/8/48 73/10/33 74/8/33
f 78/8/26 71/8/26 79/8/26
f 71/8/26 78/8/26 69/8/26
f 69/8/26 78/8/26 77/8/26
f 69/8/26 77/8/26 70/8/26
f 70/8/26 77/8/26 82/8/26
f 70/8/26 82/8/26 74/8/26
f 71/8/36 80/10/47 79/8/47
f 80/10/47 71/8/36 72/10/36
f 67/10/3 80/10/3 72/10/3
f 80/10/3 67/10/3 76/10/3
f 76/10/3 67/10/3 52/10/3
f 52/10/3 67/10/3 68/10/3
f 53/10/3 76/10/3 52/10/3
f 53/10/3 52/10/3 51/10/3
f 52/10/3 68/10/3 50/10/3
f 76/10/3 53/10/3 75/10/3
f 50/10/3 68/10/3 47/10/3
f 47/10/3 68/10/3 48/10/3
f 48/10/3 68/10/3 46/10/3
f 46/10/3 68/10/3 49/10/3
f 75/10/3 53/10/3 49/10/3
f 75/10/3 49/10/3 68/10/3
f 75/10/3 68/10/3 73/10/3
f 75/10/3 73/10/3 81/10/3
f 85/12/30 84/11/29 83/11/29
f 84/11/29 85/12/30 86/12/30
f 87/8/31 86/12/30 85/12/30
f 86/12/30 87/8/31 88/8/31
f 91/12/49 90/11/32 89/11/32
f 90/11/32 91/12/49 92/12/49
f 93/8/50 88/8/31 87/8/31
f 88/8/31 93/8/50 94/8/50
f 92/12/49 94/8/50 93/8/50
f 94/8/50 92/12/49 91/12/49
f 84/11/27 91/12/27 89/11/27
f 91/12/27 84/11/27 94/8/27
f 94/8/27 84/11/27 88/8/27
f 88/8/27 84/11/27 86/12/27
f 93/8/28 90/11/28 92/12/28
f 90/11/28 93/8/28 83/11/28
f 83/11/28 93/8/28 87/8/28
f 83/11/28 87/8/28 85/12/28
f 97/1/51 96/4/51 95/1/51
f 96/4/51 97/1/51 98/4/51
f 96/4/52 100/4/53 99/4/52
f 100/4/53 96/4/52 98/4/53
f 99/4/54 102/1/54 101/1/54
f 102/1/54 99/4/54 100/4/54
f 98/4/53 102/1/55 100/4/53
f 102/1/55 98/4/53 97/1/55
f 95/1/56 99/4/52 101/1/56
f 99/4/52 95/1/56 96/4/52
f 105/1/51 104/4/51 103/1/51
f 104/4/51 105/1/51 106/4/51
f 104/4/52 108/4/53 107/4/52
f 108/4/53 104/4/52 106/4/53
f 107/4/54 110/1/54 109/1/54
f 110/1/54 107/4/54 108/4/54
f 106/4/53 110/1/55 108/4/53
f 110/1/55 106/4/53 105/1/55
f 103/1/56 107/4/52 109/1/56
f 107/4/52 103/1/56 104/4/52
f 113/1/51 112/4/51 111/1/51
f 112/4/51 113/1/51 114/4/51
f 112/4/52 116/4/53 115/4/52
f 116/4/53 112/4/52 114/4/53
f 115/4/54 118/1/54 117/1/54
f 118/1/54 115/4/54 116/4/54
f 114/4/53 118/1/55 116/4/53
f 118/1/55 114/4/53 113/1/55
f 111/1/56 115/4/52 117/1/56
f 115/4/52 111/1/56 112/4/52
f 121/1/51 120/4/51 119/1/51
f 120/4/51 121/1/51 122/4/51
f 120/4/52 124/4/53 123/4/52
f 124/4/53 120/4/52 122/4/53
f 123/4/54 126/1/54 125/1/54
f 126/1/54 123/4/54 124/4/54
f 122/4/53 126/1/55 124/4/53
f 126/1/55 122/4/53 121/1/55
f 119/1/56 123/4/52 125/1/56
f 123/4/52 119/1/56 120/4/52
g boat-sail-a
usemtl colormap
f 3/2/1 2/1/1 1/1/1
f 2/1/1 3/2/1 4/2/1
f 5/3/2 4/2/2 3/2/2
f 4/2/2 5/3/2 6/3/2
f 8/1/3 2/1/3 7/1/3
f 2/1/3 8/1/3 1/1/3
f 1/1/3 8/1/3 9/1/3
f 1/1/3 9/1/3 10/1/3
f 1/1/3 10/1/3 11/1/3
f 12/3/5 4/2/4 6/3/4
f 4/2/4 12/3/5 13/2/6
f 12/3/5 14/2/7 13/2/6
f 14/2/7 12/3/5 15/3/8
f 16/3/9 14/2/7 15/3/8
f 14/2/7 16/3/9 17/2/9
f 18/3/10 17/2/9 16/3/9
f 17/2/9 18/3/10 19/2/11
f 20/3/12 19/2/11 18/3/10
f 19/2/11 20/3/12 21/2/13
f 20/3/12 3/2/14 21/2/13
f 3/2/14 20/3/12 5/3/14
f 1/1/15 21/2/16 3/2/15
f 21/2/16 1/1/15 11/1/17
f 11/1/17 19/2/18 21/2/16
f 19/2/18 11/1/17 10/1/19
f 9/1/20 19/2/18 10/1/19
f 19/2/18 9/1/20 17/2/20
f 8/1/21 17/2/20 9/1/20
f 17/2/20 8/1/21 14/2/22
f 7/1/23 14/2/22 8/1/21
f 14/2/22 7/1/23 13/2/24
f 7/1/23 4/2/25 13/2/24
f 4/2/25 7/1/23 2/1/25
f 24/4/26 23/4/26 22/4/26
f 24/4/26 22/4/26 25/4/26
f 26/4/26 23/4/26 24/4/26
f 24/4/26 25/4/26 27/4/26
f 26/4/26 28/4/26 23/4/26
f 27/4/26 25/4/26 29/4/26
f 30/4/26 28/4/26 26/4/26
f 29/4/26 31/4/26 27/4/26
f 32/4/26 31/4/26 29/4/26
f 32/4/26 33/4/26 31/4/26
f 30/4/26 34/4/26 28/4/26
f 33/4/26 32/4/26 34/4/26
f 35/4/26 34/4/26 30/4/26
f 34/4/26 35/4/26 33/4/26
f 38/1/27 37/4/27 36/1/27
f 37/4/27 38/1/27 39/4/27
f 39/4/27 38/1/27 40/5/27
f 43/4/28 42/1/28 41/4/28
f 42/1/28 43/4/28 44/1/28
f 44/1/28 43/4/28 45/5/28
f 45/5/30 38/1/29 44/1/29
f 38/1/29 45/5/30 40/5/30
f 43/4/31 40/5/30 45/5/30
f 40/5/30 43/4/31 39/4/31
f 41/4/26 39/4/31 43/4/31
f 39/4/31 41/4/26 37/4/26
f 48/6/26 47/6/26 46/6/26
f 47/6/26 49/6/26 46/6/26
f 50/6/26 49/6/26 47/6/26
f 51/6/26 49/6/26 50/6/26
f 50/6/26 52/6/26 51/6/26
f 49/6/26 51/6/26 53/6/26
f 49/6/32 55/1/32 54/1/32
f 55/1/32 49/6/32 53/6/32
f 56/1/33 49/6/27 54/1/27
f 49/6/27 56/1/33 46/6/33
f 57/1/34 46/6/33 56/1/33
f 46/6/33 57/1/34 47/6/34
f 57/1/34 50/6/35 47/6/34
f 50/6/35 57/1/34 58/1/35
f 59/1/36 50/6/35 58/1/35
f 50/6/35 59/1/36 51/6/36
f 55/1/28 51/6/36 59/1/36
f 51/6/36 55/1/28 53/6/28
f 58/1/3 55/1/3 59/1/3
f 55/1/3 58/1/3 54/1/3
f 54/1/3 58/1/3 57/1/3
f 54/1/3 57/1/3 56/1/3
f 31/8/32 6/7/32 5/7/32
f 6/7/32 31/8/32 33/8/32
f 30/8/37 16/7/29 15/7/37
f 16/7/29 30/8/37 26/8/29
f 30/8/37 12/7/38 35/8/38
f 12/7/38 30/8/37 15/7/37
f 26/8/29 18/7/39 16/7/29
f 18/7/39 26/8/29 24/8/39
f 18/7/39 27/8/40 20/7/40
f 27/8/40 18/7/39 24/8/39
f 22/8/42 60/9/41 25/8/41
f 60/9/41 22/8/42 61/9/42
f 63/9/44 34/8/43 62/9/43
f 34/8/43 63/9/44 28/8/44
f 23/8/32 63/9/44 64/9/32
f 63/9/44 23/8/32 28/8/44
f 22/8/42 64/9/32 61/9/42
f 64/9/32 22/8/42 23/8/32
f 32/8/29 66/9/29 65/9/29
f 66/9/29 32/8/29 29/8/29
f 35/8/28 6/7/28 33/8/28
f 6/7/28 35/8/28 12/7/28
f 20/7/27 31/8/27 5/7/27
f 31/8/27 20/7/27 27/8/27
f 65/9/26 63/9/26 62/9/26
f 63/9/26 65/9/26 66/9/26
f 63/9/26 66/9/26 64/9/26
f 64/9/26 66/9/26 61/9/26
f 61/9/26 66/9/26 60/9/26
f 62/9/27 32/8/27 65/9/27
f 32/8/27 62/9/27 34/8/27
f 25/8/28 66/9/28 29/8/28
f 66/9/28 25/8/28 60/9/28
f 69/8/35 68/10/34 67/10/35
f 68/10/34 69/8/35 70/8/34
f 69/8/35 72/10/36 71/8/36
f 72/10/36 69/8/35 67/10/35
f 68/10/34 74/8/33 73/10/33
f 74/8/33 68/10/34 70/8/34
f 77/8/45 76/10/46 75/10/45
f 76/10/46 77/8/45 78/8/46
f 79/8/47 76/10/46 78/8/46
f 76/10/46 79/8/47 80/10/47
f 81/10/48 77/8/45 75/10/45
f 77/8/45 81/10/48 82/8/48
f 73/10/33 82/8/48 81/10/48
f 82/8/48 73/10/33 74/8/33
f 78/8/26 71/8/26 79/8/26
f 71/8/26 78/8/26 69/8/26
f 69/8/26 78/8/26 77/8/26
f 69/8/26 77/8/26 70/8/26
f 70/8/26 77/8/26 82/8/26
f 70/8/26 82/8/26 74/8/26
f 71/8/36 80/10/47 79/8/47
f 80/10/47 71/8/36 72/10/36
f 67/10/3 80/10/3 72/10/3
f 80/10/3 67/10/3 76/10/3
f 76/10/3 67/10/3 52/10/3
f 52/10/3 67/10/3 68/10/3
f 53/10/3 76/10/3 52/10/3
f 53/10/3 52/10/3 51/10/3
f 52/10/3 68/10/3 50/10/3
f 76/10/3 53/10/3 75/10/3
f 50/10/3 68/10/3 47/10/3
f 47/10/3 68/10/3 48/10/3
f 48/10/3 68/10/3 46/10/3
f 46/10/3 68/10/3 49/10/3
f 75/10/3 53/10/3 49/10/3
f 75/10/3 49/10/3 68/10/3
f 75/10/3 68/10/3 73/10/3
f 75/10/3 73/10/3 81/10/3
f 85/12/30 84/11/29 83/11/29
f 84/11/29 85/12/30 86/12/30
f 87/8/31 86/12/30 85/12/30
f 86/12/30 87/8/31 88/8/31
f 91/12/49 90/11/32 89/11/32
f 90/11/32 91/12/49 92/12/49
f 93/8/50 88/8/31 87/8/31
f 88/8/31 93/8/50 94/8/50
f 92/12/49 94/8/50 93/8/50
f 94/8/50 92/12/49 91/12/49
f 84/11/27 91/12/27 89/11/27
f 91/12/27 84/11/27 94/8/27
f 94/8/27 84/11/27 88/8/27
f 88/8/27 84/11/27 86/12/27
f 93/8/28 90/11/28 92/12/28
f 90/11/28 93/8/28 83/11/28
f 83/11/28 93/8/28 87/8/28
f 83/11/28 87/8/28 85/12/28
f 97/1/51 96/4/51 95/1/51
f 96/4/51 97/1/51 98/4/51
f 96/4/52 100/4/53 99/4/52
f 100/4/53 96/4/52 98/4/53
f 99/4/54 102/1/54 101/1/54
f 102/1/54 99/4/54 100/4/54
f 98/4/53 102/1/55 100/4/53
f 102/1/55 98/4/53 97/1/55
f 95/1/56 99/4/52 101/1/56
f 99/4/52 95/1/56 96/4/52
f 105/1/51 104/4/51 103/1/51
f 104/4/51 105/1/51 106/4/51
f 104/4/52 108/4/53 107/4/52
f 108/4/53 104/4/52 106/4/53
f 107/4/54 110/1/54 109/1/54
f 110/1/54 107/4/54 108/4/54
f 106/4/53 110/1/55 108/4/53
f 110/1/55 106/4/53 105/1/55
f 103/1/56 107/4/52 109/1/56
f 107/4/52 103/1/56 104/4/52
f 113/1/51 112/4/51 111/1/51
f 112/4/51 113/1/51 114/4/51
f 112/4/52 116/4/53 115/4/52
f 116/4/53 112/4/52 114/4/53
f 115/4/54 118/1/54 117/1/54
f 118/1/54 115/4/54 116/4/54
f 114/4/53 118/1/55 116/4/53
f 118/1/55 114/4/53 113/1/55
f 111/1/56 115/4/52 117/1/56
f 115/4/52 111/1/56 112/4/52
f 121/1/51 120/4/51 119/1/51
f 120/4/51 121/1/51 122/4/51
f 120/4/52 124/4/53 123/4/52
f 124/4/53 120/4/52 122/4/53
f 123/4/54 126/1/54 125/1/54
f 126/1/54 123/4/54 124/4/54
f 122/4/53 126/1/55 124/4/53
f 126/1/55 122/4/53 121/1/55
f 119/1/56 123/4/52 125/1/56
f 123/4/52 119/1/56 120/4/52
g sail
v 0.12072 0.8725 0.50564
v 0.12072 0.8725 0.64503
v 0.090088 4.7391 0.52332
v 0.090088 4.7391 0.62735
v -1.1839e-13 0.8725 0.71473
v -0.12072 0.8725 0.64503
v -1.2128e-13 4.7391 0.67936
v -0.090088 4.7391 0.62735
v -0.12072 0.8725 0.50564
v -1.1839e-13 0.8725 0.43594
v -0.090088 4.7391 0.52332
v -1.2128e-13 4.7391 0.47131
v -0.19009 2.3 0.66542
v -0.19009 2.3 0.48524
v -0.19009 2.5 0.66542
v -0.19009 2.5 0.48524
v -0.090088 2.5 0.76542
v -0.090088 2.3 0.76542
v 0.090088 2.3 0.38524
v 0.090088 2.5 0.38524
v -0.090088 2.3 0.38524
v -0.090088 2.5 0.38524
v 0.19009 2.3 0.48524
v 0.19009 2.3 0.66542
v 0.19009 2.5 0.48524
v 0.19009 2.5 0.66542
v 0.090088 2.5 0.76542
v 0.090088 2.3 0.76542
v -0.19009 1.2 0.66542
v -0.19009 1.2 0.48524
v -0.19009 1.4 0.66542
v -0.19009 1.4 0.48524
v -0.090088 1.4 0.76542
v -0.090088 1.2 0.76542
v 0.090088 1.2 0.38524
v 0.090088 1.4 0.38524
v -0.090088 1.2 0.38524
v -0.090088 1.4 0.38524
v 0.19009 1.2 0.48524
v 0.19009 1.2 0.66542
v 0.19009 1.4 0.48524
v 0.19009 1.4 0.66542
v 0.090088 1.4 0.76542
v 0.090088 1.2 0.76542
v -0.19009 4.4 0.66542
v -0.19009 4.4 0.48524
v -0.19009 4.6 0.66542
v -0.19009 4.6 0.48524
v -0.090088 4.6 0.76542
v -0.090088 4.4 0.76542
v 0.090088 4.4 0.38524
v 0.090088 4.6 0.38524
v -0.090088 4.4 0.38524
v -0.090088 4.6 0.38524
v 0.19009 4.4 0.48524
v 0.19009 4.4 0.66542
v 0.19009 4.6 0.48524
v 0.19009 4.6 0.66542
v 0.090088 4.6 0.76542
v 0.090088 4.4 0.76542
v 0.090088 1.9781 0.57533
v 0.090088 1.9781 -0.75686
v -0.090088 1.9781 0.57533
v -0.090088 1.9781 -0.75686
v 0.090088 2.1583 -0.75686
v 0.090088 2.1583 0.57533
v -0.090088 2.1583 -0.75686
v -0.090088 2.1583 0.57533
v -0.19009 1.9781 -0.55686
v -0.19009 2.1583 -0.55686
v -0.19009 1.9781 -0.35686
v -0.19009 2.1583 -0.35686
v -0.090088 1.8781 -0.35686
v -0.090088 1.8781 -0.55686
v 0.090088 2.2583 -0.55686
v 0.090088 2.2583 -0.35686
v -0.090088 2.2583 -0.55686
v -0.090088 2.2583 -0.35686
v 0.19009 2.1583 -0.55686
v 0.19009 1.9781 -0.55686
v 0.19009 2.1583 -0.35686
v 0.19009 1.9781 -0.35686
v 0.090088 1.8781 -0.35686
v 0.090088 1.8781 -0.55686
v 0.090088 1.2 1.8994
v 0.090088 1.2 0.76542
v -0.090088 1.2 1.8994
v -0.090088 1.2 0.76542
v -0.090088 3.6809 0.76542
v 0.090088 3.6809 0.76542
v 0.090088 1.9529 1.3717
v 0.090088 2.7892 0.98951
v -0.090088 1.9529 1.3717
v -0.090088 2.7892 0.98951
v 0.090088 2.2583 0.38524
v 0.090088 2.2583 -0.75686
v -0.090088 2.2583 0.38524
v -0.090088 2.2583 -0.75686
v 0.090088 4.7391 0.38524
v -0.090088 4.7391 0.38524
v 0.090088 3.9862 -0.1462
v 0.090088 3.15 -0.53117
v -0.090088 3.9862 -0.1462
v -0.090088 3.15 -0.53117
vn 0.86599 0.0091467 -0.49998
vn 0.86599 0.0091467 0.49998
vn 0 0.0091467 0.99996
vn -0.86599 0.0091467 0.49998
vn -0.86599 0.0091467 -0.49998
vn 0 0.0091467 -0.99996
vn -0.92388 4.5619e-08 0.38268
vn -0.92388 -4.5619e-08 -0.38268
vn -0.38268 1.1013e-07 0.92388
vn 0.38268 -1.1013e-07 -0.92388
vn -0.38268 -1.1013e-07 -0.92388
vn 0.92388 -4.5619e-08 -0.38268
vn 0.92388 4.5619e-08 0.38268
vn 0.38268 1.1013e-07 0.92388
vn 0 -1 1.1921e-07
vn 0 1 -1.1921e-07
vn -0.92388 -0.38268 0
vn -0.92388 0.38268 0
vn -0.38268 -0.92388 0
vn 0.38268 0.92388 0
vn -0.38268 0.92388 0
vn 0.92388 0.38268 0
vn 0.92388 -0.38268 0
vn 0.38268 -0.92388 0
vn 0.52129 0.48977 0.69885
vn 0.72821 0.34055 0.59476
vn -0.52129 0.48977 0.69885
vn 0.72821 0.22692 0.6467
vn 0.15485 0.24078 0.95815
vn -0.72821 0.34055 0.59476
vn -0.72821 0.22692 0.6467
vn -0.15485 0.24078 0.95815
vn 0.36438 0.53701 -0.76082
vn 0.68709 0.36293 -0.62944
vn -0.36438 0.53701 -0.76082
vn 0.68705 0.24209 -0.6851
vn 0.64417 0.18767 -0.7415
vn -0.68709 0.36293 -0.62944
vn -0.68705 0.24209 -0.6851
vn -0.64417 0.18767 -0.7415
vt 0.34375 0.025
vt 0.34375 0.225
vt 0.34375 0.077607
vt 0.34375 0.17239
vt 0.71875 0.0857
vt 0.71875 0.15311
vt 0.71875 0.1643
vt 0.71875 0.096887
usemtl colormap
f 129/14/57 128/13/58 127/13/57
f 128/13/58 129/14/57 130/14/58
f 133/14/59 132/13/60 131/13/59
f 132/13/60 133/14/59 134/14/60
f 137/14/61 136/13/62 135/13/61
f 136/13/62 137/14/61 138/14/62
f 138/14/62 127/13/57 136/13/62
f 127/13/57 138/14/62 129/14/57
f 132/13/60 137/14/61 135/13/61
f 137/14/61 132/13/60 134/14/60
f 130/14/58 131/13/59 128/13/58
f 131/13/59 130/14/58 133/14/59
f 138/14/26 130/14/26 129/14/26
f 130/14/26 138/14/26 133/14/26
f 133/14/26 138/14/26 137/14/26
f 133/14/26 137/14/26 134/14/26
f 131/13/3 127/13/3 128/13/3
f 127/13/3 131/13/3 136/13/3
f 136/13/3 131/13/3 132/13/3
f 136/13/3 132/13/3 135/13/3
f 141/15/63 140/16/64 139/15/63
f 140/16/64 141/15/63 142/16/64
f 141/15/63 144/13/65 143/13/65
f 144/13/65 141/15/63 139/15/63
f 147/14/67 146/14/66 145/14/66
f 146/14/66 147/14/67 148/14/67
f 140/16/64 148/14/67 147/14/67
f 148/14/67 140/16/64 142/16/64
f 151/16/68 150/15/69 149/16/68
f 150/15/69 151/16/68 152/15/69
f 145/14/66 151/16/68 149/16/68
f 151/16/68 145/14/66 146/14/66
f 143/13/65 154/13/70 153/13/70
f 154/13/70 143/13/65 144/13/65
f 153/13/70 150/15/69 152/15/69
f 150/15/69 153/13/70 154/13/70
f 139/15/71 154/13/71 144/13/71
f 154/13/71 139/15/71 150/15/71
f 150/15/71 139/15/71 140/16/71
f 150/15/71 140/16/71 149/16/71
f 149/16/71 140/16/71 147/14/71
f 149/16/71 147/14/71 145/14/71
f 152/15/72 143/13/72 153/13/72
f 143/13/72 152/15/72 141/15/72
f 141/15/72 152/15/72 151/16/72
f 141/15/72 151/16/72 142/16/72
f 142/16/72 151/16/72 146/14/72
f 142/16/72 146/14/72 148/14/72
f 157/15/63 156/16/64 155/15/63
f 156/16/64 157/15/63 158/16/64
f 157/15/63 160/13/65 159/13/65
f 160/13/65 157/15/63 155/15/63
f 163/14/67 162/14/66 161/14/66
f 162/14/66 163/14/67 164/14/67
f 156/16/64 164/14/67 163/14/67
f 164/14/67 156/16/64 158/16/64
f 167/16/68 166/15/69 165/16/68
f 166/15/69 167/16/68 168/15/69
f 161/14/66 167/16/68 165/16/68
f 167/16/68 161/14/66 162/14/66
f 159/13/65 170/13/70 169/13/70
f 170/13/70 159/13/65 160/13/65
f 169/13/70 166/15/69 168/15/69
f 166/15/69 169/13/70 170/13/70
f 155/15/71 170/13/71 160/13/71
f 170/13/71 155/15/71 166/15/71
f 166/15/71 155/15/71 156/16/71
f 166/15/71 156/16/71 165/16/71
f 165/16/71 156/16/71 163/14/71
f 165/16/71 163/14/71 161/14/71
f 168/15/72 159/13/72 169/13/72
f 159/13/72 168/15/72 157/15/72
f 157/15/72 168/15/72 167/16/72
f 157/15/72 167/16/72 158/16/72
f 158/16/72 167/16/72 162/14/72
f 158/16/72 162/14/72 164/14/72
f 173/15/63 172/16/64 171/15/63
f 172/16/64 173/15/63 174/16/64
f 173/15/63 176/13/65 175/13/65
f 176/13/65 173/15/63 171/15/63
f 179/14/67 178/14/66 177/14/66
f 178/14/66 179/14/67 180/14/67
f 172/16/64 180/14/67 179/14/67
f 180/14/67 172/16/64 174/16/64
f 183/16/68 182/15/69 181/16/68
f 182/15/69 183/16/68 184/15/69
f 177/14/66 183/16/68 181/16/68
f 183/16/68 177/14/66 178/14/66
f 175/13/65 186/13/70 185/13/70
f 186/13/70 175/13/65 176/13/65
f 185/13/70 182/15/69 184/15/69
f 182/15/69 185/13/70 186/13/70
f 171/15/71 186/13/71 176/13/71
f 186/13/71 171/15/71 182/15/71
f 182/15/71 171/15/71 172/16/71
f 182/15/71 172/16/71 181/16/71
f 181/16/71 172/16/71 179/14/71
f 181/16/71 179/14/71 177/14/71
f 184/15/72 175/13/72 185/13/72
f 175/13/72 184/15/72 173/15/72
f 173/15/72 184/15/72 183/16/72
f 173/15/72 183/16/72 174/16/72
f 174/16/72 183/16/72 178/14/72
f 174/16/72 178/14/72 180/14/72
f 189/13/3 188/13/3 187/13/3
f 188/13/3 189/13/3 190/13/3
f 193/14/26 192/14/26 191/14/26
f 192/14/26 193/14/26 194/14/26
f 189/13/27 193/14/27 190/13/27
f 193/14/27 189/13/27 194/14/27
f 193/14/32 188/13/32 190/13/32
f 188/13/32 193/14/32 191/14/32
f 192/14/28 188/13/28 191/14/28
f 188/13/28 192/14/28 187/13/28
f 192/14/29 189/13/29 187/13/29
f 189/13/29 192/14/29 194/14/29
f 197/15/73 196/16/74 195/15/73
f 196/16/74 197/15/73 198/16/74
f 197/15/73 200/13/75 199/13/75
f 200/13/75 197/15/73 195/15/73
f 203/14/77 202/14/76 201/14/76
f 202/14/76 203/14/77 204/14/77
f 196/16/74 204/14/77 203/14/77
f 204/14/77 196/16/74 198/16/74
f 207/16/78 206/15/79 205/16/78
f 206/15/79 207/16/78 208/15/79
f 201/14/76 207/16/78 205/16/78
f 207/16/78 201/14/76 202/14/76
f 199/13/75 210/13/80 209/13/80
f 210/13/80 199/13/75 200/13/75
f 209/13/80 206/15/79 208/15/79
f 206/15/79 209/13/80 210/13/80
f 195/15/32 210/13/32 200/13/32
f 210/13/32 195/15/32 206/15/32
f 206/15/32 195/15/32 196/16/32
f 206/15/32 196/16/32 205/16/32
f 205/16/32 196/16/32 203/14/32
f 205/16/32 203/14/32 201/14/32
f 208/15/29 199/13/29 209/13/29
f 199/13/29 208/15/29 197/15/29
f 197/15/29 208/15/29 207/16/29
f 197/15/29 207/16/29 198/16/29
f 198/16/29 207/16/29 202/14/29
f 198/16/29 202/14/29 204/14/29
f 213/1/3 212/1/3 211/1/3
f 212/1/3 213/1/3 214/1/3
f 215/4/32 212/1/32 214/1/32
f 212/1/32 215/4/32 216/4/32
f 212/1/28 217/17/82 211/1/81
f 217/17/82 213/1/83 211/1/81
f 212/1/28 218/18/84 217/17/82
f 218/18/84 212/1/28 216/4/85
f 213/1/83 217/17/82 219/17/86
f 218/18/84 219/17/86 217/17/82
f 219/17/86 214/1/27 213/1/83
f 216/4/85 220/18/87 218/18/84
f 219/17/86 218/18/84 220/18/87
f 220/18/87 214/1/27 219/17/86
f 220/18/87 216/4/85 215/4/88
f 214/1/27 220/18/87 215/4/88
f 223/1/3 222/1/3 221/1/3
f 222/1/3 223/1/3 224/1/3
f 225/4/29 223/1/29 221/1/29
f 223/1/29 225/4/29 226/4/29
f 221/1/28 227/19/90 225/4/89
f 227/19/90 226/4/91 225/4/89
f 221/1/28 228/20/92 227/19/90
f 228/20/92 221/1/28 222/1/93
f 226/4/91 227/19/90 229/19/94
f 228/20/92 229/19/94 227/19/90
f 229/19/94 223/1/27 226/4/91
f 222/1/93 230/20/95 228/20/92
f 229/19/94 228/20/92 230/20/95
f 230/20/95 223/1/27 229/19/94
f 230/20/95 222/1/93 224/1/96
f 223/1/27 230/20/95 224/1/96
