mtllib ramp-wide.mtl
g ramp-wide
v 2.1271 1.7984e-14 0.85236
v 2.1271 0.75058 0.85236
v 1.9271 4.2096e-14 0.85236
v 1.9271 0.75058 0.85236
v 2.1271 0.75058 1.2524
v 2.1271 1.7984e-14 1.2524
v 1.9271 4.2096e-14 1.2524
v 1.9271 0.75058 1.2524
v -1.9029 0 0.85236
v -1.9029 0.75058 0.85236
v -2.1029 2.4112e-14 0.85236
v -2.1029 0.75058 0.85236
v -1.9029 0.75058 1.2524
v -1.9029 0 1.2524
v -2.1029 2.4112e-14 1.2524
v -2.1029 0.75058 1.2524
v -1.9029 0.2 0.95236
v 1.9271 0.2 0.95236
v -1.9029 0.6 0.95236
v 1.9271 0.6 0.95236
v 1.9271 0.2 1.1524
v -1.9029 0.2 1.1524
v 1.9271 0.6 1.1524
v -1.9029 0.6 1.1524
v 2.4271 0.81435 0.91763
v 2.4271 0.71082 0.53126
v -2.572 0.81435 0.91763
v -2.572 0.71082 0.53126
v 2.4271 0.90401 0.47949
v 2.4271 1.0075 0.86587
v -2.572 0.80742 0.50538
v -2.572 0.91094 0.89175
v 2.4271 0.29671 -1.0142
v 2.4271 0.19319 -1.4006
v -2.4029 0.29671 -1.0142
v -2.4029 0.19319 -1.4006
v 2.4271 0.39331 -1.0401
v -2.4029 0.39331 -1.0401
v -2.4029 0.24148 -1.4135
v 2.4271 0.24148 -1.4135
v 2.4271 0.94376 1.4006
v 2.4271 0.84023 1.0142
v -2.4029 0.94376 1.4006
v -2.4029 0.84023 1.0142
v 2.4271 1.0334 0.96246
v 2.4271 1.1369 1.3488
v -2.4029 1.0334 0.96246
v -2.4029 1.1369 1.3488
v 2.4271 0.42612 -0.53126
v 2.4271 0.32259 -0.91763
v -2.4029 0.42612 -0.53126
v -2.4029 0.32259 -0.91763
v 2.4271 0.41919 -0.94351
v 2.4271 0.52271 -0.55714
v -2.4029 0.41919 -0.94351
v -2.4029 0.52271 -0.55714
v 2.4271 0.68494 0.43467
v 2.4271 0.58141 0.048297
v -2.4029 0.68494 0.43467
v -2.4029 0.58141 0.048297
v 2.4271 0.67801 0.022415
v 2.4271 0.78153 0.40879
v -2.4029 0.67801 0.022415
v -2.4029 0.78153 0.40879
v 2.572 0.55553 -0.048296
v 2.572 0.452 -0.43467
v -2.4029 0.55553 -0.048296
v -2.4029 0.452 -0.43467
v 2.572 0.5486 -0.46055
v 2.572 0.65212 -0.074178
v -2.4029 0.64519 -0.48643
v -2.4029 0.74872 -0.10006
v -2.2029 0.72055 1.3403
v -1.8029 0.72055 1.3403
v -2.2029 0.028822 -1.2413
v -1.8029 0.028822 -1.2413
v -1.8029 0.91374 1.2885
v -2.2029 0.91374 1.2885
v -1.8029 0.22201 -1.293
v -2.2029 0.22201 -1.293
v 1.8271 0.72055 1.3403
v 2.2271 0.72055 1.3403
v 1.8271 0.028822 -1.2413
v 2.2271 0.028822 -1.2413
v 2.2271 0.91374 1.2885
v 1.8271 0.91374 1.2885
v 2.2271 0.22201 -1.293
v 1.8271 0.22201 -1.293
vn 0 0 -1
vn 1 0 0
vn 0 -1 0
vn 0 0 1
vn 0 1 0
vn -1 0 0
vn 0 -0.96593 0.25882
vn -0.02 0.96573 -0.25877
vn 0 0.25882 0.96593
vn 0 -0.25882 -0.96593
vn 0 -0.96593 0.25882
vn 0 0.25882 0.96593
vn 0 -0.25882 -0.96593
vn 0 0.92636 -0.37663
vn 0 0.96593 -0.25882
vn 0 0.96593 -0.25882
vn 0.020097 0.96573 -0.25877
vn 0 -0.96593 0.25882
vn 0 0.96593 -0.25882
vn -1.1921e-07 0.25882 0.96593
vn -1 -3.0854e-08 -1.1515e-07
vn 1.1921e-07 -0.25882 -0.96593
vn 1 3.0854e-08 1.1515e-07
vt 0.84375 0.225
vt 0.84375 0.025
vt 0.84375 0.075
vt 0.84375 0.175
vt 0.84375 0.125
usemtl colormap
f 3/1/1 2/2/1 1/1/1
f 2/2/1 3/1/1 4/2/1
f 5/2/2 1/1/2 2/2/2
f 1/1/2 5/2/2 6/1/2
f 7/1/3 1/1/3 6/1/3
f 1/1/3 7/1/3 3/1/3
f 5/2/4 7/1/4 6/1/4
f 7/1/4 5/2/4 8/2/4
f 4/2/5 5/2/5 2/2/5
f 5/2/5 4/2/5 8/2/5
f 7/1/6 4/2/6 3/1/6
f 4/2/6 7/1/6 8/2/6
f 11/1/1 10/2/1 9/1/1
f 10/2/1 11/1/1 12/2/1
f 13/2/2 9/1/2 10/2/2
f 9/1/2 13/2/2 14/1/2
f 15/1/3 9/1/3 14/1/3
f 9/1/3 15/1/3 11/1/3
f 13/2/4 15/1/4 14/1/4
f 15/1/4 13/2/4 16/2/4
f 12/2/5 13/2/5 10/2/5
f 13/2/5 12/2/5 16/2/5
f 15/1/6 12/2/6 11/1/6
f 12/2/6 15/1/6 16/2/6
f 19/4/1 18/3/1 17/3/1
f 18/3/1 19/4/1 20/4/1
f 21/3/3 17/3/3 18/3/3
f 17/3/3 21/3/3 22/3/3
f 23/4/4 22/3/4 21/3/4
f 22/3/4 23/4/4 24/4/4
f 19/4/5 23/4/5 20/4/5
f 23/4/5 19/4/5 24/4/5
f 27/2/7 26/2/7 25/2/7
f 26/2/7 27/2/7 28/2/7
f 31/5/8 30/1/8 29/1/8
f 30/1/8 31/5/8 32/5/8
f 29/1/2 25/2/2 26/2/2
f 25/2/2 29/1/2 30/1/2
f 30/1/9 27/2/9 25/2/9
f 27/2/9 30/1/9 32/5/9
f 27/2/6 31/5/6 28/2/6
f 31/5/6 27/2/6 32/5/6
f 31/5/10 26/2/10 28/2/10
f 26/2/10 31/5/10 29/1/10
f 35/2/11 34/2/11 33/2/11
f 34/2/11 35/2/11 36/2/11
f 37/1/12 35/2/12 33/2/12
f 35/2/12 37/1/12 38/1/12
f 35/2/6 39/5/6 36/2/6
f 39/5/6 35/2/6 38/1/6
f 39/5/13 34/2/13 36/2/13
f 34/2/13 39/5/13 40/5/13
f 40/5/2 33/2/2 34/2/2
f 33/2/2 40/5/2 37/1/2
f 39/5/14 37/1/14 40/5/14
f 37/1/14 39/5/14 38/1/14
f 43/2/11 42/2/11 41/2/11
f 42/2/11 43/2/11 44/2/11
f 47/1/15 46/1/15 45/1/15
f 46/1/15 47/1/15 48/1/15
f 46/1/2 42/2/2 45/1/2
f 42/2/2 46/1/2 41/2/2
f 46/1/12 43/2/12 41/2/12
f 43/2/12 46/1/12 48/1/12
f 43/2/6 47/1/6 44/2/6
f 47/1/6 43/2/6 48/1/6
f 47/1/13 42/2/13 44/2/13
f 42/2/13 47/1/13 45/1/13
f 51/2/7 50/2/7 49/2/7
f 50/2/7 51/2/7 52/2/7
f 55/1/16 54/1/16 53/1/16
f 54/1/16 55/1/16 56/1/16
f 54/1/2 50/2/2 53/1/2
f 50/2/2 54/1/2 49/2/2
f 54/1/9 51/2/9 49/2/9
f 51/2/9 54/1/9 56/1/9
f 51/2/6 55/1/6 52/2/6
f 55/1/6 51/2/6 56/1/6
f 55/1/10 50/2/10 52/2/10
f 50/2/10 55/1/10 53/1/10
f 59/2/7 58/2/7 57/2/7
f 58/2/7 59/2/7 60/2/7
f 63/1/16 62/1/16 61/1/16
f 62/1/16 63/1/16 64/1/16
f 61/1/2 57/2/2 58/2/2
f 57/2/2 61/1/2 62/1/2
f 62/1/9 59/2/9 57/2/9
f 59/2/9 62/1/9 64/1/9
f 59/2/6 63/1/6 60/2/6
f 63/1/6 59/2/6 64/1/6
f 63/1/10 58/2/10 60/2/10
f 58/2/10 63/1/10 61/1/10
f 67/2/7 66/2/7 65/2/7
f 66/2/7 67/2/7 68/2/7
f 71/1/17 70/5/17 69/5/17
f 70/5/17 71/1/17 72/1/17
f 70/5/2 66/2/2 69/5/2
f 66/2/2 70/5/2 65/2/2
f 70/5/9 67/2/9 65/2/9
f 67/2/9 70/5/9 72/1/9
f 68/2/6 72/1/6 71/1/6
f 72/1/6 68/2/6 67/2/6
f 71/1/10 66/2/10 68/2/10
f 66/2/10 71/1/10 69/5/10
f 75/2/18 74/2/18 73/2/18
f 74/2/18 75/2/18 76/2/18
f 79/1/19 78/1/19 77/1/19
f 78/1/19 79/1/19 80/1/19
f 78/1/20 74/2/20 77/1/20
f 74/2/20 78/1/20 73/2/20
f 78/1/21 75/2/21 73/2/21
f 75/2/21 78/1/21 80/1/21
f 75/2/22 79/1/22 76/2/22
f 79/1/22 75/2/22 80/1/22
f 79/1/23 74/2/23 76/2/23
f 74/2/23 79/1/23 77/1/23
f 83/2/18 82/2/18 81/2/18
f 82/2/18 83/2/18 84/2/18
f 87/1/19 86/1/19 85/1/19
f 86/1/19 87/1/19 88/1/19
f 86/1/20 82/2/20 85/1/20
f 82/2/20 86/1/20 81/2/20
f 86/1/21 83/2/21 81/2/21
f 83/2/21 86/1/21 88/1/21
f 83/2/22 87/1/22 84/2/22
f 87/1/22 83/2/22 88/1/22
f 87/1/23 82/2/23 84/2/23
f 82/2/23 87/1/23 85/1/23
g ramp-wide
usemtl colormap
f 3/1/1 2/2/1 1/1/1
f 2/2/1 3/1/1 4/2/1
f 5/2/2 1/1/2 2/2/2
f 1/1/2 5/2/2 6/1/2
f 7/1/3 1/1/3 6/1/3
f 1/1/3 7/1/3 3/1/3
f 5/2/4 7/1/4 6/1/4
f 7/1/4 5/2/4 8/2/4
f 4/2/5 5/2/5 2/2/5
f 5/2/5 4/2/5 8/2/5
f 7/1/6 4/2/6 3/1/6
f 4/2/6 7/1/6 8/2/6
f 11/1/1 10/2/1 9/1/1
f 10/2/1 11/1/1 12/2/1
f 13/2/2 9/1/2 10/2/2
f 9/1/2 13/2/2 14/1/2
f 15/1/3 9/1/3 14/1/3
f 9/1/3 15/1/3 11/1/3
f 13/2/4 15/1/4 14/1/4
f 15/1/4 13/2/4 16/2/4
f 12/2/5 13/2/5 10/2/5
f 13/2/5 12/2/5 16/2/5
f 15/1/6 12/2/6 11/1/6
f 12/2/6 15/1/6 16/2/6
f 19/4/1 18/3/1 17/3/1
f 18/3/1 19/4/1 20/4/1
f 21/3/3 17/3/3 18/3/3
f 17/3/3 21/3/3 22/3/3
f 23/4/4 22/3/4 21/3/4
f 22/3/4 23/4/4 24/4/4
f 19/4/5 23/4/5 20/4/5
f 23/4/5 19/4/5 24/4/5
f 27/2/7 26/2/7 25/2/7
f 26/2/7 27/2/7 28/2/7
f 31/5/8 30/1/8 29/1/8
f 30/1/8 31/5/8 32/5/8
f 29/1/2 25/2/2 26/2/2
f 25/2/2 29/1/2 30/1/2
f 30/1/9 27/2/9 25/2/9
f 27/2/9 30/1/9 32/5/9
f 27/2/6 31/5/6 28/2/6
f 31/5/6 27/2/6 32/5/6
f 31/5/10 26/2/10 28/2/10
f 26/2/10 31/5/10 29/1/10
f 35/2/11 34/2/11 33/2/11
f 34/2/11 35/2/11 36/2/11
f 37/1/12 35/2/12 33/2/12
f 35/2/12 37/1/12 38/1/12
f 35/2/6 39/5/6 36/2/6
f 39/5/6 35/2/6 38/1/6
f 39/5/13 34/2/13 36/2/13
f 34/2/13 39/5/13 40/5/13
f 40/5/2 33/2/2 34/2/2
f 33/2/2 40/5/2 37/1/2
f 39/5/14 37/1/14 40/5/14
f 37/1/14 39/5/14 38/1/14
f 43/2/11 42/2/11 41/2/11
f 42/2/11 43/2/11 44/2/11
f 47/1/15 46/1/15 45/1/15
f 46/1/15 47/1/15 48/1/15
f 46/1/2 42/2/2 45/1/2
f 42/2/2 46/1/2 41/2/2
f 46/1/12 43/2/12 41/2/12
f 43/2/12 46/1/12 48/1/12
f 43/2/6 47/1/6 44/2/6
f 47/1/6 43/2/6 48/1/6
f 47/1/13 42/2/13 44/2/13
f 42/2/13 47/1/13 45/1/13
f 51/2/7 50/2/7 49/2/7
f 50/2/7 51/2/7 52/2/7
f 55/1/16 54/1/16 53/1/16
f 54/1/16 55/1/16 56/1/16
f 54/1/2 50/2/2 53/1/2
f 50/2/2 54/1/2 49/2/2
f 54/1/9 51/2/9 49/2/9
f 51/2/9 54/1/9 56/1/9
f 51/2/6 55/1/6 52/2/6
f 55/1/6 51/2/6 56/1/6
f 55/1/10 50/2/10 52/2/10
f 50/2/10 55/1/10 53/1/10
f 59/2/7 58/2/7 57/2/7
f 58/2/7 59/2/7 60/2/7
f 63/1/16 62/1/16 61/1/16
f 62/1/16 63/1/16 64/1/16
f 61/1/2 57/2/2 58/2/2
f 57/2/2 61/1/2 62/1/2
f 62/1/9 59/2/9 57/2/9
f 59/2/9 62/1/9 64/1/9
f 59/2/6 63/1/6 60/2/6
f 63/1/6 59/2/6 64/1/6
f 63/1/10 58/2/10 60/2/10
f 58/2/10 63/1/10 61/1/10
f 67/2/7 66/2/7 65/2/7
f 66/2/7 67/2/7 68/2/7
f 71/1/17 70/5/17 69/5/17
f 70/5/17 71/1/17 72/1/17
f 70/5/2 66/2/2 69/5/2
f 66/2/2 70/5/2 65/2/2
f 70/5/9 67/2/9 65/2/9
f 67/2/9 70/5/9 72/1/9
f 68/2/6 72/1/6 71/1/6
f 72/1/6 68/2/6 67/2/6
f 71/1/10 66/2/10 68/2/10
f 66/2/10 71/1/10 69/5/10
f 75/2/18 74/2/18 73/2/18
f 74/2/18 75/2/18 76/2/18
f 79/1/19 78/1/19 77/1/19
f 78/1/19 79/1/19 80/1/19
f 78/1/20 74/2/20 77/1/20
f 74/2/20 78/1/20 73/2/20
f 78/1/21 75/2/21 73/2/21
f 75/2/21 78/1/21 80/1/21
f 75/2/22 79/1/22 76/2/22
f 79/1/22 75/2/22 80/1/22
f 79/1/23 74/2/23 76/2/23
f 74/2/23 79/1/23 77/1/23
f 83/2/18 82/2/18 81/2/18
f 82/2/18 83/2/18 84/2/18
f 87/1/19 86/1/19 85/1/19
f 86/1/19 87/1/19 88/1/19
f 86/1/20 82/2/20 85/1/20
f 82/2/20 86/1/20 81/2/20
f 86/1/21 83/2/21 81/2/21
f 83/2/21 86/1/21 88/1/21
f 83/2/22 87/1/22 84/2/22
f 87/1/22 83/2/22 88/1/22
f 87/1/23 82/2/23 84/2/23
f 82/2/23 87/1/23 85/1/23
