mtllib door-wide-closed.mtl
g door-wide-closed
v -0.9 1.3907 0.4
v 0.9 1.3907 0.4
v -0.9 1.6 0.4
v 0.9 1.6 0.4
v -0.9 0.46357 0.4
v 0.9 0.46357 0.4
v -0.9 0.69535 0.4
v 0.9 0.69535 0.4
v -0.9 0.92714 0.4
v 0.9 0.92714 0.4
v -0.9 1.1589 0.4
v 0.9 1.1589 0.4
v -0.11789 0.16321 0.4
v -0.9 0.23178 0.4
v -0.11789 0.068579 0.4
v 0.11789 0.16321 0.4
v -0.9 4.5119e-17 0.4
v 0.9 0.23178 0.4
v 0.9 4.5119e-17 0.4
v 0.11789 0.068579 0.4
v -0.9 1.1589 0.4
v 0.9 1.1589 0.4
v -0.9 1.3907 0.4
v 0.9 1.3907 0.4
v 0.11789 0.068579 0.4
v 0.11789 0.16321 0.4
v -0.11789 0.068579 0.4
v -0.11789 0.16321 0.4
vn 0 0 -1
vn 0 -1.1921e-07 -1
vt 0.84375 0.19884
vt 0.84375 0.225
vt 0.84375 0.082946
vt 0.84375 0.11192
vt 0.84375 0.14089
vt 0.84375 0.16987
vt 0.84375 0.045401
vt 0.84375 0.053973
vt 0.84375 0.033572
vt 0.84375 0.025
vt 0.84375 0.089
vt 0.84375 0.105
vt 0.84375 0.041
vt 0.84375 0.057
vt 0.84375 0.073
vt 0.34375 0.025
usemtl colormap
f 3/2/1 2/1/1 1/1/1
f 2/1/1 3/2/1 4/2/1
f 7/4/1 6/3/1 5/3/1
f 6/3/1 7/4/1 8/4/1
f 11/6/1 10/5/1 9/5/1
f 10/5/1 11/6/1 12/6/1
f 15/9/1 14/8/1 13/7/1
f 13/7/1 14/8/1 16/7/1
f 15/9/1 17/10/1 14/8/1
f 18/8/1 16/7/1 14/8/1
f 17/10/1 15/9/1 19/10/1
f 18/8/1 20/9/1 16/7/1
f 19/10/1 20/9/1 18/8/1
f 20/9/1 19/10/1 15/9/1
f 23/12/1 22/11/1 21/11/1
f 22/11/1 23/12/1 24/12/1
f 5/13/1 18/10/1 14/10/1
f 18/10/1 5/13/1 6/13/1
f 9/15/1 8/14/1 7/14/1
f 8/14/1 9/15/1 10/15/1
f 27/16/2 26/16/2 25/16/2
f 26/16/2 27/16/2 28/16/2
g door-wide-closed
usemtl colormap
f 3/2/1 2/1/1 1/1/1
f 2/1/1 3/2/1 4/2/1
f 7/4/1 6/3/1 5/3/1
f 6/3/1 7/4/1 8/4/1
f 11/6/1 10/5/1 9/5/1
f 10/5/1 11/6/1 12/6/1
f 15/9/1 14/8/1 13/7/1
f 13/7/1 14/8/1 16/7/1
f 15/9/1 17/10/1 14/8/1
f 18/8/1 16/7/1 14/8/1
f 17/10/1 15/9/1 19/10/1
f 18/8/1 20/9/1 16/7/1
f 19/10/1 20/9/1 18/8/1
f 20/9/1 19/10/1 15/9/1
f 23/12/1 22/11/1 21/11/1
f 22/11/1 23/12/1 24/12/1
f 5/13/1 18/10/1 14/10/1
f 18/10/1 5/13/1 6/13/1
f 9/15/1 8/14/1 7/14/1
f 8/14/1 9/15/1 10/15/1
f 27/16/2 26/16/2 25/16/2
f 26/16/2 27/16/2 28/16/2
