mtllib hopper-round.mtl
g hopper-round
v -0.35355 0.5 -0.35355
v -0.35355 1 -0.35355
v -0.5 0.5 0
v -0.5 1 0
v 0 0.5 -0.5
v 0 1 -0.5
v 0.35355 0.5 -0.35355
v 0.35355 1 -0.35355
v 0.5 1 0
v 0.5 0.5 0
v 0.35355 1 0.35355
v 0.35355 0.5 0.35355
v 0 0.5 0.5
v 0 1 0.5
v -0.35355 0.5 0.35355
v -0.35355 1 0.35355
v -0.17678 0 -0.17678
v -0.25 0 -1.4438e-15
v 0 0 -0.25
v 0 0 0.25
v -0.17678 0 0.17678
v 0.17678 0 -0.17678
v 0.25 0 -1.4438e-15
v 0.17678 0 0.17678
v 0 0.047692 0.15462
v -0.10933 0.047692 0.10933
v 0.10933 0.047692 -0.10933
v -5.7753e-15 0.047692 -0.15462
v -0.15462 0.047692 0
v -0.10933 0.047692 -0.10933
v 0.15462 0.047692 -1.4438e-15
v 0.10933 0.047692 0.10933
v 0 1 0.39176
v 0.27702 1 0.27702
v -0.27702 1 0.27702
v 0.39176 1 0
v 0.27702 1 -0.27702
v 0 1 -0.39176
v -0.39176 1 0
v -0.27702 1 -0.27702
v -0.27702 0.52198 0.27702
v 0 0.52198 0.39176
v 0.39176 0.52198 0
v 0.27702 0.52198 0.27702
v 0.27702 0.52198 -0.27702
v -0.39176 0.52198 0
v 0 0.52198 -0.39176
v -0.27702 0.52198 -0.27702
v -0.5591 0.5375 0
v -0.5591 0.7625 0
v -0.39534 0.5375 0.39534
v -0.39534 0.7625 0.39534
v 7.2191e-15 0.5375 0.5591
v 7.2191e-15 0.7625 0.5591
v 0.39534 0.5375 0.39534
v 0.39534 0.7625 0.39534
v 0.5591 0.7625 0
v 0.5591 0.5375 0
v 0.39534 0.7625 -0.39534
v 0.39534 0.5375 -0.39534
v 7.2191e-15 0.5375 -0.5591
v 7.2191e-15 0.7625 -0.5591
v -0.39534 0.5375 -0.39534
v -0.39534 0.7625 -0.39534
v -0.5 0.5375 0
v -0.35355 0.5375 0.35355
v -0.35355 0.5375 -0.35355
v 0 0.5375 0.5
v 0 0.5375 -0.5
v 0.35355 0.5375 0.35355
v 0.35355 0.5375 -0.35355
v 0.5 0.5375 0
v -0.5 0.7625 0
v -0.35355 0.7625 -0.35355
v -0.35355 0.7625 0.35355
v 0 0.7625 -0.5
v 0 0.7625 0.5
v 0.35355 0.7625 -0.35355
v 0.35355 0.7625 0.35355
v 0.5 0.7625 0
vn -0.69008 -0.21813 -0.69008
vn -0.70711 0 -0.70711
vn -0.97592 -0.21813 0
vn -1 0 0
vn 0 -0.21813 -0.97592
vn 0 0 -1
vn 0.69008 -0.21813 -0.69008
vn 0.70711 0 -0.70711
vn 1 0 0
vn 0.97592 -0.21813 0
vn 0.70711 0 0.70711
vn 0.69008 -0.21813 0.69008
vn 0 -0.21813 0.97592
vn 0 0 1
vn -0.69008 -0.21813 0.69008
vn -0.70711 0 0.70711
vn -0.63246 -0.44721 -0.63246
vn -0.89443 -0.44721 0
vn 0 -0.44721 -0.89443
vn 0 -0.44721 0.89443
vn -0.63246 -0.44721 0.63246
vn 0.63246 -0.44721 -0.63246
vn 0.89443 -0.44721 0
vn 0.63246 -0.44721 0.63246
vn 0 -0.89443 -0.44721
vn 0.31623 -0.89443 -0.31623
vn -0.31623 -0.89443 0.31623
vn 0 -0.89443 0.44721
vn 0.44721 -0.89443 0
vn 0.31623 -0.89443 0.31623
vn -0.44721 -0.89443 0
vn -0.31623 -0.89443 -0.31623
vn 0 1 0
vn 0.69008 0.21813 -0.69008
vn 0 0.21813 -0.97592
vn -0.97592 0.21813 0
vn -0.69008 0.21813 -0.69008
vn -0.69008 0.21813 0.69008
vn 0.97592 0.21813 0
vn 0.89443 0.44721 0
vn 0.63246 0.44721 -0.63246
vn -0.89443 0.44721 0
vn -0.63246 0.44721 -0.63246
vn 0 0.44721 -0.89443
vn 0 0.21813 0.97592
vn 0.69008 0.21813 0.69008
vn 0.63246 0.44721 0.63246
vn 0 0.44721 0.89443
vn -0.63246 0.44721 0.63246
vn 0 -1 0
vt 0.59375 0.125
vt 0.59375 0.225
vt 0.59375 0.025
vt 0.59375 0.034538
vt 0.21875 0.1294
vt 0.21875 0.225
vt 0.21875 0.034538
vt 0.71875 0.089286
vt 0.71875 0.175
usemtl colormap
f 3/1/3 2/2/2 1/1/1
f 2/2/2 3/1/3 4/2/4
f 2/2/2 5/1/5 1/1/1
f 5/1/5 2/2/2 6/2/6
f 6/2/6 7/1/7 5/1/5
f 7/1/7 6/2/6 8/2/8
f 9/2/9 7/1/7 8/2/8
f 7/1/7 9/2/9 10/1/10
f 11/2/11 10/1/10 9/2/9
f 10/1/10 11/2/11 12/1/12
f 11/2/11 13/1/13 12/1/12
f 13/1/13 11/2/11 14/2/14
f 14/2/14 15/1/15 13/1/13
f 15/1/15 14/2/14 16/2/16
f 15/1/15 4/2/4 3/1/3
f 4/2/4 15/1/15 16/2/16
f 17/3/17 3/1/3 1/1/1
f 3/1/3 17/3/17 18/3/18
f 1/1/1 19/3/19 17/3/17
f 19/3/19 1/1/1 5/1/5
f 13/1/13 21/3/21 20/3/20
f 21/3/21 13/1/13 15/1/15
f 5/1/5 22/3/22 19/3/19
f 22/3/22 5/1/5 7/1/7
f 21/3/21 3/1/3 18/3/18
f 3/1/3 21/3/21 15/1/15
f 10/1/10 24/3/24 23/3/23
f 24/3/24 10/1/10 12/1/12
f 10/1/10 22/3/22 7/1/7
f 22/3/22 10/1/10 23/3/23
f 12/1/12 20/3/20 24/3/24
f 20/3/20 12/1/12 13/1/13
f 21/3/26 25/4/25 20/3/25
f 25/4/25 21/3/26 26/4/26
f 27/4/27 19/3/28 22/3/27
f 19/3/28 27/4/27 28/4/28
f 21/3/26 29/4/29 26/4/26
f 29/4/29 21/3/26 18/3/29
f 29/4/29 17/3/30 30/4/30
f 17/3/30 29/4/29 18/3/29
f 31/4/31 22/3/27 23/3/31
f 22/3/27 31/4/31 27/4/27
f 24/3/32 31/4/31 23/3/31
f 31/4/31 24/3/32 32/4/32
f 20/3/25 32/4/32 24/3/32
f 32/4/32 20/3/25 25/4/25
f 28/4/28 17/3/30 19/3/28
f 17/3/30 28/4/28 30/4/30
f 14/2/33 34/2/33 33/2/33
f 14/2/33 33/2/33 35/2/33
f 11/2/33 34/2/33 14/2/33
f 14/2/33 35/2/33 16/2/33
f 11/2/33 36/2/33 34/2/33
f 36/2/33 11/2/33 9/2/33
f 8/2/33 36/2/33 9/2/33
f 36/2/33 8/2/33 37/2/33
f 37/2/33 8/2/33 6/2/33
f 37/2/33 6/2/33 38/2/33
f 16/2/33 35/2/33 39/2/33
f 16/2/33 39/2/33 4/2/33
f 38/2/33 6/2/33 2/2/33
f 39/2/33 2/2/33 4/2/33
f 38/2/33 2/2/33 40/2/33
f 40/2/33 2/2/33 39/2/33
f 35/6/8 42/5/35 41/5/34
f 42/5/35 35/6/8 33/6/6
f 44/5/37 36/6/4 43/5/36
f 36/6/4 44/5/37 34/6/2
f 43/5/36 37/6/16 45/5/38
f 37/6/16 43/5/36 36/6/4
f 41/5/34 29/7/40 46/5/39
f 29/7/40 41/5/34 26/7/41
f 32/7/43 43/5/36 31/7/42
f 43/5/36 32/7/43 44/5/37
f 25/7/44 44/5/37 32/7/43
f 44/5/37 25/7/44 42/5/35
f 41/5/34 25/7/44 26/7/41
f 25/7/44 41/5/34 42/5/35
f 38/6/14 48/5/46 47/5/45
f 48/5/46 38/6/14 40/6/11
f 46/5/39 30/7/47 48/5/46
f 30/7/47 46/5/39 29/7/40
f 27/7/49 47/5/45 28/7/48
f 47/5/45 27/7/49 45/5/38
f 35/6/8 46/5/39 39/6/9
f 46/5/39 35/6/8 41/5/34
f 47/5/45 30/7/47 28/7/48
f 30/7/47 47/5/45 48/5/46
f 27/7/49 43/5/36 45/5/38
f 43/5/36 27/7/49 31/7/42
f 39/6/9 48/5/46 40/6/11
f 48/5/46 39/6/9 46/5/39
f 33/6/6 44/5/37 42/5/35
f 44/5/37 33/6/6 34/6/2
f 45/5/38 38/6/14 47/5/45
f 38/6/14 45/5/38 37/6/16
f 51/8/16 50/9/4 49/8/4
f 50/9/4 51/8/16 52/9/16
f 54/9/14 51/8/16 53/8/14
f 51/8/16 54/9/14 52/9/16
f 56/9/11 53/8/14 55/8/11
f 53/8/14 56/9/11 54/9/14
f 56/9/11 58/8/9 57/9/9
f 58/8/9 56/9/11 55/8/11
f 57/9/9 60/8/8 59/9/8
f 60/8/8 57/9/9 58/8/9
f 62/9/6 60/8/8 61/8/6
f 60/8/8 62/9/6 59/9/8
f 64/9/2 61/8/6 63/8/2
f 61/8/6 64/9/2 62/9/6
f 49/8/4 64/9/2 63/8/2
f 64/9/2 49/8/4 50/9/4
f 65/8/50 51/8/50 49/8/50
f 63/8/50 65/8/50 49/8/50
f 66/8/50 51/8/50 65/8/50
f 63/8/50 67/8/50 65/8/50
f 68/8/50 51/8/50 66/8/50
f 63/8/50 69/8/50 67/8/50
f 68/8/50 53/8/50 51/8/50
f 61/8/50 69/8/50 63/8/50
f 70/8/50 53/8/50 68/8/50
f 61/8/50 71/8/50 69/8/50
f 70/8/50 55/8/50 53/8/50
f 60/8/50 71/8/50 61/8/50
f 72/8/50 55/8/50 70/8/50
f 60/8/50 72/8/50 71/8/50
f 55/8/50 72/8/50 58/8/50
f 72/8/50 60/8/50 58/8/50
f 73/9/33 64/9/33 50/9/33
f 52/9/33 73/9/33 50/9/33
f 74/9/33 64/9/33 73/9/33
f 52/9/33 75/9/33 73/9/33
f 76/9/33 64/9/33 74/9/33
f 52/9/33 77/9/33 75/9/33
f 76/9/33 62/9/33 64/9/33
f 54/9/33 77/9/33 52/9/33
f 78/9/33 62/9/33 76/9/33
f 54/9/33 79/9/33 77/9/33
f 78/9/33 59/9/33 62/9/33
f 56/9/33 79/9/33 54/9/33
f 80/9/33 59/9/33 78/9/33
f 56/9/33 80/9/33 79/9/33
f 59/9/33 80/9/33 57/9/33
f 80/9/33 56/9/33 57/9/33
g hopper-round
usemtl colormap
f 3/1/3 2/2/2 1/1/1
f 2/2/2 3/1/3 4/2/4
f 2/2/2 5/1/5 1/1/1
f 5/1/5 2/2/2 6/2/6
f 6/2/6 7/1/7 5/1/5
f 7/1/7 6/2/6 8/2/8
f 9/2/9 7/1/7 8/2/8
f 7/1/7 9/2/9 10/1/10
f 11/2/11 10/1/10 9/2/9
f 10/1/10 11/2/11 12/1/12
f 11/2/11 13/1/13 12/1/12
f 13/1/13 11/2/11 14/2/14
f 14/2/14 15/1/15 13/1/13
f 15/1/15 14/2/14 16/2/16
f 15/1/15 4/2/4 3/1/3
f 4/2/4 15/1/15 16/2/16
f 17/3/17 3/1/3 1/1/1
f 3/1/3 17/3/17 18/3/18
f 1/1/1 19/3/19 17/3/17
f 19/3/19 1/1/1 5/1/5
f 13/1/13 21/3/21 20/3/20
f 21/3/21 13/1/13 15/1/15
f 5/1/5 22/3/22 19/3/19
f 22/3/22 5/1/5 7/1/7
f 21/3/21 3/1/3 18/3/18
f 3/1/3 21/3/21 15/1/15
f 10/1/10 24/3/24 23/3/23
f 24/3/24 10/1/10 12/1/12
f 10/1/10 22/3/22 7/1/7
f 22/3/22 10/1/10 23/3/23
f 12/1/12 20/3/20 24/3/24
f 20/3/20 12/1/12 13/1/13
f 21/3/26 25/4/25 20/3/25
f 25/4/25 21/3/26 26/4/26
f 27/4/27 19/3/28 22/3/27
f 19/3/28 27/4/27 28/4/28
f 21/3/26 29/4/29 26/4/26
f 29/4/29 21/3/26 18/3/29
f 29/4/29 17/3/30 30/4/30
f 17/3/30 29/4/29 18/3/29
f 31/4/31 22/3/27 23/3/31
f 22/3/27 31/4/31 27/4/27
f 24/3/32 31/4/31 23/3/31
f 31/4/31 24/3/32 32/4/32
f 20/3/25 32/4/32 24/3/32
f 32/4/32 20/3/25 25/4/25
f 28/4/28 17/3/30 19/3/28
f 17/3/30 28/4/28 30/4/30
f 14/2/33 34/2/33 33/2/33
f 14/2/33 33/2/33 35/2/33
f 11/2/33 34/2/33 14/2/33
f 14/2/33 35/2/33 16/2/33
f 11/2/33 36/2/33 34/2/33
f 36/2/33 11/2/33 9/2/33
f 8/2/33 36/2/33 9/2/33
f 36/2/33 8/2/33 37/2/33
f 37/2/33 8/2/33 6/2/33
f 37/2/33 6/2/33 38/2/33
f 16/2/33 35/2/33 39/2/33
f 16/2/33 39/2/33 4/2/33
f 38/2/33 6/2/33 2/2/33
f 39/2/33 2/2/33 4/2/33
f 38/2/33 2/2/33 40/2/33
f 40/2/33 2/2/33 39/2/33
f 35/6/8 42/5/35 41/5/34
f 42/5/35 35/6/8 33/6/6
f 44/5/37 36/6/4 43/5/36
f 36/6/4 44/5/37 34/6/2
f 43/5/36 37/6/16 45/5/38
f 37/6/16 43/5/36 36/6/4
f 41/5/34 29/7/40 46/5/39
f 29/7/40 41/5/34 26/7/41
f 32/7/43 43/5/36 31/7/42
f 43/5/36 32/7/43 44/5/37
f 25/7/44 44/5/37 32/7/43
f 44/5/37 25/7/44 42/5/35
f 41/5/34 25/7/44 26/7/41
f 25/7/44 41/5/34 42/5/35
f 38/6/14 48/5/46 47/5/45
f 48/5/46 38/6/14 40/6/11
f 46/5/39 30/7/47 48/5/46
f 30/7/47 46/5/39 29/7/40
f 27/7/49 47/5/45 28/7/48
f 47/5/45 27/7/49 45/5/38
f 35/6/8 46/5/39 39/6/9
f 46/5/39 35/6/8 41/5/34
f 47/5/45 30/7/47 28/7/48
f 30/7/47 47/5/45 48/5/46
f 27/7/49 43/5/36 45/5/38
f 43/5/36 27/7/49 31/7/42
f 39/6/9 48/5/46 40/6/11
f 48/5/46 39/6/9 46/5/39
f 33/6/6 44/5/37 42/5/35
f 44/5/37 33/6/6 34/6/2
f 45/5/38 38/6/14 47/5/45
f 38/6/14 45/5/38 37/6/16
f 51/8/16 50/9/4 49/8/4
f 50/9/4 51/8/16 52/9/16
f 54/9/14 51/8/16 53/8/14
f 51/8/16 54/9/14 52/9/16
f 56/9/11 53/8/14 55/8/11
f 53/8/14 56/9/11 54/9/14
f 56/9/11 58/8/9 57/9/9
f 58/8/9 56/9/11 55/8/11
f 57/9/9 60/8/8 59/9/8
f 60/8/8 57/9/9 58/8/9
f 62/9/6 60/8/8 61/8/6
f 60/8/8 62/9/6 59/9/8
f 64/9/2 61/8/6 63/8/2
f 61/8/6 64/9/2 62/9/6
f 49/8/4 64/9/2 63/8/2
f 64/9/2 49/8/4 50/9/4
f 65/8/50 51/8/50 49/8/50
f 63/8/50 65/8/50 49/8/50
f 66/8/50 51/8/50 65/8/50
f 63/8/50 67/8/50 65/8/50
f 68/8/50 51/8/50 66/8/50
f 63/8/50 69/8/50 67/8/50
f 68/8/50 53/8/50 51/8/50
f 61/8/50 69/8/50 63/8/50
f 70/8/50 53/8/50 68/8/50
f 61/8/50 71/8/50 69/8/50
f 70/8/50 55/8/50 53/8/50
f 60/8/50 71/8/50 61/8/50
f 72/8/50 55/8/50 70/8/50
f 60/8/50 72/8/50 71/8/50
f 55/8/50 72/8/50 58/8/50
f 72/8/50 60/8/50 58/8/50
f 73/9/33 64/9/33 50/9/33
f 52/9/33 73/9/33 50/9/33
f 74/9/33 64/9/33 73/9/33
f 52/9/33 75/9/33 73/9/33
f 76/9/33 64/9/33 74/9/33
f 52/9/33 77/9/33 75/9/33
f 76/9/33 62/9/33 64/9/33
f 54/9/33 77/9/33 52/9/33
f 78/9/33 62/9/33 76/9/33
f 54/9/33 79/9/33 77/9/33
f 78/9/33 59/9/33 62/9/33
f 56/9/33 79/9/33 54/9/33
f 80/9/33 59/9/33 78/9/33
f 56/9/33 80/9/33 79/9/33
f 59/9/33 80/9/33 57/9/33
f 80/9/33 56/9/33 57/9/33
