mtllib machine-fortified.mtl
g machine-fortified
v -0.5 3.3937e-13 -0.5
v -0.5 -2.3824e-10 -0.55
v -0.6 1.9329e-10 -0.5
v -0.6 1.933e-10 -0.55
v -0.5 1.0955 -0.55
v -0.5 1.1505 -4.3316e-15
v -0.6 1.0955 -0.55
v -0.6 1.1505 -5.7142e-11
v -0.5 1 -0.5
v -0.6 1 -0.5
v -0.5 1.05 -1.4433e-15
v -0.6 1.05 -5.7142e-11
v -0.5 1 0.5
v -0.6 1 0.5
v -0.5 1.7005e-13 0.5
v -0.6 1.9312e-10 0.5
v -0.5 3.4488e-10 0.55
v -0.6 1.9312e-10 0.55
v -0.5 1.0955 0.55
v -0.6 1.0955 0.55
v -0.5 1.0402 0.6
v -0.6 1.0402 0.6
v -0.5 1.0402 -0.6
v -0.6 1.0402 -0.6
v 0.5 -1.721e-10 0.5
v 0.5 -4.1067e-10 0.55
v 0.6 2.0855e-11 0.5
v 0.6 2.0864e-11 0.55
v 0.5 1.0955 0.55
v 0.5 1.1505 4.7427e-10
v 0.6 1.0955 0.55
v 0.6 1.1505 -9.587e-10
v 0.5 1 0.5
v 0.6 1 0.5
v 0.5 1.05 4.7427e-10
v 0.6 1.05 -9.587e-10
v 0.5 1 -0.5
v 0.6 1 -0.5
v 0.5 -1.7227e-10 -0.5
v 0.6 2.0686e-11 -0.5
v 0.5 1.7244e-10 -0.55
v 0.6 2.0677e-11 -0.55
v 0.5 1.0955 -0.55
v 0.6 1.0955 -0.55
v 0.5 1.0402 -0.6
v 0.6 1.0402 -0.6
v 0.5 1.0402 0.6
v 0.6 1.0402 0.6
v 0.5 0.25 -0.5
v -0.5 0.25 -0.5
v 0.5 1.05 0
v -0.5 1.05 0
v 0.53536 0.76036 -0.5
v 0.55 0.725 -0.5
v 0.53536 0.76036 0.5
v 0.55 0.725 0.5
v 0.5 0.775 0.5
v 0.5 0.775 -0.5
v 0.46464 0.76036 0.5
v 0.46464 0.76036 -0.5
v 0.45 0.725 -0.5
v 0.45 0.725 0.5
v 0.46464 0.68964 -0.5
v 0.46464 0.68964 0.5
v 0.5 0.675 0.5
v 0.5 0.675 -0.5
v 0.53536 0.68964 0.5
v 0.53536 0.68964 -0.5
v -0.46464 0.76036 -0.5
v -0.45 0.725 -0.5
v -0.46464 0.76036 0.5
v -0.45 0.725 0.5
v -0.5 0.775 0.5
v -0.5 0.775 -0.5
v -0.53536 0.76036 0.5
v -0.53536 0.76036 -0.5
v -0.55 0.725 -0.5
v -0.55 0.725 0.5
v -0.53536 0.68964 -0.5
v -0.53536 0.68964 0.5
v -0.5 0.675 0.5
v -0.5 0.675 -0.5
v -0.46464 0.68964 0.5
v -0.46464 0.68964 -0.5
v -0.5 1.0176 -0.5
v -0.5 1.05 -1.4438e-15
v -0.5 1.0176 0.5
v 0.5 1.0176 -0.5
v 0.5 1.05 6.1723e-09
v 0.5 1.0176 0.5
v 0.5 5.8655e-16 -0.5
v -0.5 5.8655e-16 -0.5
v -0.5 1.729e-14 0.5
v 0.5 1.729e-14 0.5
v -0.5 0.25 0.5
v 0.5 0.25 0.5
v -0.3 0.46989 0.7
v -0.3 0.83011 0.7
v -0.3 0.46989 0.5
v -0.3 0.83011 0.5
v 0.3 0.83011 0.7
v 0.3 0.46989 0.7
v 0.3 0.83011 0.5
v 0.3 0.46989 0.5
v -0.28011 0.85 0.5
v -0.28011 0.85 0.7
v 0.28011 0.85 0.5
v 0.28011 0.85 0.7
v -0.28011 0.45 0.7
v -0.28011 0.45 0.5
v 0.28011 0.45 0.7
v 0.28011 0.45 0.5
v 0.5 1.2 -0.5
v 0.5 1.25 0
v -0.5 1.2 -0.5
v -0.5 1.25 0
v -0.5 0.25 -0.7
v -0.5 1 -0.7
v -0.5 1.15 -0.65
v 0.5 1.15 -0.65
v 0.5 0.25 -0.7
v 0.5 1 -0.7
v 0.024023 0.79416 -0.7
v -0.011332 0.85539 -0.7
v 0.024023 0.79416 -0.75
v -0.011332 0.85539 -0.75
v -0.41411 0.7045 -0.7
v -0.41411 0.7045 -0.75
v -0.36235 0.89768 -0.7
v -0.36235 0.89768 -0.75
v -0.088978 0.56562 -0.7
v -0.02774 0.60097 -0.7
v -0.088978 0.56562 -0.75
v -0.02774 0.60097 -0.75
v -0.37876 0.64326 -0.75
v -0.30111 0.93304 -0.75
v -0.30111 0.93304 -0.7
v -0.37876 0.64326 -0.7
v -0.5 1.2 0.5
v 0.5 1.2 0.5
v 0.5 0.25 0.7
v 0.5 1 0.7
v 0.5 1.15 0.65
v -0.5 1.15 0.65
v -0.5 0.25 0.7
v -0.5 1 0.7
v 0.061024 1.2679 0.3687
v 0.061024 1.2181 0.36372
v 0.0092604 1.2871 0.17647
v 0.0092604 1.2374 0.1715
v 0.33439 1.2512 0.033305
v 0.33439 1.3009 0.03828
v 0.044616 1.2434 0.11057
v 0.044616 1.2932 0.11554
v 0.44739 1.2284 0.26071
v 0.44739 1.2782 0.26569
v 0.39563 1.2477 0.068485
v 0.39563 1.2974 0.07346
v 0.12226 1.2146 0.3989
v 0.12226 1.2644 0.40388
v 0.41204 1.2223 0.32164
v 0.41204 1.2721 0.32662
v -0.2 1.25 0
v -0.2 1.3505 0
v -0.2 1.2 0.5
v -0.2 1.2984 0.52104
v -0.2 1.15 0.65
v -0.2 1.2291 0.72906
v -0.2 1 0.7
v -0.2 2.8521e-15 0.7
v -0.2 2.8521e-15 0.8
v -0.2 1.0162 0.8
v 0.2 5.0591e-16 0.8
v 0.2 1.0162 0.8
v 0.2 5.0591e-16 0.7
v 0.2 1.2291 0.72906
v 0.2 1 0.7
v 0.2 1.15 0.65
v 0.2 1.2984 0.52104
v 0.2 1.2 0.5
v 0.2 1.3505 0
v 0.2 1.25 0
v 0.2 1.2 -0.5
v 0.2 1.2984 -0.52104
v 0.2 1.15 -0.65
v 0.2 1.2291 -0.72906
v 0.2 1 -0.7
v 0.2 5.9614e-16 -0.7
v 0.2 5.9614e-16 -0.8
v 0.2 1.0162 -0.8
v -0.2 -1.7501e-15 -0.8
v -0.2 1.0162 -0.8
v -0.2 -1.7501e-15 -0.7
v -0.2 1.2291 -0.72906
v -0.2 1 -0.7
v -0.2 1.15 -0.65
v -0.2 1.2984 -0.52104
v -0.2 1.2 -0.5
v 0.5 5.8655e-16 -0.7
v -0.5 5.8655e-16 -0.7
v 0.5 0.2 -0.75
v -0.5 0.2 -0.75
v -0.5 1.729e-14 0.7
v 0.5 1.729e-14 0.7
v -0.5 0.2 0.75
v 0.5 0.2 0.75
vn 0 -1 0
vn 0 0.89272 -0.45061
vn 0 1 0
vn 0 0 1
vn 0 -0.99504 0.099504
vn 0 -0.99504 -0.099504
vn 0 0 -1
vn 0 0.89272 0.45061
vn 0 0.33704 0.94149
vn 0 0.33704 -0.94149
vn 0 -0.04801 -0.99885
vn -1 0 0
vn 0 -0.04801 0.99885
vn 6.7146e-09 0.89272 0.45061
vn -1.4901e-08 0 -1
vn -1.4827e-09 -0.99504 -0.099504
vn 1.4827e-09 -0.99504 0.099504
vn 1.4901e-08 0 1
vn -6.7146e-09 0.89272 -0.45061
vn -1.4029e-08 0.33704 -0.94149
vn 1.4029e-08 0.33704 0.94149
vn 1.4884e-08 -0.04801 0.99885
vn 1 0 -1.4901e-08
vn -1.4884e-08 -0.04801 -0.99885
vn 0.70711 0.70711 0
vn 1 0 0
vn -0.70711 0.70711 0
vn -0.70711 -0.70711 0
vn 0.70711 -0.70711 0
vn -6.7113e-14 0 -1
vn 8.7355e-15 -0.99504 -0.099504
vn 0.92388 0.38268 8.1108e-14
vn 0.92388 -0.38268 8.1108e-14
vn -0.92388 -0.38268 -8.1108e-14
vn -0.92388 0.38268 -8.1108e-14
vn 0.38268 -0.92388 3.3596e-14
vn -0.38268 -0.92388 -3.3596e-14
vn 0.38268 0.92388 3.3596e-14
vn -0.38268 0.92388 -3.3596e-14
vn 8.7791e-14 0 -1
vn 0 0.97788 -0.20915
vn 0 0.99504 -0.099504
vn 0 0.31623 -0.94868
vn 0 0.70711 -0.70711
vn 0.99144 0.13053 -3.1853e-08
vn 0.60876 0.79335 -1.0443e-07
vn -0.99144 -0.13053 3.1853e-08
vn -0.79335 0.60876 -5.9386e-08
vn 0.13053 -0.99144 1.1584e-07
vn 0.79335 -0.60876 5.9386e-08
vn -1.4901e-08 -1.1921e-07 -1
vn -0.13053 0.99144 -1.1584e-07
vn -0.60876 -0.79335 1.0443e-07
vn -1.8362e-14 0.97788 0.20915
vn -8.7355e-15 0.99504 0.099504
vn 1 0 8.7791e-14
vn -1 0 -8.7791e-14
vn -8.3286e-14 0.31623 0.94868
vn -6.2078e-14 0.70711 0.70711
vn -8.7791e-14 0 1
vn -0.79335 -0.060574 0.60574
vn -0.99144 0.012988 -0.12988
vn 0.13053 0.098652 -0.98652
vn -0.60876 0.078942 -0.78942
vn 0.99144 -0.012988 0.12988
vn 0.79335 0.060574 -0.60574
vn -0.13053 -0.098652 0.98652
vn 0.60876 -0.078942 0.78942
vn -2.794e-09 0.99504 0.099504
vn -1 0 -5.973e-14
vn 1 0 5.973e-14
vn -5.973e-14 0 1
vn -5.8959e-14 0.16018 0.98709
vn -4.2235e-14 0.70711 0.70711
vn -1.2493e-14 0.97788 0.20915
vn -5.9434e-15 0.99504 0.099504
vn 0 0.16018 -0.98709
vn 0 0.26693 -0.96371
vn 0 -0.24254 -0.97014
vn 6.4678e-14 0.26693 0.96371
vn 4.7456e-14 0.70711 0.70711
vn 1 0 -6.7113e-14
vn -1 0 6.7113e-14
vn 6.5109e-14 -0.24254 0.97014
vt 0.09375 0.025
vt 0.09375 0.21544
vt 0.09375 0.225
vt 0.09375 0.19884
vt 0.09375 0.20753
vt 0.09375 0.20583
vt 0.09375 0.175
vt 0.09375 0.185
vt 0.09375 0.093284
vt 0.09375 0.065
vt 0.09375 0.105
vt 0.09375 0.036716
vt 0.09375 0.15441
vt 0.09375 0.040225
vt 0.09375 0.075
vt 0.09375 0.068978
vt 0.09375 0.14102
vt 0.09375 0.145
vt 0.59375 0.215
vt 0.59375 0.225
vt 0.59375 0.025
vt 0.59375 0.175
vt 0.59375 0.205
vt 0.59375 0.185
vt 0.59375 0.075
vt 0.59375 0.14102
vt 0.59375 0.068978
vt 0.59375 0.145
vt 0.59375 0.065
vt 0.71875 0.21012
vt 0.71875 0.225
vt 0.71875 0.20271
vt 0.71875 0.21728
vt 0.71875 0.19531
vt 0.71875 0.20702
vt 0.71875 0.17309
vt 0.71875 0.025
vt 0.71875 0.1755
vt 0.84375 0.075
vt 0.84375 0.155
vt 0.84375 0.175
usemtl colormap
f 3/1/1 2/1/1 1/1/1
f 2/1/1 3/1/1 4/1/1
f 7/2/2 6/3/3 5/2/2
f 6/3/3 7/2/2 8/3/3
f 9/4/4 3/1/4 1/1/4
f 3/1/4 9/4/4 10/4/4
f 12/5/5 9/4/5 11/5/5
f 9/4/5 12/5/5 10/4/5
f 13/4/6 12/5/6 11/5/6
f 12/5/6 13/4/6 14/4/6
f 16/1/7 13/4/7 15/1/7
f 13/4/7 16/1/7 14/4/7
f 18/1/1 15/1/1 17/1/1
f 15/1/1 18/1/1 16/1/1
f 8/3/3 19/2/8 6/3/3
f 19/2/8 8/3/3 20/2/8
f 19/2/8 22/6/9 21/6/9
f 22/6/9 19/2/8 20/2/8
f 24/6/10 5/2/2 23/6/10
f 5/2/2 24/6/10 7/2/2
f 4/1/11 23/6/10 2/1/11
f 23/6/10 4/1/11 24/6/10
f 3/1/12 10/4/12 4/1/12
f 7/2/12 4/1/12 10/4/12
f 4/1/12 7/2/12 24/6/12
f 7/2/12 10/4/12 8/3/12
f 8/3/12 10/4/12 12/5/12
f 8/3/12 12/5/12 14/4/12
f 8/3/12 14/4/12 20/2/12
f 20/2/12 14/4/12 18/1/12
f 18/1/12 14/4/12 16/1/12
f 20/2/12 18/1/12 22/6/12
f 17/1/13 22/6/9 18/1/13
f 22/6/9 17/1/13 21/6/9
f 27/1/1 26/1/1 25/1/1
f 26/1/1 27/1/1 28/1/1
f 31/2/14 30/3/3 29/2/14
f 30/3/3 31/2/14 32/3/3
f 33/4/15 27/1/15 25/1/15
f 27/1/15 33/4/15 34/4/15
f 36/5/16 33/4/16 35/5/16
f 33/4/16 36/5/16 34/4/16
f 37/4/17 36/5/17 35/5/17
f 36/5/17 37/4/17 38/4/17
f 40/1/18 37/4/18 39/1/18
f 37/4/18 40/1/18 38/4/18
f 42/1/1 39/1/1 41/1/1
f 39/1/1 42/1/1 40/1/1
f 32/3/3 43/2/19 30/3/3
f 43/2/19 32/3/3 44/2/19
f 43/2/19 46/6/20 45/6/20
f 46/6/20 43/2/19 44/2/19
f 48/6/21 29/2/14 47/6/21
f 29/2/14 48/6/21 31/2/14
f 28/1/22 47/6/21 26/1/22
f 47/6/21 28/1/22 48/6/21
f 27/1/23 34/4/23 28/1/23
f 31/2/23 28/1/23 34/4/23
f 28/1/23 31/2/23 48/6/23
f 31/2/23 34/4/23 32/3/23
f 32/3/23 34/4/23 36/5/23
f 32/3/23 36/5/23 38/4/23
f 32/3/23 38/4/23 44/2/23
f 44/2/23 38/4/23 42/1/23
f 42/1/23 38/4/23 40/1/23
f 44/2/23 42/1/23 46/6/23
f 41/1/24 46/6/20 42/1/24
f 46/6/20 41/1/24 45/6/20
f 37/7/4 50/1/4 49/1/4
f 50/1/4 37/7/4 9/7/4
f 51/8/5 9/7/5 37/7/5
f 9/7/5 51/8/5 52/8/5
f 55/9/25 54/10/26 53/9/25
f 54/10/26 55/9/25 56/10/26
f 53/9/25 57/11/3 55/9/25
f 57/11/3 53/9/25 58/11/3
f 58/11/3 59/9/27 57/11/3
f 59/9/27 58/11/3 60/9/27
f 62/10/12 60/9/27 61/10/12
f 60/9/27 62/10/12 59/9/27
f 64/12/28 61/10/12 63/12/28
f 61/10/12 64/12/28 62/10/12
f 64/12/28 66/1/1 65/1/1
f 66/1/1 64/12/28 63/12/28
f 65/1/1 68/12/29 67/12/29
f 68/12/29 65/1/1 66/1/1
f 56/10/26 68/12/29 54/10/26
f 68/12/29 56/10/26 67/12/29
f 71/9/25 70/10/26 69/9/25
f 70/10/26 71/9/25 72/10/26
f 69/9/25 73/11/3 71/9/25
f 73/11/3 69/9/25 74/11/3
f 74/11/3 75/9/27 73/11/3
f 75/9/27 74/11/3 76/9/27
f 78/10/12 76/9/27 77/10/12
f 76/9/27 78/10/12 75/9/27
f 80/12/28 77/10/12 79/12/28
f 77/10/12 80/12/28 78/10/12
f 80/12/28 82/1/1 81/1/1
f 82/1/1 80/12/28 79/12/28
f 81/1/1 84/12/29 83/12/29
f 84/12/29 81/1/1 82/1/1
f 72/10/26 84/12/29 70/10/26
f 84/12/29 72/10/26 83/12/29
f 73/13/12 85/14/12 74/13/12
f 85/14/12 73/13/12 86/1/12
f 86/1/12 73/13/12 87/14/12
f 74/13/26 85/14/26 73/13/26
f 86/1/26 73/13/26 85/14/26
f 87/14/26 73/13/26 86/1/26
f 89/1/26 58/13/26 88/14/26
f 58/13/26 89/1/26 57/13/26
f 57/13/26 89/1/26 90/14/26
f 88/14/12 58/13/12 89/1/12
f 57/13/12 89/1/12 58/13/12
f 90/14/12 89/1/12 57/13/12
f 49/7/4 92/15/4 91/15/4
f 92/15/4 49/7/4 50/7/4
f 95/7/30 94/15/30 93/15/30
f 94/15/30 95/7/30 96/7/30
f 52/8/31 33/7/31 13/7/31
f 33/7/31 52/8/31 51/8/31
f 99/16/32 98/17/33 97/16/32
f 98/17/33 99/16/32 100/17/33
f 103/17/34 102/16/35 101/17/34
f 102/16/35 103/17/34 104/16/35
f 107/18/37 106/18/36 105/18/36
f 106/18/36 107/18/37 108/18/37
f 110/10/38 97/16/32 109/10/38
f 97/16/32 110/10/38 99/16/32
f 107/18/37 101/17/34 108/18/37
f 101/17/34 107/18/37 103/17/34
f 111/10/39 110/10/38 109/10/38
f 110/10/38 111/10/39 112/10/39
f 102/16/35 112/10/39 111/10/39
f 112/10/39 102/16/35 104/16/35
f 100/17/33 106/18/36 98/17/33
f 106/18/36 100/17/33 105/18/36
f 33/7/40 104/16/40 103/17/40
f 33/7/40 103/17/40 107/18/40
f 96/1/40 104/16/40 33/7/40
f 104/16/40 96/1/40 112/10/40
f 112/10/40 96/1/40 110/10/40
f 95/1/40 110/10/40 96/1/40
f 110/10/40 95/1/40 99/16/40
f 33/7/40 107/18/40 13/7/40
f 99/16/40 95/1/40 13/7/40
f 105/18/40 13/7/40 107/18/40
f 99/16/40 13/7/40 100/17/40
f 100/17/40 13/7/40 105/18/40
f 115/19/41 114/20/42 113/19/41
f 114/20/42 115/19/41 116/20/42
f 50/21/12 118/22/12 117/21/12
f 118/22/12 50/21/12 119/23/12
f 119/23/12 50/21/12 9/22/12
f 9/22/12 115/19/12 119/23/12
f 115/19/12 9/22/12 52/24/12
f 115/19/12 52/24/12 116/20/12
f 37/22/26 114/20/26 51/24/26
f 114/20/26 37/22/26 113/19/26
f 37/22/26 120/23/26 113/19/26
f 49/21/26 120/23/26 37/22/26
f 121/21/26 120/23/26 49/21/26
f 120/23/26 121/21/26 122/22/26
f 119/23/44 122/22/43 118/22/43
f 122/22/43 119/23/44 120/23/44
f 119/23/44 113/19/41 120/23/44
f 113/19/41 119/23/44 115/19/41
f 117/21/7 122/22/7 121/21/7
f 122/22/7 117/21/7 118/22/7
f 125/22/45 124/25/46 123/25/45
f 124/25/46 125/22/45 126/22/46
f 129/25/48 128/22/47 127/25/47
f 128/22/47 129/25/48 130/22/48
f 133/22/49 132/25/50 131/25/49
f 132/25/50 133/22/49 134/22/50
f 134/22/50 123/25/45 132/25/50
f 123/25/45 134/22/50 125/22/45
f 133/22/51 125/22/51 134/22/51
f 125/22/51 133/22/51 126/22/51
f 126/22/51 133/22/51 135/22/51
f 126/22/51 135/22/51 136/22/51
f 136/22/51 135/22/51 128/22/51
f 136/22/51 128/22/51 130/22/51
f 137/25/52 130/22/48 129/25/48
f 130/22/48 137/25/52 136/22/52
f 138/25/53 128/22/47 135/22/53
f 128/22/47 138/25/53 127/25/47
f 124/25/46 136/22/52 137/25/52
f 136/22/52 124/25/46 126/22/46
f 138/25/53 133/22/49 131/25/49
f 133/22/49 138/25/53 135/22/53
f 140/19/54 116/20/55 139/19/54
f 116/20/55 140/19/54 114/20/55
f 96/21/56 142/22/56 141/21/56
f 142/22/56 96/21/56 143/23/56
f 143/23/56 96/21/56 33/22/56
f 33/22/56 140/19/56 143/23/56
f 140/19/56 33/22/56 51/24/56
f 140/19/56 51/24/56 114/20/56
f 13/22/57 116/20/57 52/24/57
f 116/20/57 13/22/57 139/19/57
f 13/22/57 144/23/57 139/19/57
f 95/21/57 144/23/57 13/22/57
f 145/21/57 144/23/57 95/21/57
f 144/23/57 145/21/57 146/22/57
f 143/23/59 146/22/58 142/22/58
f 146/22/58 143/23/59 144/23/59
f 143/23/59 139/19/54 144/23/59
f 139/19/54 143/23/59 140/19/54
f 146/22/60 97/27/60 98/26/60
f 146/22/60 98/26/60 106/28/60
f 145/21/60 97/27/60 146/22/60
f 97/27/60 145/21/60 109/29/60
f 146/22/60 106/28/60 142/22/60
f 109/29/60 145/21/60 141/21/60
f 109/29/60 141/21/60 111/29/60
f 141/21/60 102/27/60 111/29/60
f 102/27/60 141/21/60 142/22/60
f 108/28/60 142/22/60 106/28/60
f 102/27/60 142/22/60 101/26/60
f 101/26/60 142/22/60 108/28/60
f 149/22/62 148/25/61 147/22/61
f 148/25/61 149/22/62 150/25/62
f 153/25/64 152/22/63 151/25/63
f 152/22/63 153/25/64 154/22/64
f 157/25/66 156/22/65 155/25/65
f 156/22/65 157/25/66 158/22/66
f 161/25/68 160/22/67 159/25/67
f 160/22/67 161/25/68 162/22/68
f 151/25/63 158/22/66 157/25/66
f 158/22/66 151/25/63 152/22/63
f 161/25/68 156/22/65 162/22/68
f 156/22/65 161/25/68 155/25/65
f 154/22/64 150/25/62 149/22/62
f 150/25/62 154/22/64 153/25/64
f 160/22/67 148/25/61 159/25/67
f 148/25/61 160/22/67 147/22/61
f 160/22/69 149/22/69 147/22/69
f 149/22/69 160/22/69 154/22/69
f 154/22/69 160/22/69 162/22/69
f 154/22/69 162/22/69 152/22/69
f 152/22/69 162/22/69 156/22/69
f 152/22/69 156/22/69 158/22/69
f 165/32/70 164/31/70 163/30/70
f 165/32/70 166/33/70 164/31/70
f 167/34/70 166/33/70 165/32/70
f 167/34/70 168/35/70 166/33/70
f 168/35/70 167/34/70 169/36/70
f 170/37/70 168/35/70 169/36/70
f 171/37/70 168/35/70 170/37/70
f 168/35/70 171/37/70 172/38/70
f 175/37/71 174/38/71 173/37/71
f 174/38/71 175/37/71 176/35/71
f 176/35/71 175/37/71 177/36/71
f 176/35/71 177/36/71 178/34/71
f 176/35/71 178/34/71 179/33/71
f 179/33/71 178/34/71 180/32/71
f 179/33/71 180/32/71 181/31/71
f 181/31/71 180/32/71 182/30/71
f 174/38/73 171/37/72 173/37/72
f 171/37/72 174/38/73 172/38/73
f 176/35/74 172/38/73 174/38/73
f 172/38/73 176/35/74 168/35/74
f 176/35/74 166/33/75 168/35/74
f 166/33/75 176/35/74 179/33/75
f 179/33/75 164/31/76 166/33/75
f 164/31/76 179/33/75 181/31/76
f 170/37/1 173/37/1 171/37/1
f 173/37/1 170/37/1 175/37/1
f 183/32/26 181/31/26 182/30/26
f 183/32/26 184/33/26 181/31/26
f 185/34/26 184/33/26 183/32/26
f 185/34/26 186/35/26 184/33/26
f 186/35/26 185/34/26 187/36/26
f 188/37/26 186/35/26 187/36/26
f 189/37/26 186/35/26 188/37/26
f 186/35/26 189/37/26 190/38/26
f 193/37/12 192/38/12 191/37/12
f 192/38/12 193/37/12 194/35/12
f 194/35/12 193/37/12 195/36/12
f 194/35/12 195/36/12 196/34/12
f 194/35/12 196/34/12 197/33/12
f 197/33/12 196/34/12 198/32/12
f 197/33/12 198/32/12 164/31/12
f 164/31/12 198/32/12 163/30/12
f 192/38/77 189/37/7 191/37/7
f 189/37/7 192/38/77 190/38/77
f 194/35/44 190/38/77 192/38/77
f 190/38/77 194/35/44 186/35/44
f 194/35/44 184/33/41 186/35/44
f 184/33/41 194/35/44 197/33/41
f 197/33/41 181/31/42 184/33/41
f 181/31/42 197/33/41 164/31/42
f 193/37/1 189/37/1 188/37/1
f 189/37/1 193/37/1 191/37/1
f 92/39/1 199/39/1 91/39/1
f 199/39/1 92/39/1 200/39/1
f 202/40/78 121/41/44 201/40/78
f 121/41/44 202/40/78 117/41/44
f 200/39/12 117/41/12 202/40/12
f 117/41/12 200/39/12 92/39/12
f 117/41/12 92/39/12 50/41/12
f 121/41/26 199/39/26 201/40/26
f 199/39/26 121/41/26 49/41/26
f 199/39/26 49/41/26 91/39/26
f 202/40/78 199/39/79 200/39/79
f 199/39/79 202/40/78 201/40/78
f 94/39/1 203/39/1 93/39/1
f 203/39/1 94/39/1 204/39/1
f 206/40/80 145/41/81 205/40/80
f 145/41/81 206/40/80 141/41/81
f 204/39/82 141/41/82 206/40/82
f 141/41/82 204/39/82 94/39/82
f 141/41/82 94/39/82 96/41/82
f 145/41/83 203/39/83 205/40/83
f 203/39/83 145/41/83 95/41/83
f 203/39/83 95/41/83 93/39/83
f 206/40/80 203/39/84 204/39/84
f 203/39/84 206/40/80 205/40/80
g machine-fortified
usemtl colormap
f 3/1/1 2/1/1 1/1/1
f 2/1/1 3/1/1 4/1/1
f 7/2/2 6/3/3 5/2/2
f 6/3/3 7/2/2 8/3/3
f 9/4/4 3/1/4 1/1/4
f 3/1/4 9/4/4 10/4/4
f 12/5/5 9/4/5 11/5/5
f 9/4/5 12/5/5 10/4/5
f 13/4/6 12/5/6 11/5/6
f 12/5/6 13/4/6 14/4/6
f 16/1/7 13/4/7 15/1/7
f 13/4/7 16/1/7 14/4/7
f 18/1/1 15/1/1 17/1/1
f 15/1/1 18/1/1 16/1/1
f 8/3/3 19/2/8 6/3/3
f 19/2/8 8/3/3 20/2/8
f 19/2/8 22/6/9 21/6/9
f 22/6/9 19/2/8 20/2/8
f 24/6/10 5/2/2 23/6/10
f 5/2/2 24/6/10 7/2/2
f 4/1/11 23/6/10 2/1/11
f 23/6/10 4/1/11 24/6/10
f 3/1/12 10/4/12 4/1/12
f 7/2/12 4/1/12 10/4/12
f 4/1/12 7/2/12 24/6/12
f 7/2/12 10/4/12 8/3/12
f 8/3/12 10/4/12 12/5/12
f 8/3/12 12/5/12 14/4/12
f 8/3/12 14/4/12 20/2/12
f 20/2/12 14/4/12 18/1/12
f 18/1/12 14/4/12 16/1/12
f 20/2/12 18/1/12 22/6/12
f 17/1/13 22/6/9 18/1/13
f 22/6/9 17/1/13 21/6/9
f 27/1/1 26/1/1 25/1/1
f 26/1/1 27/1/1 28/1/1
f 31/2/14 30/3/3 29/2/14
f 30/3/3 31/2/14 32/3/3
f 33/4/15 27/1/15 25/1/15
f 27/1/15 33/4/15 34/4/15
f 36/5/16 33/4/16 35/5/16
f 33/4/16 36/5/16 34/4/16
f 37/4/17 36/5/17 35/5/17
f 36/5/17 37/4/17 38/4/17
f 40/1/18 37/4/18 39/1/18
f 37/4/18 40/1/18 38/4/18
f 42/1/1 39/1/1 41/1/1
f 39/1/1 42/1/1 40/1/1
f 32/3/3 43/2/19 30/3/3
f 43/2/19 32/3/3 44/2/19
f 43/2/19 46/6/20 45/6/20
f 46/6/20 43/2/19 44/2/19
f 48/6/21 29/2/14 47/6/21
f 29/2/14 48/6/21 31/2/14
f 28/1/22 47/6/21 26/1/22
f 47/6/21 28/1/22 48/6/21
f 27/1/23 34/4/23 28/1/23
f 31/2/23 28/1/23 34/4/23
f 28/1/23 31/2/23 48/6/23
f 31/2/23 34/4/23 32/3/23
f 32/3/23 34/4/23 36/5/23
f 32/3/23 36/5/23 38/4/23
f 32/3/23 38/4/23 44/2/23
f 44/2/23 38/4/23 42/1/23
f 42/1/23 38/4/23 40/1/23
f 44/2/23 42/1/23 46/6/23
f 41/1/24 46/6/20 42/1/24
f 46/6/20 41/1/24 45/6/20
f 37/7/4 50/1/4 49/1/4
f 50/1/4 37/7/4 9/7/4
f 51/8/5 9/7/5 37/7/5
f 9/7/5 51/8/5 52/8/5
f 55/9/25 54/10/26 53/9/25
f 54/10/26 55/9/25 56/10/26
f 53/9/25 57/11/3 55/9/25
f 57/11/3 53/9/25 58/11/3
f 58/11/3 59/9/27 57/11/3
f 59/9/27 58/11/3 60/9/27
f 62/10/12 60/9/27 61/10/12
f 60/9/27 62/10/12 59/9/27
f 64/12/28 61/10/12 63/12/28
f 61/10/12 64/12/28 62/10/12
f 64/12/28 66/1/1 65/1/1
f 66/1/1 64/12/28 63/12/28
f 65/1/1 68/12/29 67/12/29
f 68/12/29 65/1/1 66/1/1
f 56/10/26 68/12/29 54/10/26
f 68/12/29 56/10/26 67/12/29
f 71/9/25 70/10/26 69/9/25
f 70/10/26 71/9/25 72/10/26
f 69/9/25 73/11/3 71/9/25
f 73/11/3 69/9/25 74/11/3
f 74/11/3 75/9/27 73/11/3
f 75/9/27 74/11/3 76/9/27
f 78/10/12 76/9/27 77/10/12
f 76/9/27 78/10/12 75/9/27
f 80/12/28 77/10/12 79/12/28
f 77/10/12 80/12/28 78/10/12
f 80/12/28 82/1/1 81/1/1
f 82/1/1 80/12/28 79/12/28
f 81/1/1 84/12/29 83/12/29
f 84/12/29 81/1/1 82/1/1
f 72/10/26 84/12/29 70/10/26
f 84/12/29 72/10/26 83/12/29
f 73/13/12 85/14/12 74/13/12
f 85/14/12 73/13/12 86/1/12
f 86/1/12 73/13/12 87/14/12
f 74/13/26 85/14/26 73/13/26
f 86/1/26 73/13/26 85/14/26
f 87/14/26 73/13/26 86/1/26
f 89/1/26 58/13/26 88/14/26
f 58/13/26 89/1/26 57/13/26
f 57/13/26 89/1/26 90/14/26
f 88/14/12 58/13/12 89/1/12
f 57/13/12 89/1/12 58/13/12
f 90/14/12 89/1/12 57/13/12
f 49/7/4 92/15/4 91/15/4
f 92/15/4 49/7/4 50/7/4
f 95/7/30 94/15/30 93/15/30
f 94/15/30 95/7/30 96/7/30
f 52/8/31 33/7/31 13/7/31
f 33/7/31 52/8/31 51/8/31
f 99/16/32 98/17/33 97/16/32
f 98/17/33 99/16/32 100/17/33
f 103/17/34 102/16/35 101/17/34
f 102/16/35 103/17/34 104/16/35
f 107/18/37 106/18/36 105/18/36
f 106/18/36 107/18/37 108/18/37
f 110/10/38 97/16/32 109/10/38
f 97/16/32 110/10/38 99/16/32
f 107/18/37 101/17/34 108/18/37
f 101/17/34 107/18/37 103/17/34
f 111/10/39 110/10/38 109/10/38
f 110/10/38 111/10/39 112/10/39
f 102/16/35 112/10/39 111/10/39
f 112/10/39 102/16/35 104/16/35
f 100/17/33 106/18/36 98/17/33
f 106/18/36 100/17/33 105/18/36
f 33/7/40 104/16/40 103/17/40
f 33/7/40 103/17/40 107/18/40
f 96/1/40 104/16/40 33/7/40
f 104/16/40 96/1/40 112/10/40
f 112/10/40 96/1/40 110/10/40
f 95/1/40 110/10/40 96/1/40
f 110/10/40 95/1/40 99/16/40
f 33/7/40 107/18/40 13/7/40
f 99/16/40 95/1/40 13/7/40
f 105/18/40 13/7/40 107/18/40
f 99/16/40 13/7/40 100/17/40
f 100/17/40 13/7/40 105/18/40
f 115/19/41 114/20/42 113/19/41
f 114/20/42 115/19/41 116/20/42
f 50/21/12 118/22/12 117/21/12
f 118/22/12 50/21/12 119/23/12
f 119/23/12 50/21/12 9/22/12
f 9/22/12 115/19/12 119/23/12
f 115/19/12 9/22/12 52/24/12
f 115/19/12 52/24/12 116/20/12
f 37/22/26 114/20/26 51/24/26
f 114/20/26 37/22/26 113/19/26
f 37/22/26 120/23/26 113/19/26
f 49/21/26 120/23/26 37/22/26
f 121/21/26 120/23/26 49/21/26
f 120/23/26 121/21/26 122/22/26
f 119/23/44 122/22/43 118/22/43
f 122/22/43 119/23/44 120/23/44
f 119/23/44 113/19/41 120/23/44
f 113/19/41 119/23/44 115/19/41
f 117/21/7 122/22/7 121/21/7
f 122/22/7 117/21/7 118/22/7
f 125/22/45 124/25/46 123/25/45
f 124/25/46 125/22/45 126/22/46
f 129/25/48 128/22/47 127/25/47
f 128/22/47 129/25/48 130/22/48
f 133/22/49 132/25/50 131/25/49
f 132/25/50 133/22/49 134/22/50
f 134/22/50 123/25/45 132/25/50
f 123/25/45 134/22/50 125/22/45
f 133/22/51 125/22/51 134/22/51
f 125/22/51 133/22/51 126/22/51
f 126/22/51 133/22/51 135/22/51
f 126/22/51 135/22/51 136/22/51
f 136/22/51 135/22/51 128/22/51
f 136/22/51 128/22/51 130/22/51
f 137/25/52 130/22/48 129/25/48
f 130/22/48 137/25/52 136/22/52
f 138/25/53 128/22/47 135/22/53
f 128/22/47 138/25/53 127/25/47
f 124/25/46 136/22/52 137/25/52
f 136/22/52 124/25/46 126/22/46
f 138/25/53 133/22/49 131/25/49
f 133/22/49 138/25/53 135/22/53
f 140/19/54 116/20/55 139/19/54
f 116/20/55 140/19/54 114/20/55
f 96/21/56 142/22/56 141/21/56
f 142/22/56 96/21/56 143/23/56
f 143/23/56 96/21/56 33/22/56
f 33/22/56 140/19/56 143/23/56
f 140/19/56 33/22/56 51/24/56
f 140/19/56 51/24/56 114/20/56
f 13/22/57 116/20/57 52/24/57
f 116/20/57 13/22/57 139/19/57
f 13/22/57 144/23/57 139/19/57
f 95/21/57 144/23/57 13/22/57
f 145/21/57 144/23/57 95/21/57
f 144/23/57 145/21/57 146/22/57
f 143/23/59 146/22/58 142/22/58
f 146/22/58 143/23/59 144/23/59
f 143/23/59 139/19/54 144/23/59
f 139/19/54 143/23/59 140/19/54
f 146/22/60 97/27/60 98/26/60
f 146/22/60 98/26/60 106/28/60
f 145/21/60 97/27/60 146/22/60
f 97/27/60 145/21/60 109/29/60
f 146/22/60 106/28/60 142/22/60
f 109/29/60 145/21/60 141/21/60
f 109/29/60 141/21/60 111/29/60
f 141/21/60 102/27/60 111/29/60
f 102/27/60 141/21/60 142/22/60
f 108/28/60 142/22/60 106/28/60
f 102/27/60 142/22/60 101/26/60
f 101/26/60 142/22/60 108/28/60
f 149/22/62 148/25/61 147/22/61
f 148/25/61 149/22/62 150/25/62
f 153/25/64 152/22/63 151/25/63
f 152/22/63 153/25/64 154/22/64
f 157/25/66 156/22/65 155/25/65
f 156/22/65 157/25/66 158/22/66
f 161/25/68 160/22/67 159/25/67
f 160/22/67 161/25/68 162/22/68
f 151/25/63 158/22/66 157/25/66
f 158/22/66 151/25/63 152/22/63
f 161/25/68 156/22/65 162/22/68
f 156/22/65 161/25/68 155/25/65
f 154/22/64 150/25/62 149/22/62
f 150/25/62 154/22/64 153/25/64
f 160/22/67 148/25/61 159/25/67
f 148/25/61 160/22/67 147/22/61
f 160/22/69 149/22/69 147/22/69
f 149/22/69 160/22/69 154/22/69
f 154/22/69 160/22/69 162/22/69
f 154/22/69 162/22/69 152/22/69
f 152/22/69 162/22/69 156/22/69
f 152/22/69 156/22/69 158/22/69
f 165/32/70 164/31/70 163/30/70
f 165/32/70 166/33/70 164/31/70
f 167/34/70 166/33/70 165/32/70
f 167/34/70 168/35/70 166/33/70
f 168/35/70 167/34/70 169/36/70
f 170/37/70 168/35/70 169/36/70
f 171/37/70 168/35/70 170/37/70
f 168/35/70 171/37/70 172/38/70
f 175/37/71 174/38/71 173/37/71
f 174/38/71 175/37/71 176/35/71
f 176/35/71 175/37/71 177/36/71
f 176/35/71 177/36/71 178/34/71
f 176/35/71 178/34/71 179/33/71
f 179/33/71 178/34/71 180/32/71
f 179/33/71 180/32/71 181/31/71
f 181/31/71 180/32/71 182/30/71
f 174/38/73 171/37/72 173/37/72
f 171/37/72 174/38/73 172/38/73
f 176/35/74 172/38/73 174/38/73
f 172/38/73 176/35/74 168/35/74
f 176/35/74 166/33/75 168/35/74
f 166/33/75 176/35/74 179/33/75
f 179/33/75 164/31/76 166/33/75
f 164/31/76 179/33/75 181/31/76
f 170/37/1 173/37/1 171/37/1
f 173/37/1 170/37/1 175/37/1
f 183/32/26 181/31/26 182/30/26
f 183/32/26 184/33/26 181/31/26
f 185/34/26 184/33/26 183/32/26
f 185/34/26 186/35/26 184/33/26
f 186/35/26 185/34/26 187/36/26
f 188/37/26 186/35/26 187/36/26
f 189/37/26 186/35/26 188/37/26
f 186/35/26 189/37/26 190/38/26
f 193/37/12 192/38/12 191/37/12
f 192/38/12 193/37/12 194/35/12
f 194/35/12 193/37/12 195/36/12
f 194/35/12 195/36/12 196/34/12
f 194/35/12 196/34/12 197/33/12
f 197/33/12 196/34/12 198/32/12
f 197/33/12 198/32/12 164/31/12
f 164/31/12 198/32/12 163/30/12
f 192/38/77 189/37/7 191/37/7
f 189/37/7 192/38/77 190/38/77
f 194/35/44 190/38/77 192/38/77
f 190/38/77 194/35/44 186/35/44
f 194/35/44 184/33/41 186/35/44
f 184/33/41 194/35/44 197/33/41
f 197/33/41 181/31/42 184/33/41
f 181/31/42 197/33/41 164/31/42
f 193/37/1 189/37/1 188/37/1
f 189/37/1 193/37/1 191/37/1
f 92/39/1 199/39/1 91/39/1
f 199/39/1 92/39/1 200/39/1
f 202/40/78 121/41/44 201/40/78
f 121/41/44 202/40/78 117/41/44
f 200/39/12 117/41/12 202/40/12
f 117/41/12 200/39/12 92/39/12
f 117/41/12 92/39/12 50/41/12
f 121/41/26 199/39/26 201/40/26
f 199/39/26 121/41/26 49/41/26
f 199/39/26 49/41/26 91/39/26
f 202/40/78 199/39/79 200/39/79
f 199/39/79 202/40/78 201/40/78
f 94/39/1 203/39/1 93/39/1
f 203/39/1 94/39/1 204/39/1
f 206/40/80 145/41/81 205/40/80
f 145/41/81 206/40/80 141/41/81
f 204/39/82 141/41/82 206/40/82
f 141/41/82 204/39/82 94/39/82
f 141/41/82 94/39/82 96/41/82
f 145/41/83 203/39/83 205/40/83
f 203/39/83 145/41/83 95/41/83
f 203/39/83 95/41/83 93/39/83
f 206/40/80 203/39/84 204/39/84
f 203/39/84 206/40/80 205/40/80
