mtllib fence-broken.mtl
g fence-broken
v 0.44375 0.23 0.35455
v 0.48125 0.23 0.35455
v 0.44375 0.305 0.33455
v 0.48125 0.305 0.33455
v 0.5 0 -0.425
v 0.5 0 -0.5
v 0.425 0 -0.425
v 0.425 0 -0.5
v 0.48125 0.305 -0.425
v 0.48125 0.305 -0.25125
v 0.44375 0.305 -0.425
v 0.44375 0.305 -0.25125
v 0.425 0 0.425
v 0.425 0.38 0.425
v 0.425 0 0.5
v 0.425 0.38 0.5
v 0.48125 0.23 -0.23125
v 0.44375 0.23 -0.23125
v 0.48125 0.057509 -0.18468
v 0.48125 0.25473 0.28738
v 0.44375 0.057509 -0.18468
v 0.44375 0.25473 0.28738
v 0.48125 0.305 0.425
v 0.44375 0.305 0.425
v 0.425 0.38 -0.5
v 0.425 0.38 -0.425
v 0.48125 0.075 0.425
v 0.48125 0.075 0.24949
v 0.44375 0.075 0.425
v 0.44375 0.075 0.24949
v 0.48125 0.23 -0.425
v 0.44375 0.23 -0.425
v 0.44375 0.15 0.425
v 0.44375 0.15 0.23125
v 0.44375 0.17776 0.2977
v 0.44375 0 -0.12778
v 0.44375 -1.8048e-16 -0.19463
v 0.48125 0.15 0.425
v 0.48125 0.15 0.23125
v 0.48125 0.17776 0.2977
v 0.48125 0 -0.12778
v 0.48125 -1.8048e-16 -0.19463
v 0.48125 0.15 -0.425
v 0.48125 0.15 -0.35656
v 0.44375 0.15 -0.425
v 0.44375 0.15 -0.35656
v 0.5 6.0592e-15 0.14702
v 0.30278 1.3679e-15 -0.32505
v 0.42303 7.1159e-15 0.15733
v 0.24527 4.4883e-30 -0.26814
v 0.24527 0 -0.335
v 0.5 0.0375 0.14702
v 0.42303 0.0375 0.15733
v 0.30278 0.0375 -0.32505
v 0.48125 0.075 -0.37656
v 0.48125 0.075 -0.425
v 0.44375 0.075 -0.37656
v 0.44375 0.075 -0.425
v 0.5 0.38 0.425
v 0.5 0.38 0.5
v 0.24527 0.0375 -0.26814
v 0.24527 0.0375 -0.335
v 0.5 0.38 -0.5
v 0.5 0.38 -0.425
v 0.48125 0.23 0.425
v 0.44375 0.23 0.425
v 0.5 0 0.5
v 0.5 0 0.425
vn 0 -0.25766 -0.96623
vn 0 -1 0
vn 0 1 0
vn -1 0 0
vn 0 0.25766 0.96623
vn 0 0.92271 -0.3855
vn 1 0 0
vn 0.13283 0 0.99114
vn 0.92271 0 -0.3855
vn -0.92271 0 0.3855
vn 0 -0.92272 0.38546
vn 0 -0.92271 0.3855
vn 0 0 1
vn 0 -0.25766 0.96623
vn 0 0.13283 0.99114
vn 0.17055 0 -0.98535
vn 0 0 -1
vn 0 -0.23631 -0.97168
vn 0 0.17055 -0.98535
vt 0.59375 0.14605
vt 0.59375 0.18553
vt 0.59375 0.025
vt 0.59375 0.225
vt 0.59375 0.055268
vt 0.59375 0.15907
vt 0.59375 0.064474
vt 0.59375 0.10395
vt 0.59375 0.11856
vt 0.59375 0.044737
vt 0.34375 0.275
usemtl colormap
f 3/2/1 2/1/1 1/1/1
f 2/1/1 3/2/1 4/2/1
f 7/3/2 6/3/2 5/3/2
f 6/3/2 7/3/2 8/3/2
f 11/2/3 10/2/3 9/2/3
f 10/2/3 11/2/3 12/2/3
f 15/3/4 14/4/4 13/3/4
f 14/4/4 15/3/4 16/4/4
f 10/2/5 18/1/5 17/1/5
f 18/1/5 10/2/5 12/2/5
f 21/5/6 20/6/6 19/5/6
f 20/6/6 21/5/6 22/6/6
f 3/2/3 23/2/3 4/2/3
f 23/2/3 3/2/3 24/2/3
f 7/3/4 25/4/4 8/3/4
f 25/4/4 7/3/4 26/4/4
f 29/7/2 28/7/2 27/7/2
f 28/7/2 29/7/2 30/7/2
f 18/1/2 31/1/2 17/1/2
f 31/1/2 18/1/2 32/1/2
f 33/8/4 30/7/4 29/7/4
f 30/7/4 33/8/4 34/8/4
f 22/6/4 34/8/4 35/9/4
f 22/6/4 36/3/4 34/8/4
f 21/5/4 36/3/4 22/6/4
f 36/3/4 21/5/4 37/3/4
f 28/7/7 38/8/7 27/7/7
f 38/8/7 28/7/7 39/8/7
f 39/8/7 20/6/7 40/9/7
f 41/3/7 20/6/7 39/8/7
f 41/3/7 19/5/7 20/6/7
f 19/5/7 41/3/7 42/3/7
f 45/8/3 44/8/3 43/8/3
f 44/8/3 45/8/3 46/8/3
f 49/3/2 48/3/2 47/3/2
f 48/3/2 49/3/2 50/3/2
f 48/3/2 50/3/2 51/3/2
f 52/10/8 49/3/8 47/3/8
f 49/3/8 52/10/8 53/10/8
f 52/10/9 48/3/9 54/10/9
f 48/3/9 52/10/9 47/3/9
f 57/7/2 56/7/2 55/7/2
f 56/7/2 57/7/2 58/7/2
f 14/4/3 60/4/3 59/4/3
f 60/4/3 14/4/3 16/4/3
f 49/3/10 61/10/10 50/3/10
f 61/10/10 49/3/10 53/10/10
f 10/2/7 31/1/7 9/2/7
f 31/1/7 10/2/7 17/1/7
f 34/8/11 40/9/11 35/9/11
f 40/9/11 34/8/11 39/8/11
f 34/8/11 41/3/12 39/8/11
f 41/3/12 34/8/11 36/3/12
f 50/3/4 62/10/4 51/3/4
f 62/10/4 50/3/4 61/10/4
f 25/4/3 64/4/3 63/4/3
f 64/4/3 25/4/3 26/4/3
f 32/1/4 12/2/4 11/2/4
f 12/2/4 32/1/4 18/1/4
f 66/1/2 2/1/2 65/1/2
f 2/1/2 66/1/2 1/1/2
f 60/4/13 15/3/13 67/3/13
f 15/3/13 60/4/13 16/4/13
f 23/2/7 2/1/7 4/2/7
f 2/1/7 23/2/7 65/1/7
f 1/1/4 24/2/4 3/2/4
f 24/2/4 1/1/4 66/1/4
f 44/8/14 57/7/14 55/7/14
f 57/7/14 44/8/14 46/8/14
f 54/10/3 53/10/3 52/10/3
f 53/10/3 54/10/3 61/10/3
f 61/10/3 54/10/3 62/10/3
f 44/8/7 56/7/7 43/8/7
f 56/7/7 44/8/7 55/7/7
f 20/6/15 35/9/15 40/9/15
f 35/9/15 20/6/15 22/6/15
f 64/4/7 6/3/7 63/4/7
f 6/3/7 64/4/7 5/3/7
f 58/7/4 46/8/4 45/8/4
f 46/8/4 58/7/4 57/7/4
f 62/10/16 48/3/16 51/3/16
f 48/3/16 62/10/16 54/10/16
f 25/4/17 6/3/17 8/3/17
f 6/3/17 25/4/17 63/4/17
f 60/4/7 68/3/7 59/4/7
f 68/3/7 60/4/7 67/3/7
f 34/8/3 38/8/3 39/8/3
f 38/8/3 34/8/3 33/8/3
f 34/8/18 28/7/18 30/7/18
f 28/7/18 34/8/18 39/8/18
f 15/3/2 68/3/2 67/3/2
f 68/3/2 15/3/2 13/3/2
f 21/5/19 42/3/19 37/3/19
f 42/3/19 21/5/19 19/5/19
f 66/1/17 14/4/17 24/2/17
f 24/2/17 14/4/17 23/2/17
f 59/4/17 23/2/17 14/4/17
f 59/4/17 65/1/17 23/2/17
f 65/1/17 38/8/17 66/1/17
f 59/4/17 38/8/17 65/1/17
f 33/8/17 66/1/17 38/8/17
f 33/8/17 14/4/17 66/1/17
f 59/4/17 27/7/17 38/8/17
f 68/3/17 27/7/17 59/4/17
f 29/7/17 14/4/17 33/8/17
f 27/7/17 68/3/17 29/7/17
f 29/7/17 13/3/17 14/4/17
f 13/3/17 29/7/17 68/3/17
f 5/3/13 56/7/13 7/3/13
f 56/7/13 5/3/13 64/4/13
f 58/7/13 7/3/13 56/7/13
f 7/3/13 58/7/13 26/4/13
f 56/7/13 64/4/13 43/8/13
f 26/4/13 58/7/13 45/8/13
f 43/8/13 31/1/13 45/8/13
f 43/8/13 64/4/13 31/1/13
f 32/1/13 45/8/13 31/1/13
f 26/4/13 45/8/13 32/1/13
f 31/1/13 64/4/13 9/2/13
f 26/4/13 32/1/13 11/2/13
f 9/2/13 64/4/13 11/2/13
f 26/4/13 11/2/13 64/4/13
f 36/11/2 42/11/2 41/11/2
f 42/11/2 36/11/2 37/11/2
g fence-broken
usemtl colormap
f 3/2/1 2/1/1 1/1/1
f 2/1/1 3/2/1 4/2/1
f 7/3/2 6/3/2 5/3/2
f 6/3/2 7/3/2 8/3/2
f 11/2/3 10/2/3 9/2/3
f 10/2/3 11/2/3 12/2/3
f 15/3/4 14/4/4 13/3/4
f 14/4/4 15/3/4 16/4/4
f 10/2/5 18/1/5 17/1/5
f 18/1/5 10/2/5 12/2/5
f 21/5/6 20/6/6 19/5/6
f 20/6/6 21/5/6 22/6/6
f 3/2/3 23/2/3 4/2/3
f 23/2/3 3/2/3 24/2/3
f 7/3/4 25/4/4 8/3/4
f 25/4/4 7/3/4 26/4/4
f 29/7/2 28/7/2 27/7/2
f 28/7/2 29/7/2 30/7/2
f 18/1/2 31/1/2 17/1/2
f 31/1/2 18/1/2 32/1/2
f 33/8/4 30/7/4 29/7/4
f 30/7/4 33/8/4 34/8/4
f 22/6/4 34/8/4 35/9/4
f 22/6/4 36/3/4 34/8/4
f 21/5/4 36/3/4 22/6/4
f 36/3/4 21/5/4 37/3/4
f 28/7/7 38/8/7 27/7/7
f 38/8/7 28/7/7 39/8/7
f 39/8/7 20/6/7 40/9/7
f 41/3/7 20/6/7 39/8/7
f 41/3/7 19/5/7 20/6/7
f 19/5/7 41/3/7 42/3/7
f 45/8/3 44/8/3 43/8/3
f 44/8/3 45/8/3 46/8/3
f 49/3/2 48/3/2 47/3/2
f 48/3/2 49/3/2 50/3/2
f 48/3/2 50/3/2 51/3/2
f 52/10/8 49/3/8 47/3/8
f 49/3/8 52/10/8 53/10/8
f 52/10/9 48/3/9 54/10/9
f 48/3/9 52/10/9 47/3/9
f 57/7/2 56/7/2 55/7/2
f 56/7/2 57/7/2 58/7/2
f 14/4/3 60/4/3 59/4/3
f 60/4/3 14/4/3 16/4/3
f 49/3/10 61/10/10 50/3/10
f 61/10/10 49/3/10 53/10/10
f 10/2/7 31/1/7 9/2/7
f 31/1/7 10/2/7 17/1/7
f 34/8/11 40/9/11 35/9/11
f 40/9/11 34/8/11 39/8/11
f 34/8/11 41/3/12 39/8/11
f 41/3/12 34/8/11 36/3/12
f 50/3/4 62/10/4 51/3/4
f 62/10/4 50/3/4 61/10/4
f 25/4/3 64/4/3 63/4/3
f 64/4/3 25/4/3 26/4/3
f 32/1/4 12/2/4 11/2/4
f 12/2/4 32/1/4 18/1/4
f 66/1/2 2/1/2 65/1/2
f 2/1/2 66/1/2 1/1/2
f 60/4/13 15/3/13 67/3/13
f 15/3/13 60/4/13 16/4/13
f 23/2/7 2/1/7 4/2/7
f 2/1/7 23/2/7 65/1/7
f 1/1/4 24/2/4 3/2/4
f 24/2/4 1/1/4 66/1/4
f 44/8/14 57/7/14 55/7/14
f 57/7/14 44/8/14 46/8/14
f 54/10/3 53/10/3 52/10/3
f 53/10/3 54/10/3 61/10/3
f 61/10/3 54/10/3 62/10/3
f 44/8/7 56/7/7 43/8/7
f 56/7/7 44/8/7 55/7/7
f 20/6/15 35/9/15 40/9/15
f 35/9/15 20/6/15 22/6/15
f 64/4/7 6/3/7 63/4/7
f 6/3/7 64/4/7 5/3/7
f 58/7/4 46/8/4 45/8/4
f 46/8/4 58/7/4 57/7/4
f 62/10/16 48/3/16 51/3/16
f 48/3/16 62/10/16 54/10/16
f 25/4/17 6/3/17 8/3/17
f 6/3/17 25/4/17 63/4/17
f 60/4/7 68/3/7 59/4/7
f 68/3/7 60/4/7 67/3/7
f 34/8/3 38/8/3 39/8/3
f 38/8/3 34/8/3 33/8/3
f 34/8/18 28/7/18 30/7/18
f 28/7/18 34/8/18 39/8/18
f 15/3/2 68/3/2 67/3/2
f 68/3/2 15/3/2 13/3/2
f 21/5/19 42/3/19 37/3/19
f 42/3/19 21/5/19 19/5/19
f 66/1/17 14/4/17 24/2/17
f 24/2/17 14/4/17 23/2/17
f 59/4/17 23/2/17 14/4/17
f 59/4/17 65/1/17 23/2/17
f 65/1/17 38/8/17 66/1/17
f 59/4/17 38/8/17 65/1/17
f 33/8/17 66/1/17 38/8/17
f 33/8/17 14/4/17 66/1/17
f 59/4/17 27/7/17 38/8/17
f 68/3/17 27/7/17 59/4/17
f 29/7/17 14/4/17 33/8/17
f 27/7/17 68/3/17 29/7/17
f 29/7/17 13/3/17 14/4/17
f 13/3/17 29/7/17 68/3/17
f 5/3/13 56/7/13 7/3/13
f 56/7/13 5/3/13 64/4/13
f 58/7/13 7/3/13 56/7/13
f 7/3/13 58/7/13 26/4/13
f 56/7/13 64/4/13 43/8/13
f 26/4/13 58/7/13 45/8/13
f 43/8/13 31/1/13 45/8/13
f 43/8/13 64/4/13 31/1/13
f 32/1/13 45/8/13 31/1/13
f 26/4/13 45/8/13 32/1/13
f 31/1/13 64/4/13 9/2/13
f 26/4/13 32/1/13 11/2/13
f 9/2/13 64/4/13 11/2/13
f 26/4/13 11/2/13 64/4/13
f 36/11/2 42/11/2 41/11/2
f 42/11/2 36/11/2 37/11/2
