mtllib fountain-curved.mtl
g fountain-curved
v 0.5 0.14 -0.5
v 0.36947 0.14 -0.49144
v 0.5 0.112 -0.47
v 0.37339 0.112 -0.4617
v 0.015 0.112 -0.34004
v 1.2994e-14 0.14 -0.36603
v -0.090499 0.112 -0.26955
v -0.10876 0.14 -0.29335
v 0.24895 0.112 -0.43695
v 0.24118 0.14 -0.46593
v 0.1288 0.112 -0.39616
v 0.11732 0.14 -0.42388
v -0.26955 0.112 -0.090499
v -0.29335 0.14 -0.10876
v -0.34004 0.112 0.015
v -0.36603 0.14 -3.7539e-14
v -0.18589 0.112 -0.18589
v -0.20711 0.14 -0.20711
v -0.39616 0.112 0.1288
v -0.42388 0.14 0.11732
v -0.090499 0.056 -0.26955
v 0.015 0.056 -0.34004
v 0.37339 0.056 -0.4617
v 0.5 0.056 -0.47
v 0.1288 0.056 -0.39616
v -0.26955 0.056 -0.090499
v -0.34004 0.056 0.015
v -0.43695 0.112 0.24895
v -0.46593 0.14 0.24118
v -0.18589 0.056 -0.18589
v 0.5 0.056 -0.5
v 0.36947 0.056 -0.49144
v 0.24895 0.056 -0.43695
v 0.24118 0.056 -0.46593
v 0.11732 0.056 -0.42388
v 1.2994e-14 0.056 -0.36603
v -0.10876 0.056 -0.29335
v -0.20711 0.056 -0.20711
v -0.29335 0.056 -0.10876
v -0.36603 0.056 -3.7539e-14
v -0.39616 0.056 0.1288
v -0.42388 0.056 0.11732
v -0.43695 0.056 0.24895
v -0.46593 0.056 0.24118
v -0.4617 0.056 0.37339
v -0.47 0.056 0.5
v -0.49144 0.056 0.36947
v -0.5 0.056 0.5
v -0.4617 0.112 0.37339
v -0.47 0.112 0.5
v -0.49144 0.14 0.36947
v -0.5 0.14 0.5
v 0.5 0 -0.5
v 0.36947 0 -0.49144
v 0.5 0 -0.2
v 0.40863 0 -0.19401
v 0.31883 0 -0.17615
v 0.24118 0 -0.46593
v 0.23212 0 -0.14672
v 0.11732 0 -0.42388
v 0.15 0 -0.10622
v 0.073867 0 -0.055347
v 1.2994e-14 0 -0.36603
v 0.0050253 0 0.0050253
v -0.055347 0 0.073867
v -0.10876 0 -0.29335
v -0.10622 0 0.15
v -0.14672 0 0.23212
v -0.20711 0 -0.20711
v -0.17615 0 0.31883
v -0.19401 0 0.40863
v -0.2 0 0.5
v -0.5 0 0.5
v -0.29335 0 -0.10876
v -0.36603 0 -3.7539e-14
v -0.42388 0 0.11732
v -0.46593 0 0.24118
v -0.49144 0 0.36947
v -0.17615 0.28 0.31883
v -0.19401 0.28 0.40863
v -0.2 0.28 0.5
v 0.073867 0.28 -0.055347
v 0.0050253 0.28 0.0050253
v -0.055347 0.28 0.073867
v 0.23212 0.28 -0.14672
v 0.15 0.28 -0.10622
v 0.40863 0.28 -0.19401
v 0.31883 0.28 -0.17615
v -0.10622 0.28 0.15
v -0.14672 0.28 0.23212
v 0.5 0.28 -0.2
v 0.5 0 0.5
v 0.5 0.28 -0.425
v 0.37926 0.28 -0.41709
v 0.26059 0.28 -0.39348
v 0.14602 0.28 -0.35459
v 0.0375 0.28 -0.30107
v -0.063104 0.28 -0.23385
v -0.15407 0.28 -0.15407
v -0.23385 0.28 -0.063104
v -0.425 0.28 0.5
v -0.30107 0.28 0.0375
v -0.35459 0.28 0.14602
v -0.39348 0.28 0.26059
v -0.41709 0.28 0.37926
v 0.5 0.23 -0.5
v 0.36947 0.23 -0.49144
v 0.24118 0.23 -0.46593
v 0.11732 0.23 -0.42388
v 1.2994e-14 0.23 -0.36603
v -0.10876 0.23 -0.29335
v -0.20711 0.23 -0.20711
v -0.29335 0.23 -0.10876
v -0.36603 0.23 -3.7539e-14
v -0.42388 0.23 0.11732
v -0.5 0.23 0.5
v -0.46593 0.23 0.24118
v -0.49144 0.23 0.36947
vn -0.044677 -0.73033 -0.68164
vn -0.08906 -0.73106 -0.67648
vn -0.059828 -0.40402 -0.91279
vn -0.11936 -0.40474 -0.90661
vn -0.45721 -0.40474 -0.79192
vn -0.34116 -0.73106 -0.5909
vn -0.55667 -0.40474 -0.72547
vn -0.41537 -0.73106 -0.54132
vn -0.23667 -0.40474 -0.88327
vn -0.1766 -0.73106 -0.65907
vn -0.34994 -0.40474 -0.84482
vn -0.26111 -0.73106 -0.63038
vn -0.72547 -0.40474 -0.55667
vn -0.54132 -0.73106 -0.41537
vn -0.79192 -0.40474 -0.45721
vn -0.5909 -0.73106 -0.34116
vn -0.6466 -0.40474 -0.6466
vn -0.48247 -0.73106 -0.48247
vn -0.84482 -0.40474 -0.34994
vn -0.63038 -0.73106 -0.26111
vn -0.42112 0.72213 -0.54881
vn -0.34588 0.72213 -0.59908
vn -0.090293 0.72213 -0.68584
vn -0.045294 0.72139 -0.69105
vn -0.26472 0.72213 -0.6391
vn -0.54881 0.72213 -0.42112
vn -0.59908 0.72213 -0.34588
vn -0.88327 -0.40474 -0.23667
vn -0.65907 -0.73106 -0.1766
vn -0.48915 0.72213 -0.48915
vn 0 1 0
vn -0.17904 0.72213 -0.66819
vn -0.6391 0.72213 -0.26472
vn -0.66819 0.72213 -0.17904
vn -0.68584 0.72213 -0.090293
vn -0.69105 0.72139 -0.045294
vn -0.90661 -0.40474 -0.11936
vn -0.91279 -0.40402 -0.059828
vn -0.67648 -0.73106 -0.08906
vn -0.68164 -0.73033 -0.044677
vn 0 -1 0
vn 0.96593 0 0.25882
vn 0.99144 0 0.13053
vn 0.99786 0 0.065403
vn 0.60876 0 0.79335
vn 0.70711 0 0.70711
vn 0.79335 0 0.60876
vn 0.38268 0 0.92388
vn 0.5 0 0.86603
vn 0.13053 0 0.99144
vn 0.25882 0 0.96593
vn 0.86603 0 0.5
vn 0.92388 0 0.38268
vn 0.065403 0 0.99786
vn -0.13053 0 -0.99144
vn -0.065403 0 -0.99786
vn -0.79335 0 -0.60876
vn -0.86603 0 -0.5
vn -0.25882 0 -0.96593
vn -0.5 0 -0.86603
vn -0.38268 0 -0.92388
vn -0.70711 0 -0.70711
vn -0.60876 0 -0.79335
vn -0.96593 0 -0.25882
vn -0.99144 0 -0.13053
vn -0.99786 0 -0.065403
vn -0.92388 0 -0.38268
vn -0.036333 0.8315 -0.55433
vn -0.072403 0.83205 -0.54995
vn -0.14357 0.83205 -0.5358
vn -0.21227 0.83205 -0.51248
vn -0.27735 0.83205 -0.48038
vn -0.33768 0.83205 -0.44007
vn -0.39223 0.83205 -0.39223
vn -0.44007 0.83205 -0.33768
vn -0.48038 0.83205 -0.27735
vn -0.51248 0.83205 -0.21227
vn 0 0 1
vn 1 0 0
vn -0.54995 0.83205 -0.072403
vn -0.55433 0.8315 -0.036333
vn -0.5358 0.83205 -0.14357
vt 0.96875 0.125
vt 0.96875 0.105
vt 0.96875 0.065
vt 0.21875 0.275
vt 0.21875 0.475
vt 0.21875 0.315
vt 0.21875 0.43929
vt 0.21875 0.375
vt 0.21875 0.355
usemtl colormap
f 3/2/3 2/1/2 1/1/1
f 2/1/2 3/2/3 4/2/4
f 7/2/7 6/1/6 5/2/5
f 6/1/6 7/2/7 8/1/8
f 9/2/9 2/1/2 4/2/4
f 2/1/2 9/2/9 10/1/10
f 11/2/11 10/1/10 9/2/9
f 10/1/10 11/2/11 12/1/12
f 15/2/15 14/1/14 13/2/13
f 14/1/14 15/2/15 16/1/16
f 17/2/17 8/1/8 7/2/7
f 8/1/8 17/2/17 18/1/18
f 5/2/5 12/1/12 11/2/11
f 12/1/12 5/2/5 6/1/6
f 13/2/13 18/1/18 17/2/17
f 18/1/18 13/2/13 14/1/14
f 19/2/19 16/1/16 15/2/15
f 16/1/16 19/2/19 20/1/20
f 7/2/7 22/3/22 21/3/21
f 22/3/22 7/2/7 5/2/5
f 4/2/4 24/3/24 23/3/23
f 24/3/24 4/2/4 3/2/3
f 5/2/5 25/3/25 22/3/22
f 25/3/25 5/2/5 11/2/11
f 27/3/27 13/2/13 26/3/26
f 13/2/13 27/3/27 15/2/15
f 28/2/28 20/1/20 19/2/19
f 20/1/20 28/2/28 29/1/29
f 26/3/26 17/2/17 30/3/30
f 17/2/17 26/3/26 13/2/13
f 32/3/31 24/3/24 31/3/31
f 24/3/24 32/3/31 23/3/23
f 23/3/23 32/3/31 33/3/32
f 33/3/32 32/3/31 34/3/31
f 33/3/32 34/3/31 25/3/25
f 25/3/25 34/3/31 35/3/31
f 25/3/25 35/3/31 22/3/22
f 22/3/22 35/3/31 36/3/31
f 22/3/22 36/3/31 21/3/21
f 21/3/21 36/3/31 37/3/31
f 21/3/21 37/3/31 30/3/30
f 30/3/30 37/3/31 38/3/31
f 30/3/30 38/3/31 26/3/26
f 26/3/26 38/3/31 39/3/31
f 26/3/26 39/3/31 27/3/27
f 27/3/27 39/3/31 40/3/31
f 27/3/27 40/3/31 41/3/33
f 41/3/33 40/3/31 42/3/31
f 41/3/33 42/3/31 43/3/34
f 43/3/34 42/3/31 44/3/31
f 43/3/34 44/3/31 45/3/35
f 45/3/35 44/3/31 46/3/36
f 46/3/36 44/3/31 47/3/31
f 46/3/36 47/3/31 48/3/31
f 11/2/11 33/3/32 25/3/25
f 33/3/32 11/2/11 9/2/9
f 43/3/34 19/2/19 41/3/33
f 19/2/19 43/3/34 28/2/28
f 17/2/17 21/3/21 30/3/30
f 21/3/21 17/2/17 7/2/7
f 41/3/33 15/2/15 27/3/27
f 15/2/15 41/3/33 19/2/19
f 46/3/36 49/2/37 45/3/35
f 49/2/37 46/3/36 50/2/38
f 50/2/38 51/1/39 49/2/37
f 51/1/39 50/2/38 52/1/40
f 9/2/9 23/3/23 33/3/32
f 23/3/23 9/2/9 4/2/4
f 45/3/35 28/2/28 43/3/34
f 28/2/28 45/3/35 49/2/37
f 49/2/37 29/1/29 28/2/28
f 29/1/29 49/2/37 51/1/39
f 55/4/41 54/4/41 53/4/41
f 54/4/41 55/4/41 56/4/41
f 54/4/41 56/4/41 57/4/41
f 54/4/41 57/4/41 58/4/41
f 58/4/41 57/4/41 59/4/41
f 58/4/41 59/4/41 60/4/41
f 60/4/41 59/4/41 61/4/41
f 60/4/41 61/4/41 62/4/41
f 60/4/41 62/4/41 63/4/41
f 63/4/41 62/4/41 64/4/41
f 63/4/41 64/4/41 65/4/41
f 63/4/41 65/4/41 66/4/41
f 66/4/41 65/4/41 67/4/41
f 66/4/41 67/4/41 68/4/41
f 66/4/41 68/4/41 69/4/41
f 69/4/41 68/4/41 70/4/41
f 69/4/41 70/4/41 71/4/41
f 69/4/41 71/4/41 72/4/41
f 69/4/41 72/4/41 73/4/41
f 69/4/41 73/4/41 74/4/41
f 74/4/41 73/4/41 75/4/41
f 75/4/41 73/4/41 76/4/41
f 76/4/41 73/4/41 77/4/41
f 77/4/41 73/4/41 78/4/41
f 80/5/43 70/4/42 79/5/42
f 70/4/42 80/5/43 71/4/43
f 81/5/44 71/4/43 80/5/43
f 71/4/43 81/5/44 72/4/44
f 82/5/45 64/4/46 62/4/45
f 64/4/46 82/5/45 83/5/46
f 84/5/47 64/4/46 83/5/46
f 64/4/46 84/5/47 65/4/47
f 85/5/48 61/4/49 59/4/48
f 61/4/49 85/5/48 86/5/49
f 87/5/50 57/4/51 56/4/50
f 57/4/51 87/5/50 88/5/51
f 86/5/49 62/4/45 61/4/49
f 62/4/45 86/5/49 82/5/45
f 88/5/51 59/4/48 57/4/51
f 59/4/48 88/5/51 85/5/48
f 89/5/52 65/4/47 84/5/47
f 65/4/47 89/5/52 67/4/52
f 90/5/53 67/4/52 89/5/52
f 67/4/52 90/5/53 68/4/53
f 91/5/54 56/4/50 55/4/54
f 56/4/50 91/5/54 87/5/50
f 32/6/55 53/4/56 54/4/55
f 53/4/56 32/6/55 31/6/56
f 79/5/42 68/4/53 90/5/53
f 68/4/53 79/5/42 70/4/42
f 75/4/58 39/6/57 74/4/57
f 39/6/57 75/4/58 40/6/58
f 34/6/59 54/4/55 58/4/59
f 54/4/55 34/6/59 32/6/55
f 36/6/60 60/4/61 63/4/60
f 60/4/61 36/6/60 35/6/61
f 35/6/61 58/4/59 60/4/61
f 58/4/59 35/6/61 34/6/59
f 38/6/62 66/4/63 69/4/62
f 66/4/63 38/6/62 37/6/63
f 78/4/65 44/6/64 77/4/64
f 44/6/64 78/4/65 47/6/65
f 37/6/63 63/4/60 66/4/63
f 63/4/60 37/6/63 36/6/60
f 56/4/31 92/4/31 55/4/31
f 92/4/31 56/4/31 72/4/31
f 72/4/31 56/4/31 57/4/31
f 72/4/31 57/4/31 59/4/31
f 72/4/31 59/4/31 61/4/31
f 72/4/31 61/4/31 62/4/31
f 72/4/31 62/4/31 64/4/31
f 72/4/31 64/4/31 65/4/31
f 72/4/31 65/4/31 67/4/31
f 72/4/31 67/4/31 68/4/31
f 72/4/31 68/4/31 70/4/31
f 72/4/31 70/4/31 71/4/31
f 73/4/66 47/6/65 78/4/65
f 47/6/65 73/4/66 48/6/66
f 76/4/67 40/6/58 75/4/58
f 40/6/58 76/4/67 42/6/67
f 77/4/64 42/6/67 76/4/67
f 42/6/67 77/4/64 44/6/64
f 94/5/31 91/5/31 93/5/31
f 91/5/31 94/5/31 87/5/31
f 87/5/31 94/5/31 88/5/31
f 88/5/31 94/5/31 95/5/31
f 88/5/31 95/5/31 85/5/31
f 85/5/31 95/5/31 96/5/31
f 85/5/31 96/5/31 86/5/31
f 86/5/31 96/5/31 82/5/31
f 82/5/31 96/5/31 97/5/31
f 82/5/31 97/5/31 83/5/31
f 83/5/31 97/5/31 98/5/31
f 83/5/31 98/5/31 84/5/31
f 84/5/31 98/5/31 89/5/31
f 89/5/31 98/5/31 99/5/31
f 89/5/31 99/5/31 90/5/31
f 90/5/31 99/5/31 79/5/31
f 79/5/31 99/5/31 100/5/31
f 79/5/31 100/5/31 80/5/31
f 80/5/31 100/5/31 81/5/31
f 81/5/31 100/5/31 101/5/31
f 101/5/31 100/5/31 102/5/31
f 101/5/31 102/5/31 103/5/31
f 101/5/31 103/5/31 104/5/31
f 101/5/31 104/5/31 105/5/31
f 74/4/57 38/6/62 69/4/62
f 38/6/62 74/4/57 39/6/57
f 107/7/69 93/5/68 106/7/68
f 93/5/68 107/7/69 94/5/69
f 107/7/69 95/5/70 94/5/69
f 95/5/70 107/7/69 108/7/70
f 108/7/70 96/5/71 95/5/70
f 96/5/71 108/7/70 109/7/71
f 109/7/71 97/5/72 96/5/71
f 97/5/72 109/7/71 110/7/72
f 110/7/72 98/5/73 97/5/72
f 98/5/73 110/7/72 111/7/73
f 111/7/73 99/5/74 98/5/73
f 99/5/74 111/7/73 112/7/74
f 112/7/74 100/5/75 99/5/74
f 100/5/75 112/7/74 113/7/75
f 113/7/75 102/5/76 100/5/75
f 102/5/76 113/7/75 114/7/76
f 114/7/76 103/5/77 102/5/76
f 103/5/77 114/7/76 115/7/77
f 107/7/55 1/8/56 2/8/55
f 1/8/56 107/7/55 106/7/56
f 111/7/63 6/8/60 8/8/63
f 6/8/60 111/7/63 110/7/60
f 81/5/78 73/4/78 72/4/78
f 73/4/78 81/5/78 46/6/78
f 48/6/78 73/4/78 46/6/78
f 46/6/78 81/5/78 50/9/78
f 50/9/78 81/5/78 52/8/78
f 52/8/78 81/5/78 116/7/78
f 116/7/78 81/5/78 101/5/78
f 109/7/61 10/8/59 12/8/61
f 10/8/59 109/7/61 108/7/59
f 14/8/57 112/7/62 18/8/62
f 112/7/62 14/8/57 113/7/57
f 112/7/62 8/8/63 18/8/62
f 8/8/63 112/7/62 111/7/63
f 20/8/67 114/7/58 16/8/58
f 114/7/58 20/8/67 115/7/67
f 29/8/64 115/7/67 20/8/67
f 115/7/67 29/8/64 117/7/64
f 108/7/59 2/8/55 10/8/59
f 2/8/55 108/7/59 107/7/55
f 16/8/58 113/7/57 14/8/57
f 113/7/57 16/8/58 114/7/58
f 93/5/79 1/8/79 106/7/79
f 1/8/79 93/5/79 3/9/79
f 3/9/79 93/5/79 24/6/79
f 55/4/79 24/6/79 93/5/79
f 55/4/79 93/5/79 91/5/79
f 53/4/79 24/6/79 55/4/79
f 24/6/79 53/4/79 31/6/79
f 110/7/60 12/8/61 6/8/60
f 12/8/61 110/7/60 109/7/61
f 52/8/66 118/7/65 51/8/65
f 118/7/65 52/8/66 116/7/66
f 51/8/65 117/7/64 29/8/64
f 117/7/64 51/8/65 118/7/65
f 118/7/80 101/5/81 105/5/80
f 101/5/81 118/7/80 116/7/81
f 115/7/77 104/5/82 103/5/77
f 104/5/82 115/7/77 117/7/82
f 117/7/82 105/5/80 104/5/82
f 105/5/80 117/7/82 118/7/80
g fountain-curved
usemtl colormap
f 3/2/3 2/1/2 1/1/1
f 2/1/2 3/2/3 4/2/4
f 7/2/7 6/1/6 5/2/5
f 6/1/6 7/2/7 8/1/8
f 9/2/9 2/1/2 4/2/4
f 2/1/2 9/2/9 10/1/10
f 11/2/11 10/1/10 9/2/9
f 10/1/10 11/2/11 12/1/12
f 15/2/15 14/1/14 13/2/13
f 14/1/14 15/2/15 16/1/16
f 17/2/17 8/1/8 7/2/7
f 8/1/8 17/2/17 18/1/18
f 5/2/5 12/1/12 11/2/11
f 12/1/12 5/2/5 6/1/6
f 13/2/13 18/1/18 17/2/17
f 18/1/18 13/2/13 14/1/14
f 19/2/19 16/1/16 15/2/15
f 16/1/16 19/2/19 20/1/20
f 7/2/7 22/3/22 21/3/21
f 22/3/22 7/2/7 5/2/5
f 4/2/4 24/3/24 23/3/23
f 24/3/24 4/2/4 3/2/3
f 5/2/5 25/3/25 22/3/22
f 25/3/25 5/2/5 11/2/11
f 27/3/27 13/2/13 26/3/26
f 13/2/13 27/3/27 15/2/15
f 28/2/28 20/1/20 19/2/19
f 20/1/20 28/2/28 29/1/29
f 26/3/26 17/2/17 30/3/30
f 17/2/17 26/3/26 13/2/13
f 32/3/31 24/3/24 31/3/31
f 24/3/24 32/3/31 23/3/23
f 23/3/23 32/3/31 33/3/32
f 33/3/32 32/3/31 34/3/31
f 33/3/32 34/3/31 25/3/25
f 25/3/25 34/3/31 35/3/31
f 25/3/25 35/3/31 22/3/22
f 22/3/22 35/3/31 36/3/31
f 22/3/22 36/3/31 21/3/21
f 21/3/21 36/3/31 37/3/31
f 21/3/21 37/3/31 30/3/30
f 30/3/30 37/3/31 38/3/31
f 30/3/30 38/3/31 26/3/26
f 26/3/26 38/3/31 39/3/31
f 26/3/26 39/3/31 27/3/27
f 27/3/27 39/3/31 40/3/31
f 27/3/27 40/3/31 41/3/33
f 41/3/33 40/3/31 42/3/31
f 41/3/33 42/3/31 43/3/34
f 43/3/34 42/3/31 44/3/31
f 43/3/34 44/3/31 45/3/35
f 45/3/35 44/3/31 46/3/36
f 46/3/36 44/3/31 47/3/31
f 46/3/36 47/3/31 48/3/31
f 11/2/11 33/3/32 25/3/25
f 33/3/32 11/2/11 9/2/9
f 43/3/34 19/2/19 41/3/33
f 19/2/19 43/3/34 28/2/28
f 17/2/17 21/3/21 30/3/30
f 21/3/21 17/2/17 7/2/7
f 41/3/33 15/2/15 27/3/27
f 15/2/15 41/3/33 19/2/19
f 46/3/36 49/2/37 45/3/35
f 49/2/37 46/3/36 50/2/38
f 50/2/38 51/1/39 49/2/37
f 51/1/39 50/2/38 52/1/40
f 9/2/9 23/3/23 33/3/32
f 23/3/23 9/2/9 4/2/4
f 45/3/35 28/2/28 43/3/34
f 28/2/28 45/3/35 49/2/37
f 49/2/37 29/1/29 28/2/28
f 29/1/29 49/2/37 51/1/39
f 55/4/41 54/4/41 53/4/41
f 54/4/41 55/4/41 56/4/41
f 54/4/41 56/4/41 57/4/41
f 54/4/41 57/4/41 58/4/41
f 58/4/41 57/4/41 59/4/41
f 58/4/41 59/4/41 60/4/41
f 60/4/41 59/4/41 61/4/41
f 60/4/41 61/4/41 62/4/41
f 60/4/41 62/4/41 63/4/41
f 63/4/41 62/4/41 64/4/41
f 63/4/41 64/4/41 65/4/41
f 63/4/41 65/4/41 66/4/41
f 66/4/41 65/4/41 67/4/41
f 66/4/41 67/4/41 68/4/41
f 66/4/41 68/4/41 69/4/41
f 69/4/41 68/4/41 70/4/41
f 69/4/41 70/4/41 71/4/41
f 69/4/41 71/4/41 72/4/41
f 69/4/41 72/4/41 73/4/41
f 69/4/41 73/4/41 74/4/41
f 74/4/41 73/4/41 75/4/41
f 75/4/41 73/4/41 76/4/41
f 76/4/41 73/4/41 77/4/41
f 77/4/41 73/4/41 78/4/41
f 80/5/43 70/4/42 79/5/42
f 70/4/42 80/5/43 71/4/43
f 81/5/44 71/4/43 80/5/43
f 71/4/43 81/5/44 72/4/44
f 82/5/45 64/4/46 62/4/45
f 64/4/46 82/5/45 83/5/46
f 84/5/47 64/4/46 83/5/46
f 64/4/46 84/5/47 65/4/47
f 85/5/48 61/4/49 59/4/48
f 61/4/49 85/5/48 86/5/49
f 87/5/50 57/4/51 56/4/50
f 57/4/51 87/5/50 88/5/51
f 86/5/49 62/4/45 61/4/49
f 62/4/45 86/5/49 82/5/45
f 88/5/51 59/4/48 57/4/51
f 59/4/48 88/5/51 85/5/48
f 89/5/52 65/4/47 84/5/47
f 65/4/47 89/5/52 67/4/52
f 90/5/53 67/4/52 89/5/52
f 67/4/52 90/5/53 68/4/53
f 91/5/54 56/4/50 55/4/54
f 56/4/50 91/5/54 87/5/50
f 32/6/55 53/4/56 54/4/55
f 53/4/56 32/6/55 31/6/56
f 79/5/42 68/4/53 90/5/53
f 68/4/53 79/5/42 70/4/42
f 75/4/58 39/6/57 74/4/57
f 39/6/57 75/4/58 40/6/58
f 34/6/59 54/4/55 58/4/59
f 54/4/55 34/6/59 32/6/55
f 36/6/60 60/4/61 63/4/60
f 60/4/61 36/6/60 35/6/61
f 35/6/61 58/4/59 60/4/61
f 58/4/59 35/6/61 34/6/59
f 38/6/62 66/4/63 69/4/62
f 66/4/63 38/6/62 37/6/63
f 78/4/65 44/6/64 77/4/64
f 44/6/64 78/4/65 47/6/65
f 37/6/63 63/4/60 66/4/63
f 63/4/60 37/6/63 36/6/60
f 56/4/31 92/4/31 55/4/31
f 92/4/31 56/4/31 72/4/31
f 72/4/31 56/4/31 57/4/31
f 72/4/31 57/4/31 59/4/31
f 72/4/31 59/4/31 61/4/31
f 72/4/31 61/4/31 62/4/31
f 72/4/31 62/4/31 64/4/31
f 72/4/31 64/4/31 65/4/31
f 72/4/31 65/4/31 67/4/31
f 72/4/31 67/4/31 68/4/31
f 72/4/31 68/4/31 70/4/31
f 72/4/31 70/4/31 71/4/31
f 73/4/66 47/6/65 78/4/65
f 47/6/65 73/4/66 48/6/66
f 76/4/67 40/6/58 75/4/58
f 40/6/58 76/4/67 42/6/67
f 77/4/64 42/6/67 76/4/67
f 42/6/67 77/4/64 44/6/64
f 94/5/31 91/5/31 93/5/31
f 91/5/31 94/5/31 87/5/31
f 87/5/31 94/5/31 88/5/31
f 88/5/31 94/5/31 95/5/31
f 88/5/31 95/5/31 85/5/31
f 85/5/31 95/5/31 96/5/31
f 85/5/31 96/5/31 86/5/31
f 86/5/31 96/5/31 82/5/31
f 82/5/31 96/5/31 97/5/31
f 82/5/31 97/5/31 83/5/31
f 83/5/31 97/5/31 98/5/31
f 83/5/31 98/5/31 84/5/31
f 84/5/31 98/5/31 89/5/31
f 89/5/31 98/5/31 99/5/31
f 89/5/31 99/5/31 90/5/31
f 90/5/31 99/5/31 79/5/31
f 79/5/31 99/5/31 100/5/31
f 79/5/31 100/5/31 80/5/31
f 80/5/31 100/5/31 81/5/31
f 81/5/31 100/5/31 101/5/31
f 101/5/31 100/5/31 102/5/31
f 101/5/31 102/5/31 103/5/31
f 101/5/31 103/5/31 104/5/31
f 101/5/31 104/5/31 105/5/31
f 74/4/57 38/6/62 69/4/62
f 38/6/62 74/4/57 39/6/57
f 107/7/69 93/5/68 106/7/68
f 93/5/68 107/7/69 94/5/69
f 107/7/69 95/5/70 94/5/69
f 95/5/70 107/7/69 108/7/70
f 108/7/70 96/5/71 95/5/70
f 96/5/71 108/7/70 109/7/71
f 109/7/71 97/5/72 96/5/71
f 97/5/72 109/7/71 110/7/72
f 110/7/72 98/5/73 97/5/72
f 98/5/73 110/7/72 111/7/73
f 111/7/73 99/5/74 98/5/73
f 99/5/74 111/7/73 112/7/74
f 112/7/74 100/5/75 99/5/74
f 100/5/75 112/7/74 113/7/75
f 113/7/75 102/5/76 100/5/75
f 102/5/76 113/7/75 114/7/76
f 114/7/76 103/5/77 102/5/76
f 103/5/77 114/7/76 115/7/77
f 107/7/55 1/8/56 2/8/55
f 1/8/56 107/7/55 106/7/56
f 111/7/63 6/8/60 8/8/63
f 6/8/60 111/7/63 110/7/60
f 81/5/78 73/4/78 72/4/78
f 73/4/78 81/5/78 46/6/78
f 48/6/78 73/4/78 46/6/78
f 46/6/78 81/5/78 50/9/78
f 50/9/78 81/5/78 52/8/78
f 52/8/78 81/5/78 116/7/78
f 116/7/78 81/5/78 101/5/78
f 109/7/61 10/8/59 12/8/61
f 10/8/59 109/7/61 108/7/59
f 14/8/57 112/7/62 18/8/62
f 112/7/62 14/8/57 113/7/57
f 112/7/62 8/8/63 18/8/62
f 8/8/63 112/7/62 111/7/63
f 20/8/67 114/7/58 16/8/58
f 114/7/58 20/8/67 115/7/67
f 29/8/64 115/7/67 20/8/67
f 115/7/67 29/8/64 117/7/64
f 108/7/59 2/8/55 10/8/59
f 2/8/55 108/7/59 107/7/55
f 16/8/58 113/7/57 14/8/57
f 113/7/57 16/8/58 114/7/58
f 93/5/79 1/8/79 106/7/79
f 1/8/79 93/5/79 3/9/79
f 3/9/79 93/5/79 24/6/79
f 55/4/79 24/6/79 93/5/79
f 55/4/79 93/5/79 91/5/79
f 53/4/79 24/6/79 55/4/79
f 24/6/79 53/4/79 31/6/79
f 110/7/60 12/8/61 6/8/60
f 12/8/61 110/7/60 109/7/61
f 52/8/66 118/7/65 51/8/65
f 118/7/65 52/8/66 116/7/66
f 51/8/65 117/7/64 29/8/64
f 117/7/64 51/8/65 118/7/65
f 118/7/80 101/5/81 105/5/80
f 101/5/81 118/7/80 116/7/81
f 115/7/77 104/5/82 103/5/77
f 104/5/82 115/7/77 117/7/82
f 117/7/82 105/5/80 104/5/82
f 105/5/80 117/7/82 118/7/80
g (%ignore)
v 0.5 0.14 -0.2
v 0.5 0.14 0.5
v 0.40863 0.14 -0.19401
v -0.2 0.14 0.5
v 0.31883 0.14 -0.17615
v 0.23212 0.14 -0.14672
v 0.15 0.14 -0.10622
v 0.073867 0.14 -0.055347
v 0.0050253 0.14 0.0050253
v -0.055347 0.14 0.073867
v -0.10622 0.14 0.15
v -0.14672 0.14 0.23212
v -0.17615 0.14 0.31883
v -0.19401 0.14 0.40863
vt -13.78 -13.78
vt -13.78 13.78
vt -10.182 -13.544
vt 13.78 13.78
vt -6.6467 -12.84
vt -3.2331 -11.682
vt -9.9476e-13 -10.087
vt 2.9974 -8.0845
vt 5.7077 -5.7077
vt 8.0845 -2.9974
vt 10.087 -2.0748e-12
vt 11.682 3.2331
vt 12.84 6.6467
vt 13.544 10.182
usemtl Water
f 121/12/31 120/11/31 119/10/31
f 120/11/31 121/12/31 122/13/31
f 122/13/31 121/12/31 123/14/31
f 122/13/31 123/14/31 124/15/31
f 122/13/31 124/15/31 125/16/31
f 122/13/31 125/16/31 126/17/31
f 122/13/31 126/17/31 127/18/31
f 122/13/31 127/18/31 128/19/31
f 122/13/31 128/19/31 129/20/31
f 122/13/31 129/20/31 130/21/31
f 122/13/31 130/21/31 131/22/31
f 122/13/31 131/22/31 132/23/31
f 119/10/41 120/11/41 121/12/41
f 122/13/41 121/12/41 120/11/41
f 123/14/41 121/12/41 122/13/41
f 124/15/41 123/14/41 122/13/41
f 125/16/41 124/15/41 122/13/41
f 126/17/41 125/16/41 122/13/41
f 127/18/41 126/17/41 122/13/41
f 128/19/41 127/18/41 122/13/41
f 129/20/41 128/19/41 122/13/41
f 130/21/41 129/20/41 122/13/41
f 131/22/41 130/21/41 122/13/41
f 132/23/41 131/22/41 122/13/41
