mtllib road-corner-inner.mtl
g road-corner-inner
v 0.5 0.05 -0.5
v 0.5 0 -0.5
v 0.5 0.05 0.5
v 0.5 0 0.5
v -0.038978 0.05 0.43931
v -0.12821 0.025 0.45105
v -0.050844 0.05 0.37965
v -0.13778 0.025 0.40294
v -0.5 0 -0.5
v -0.5 0.05 -0.5
v -0.5 0 0.125
v -0.5 0.05 0.035
v -0.5 0.025 0.125
v -0.5 0.0125 0.125
v -0.097298 0.05 0.2675
v -0.13109 0.05 0.21693
v -0.070396 0.05 0.32205
v -0.035 0.05 0.5
v -0.1712 0.05 0.1712
v -0.21693 0.05 0.13109
v -0.2675 0.05 0.097298
v -0.32205 0.05 0.070396
v -0.37965 0.05 0.050844
v -0.43931 0.05 0.038978
v -0.3125 0.025 0.17524
v -0.35649 0.025 0.15355
v -0.15355 0.0125 0.35649
v -0.15355 0.025 0.35649
v -0.13778 0.0125 0.40294
v -0.40294 0.0125 0.13778
v -0.45105 0.0125 0.12821
v -0.40294 0.025 0.13778
v -0.45105 0.025 0.12821
v -0.125 0.025 0.5
v -0.23483 0.0125 0.23483
v -0.23483 0.025 0.23483
v -0.20249 0.0125 0.27171
v -0.20249 0.025 0.27171
v -0.17524 0.025 0.3125
v -0.12821 0.0125 0.45105
v -0.125 0.0125 0.5
v -0.27171 0.025 0.20249
v -0.17524 0.0125 0.3125
v -0.27171 0.0125 0.20249
v -0.35649 0.0125 0.15355
v -0.125 0 0.5
v -0.3125 0.0125 0.17524
v -0.3575 0.0125 0.25318
v -0.3265 0.0125 0.27389
v -0.3575 0.025 0.25318
v -0.3265 0.025 0.27389
v -0.25318 0.025 0.3575
v -0.25318 0.0125 0.3575
v -0.23669 0.025 0.39094
v -0.23669 0.0125 0.39094
v -0.22471 0.025 0.42624
v -0.22471 0.0125 0.42624
v -0.21744 0.025 0.4628
v -0.21744 0.0125 0.4628
v -0.42624 0.0125 0.22471
v -0.42624 0.025 0.22471
v -0.4628 0.0125 0.21744
v -0.4628 0.025 0.21744
v -0.39094 0.0125 0.23669
v -0.39094 0.025 0.23669
v -0.27389 0.025 0.3265
v -0.27389 0.0125 0.3265
v -0.29847 0.025 0.29847
v -0.29847 0.0125 0.29847
v -0.5 0 0.5
v -0.5 0.0125 0.215
v -0.5 0.025 0.215
v -0.215 0.025 0.5
v -0.5 0.025 0.5
v -0.215 0.0125 0.5
v -0.215 0.0125 0.5
v -0.215 0.025 0.5
vn 1 0 0
vn -0.12842 0.99158 0.016907
vn -0.26535 0.96352 0.034935
vn -0.12511 0.99158 0.033524
vn -0.25852 0.96352 0.069271
vn -1 0 0
vn 0 1 0
vn -0.11217 0.99158 0.064763
vn -0.10276 0.99158 0.078851
vn -0.11967 0.99158 0.049568
vn -0.12952 0.99154 0.0084893
vn -0.091589 0.99158 0.091589
vn -0.078851 0.99158 0.10276
vn -0.064763 0.99158 0.11217
vn -0.049568 0.99158 0.11967
vn -0.033524 0.99158 0.12511
vn -0.016907 0.99158 0.12842
vn -0.0084893 0.99154 0.12952
vn -0.13382 0.96352 0.23179
vn -0.10242 0.96352 0.24727
vn -0.92388 0 0.38268
vn -0.96593 0 0.25882
vn -0.25882 0 0.96593
vn -0.13053 0 0.99144
vn -0.034935 0.96352 0.26535
vn -0.01754 0.96337 0.2676
vn -0.2676 0.96337 0.01754
vn -0.065403 0 0.99786
vn -0.70711 0 0.70711
vn -0.79335 0 0.60876
vn 0 0 -1
vn -0.24727 0.96352 0.10242
vn -0.23179 0.96352 0.13382
vn -0.21234 0.96352 0.16293
vn -0.18925 0.96352 0.18925
vn -0.069271 0.96352 0.25852
vn -0.99144 0 0.13053
vn -0.99786 0 0.065403
vn -0.16293 0.96352 0.21234
vn -0.86603 0 0.5
vn -0.60876 0 0.79335
vn -0.38268 0 0.92388
vn 0 0 1
vn -0.5 0 0.86603
vn 0.5 0 -0.86603
vn 0.60876 0 -0.79335
vn 0.86603 0 -0.5
vn 0.92388 0 -0.38268
vn 0.96593 0 -0.25882
vn 0.99144 0 -0.13053
vn 0.25882 0 -0.96593
vn 0.13053 0 -0.99144
vn 0.38268 0 -0.92388
vn 0.79335 0 -0.60876
vn 0.70711 0 -0.70711
vn 0 -1 0
vn 0.065403 0 -0.99786
vn 0.99786 0 -0.065403
vt 0.90625 0.125
vt 0.15625 0.375
usemtl colormap
f 3/1/1 2/1/1 1/1/1
f 2/1/1 3/1/1 4/1/1
f 7/1/4 6/1/3 5/1/2
f 6/1/3 7/1/4 8/1/5
f 11/1/6 10/1/6 9/1/6
f 10/1/6 11/1/6 12/1/6
f 12/1/6 11/1/6 13/1/6
f 13/1/6 11/1/6 14/1/6
f 10/1/7 3/1/7 1/1/7
f 3/1/7 10/1/7 15/1/8
f 15/1/8 10/1/7 16/1/9
f 3/1/7 15/1/8 17/1/10
f 3/1/7 17/1/10 7/1/4
f 3/1/7 7/1/4 5/1/2
f 3/1/7 5/1/2 18/1/11
f 16/1/9 10/1/7 19/1/12
f 19/1/12 10/1/7 20/1/13
f 20/1/13 10/1/7 21/1/14
f 21/1/14 10/1/7 22/1/15
f 22/1/15 10/1/7 23/1/16
f 23/1/16 10/1/7 24/1/17
f 24/1/17 10/1/7 12/1/18
f 22/1/15 25/1/19 21/1/14
f 25/1/19 22/1/15 26/1/20
f 29/1/22 28/1/21 27/1/21
f 28/1/21 29/1/22 8/1/22
f 32/1/23 31/1/24 30/1/23
f 31/1/24 32/1/23 33/1/24
f 12/1/18 33/1/25 24/1/17
f 33/1/25 12/1/18 13/1/26
f 5/1/2 34/1/27 18/1/11
f 34/1/27 5/1/2 6/1/3
f 33/1/24 14/1/28 31/1/24
f 14/1/28 33/1/24 13/1/28
f 37/1/30 36/1/29 35/1/29
f 36/1/29 37/1/30 38/1/30
f 10/1/31 2/1/31 9/1/31
f 2/1/31 10/1/31 1/1/31
f 15/1/8 28/1/32 17/1/10
f 28/1/32 15/1/8 39/1/33
f 19/1/12 38/1/34 16/1/9
f 38/1/34 19/1/12 36/1/35
f 24/1/17 32/1/36 23/1/16
f 32/1/36 24/1/17 33/1/25
f 17/1/10 8/1/5 7/1/4
f 8/1/5 17/1/10 28/1/32
f 41/1/38 6/1/37 40/1/37
f 6/1/37 41/1/38 34/1/38
f 40/1/37 8/1/22 29/1/22
f 8/1/22 40/1/37 6/1/37
f 21/1/14 42/1/39 20/1/13
f 42/1/39 21/1/14 25/1/19
f 27/1/21 39/1/40 43/1/40
f 39/1/40 27/1/21 28/1/21
f 36/1/29 44/1/41 35/1/29
f 44/1/41 36/1/29 42/1/41
f 26/1/42 30/1/23 45/1/42
f 30/1/23 26/1/42 32/1/23
f 23/1/16 26/1/20 22/1/15
f 26/1/20 23/1/16 32/1/36
f 20/1/13 36/1/35 19/1/12
f 36/1/35 20/1/13 42/1/39
f 16/1/9 39/1/33 15/1/8
f 39/1/33 16/1/9 38/1/34
f 3/1/43 46/1/43 4/1/43
f 46/1/43 3/1/43 41/1/43
f 41/1/43 3/1/43 34/1/43
f 34/1/43 3/1/43 18/1/43
f 42/1/41 47/1/44 44/1/41
f 47/1/44 42/1/41 25/1/44
f 43/1/40 38/1/30 37/1/30
f 38/1/30 43/1/40 39/1/40
f 25/1/44 45/1/42 47/1/44
f 45/1/42 25/1/44 26/1/42
f 50/2/45 49/2/46 48/2/45
f 49/2/46 50/2/45 51/2/46
f 54/2/48 53/2/47 52/2/47
f 53/2/47 54/2/48 55/2/48
f 56/2/49 55/2/48 54/2/48
f 55/2/48 56/2/49 57/2/49
f 58/2/50 57/2/49 56/2/49
f 57/2/49 58/2/50 59/2/50
f 62/2/52 61/2/51 60/2/51
f 61/2/51 62/2/52 63/2/52
f 60/2/51 65/2/53 64/2/53
f 65/2/53 60/2/51 61/2/51
f 52/2/47 67/2/54 66/2/54
f 67/2/54 52/2/47 53/2/47
f 66/2/54 69/2/55 68/2/55
f 69/2/55 66/2/54 67/2/54
f 4/2/56 9/2/56 2/2/56
f 9/2/56 4/2/56 46/2/56
f 9/2/56 46/2/56 70/2/56
f 9/2/56 70/2/56 11/2/56
f 71/2/57 63/2/52 62/2/52
f 63/2/52 71/2/57 72/2/57
f 65/2/53 48/2/45 64/2/53
f 48/2/45 65/2/53 50/2/45
f 58/2/7 74/2/7 73/2/7
f 74/2/7 58/2/7 56/2/7
f 74/2/7 56/2/7 54/2/7
f 74/2/7 54/2/7 52/2/7
f 74/2/7 52/2/7 66/2/7
f 74/2/7 66/2/7 68/2/7
f 74/2/7 68/2/7 51/2/7
f 74/2/7 51/2/7 50/2/7
f 74/2/7 50/2/7 65/2/7
f 74/2/7 65/2/7 61/2/7
f 74/2/7 61/2/7 63/2/7
f 74/2/7 63/2/7 72/2/7
f 51/2/46 69/2/55 49/2/46
f 69/2/55 51/2/46 68/2/55
f 73/2/58 59/2/50 58/2/50
f 59/2/50 73/2/58 75/2/58
f 40/2/7 75/2/7 41/2/7
f 75/2/7 40/2/7 29/2/7
f 75/2/7 29/2/7 27/2/7
f 75/2/7 27/2/7 43/2/7
f 75/2/7 43/2/7 37/2/7
f 75/2/7 37/2/7 59/2/7
f 59/2/7 37/2/7 35/2/7
f 59/2/7 35/2/7 57/2/7
f 57/2/7 35/2/7 55/2/7
f 55/2/7 35/2/7 44/2/7
f 55/2/7 44/2/7 53/2/7
f 53/2/7 44/2/7 67/2/7
f 67/2/7 44/2/7 47/2/7
f 67/2/7 47/2/7 69/2/7
f 69/2/7 47/2/7 49/2/7
f 49/2/7 47/2/7 45/2/7
f 49/2/7 45/2/7 48/2/7
f 48/2/7 45/2/7 30/2/7
f 48/2/7 30/2/7 64/2/7
f 64/2/7 30/2/7 60/2/7
f 60/2/7 30/2/7 31/2/7
f 60/2/7 31/2/7 62/2/7
f 62/2/7 31/2/7 14/2/7
f 62/2/7 14/2/7 71/2/7
f 41/2/43 70/2/43 46/2/43
f 70/2/43 41/2/43 76/2/43
f 70/2/43 76/2/43 74/2/43
f 74/2/43 76/2/43 77/2/43
f 70/2/6 14/2/6 11/2/6
f 14/2/6 70/2/6 71/2/6
f 71/2/6 70/2/6 72/2/6
f 72/2/6 70/2/6 74/2/6
g road-corner-inner
usemtl colormap
f 3/1/1 2/1/1 1/1/1
f 2/1/1 3/1/1 4/1/1
f 7/1/4 6/1/3 5/1/2
f 6/1/3 7/1/4 8/1/5
f 11/1/6 10/1/6 9/1/6
f 10/1/6 11/1/6 12/1/6
f 12/1/6 11/1/6 13/1/6
f 13/1/6 11/1/6 14/1/6
f 10/1/7 3/1/7 1/1/7
f 3/1/7 10/1/7 15/1/8
f 15/1/8 10/1/7 16/1/9
f 3/1/7 15/1/8 17/1/10
f 3/1/7 17/1/10 7/1/4
f 3/1/7 7/1/4 5/1/2
f 3/1/7 5/1/2 18/1/11
f 16/1/9 10/1/7 19/1/12
f 19/1/12 10/1/7 20/1/13
f 20/1/13 10/1/7 21/1/14
f 21/1/14 10/1/7 22/1/15
f 22/1/15 10/1/7 23/1/16
f 23/1/16 10/1/7 24/1/17
f 24/1/17 10/1/7 12/1/18
f 22/1/15 25/1/19 21/1/14
f 25/1/19 22/1/15 26/1/20
f 29/1/22 28/1/21 27/1/21
f 28/1/21 29/1/22 8/1/22
f 32/1/23 31/1/24 30/1/23
f 31/1/24 32/1/23 33/1/24
f 12/1/18 33/1/25 24/1/17
f 33/1/25 12/1/18 13/1/26
f 5/1/2 34/1/27 18/1/11
f 34/1/27 5/1/2 6/1/3
f 33/1/24 14/1/28 31/1/24
f 14/1/28 33/1/24 13/1/28
f 37/1/30 36/1/29 35/1/29
f 36/1/29 37/1/30 38/1/30
f 10/1/31 2/1/31 9/1/31
f 2/1/31 10/1/31 1/1/31
f 15/1/8 28/1/32 17/1/10
f 28/1/32 15/1/8 39/1/33
f 19/1/12 38/1/34 16/1/9
f 38/1/34 19/1/12 36/1/35
f 24/1/17 32/1/36 23/1/16
f 32/1/36 24/1/17 33/1/25
f 17/1/10 8/1/5 7/1/4
f 8/1/5 17/1/10 28/1/32
f 41/1/38 6/1/37 40/1/37
f 6/1/37 41/1/38 34/1/38
f 40/1/37 8/1/22 29/1/22
f 8/1/22 40/1/37 6/1/37
f 21/1/14 42/1/39 20/1/13
f 42/1/39 21/1/14 25/1/19
f 27/1/21 39/1/40 43/1/40
f 39/1/40 27/1/21 28/1/21
f 36/1/29 44/1/41 35/1/29
f 44/1/41 36/1/29 42/1/41
f 26/1/42 30/1/23 45/1/42
f 30/1/23 26/1/42 32/1/23
f 23/1/16 26/1/20 22/1/15
f 26/1/20 23/1/16 32/1/36
f 20/1/13 36/1/35 19/1/12
f 36/1/35 20/1/13 42/1/39
f 16/1/9 39/1/33 15/1/8
f 39/1/33 16/1/9 38/1/34
f 3/1/43 46/1/43 4/1/43
f 46/1/43 3/1/43 41/1/43
f 41/1/43 3/1/43 34/1/43
f 34/1/43 3/1/43 18/1/43
f 42/1/41 47/1/44 44/1/41
f 47/1/44 42/1/41 25/1/44
f 43/1/40 38/1/30 37/1/30
f 38/1/30 43/1/40 39/1/40
f 25/1/44 45/1/42 47/1/44
f 45/1/42 25/1/44 26/1/42
f 50/2/45 49/2/46 48/2/45
f 49/2/46 50/2/45 51/2/46
f 54/2/48 53/2/47 52/2/47
f 53/2/47 54/2/48 55/2/48
f 56/2/49 55/2/48 54/2/48
f 55/2/48 56/2/49 57/2/49
f 58/2/50 57/2/49 56/2/49
f 57/2/49 58/2/50 59/2/50
f 62/2/52 61/2/51 60/2/51
f 61/2/51 62/2/52 63/2/52
f 60/2/51 65/2/53 64/2/53
f 65/2/53 60/2/51 61/2/51
f 52/2/47 67/2/54 66/2/54
f 67/2/54 52/2/47 53/2/47
f 66/2/54 69/2/55 68/2/55
f 69/2/55 66/2/54 67/2/54
f 4/2/56 9/2/56 2/2/56
f 9/2/56 4/2/56 46/2/56
f 9/2/56 46/2/56 70/2/56
f 9/2/56 70/2/56 11/2/56
f 71/2/57 63/2/52 62/2/52
f 63/2/52 71/2/57 72/2/57
f 65/2/53 48/2/45 64/2/53
f 48/2/45 65/2/53 50/2/45
f 58/2/7 74/2/7 73/2/7
f 74/2/7 58/2/7 56/2/7
f 74/2/7 56/2/7 54/2/7
f 74/2/7 54/2/7 52/2/7
f 74/2/7 52/2/7 66/2/7
f 74/2/7 66/2/7 68/2/7
f 74/2/7 68/2/7 51/2/7
f 74/2/7 51/2/7 50/2/7
f 74/2/7 50/2/7 65/2/7
f 74/2/7 65/2/7 61/2/7
f 74/2/7 61/2/7 63/2/7
f 74/2/7 63/2/7 72/2/7
f 51/2/46 69/2/55 49/2/46
f 69/2/55 51/2/46 68/2/55
f 73/2/58 59/2/50 58/2/50
f 59/2/50 73/2/58 75/2/58
f 40/2/7 75/2/7 41/2/7
f 75/2/7 40/2/7 29/2/7
f 75/2/7 29/2/7 27/2/7
f 75/2/7 27/2/7 43/2/7
f 75/2/7 43/2/7 37/2/7
f 75/2/7 37/2/7 59/2/7
f 59/2/7 37/2/7 35/2/7
f 59/2/7 35/2/7 57/2/7
f 57/2/7 35/2/7 55/2/7
f 55/2/7 35/2/7 44/2/7
f 55/2/7 44/2/7 53/2/7
f 53/2/7 44/2/7 67/2/7
f 67/2/7 44/2/7 47/2/7
f 67/2/7 47/2/7 69/2/7
f 69/2/7 47/2/7 49/2/7
f 49/2/7 47/2/7 45/2/7
f 49/2/7 45/2/7 48/2/7
f 48/2/7 45/2/7 30/2/7
f 48/2/7 30/2/7 64/2/7
f 64/2/7 30/2/7 60/2/7
f 60/2/7 30/2/7 31/2/7
f 60/2/7 31/2/7 62/2/7
f 62/2/7 31/2/7 14/2/7
f 62/2/7 14/2/7 71/2/7
f 41/2/43 70/2/43 46/2/43
f 70/2/43 41/2/43 76/2/43
f 70/2/43 76/2/43 74/2/43
f 74/2/43 76/2/43 77/2/43
f 70/2/6 14/2/6 11/2/6
f 14/2/6 70/2/6 71/2/6
f 71/2/6 70/2/6 72/2/6
f 72/2/6 70/2/6 74/2/6
