mtllib road-curb-end.mtl
g road-curb-end
v -2.5989e-14 0.025 0.215
v 0.5 0.0125 0.215
v 0.5 0.025 0.215
v 6.0641e-14 0.025 -0.5
v -2.5989e-14 0.025 0.125
v -0.5 0.025 -0.5
v -0.5 0.025 0.5
v 0.5 0.025 0.5
v 0.5 1.6395e-19 -0.5
v 6.6416e-14 1.6395e-19 -0.5
v 0.5 0 0.125
v 0.5 1.6395e-19 0.5
v -0.5 1.6395e-19 0.5
v -0.5 1.6395e-19 -0.5
v 0.5 0.0125 0.125
v 0 1.6395e-19 -0.5
v 0 0.025 -0.5
v 0.5 0.025 0.215
v 0.5 0.0125 0.215
v 0.5 0.025 0.125
v 0.5 0.05 -0.5
v 6.0641e-14 0.05 -0.5
v -2.3967e-13 0.05 0.035
v 0.5 0.05 0.035
vn 0 0 -1
vn 0 1 0
vn 0.0083313 0.99997 0
vn 0.0062484 0.99998 0
vn 0 -1 0
vn 0.024992 0.99969 0
vn 0 0 1
vn 1 0 0
vn -1 0 0
vn 0 0.99084 0.13506
vn 0 0.96352 0.26764
vt 0.15625 0.375
vt 0.90625 0.125
usemtl colormap
f 3/1/1 2/1/1 1/1/1
f 6/1/2 5/1/3 4/1/2
f 5/1/3 6/1/2 1/1/4
f 7/1/2 1/1/4 6/1/2
f 7/1/2 3/1/2 1/1/4
f 3/1/2 7/1/2 8/1/2
f 11/1/5 10/1/5 9/1/5
f 10/1/5 11/1/5 12/1/5
f 10/1/5 12/1/5 13/1/5
f 10/1/5 13/1/5 14/1/5
f 5/1/3 2/1/6 15/1/6
f 2/1/6 5/1/3 1/1/4
f 6/1/1 16/1/1 14/1/1
f 16/1/1 6/1/1 17/1/1
f 8/1/7 13/1/7 12/1/7
f 13/1/7 8/1/7 7/1/7
f 8/1/8 19/1/8 18/1/8
f 12/1/8 19/1/8 8/1/8
f 11/1/8 19/1/8 12/1/8
f 19/1/8 11/1/8 15/1/8
f 13/1/9 6/1/9 14/1/9
f 6/1/9 13/1/9 7/1/9
f 5/2/7 15/2/7 20/2/7
f 4/2/1 9/2/1 10/2/1
f 9/2/1 4/2/1 21/2/1
f 21/2/1 4/2/1 22/2/1
f 5/2/9 22/2/9 4/2/9
f 22/2/9 5/2/9 23/2/9
f 24/2/8 9/2/8 21/2/8
f 9/2/8 24/2/8 11/2/8
f 11/2/8 24/2/8 20/2/8
f 11/2/8 20/2/8 15/2/8
f 22/2/2 24/2/10 21/2/2
f 24/2/10 22/2/2 23/2/10
f 24/2/10 5/2/11 20/2/11
f 5/2/11 24/2/10 23/2/10
g road-curb-end
usemtl colormap
f 3/1/1 2/1/1 1/1/1
f 6/1/2 5/1/3 4/1/2
f 5/1/3 6/1/2 1/1/4
f 7/1/2 1/1/4 6/1/2
f 7/1/2 3/1/2 1/1/4
f 3/1/2 7/1/2 8/1/2
f 11/1/5 10/1/5 9/1/5
f 10/1/5 11/1/5 12/1/5
f 10/1/5 12/1/5 13/1/5
f 10/1/5 13/1/5 14/1/5
f 5/1/3 2/1/6 15/1/6
f 2/1/6 5/1/3 1/1/4
f 6/1/1 16/1/1 14/1/1
f 16/1/1 6/1/1 17/1/1
f 8/1/7 13/1/7 12/1/7
f 13/1/7 8/1/7 7/1/7
f 8/1/8 19/1/8 18/1/8
f 12/1/8 19/1/8 8/1/8
f 11/1/8 19/1/8 12/1/8
f 19/1/8 11/1/8 15/1/8
f 13/1/9 6/1/9 14/1/9
f 6/1/9 13/1/9 7/1/9
f 5/2/7 15/2/7 20/2/7
f 4/2/1 9/2/1 10/2/1
f 9/2/1 4/2/1 21/2/1
f 21/2/1 4/2/1 22/2/1
f 5/2/9 22/2/9 4/2/9
f 22/2/9 5/2/9 23/2/9
f 24/2/8 9/2/8 21/2/8
f 9/2/8 24/2/8 11/2/8
f 11/2/8 24/2/8 20/2/8
f 11/2/8 20/2/8 15/2/8
f 22/2/2 24/2/10 21/2/2
f 24/2/10 22/2/2 23/2/10
f 24/2/10 5/2/11 20/2/11
f 5/2/11 24/2/10 23/2/10
