mtllib road-corner.mtl
g road-corner
v 0.33824 0.0125 0.1037
v 0.33824 0.025 0.1037
v 0.41842 0.0125 0.11965
v 0.41842 0.025 0.11965
v 0.26082 0.0125 0.077425
v 0.26082 0.025 0.077425
v 0.5 0.0125 0.125
v 0.5 0.025 0.125
v 0.1875 0.0125 0.041266
v 0.1875 0.025 0.041266
v -0.030423 0.05 -0.43017
v -0.11965 0.025 -0.41842
v -0.035 0.05 -0.5
v -0.125 0.025 -0.5
v 0.11952 0.0125 -0.0041542
v 0.11952 0.025 -0.0041542
v 0.29526 0.05 -0.0057244
v 0.2325 0.05 -0.036676
v 0.36153 0.05 0.01677
v -0.01677 0.05 -0.36153
v -0.1037 0.025 -0.33824
v 0.036676 0.05 -0.2325
v -0.041266 0.025 -0.1875
v 0.0057244 0.05 -0.29526
v -0.077425 0.025 -0.26082
v 0.17431 0.05 -0.075556
v 0.1217 0.05 -0.1217
v 0.058058 0.025 -0.058058
v 0.075556 0.05 -0.17431
v 0.0041542 0.025 -0.11952
v 0.5 0.05 -0.5
v 0.5 1.2716e-18 -0.5
v 0.5 0.05 0.035
v 0.5 0 0.125
v 0.43017 0.05 0.030423
v -0.125 1.4561e-18 -0.5
v -0.125 0.0125 -0.5
v -0.11965 0.0125 -0.41842
v -0.1037 0.0125 -0.33824
v -0.041266 0.0125 -0.1875
v 0.0041542 0.0125 -0.11952
v 0.058058 0.0125 -0.058058
v -0.077425 0.0125 -0.26082
v 0.5 0.025 0.215
v 0.5 0.025 0.5
v 0.40667 0.025 0.20888
v -0.5 0.025 0.5
v 0.31494 0.025 0.19064
v 0.22638 0.025 0.16057
v 0.1425 0.025 0.11921
v 0.064736 0.025 0.067248
v -0.0055813 0.025 0.0055813
v -0.067248 0.025 -0.064736
v -0.11921 0.025 -0.1425
v -0.16057 0.025 -0.22638
v -0.19064 0.025 -0.31494
v -0.20888 0.025 -0.40667
v -0.215 0.025 -0.5
v -0.5 0.025 -0.5
v 0.5 0.0125 0.215
v 0.40667 0.0125 0.20888
v 0.31494 0.0125 0.19064
v 0.22638 0.0125 0.16057
v 0.1425 0.0125 0.11921
v 0.064736 0.0125 0.067248
v -0.0055813 0.0125 0.0055813
v -0.067248 0.0125 -0.064736
v -0.11921 0.0125 -0.1425
v -0.16057 0.0125 -0.22638
v -0.215 0.0125 -0.5
v -0.19064 0.0125 -0.31494
v -0.20888 0.0125 -0.40667
v 0.5 1.3844e-18 0.14819
v 0.5 1.3844e-18 0.13819
v 0.5 1.4356e-18 0.5
v -0.5 1.5996e-18 0.5
v -0.5 1.5996e-18 -0.5
v 0.5 0.025 0.215
v 0.5 0.0125 0.215
v 0.5 1.3844e-18 0.14819
v 0.5 1.3844e-18 0.13819
v -0.215 0.025 -0.5
v -0.215 0.0125 -0.5
vn -0.25882 0 0.96593
vn -0.13053 0 0.99144
vn -0.38268 0 0.92388
vn -0.065403 0 0.99786
vn -0.5 0 0.86603
vn -0.13937 0.99007 0.018349
vn -0.26535 0.96352 0.034935
vn -0.14057 0.99003 0.0092134
vn -0.2676 0.96337 0.01754
vn -0.60876 0 0.79335
vn -0.053796 0.99007 0.12988
vn -0.10242 0.96352 0.24727
vn -0.070288 0.99007 0.12174
vn -0.13382 0.96352 0.23179
vn -0.036384 0.99007 0.13579
vn -0.069271 0.96352 0.25852
vn -0.13579 0.99007 0.036384
vn -0.25852 0.96352 0.069271
vn -0.12174 0.99007 0.070288
vn -0.23179 0.96352 0.13382
vn -0.12988 0.99007 0.053796
vn -0.24727 0.96352 0.10242
vn -0.085577 0.99007 0.11153
vn -0.16293 0.96352 0.21234
vn -0.099402 0.99007 0.099402
vn -0.18925 0.96352 0.18925
vn -0.11153 0.99007 0.085577
vn -0.21234 0.96352 0.16293
vn 1 0 0
vn -0.018349 0.99007 0.13937
vn -0.034935 0.96352 0.26535
vn -0.0092134 0.99003 0.14057
vn 0 1 0
vn 0 0 -1
vn -0.01754 0.96337 0.2676
vn -0.99144 0 0.13053
vn -0.96593 0 0.25882
vn -0.86603 0 0.5
vn -0.79335 0 0.60876
vn -0.70711 0 0.70711
vn -0.92388 0 0.38268
vn -0.99786 0 0.065403
vn 0.96593 0 -0.25882
vn 0.92388 0 -0.38268
vn 0.86603 0 -0.5
vn 0.79335 0 -0.60876
vn 0 -1 0
vn 0.70711 0 -0.70711
vn 0.60876 0 -0.79335
vn 0.99144 0 -0.13053
vn 0.5 0 -0.86603
vn 0.99786 0 -0.065403
vn 0.38268 0 -0.92388
vn 0.25882 0 -0.96593
vn 0.13053 0 -0.99144
vn 0.065403 0 -0.99786
vn -1 0 0
vn 0 0 1
vt 0.90625 0.125
vt 0.15625 0.375
usemtl colormap
f 3/1/2 2/1/1 1/1/1
f 2/1/1 3/1/2 4/1/2
f 1/1/1 6/1/3 5/1/3
f 6/1/3 1/1/1 2/1/1
f 7/1/4 4/1/2 3/1/2
f 4/1/2 7/1/4 8/1/4
f 5/1/3 10/1/5 9/1/5
f 10/1/5 5/1/3 6/1/3
f 13/1/8 12/1/7 11/1/6
f 12/1/7 13/1/8 14/1/9
f 9/1/5 16/1/10 15/1/10
f 16/1/10 9/1/5 10/1/5
f 18/1/13 6/1/12 17/1/11
f 6/1/12 18/1/13 10/1/14
f 17/1/11 2/1/16 19/1/15
f 2/1/16 17/1/11 6/1/12
f 11/1/6 21/1/18 20/1/17
f 21/1/18 11/1/6 12/1/7
f 24/1/21 23/1/20 22/1/19
f 23/1/20 24/1/21 25/1/22
f 27/1/25 16/1/24 26/1/23
f 16/1/24 27/1/25 28/1/26
f 22/1/19 30/1/28 29/1/27
f 30/1/28 22/1/19 23/1/20
f 20/1/17 25/1/22 24/1/21
f 25/1/22 20/1/17 21/1/18
f 29/1/27 28/1/26 27/1/25
f 28/1/26 29/1/27 30/1/28
f 33/1/29 32/1/29 31/1/29
f 32/1/29 33/1/29 34/1/29
f 34/1/29 33/1/29 8/1/29
f 34/1/29 8/1/29 7/1/29
f 19/1/15 4/1/31 35/1/30
f 4/1/31 19/1/15 2/1/16
f 31/1/33 35/1/30 33/1/32
f 35/1/30 31/1/33 13/1/8
f 35/1/30 13/1/8 19/1/15
f 19/1/15 13/1/8 17/1/11
f 17/1/11 13/1/8 18/1/13
f 18/1/13 13/1/8 26/1/23
f 26/1/23 13/1/8 27/1/25
f 27/1/25 13/1/8 29/1/27
f 29/1/27 13/1/8 22/1/19
f 22/1/19 13/1/8 24/1/21
f 24/1/21 13/1/8 20/1/17
f 20/1/17 13/1/8 11/1/6
f 36/1/34 31/1/34 32/1/34
f 31/1/34 36/1/34 37/1/34
f 31/1/34 37/1/34 14/1/34
f 31/1/34 14/1/34 13/1/34
f 26/1/23 10/1/14 18/1/13
f 10/1/14 26/1/23 16/1/24
f 35/1/30 8/1/35 33/1/32
f 8/1/35 35/1/30 4/1/31
f 39/1/37 12/1/36 38/1/36
f 12/1/36 39/1/37 21/1/37
f 41/1/39 23/1/38 40/1/38
f 23/1/38 41/1/39 30/1/39
f 42/1/40 30/1/39 41/1/39
f 30/1/39 42/1/40 28/1/40
f 43/1/41 21/1/37 39/1/37
f 21/1/37 43/1/41 25/1/41
f 40/1/38 25/1/41 43/1/41
f 25/1/41 40/1/38 23/1/38
f 15/1/10 28/1/40 42/1/40
f 28/1/40 15/1/10 16/1/10
f 38/1/36 14/1/42 37/1/42
f 14/1/42 38/1/36 12/1/36
f 46/2/33 45/2/33 44/2/33
f 45/2/33 46/2/33 47/2/33
f 47/2/33 46/2/33 48/2/33
f 47/2/33 48/2/33 49/2/33
f 47/2/33 49/2/33 50/2/33
f 47/2/33 50/2/33 51/2/33
f 47/2/33 51/2/33 52/2/33
f 47/2/33 52/2/33 53/2/33
f 47/2/33 53/2/33 54/2/33
f 47/2/33 54/2/33 55/2/33
f 47/2/33 55/2/33 56/2/33
f 47/2/33 56/2/33 57/2/33
f 47/2/33 57/2/33 58/2/33
f 47/2/33 58/2/33 59/2/33
f 7/2/33 61/2/33 60/2/33
f 61/2/33 7/2/33 3/2/33
f 61/2/33 3/2/33 1/2/33
f 61/2/33 1/2/33 62/2/33
f 62/2/33 1/2/33 5/2/33
f 62/2/33 5/2/33 63/2/33
f 63/2/33 5/2/33 9/2/33
f 63/2/33 9/2/33 64/2/33
f 64/2/33 9/2/33 15/2/33
f 64/2/33 15/2/33 65/2/33
f 65/2/33 15/2/33 42/2/33
f 65/2/33 42/2/33 66/2/33
f 66/2/33 42/2/33 41/2/33
f 66/2/33 41/2/33 40/2/33
f 66/2/33 40/2/33 67/2/33
f 67/2/33 40/2/33 43/2/33
f 67/2/33 43/2/33 68/2/33
f 68/2/33 43/2/33 39/2/33
f 68/2/33 39/2/33 38/2/33
f 68/2/33 38/2/33 69/2/33
f 69/2/33 38/2/33 37/2/33
f 69/2/33 37/2/33 70/2/33
f 69/2/33 70/2/33 71/2/33
f 71/2/33 70/2/33 72/2/33
f 55/2/44 71/2/43 56/2/43
f 71/2/43 55/2/44 69/2/44
f 54/2/45 69/2/44 55/2/44
f 69/2/44 54/2/45 68/2/45
f 53/2/46 68/2/45 54/2/45
f 68/2/45 53/2/46 67/2/46
f 75/2/47 74/2/47 73/2/47
f 32/2/47 74/2/47 75/2/47
f 74/2/47 32/2/47 34/2/47
f 32/2/47 75/2/47 76/2/47
f 32/2/47 76/2/47 36/2/47
f 36/2/47 76/2/47 77/2/47
f 52/2/48 67/2/46 53/2/46
f 67/2/46 52/2/48 66/2/48
f 52/2/48 65/2/49 66/2/48
f 65/2/49 52/2/48 51/2/49
f 56/2/43 72/2/50 57/2/50
f 72/2/50 56/2/43 71/2/43
f 51/2/49 64/2/51 65/2/49
f 64/2/51 51/2/49 50/2/51
f 57/2/50 70/2/52 58/2/52
f 70/2/52 57/2/50 72/2/50
f 50/2/51 63/2/53 64/2/51
f 63/2/53 50/2/51 49/2/53
f 49/2/53 62/2/54 63/2/53
f 62/2/54 49/2/53 48/2/54
f 48/2/54 61/2/55 62/2/54
f 61/2/55 48/2/54 46/2/55
f 46/2/55 60/2/56 61/2/55
f 60/2/56 46/2/55 44/2/56
f 45/2/29 79/2/29 78/2/29
f 75/2/29 79/2/29 45/2/29
f 80/2/29 79/2/29 75/2/29
f 81/2/29 79/2/29 80/2/29
f 34/2/29 79/2/29 81/2/29
f 79/2/29 34/2/29 7/2/29
f 76/2/57 59/2/57 77/2/57
f 59/2/57 76/2/57 47/2/57
f 45/2/58 76/2/58 75/2/58
f 76/2/58 45/2/58 47/2/58
f 83/2/34 59/2/34 82/2/34
f 59/2/34 83/2/34 77/2/34
f 37/2/34 77/2/34 83/2/34
f 77/2/34 37/2/34 36/2/34
g road-corner
usemtl colormap
f 3/1/2 2/1/1 1/1/1
f 2/1/1 3/1/2 4/1/2
f 1/1/1 6/1/3 5/1/3
f 6/1/3 1/1/1 2/1/1
f 7/1/4 4/1/2 3/1/2
f 4/1/2 7/1/4 8/1/4
f 5/1/3 10/1/5 9/1/5
f 10/1/5 5/1/3 6/1/3
f 13/1/8 12/1/7 11/1/6
f 12/1/7 13/1/8 14/1/9
f 9/1/5 16/1/10 15/1/10
f 16/1/10 9/1/5 10/1/5
f 18/1/13 6/1/12 17/1/11
f 6/1/12 18/1/13 10/1/14
f 17/1/11 2/1/16 19/1/15
f 2/1/16 17/1/11 6/1/12
f 11/1/6 21/1/18 20/1/17
f 21/1/18 11/1/6 12/1/7
f 24/1/21 23/1/20 22/1/19
f 23/1/20 24/1/21 25/1/22
f 27/1/25 16/1/24 26/1/23
f 16/1/24 27/1/25 28/1/26
f 22/1/19 30/1/28 29/1/27
f 30/1/28 22/1/19 23/1/20
f 20/1/17 25/1/22 24/1/21
f 25/1/22 20/1/17 21/1/18
f 29/1/27 28/1/26 27/1/25
f 28/1/26 29/1/27 30/1/28
f 33/1/29 32/1/29 31/1/29
f 32/1/29 33/1/29 34/1/29
f 34/1/29 33/1/29 8/1/29
f 34/1/29 8/1/29 7/1/29
f 19/1/15 4/1/31 35/1/30
f 4/1/31 19/1/15 2/1/16
f 31/1/33 35/1/30 33/1/32
f 35/1/30 31/1/33 13/1/8
f 35/1/30 13/1/8 19/1/15
f 19/1/15 13/1/8 17/1/11
f 17/1/11 13/1/8 18/1/13
f 18/1/13 13/1/8 26/1/23
f 26/1/23 13/1/8 27/1/25
f 27/1/25 13/1/8 29/1/27
f 29/1/27 13/1/8 22/1/19
f 22/1/19 13/1/8 24/1/21
f 24/1/21 13/1/8 20/1/17
f 20/1/17 13/1/8 11/1/6
f 36/1/34 31/1/34 32/1/34
f 31/1/34 36/1/34 37/1/34
f 31/1/34 37/1/34 14/1/34
f 31/1/34 14/1/34 13/1/34
f 26/1/23 10/1/14 18/1/13
f 10/1/14 26/1/23 16/1/24
f 35/1/30 8/1/35 33/1/32
f 8/1/35 35/1/30 4/1/31
f 39/1/37 12/1/36 38/1/36
f 12/1/36 39/1/37 21/1/37
f 41/1/39 23/1/38 40/1/38
f 23/1/38 41/1/39 30/1/39
f 42/1/40 30/1/39 41/1/39
f 30/1/39 42/1/40 28/1/40
f 43/1/41 21/1/37 39/1/37
f 21/1/37 43/1/41 25/1/41
f 40/1/38 25/1/41 43/1/41
f 25/1/41 40/1/38 23/1/38
f 15/1/10 28/1/40 42/1/40
f 28/1/40 15/1/10 16/1/10
f 38/1/36 14/1/42 37/1/42
f 14/1/42 38/1/36 12/1/36
f 46/2/33 45/2/33 44/2/33
f 45/2/33 46/2/33 47/2/33
f 47/2/33 46/2/33 48/2/33
f 47/2/33 48/2/33 49/2/33
f 47/2/33 49/2/33 50/2/33
f 47/2/33 50/2/33 51/2/33
f 47/2/33 51/2/33 52/2/33
f 47/2/33 52/2/33 53/2/33
f 47/2/33 53/2/33 54/2/33
f 47/2/33 54/2/33 55/2/33
f 47/2/33 55/2/33 56/2/33
f 47/2/33 56/2/33 57/2/33
f 47/2/33 57/2/33 58/2/33
f 47/2/33 58/2/33 59/2/33
f 7/2/33 61/2/33 60/2/33
f 61/2/33 7/2/33 3/2/33
f 61/2/33 3/2/33 1/2/33
f 61/2/33 1/2/33 62/2/33
f 62/2/33 1/2/33 5/2/33
f 62/2/33 5/2/33 63/2/33
f 63/2/33 5/2/33 9/2/33
f 63/2/33 9/2/33 64/2/33
f 64/2/33 9/2/33 15/2/33
f 64/2/33 15/2/33 65/2/33
f 65/2/33 15/2/33 42/2/33
f 65/2/33 42/2/33 66/2/33
f 66/2/33 42/2/33 41/2/33
f 66/2/33 41/2/33 40/2/33
f 66/2/33 40/2/33 67/2/33
f 67/2/33 40/2/33 43/2/33
f 67/2/33 43/2/33 68/2/33
f 68/2/33 43/2/33 39/2/33
f 68/2/33 39/2/33 38/2/33
f 68/2/33 38/2/33 69/2/33
f 69/2/33 38/2/33 37/2/33
f 69/2/33 37/2/33 70/2/33
f 69/2/33 70/2/33 71/2/33
f 71/2/33 70/2/33 72/2/33
f 55/2/44 71/2/43 56/2/43
f 71/2/43 55/2/44 69/2/44
f 54/2/45 69/2/44 55/2/44
f 69/2/44 54/2/45 68/2/45
f 53/2/46 68/2/45 54/2/45
f 68/2/45 53/2/46 67/2/46
f 75/2/47 74/2/47 73/2/47
f 32/2/47 74/2/47 75/2/47
f 74/2/47 32/2/47 34/2/47
f 32/2/47 75/2/47 76/2/47
f 32/2/47 76/2/47 36/2/47
f 36/2/47 76/2/47 77/2/47
f 52/2/48 67/2/46 53/2/46
f 67/2/46 52/2/48 66/2/48
f 52/2/48 65/2/49 66/2/48
f 65/2/49 52/2/48 51/2/49
f 56/2/43 72/2/50 57/2/50
f 72/2/50 56/2/43 71/2/43
f 51/2/49 64/2/51 65/2/49
f 64/2/51 51/2/49 50/2/51
f 57/2/50 70/2/52 58/2/52
f 70/2/52 57/2/50 72/2/50
f 50/2/51 63/2/53 64/2/51
f 63/2/53 50/2/51 49/2/53
f 49/2/53 62/2/54 63/2/53
f 62/2/54 49/2/53 48/2/54
f 48/2/54 61/2/55 62/2/54
f 61/2/55 48/2/54 46/2/55
f 46/2/55 60/2/56 61/2/55
f 60/2/56 46/2/55 44/2/56
f 45/2/29 79/2/29 78/2/29
f 75/2/29 79/2/29 45/2/29
f 80/2/29 79/2/29 75/2/29
f 81/2/29 79/2/29 80/2/29
f 34/2/29 79/2/29 81/2/29
f 79/2/29 34/2/29 7/2/29
f 76/2/57 59/2/57 77/2/57
f 59/2/57 76/2/57 47/2/57
f 45/2/58 76/2/58 75/2/58
f 76/2/58 45/2/58 47/2/58
f 83/2/34 59/2/34 82/2/34
f 59/2/34 83/2/34 77/2/34
f 37/2/34 77/2/34 83/2/34
f 77/2/34 37/2/34 36/2/34
