mtllib rock-small.mtl
g rock-small
v -0.43801 0.062081 -0.080122
v -0.33815 0.20563 -0.18377
v -0.2949 0.20563 -0.043809
v -0.35837 0 -0.46979
v -0.29099 0.20563 -0.3506
v -0.47093 0 -0.071628
v -0.18333 0 -0.46979
v -0.19772 0.20563 -0.3506
v -0.26819 0.20563 -0.13372
v -0.18551 0.20563 0.047542
v -0.15709 0.20563 -0.053004
v -0.26101 0 0.10367
v -0.11152 1.02 -0.31931
v -0.13269 0.34651 -0.49944
v 0.023867 1.02 -0.41768
v 0.25951 1.02 -0.21751
v 0.3634 0.35994 -0.13815
v 0.12326 1.02 -0.043809
v 0.27493 0 -0.5415
v 0.40935 0 -0.12783
v 0.19447 1.02 -0.41768
v -0.16003 0 -0.5415
v -0.18333 0 -0.46979
v -0.26819 0.20563 -0.13372
v -0.16424 1.02 -0.15706
v 0.37841 0 -0.10536
v 0.25663 0.45262 -0.071823
v 0.057454 0.45262 0.072884
v 0.057454 1.02 0.0040047
v -0.090629 0.45262 -0.034705
v -0.15709 0.20563 -0.053004
v -0.23714 0.18315 0.20714
v -0.13269 0.45262 0.11409
v -0.0323 0.45262 0.28605
v 0.32933 0.45262 0.18539
v 0.088245 0.45262 0.38672
v 0.25663 0.45262 -0.071823
v 0.057454 0.45262 0.072884
v -0.090629 0.45262 -0.034705
v 0.088245 0 0.5415
v -0.29444 0 0.22192
v 0.47093 0 0.22192
v 0.37841 0 -0.10536
v -0.15709 0.20563 -0.053004
v -0.18551 0.20563 0.047542
v -0.26101 0 0.10367
v 0.40935 0 -0.12783
v -0.35837 0 -0.46979
v -0.35418 0 0.20374
v -0.35418 0 0.10374
v -0.44078 0 0.25374
v -0.44078 0 0.053741
v -0.52738 0 0.20374
v -0.52738 0 0.10374
v -0.38709 0.1 0.12274
v -0.38709 0.1 0.18474
v -0.44078 0.1 0.091741
v -0.44078 0.1 0.21574
v -0.49448 0.1 0.12274
v -0.49448 0.1 0.18474
v 0.19582 0.45262 0.12236
v 0.19582 0.45262 0.022357
v 0.10921 0.45262 0.17236
v 0.10921 0.45262 -0.027643
v 0.022612 0.45262 0.12236
v 0.022612 0.45262 0.022357
v 0.16291 0.55263 0.041357
v 0.16291 0.55263 0.10336
v 0.10921 0.55263 0.010357
v 0.10921 0.55263 0.13436
v 0.055521 0.55263 0.041357
v 0.055521 0.55263 0.10336
v -0.10551 -3.6096e-16 -0.63477
v -0.10551 -3.6096e-16 -0.73477
v -0.19211 -3.6096e-16 -0.58477
v -0.19211 -3.6096e-16 -0.78477
v -0.27871 -3.6096e-16 -0.63477
v -0.27871 -3.6096e-16 -0.73477
v -0.13841 0.1 -0.71577
v -0.13841 0.1 -0.65377
v -0.19211 0.1 -0.74677
v -0.19211 0.1 -0.62277
v -0.2458 0.1 -0.71577
v -0.2458 0.1 -0.65377
vn -0.71801 0.6597 0.22192
vn -0.86989 0.42758 -0.2459
vn 0 0.50147 -0.86518
vn 0 1 0
vn -0.58565 0.40647 0.70128
vn -0.57222 0.22863 -0.78759
vn 0.77185 0.19428 0.60539
vn 0.60585 0.10775 0.78825
vn 0.66518 0.13709 0.73399
vn 0.94509 0.11184 -0.30708
vn 0 0.12051 -0.99271
vn -0.94509 0.11184 -0.30708
vn 0.58497 0.097744 0.80514
vn -0.58497 0.097744 0.80514
vn -0.76969 0.4535 0.44934
vn -0.61999 0.25388 0.7424
vn 0.61999 0.25388 0.7424
vn 0.92688 0.2688 -0.26201
vn -0.92688 0.2688 -0.26201
vn 0 -1 0
vn 0.80955 0.35522 -0.46739
vn 0.80955 0.35522 0.46739
vn 0 0.35522 -0.93478
vn 0 0.35522 0.93478
vn -0.80955 0.35522 0.46739
vn -0.80955 0.35522 -0.46739
vt 0.21875 0.3661
vt 0.21875 0.38268
vt 0.21875 0.35893
vt 0.21875 0.47104
vt 0.21875 0.42241
vt 0.21875 0.42338
vt 0.21875 0.39738
vt 0.21875 0.41223
vt 0.21875 0.43007
vt 0.21875 0.33947
vt 0.21875 0.42717
vt 0.21875 0.27986
vt 0.21875 0.34679
vt 0.21875 0.30908
vt 0.21875 0.325
vt 0.21875 0.425
usemtl colormap
f 3/2/1 2/2/1 1/1/1
f 6/3/2 5/2/2 4/3/2
f 5/2/2 6/3/2 2/2/2
f 2/2/2 6/3/2 1/1/2
f 5/2/3 7/3/3 4/3/3
f 7/3/3 5/2/3 8/2/3
f 5/2/4 9/2/4 8/2/4
f 3/2/4 9/2/4 5/2/4
f 3/2/4 5/2/4 2/2/4
f 10/2/4 9/2/4 3/2/4
f 9/2/4 10/2/4 11/2/4
f 10/2/5 6/3/5 12/3/5
f 6/3/5 10/2/5 1/1/5
f 1/1/5 10/2/5 3/2/5
f 15/4/6 14/5/6 13/4/6
f 18/4/9 17/6/8 16/4/7
f 21/4/10 20/7/10 19/7/10
f 20/7/10 21/4/10 16/4/10
f 20/7/10 16/4/10 17/6/10
f 14/5/11 19/7/11 22/7/11
f 19/7/11 14/5/11 21/4/11
f 21/4/11 14/5/11 15/4/11
f 23/7/12 14/5/12 22/7/12
f 14/5/12 23/7/12 13/4/12
f 13/4/12 23/7/12 8/8/12
f 13/4/12 8/8/12 24/8/12
f 13/4/12 24/8/12 25/4/12
f 17/6/8 26/7/13 20/7/13
f 26/7/13 17/6/8 27/9/13
f 27/9/13 17/6/8 18/4/9
f 27/9/13 18/4/9 28/9/13
f 28/9/13 18/4/9 29/4/13
f 21/4/4 18/4/4 16/4/4
f 18/4/4 21/4/4 15/4/4
f 18/4/4 15/4/4 29/4/4
f 29/4/4 15/4/4 25/4/4
f 25/4/4 15/4/4 13/4/4
f 29/4/14 30/9/14 28/9/14
f 25/4/14 30/9/14 29/4/14
f 25/4/14 31/8/14 30/9/14
f 31/8/14 25/4/14 24/8/14
f 34/11/15 33/11/15 32/10/15
f 37/11/4 36/11/4 35/11/4
f 36/11/4 37/11/4 38/11/4
f 36/11/4 38/11/4 34/11/4
f 34/11/4 38/11/4 39/11/4
f 34/11/4 39/11/4 33/11/4
f 36/11/16 41/12/16 40/12/16
f 41/12/16 36/11/16 32/10/16
f 32/10/16 36/11/16 34/11/16
f 35/11/17 40/12/17 42/12/17
f 40/12/17 35/11/17 36/11/17
f 37/11/18 42/12/18 43/12/18
f 42/12/18 37/11/18 35/11/18
f 45/13/19 39/11/19 44/13/19
f 39/11/19 45/13/19 33/11/19
f 33/11/19 45/13/19 46/12/19
f 33/11/19 46/12/19 41/12/19
f 33/11/19 41/12/19 32/10/19
f 19/14/20 47/14/20 43/14/20
f 43/14/20 40/14/20 19/14/20
f 40/14/20 43/14/20 42/14/20
f 19/14/20 40/14/20 22/14/20
f 22/14/20 40/14/20 46/14/20
f 46/14/20 40/14/20 41/14/20
f 22/14/20 46/14/20 7/14/20
f 46/14/20 48/14/20 7/14/20
f 48/14/20 46/14/20 6/14/20
f 51/15/20 50/15/20 49/15/20
f 50/15/20 51/15/20 52/15/20
f 52/15/20 51/15/20 53/15/20
f 52/15/20 53/15/20 54/15/20
f 57/16/4 56/16/4 55/16/4
f 56/16/4 57/16/4 58/16/4
f 58/16/4 57/16/4 59/16/4
f 58/16/4 59/16/4 60/16/4
f 55/16/21 49/15/22 50/15/21
f 49/15/22 55/16/21 56/16/22
f 57/16/23 50/15/21 52/15/23
f 50/15/21 57/16/23 55/16/21
f 58/16/24 53/15/25 51/15/24
f 53/15/25 58/16/24 60/16/25
f 53/15/25 59/16/26 54/15/26
f 59/16/26 53/15/25 60/16/25
f 56/16/22 51/15/24 49/15/22
f 51/15/24 56/16/22 58/16/24
f 59/16/26 52/15/23 54/15/26
f 52/15/23 59/16/26 57/16/23
f 63/15/20 62/15/20 61/15/20
f 62/15/20 63/15/20 64/15/20
f 64/15/20 63/15/20 65/15/20
f 64/15/20 65/15/20 66/15/20
f 69/16/4 68/16/4 67/16/4
f 68/16/4 69/16/4 70/16/4
f 70/16/4 69/16/4 71/16/4
f 70/16/4 71/16/4 72/16/4
f 67/16/21 61/15/22 62/15/21
f 61/15/22 67/16/21 68/16/22
f 69/16/23 62/15/21 64/15/23
f 62/15/21 69/16/23 67/16/21
f 70/16/24 65/15/25 63/15/24
f 65/15/25 70/16/24 72/16/25
f 65/15/25 71/16/26 66/15/26
f 71/16/26 65/15/25 72/16/25
f 68/16/22 63/15/24 61/15/22
f 63/15/24 68/16/22 70/16/24
f 71/16/26 64/15/23 66/15/26
f 64/15/23 71/16/26 69/16/23
f 75/15/20 74/15/20 73/15/20
f 74/15/20 75/15/20 76/15/20
f 76/15/20 75/15/20 77/15/20
f 76/15/20 77/15/20 78/15/20
f 81/16/4 80/16/4 79/16/4
f 80/16/4 81/16/4 82/16/4
f 82/16/4 81/16/4 83/16/4
f 82/16/4 83/16/4 84/16/4
f 79/16/21 73/15/22 74/15/21
f 73/15/22 79/16/21 80/16/22
f 81/16/23 74/15/21 76/15/23
f 74/15/21 81/16/23 79/16/21
f 82/16/24 77/15/25 75/15/24
f 77/15/25 82/16/24 84/16/25
f 77/15/25 83/16/26 78/15/26
f 83/16/26 77/15/25 84/16/25
f 80/16/22 75/15/24 73/15/22
f 75/15/24 80/16/22 82/16/24
f 83/16/26 76/15/23 78/15/26
f 76/15/23 83/16/26 81/16/23
g rock-small
usemtl colormap
f 3/2/1 2/2/1 1/1/1
f 6/3/2 5/2/2 4/3/2
f 5/2/2 6/3/2 2/2/2
f 2/2/2 6/3/2 1/1/2
f 5/2/3 7/3/3 4/3/3
f 7/3/3 5/2/3 8/2/3
f 5/2/4 9/2/4 8/2/4
f 3/2/4 9/2/4 5/2/4
f 3/2/4 5/2/4 2/2/4
f 10/2/4 9/2/4 3/2/4
f 9/2/4 10/2/4 11/2/4
f 10/2/5 6/3/5 12/3/5
f 6/3/5 10/2/5 1/1/5
f 1/1/5 10/2/5 3/2/5
f 15/4/6 14/5/6 13/4/6
f 18/4/9 17/6/8 16/4/7
f 21/4/10 20/7/10 19/7/10
f 20/7/10 21/4/10 16/4/10
f 20/7/10 16/4/10 17/6/10
f 14/5/11 19/7/11 22/7/11
f 19/7/11 14/5/11 21/4/11
f 21/4/11 14/5/11 15/4/11
f 23/7/12 14/5/12 22/7/12
f 14/5/12 23/7/12 13/4/12
f 13/4/12 23/7/12 8/8/12
f 13/4/12 8/8/12 24/8/12
f 13/4/12 24/8/12 25/4/12
f 17/6/8 26/7/13 20/7/13
f 26/7/13 17/6/8 27/9/13
f 27/9/13 17/6/8 18/4/9
f 27/9/13 18/4/9 28/9/13
f 28/9/13 18/4/9 29/4/13
f 21/4/4 18/4/4 16/4/4
f 18/4/4 21/4/4 15/4/4
f 18/4/4 15/4/4 29/4/4
f 29/4/4 15/4/4 25/4/4
f 25/4/4 15/4/4 13/4/4
f 29/4/14 30/9/14 28/9/14
f 25/4/14 30/9/14 29/4/14
f 25/4/14 31/8/14 30/9/14
f 31/8/14 25/4/14 24/8/14
f 34/11/15 33/11/15 32/10/15
f 37/11/4 36/11/4 35/11/4
f 36/11/4 37/11/4 38/11/4
f 36/11/4 38/11/4 34/11/4
f 34/11/4 38/11/4 39/11/4
f 34/11/4 39/11/4 33/11/4
f 36/11/16 41/12/16 40/12/16
f 41/12/16 36/11/16 32/10/16
f 32/10/16 36/11/16 34/11/16
f 35/11/17 40/12/17 42/12/17
f 40/12/17 35/11/17 36/11/17
f 37/11/18 42/12/18 43/12/18
f 42/12/18 37/11/18 35/11/18
f 45/13/19 39/11/19 44/13/19
f 39/11/19 45/13/19 33/11/19
f 33/11/19 45/13/19 46/12/19
f 33/11/19 46/12/19 41/12/19
f 33/11/19 41/12/19 32/10/19
f 19/14/20 47/14/20 43/14/20
f 43/14/20 40/14/20 19/14/20
f 40/14/20 43/14/20 42/14/20
f 19/14/20 40/14/20 22/14/20
f 22/14/20 40/14/20 46/14/20
f 46/14/20 40/14/20 41/14/20
f 22/14/20 46/14/20 7/14/20
f 46/14/20 48/14/20 7/14/20
f 48/14/20 46/14/20 6/14/20
f 51/15/20 50/15/20 49/15/20
f 50/15/20 51/15/20 52/15/20
f 52/15/20 51/15/20 53/15/20
f 52/15/20 53/15/20 54/15/20
f 57/16/4 56/16/4 55/16/4
f 56/16/4 57/16/4 58/16/4
f 58/16/4 57/16/4 59/16/4
f 58/16/4 59/16/4 60/16/4
f 55/16/21 49/15/22 50/15/21
f 49/15/22 55/16/21 56/16/22
f 57/16/23 50/15/21 52/15/23
f 50/15/21 57/16/23 55/16/21
f 58/16/24 53/15/25 51/15/24
f 53/15/25 58/16/24 60/16/25
f 53/15/25 59/16/26 54/15/26
f 59/16/26 53/15/25 60/16/25
f 56/16/22 51/15/24 49/15/22
f 51/15/24 56/16/22 58/16/24
f 59/16/26 52/15/23 54/15/26
f 52/15/23 59/16/26 57/16/23
f 63/15/20 62/15/20 61/15/20
f 62/15/20 63/15/20 64/15/20
f 64/15/20 63/15/20 65/15/20
f 64/15/20 65/15/20 66/15/20
f 69/16/4 68/16/4 67/16/4
f 68/16/4 69/16/4 70/16/4
f 70/16/4 69/16/4 71/16/4
f 70/16/4 71/16/4 72/16/4
f 67/16/21 61/15/22 62/15/21
f 61/15/22 67/16/21 68/16/22
f 69/16/23 62/15/21 64/15/23
f 62/15/21 69/16/23 67/16/21
f 70/16/24 65/15/25 63/15/24
f 65/15/25 70/16/24 72/16/25
f 65/15/25 71/16/26 66/15/26
f 71/16/26 65/15/25 72/16/25
f 68/16/22 63/15/24 61/15/22
f 63/15/24 68/16/22 70/16/24
f 71/16/26 64/15/23 66/15/26
f 64/15/23 71/16/26 69/16/23
f 75/15/20 74/15/20 73/15/20
f 74/15/20 75/15/20 76/15/20
f 76/15/20 75/15/20 77/15/20
f 76/15/20 77/15/20 78/15/20
f 81/16/4 80/16/4 79/16/4
f 80/16/4 81/16/4 82/16/4
f 82/16/4 81/16/4 83/16/4
f 82/16/4 83/16/4 84/16/4
f 79/16/21 73/15/22 74/15/21
f 73/15/22 79/16/21 80/16/22
f 81/16/23 74/15/21 76/15/23
f 74/15/21 81/16/23 79/16/21
f 82/16/24 77/15/25 75/15/24
f 77/15/25 82/16/24 84/16/25
f 77/15/25 83/16/26 78/15/26
f 83/16/26 77/15/25 84/16/25
f 80/16/22 75/15/24 73/15/22
f 75/15/24 80/16/22 82/16/24
f 83/16/26 76/15/23 78/15/26
f 76/15/23 83/16/26 81/16/23
