mtllib rock-large.mtl
g rock-large
v -0.58875 0.27546 0.23482
v -0.46118 0.27546 0.45447
v -0.7106 0.13773 0.3574
v -0.056895 2.5912e-18 0.53294
v -0.32085 5.1825e-18 0.72471
v -0.14074 0.27546 0.42557
v -0.32085 0.27546 0.55643
v -0.79907 5.1825e-18 0.37726
v -0.6164 5.1825e-18 -0.18492
v -0.50705 0.27546 -0.016636
v -0.36843 0.27546 -0.016636
v -0.38965 0.27546 0.048688
v -0.20609 0.27546 0.3781
v -0.15455 0.27546 0.2195
v -0.46217 2.5912e-18 -0.18492
v -0.35373 0.092121 -0.12864
v 0.20644 0.76187 0.088375
v 0.26961 0.60361 0.061692
v 0.25227 0.76187 0.088375
v 0.31659 0.76187 0.28635
v 0.45076 0.13773 0.38358
v 0.27854 0.76187 0.40347
v -0.074356 0.76187 0.21871
v -0.11985 0.76187 0.35874
v -0.15455 0.27546 0.2195
v -0.20609 0.27546 0.3781
v 0.11013 0.76187 0.52583
v -0.023656 0.76187 0.25555
v 0.11013 0 0.65429
v -0.14074 0.27546 0.42557
v 0.47518 0 0.38906
v 0.29754 0.43418 0.061965
v 0.32745 0.43418 0.154
v 0.43428 7.9705e-21 0.26318
v 0.38774 0.43418 -0.43908
v 0.5578 0.13773 -0.56662
v 0.53685 0.43418 -0.24849
v 0.0083136 0 -0.62588
v 0.59631 0 -0.62588
v -0.0094258 0.18026 -0.54832
v 0.061563 0.43418 -0.43908
v 0.60266 0.43418 -0.045953
v 0.32745 0.43418 0.154
v 0.32208 0.43418 0.044139
v 0.29754 0.43418 0.061965
v 0.19002 0.43418 -0.3623
v 0.036612 0.43418 -0.3623
v 0.0063619 0.35456 -0.37196
v 0.79907 0 -0.0018574
v 0.43428 7.9705e-21 0.26318
v -0.42868 0.52569 -0.48197
v -0.46118 0.087226 -0.70339
v -0.27139 0.52569 -0.59625
v -0.61446 0 -0.29556
v -0.4794 0.52569 -0.32589
v -0.46217 2.5912e-18 -0.18492
v -0.35373 0.092121 -0.12864
v -0.28437 0.52569 -0.1842
v -0.47503 0 -0.72471
v -0.023799 0 -0.72471
v -0.10728 0.52569 -0.59625
v -0.027651 0.52569 -0.35119
v 0.0063619 0.35456 -0.37196
v -0.23011 0.52569 -0.35119
v -0.35771 0.52569 0.041516
v -0.21529 1.1628 -0.16476
v -0.21529 1.1628 0.067643
v 0.19002 0.43418 -0.3623
v 0.32208 0.43418 0.044139
v 0.13254 1.1628 -0.27384
v 0.22907 1.1628 0.023258
v 0.0063619 0.35456 -0.37196
v 0.036612 0.43418 -0.3623
v -0.027651 0.52569 -0.35119
v -0.23011 0.52569 -0.35119
v -0.17985 1.1628 -0.27384
v -0.023656 0.76187 0.25555
v -0.074356 0.76187 0.21871
v -0.023656 1.1628 0.20688
v -0.15455 0.27546 0.2195
v -0.38965 0.27546 0.048688
v 0.29754 0.43418 0.061965
v 0.26961 0.60361 0.061692
v -0.28437 0.52569 -0.1842
v -0.36843 0.27546 -0.016636
v 0.47518 0 0.38906
v 0.0083136 0 -0.62588
v -0.056895 2.5912e-18 0.53294
v 0.79907 0 -0.0018574
v -0.023799 0 -0.72471
v -0.47503 0 -0.72471
v -0.32085 5.1825e-18 0.72471
v -0.46217 2.5912e-18 -0.18492
v -0.79907 5.1825e-18 0.37726
v -0.6164 5.1825e-18 -0.18492
v -0.69775 0 -0.20525
v -0.69775 0 -0.30525
v -0.78435 0 -0.15525
v -0.78435 0 -0.35525
v -0.87095 0 -0.20525
v -0.87095 0 -0.30525
v -0.73066 0.1 -0.28625
v -0.73066 0.1 -0.22425
v -0.78435 0.1 -0.31725
v -0.78435 0.1 -0.19325
v -0.83804 0.1 -0.28625
v -0.83804 0.1 -0.22425
v -0.0001389 0 0.77385
v -0.0001389 0 0.67385
v -0.086741 0 0.82385
v -0.086741 0 0.62385
v -0.17334 0 0.77385
v -0.17334 0 0.67385
v -0.033048 0.1 0.69285
v -0.033048 0.1 0.75485
v -0.086741 0.1 0.66185
v -0.086741 0.1 0.78585
v -0.14044 0.1 0.69285
v -0.14044 0.1 0.75485
v 0.71508 0 0.34156
v 0.71508 0 0.24156
v 0.62848 0 0.39156
v 0.62848 0 0.19156
v 0.54188 0 0.34156
v 0.54188 0 0.24156
v 0.68217 0.1 0.26056
v 0.68217 0.1 0.32256
v 0.62848 0.1 0.22956
v 0.62848 0.1 0.35356
v 0.57479 0.1 0.26056
v 0.57479 0.1 0.32256
v -0.17003 0.27546 0.23477
v -0.17003 0.27546 0.13477
v -0.25663 0.27546 0.28477
v -0.25663 0.27546 0.084772
v -0.34323 0.27546 0.23477
v -0.34323 0.27546 0.13477
v -0.20294 0.37546 0.15377
v -0.20294 0.37546 0.21577
v -0.25663 0.37546 0.12277
v -0.25663 0.37546 0.24677
v -0.31032 0.37546 0.15377
v -0.31032 0.37546 0.21577
vn -0.55034 0.77134 0.31963
vn 0.52694 0.44307 0.72527
vn -0.52694 0.44307 0.72527
vn -0.82756 0.4928 -0.26889
vn 0 1 0
vn 0 0.52132 -0.85336
vn 0 0.16626 -0.98608
vn 0.9221 0.2449 0.29961
vn -0.93965 0.15443 -0.30531
vn -0.58239 0.13516 0.80159
vn 0.58239 0.13516 0.80159
vn 0.93965 0.15443 -0.30531
vn 0.6401 0.58266 -0.50079
vn 0 0.39519 -0.9186
vn -0.88339 0.37045 -0.28703
vn 0.88339 0.37045 -0.28703
vn 0.55512 0.32871 0.76406
vn -0.53559 0.41197 -0.73718
vn -0.57663 0.19394 0.79366
vn -0.92755 0.22094 -0.30138
vn 0.92755 0.22094 -0.30138
vn 0 0.23738 -0.97142
vn -0.95335 0.12399 -0.27524
vn -0.96973 0.15593 -0.18789
vn -0.97592 0.21815 0
vn 0.94509 0.11184 -0.30708
vn 0 0.12051 -0.99271
vn -0.58497 0.097744 0.80514
vn 0.58497 0.097744 0.80514
vn -0.94509 0.11184 -0.30708
vn 0 -1 0
vn 0.80955 0.35522 -0.46739
vn 0.80955 0.35522 0.46739
vn 0 0.35522 -0.93478
vn 0 0.35522 0.93478
vn -0.80955 0.35522 0.46739
vn -0.80955 0.35522 -0.46739
vt 0.21875 0.34185
vt 0.21875 0.32571
vt 0.21875 0.30956
vt 0.21875 0.32036
vt 0.21875 0.41876
vt 0.21875 0.38968
vt 0.21875 0.30407
vt 0.21875 0.32938
vt 0.21875 0.27877
vt 0.21875 0.35855
vt 0.21875 0.44033
vt 0.21875 0.39246
vt 0.21875 0.37022
vt 0.21875 0.39933
vt 0.21875 0.42748
vt 0.21875 0.37398
vt 0.21875 0.34641
vt 0.21875 0.34092
vt 0.21875 0.34672
vt 0.21875 0.35226
vt 0.21875 0.36322
vt 0.21875 0.40626
vt 0.21875 0.44882
vt 0.21875 0.40015
vt 0.21875 0.39483
vt 0.21875 0.42204
vt 0.21875 0.38954
vt 0.21875 0.41147
vt 0.21875 0.3773
vt 0.21875 0.39007
vt 0.21875 0.39016
vt 0.21875 0.42124
vt 0.21875 0.45241
vt 0.21875 0.325
vt 0.21875 0.425
usemtl colormap
f 3/2/1 2/1/1 1/1/1
f 6/1/2 5/3/2 4/3/2
f 5/3/2 6/1/2 7/1/2
f 7/1/3 8/3/3 5/3/3
f 8/3/3 7/1/3 3/2/3
f 3/2/3 7/1/3 2/1/3
f 8/3/4 10/1/4 9/3/4
f 10/1/4 8/3/4 1/1/4
f 1/1/4 8/3/4 3/2/4
f 10/1/5 12/1/5 11/1/5
f 12/1/5 10/1/5 2/1/5
f 2/1/5 10/1/5 1/1/5
f 7/1/5 12/1/5 2/1/5
f 13/1/5 12/1/5 7/1/5
f 7/1/5 6/1/5 13/1/5
f 12/1/5 13/1/5 14/1/5
f 9/3/6 16/4/6 15/3/6
f 16/4/6 9/3/6 10/1/6
f 16/4/6 10/1/6 11/1/6
f 19/5/7 18/6/7 17/5/7
f 22/5/8 21/7/8 20/5/8
f 25/8/9 24/5/9 23/5/9
f 24/5/9 25/8/9 26/8/9
f 19/5/5 22/5/5 20/5/5
f 22/5/5 19/5/5 27/5/5
f 27/5/5 19/5/5 17/5/5
f 27/5/5 17/5/5 28/5/5
f 27/5/5 28/5/5 24/5/5
f 24/5/5 28/5/5 23/5/5
f 27/5/10 4/9/10 29/9/10
f 4/9/10 27/5/10 30/8/10
f 24/5/10 30/8/10 27/5/10
f 30/8/10 24/5/10 26/8/10
f 21/7/11 29/9/11 31/9/11
f 29/9/11 21/7/11 27/5/11
f 27/5/11 21/7/11 22/5/11
f 19/5/12 32/10/12 18/6/12
f 32/10/12 19/5/12 33/10/12
f 33/10/12 19/5/12 20/5/12
f 33/10/12 20/5/12 34/9/12
f 34/9/12 20/5/12 31/9/12
f 31/9/12 20/5/12 21/7/12
f 37/11/13 36/12/13 35/11/13
f 40/14/14 39/13/14 38/13/14
f 39/13/14 40/14/14 36/12/14
f 36/12/14 40/14/14 35/11/14
f 35/11/14 40/14/14 41/11/14
f 37/11/5 43/11/5 42/11/5
f 43/11/5 37/11/5 35/11/5
f 43/11/5 35/11/5 44/11/5
f 45/11/5 43/11/5 44/11/5
f 44/11/5 35/11/5 46/11/5
f 46/11/5 35/11/5 41/11/5
f 46/11/5 41/11/5 47/11/5
f 48/15/15 41/11/15 40/14/15
f 41/11/15 48/15/15 47/11/15
f 36/12/16 49/13/16 39/13/16
f 49/13/16 36/12/16 37/11/16
f 49/13/16 37/11/16 42/11/16
f 42/11/17 50/13/17 49/13/17
f 50/13/17 42/11/17 43/11/17
f 53/16/18 52/17/18 51/16/18
f 56/18/19 55/16/19 54/18/19
f 55/16/19 56/18/19 57/19/19
f 55/16/19 57/19/19 58/16/19
f 54/18/20 52/17/20 59/18/20
f 52/17/20 54/18/20 51/16/20
f 51/16/20 54/18/20 55/16/20
f 61/16/21 38/18/21 60/18/21
f 38/18/21 61/16/21 40/20/21
f 40/20/21 61/16/21 62/16/21
f 40/20/21 62/16/21 63/21/21
f 61/16/5 64/16/5 62/16/5
f 64/16/5 61/16/5 53/16/5
f 64/16/5 53/16/5 58/16/5
f 58/16/5 53/16/5 51/16/5
f 58/16/5 51/16/5 55/16/5
f 52/17/22 60/18/22 59/18/22
f 60/18/22 52/17/22 61/16/22
f 61/16/22 52/17/22 53/16/22
f 67/23/25 66/23/24 65/22/23
f 70/23/26 69/24/26 68/24/26
f 69/24/26 70/23/26 71/23/26
f 74/22/27 73/24/27 72/25/27
f 73/24/27 74/22/27 68/24/27
f 68/24/27 74/22/27 70/23/27
f 70/23/27 74/22/27 75/22/27
f 70/23/27 75/22/27 76/23/27
f 79/23/28 78/26/28 77/26/28
f 67/23/28 78/26/28 79/23/28
f 65/22/28 78/26/28 67/23/28
f 65/22/28 80/27/28 78/26/28
f 80/27/28 65/22/28 81/27/28
f 71/23/29 82/24/29 69/24/29
f 82/24/29 71/23/29 83/28/29
f 83/28/29 71/23/29 17/26/29
f 17/26/29 71/23/29 77/26/29
f 77/26/29 71/23/29 79/23/29
f 70/23/5 79/23/5 71/23/5
f 79/23/5 70/23/5 76/23/5
f 79/23/5 76/23/5 67/23/5
f 67/23/5 76/23/5 66/23/5
f 84/22/30 76/23/30 75/22/30
f 76/23/30 84/22/30 66/23/24
f 66/23/24 84/22/30 57/29/30
f 66/23/24 57/29/30 65/22/23
f 65/22/23 57/29/30 85/27/30
f 65/22/23 85/27/30 81/27/30
f 29/30/31 50/31/31 86/30/31
f 87/30/31 50/31/31 29/30/31
f 87/30/31 29/30/31 88/32/31
f 39/30/31 50/31/31 87/30/31
f 50/31/31 39/30/31 89/30/31
f 87/30/31 88/32/31 90/30/31
f 90/30/31 88/32/31 91/30/31
f 91/30/31 88/32/31 92/33/31
f 91/30/31 92/33/31 93/32/31
f 91/30/31 93/32/31 54/30/31
f 94/33/31 93/32/31 92/33/31
f 93/32/31 94/33/31 95/33/31
f 98/34/31 97/34/31 96/34/31
f 97/34/31 98/34/31 99/34/31
f 99/34/31 98/34/31 100/34/31
f 99/34/31 100/34/31 101/34/31
f 104/35/5 103/35/5 102/35/5
f 103/35/5 104/35/5 105/35/5
f 105/35/5 104/35/5 106/35/5
f 105/35/5 106/35/5 107/35/5
f 102/35/32 96/34/33 97/34/32
f 96/34/33 102/35/32 103/35/33
f 104/35/34 97/34/32 99/34/34
f 97/34/32 104/35/34 102/35/32
f 105/35/35 100/34/36 98/34/35
f 100/34/36 105/35/35 107/35/36
f 100/34/36 106/35/37 101/34/37
f 106/35/37 100/34/36 107/35/36
f 103/35/33 98/34/35 96/34/33
f 98/34/35 103/35/33 105/35/35
f 106/35/37 99/34/34 101/34/37
f 99/34/34 106/35/37 104/35/34
f 110/34/31 109/34/31 108/34/31
f 109/34/31 110/34/31 111/34/31
f 111/34/31 110/34/31 112/34/31
f 111/34/31 112/34/31 113/34/31
f 116/35/5 115/35/5 114/35/5
f 115/35/5 116/35/5 117/35/5
f 117/35/5 116/35/5 118/35/5
f 117/35/5 118/35/5 119/35/5
f 114/35/32 108/34/33 109/34/32
f 108/34/33 114/35/32 115/35/33
f 116/35/34 109/34/32 111/34/34
f 109/34/32 116/35/34 114/35/32
f 117/35/35 112/34/36 110/34/35
f 112/34/36 117/35/35 119/35/36
f 112/34/36 118/35/37 113/34/37
f 118/35/37 112/34/36 119/35/36
f 115/35/33 110/34/35 108/34/33
f 110/34/35 115/35/33 117/35/35
f 118/35/37 111/34/34 113/34/37
f 111/34/34 118/35/37 116/35/34
f 122/34/31 121/34/31 120/34/31
f 121/34/31 122/34/31 123/34/31
f 123/34/31 122/34/31 124/34/31
f 123/34/31 124/34/31 125/34/31
f 128/35/5 127/35/5 126/35/5
f 127/35/5 128/35/5 129/35/5
f 129/35/5 128/35/5 130/35/5
f 129/35/5 130/35/5 131/35/5
f 126/35/32 120/34/33 121/34/32
f 120/34/33 126/35/32 127/35/33
f 128/35/34 121/34/32 123/34/34
f 121/34/32 128/35/34 126/35/32
f 129/35/35 124/34/36 122/34/35
f 124/34/36 129/35/35 131/35/36
f 124/34/36 130/35/37 125/34/37
f 130/35/37 124/34/36 131/35/36
f 127/35/33 122/34/35 120/34/33
f 122/34/35 127/35/33 129/35/35
f 130/35/37 123/34/34 125/34/37
f 123/34/34 130/35/37 128/35/34
f 134/34/31 133/34/31 132/34/31
f 133/34/31 134/34/31 135/34/31
f 135/34/31 134/34/31 136/34/31
f 135/34/31 136/34/31 137/34/31
f 140/35/5 139/35/5 138/35/5
f 139/35/5 140/35/5 141/35/5
f 141/35/5 140/35/5 142/35/5
f 141/35/5 142/35/5 143/35/5
f 138/35/32 132/34/33 133/34/32
f 132/34/33 138/35/32 139/35/33
f 140/35/34 133/34/32 135/34/34
f 133/34/32 140/35/34 138/35/32
f 141/35/35 136/34/36 134/34/35
f 136/34/36 141/35/35 143/35/36
f 136/34/36 142/35/37 137/34/37
f 142/35/37 136/34/36 143/35/36
f 139/35/33 134/34/35 132/34/33
f 134/34/35 139/35/33 141/35/35
f 142/35/37 135/34/34 137/34/37
f 135/34/34 142/35/37 140/35/34
g rock-large
usemtl colormap
f 3/2/1 2/1/1 1/1/1
f 6/1/2 5/3/2 4/3/2
f 5/3/2 6/1/2 7/1/2
f 7/1/3 8/3/3 5/3/3
f 8/3/3 7/1/3 3/2/3
f 3/2/3 7/1/3 2/1/3
f 8/3/4 10/1/4 9/3/4
f 10/1/4 8/3/4 1/1/4
f 1/1/4 8/3/4 3/2/4
f 10/1/5 12/1/5 11/1/5
f 12/1/5 10/1/5 2/1/5
f 2/1/5 10/1/5 1/1/5
f 7/1/5 12/1/5 2/1/5
f 13/1/5 12/1/5 7/1/5
f 7/1/5 6/1/5 13/1/5
f 12/1/5 13/1/5 14/1/5
f 9/3/6 16/4/6 15/3/6
f 16/4/6 9/3/6 10/1/6
f 16/4/6 10/1/6 11/1/6
f 19/5/7 18/6/7 17/5/7
f 22/5/8 21/7/8 20/5/8
f 25/8/9 24/5/9 23/5/9
f 24/5/9 25/8/9 26/8/9
f 19/5/5 22/5/5 20/5/5
f 22/5/5 19/5/5 27/5/5
f 27/5/5 19/5/5 17/5/5
f 27/5/5 17/5/5 28/5/5
f 27/5/5 28/5/5 24/5/5
f 24/5/5 28/5/5 23/5/5
f 27/5/10 4/9/10 29/9/10
f 4/9/10 27/5/10 30/8/10
f 24/5/10 30/8/10 27/5/10
f 30/8/10 24/5/10 26/8/10
f 21/7/11 29/9/11 31/9/11
f 29/9/11 21/7/11 27/5/11
f 27/5/11 21/7/11 22/5/11
f 19/5/12 32/10/12 18/6/12
f 32/10/12 19/5/12 33/10/12
f 33/10/12 19/5/12 20/5/12
f 33/10/12 20/5/12 34/9/12
f 34/9/12 20/5/12 31/9/12
f 31/9/12 20/5/12 21/7/12
f 37/11/13 36/12/13 35/11/13
f 40/14/14 39/13/14 38/13/14
f 39/13/14 40/14/14 36/12/14
f 36/12/14 40/14/14 35/11/14
f 35/11/14 40/14/14 41/11/14
f 37/11/5 43/11/5 42/11/5
f 43/11/5 37/11/5 35/11/5
f 43/11/5 35/11/5 44/11/5
f 45/11/5 43/11/5 44/11/5
f 44/11/5 35/11/5 46/11/5
f 46/11/5 35/11/5 41/11/5
f 46/11/5 41/11/5 47/11/5
f 48/15/15 41/11/15 40/14/15
f 41/11/15 48/15/15 47/11/15
f 36/12/16 49/13/16 39/13/16
f 49/13/16 36/12/16 37/11/16
f 49/13/16 37/11/16 42/11/16
f 42/11/17 50/13/17 49/13/17
f 50/13/17 42/11/17 43/11/17
f 53/16/18 52/17/18 51/16/18
f 56/18/19 55/16/19 54/18/19
f 55/16/19 56/18/19 57/19/19
f 55/16/19 57/19/19 58/16/19
f 54/18/20 52/17/20 59/18/20
f 52/17/20 54/18/20 51/16/20
f 51/16/20 54/18/20 55/16/20
f 61/16/21 38/18/21 60/18/21
f 38/18/21 61/16/21 40/20/21
f 40/20/21 61/16/21 62/16/21
f 40/20/21 62/16/21 63/21/21
f 61/16/5 64/16/5 62/16/5
f 64/16/5 61/16/5 53/16/5
f 64/16/5 53/16/5 58/16/5
f 58/16/5 53/16/5 51/16/5
f 58/16/5 51/16/5 55/16/5
f 52/17/22 60/18/22 59/18/22
f 60/18/22 52/17/22 61/16/22
f 61/16/22 52/17/22 53/16/22
f 67/23/25 66/23/24 65/22/23
f 70/23/26 69/24/26 68/24/26
f 69/24/26 70/23/26 71/23/26
f 74/22/27 73/24/27 72/25/27
f 73/24/27 74/22/27 68/24/27
f 68/24/27 74/22/27 70/23/27
f 70/23/27 74/22/27 75/22/27
f 70/23/27 75/22/27 76/23/27
f 79/23/28 78/26/28 77/26/28
f 67/23/28 78/26/28 79/23/28
f 65/22/28 78/26/28 67/23/28
f 65/22/28 80/27/28 78/26/28
f 80/27/28 65/22/28 81/27/28
f 71/23/29 82/24/29 69/24/29
f 82/24/29 71/23/29 83/28/29
f 83/28/29 71/23/29 17/26/29
f 17/26/29 71/23/29 77/26/29
f 77/26/29 71/23/29 79/23/29
f 70/23/5 79/23/5 71/23/5
f 79/23/5 70/23/5 76/23/5
f 79/23/5 76/23/5 67/23/5
f 67/23/5 76/23/5 66/23/5
f 84/22/30 76/23/30 75/22/30
f 76/23/30 84/22/30 66/23/24
f 66/23/24 84/22/30 57/29/30
f 66/23/24 57/29/30 65/22/23
f 65/22/23 57/29/30 85/27/30
f 65/22/23 85/27/30 81/27/30
f 29/30/31 50/31/31 86/30/31
f 87/30/31 50/31/31 29/30/31
f 87/30/31 29/30/31 88/32/31
f 39/30/31 50/31/31 87/30/31
f 50/31/31 39/30/31 89/30/31
f 87/30/31 88/32/31 90/30/31
f 90/30/31 88/32/31 91/30/31
f 91/30/31 88/32/31 92/33/31
f 91/30/31 92/33/31 93/32/31
f 91/30/31 93/32/31 54/30/31
f 94/33/31 93/32/31 92/33/31
f 93/32/31 94/33/31 95/33/31
f 98/34/31 97/34/31 96/34/31
f 97/34/31 98/34/31 99/34/31
f 99/34/31 98/34/31 100/34/31
f 99/34/31 100/34/31 101/34/31
f 104/35/5 103/35/5 102/35/5
f 103/35/5 104/35/5 105/35/5
f 105/35/5 104/35/5 106/35/5
f 105/35/5 106/35/5 107/35/5
f 102/35/32 96/34/33 97/34/32
f 96/34/33 102/35/32 103/35/33
f 104/35/34 97/34/32 99/34/34
f 97/34/32 104/35/34 102/35/32
f 105/35/35 100/34/36 98/34/35
f 100/34/36 105/35/35 107/35/36
f 100/34/36 106/35/37 101/34/37
f 106/35/37 100/34/36 107/35/36
f 103/35/33 98/34/35 96/34/33
f 98/34/35 103/35/33 105/35/35
f 106/35/37 99/34/34 101/34/37
f 99/34/34 106/35/37 104/35/34
f 110/34/31 109/34/31 108/34/31
f 109/34/31 110/34/31 111/34/31
f 111/34/31 110/34/31 112/34/31
f 111/34/31 112/34/31 113/34/31
f 116/35/5 115/35/5 114/35/5
f 115/35/5 116/35/5 117/35/5
f 117/35/5 116/35/5 118/35/5
f 117/35/5 118/35/5 119/35/5
f 114/35/32 108/34/33 109/34/32
f 108/34/33 114/35/32 115/35/33
f 116/35/34 109/34/32 111/34/34
f 109/34/32 116/35/34 114/35/32
f 117/35/35 112/34/36 110/34/35
f 112/34/36 117/35/35 119/35/36
f 112/34/36 118/35/37 113/34/37
f 118/35/37 112/34/36 119/35/36
f 115/35/33 110/34/35 108/34/33
f 110/34/35 115/35/33 117/35/35
f 118/35/37 111/34/34 113/34/37
f 111/34/34 118/35/37 116/35/34
f 122/34/31 121/34/31 120/34/31
f 121/34/31 122/34/31 123/34/31
f 123/34/31 122/34/31 124/34/31
f 123/34/31 124/34/31 125/34/31
f 128/35/5 127/35/5 126/35/5
f 127/35/5 128/35/5 129/35/5
f 129/35/5 128/35/5 130/35/5
f 129/35/5 130/35/5 131/35/5
f 126/35/32 120/34/33 121/34/32
f 120/34/33 126/35/32 127/35/33
f 128/35/34 121/34/32 123/34/34
f 121/34/32 128/35/34 126/35/32
f 129/35/35 124/34/36 122/34/35
f 124/34/36 129/35/35 131/35/36
f 124/34/36 130/35/37 125/34/37
f 130/35/37 124/34/36 131/35/36
f 127/35/33 122/34/35 120/34/33
f 122/34/35 127/35/33 129/35/35
f 130/35/37 123/34/34 125/34/37
f 123/34/34 130/35/37 128/35/34
f 134/34/31 133/34/31 132/34/31
f 133/34/31 134/34/31 135/34/31
f 135/34/31 134/34/31 136/34/31
f 135/34/31 136/34/31 137/34/31
f 140/35/5 139/35/5 138/35/5
f 139/35/5 140/35/5 141/35/5
f 141/35/5 140/35/5 142/35/5
f 141/35/5 142/35/5 143/35/5
f 138/35/32 132/34/33 133/34/32
f 132/34/33 138/35/32 139/35/33
f 140/35/34 133/34/32 135/34/34
f 133/34/32 140/35/34 138/35/32
f 141/35/35 136/34/36 134/34/35
f 136/34/36 141/35/35 143/35/36
f 136/34/36 142/35/37 137/34/37
f 142/35/37 136/34/36 143/35/36
f 139/35/33 134/34/35 132/34/33
f 134/34/35 139/35/33 141/35/35
f 142/35/37 135/34/34 137/34/37
f 135/34/34 142/35/37 140/35/34
