mtllib roof-high-corner-round.mtl
g roof-high-corner-round
v -0.53536 -0.035355 -0.5
v -0.5 0 -0.5
v -0.57071 -3.6096e-16 -0.5
v -0.47071 0.1 -0.5
v 0.5 0 -0.5
v 0.4 0.97071 -0.5
v 0.5 1.1407 -0.5
v 0.4 1.0407 -0.5
v 0.5 0 0.5
v 5.7753e-15 0 0.5
v -0.5 0 -1.4438e-15
v 0.5 1.0407 -0.4
v 0.5 0.97071 -0.4
v 0.5 0.1 0.47071
v 0.5 -3.6096e-16 0.57071
v 0.5 -0.035355 0.53536
v 6.3528e-14 -0.035355 0.53536
v 6.0641e-14 -3.6096e-16 0.57071
v -0.53536 -0.035355 -1.4438e-15
v -0.57071 -3.6096e-16 -1.4438e-15
v -0.070711 -1.8048e-16 0.5
v -0.5 -1.8048e-16 0.070711
v 0.5 1.0407 -0.4
v 0.4 1.0407 -0.4
v 0.4 1.0407 -0.5
v 0.4 0.97071 -0.4
v 0.041207 0.1 0.47071
v -0.47071 0.1 -0.041207
v 0.5 0.97071 -0.4
v 0.4 0.97071 -0.5
v -0.47071 0.1 -0.5
v 0.5 0.1 0.47071
v -0.57071 -3.6096e-16 0
v -0.47071 0.1 -0.041207
v 0 -3.6096e-16 0.57071
v 0.041207 0.1 0.47071
v -0.070711 -1.8048e-16 0.5
v -0.5 -1.8048e-16 0.070711
vn 0 0 -1
vn 0 -1 0
vn 1 0 0
vn 0 -0.70711 0.70711
vn -0.34582 -0.66348 0.66348
vn -0.24184 -0.68612 0.68612
vn 0 -0.70711 -0.70711
vn 0.70711 -0.70711 0
vn -0.66348 -0.66348 0.34582
vn -0.70711 -0.70711 0
vn -0.68612 -0.68612 0.24184
vn -0.57735 -0.57735 0.57735
vn 0.57735 -0.57735 -0.57735
vn 0 0.38268 0.92388
vn -0.65071 0.39136 0.65071
vn -0.40825 0.8165 0.40825
vn -0.92388 0.38268 0
vn -0.42297 0.80137 0.42297
vn -0.25963 0.73425 0.62727
vn -0.62727 0.73425 0.25963
vn 0 0 1
vn -0.70711 0.70711 0
vn -1 0 0
vn 0 0.70711 0.70711
vn -0.62708 0.73425 0.26007
vn -0.26007 0.73425 0.62708
vn -0.50038 0.70657 0.50038
vt 0.71875 0.025
vt 0.71875 0.042533
vt 0.71875 0.19519
vt 0.71875 0.225
vt 0.71875 0.20747
vt 0.09375 0.025
vt 0.09375 0.20578
vt 0.09375 0.225
vt 0.09375 0.19233
vt 0.09375 0.075
vt 0.09375 0.175
usemtl colormap
f 3/1/1 2/1/1 1/1/1
f 2/1/1 3/1/1 4/2/1
f 2/1/1 4/2/1 5/1/1
f 5/1/1 4/2/1 6/3/1
f 5/1/1 6/3/1 7/4/1
f 7/4/1 6/3/1 8/5/1
f 10/1/2 5/1/2 9/1/2
f 5/1/2 10/1/2 2/1/2
f 2/1/2 10/1/2 11/1/2
f 12/5/3 5/1/3 7/4/3
f 5/1/3 12/5/3 13/3/3
f 5/1/3 13/3/3 9/1/3
f 9/1/3 13/3/3 14/2/3
f 9/1/3 14/2/3 15/1/3
f 9/1/3 15/1/3 16/1/3
f 15/6/4 17/6/5 16/6/4
f 17/6/5 15/6/4 18/6/6
f 10/6/7 16/6/7 17/6/7
f 16/6/7 10/6/7 9/6/7
f 11/6/8 1/6/8 2/6/8
f 1/6/8 11/6/8 19/6/8
f 20/6/11 1/6/10 19/6/9
f 1/6/10 20/6/11 3/6/10
f 18/6/6 19/6/9 17/6/5
f 19/6/9 18/6/6 21/6/12
f 19/6/9 21/6/12 22/6/12
f 19/6/9 22/6/12 20/6/11
f 10/6/13 19/6/13 11/6/13
f 19/6/13 10/6/13 17/6/13
f 7/8/16 24/7/15 23/7/14
f 24/7/15 7/8/16 25/7/17
f 28/6/20 27/6/19 26/9/18
f 23/7/14 26/9/21 29/9/21
f 26/9/21 23/7/14 24/7/15
f 31/6/22 26/9/18 30/9/22
f 26/9/18 31/6/22 28/6/20
f 26/9/23 25/7/17 30/9/23
f 25/7/17 26/9/23 24/7/15
f 26/9/18 32/6/24 29/9/24
f 32/6/24 26/9/18 27/6/19
f 33/10/20 4/11/22 3/10/22
f 4/11/22 33/10/20 34/11/25
f 14/11/24 35/10/19 15/10/24
f 35/10/19 14/11/24 36/11/26
f 34/11/25 35/10/19 36/11/26
f 35/10/19 34/11/25 37/10/27
f 37/10/27 34/11/25 38/10/27
f 38/10/27 34/11/25 33/10/20
g roof-high-corner-round
usemtl colormap
f 3/1/1 2/1/1 1/1/1
f 2/1/1 3/1/1 4/2/1
f 2/1/1 4/2/1 5/1/1
f 5/1/1 4/2/1 6/3/1
f 5/1/1 6/3/1 7/4/1
f 7/4/1 6/3/1 8/5/1
f 10/1/2 5/1/2 9/1/2
f 5/1/2 10/1/2 2/1/2
f 2/1/2 10/1/2 11/1/2
f 12/5/3 5/1/3 7/4/3
f 5/1/3 12/5/3 13/3/3
f 5/1/3 13/3/3 9/1/3
f 9/1/3 13/3/3 14/2/3
f 9/1/3 14/2/3 15/1/3
f 9/1/3 15/1/3 16/1/3
f 15/6/4 17/6/5 16/6/4
f 17/6/5 15/6/4 18/6/6
f 10/6/7 16/6/7 17/6/7
f 16/6/7 10/6/7 9/6/7
f 11/6/8 1/6/8 2/6/8
f 1/6/8 11/6/8 19/6/8
f 20/6/11 1/6/10 19/6/9
f 1/6/10 20/6/11 3/6/10
f 18/6/6 19/6/9 17/6/5
f 19/6/9 18/6/6 21/6/12
f 19/6/9 21/6/12 22/6/12
f 19/6/9 22/6/12 20/6/11
f 10/6/13 19/6/13 11/6/13
f 19/6/13 10/6/13 17/6/13
f 7/8/16 24/7/15 23/7/14
f 24/7/15 7/8/16 25/7/17
f 28/6/20 27/6/19 26/9/18
f 23/7/14 26/9/21 29/9/21
f 26/9/21 23/7/14 24/7/15
f 31/6/22 26/9/18 30/9/22
f 26/9/18 31/6/22 28/6/20
f 26/9/23 25/7/17 30/9/23
f 25/7/17 26/9/23 24/7/15
f 26/9/18 32/6/24 29/9/24
f 32/6/24 26/9/18 27/6/19
f 33/10/20 4/11/22 3/10/22
f 4/11/22 33/10/20 34/11/25
f 14/11/24 35/10/19 15/10/24
f 35/10/19 14/11/24 36/11/26
f 34/11/25 35/10/19 36/11/26
f 35/10/19 34/11/25 37/10/27
f 37/10/27 34/11/25 38/10/27
f 38/10/27 34/11/25 33/10/20
