mtllib roof-gable-end.mtl
g roof-gable-end
v 0.5 0.1 0.4
v 0.5 -5.4143e-16 0.4
v 0.5 -5.4143e-16 0.5
v 0.5 0.1 -0.4
v 0.5 -5.4143e-16 -0.5
v 0.5 -5.4143e-16 -0.4
v 0.475 0 -0.4
v 0.475 0.1 -0.4
v 0.475 0 0.4
v 0.475 0.1 0.4
v 0.475 0.5 0
v -0.5 0 0.5
v -0.5 0 -0.5
v -0.46844 0.10227 -0.46844
v -1.4438e-15 0.57071 0
v -0.46844 0.10227 0.46844
v 0.55 -5.4143e-16 -0.5
v 0.55 0.035355 -0.53536
v -0.53536 0.035355 -0.53536
v 0.55 0.10227 0.46844
v 0.55 0.57071 0
v 0.55 0.5 0
v 0.55 0.10227 -0.46844
v 0.55 -5.4143e-16 0.5
v 0.55 0.035355 0.53536
v -0.53536 0.035355 0.53536
v -0.53536 0.035355 -0.45
v -0.53536 0.035355 0.53536
v -0.46844 0.10227 0.46844
v 0.55 0.10227 0.46844
v 0.55 0.10227 -0.46844
v -0.53536 0.035355 -0.53536
v -0.46844 0.10227 -0.46844
v -0.53536 0.035355 -0.45
vn 1 0 0
vn 0 0 1
vn 0 0 -1
vn 0 -1 0
vn -0.70711 0.70711 0
vn 0 -0.70711 -0.70711
vn 0 0.70711 0.70711
vn 0 -0.70711 0.70711
vn -0.70711 -0.70711 0
vn 0 0.70711 -0.70711
vt 0.59375 0.060044
vt 0.59375 0.025
vt 0.21875 0.31004
vt 0.21875 0.275
vt 0.21875 0.45022
vt 0.21875 0.060841
vt 0.21875 0.225
vt 0.21875 0.025
vt 0.21875 0.03739
vt 0.21875 0.20022
vt 0.21875 0.060044
vt 0.21875 0.075
vt 0.21875 0.175
usemtl colormap
f 3/2/1 2/2/1 1/1/1
f 6/2/1 5/2/1 4/1/1
f 4/1/2 7/2/2 6/2/2
f 7/2/2 4/1/2 8/1/2
f 9/2/3 1/1/3 2/2/3
f 1/1/3 9/2/3 10/1/3
f 11/5/1 7/4/1 8/3/1
f 7/4/1 11/5/1 9/4/1
f 9/4/1 11/5/1 10/3/1
f 12/4/4 2/4/4 3/4/4
f 2/4/4 12/4/4 9/4/4
f 9/4/4 12/4/4 7/4/4
f 13/4/4 7/4/4 12/4/4
f 5/4/4 7/4/4 13/4/4
f 7/4/4 5/4/4 6/4/4
f 16/6/5 15/7/5 14/6/5
f 13/8/6 17/8/6 5/8/6
f 17/8/6 13/8/6 18/9/6
f 18/9/6 13/8/6 19/9/6
f 20/6/7 15/7/7 16/6/7
f 15/7/7 20/6/7 21/7/7
f 22/10/8 5/8/8 17/8/8
f 5/8/8 22/10/8 4/11/8
f 4/11/8 22/10/8 8/11/8
f 8/11/8 22/10/8 11/10/8
f 23/6/1 17/8/1 18/9/1
f 17/8/1 23/6/1 22/10/1
f 22/10/1 23/6/1 21/7/1
f 22/10/1 21/7/1 20/6/1
f 22/10/1 20/6/1 24/8/1
f 24/8/1 20/6/1 25/9/1
f 26/9/8 24/8/8 25/9/8
f 24/8/8 26/9/8 3/8/8
f 3/8/8 26/9/8 12/8/8
f 13/8/9 27/9/9 19/9/9
f 27/9/9 13/8/9 12/8/9
f 27/9/9 12/8/9 26/9/9
f 1/11/6 24/8/6 3/8/6
f 24/8/6 1/11/6 22/10/6
f 22/10/6 1/11/6 10/11/6
f 22/10/6 10/11/6 11/10/6
f 15/7/10 23/6/10 14/6/10
f 23/6/10 15/7/10 21/7/10
f 25/12/7 29/13/7 28/12/7
f 29/13/7 25/12/7 30/13/7
f 32/12/10 31/13/10 18/12/10
f 31/13/10 32/12/10 33/13/10
f 34/12/5 33/13/5 32/12/5
f 33/13/5 34/12/5 29/13/5
f 29/13/5 34/12/5 28/12/5
g roof-gable-end
usemtl colormap
f 3/2/1 2/2/1 1/1/1
f 6/2/1 5/2/1 4/1/1
f 4/1/2 7/2/2 6/2/2
f 7/2/2 4/1/2 8/1/2
f 9/2/3 1/1/3 2/2/3
f 1/1/3 9/2/3 10/1/3
f 11/5/1 7/4/1 8/3/1
f 7/4/1 11/5/1 9/4/1
f 9/4/1 11/5/1 10/3/1
f 12/4/4 2/4/4 3/4/4
f 2/4/4 12/4/4 9/4/4
f 9/4/4 12/4/4 7/4/4
f 13/4/4 7/4/4 12/4/4
f 5/4/4 7/4/4 13/4/4
f 7/4/4 5/4/4 6/4/4
f 16/6/5 15/7/5 14/6/5
f 13/8/6 17/8/6 5/8/6
f 17/8/6 13/8/6 18/9/6
f 18/9/6 13/8/6 19/9/6
f 20/6/7 15/7/7 16/6/7
f 15/7/7 20/6/7 21/7/7
f 22/10/8 5/8/8 17/8/8
f 5/8/8 22/10/8 4/11/8
f 4/11/8 22/10/8 8/11/8
f 8/11/8 22/10/8 11/10/8
f 23/6/1 17/8/1 18/9/1
f 17/8/1 23/6/1 22/10/1
f 22/10/1 23/6/1 21/7/1
f 22/10/1 21/7/1 20/6/1
f 22/10/1 20/6/1 24/8/1
f 24/8/1 20/6/1 25/9/1
f 26/9/8 24/8/8 25/9/8
f 24/8/8 26/9/8 3/8/8
f 3/8/8 26/9/8 12/8/8
f 13/8/9 27/9/9 19/9/9
f 27/9/9 13/8/9 12/8/9
f 27/9/9 12/8/9 26/9/9
f 1/11/6 24/8/6 3/8/6
f 24/8/6 1/11/6 22/10/6
f 22/10/6 1/11/6 10/11/6
f 22/10/6 10/11/6 11/10/6
f 15/7/10 23/6/10 14/6/10
f 23/6/10 15/7/10 21/7/10
f 25/12/7 29/13/7 28/12/7
f 29/13/7 25/12/7 30/13/7
f 32/12/10 31/13/10 18/12/10
f 31/13/10 32/12/10 33/13/10
f 34/12/5 33/13/5 32/12/5
f 33/13/5 34/12/5 29/13/5
f 29/13/5 34/12/5 28/12/5
