mtllib roof-corner-round.mtl
g roof-corner-round
v -0.5 0 -1.4438e-15
v -0.5 0 -0.5
v -0.54472 -0.022361 -1.4438e-15
v -0.54472 -0.022361 -0.5
v -0.56708 0.022361 -1.4438e-15
v -6.3528e-14 -0.022361 0.54472
v -6.3528e-14 0.022361 0.56708
v -0.56708 0.022361 -0.5
v 0.5 0 0.5
v 5.7753e-15 0 0.5
v 0.5 -0.022361 0.54472
v 0.5 0.022361 0.56708
v 0.4 0.5759 -0.5
v 0.5 0.6259 -0.5
v 0.4 0.5759 -0.4
v 0.4 0.5059 -0.4
v 0.05 0.082803 0.4462
v -0.4462 0.082803 -0.05
v 0.5 0.5759 -0.4
v 0.5 0.5059 -0.4
v 0.5 0.082803 0.4462
v 0.4 0.5059 -0.5
v -0.4462 0.082803 -0.5
v -0.4462 0.082803 -0.05
v -0.56708 0.022361 0
v 0 0.022361 0.56708
v 0.05 0.082803 0.4462
v 0.5 0 -0.5
vn 0.44721 -0.89443 0
vn -0.82371 -0.41185 0.38973
vn -0.84865 -0.42433 0.31581
vn -0.38973 -0.41185 0.82371
vn -0.31581 -0.42433 0.84865
vn -0.89443 -0.44721 0
vn 0 -0.89443 -0.44721
vn 0 -0.44721 0.89443
vn 0.40825 -0.8165 -0.40825
vn -0.85065 0.52573 0
vn -0.44721 0.89443 0
vn -0.93279 0.36042 0
vn -0.24909 0.9359 0.24909
vn -0.16048 0.90779 0.38752
vn -0.38752 0.90779 0.16048
vn 0 0.89443 0.44721
vn 0 0.52573 0.85065
vn 0 0.36042 0.93279
vn 0 0 1
vn -1 0 0
vn -0.38748 0.90779 0.16057
vn -0.16057 0.90779 0.38748
vn 0 -1 0
vn 0 0 -1
vn 1 0 0
vt 0.21875 0.025
vt 0.21875 0.032145
vt 0.21875 0.20659
vt 0.21875 0.225
vt 0.21875 0.18081
vt 0.21875 0.175
vt 0.21875 0.075
vt 0.21875 0.275
vt 0.21875 0.28215
vt 0.21875 0.30146
vt 0.21875 0.43666
vt 0.21875 0.475
vt 0.21875 0.45902
usemtl colormap
f 3/1/1 2/1/1 1/1/1
f 2/1/1 3/1/1 4/1/1
f 6/1/4 5/2/3 3/1/2
f 5/2/3 6/1/4 7/2/5
f 3/1/2 8/2/6 4/1/6
f 8/2/6 3/1/2 5/2/3
f 11/1/7 10/1/7 9/1/7
f 10/1/7 11/1/7 6/1/7
f 12/2/8 6/1/4 11/1/8
f 6/1/4 12/2/8 7/2/5
f 6/1/9 1/1/9 10/1/9
f 1/1/9 6/1/9 3/1/9
f 15/3/12 14/4/11 13/3/10
f 18/1/15 17/1/14 16/5/13
f 15/3/18 19/3/17 14/4/16
f 19/3/17 16/5/19 20/5/19
f 16/5/19 19/3/17 15/3/18
f 16/5/13 21/1/16 20/5/16
f 21/1/16 16/5/13 17/1/14
f 16/5/20 13/3/10 22/5/20
f 13/3/10 16/5/20 15/3/12
f 23/1/11 16/5/13 22/5/11
f 16/5/13 23/1/11 18/1/15
f 8/7/11 24/6/21 23/6/11
f 24/6/21 8/7/11 25/7/15
f 21/6/16 26/7/14 12/7/16
f 26/7/14 21/6/16 27/6/22
f 24/6/21 26/7/14 27/6/22
f 26/7/14 24/6/21 25/7/15
f 10/8/23 28/8/23 9/8/23
f 28/8/23 10/8/23 2/8/23
f 2/8/23 10/8/23 1/8/23
f 8/9/24 2/8/24 4/8/24
f 2/8/24 8/9/24 28/8/24
f 28/8/24 8/9/24 23/10/24
f 28/8/24 23/10/24 22/11/24
f 28/8/24 22/11/24 14/12/24
f 14/12/24 22/11/24 13/13/24
f 20/11/25 14/12/25 19/13/25
f 20/11/25 28/8/25 14/12/25
f 28/8/25 20/11/25 9/8/25
f 9/8/25 20/11/25 21/10/25
f 9/8/25 21/10/25 12/9/25
f 9/8/25 12/9/25 11/8/25
g roof-corner-round
usemtl colormap
f 3/1/1 2/1/1 1/1/1
f 2/1/1 3/1/1 4/1/1
f 6/1/4 5/2/3 3/1/2
f 5/2/3 6/1/4 7/2/5
f 3/1/2 8/2/6 4/1/6
f 8/2/6 3/1/2 5/2/3
f 11/1/7 10/1/7 9/1/7
f 10/1/7 11/1/7 6/1/7
f 12/2/8 6/1/4 11/1/8
f 6/1/4 12/2/8 7/2/5
f 6/1/9 1/1/9 10/1/9
f 1/1/9 6/1/9 3/1/9
f 15/3/12 14/4/11 13/3/10
f 18/1/15 17/1/14 16/5/13
f 15/3/18 19/3/17 14/4/16
f 19/3/17 16/5/19 20/5/19
f 16/5/19 19/3/17 15/3/18
f 16/5/13 21/1/16 20/5/16
f 21/1/16 16/5/13 17/1/14
f 16/5/20 13/3/10 22/5/20
f 13/3/10 16/5/20 15/3/12
f 23/1/11 16/5/13 22/5/11
f 16/5/13 23/1/11 18/1/15
f 8/7/11 24/6/21 23/6/11
f 24/6/21 8/7/11 25/7/15
f 21/6/16 26/7/14 12/7/16
f 26/7/14 21/6/16 27/6/22
f 24/6/21 26/7/14 27/6/22
f 26/7/14 24/6/21 25/7/15
f 10/8/23 28/8/23 9/8/23
f 28/8/23 10/8/23 2/8/23
f 2/8/23 10/8/23 1/8/23
f 8/9/24 2/8/24 4/8/24
f 2/8/24 8/9/24 28/8/24
f 28/8/24 8/9/24 23/10/24
f 28/8/24 23/10/24 22/11/24
f 28/8/24 22/11/24 14/12/24
f 14/12/24 22/11/24 13/13/24
f 20/11/25 14/12/25 19/13/25
f 20/11/25 28/8/25 14/12/25
f 28/8/25 20/11/25 9/8/25
f 9/8/25 20/11/25 21/10/25
f 9/8/25 21/10/25 12/9/25
f 9/8/25 12/9/25 11/8/25
