mtllib roof-right.mtl
g roof-right
v -0.5 0 -0.5
v -0.4 7.2191e-16 -0.5
v -0.4 0.05 -0.5
v -0.4 0.05 0.475
v -0.4 7.2191e-16 0.475
v -0.4 0.05 0.5
v -0.4 7.2191e-16 0.5
v -0.58944 -0.044721 0.4
v -0.54472 -0.022361 0.4
v -0.63416 0.044721 0.4
v -0.56708 0.022361 0.4
v -0.4462 0.082803 0.4
v 0.4 0.5618 0.4
v 0.4 0.5059 0.4
v 0.4 0.5618 0.5
v -0.63416 0.044721 0.5
v 0.4 7.2191e-16 0.475
v 0.4 0.45 0.475
v 0.4 7.2191e-16 0.5
v 0.4 0.45 0.5
v 0.4 7.2191e-16 -0.5
v 0.4 0.45 -0.5
v 0.4 7.2191e-16 -0.475
v 0.4 0.45 -0.475
v -0.58944 -0.044721 0.5
v 0.4 0.5759 0.4
v 0.4 0.6259 0.4
v 0.4 0.6259 0.5
v -0.4 0.05 -0.475
v -0.4 7.2191e-16 -0.475
v -0.54472 -0.022361 0.5
v 0.5 0.6259 0.4
v 0.5 0.6759 0.4
v 0.5 0 -0.5
v 0.5 0.5 -0.5
v 0.5 0.6759 0.5
v 0.5 0 0.5
v -0.5 0 0.5
v 0.5 0.6259 -0.5
v -0.54472 -0.022361 -0.5
v -0.56708 0.022361 -0.5
v -0.4462 0.082803 -0.5
v 0.4 0.5059 -0.5
v 0.4 0.5759 -0.5
v -0.4462 0.082803 0.4
v -0.56708 0.022361 0.4
vn 0 0 -1
vn 1 0 0
vn -0.44721 0.89443 0
vn -1 0 0
vn 0.44721 -0.89443 0
vn -0.89443 -0.44721 0
vn 0 0 1
vn 0 -1 0
vn -0.85065 0.52573 0
vt 0.21875 0.025
vt 0.59375 0.025
vt 0.21875 0.039795
vt 0.59375 0.039795
vt 0.59375 0.038233
vt 0.59375 0.031617
vt 0.59375 0.049502
vt 0.59375 0.19124
vt 0.59375 0.1747
vt 0.59375 0.15816
vt 0.59375 0.19541
vt 0.59375 0.2102
vt 0.59375 0.225
vt 0.21875 0.17295
vt 0.21875 0.15816
vt 0.21875 0.275
vt 0.21875 0.2898
vt 0.21875 0.40816
vt 0.21875 0.475
vt 0.21875 0.4602
vt 0.21875 0.42295
vt 0.21875 0.031617
vt 0.21875 0.049502
vt 0.21875 0.1747
vt 0.21875 0.2102
vt 0.21875 0.19541
vt 0.21875 0.19124
vt 0.21875 0.175
vt 0.21875 0.075
usemtl colormap
f 3/3/1 2/2/1 1/1/1
f 6/4/2 5/2/2 4/4/2
f 5/2/2 6/4/2 7/2/2
f 10/5/1 9/2/1 8/2/1
f 9/2/1 10/5/1 11/6/1
f 11/6/1 10/5/1 12/7/1
f 12/7/1 10/5/1 13/8/1
f 12/7/1 13/8/1 14/9/1
f 13/8/3 16/5/3 15/8/3
f 16/5/3 13/8/3 10/5/3
f 19/2/4 18/10/4 17/2/4
f 18/10/4 19/2/4 20/10/4
f 23/2/4 22/10/4 21/2/4
f 22/10/4 23/2/4 24/10/4
f 6/4/5 18/10/5 20/10/5
f 18/10/5 6/4/5 4/4/5
f 8/2/6 16/5/6 10/5/6
f 16/5/6 8/2/6 25/2/6
f 13/8/4 27/12/4 26/11/4
f 27/12/4 13/8/4 28/12/4
f 28/12/4 13/8/4 15/8/4
f 29/4/2 2/2/2 3/4/2
f 2/2/2 29/4/2 30/2/2
f 31/1/5 8/2/5 9/1/5
f 8/2/5 31/1/5 25/2/5
f 27/12/1 32/12/1 26/11/1
f 32/12/1 27/12/1 33/13/1
f 21/2/1 35/14/1 34/2/1
f 35/14/1 21/2/1 22/15/1
f 33/13/3 28/12/3 36/13/3
f 28/12/3 33/13/3 27/12/3
f 36/13/7 19/2/7 37/2/7
f 19/2/7 36/13/7 20/10/7
f 20/10/7 36/13/7 15/8/7
f 15/8/7 36/13/7 28/12/7
f 15/8/7 6/4/7 20/10/7
f 16/5/7 6/4/7 15/8/7
f 16/5/7 7/2/7 6/4/7
f 16/5/7 38/2/7 7/2/7
f 16/5/7 31/2/7 38/2/7
f 31/2/7 16/5/7 25/2/7
f 38/16/8 5/16/8 7/16/8
f 5/16/8 38/16/8 30/16/8
f 30/16/8 38/16/8 2/16/8
f 2/16/8 38/16/8 1/16/8
f 23/16/8 5/16/8 30/16/8
f 5/16/8 23/16/8 17/16/8
f 21/16/8 17/16/8 23/16/8
f 21/16/8 19/16/8 17/16/8
f 34/16/8 19/16/8 21/16/8
f 19/16/8 34/16/8 37/16/8
f 29/17/1 23/16/1 30/16/1
f 23/16/1 29/17/1 24/18/1
f 36/19/2 32/20/2 33/19/2
f 32/20/2 36/19/2 37/16/2
f 34/16/2 32/20/2 37/16/2
f 35/21/2 32/20/2 34/16/2
f 32/20/2 35/21/2 39/20/2
f 18/18/7 5/16/7 17/16/7
f 5/16/7 18/18/7 4/17/7
f 41/22/1 1/1/1 40/1/1
f 1/1/1 41/22/1 3/3/1
f 3/3/1 41/22/1 42/23/1
f 3/3/1 42/23/1 22/15/1
f 22/15/1 42/23/1 43/24/1
f 22/15/1 43/24/1 35/14/1
f 35/14/1 43/24/1 39/25/1
f 39/25/1 43/24/1 44/26/1
f 9/1/6 41/22/6 40/1/6
f 41/22/6 9/1/6 11/22/6
f 29/3/5 22/15/5 24/15/5
f 22/15/5 29/3/5 3/3/5
f 31/1/5 1/1/5 38/1/5
f 1/1/5 31/1/5 9/1/5
f 1/1/5 9/1/5 40/1/5
f 44/26/9 32/25/3 39/25/3
f 32/25/3 44/26/9 26/26/9
f 14/24/4 44/26/9 43/24/4
f 44/26/9 14/24/4 26/26/9
f 26/26/9 14/24/4 13/27/4
f 43/24/3 12/23/3 14/24/3
f 12/23/3 43/24/3 42/23/3
f 42/28/3 46/29/3 45/28/3
f 46/29/3 42/28/3 41/29/3
g roof-right
usemtl colormap
f 3/3/1 2/2/1 1/1/1
f 6/4/2 5/2/2 4/4/2
f 5/2/2 6/4/2 7/2/2
f 10/5/1 9/2/1 8/2/1
f 9/2/1 10/5/1 11/6/1
f 11/6/1 10/5/1 12/7/1
f 12/7/1 10/5/1 13/8/1
f 12/7/1 13/8/1 14/9/1
f 13/8/3 16/5/3 15/8/3
f 16/5/3 13/8/3 10/5/3
f 19/2/4 18/10/4 17/2/4
f 18/10/4 19/2/4 20/10/4
f 23/2/4 22/10/4 21/2/4
f 22/10/4 23/2/4 24/10/4
f 6/4/5 18/10/5 20/10/5
f 18/10/5 6/4/5 4/4/5
f 8/2/6 16/5/6 10/5/6
f 16/5/6 8/2/6 25/2/6
f 13/8/4 27/12/4 26/11/4
f 27/12/4 13/8/4 28/12/4
f 28/12/4 13/8/4 15/8/4
f 29/4/2 2/2/2 3/4/2
f 2/2/2 29/4/2 30/2/2
f 31/1/5 8/2/5 9/1/5
f 8/2/5 31/1/5 25/2/5
f 27/12/1 32/12/1 26/11/1
f 32/12/1 27/12/1 33/13/1
f 21/2/1 35/14/1 34/2/1
f 35/14/1 21/2/1 22/15/1
f 33/13/3 28/12/3 36/13/3
f 28/12/3 33/13/3 27/12/3
f 36/13/7 19/2/7 37/2/7
f 19/2/7 36/13/7 20/10/7
f 20/10/7 36/13/7 15/8/7
f 15/8/7 36/13/7 28/12/7
f 15/8/7 6/4/7 20/10/7
f 16/5/7 6/4/7 15/8/7
f 16/5/7 7/2/7 6/4/7
f 16/5/7 38/2/7 7/2/7
f 16/5/7 31/2/7 38/2/7
f 31/2/7 16/5/7 25/2/7
f 38/16/8 5/16/8 7/16/8
f 5/16/8 38/16/8 30/16/8
f 30/16/8 38/16/8 2/16/8
f 2/16/8 38/16/8 1/16/8
f 23/16/8 5/16/8 30/16/8
f 5/16/8 23/16/8 17/16/8
f 21/16/8 17/16/8 23/16/8
f 21/16/8 19/16/8 17/16/8
f 34/16/8 19/16/8 21/16/8
f 19/16/8 34/16/8 37/16/8
f 29/17/1 23/16/1 30/16/1
f 23/16/1 29/17/1 24/18/1
f 36/19/2 32/20/2 33/19/2
f 32/20/2 36/19/2 37/16/2
f 34/16/2 32/20/2 37/16/2
f 35/21/2 32/20/2 34/16/2
f 32/20/2 35/21/2 39/20/2
f 18/18/7 5/16/7 17/16/7
f 5/16/7 18/18/7 4/17/7
f 41/22/1 1/1/1 40/1/1
f 1/1/1 41/22/1 3/3/1
f 3/3/1 41/22/1 42/23/1
f 3/3/1 42/23/1 22/15/1
f 22/15/1 42/23/1 43/24/1
f 22/15/1 43/24/1 35/14/1
f 35/14/1 43/24/1 39/25/1
f 39/25/1 43/24/1 44/26/1
f 9/1/6 41/22/6 40/1/6
f 41/22/6 9/1/6 11/22/6
f 29/3/5 22/15/5 24/15/5
f 22/15/5 29/3/5 3/3/5
f 31/1/5 1/1/5 38/1/5
f 1/1/5 31/1/5 9/1/5
f 1/1/5 9/1/5 40/1/5
f 44/26/9 32/25/3 39/25/3
f 32/25/3 44/26/9 26/26/9
f 14/24/4 44/26/9 43/24/4
f 44/26/9 14/24/4 26/26/9
f 26/26/9 14/24/4 13/27/4
f 43/24/3 12/23/3 14/24/3
f 12/23/3 43/24/3 42/23/3
f 42/28/3 46/29/3 45/28/3
f 46/29/3 42/28/3 41/29/3
