mtllib tree-high.mtl
g tree-high
v 0.14432 0 0.14432
v -0.14432 0 0.14432
v 0.093808 0.17648 0.093808
v -0.093808 0.17648 0.093808
v -0.14432 0 -0.14432
v -0.093808 0.17648 -0.093808
v 0.14432 0 -0.14432
v 0.093808 0.17648 -0.093808
v -0.18252 0.34425 -0.0446
v -0.18034 0.39381 -0.0446
v -0.18252 0.34425 -0.00492
v -0.18034 0.39381 -0.00492
v -0.087281 0.32485 -0.05676
v -0.083765 0.40477 -0.05676
v -0.083765 0.40477 0.00724
v -0.087281 0.32485 0.00724
v -0.055581 1.0454 -0.055581
v 0.055581 1.0454 -0.055581
v 0.055581 1.0454 0.055581
v 0.035486 0.74646 0.068734
v -0.028514 0.74646 0.068734
v 0.022686 0.76417 0.18006
v -0.015714 0.76417 0.18006
v 0.035486 0.81039 0.065921
v 0.022686 0.80253 0.17838
v -0.028514 0.81039 0.065921
v -0.015714 0.80253 0.17838
v -0.055581 1.0454 0.055581
v -0.36317 1.3314 -2.8876e-15
v -0.2568 1.3314 0.2568
v -0.5115 1.0454 1.4438e-15
v -0.36169 1.0454 0.36169
v 0.36317 1.3314 -2.8876e-15
v 0.5115 1.0454 1.4438e-15
v 0.2568 1.3314 0.2568
v 0.36169 1.0454 0.36169
v 0.36169 1.0454 -0.36169
v 0.2568 1.3314 -0.2568
v -2.1657e-15 1.0454 0.5115
v 0.074108 1.0454 0.074108
v -0.074108 1.0454 0.074108
v 0.074108 1.0454 -0.074108
v -2.1657e-15 1.0454 -0.5115
v -0.074108 1.0454 -0.074108
v -0.36169 1.0454 -0.36169
v -0.2568 1.3314 -0.2568
v 5.0534e-15 1.3314 -0.36317
v -0.20531 1.5195 -0.20531
v 6.4972e-15 1.5195 -0.29036
v 5.0534e-15 1.3314 0.36317
v 7.941e-15 1.5195 0.29036
v -0.20531 1.5195 0.20531
v 0.20531 1.5195 -0.20531
v 0.29036 1.5195 -2.8876e-15
v -0.29036 1.5195 -2.8876e-15
v 0.20531 1.5195 0.20531
v 0.10064 2.4524 0.10064
v 4.3315e-15 2.4524 0.14233
v 2.8876e-15 2.9728 -2.8876e-15
v -0.14233 2.4524 -2.8876e-15
v -0.10064 2.4524 0.10064
v -0.10064 2.4524 -0.10064
v 4.3315e-15 2.4524 -0.14233
v 0.10064 2.4524 -0.10064
v 0.14233 2.4524 -2.8876e-15
v 2.8876e-15 2.3141 -0.20047
v 0.14175 2.3141 -0.14175
v 0.20047 2.3141 0
v -0.14175 2.3141 -0.14175
v -0.20047 2.3141 0
v 2.8876e-15 2.3141 0.20047
v -0.14175 2.3141 0.14175
v 0.14175 2.3141 0.14175
v 0.19965 1.8982 -0.19965
v 0.28235 1.8982 0
v 0.14175 2.1066 -0.14175
v 0.20047 2.1066 -2.8876e-15
v -0.14175 2.1066 -0.14175
v -0.098721 2.3141 -0.098721
v -0.20047 2.1066 -2.8876e-15
v -0.13961 2.3141 -2.8876e-15
v 5.7753e-15 2.1066 -0.20047
v 2.8876e-15 2.3141 -0.13961
v 0.098721 2.3141 -0.098721
v 0.13961 2.3141 -2.8876e-15
v 0.19965 1.8982 0.19965
v 2.8876e-15 1.8982 0.28235
v 2.8876e-15 1.8982 -0.28235
v -0.19965 1.8982 0.19965
v -0.19965 1.8982 -0.19965
v -0.28235 1.8982 0
v 0.14175 2.1066 0.14175
v 5.7753e-15 2.1066 0.20047
v -0.14175 2.1066 0.14175
v -0.098721 2.3141 0.098721
v 0.098721 2.3141 0.098721
v 1.0107e-14 2.3141 0.13961
v 4.3315e-15 1.7483 0.29053
v -0.20544 1.7483 0.20544
v 5.7753e-15 1.8982 0.23254
v -0.16443 1.8982 0.16443
v 0.28935 1.5195 0.28935
v -1.4438e-15 1.5195 0.4092
v 0.20544 1.7483 0.20544
v -0.28935 1.5195 -0.28935
v -1.4438e-15 1.5195 -0.4092
v -0.20544 1.7483 -0.20544
v 4.3315e-15 1.7483 -0.29053
v 0.28935 1.5195 -0.28935
v 0.4092 1.5195 1.4438e-15
v 0.20544 1.7483 -0.20544
v 0.29053 1.7483 -1.4438e-15
v -0.29053 1.7483 -1.4438e-15
v -0.4092 1.5195 1.4438e-15
v -0.28935 1.5195 0.28935
v -0.23254 1.8982 -4.3315e-15
v 0.23254 1.8982 -1.4438e-15
v 0.16443 1.8982 0.16443
v -0.16443 1.8982 -0.16443
v 5.7753e-15 1.8982 -0.23254
v 0.16443 1.8982 -0.16443
vn 0 0.27517 0.9614
vn 0 0.17146 0.98519
vn -0.9614 0.27517 0
vn -0.98519 0.17146 0
vn 0 0.27517 -0.9614
vn 0 0.17146 -0.98519
vn 0.9614 0.27517 0
vn 0.98519 0.17146 0
vn 0 -1 0
vn -0.99903 0.043949 0
vn -0.12554 0.0055227 -0.99207
vn -0.11283 0.99361 0
vn -0.12554 0.0055227 0.99207
vn -0.19964 -0.97987 0
vn 0 0.043949 -0.99903
vn 0.99903 0.043949 0
vn 0 -0.98758 0.1571
vn 0 0.99756 0.069772
vn -0.99353 0.0049902 0.11344
vn 0.99353 0.0049902 0.11344
vn 0 0.043949 0.99903
vn -0.90918 0.41639 0
vn -0.64289 0.41639 0.64289
vn -0.88771 0.46041 0
vn -0.6277 0.46041 0.6277
vn 0.90918 0.41639 0
vn 0.88771 0.46041 0
vn 0.64289 0.41639 0.64289
vn 0.6277 0.46041 0.6277
vn 0.6277 0.46041 -0.6277
vn 0.64289 0.41639 -0.64289
vn -0.64289 0.41639 -0.64289
vn 0 0.41639 -0.90918
vn -0.65943 0.36097 -0.65943
vn 0 0.36097 -0.93258
vn 0 0.46041 0.88771
vn 0 0.41639 0.90918
vn 0 0.36097 0.93258
vn -0.65943 0.36097 0.65943
vn 0 0.46041 -0.88771
vn 0.65943 0.36097 -0.65943
vn 0.93258 0.36097 0
vn -0.6277 0.46041 -0.6277
vn -0.93258 0.36097 0
vn 0.65943 0.36097 0.65943
vn 0.66716 0.33136 0.66716
vn 0 0.33136 0.9435
vn 0.37102 0.24501 0.89572
vn -0.9435 0.33136 0
vn -0.89572 0.24501 0.37102
vn -0.66716 0.33136 0.66716
vn -0.66716 0.33136 -0.66716
vn 0 0.33136 -0.9435
vn -0.37102 0.24501 -0.89572
vn 0.66716 0.33136 -0.66716
vn 0.37102 0.24501 -0.89572
vn -0.89572 0.24501 -0.37102
vn -0.37102 0.24501 0.89572
vn 0.89572 0.24501 0.37102
vn 0.9435 0.33136 0
vn 0.89572 0.24501 -0.37102
vn 0 0.38743 -0.9219
vn 0.65188 0.38743 -0.65188
vn 0.9219 0.38743 0
vn -0.65188 0.38743 -0.65188
vn -0.9219 0.38743 0
vn 0 0.38743 0.9219
vn -0.65188 0.38743 0.65188
vn 0.65188 0.38743 0.65188
vn 0.65813 0.3657 -0.65813
vn 0.93073 0.3657 0
vn 0.66817 0.32725 -0.66817
vn 0.94494 0.32725 0
vn -0.66817 0.32725 -0.66817
vn -0.67854 0.28139 -0.67854
vn -0.94494 0.32725 0
vn -0.95959 0.28139 0
vn 0 0.32725 -0.94494
vn 0 0.28139 -0.95959
vn 0.67854 0.28139 -0.67854
vn 0.95959 0.28139 0
vn 0.65813 0.3657 0.65813
vn 0 0.3657 0.93073
vn 0.66817 0.32725 0.66817
vn 0 0.32725 0.94494
vn -0.65813 0.3657 0.65813
vn -0.66817 0.32725 0.66817
vn -0.93073 0.3657 0
vn -0.67854 0.28139 0.67854
vn 0.67854 0.28139 0.67854
vn 0 0.28139 0.95959
vn -0.65813 0.3657 -0.65813
vn 0 0.3657 -0.93073
vt 0.59375 0.025
vt 0.59375 0.058762
vt 0.59375 0.090858
vt 0.59375 0.10034
vt 0.59375 0.087146
vt 0.59375 0.10244
vt 0.59375 0.225
vt 0.59375 0.1678
vt 0.59375 0.17119
vt 0.59375 0.18003
vt 0.59375 0.17853
vt 0.46875 0.13532
vt 0.46875 0.075
vt 0.46875 0.175
vt 0.46875 0.096002
vt 0.46875 0.1251
vt 0.46875 0.13543
usemtl colormap
f 3/2/2 2/1/1 1/1/1
f 2/1/1 3/2/2 4/2/2
f 2/1/3 6/2/4 5/1/3
f 6/2/4 2/1/3 4/2/4
f 6/2/6 7/1/5 5/1/5
f 7/1/5 6/2/6 8/2/6
f 8/2/8 1/1/7 7/1/7
f 1/1/7 8/2/8 3/2/8
f 2/1/9 7/1/9 1/1/9
f 7/1/9 2/1/9 5/1/9
f 11/3/10 10/4/10 9/3/10
f 10/4/10 11/3/10 12/4/10
f 9/3/11 14/6/11 13/5/11
f 14/6/11 9/3/11 10/4/11
f 10/4/12 15/6/12 14/6/12
f 15/6/12 10/4/12 12/4/12
f 15/6/13 11/3/13 16/5/13
f 11/3/13 15/6/13 12/4/13
f 11/3/14 13/5/14 16/5/14
f 13/5/14 11/3/14 9/3/14
f 17/7/15 8/2/6 6/2/6
f 8/2/6 17/7/15 18/7/15
f 18/7/16 3/2/8 8/2/8
f 3/2/8 18/7/16 19/7/16
f 22/9/17 21/8/17 20/8/17
f 21/8/17 22/9/17 23/9/17
f 26/10/18 25/11/18 24/10/18
f 25/11/18 26/10/18 27/11/18
f 21/8/19 27/11/19 26/10/19
f 27/11/19 21/8/19 23/9/19
f 25/11/20 20/8/20 24/10/20
f 20/8/20 25/11/20 22/9/20
f 25/11/21 23/9/21 22/9/21
f 23/9/21 25/11/21 27/11/21
f 3/2/2 20/8/21 4/2/2
f 20/8/21 3/2/2 19/7/21
f 21/8/21 4/2/2 20/8/21
f 20/8/21 19/7/21 24/10/21
f 4/2/2 21/8/21 28/7/21
f 24/10/21 19/7/21 26/10/21
f 28/7/21 21/8/21 26/10/21
f 28/7/21 26/10/21 19/7/21
f 13/5/10 4/2/4 16/5/10
f 16/5/10 4/2/4 15/6/10
f 4/2/4 13/5/10 6/2/4
f 15/6/10 4/2/4 28/7/10
f 14/6/10 6/2/4 13/5/10
f 17/7/10 15/6/10 28/7/10
f 6/2/4 14/6/10 17/7/10
f 17/7/10 14/6/10 15/6/10
f 31/13/24 30/12/23 29/12/22
f 30/12/23 31/13/24 32/13/25
f 35/12/28 34/13/27 33/12/26
f 34/13/27 35/12/28 36/13/29
f 38/12/31 34/13/27 37/13/30
f 34/13/27 38/12/31 33/12/26
f 36/13/9 37/13/9 34/13/9
f 37/13/9 36/13/9 39/13/9
f 37/13/9 39/13/9 40/13/9
f 40/13/9 39/13/9 41/13/9
f 42/13/9 37/13/9 40/13/9
f 37/13/9 42/13/9 43/13/9
f 41/13/9 39/13/9 32/13/9
f 43/13/9 42/13/9 44/13/9
f 41/13/9 32/13/9 44/13/9
f 43/13/9 44/13/9 45/13/9
f 45/13/9 44/13/9 32/13/9
f 45/13/9 32/13/9 31/13/9
f 48/14/34 47/12/33 46/12/32
f 47/12/33 48/14/34 49/14/35
f 35/12/28 39/13/36 36/13/29
f 39/13/36 35/12/28 50/12/37
f 51/14/38 30/12/23 50/12/37
f 30/12/23 51/14/38 52/14/39
f 47/12/33 37/13/30 43/13/40
f 37/13/30 47/12/33 38/12/31
f 53/14/41 33/12/26 38/12/31
f 33/12/26 53/14/41 54/14/42
f 46/12/32 43/13/40 45/13/43
f 43/13/40 46/12/32 47/12/33
f 29/12/22 48/14/34 46/12/32
f 48/14/34 29/12/22 55/14/44
f 56/14/45 33/12/26 54/14/42
f 33/12/26 56/14/45 35/12/28
f 50/12/37 32/13/25 39/13/36
f 32/13/25 50/12/37 30/12/23
f 56/14/45 50/12/37 35/12/28
f 50/12/37 56/14/45 51/14/38
f 30/12/23 55/14/44 29/12/22
f 55/14/44 30/12/23 52/14/39
f 31/13/24 46/12/32 45/13/43
f 46/12/32 31/13/24 29/12/22
f 49/14/35 38/12/31 47/12/33
f 38/12/31 49/14/35 53/14/41
f 59/14/48 58/15/47 57/15/46
f 61/15/51 59/14/50 60/15/49
f 59/14/54 63/15/53 62/15/52
f 59/14/56 64/15/55 63/15/53
f 59/14/57 62/15/52 60/15/49
f 59/14/58 61/15/51 58/15/47
f 57/15/46 65/15/60 59/14/59
f 65/15/60 64/15/55 59/14/61
f 63/15/53 67/13/63 66/13/62
f 67/13/63 63/15/53 64/15/55
f 64/15/55 68/13/64 67/13/63
f 68/13/64 64/15/55 65/15/60
f 70/13/66 62/15/52 69/13/65
f 62/15/52 70/13/66 60/15/49
f 58/15/47 72/13/68 71/13/67
f 72/13/68 58/15/47 61/15/51
f 70/13/66 61/15/51 60/15/49
f 61/15/51 70/13/66 72/13/68
f 73/13/9 67/13/9 68/13/9
f 67/13/9 73/13/9 71/13/9
f 67/13/9 71/13/9 66/13/9
f 66/13/9 71/13/9 72/13/9
f 66/13/9 72/13/9 69/13/9
f 69/13/9 72/13/9 70/13/9
f 62/15/52 66/13/62 69/13/65
f 66/13/62 62/15/52 63/15/53
f 57/15/46 68/13/64 65/15/60
f 68/13/64 57/15/46 73/13/69
f 57/15/46 71/13/67 73/13/69
f 71/13/67 57/15/46 58/15/47
f 76/16/72 75/13/71 74/13/70
f 75/13/71 76/16/72 77/16/73
f 80/16/76 79/14/75 78/16/74
f 79/14/75 80/16/76 81/14/77
f 79/14/75 82/16/78 78/16/74
f 82/16/78 79/14/75 83/14/79
f 84/14/80 77/16/73 76/16/72
f 77/16/73 84/14/80 85/14/81
f 86/13/9 74/13/9 75/13/9
f 74/13/9 86/13/9 87/13/9
f 74/13/9 87/13/9 88/13/9
f 88/13/9 87/13/9 89/13/9
f 88/13/9 89/13/9 90/13/9
f 90/13/9 89/13/9 91/13/9
f 92/16/84 87/13/83 86/13/82
f 87/13/83 92/16/84 93/16/85
f 93/16/85 89/13/86 87/13/83
f 89/13/86 93/16/85 94/16/87
f 91/13/88 94/16/87 80/16/76
f 94/16/87 91/13/88 89/13/86
f 94/16/87 81/14/77 80/16/76
f 81/14/77 94/16/87 95/14/89
f 96/14/90 93/16/85 92/16/84
f 93/16/85 96/14/90 97/14/91
f 78/16/74 88/13/93 90/13/92
f 88/13/93 78/16/74 82/16/78
f 97/14/91 94/16/87 93/16/85
f 94/16/87 97/14/91 95/14/89
f 91/13/88 78/16/74 90/13/92
f 78/16/74 91/13/88 80/16/76
f 82/16/78 74/13/70 88/13/93
f 74/13/70 82/16/78 76/16/72
f 96/14/90 77/16/73 85/14/81
f 77/16/73 96/14/90 92/16/84
f 92/16/84 75/13/71 77/16/73
f 75/13/71 92/16/84 86/13/82
f 83/14/79 76/16/72 82/16/78
f 76/16/72 83/14/79 84/14/80
f 100/14/38 99/17/23 98/17/37
f 99/17/23 100/14/38 101/14/39
f 104/17/28 103/13/36 102/13/29
f 103/13/36 104/17/28 98/17/37
f 107/17/32 106/13/40 105/13/43
f 106/13/40 107/17/32 108/17/33
f 111/17/31 110/13/27 109/13/30
f 110/13/27 111/17/31 112/17/26
f 108/17/33 109/13/30 106/13/40
f 109/13/30 108/17/33 111/17/31
f 114/13/24 99/17/23 113/17/22
f 99/17/23 114/13/24 115/13/25
f 113/17/22 101/14/39 116/14/44
f 101/14/39 113/17/22 99/17/23
f 118/14/45 112/17/26 117/14/42
f 112/17/26 118/14/45 104/17/28
f 102/13/9 109/13/9 110/13/9
f 109/13/9 102/13/9 103/13/9
f 109/13/9 103/13/9 106/13/9
f 106/13/9 103/13/9 115/13/9
f 106/13/9 115/13/9 105/13/9
f 105/13/9 115/13/9 114/13/9
f 104/17/28 110/13/27 112/17/26
f 110/13/27 104/17/28 102/13/29
f 113/17/22 119/14/34 107/17/32
f 119/14/34 113/17/22 116/14/44
f 120/14/35 111/17/31 108/17/33
f 111/17/31 120/14/35 121/14/41
f 121/14/41 112/17/26 111/17/31
f 112/17/26 121/14/41 117/14/42
f 119/14/34 108/17/33 107/17/32
f 108/17/33 119/14/34 120/14/35
f 98/17/37 115/13/25 103/13/36
f 115/13/25 98/17/37 99/17/23
f 114/13/24 107/17/32 105/13/43
f 107/17/32 114/13/24 113/17/22
f 118/14/45 98/17/37 104/17/28
f 98/17/37 118/14/45 100/14/38
g tree-high
usemtl colormap
f 3/2/2 2/1/1 1/1/1
f 2/1/1 3/2/2 4/2/2
f 2/1/3 6/2/4 5/1/3
f 6/2/4 2/1/3 4/2/4
f 6/2/6 7/1/5 5/1/5
f 7/1/5 6/2/6 8/2/6
f 8/2/8 1/1/7 7/1/7
f 1/1/7 8/2/8 3/2/8
f 2/1/9 7/1/9 1/1/9
f 7/1/9 2/1/9 5/1/9
f 11/3/10 10/4/10 9/3/10
f 10/4/10 11/3/10 12/4/10
f 9/3/11 14/6/11 13/5/11
f 14/6/11 9/3/11 10/4/11
f 10/4/12 15/6/12 14/6/12
f 15/6/12 10/4/12 12/4/12
f 15/6/13 11/3/13 16/5/13
f 11/3/13 15/6/13 12/4/13
f 11/3/14 13/5/14 16/5/14
f 13/5/14 11/3/14 9/3/14
f 17/7/15 8/2/6 6/2/6
f 8/2/6 17/7/15 18/7/15
f 18/7/16 3/2/8 8/2/8
f 3/2/8 18/7/16 19/7/16
f 22/9/17 21/8/17 20/8/17
f 21/8/17 22/9/17 23/9/17
f 26/10/18 25/11/18 24/10/18
f 25/11/18 26/10/18 27/11/18
f 21/8/19 27/11/19 26/10/19
f 27/11/19 21/8/19 23/9/19
f 25/11/20 20/8/20 24/10/20
f 20/8/20 25/11/20 22/9/20
f 25/11/21 23/9/21 22/9/21
f 23/9/21 25/11/21 27/11/21
f 3/2/2 20/8/21 4/2/2
f 20/8/21 3/2/2 19/7/21
f 21/8/21 4/2/2 20/8/21
f 20/8/21 19/7/21 24/10/21
f 4/2/2 21/8/21 28/7/21
f 24/10/21 19/7/21 26/10/21
f 28/7/21 21/8/21 26/10/21
f 28/7/21 26/10/21 19/7/21
f 13/5/10 4/2/4 16/5/10
f 16/5/10 4/2/4 15/6/10
f 4/2/4 13/5/10 6/2/4
f 15/6/10 4/2/4 28/7/10
f 14/6/10 6/2/4 13/5/10
f 17/7/10 15/6/10 28/7/10
f 6/2/4 14/6/10 17/7/10
f 17/7/10 14/6/10 15/6/10
f 31/13/24 30/12/23 29/12/22
f 30/12/23 31/13/24 32/13/25
f 35/12/28 34/13/27 33/12/26
f 34/13/27 35/12/28 36/13/29
f 38/12/31 34/13/27 37/13/30
f 34/13/27 38/12/31 33/12/26
f 36/13/9 37/13/9 34/13/9
f 37/13/9 36/13/9 39/13/9
f 37/13/9 39/13/9 40/13/9
f 40/13/9 39/13/9 41/13/9
f 42/13/9 37/13/9 40/13/9
f 37/13/9 42/13/9 43/13/9
f 41/13/9 39/13/9 32/13/9
f 43/13/9 42/13/9 44/13/9
f 41/13/9 32/13/9 44/13/9
f 43/13/9 44/13/9 45/13/9
f 45/13/9 44/13/9 32/13/9
f 45/13/9 32/13/9 31/13/9
f 48/14/34 47/12/33 46/12/32
f 47/12/33 48/14/34 49/14/35
f 35/12/28 39/13/36 36/13/29
f 39/13/36 35/12/28 50/12/37
f 51/14/38 30/12/23 50/12/37
f 30/12/23 51/14/38 52/14/39
f 47/12/33 37/13/30 43/13/40
f 37/13/30 47/12/33 38/12/31
f 53/14/41 33/12/26 38/12/31
f 33/12/26 53/14/41 54/14/42
f 46/12/32 43/13/40 45/13/43
f 43/13/40 46/12/32 47/12/33
f 29/12/22 48/14/34 46/12/32
f 48/14/34 29/12/22 55/14/44
f 56/14/45 33/12/26 54/14/42
f 33/12/26 56/14/45 35/12/28
f 50/12/37 32/13/25 39/13/36
f 32/13/25 50/12/37 30/12/23
f 56/14/45 50/12/37 35/12/28
f 50/12/37 56/14/45 51/14/38
f 30/12/23 55/14/44 29/12/22
f 55/14/44 30/12/23 52/14/39
f 31/13/24 46/12/32 45/13/43
f 46/12/32 31/13/24 29/12/22
f 49/14/35 38/12/31 47/12/33
f 38/12/31 49/14/35 53/14/41
f 59/14/48 58/15/47 57/15/46
f 61/15/51 59/14/50 60/15/49
f 59/14/54 63/15/53 62/15/52
f 59/14/56 64/15/55 63/15/53
f 59/14/57 62/15/52 60/15/49
f 59/14/58 61/15/51 58/15/47
f 57/15/46 65/15/60 59/14/59
f 65/15/60 64/15/55 59/14/61
f 63/15/53 67/13/63 66/13/62
f 67/13/63 63/15/53 64/15/55
f 64/15/55 68/13/64 67/13/63
f 68/13/64 64/15/55 65/15/60
f 70/13/66 62/15/52 69/13/65
f 62/15/52 70/13/66 60/15/49
f 58/15/47 72/13/68 71/13/67
f 72/13/68 58/15/47 61/15/51
f 70/13/66 61/15/51 60/15/49
f 61/15/51 70/13/66 72/13/68
f 73/13/9 67/13/9 68/13/9
f 67/13/9 73/13/9 71/13/9
f 67/13/9 71/13/9 66/13/9
f 66/13/9 71/13/9 72/13/9
f 66/13/9 72/13/9 69/13/9
f 69/13/9 72/13/9 70/13/9
f 62/15/52 66/13/62 69/13/65
f 66/13/62 62/15/52 63/15/53
f 57/15/46 68/13/64 65/15/60
f 68/13/64 57/15/46 73/13/69
f 57/15/46 71/13/67 73/13/69
f 71/13/67 57/15/46 58/15/47
f 76/16/72 75/13/71 74/13/70
f 75/13/71 76/16/72 77/16/73
f 80/16/76 79/14/75 78/16/74
f 79/14/75 80/16/76 81/14/77
f 79/14/75 82/16/78 78/16/74
f 82/16/78 79/14/75 83/14/79
f 84/14/80 77/16/73 76/16/72
f 77/16/73 84/14/80 85/14/81
f 86/13/9 74/13/9 75/13/9
f 74/13/9 86/13/9 87/13/9
f 74/13/9 87/13/9 88/13/9
f 88/13/9 87/13/9 89/13/9
f 88/13/9 89/13/9 90/13/9
f 90/13/9 89/13/9 91/13/9
f 92/16/84 87/13/83 86/13/82
f 87/13/83 92/16/84 93/16/85
f 93/16/85 89/13/86 87/13/83
f 89/13/86 93/16/85 94/16/87
f 91/13/88 94/16/87 80/16/76
f 94/16/87 91/13/88 89/13/86
f 94/16/87 81/14/77 80/16/76
f 81/14/77 94/16/87 95/14/89
f 96/14/90 93/16/85 92/16/84
f 93/16/85 96/14/90 97/14/91
f 78/16/74 88/13/93 90/13/92
f 88/13/93 78/16/74 82/16/78
f 97/14/91 94/16/87 93/16/85
f 94/16/87 97/14/91 95/14/89
f 91/13/88 78/16/74 90/13/92
f 78/16/74 91/13/88 80/16/76
f 82/16/78 74/13/70 88/13/93
f 74/13/70 82/16/78 76/16/72
f 96/14/90 77/16/73 85/14/81
f 77/16/73 96/14/90 92/16/84
f 92/16/84 75/13/71 77/16/73
f 75/13/71 92/16/84 86/13/82
f 83/14/79 76/16/72 82/16/78
f 76/16/72 83/14/79 84/14/80
f 100/14/38 99/17/23 98/17/37
f 99/17/23 100/14/38 101/14/39
f 104/17/28 103/13/36 102/13/29
f 103/13/36 104/17/28 98/17/37
f 107/17/32 106/13/40 105/13/43
f 106/13/40 107/17/32 108/17/33
f 111/17/31 110/13/27 109/13/30
f 110/13/27 111/17/31 112/17/26
f 108/17/33 109/13/30 106/13/40
f 109/13/30 108/17/33 111/17/31
f 114/13/24 99/17/23 113/17/22
f 99/17/23 114/13/24 115/13/25
f 113/17/22 101/14/39 116/14/44
f 101/14/39 113/17/22 99/17/23
f 118/14/45 112/17/26 117/14/42
f 112/17/26 118/14/45 104/17/28
f 102/13/9 109/13/9 110/13/9
f 109/13/9 102/13/9 103/13/9
f 109/13/9 103/13/9 106/13/9
f 106/13/9 103/13/9 115/13/9
f 106/13/9 115/13/9 105/13/9
f 105/13/9 115/13/9 114/13/9
f 104/17/28 110/13/27 112/17/26
f 110/13/27 104/17/28 102/13/29
f 113/17/22 119/14/34 107/17/32
f 119/14/34 113/17/22 116/14/44
f 120/14/35 111/17/31 108/17/33
f 111/17/31 120/14/35 121/14/41
f 121/14/41 112/17/26 111/17/31
f 112/17/26 121/14/41 117/14/42
f 119/14/34 108/17/33 107/17/32
f 108/17/33 119/14/34 120/14/35
f 98/17/37 115/13/25 103/13/36
f 115/13/25 98/17/37 99/17/23
f 114/13/24 107/17/32 105/13/43
f 107/17/32 114/13/24 113/17/22
f 118/14/45 98/17/37 104/17/28
f 98/17/37 118/14/45 100/14/38
