mtllib wall-wood-arch-top-detail.mtl
g wall-wood-arch-top-detail
v 0.5 1 0.4
v 0.5 1 0.5
v 0.4 1 0.4
v 0.4 1 0.5
v 0.5 0 0.5
v 0.5 0 0.4
v 0.4 0 0.5
v 0.4 0 0.4
v 0.425 0.79316 -0.39558
v 0.425 0.8923 -0.38253
v 0.425 0.77274 -0.29294
v 0.425 1 0.4
v 0.425 0.7391 -0.19385
v 0.425 1 -0.5
v 0.425 0.9 -0.5
v 0.425 0.77942 -0.05
v 0.425 0.71402 0.047885
v 0.425 0.69282 -0.1
v 0.425 0.56569 0.065685
v 0.425 0.63468 -0.012991
v 0.425 0.48701 0.13468
v 0.425 0.4 0.19282
v 0.425 0.30615 0.2391
v 0.425 0.34442 0.33149
v 0.425 0.23294 0.36933
v 0.425 -3.2053e-17 0.4
v 0.425 -1.607e-16 0.3
v 0.425 0.10442 0.29316
v 0.425 0.20706 0.27274
v 0.475 1 -0.5
v 0.475 0.9 -0.5
v 0.475 1 0.4
v 0.475 0.8923 -0.38253
v 0.475 0.77274 -0.29294
v 0.475 0.79316 -0.39558
v 0.475 0.7391 -0.19385
v 0.475 0.77942 -0.05
v 0.475 0.71402 0.047885
v 0.475 0.69282 -0.1
v 0.475 0.56569 0.065685
v 0.475 0.63468 -0.012991
v 0.475 0.48701 0.13468
v 0.475 0.4 0.19282
v 0.475 0.30615 0.2391
v 0.475 0.34442 0.33149
v 0.475 0.23294 0.36933
v 0.475 -5.1828e-17 0.4
v 0.475 -1.8048e-16 0.3
v 0.475 0.10442 0.29316
v 0.475 0.20706 0.27274
v 0.4 0.18117 0.17615
v 0.4 0.20706 0.27274
v 0.4 0.091368 0.19401
v 0.4 -5.4143e-16 0.2
v 0.4 -2.4665e-16 0.3
v 0.4 0.10442 0.29316
v 0.4 0.69401 -0.40863
v 0.4 0.79316 -0.39558
v 0.4 0.67615 -0.31883
v 0.4 0.77274 -0.29294
v 0.4 0.64672 -0.23212
v 0.4 0.7391 -0.19385
v 0.4 0.60622 -0.15
v 0.4 0.69282 -0.1
v 0.4 0.55535 -0.073867
v 0.4 0.63468 -0.012991
v 0.4 0.49497 -0.0050253
v 0.4 0.56569 0.065685
v 0.4 0.42613 0.055347
v 0.4 0.35 0.10622
v 0.4 0.48701 0.13468
v 0.4 0.26788 0.14672
v 0.4 0.4 0.19282
v 0.4 0.30615 0.2391
v 0.5 0.60622 -0.15
v 0.5 0.64672 -0.23212
v 0.5 0.69401 -0.40863
v 0.5 0.67615 -0.31883
v 0.5 0.79316 -0.39558
v 0.5 0.77274 -0.29294
v 0.5 0.7391 -0.19385
v 0.5 0.69282 -0.1
v 0.5 0.10442 0.29316
v 0.5 0.20706 0.27274
v 0.5 0.4 0.19282
v 0.5 0.48701 0.13468
v 0.5 0.63468 -0.012991
v 0.5 0.56569 0.065685
v 0.5 0.30615 0.2391
v 0.5 0.49497 -0.0050253
v 0.5 0.55535 -0.073867
v 0.5 -1.6376e-16 0.2
v 0.5 0.091368 0.19401
v 0.5 1.3102e-16 0.3
v 0.5 0.35 0.10622
v 0.5 0.42613 0.055347
v 0.5 0.18117 0.17615
v 0.5 0.26788 0.14672
v 0.37 0.26788 0.14672
v 0.37 0.34442 0.33149
v 0.37 0.18117 0.17615
v 0.37 0.23294 0.36933
v 0.37 0.60622 -0.15
v 0.37 0.77942 -0.05
v 0.37 0.55535 -0.073867
v 0.37 0.71402 0.047885
v 0.37 0.9 -0.5
v 0.37 0.8923 -0.38253
v 0.37 0.7 -0.5
v 0.37 0.69401 -0.40863
v 0.53 0.23294 0.36933
v 0.53 0.34442 0.33149
v 0.53 0.26788 0.14672
v 0.53 0.18117 0.17615
v 0.53 0.69401 -0.40863
v 0.53 0.8923 -0.38253
v 0.53 0.60622 -0.15
v 0.53 0.77942 -0.05
v 0.53 0.7 -0.5
v 0.53 0.55535 -0.073867
v 0.53 0.71402 0.047885
v 0.53 0.9 -0.5
vn 0 1 0
vn 0 -1 0
vn 0 0 -1
vn -1 0 0
vn 0 0 1
vn 1 0 0
vn 0 -0.89687 -0.44229
vn 0 -0.92388 -0.38268
vn 0 0.92388 0.38268
vn 0 0.89687 0.44229
vn 0 0.98079 0.19509
vn 0 0.96593 0.25882
vn 0 0.13053 -0.99144
vn 0 -0.96593 -0.25882
vn 0 -0.98079 -0.19509
vn 0 0.13053 0.99144
vn 0 0.19509 0.98079
vn 0 0.5 0.86603
vn 0 0.60876 0.79335
vn 0 0.75184 0.65935
vn 0 0.70711 0.70711
vn 0 0.44229 0.89687
vn 0 -0.70711 -0.70711
vn 0 -0.75184 -0.65935
vn 0 -0.065403 -0.99786
vn 0 -0.13053 -0.99144
vn 0 -0.5 -0.86603
vn 0 -0.60876 -0.79335
vn 0 -0.44229 -0.89687
vn 0 -0.19509 -0.98079
vn 0 0.065403 0.99786
vn 0 0.32144 0.94693
vn 0 -0.96593 0.25882
vn 0 -0.13053 0.99144
vn 0 0.92388 -0.38268
vn 0 0.5 -0.86603
vn 0 -0.32144 -0.94693
vn 0 -0.99786 -0.065403
vn 0 -0.83147 -0.55557
vn 0 -0.60876 0.79335
vn 0 0.83147 0.55557
vn 0 0.99786 0.065403
vt 0.59375 0.175
vt 0.59375 0.075
vt 0.71875 0.15432
vt 0.71875 0.16423
vt 0.71875 0.15227
vt 0.71875 0.175
vt 0.71875 0.14891
vt 0.71875 0.165
vt 0.71875 0.15294
vt 0.71875 0.1464
vt 0.71875 0.14428
vt 0.71875 0.13157
vt 0.71875 0.13847
vt 0.71875 0.1237
vt 0.71875 0.115
vt 0.71875 0.10561
vt 0.71875 0.10944
vt 0.71875 0.098294
vt 0.71875 0.075
vt 0.71875 0.085442
vt 0.71875 0.095706
vt 0.96875 0.097842
vt 0.96875 0.10111
vt 0.96875 0.08652
vt 0.96875 0.075
vt 0.96875 0.088165
vt 0.96875 0.1625
vt 0.96875 0.175
vt 0.96875 0.16025
vt 0.96875 0.17243
vt 0.96875 0.15654
vt 0.96875 0.16819
vt 0.96875 0.15143
vt 0.96875 0.16235
vt 0.96875 0.14502
vt 0.96875 0.15502
vt 0.96875 0.13741
vt 0.96875 0.14632
vt 0.96875 0.12873
vt 0.96875 0.11913
vt 0.96875 0.1364
vt 0.96875 0.10877
vt 0.96875 0.12543
vt 0.96875 0.1136
vt 0.96875 0.087062
vt 0.96875 0.097709
vt 0.96875 0.082201
vt 0.96875 0.13413
vt 0.96875 0.15823
vt 0.96875 0.12705
vt 0.96875 0.14913
vt 0.96875 0.17393
vt 0.96875 0.14718
vt 0.96875 0.14634
usemtl colormap
f 3/1/1 2/1/1 1/1/1
f 2/1/1 3/1/1 4/1/1
f 7/2/2 6/2/2 5/2/2
f 6/2/2 7/2/2 8/2/2
f 3/1/3 6/2/3 8/2/3
f 6/2/3 3/1/3 1/1/3
f 7/2/4 3/1/4 8/2/4
f 3/1/4 7/2/4 4/1/4
f 2/1/5 7/2/5 5/2/5
f 7/2/5 2/1/5 4/1/5
f 2/1/6 6/2/6 1/1/6
f 6/2/6 2/1/6 5/2/6
f 11/5/4 10/4/4 9/3/4
f 12/6/4 10/4/4 11/5/4
f 12/6/4 11/5/4 13/7/4
f 14/6/4 10/4/4 12/6/4
f 10/4/4 14/6/4 15/8/4
f 12/6/4 13/7/4 16/9/4
f 12/6/4 16/9/4 17/10/4
f 16/9/4 13/7/4 18/11/4
f 12/6/4 17/10/4 19/12/4
f 19/12/4 17/10/4 20/13/4
f 12/6/4 19/12/4 21/14/4
f 12/6/4 21/14/4 22/15/4
f 12/6/4 22/15/4 23/16/4
f 12/6/4 23/16/4 24/17/4
f 12/6/4 24/17/4 25/18/4
f 12/6/4 25/18/4 26/19/4
f 25/18/4 27/19/4 26/19/4
f 25/18/4 28/20/4 27/19/4
f 28/20/4 25/18/4 29/21/4
f 32/6/6 31/8/6 30/6/6
f 31/8/6 32/6/6 33/4/6
f 33/4/6 32/6/6 34/5/6
f 34/5/6 35/3/6 33/4/6
f 34/5/6 32/6/6 36/7/6
f 36/7/6 32/6/6 37/9/6
f 37/9/6 32/6/6 38/10/6
f 36/7/6 37/9/6 39/11/6
f 38/10/6 32/6/6 40/12/6
f 40/12/6 41/13/6 38/10/6
f 40/12/6 32/6/6 42/14/6
f 42/14/6 32/6/6 43/15/6
f 43/15/6 32/6/6 44/16/6
f 44/16/6 32/6/6 45/17/6
f 45/17/6 32/6/6 46/18/6
f 47/19/6 46/18/6 32/6/6
f 48/19/6 46/18/6 47/19/6
f 49/20/6 46/18/6 48/19/6
f 46/18/6 49/20/6 50/21/6
f 14/6/1 32/6/1 30/6/1
f 32/6/1 14/6/1 12/6/1
f 26/19/2 48/19/2 47/19/2
f 48/19/2 26/19/2 27/19/2
f 14/6/3 31/8/3 15/8/3
f 31/8/3 14/6/3 30/6/3
f 53/24/4 52/23/4 51/22/4
f 52/23/4 53/24/4 54/25/4
f 52/23/4 54/25/4 55/25/4
f 52/23/4 55/25/4 56/26/4
f 59/29/4 58/28/4 57/27/4
f 58/28/4 59/29/4 60/30/4
f 60/30/4 59/29/4 61/31/4
f 60/30/4 61/31/4 62/32/4
f 62/32/4 61/31/4 63/33/4
f 62/32/4 63/33/4 64/34/4
f 67/37/4 66/36/4 65/35/4
f 66/36/4 67/37/4 68/38/4
f 68/38/4 67/37/4 69/39/4
f 68/38/4 69/39/4 70/40/4
f 68/38/4 70/40/4 71/41/4
f 71/41/4 70/40/4 72/42/4
f 71/41/4 72/42/4 73/43/4
f 73/43/4 72/42/4 74/44/4
f 63/33/7 76/31/8 75/33/7
f 76/31/8 63/33/7 61/31/8
f 79/28/6 78/29/6 77/27/6
f 78/29/6 79/28/6 80/30/6
f 78/29/6 80/30/6 76/31/6
f 76/31/6 80/30/6 81/32/6
f 76/31/6 81/32/6 75/33/6
f 75/33/6 81/32/6 82/34/6
f 62/32/9 82/34/10 81/32/9
f 82/34/10 62/32/9 64/34/10
f 58/28/11 80/30/12 79/28/11
f 80/30/12 58/28/11 60/30/12
f 58/28/13 77/27/13 57/27/13
f 77/27/13 58/28/13 79/28/13
f 59/29/14 77/27/15 78/29/14
f 77/27/15 59/29/14 57/27/15
f 60/30/12 81/32/9 80/30/12
f 81/32/9 60/30/12 62/32/9
f 83/26/16 52/23/17 56/26/16
f 52/23/17 83/26/16 84/23/17
f 85/43/18 71/41/19 73/43/18
f 71/41/19 85/43/18 86/41/19
f 66/36/20 88/38/21 87/36/20
f 88/38/21 66/36/20 68/38/21
f 89/44/22 73/43/18 74/44/22
f 73/43/18 89/44/22 85/43/18
f 67/37/23 91/35/24 90/37/23
f 91/35/24 67/37/23 65/35/24
f 53/24/26 92/25/25 54/25/25
f 92/25/25 53/24/26 93/24/26
f 61/31/8 78/29/14 76/31/8
f 78/29/14 61/31/8 59/29/14
f 94/25/2 54/25/2 92/25/2
f 54/25/2 94/25/2 55/25/2
f 69/39/28 95/40/27 70/40/27
f 95/40/27 69/39/28 96/39/28
f 86/41/19 68/38/21 71/41/19
f 68/38/21 86/41/19 88/38/21
f 84/23/6 93/24/6 97/22/6
f 93/24/6 84/23/6 92/25/6
f 92/25/6 84/23/6 94/25/6
f 94/25/6 84/23/6 83/26/6
f 70/40/27 98/42/29 72/42/29
f 98/42/29 70/40/27 95/40/27
f 87/36/6 90/37/6 91/35/6
f 90/37/6 87/36/6 88/38/6
f 90/37/6 88/38/6 96/39/6
f 96/39/6 88/38/6 95/40/6
f 95/40/6 88/38/6 86/41/6
f 95/40/6 86/41/6 98/42/6
f 98/42/6 86/41/6 85/43/6
f 98/42/6 85/43/6 89/44/6
f 51/22/30 93/24/26 53/24/26
f 93/24/26 51/22/30 97/22/30
f 67/37/23 96/39/28 69/39/28
f 96/39/28 67/37/23 90/37/23
f 94/25/31 56/26/16 55/25/31
f 56/26/16 94/25/31 83/26/16
f 101/25/4 100/46/4 99/45/4
f 100/46/4 101/25/4 102/47/4
f 105/50/4 104/49/4 103/48/4
f 104/49/4 105/50/4 106/51/4
f 109/53/4 108/52/4 107/28/4
f 108/52/4 109/53/4 110/54/4
f 111/47/32 100/46/32 102/47/32
f 100/46/32 111/47/32 112/46/32
f 112/46/6 114/25/6 113/45/6
f 114/25/6 112/46/6 111/47/6
f 111/47/33 101/25/33 114/25/33
f 101/25/33 111/47/33 102/47/33
f 116/52/34 110/54/34 115/54/34
f 110/54/34 116/52/34 108/52/34
f 99/45/35 112/46/35 113/45/35
f 112/46/35 99/45/35 100/46/35
f 104/49/36 117/48/36 103/48/36
f 117/48/36 104/49/36 118/49/36
f 99/45/37 114/25/37 101/25/37
f 114/25/37 99/45/37 113/45/37
f 115/54/38 109/53/38 119/53/38
f 109/53/38 115/54/38 110/54/38
f 105/50/39 117/48/39 120/50/39
f 117/48/39 105/50/39 103/48/39
f 120/50/40 106/51/40 105/50/40
f 106/51/40 120/50/40 121/51/40
f 118/49/6 120/50/6 117/48/6
f 120/50/6 118/49/6 121/51/6
f 116/52/6 119/53/6 122/28/6
f 119/53/6 116/52/6 115/54/6
f 104/49/41 121/51/41 118/49/41
f 121/51/41 104/49/41 106/51/41
f 107/28/42 116/52/42 122/28/42
f 116/52/42 107/28/42 108/52/42
f 109/53/3 122/28/3 119/53/3
f 122/28/3 109/53/3 107/28/3
g wall-wood-arch-top-detail
usemtl colormap
f 3/1/1 2/1/1 1/1/1
f 2/1/1 3/1/1 4/1/1
f 7/2/2 6/2/2 5/2/2
f 6/2/2 7/2/2 8/2/2
f 3/1/3 6/2/3 8/2/3
f 6/2/3 3/1/3 1/1/3
f 7/2/4 3/1/4 8/2/4
f 3/1/4 7/2/4 4/1/4
f 2/1/5 7/2/5 5/2/5
f 7/2/5 2/1/5 4/1/5
f 2/1/6 6/2/6 1/1/6
f 6/2/6 2/1/6 5/2/6
f 11/5/4 10/4/4 9/3/4
f 12/6/4 10/4/4 11/5/4
f 12/6/4 11/5/4 13/7/4
f 14/6/4 10/4/4 12/6/4
f 10/4/4 14/6/4 15/8/4
f 12/6/4 13/7/4 16/9/4
f 12/6/4 16/9/4 17/10/4
f 16/9/4 13/7/4 18/11/4
f 12/6/4 17/10/4 19/12/4
f 19/12/4 17/10/4 20/13/4
f 12/6/4 19/12/4 21/14/4
f 12/6/4 21/14/4 22/15/4
f 12/6/4 22/15/4 23/16/4
f 12/6/4 23/16/4 24/17/4
f 12/6/4 24/17/4 25/18/4
f 12/6/4 25/18/4 26/19/4
f 25/18/4 27/19/4 26/19/4
f 25/18/4 28/20/4 27/19/4
f 28/20/4 25/18/4 29/21/4
f 32/6/6 31/8/6 30/6/6
f 31/8/6 32/6/6 33/4/6
f 33/4/6 32/6/6 34/5/6
f 34/5/6 35/3/6 33/4/6
f 34/5/6 32/6/6 36/7/6
f 36/7/6 32/6/6 37/9/6
f 37/9/6 32/6/6 38/10/6
f 36/7/6 37/9/6 39/11/6
f 38/10/6 32/6/6 40/12/6
f 40/12/6 41/13/6 38/10/6
f 40/12/6 32/6/6 42/14/6
f 42/14/6 32/6/6 43/15/6
f 43/15/6 32/6/6 44/16/6
f 44/16/6 32/6/6 45/17/6
f 45/17/6 32/6/6 46/18/6
f 47/19/6 46/18/6 32/6/6
f 48/19/6 46/18/6 47/19/6
f 49/20/6 46/18/6 48/19/6
f 46/18/6 49/20/6 50/21/6
f 14/6/1 32/6/1 30/6/1
f 32/6/1 14/6/1 12/6/1
f 26/19/2 48/19/2 47/19/2
f 48/19/2 26/19/2 27/19/2
f 14/6/3 31/8/3 15/8/3
f 31/8/3 14/6/3 30/6/3
f 53/24/4 52/23/4 51/22/4
f 52/23/4 53/24/4 54/25/4
f 52/23/4 54/25/4 55/25/4
f 52/23/4 55/25/4 56/26/4
f 59/29/4 58/28/4 57/27/4
f 58/28/4 59/29/4 60/30/4
f 60/30/4 59/29/4 61/31/4
f 60/30/4 61/31/4 62/32/4
f 62/32/4 61/31/4 63/33/4
f 62/32/4 63/33/4 64/34/4
f 67/37/4 66/36/4 65/35/4
f 66/36/4 67/37/4 68/38/4
f 68/38/4 67/37/4 69/39/4
f 68/38/4 69/39/4 70/40/4
f 68/38/4 70/40/4 71/41/4
f 71/41/4 70/40/4 72/42/4
f 71/41/4 72/42/4 73/43/4
f 73/43/4 72/42/4 74/44/4
f 63/33/7 76/31/8 75/33/7
f 76/31/8 63/33/7 61/31/8
f 79/28/6 78/29/6 77/27/6
f 78/29/6 79/28/6 80/30/6
f 78/29/6 80/30/6 76/31/6
f 76/31/6 80/30/6 81/32/6
f 76/31/6 81/32/6 75/33/6
f 75/33/6 81/32/6 82/34/6
f 62/32/9 82/34/10 81/32/9
f 82/34/10 62/32/9 64/34/10
f 58/28/11 80/30/12 79/28/11
f 80/30/12 58/28/11 60/30/12
f 58/28/13 77/27/13 57/27/13
f 77/27/13 58/28/13 79/28/13
f 59/29/14 77/27/15 78/29/14
f 77/27/15 59/29/14 57/27/15
f 60/30/12 81/32/9 80/30/12
f 81/32/9 60/30/12 62/32/9
f 83/26/16 52/23/17 56/26/16
f 52/23/17 83/26/16 84/23/17
f 85/43/18 71/41/19 73/43/18
f 71/41/19 85/43/18 86/41/19
f 66/36/20 88/38/21 87/36/20
f 88/38/21 66/36/20 68/38/21
f 89/44/22 73/43/18 74/44/22
f 73/43/18 89/44/22 85/43/18
f 67/37/23 91/35/24 90/37/23
f 91/35/24 67/37/23 65/35/24
f 53/24/26 92/25/25 54/25/25
f 92/25/25 53/24/26 93/24/26
f 61/31/8 78/29/14 76/31/8
f 78/29/14 61/31/8 59/29/14
f 94/25/2 54/25/2 92/25/2
f 54/25/2 94/25/2 55/25/2
f 69/39/28 95/40/27 70/40/27
f 95/40/27 69/39/28 96/39/28
f 86/41/19 68/38/21 71/41/19
f 68/38/21 86/41/19 88/38/21
f 84/23/6 93/24/6 97/22/6
f 93/24/6 84/23/6 92/25/6
f 92/25/6 84/23/6 94/25/6
f 94/25/6 84/23/6 83/26/6
f 70/40/27 98/42/29 72/42/29
f 98/42/29 70/40/27 95/40/27
f 87/36/6 90/37/6 91/35/6
f 90/37/6 87/36/6 88/38/6
f 90/37/6 88/38/6 96/39/6
f 96/39/6 88/38/6 95/40/6
f 95/40/6 88/38/6 86/41/6
f 95/40/6 86/41/6 98/42/6
f 98/42/6 86/41/6 85/43/6
f 98/42/6 85/43/6 89/44/6
f 51/22/30 93/24/26 53/24/26
f 93/24/26 51/22/30 97/22/30
f 67/37/23 96/39/28 69/39/28
f 96/39/28 67/37/23 90/37/23
f 94/25/31 56/26/16 55/25/31
f 56/26/16 94/25/31 83/26/16
f 101/25/4 100/46/4 99/45/4
f 100/46/4 101/25/4 102/47/4
f 105/50/4 104/49/4 103/48/4
f 104/49/4 105/50/4 106/51/4
f 109/53/4 108/52/4 107/28/4
f 108/52/4 109/53/4 110/54/4
f 111/47/32 100/46/32 102/47/32
f 100/46/32 111/47/32 112/46/32
f 112/46/6 114/25/6 113/45/6
f 114/25/6 112/46/6 111/47/6
f 111/47/33 101/25/33 114/25/33
f 101/25/33 111/47/33 102/47/33
f 116/52/34 110/54/34 115/54/34
f 110/54/34 116/52/34 108/52/34
f 99/45/35 112/46/35 113/45/35
f 112/46/35 99/45/35 100/46/35
f 104/49/36 117/48/36 103/48/36
f 117/48/36 104/49/36 118/49/36
f 99/45/37 114/25/37 101/25/37
f 114/25/37 99/45/37 113/45/37
f 115/54/38 109/53/38 119/53/38
f 109/53/38 115/54/38 110/54/38
f 105/50/39 117/48/39 120/50/39
f 117/48/39 105/50/39 103/48/39
f 120/50/40 106/51/40 105/50/40
f 106/51/40 120/50/40 121/51/40
f 118/49/6 120/50/6 117/48/6
f 120/50/6 118/49/6 121/51/6
f 116/52/6 119/53/6 122/28/6
f 119/53/6 116/52/6 115/54/6
f 104/49/41 121/51/41 118/49/41
f 121/51/41 104/49/41 106/51/41
f 107/28/42 116/52/42 122/28/42
f 116/52/42 107/28/42 108/52/42
f 109/53/3 122/28/3 119/53/3
f 122/28/3 109/53/3 107/28/3
