mtllib wall-wood-slope.mtl
g wall-wood-slope
v 0.5 0.5 -0.5
v 0.5 0.5 -0.4
v 0.4 0.5 -0.5
v 0.4 0.5 -0.4
v 0.5 0 -0.4
v 0.5 0 -0.5
v 0.4 0 -0.4
v 0.4 0 -0.5
v 0.5 1 0.4
v 0.5 1 0.5
v 0.4 1 0.4
v 0.4 1 0.5
v 0.5 0 0.5
v 0.5 0 0.4
v 0.4 0 0.5
v 0.4 0 0.4
v 0.425 0 -0.4
v 0.425 0.5 -0.4
v 0.425 0 0.4
v 0.425 0.51241 -0.31973
v 0.425 0.53069 -0.2406
v 0.425 0.55474 -0.16303
v 0.425 0.58445 -0.087433
v 0.425 0.61963 -0.014232
v 0.425 0.66011 0.05618
v 0.425 0.70567 0.12342
v 0.425 0.75 0.17948
v 0.425 0.75605 0.18713
v 0.425 0.81098 0.24695
v 0.425 0.87017 0.30257
v 0.425 0.875 0.30648
v 0.425 0.93329 0.35368
v 0.425 1 0.4
v 0.475 0.5 -0.4
v 0.475 0 -0.4
v 0.475 0.51241 -0.31973
v 0.475 0 0.4
v 0.475 0.53069 -0.2406
v 0.475 0.55474 -0.16303
v 0.475 0.58445 -0.087433
v 0.475 0.61963 -0.014232
v 0.475 0.66011 0.05618
v 0.475 0.70567 0.12342
v 0.475 0.75 0.17948
v 0.475 0.75605 0.18713
v 0.475 0.81098 0.24695
v 0.475 0.87017 0.30257
v 0.475 0.875 0.30648
v 0.475 0.93329 0.35368
v 0.475 1 0.4
vn 0 1 0
vn 0 -1 0
vn 0 0 -1
vn -1 0 0
vn 0 0 1
vn 1 0 0
vn 0 0.60023 -0.79983
vn 0 0.57036 -0.82139
vn 0 0.62928 -0.77718
vn 0 0.65748 -0.75347
vn 0 0.71116 -0.70303
vn 0 0.76099 -0.64877
vn 0 0.78437 -0.6203
vn 0 0.80668 -0.59099
vn 0 0.848 -0.53
vn 0 0.88471 -0.46613
vn 0 0.91663 -0.39974
vn 0 0.94357 -0.33118
vn 0 0.96539 -0.26082
vn 0 0.98197 -0.18904
vn 0 0.98827 -0.15275
vt 0.59375 0.175
vt 0.59375 0.075
vt 0.71875 0.075
vt 0.71875 0.125
vt 0.71875 0.12624
vt 0.71875 0.12807
vt 0.71875 0.13047
vt 0.71875 0.13344
vt 0.71875 0.13696
vt 0.71875 0.14101
vt 0.71875 0.14557
vt 0.71875 0.15
vt 0.71875 0.1506
vt 0.71875 0.1561
vt 0.71875 0.16202
vt 0.71875 0.1625
vt 0.71875 0.16833
vt 0.71875 0.175
usemtl colormap
f 3/1/1 2/1/1 1/1/1
f 2/1/1 3/1/1 4/1/1
f 7/2/2 6/2/2 5/2/2
f 6/2/2 7/2/2 8/2/2
f 3/1/3 6/2/3 8/2/3
f 6/2/3 3/1/3 1/1/3
f 7/2/4 3/1/4 8/2/4
f 3/1/4 7/2/4 4/1/4
f 2/1/5 7/2/5 5/2/5
f 7/2/5 2/1/5 4/1/5
f 2/1/6 6/2/6 1/1/6
f 6/2/6 2/1/6 5/2/6
f 11/1/1 10/1/1 9/1/1
f 10/1/1 11/1/1 12/1/1
f 15/2/2 14/2/2 13/2/2
f 14/2/2 15/2/2 16/2/2
f 11/1/3 14/2/3 16/2/3
f 14/2/3 11/1/3 9/1/3
f 15/2/4 11/1/4 16/2/4
f 11/1/4 15/2/4 12/1/4
f 10/1/5 15/2/5 13/2/5
f 15/2/5 10/1/5 12/1/5
f 10/1/6 14/2/6 9/1/6
f 14/2/6 10/1/6 13/2/6
f 19/3/4 18/4/4 17/3/4
f 18/4/4 19/3/4 20/5/4
f 20/5/4 19/3/4 21/6/4
f 21/6/4 19/3/4 22/7/4
f 22/7/4 19/3/4 23/8/4
f 23/8/4 19/3/4 24/9/4
f 24/9/4 19/3/4 25/10/4
f 25/10/4 19/3/4 26/11/4
f 26/11/4 19/3/4 27/12/4
f 27/12/4 19/3/4 28/13/4
f 28/13/4 19/3/4 29/14/4
f 29/14/4 19/3/4 30/15/4
f 30/15/4 19/3/4 31/16/4
f 31/16/4 19/3/4 32/17/4
f 32/17/4 19/3/4 33/18/4
f 36/5/6 35/3/6 34/4/6
f 35/3/6 36/5/6 37/3/6
f 37/3/6 36/5/6 38/6/6
f 37/3/6 38/6/6 39/7/6
f 37/3/6 39/7/6 40/8/6
f 37/3/6 40/8/6 41/9/6
f 37/3/6 41/9/6 42/10/6
f 37/3/6 42/10/6 43/11/6
f 37/3/6 43/11/6 44/12/6
f 37/3/6 44/12/6 45/13/6
f 37/3/6 45/13/6 46/14/6
f 37/3/6 46/14/6 47/15/6
f 37/3/6 47/15/6 48/16/6
f 37/3/6 48/16/6 49/17/6
f 37/3/6 49/17/6 50/18/6
f 33/18/8 49/17/7 32/17/7
f 49/17/7 33/18/8 50/18/8
f 48/16/9 32/17/7 49/17/7
f 32/17/7 48/16/9 31/16/9
f 47/15/10 31/16/9 48/16/9
f 31/16/9 47/15/10 30/15/10
f 30/15/10 46/14/11 29/14/11
f 46/14/11 30/15/10 47/15/10
f 28/13/12 46/14/11 45/13/12
f 46/14/11 28/13/12 29/14/11
f 45/13/12 27/12/13 28/13/12
f 27/12/13 45/13/12 44/12/13
f 44/12/13 26/11/14 27/12/13
f 26/11/14 44/12/13 43/11/14
f 25/10/15 43/11/14 42/10/15
f 43/11/14 25/10/15 26/11/14
f 24/9/16 42/10/15 41/9/16
f 42/10/15 24/9/16 25/10/15
f 23/8/17 41/9/16 40/8/17
f 41/9/16 23/8/17 24/9/16
f 22/7/18 40/8/17 39/7/18
f 40/8/17 22/7/18 23/8/17
f 21/6/19 39/7/18 38/6/19
f 39/7/18 21/6/19 22/7/18
f 20/5/20 38/6/19 36/5/20
f 38/6/19 20/5/20 21/6/19
f 18/4/21 36/5/20 34/4/21
f 36/5/20 18/4/21 20/5/20
f 19/3/2 35/3/2 37/3/2
f 35/3/2 19/3/2 17/3/2
g wall-wood-slope
usemtl colormap
f 3/1/1 2/1/1 1/1/1
f 2/1/1 3/1/1 4/1/1
f 7/2/2 6/2/2 5/2/2
f 6/2/2 7/2/2 8/2/2
f 3/1/3 6/2/3 8/2/3
f 6/2/3 3/1/3 1/1/3
f 7/2/4 3/1/4 8/2/4
f 3/1/4 7/2/4 4/1/4
f 2/1/5 7/2/5 5/2/5
f 7/2/5 2/1/5 4/1/5
f 2/1/6 6/2/6 1/1/6
f 6/2/6 2/1/6 5/2/6
f 11/1/1 10/1/1 9/1/1
f 10/1/1 11/1/1 12/1/1
f 15/2/2 14/2/2 13/2/2
f 14/2/2 15/2/2 16/2/2
f 11/1/3 14/2/3 16/2/3
f 14/2/3 11/1/3 9/1/3
f 15/2/4 11/1/4 16/2/4
f 11/1/4 15/2/4 12/1/4
f 10/1/5 15/2/5 13/2/5
f 15/2/5 10/1/5 12/1/5
f 10/1/6 14/2/6 9/1/6
f 14/2/6 10/1/6 13/2/6
f 19/3/4 18/4/4 17/3/4
f 18/4/4 19/3/4 20/5/4
f 20/5/4 19/3/4 21/6/4
f 21/6/4 19/3/4 22/7/4
f 22/7/4 19/3/4 23/8/4
f 23/8/4 19/3/4 24/9/4
f 24/9/4 19/3/4 25/10/4
f 25/10/4 19/3/4 26/11/4
f 26/11/4 19/3/4 27/12/4
f 27/12/4 19/3/4 28/13/4
f 28/13/4 19/3/4 29/14/4
f 29/14/4 19/3/4 30/15/4
f 30/15/4 19/3/4 31/16/4
f 31/16/4 19/3/4 32/17/4
f 32/17/4 19/3/4 33/18/4
f 36/5/6 35/3/6 34/4/6
f 35/3/6 36/5/6 37/3/6
f 37/3/6 36/5/6 38/6/6
f 37/3/6 38/6/6 39/7/6
f 37/3/6 39/7/6 40/8/6
f 37/3/6 40/8/6 41/9/6
f 37/3/6 41/9/6 42/10/6
f 37/3/6 42/10/6 43/11/6
f 37/3/6 43/11/6 44/12/6
f 37/3/6 44/12/6 45/13/6
f 37/3/6 45/13/6 46/14/6
f 37/3/6 46/14/6 47/15/6
f 37/3/6 47/15/6 48/16/6
f 37/3/6 48/16/6 49/17/6
f 37/3/6 49/17/6 50/18/6
f 33/18/8 49/17/7 32/17/7
f 49/17/7 33/18/8 50/18/8
f 48/16/9 32/17/7 49/17/7
f 32/17/7 48/16/9 31/16/9
f 47/15/10 31/16/9 48/16/9
f 31/16/9 47/15/10 30/15/10
f 30/15/10 46/14/11 29/14/11
f 46/14/11 30/15/10 47/15/10
f 28/13/12 46/14/11 45/13/12
f 46/14/11 28/13/12 29/14/11
f 45/13/12 27/12/13 28/13/12
f 27/12/13 45/13/12 44/12/13
f 44/12/13 26/11/14 27/12/13
f 26/11/14 44/12/13 43/11/14
f 25/10/15 43/11/14 42/10/15
f 43/11/14 25/10/15 26/11/14
f 24/9/16 42/10/15 41/9/16
f 42/10/15 24/9/16 25/10/15
f 23/8/17 41/9/16 40/8/17
f 41/9/16 23/8/17 24/9/16
f 22/7/18 40/8/17 39/7/18
f 40/8/17 22/7/18 23/8/17
f 21/6/19 39/7/18 38/6/19
f 39/7/18 21/6/19 22/7/18
f 20/5/20 38/6/19 36/5/20
f 38/6/19 20/5/20 21/6/19
f 18/4/21 36/5/20 34/4/21
f 36/5/20 18/4/21 20/5/20
f 19/3/2 35/3/2 37/3/2
f 35/3/2 19/3/2 17/3/2
