mtllib wall-rounded.mtl
g wall-rounded
v 0.5 1 -0.5
v 0.5 1 -0.4
v 0.4 1 -0.5
v 0.4 1 -0.4
v 0.5 0 -0.4
v 0.5 0 -0.5
v 0.4 0 -0.4
v 0.4 0 -0.5
v -0.4 1 0.4
v -0.4 1 0.5
v -0.5 1 0.4
v -0.5 1 0.5
v -0.4 0 0.5
v -0.4 0 0.4
v -0.5 0 0.5
v -0.5 0 0.4
v 0.475 1 -0.4
v 0.475 1 0
v 0.425 1 -0.4
v 0.47094 1 0.062
v 0.45881 1 0.12294
v 0.43884 1 0.18177
v 0.425 1 0
v 0.41136 1 0.2375
v 0.42136 1 0.055474
v 0.41052 1 0.11
v 0.37684 1 0.28916
v 0.39265 1 0.16264
v 0.36806 1 0.2125
v 0.33588 1 0.33588
v 0.33718 1 0.25872
v 0.30052 1 0.30052
v 0.28916 1 0.37684
v 0.25872 1 0.33718
v 0.2375 1 0.41136
v 0.2125 1 0.36806
v 0.18177 1 0.43884
v 0.16264 1 0.39265
v 0.12294 1 0.45881
v 0.11 1 0.41052
v 0.062 1 0.47094
v 0.055474 1 0.42136
v 0 1 0.475
v 0 1 0.425
v -0.4 1 0.475
v -0.4 1 0.425
v -0.4 0 0.425
v -0.4 0 0.475
v 0 0 0.425
v 0 0 0.475
v 0.055474 0 0.42136
v 0.062 0 0.47094
v 0.11 0 0.41052
v 0.12294 0 0.45881
v 0.16264 0 0.39265
v 0.18177 0 0.43884
v 0.2125 0 0.36806
v 0.2375 0 0.41136
v 0.25872 0 0.33718
v 0.28916 0 0.37684
v 0.30052 0 0.30052
v 0.33588 0 0.33588
v 0.33718 0 0.25872
v 0.36806 0 0.2125
v 0.37684 0 0.28916
v 0.39265 0 0.16264
v 0.41052 0 0.11
v 0.41136 0 0.2375
v 0.42136 0 0.055474
v 0.425 0 0
v 0.43884 0 0.18177
v 0.425 0 -0.4
v 0.45881 0 0.12294
v 0.47094 0 0.062
v 0.475 0 -0.4
v 0.475 0 0
vn 0 1 0
vn 0 -1 0
vn 0 0 -1
vn -1 0 0
vn 0 0 1
vn 1 0 0
vn -0.99946 0 -0.032719
vn -0.99144 0 -0.13053
vn -0.96593 0 -0.25882
vn -0.92388 0 -0.38268
vn -0.86603 0 -0.5
vn -0.79335 0 -0.60876
vn -0.70711 0 -0.70711
vn -0.60876 0 -0.79335
vn -0.5 0 -0.86603
vn -0.38268 0 -0.92388
vn -0.25882 0 -0.96593
vn -0.13053 0 -0.99144
vn -0.032719 0 -0.99946
vn 0.032719 0 0.99946
vn 0.13053 0 0.99144
vn 0.25882 0 0.96593
vn 0.38268 0 0.92388
vn 0.5 0 0.86603
vn 0.60876 0 0.79335
vn 0.70711 0 0.70711
vn 0.79335 0 0.60876
vn 0.86603 0 0.5
vn 0.92388 0 0.38268
vn 0.96593 0 0.25882
vn 0.99144 0 0.13053
vn 0.99946 0 0.032719
vt 0.59375 0.175
vt 0.59375 0.075
vt 0.21875 0.425
vt 0.21875 0.325
usemtl colormap
f 3/1/1 2/1/1 1/1/1
f 2/1/1 3/1/1 4/1/1
f 7/2/2 6/2/2 5/2/2
f 6/2/2 7/2/2 8/2/2
f 3/1/3 6/2/3 8/2/3
f 6/2/3 3/1/3 1/1/3
f 7/2/4 3/1/4 8/2/4
f 3/1/4 7/2/4 4/1/4
f 2/1/5 7/2/5 5/2/5
f 7/2/5 2/1/5 4/1/5
f 2/1/6 6/2/6 1/1/6
f 6/2/6 2/1/6 5/2/6
f 11/1/1 10/1/1 9/1/1
f 10/1/1 11/1/1 12/1/1
f 15/2/2 14/2/2 13/2/2
f 14/2/2 15/2/2 16/2/2
f 11/1/3 14/2/3 16/2/3
f 14/2/3 11/1/3 9/1/3
f 15/2/4 11/1/4 16/2/4
f 11/1/4 15/2/4 12/1/4
f 10/1/5 15/2/5 13/2/5
f 15/2/5 10/1/5 12/1/5
f 10/1/6 14/2/6 9/1/6
f 14/2/6 10/1/6 13/2/6
f 19/3/1 18/3/1 17/3/1
f 18/3/1 19/3/1 20/3/1
f 20/3/1 19/3/1 21/3/1
f 21/3/1 19/3/1 22/3/1
f 22/3/1 19/3/1 23/3/1
f 22/3/1 23/3/1 24/3/1
f 24/3/1 23/3/1 25/3/1
f 24/3/1 25/3/1 26/3/1
f 24/3/1 26/3/1 27/3/1
f 27/3/1 26/3/1 28/3/1
f 27/3/1 28/3/1 29/3/1
f 27/3/1 29/3/1 30/3/1
f 30/3/1 29/3/1 31/3/1
f 30/3/1 31/3/1 32/3/1
f 30/3/1 32/3/1 33/3/1
f 33/3/1 32/3/1 34/3/1
f 33/3/1 34/3/1 35/3/1
f 35/3/1 34/3/1 36/3/1
f 35/3/1 36/3/1 37/3/1
f 37/3/1 36/3/1 38/3/1
f 37/3/1 38/3/1 39/3/1
f 39/3/1 38/3/1 40/3/1
f 39/3/1 40/3/1 41/3/1
f 41/3/1 40/3/1 42/3/1
f 41/3/1 42/3/1 43/3/1
f 43/3/1 42/3/1 44/3/1
f 43/3/1 44/3/1 45/3/1
f 45/3/1 44/3/1 46/3/1
f 49/4/2 48/4/2 47/4/2
f 49/4/2 50/4/2 48/4/2
f 51/4/2 50/4/2 49/4/2
f 51/4/2 52/4/2 50/4/2
f 53/4/2 52/4/2 51/4/2
f 53/4/2 54/4/2 52/4/2
f 55/4/2 54/4/2 53/4/2
f 55/4/2 56/4/2 54/4/2
f 57/4/2 56/4/2 55/4/2
f 57/4/2 58/4/2 56/4/2
f 59/4/2 58/4/2 57/4/2
f 59/4/2 60/4/2 58/4/2
f 61/4/2 60/4/2 59/4/2
f 61/4/2 62/4/2 60/4/2
f 63/4/2 62/4/2 61/4/2
f 64/4/2 62/4/2 63/4/2
f 64/4/2 65/4/2 62/4/2
f 66/4/2 65/4/2 64/4/2
f 67/4/2 65/4/2 66/4/2
f 67/4/2 68/4/2 65/4/2
f 69/4/2 68/4/2 67/4/2
f 70/4/2 68/4/2 69/4/2
f 68/4/2 70/4/2 71/4/2
f 72/4/2 71/4/2 70/4/2
f 72/4/2 73/4/2 71/4/2
f 72/4/2 74/4/2 73/4/2
f 75/4/2 74/4/2 72/4/2
f 74/4/2 75/4/2 76/4/2
f 70/4/7 19/3/4 72/4/4
f 19/3/4 70/4/7 23/3/7
f 69/4/8 23/3/7 70/4/7
f 23/3/7 69/4/8 25/3/8
f 67/4/9 25/3/8 69/4/8
f 25/3/8 67/4/9 26/3/9
f 66/4/10 26/3/9 67/4/9
f 26/3/9 66/4/10 28/3/10
f 64/4/11 28/3/10 66/4/10
f 28/3/10 64/4/11 29/3/11
f 63/4/12 29/3/11 64/4/11
f 29/3/11 63/4/12 31/3/12
f 61/4/13 31/3/12 63/4/12
f 31/3/12 61/4/13 32/3/13
f 34/3/14 61/4/13 59/4/14
f 61/4/13 34/3/14 32/3/13
f 36/3/15 59/4/14 57/4/15
f 59/4/14 36/3/15 34/3/14
f 38/3/16 57/4/15 55/4/16
f 57/4/15 38/3/16 36/3/15
f 40/3/17 55/4/16 53/4/17
f 55/4/16 40/3/17 38/3/16
f 42/3/18 53/4/17 51/4/18
f 53/4/17 42/3/18 40/3/17
f 44/3/19 51/4/18 49/4/19
f 51/4/18 44/3/19 42/3/18
f 46/3/3 49/4/19 47/4/3
f 49/4/19 46/3/3 44/3/19
f 43/3/20 48/4/5 50/4/20
f 48/4/5 43/3/20 45/3/5
f 41/3/21 50/4/20 52/4/21
f 50/4/20 41/3/21 43/3/20
f 39/3/22 52/4/21 54/4/22
f 52/4/21 39/3/22 41/3/21
f 37/3/23 54/4/22 56/4/23
f 54/4/22 37/3/23 39/3/22
f 35/3/24 56/4/23 58/4/24
f 56/4/23 35/3/24 37/3/23
f 33/3/25 58/4/24 60/4/25
f 58/4/24 33/3/25 35/3/24
f 30/3/26 60/4/25 62/4/26
f 60/4/25 30/3/26 33/3/25
f 30/3/26 65/4/27 27/3/27
f 65/4/27 30/3/26 62/4/26
f 27/3/27 68/4/28 24/3/28
f 68/4/28 27/3/27 65/4/27
f 24/3/28 71/4/29 22/3/29
f 71/4/29 24/3/28 68/4/28
f 22/3/29 73/4/30 21/3/30
f 73/4/30 22/3/29 71/4/29
f 21/3/30 74/4/31 20/3/31
f 74/4/31 21/3/30 73/4/30
f 20/3/31 76/4/32 18/3/32
f 76/4/32 20/3/31 74/4/31
f 18/3/32 75/4/6 17/3/6
f 75/4/6 18/3/32 76/4/32
g wall-rounded
usemtl colormap
f 3/1/1 2/1/1 1/1/1
f 2/1/1 3/1/1 4/1/1
f 7/2/2 6/2/2 5/2/2
f 6/2/2 7/2/2 8/2/2
f 3/1/3 6/2/3 8/2/3
f 6/2/3 3/1/3 1/1/3
f 7/2/4 3/1/4 8/2/4
f 3/1/4 7/2/4 4/1/4
f 2/1/5 7/2/5 5/2/5
f 7/2/5 2/1/5 4/1/5
f 2/1/6 6/2/6 1/1/6
f 6/2/6 2/1/6 5/2/6
f 11/1/1 10/1/1 9/1/1
f 10/1/1 11/1/1 12/1/1
f 15/2/2 14/2/2 13/2/2
f 14/2/2 15/2/2 16/2/2
f 11/1/3 14/2/3 16/2/3
f 14/2/3 11/1/3 9/1/3
f 15/2/4 11/1/4 16/2/4
f 11/1/4 15/2/4 12/1/4
f 10/1/5 15/2/5 13/2/5
f 15/2/5 10/1/5 12/1/5
f 10/1/6 14/2/6 9/1/6
f 14/2/6 10/1/6 13/2/6
f 19/3/1 18/3/1 17/3/1
f 18/3/1 19/3/1 20/3/1
f 20/3/1 19/3/1 21/3/1
f 21/3/1 19/3/1 22/3/1
f 22/3/1 19/3/1 23/3/1
f 22/3/1 23/3/1 24/3/1
f 24/3/1 23/3/1 25/3/1
f 24/3/1 25/3/1 26/3/1
f 24/3/1 26/3/1 27/3/1
f 27/3/1 26/3/1 28/3/1
f 27/3/1 28/3/1 29/3/1
f 27/3/1 29/3/1 30/3/1
f 30/3/1 29/3/1 31/3/1
f 30/3/1 31/3/1 32/3/1
f 30/3/1 32/3/1 33/3/1
f 33/3/1 32/3/1 34/3/1
f 33/3/1 34/3/1 35/3/1
f 35/3/1 34/3/1 36/3/1
f 35/3/1 36/3/1 37/3/1
f 37/3/1 36/3/1 38/3/1
f 37/3/1 38/3/1 39/3/1
f 39/3/1 38/3/1 40/3/1
f 39/3/1 40/3/1 41/3/1
f 41/3/1 40/3/1 42/3/1
f 41/3/1 42/3/1 43/3/1
f 43/3/1 42/3/1 44/3/1
f 43/3/1 44/3/1 45/3/1
f 45/3/1 44/3/1 46/3/1
f 49/4/2 48/4/2 47/4/2
f 49/4/2 50/4/2 48/4/2
f 51/4/2 50/4/2 49/4/2
f 51/4/2 52/4/2 50/4/2
f 53/4/2 52/4/2 51/4/2
f 53/4/2 54/4/2 52/4/2
f 55/4/2 54/4/2 53/4/2
f 55/4/2 56/4/2 54/4/2
f 57/4/2 56/4/2 55/4/2
f 57/4/2 58/4/2 56/4/2
f 59/4/2 58/4/2 57/4/2
f 59/4/2 60/4/2 58/4/2
f 61/4/2 60/4/2 59/4/2
f 61/4/2 62/4/2 60/4/2
f 63/4/2 62/4/2 61/4/2
f 64/4/2 62/4/2 63/4/2
f 64/4/2 65/4/2 62/4/2
f 66/4/2 65/4/2 64/4/2
f 67/4/2 65/4/2 66/4/2
f 67/4/2 68/4/2 65/4/2
f 69/4/2 68/4/2 67/4/2
f 70/4/2 68/4/2 69/4/2
f 68/4/2 70/4/2 71/4/2
f 72/4/2 71/4/2 70/4/2
f 72/4/2 73/4/2 71/4/2
f 72/4/2 74/4/2 73/4/2
f 75/4/2 74/4/2 72/4/2
f 74/4/2 75/4/2 76/4/2
f 70/4/7 19/3/4 72/4/4
f 19/3/4 70/4/7 23/3/7
f 69/4/8 23/3/7 70/4/7
f 23/3/7 69/4/8 25/3/8
f 67/4/9 25/3/8 69/4/8
f 25/3/8 67/4/9 26/3/9
f 66/4/10 26/3/9 67/4/9
f 26/3/9 66/4/10 28/3/10
f 64/4/11 28/3/10 66/4/10
f 28/3/10 64/4/11 29/3/11
f 63/4/12 29/3/11 64/4/11
f 29/3/11 63/4/12 31/3/12
f 61/4/13 31/3/12 63/4/12
f 31/3/12 61/4/13 32/3/13
f 34/3/14 61/4/13 59/4/14
f 61/4/13 34/3/14 32/3/13
f 36/3/15 59/4/14 57/4/15
f 59/4/14 36/3/15 34/3/14
f 38/3/16 57/4/15 55/4/16
f 57/4/15 38/3/16 36/3/15
f 40/3/17 55/4/16 53/4/17
f 55/4/16 40/3/17 38/3/16
f 42/3/18 53/4/17 51/4/18
f 53/4/17 42/3/18 40/3/17
f 44/3/19 51/4/18 49/4/19
f 51/4/18 44/3/19 42/3/18
f 46/3/3 49/4/19 47/4/3
f 49/4/19 46/3/3 44/3/19
f 43/3/20 48/4/5 50/4/20
f 48/4/5 43/3/20 45/3/5
f 41/3/21 50/4/20 52/4/21
f 50/4/20 41/3/21 43/3/20
f 39/3/22 52/4/21 54/4/22
f 52/4/21 39/3/22 41/3/21
f 37/3/23 54/4/22 56/4/23
f 54/4/22 37/3/23 39/3/22
f 35/3/24 56/4/23 58/4/24
f 56/4/23 35/3/24 37/3/23
f 33/3/25 58/4/24 60/4/25
f 58/4/24 33/3/25 35/3/24
f 30/3/26 60/4/25 62/4/26
f 60/4/25 30/3/26 33/3/25
f 30/3/26 65/4/27 27/3/27
f 65/4/27 30/3/26 62/4/26
f 27/3/27 68/4/28 24/3/28
f 68/4/28 27/3/27 65/4/27
f 24/3/28 71/4/29 22/3/29
f 71/4/29 24/3/28 68/4/28
f 22/3/29 73/4/30 21/3/30
f 73/4/30 22/3/29 71/4/29
f 21/3/30 74/4/31 20/3/31
f 74/4/31 21/3/30 73/4/30
f 20/3/31 76/4/32 18/3/32
f 76/4/32 20/3/31 74/4/31
f 18/3/32 75/4/6 17/3/6
f 75/4/6 18/3/32 76/4/32
