mtllib wall-wood-doorway-round.mtl
g wall-wood-doorway-round
v 0.5 1 -0.5
v 0.5 1 -0.4
v 0.4 1 -0.5
v 0.4 1 -0.4
v 0.5 0 -0.4
v 0.5 0 -0.5
v 0.4 0 -0.4
v 0.4 0 -0.5
v 0.5 1 0.4
v 0.5 1 0.5
v 0.4 1 0.4
v 0.4 1 0.5
v 0.5 0 0.5
v 0.5 0 0.4
v 0.4 0 0.5
v 0.4 0 0.4
v 0.425 1.0733e-17 0.3
v 0.425 0.55 0.3
v 0.425 1.0733e-17 0.4
v 0.425 1 0.4
v 0.425 0.85 0
v 0.425 1 -0.4
v 0.425 0.55 -0.3
v 0.425 1.0733e-17 -0.3
v 0.425 1.0733e-17 -0.4
v 0.475 2.7583e-17 0.3
v 0.475 2.7583e-17 0.4
v 0.475 0.55 0.3
v 0.475 1 0.4
v 0.475 0.58392 0.28645
v 0.475 0.61675 0.27044
v 0.475 0.64831 0.25205
v 0.475 0.67843 0.23139
v 0.475 0.70695 0.20857
v 0.475 0.73371 0.18371
v 0.475 0.75857 0.15695
v 0.475 0.78139 0.12843
v 0.475 0.80205 0.098309
v 0.475 0.82044 0.066748
v 0.475 0.83645 0.033919
v 0.475 0.85 0
v 0.475 1 -0.4
v 0.475 0.83645 -0.033919
v 0.475 0.82044 -0.066748
v 0.475 0.80205 -0.098309
v 0.475 0.78139 -0.12843
v 0.475 0.75857 -0.15695
v 0.475 0.73371 -0.18371
v 0.475 0.70695 -0.20857
v 0.475 0.67843 -0.23139
v 0.475 0.64831 -0.25205
v 0.475 0.61675 -0.27044
v 0.475 0.58392 -0.28645
v 0.475 0.55 -0.3
v 0.475 2.7583e-17 -0.4
v 0.475 2.7583e-17 -0.3
v 0.5 4.295e-17 0.2
v 0.5 4.2932e-17 0.3
v 0.5 0.52691 0.2
v 0.5 0.64831 0.25205
v 0.5 0.55 0.3
v 0.5 0.73371 0.18371
v 0.5 0.5945 0.16704
v 0.5 0.66257 0.11257
v 0.5 0.80205 0.098309
v 0.5 0.71704 0.044496
v 0.5 0.85 2.8876e-15
v 0.5 0.73874 0
v 0.5 0.71704 -0.044496
v 0.5 0.80205 -0.098309
v 0.5 0.66257 -0.11257
v 0.5 0.5945 -0.16704
v 0.5 0.73371 -0.18371
v 0.5 0.52691 -0.2
v 0.5 0.64831 -0.25205
v 0.5 4.295e-17 -0.2
v 0.5 4.2932e-17 -0.3
v 0.5 0.55 -0.3
v 0.4 4.295e-17 0.2
v 0.4 0.52691 0.2
v 0.4 4.2932e-17 0.3
v 0.4 0.64831 0.25205
v 0.4 0.55 0.3
v 0.4 0.73371 0.18371
v 0.4 0.5945 0.16704
v 0.4 0.66257 0.11257
v 0.4 0.80205 0.098309
v 0.4 0.71704 0.044496
v 0.4 0.85 2.8876e-15
v 0.4 0.73874 0
v 0.4 0.71704 -0.044496
v 0.4 0.80205 -0.098309
v 0.4 0.66257 -0.11257
v 0.4 0.5945 -0.16704
v 0.4 0.73371 -0.18371
v 0.4 0.52691 -0.2
v 0.4 0.64831 -0.25205
v 0.4 4.295e-17 -0.2
v 0.4 0.55 -0.3
v 0.4 4.2932e-17 -0.3
vn 0 1 0
vn 0 -1 0
vn 0 0 -1
vn -1 0 0
vn 0 0 1
vn 1 0 0
vn 0 0.22495 0.97437
vn 0 0.53485 0.84495
vn 0 0.70711 0.70711
vn 0 0.84495 0.53485
vn 0 0.89879 0.43838
vn 0 0.84495 -0.53485
vn 0 0.89879 -0.43838
vn 0 0.70711 -0.70711
vn 0 0.53485 -0.84495
vn 0 0.22495 -0.97437
vn 0 -0.22495 0.97437
vn 0 -0.53485 0.84495
vn 0 -0.70711 0.70711
vn 0 -0.84495 0.53485
vn 0 -0.89879 0.43838
vn 0 -0.84495 -0.53485
vn 0 -0.89879 -0.43838
vn 0 -0.70711 -0.70711
vn 0 -0.53485 -0.84495
vn 0 -0.22495 -0.97437
vt 0.59375 0.175
vt 0.59375 0.075
vt 0.71875 0.075
vt 0.71875 0.13
vt 0.71875 0.175
vt 0.71875 0.16
vt 0.71875 0.13339
vt 0.71875 0.13667
vt 0.71875 0.13983
vt 0.71875 0.14284
vt 0.71875 0.14569
vt 0.71875 0.14837
vt 0.71875 0.15086
vt 0.71875 0.15314
vt 0.71875 0.15521
vt 0.71875 0.15704
vt 0.71875 0.15864
vt 0.34375 0.38339
vt 0.34375 0.38667
vt 0.34375 0.38
vt 0.34375 0.38983
vt 0.34375 0.39284
vt 0.34375 0.3957
vt 0.34375 0.39837
vt 0.34375 0.40086
vt 0.34375 0.40314
vt 0.34375 0.40521
vt 0.34375 0.40704
vt 0.34375 0.40864
vt 0.34375 0.41
vt 0.96875 0.075
vt 0.96875 0.13699
vt 0.96875 0.15127
vt 0.96875 0.13971
vt 0.96875 0.16132
vt 0.96875 0.14494
vt 0.96875 0.15295
vt 0.96875 0.16936
vt 0.96875 0.15936
vt 0.96875 0.175
vt 0.96875 0.16191
usemtl colormap
f 3/1/1 2/1/1 1/1/1
f 2/1/1 3/1/1 4/1/1
f 7/2/2 6/2/2 5/2/2
f 6/2/2 7/2/2 8/2/2
f 3/1/3 6/2/3 8/2/3
f 6/2/3 3/1/3 1/1/3
f 7/2/4 3/1/4 8/2/4
f 3/1/4 7/2/4 4/1/4
f 2/1/5 7/2/5 5/2/5
f 7/2/5 2/1/5 4/1/5
f 2/1/6 6/2/6 1/1/6
f 6/2/6 2/1/6 5/2/6
f 11/1/1 10/1/1 9/1/1
f 10/1/1 11/1/1 12/1/1
f 15/2/2 14/2/2 13/2/2
f 14/2/2 15/2/2 16/2/2
f 11/1/3 14/2/3 16/2/3
f 14/2/3 11/1/3 9/1/3
f 15/2/4 11/1/4 16/2/4
f 11/1/4 15/2/4 12/1/4
f 10/1/5 15/2/5 13/2/5
f 15/2/5 10/1/5 12/1/5
f 10/1/6 14/2/6 9/1/6
f 14/2/6 10/1/6 13/2/6
f 19/3/4 18/4/4 17/3/4
f 20/5/4 18/4/4 19/3/4
f 20/5/4 21/6/4 18/4/4
f 22/5/4 21/6/4 20/5/4
f 22/5/4 23/4/4 21/6/4
f 22/5/4 24/3/4 23/4/4
f 24/3/4 22/5/4 25/3/4
f 28/4/6 27/3/6 26/3/6
f 27/3/6 28/4/6 29/5/6
f 30/7/6 29/5/6 28/4/6
f 31/8/6 29/5/6 30/7/6
f 32/9/6 29/5/6 31/8/6
f 33/10/6 29/5/6 32/9/6
f 34/11/6 29/5/6 33/10/6
f 35/12/6 29/5/6 34/11/6
f 36/13/6 29/5/6 35/12/6
f 37/14/6 29/5/6 36/13/6
f 38/15/6 29/5/6 37/14/6
f 39/16/6 29/5/6 38/15/6
f 40/17/6 29/5/6 39/16/6
f 41/6/6 29/5/6 40/17/6
f 41/6/6 42/5/6 29/5/6
f 43/17/6 42/5/6 41/6/6
f 44/16/6 42/5/6 43/17/6
f 45/15/6 42/5/6 44/16/6
f 46/14/6 42/5/6 45/15/6
f 47/13/6 42/5/6 46/14/6
f 48/12/6 42/5/6 47/13/6
f 49/11/6 42/5/6 48/12/6
f 50/10/6 42/5/6 49/11/6
f 51/9/6 42/5/6 50/10/6
f 52/8/6 42/5/6 51/9/6
f 53/7/6 42/5/6 52/8/6
f 54/4/6 42/5/6 53/7/6
f 42/5/6 54/4/6 55/3/6
f 56/3/6 55/3/6 54/4/6
f 19/3/2 26/3/2 27/3/2
f 26/3/2 19/3/2 17/3/2
f 22/5/1 29/5/1 42/5/1
f 29/5/1 22/5/1 20/5/1
f 24/3/2 55/3/2 56/3/2
f 55/3/2 24/3/2 25/3/2
f 28/20/6 31/19/6 30/18/6
f 28/20/6 32/21/6 31/19/6
f 28/20/6 33/22/6 32/21/6
f 28/20/6 34/23/6 33/22/6
f 28/20/6 35/24/6 34/23/6
f 28/20/6 36/25/6 35/24/6
f 28/20/6 37/26/6 36/25/6
f 28/20/6 38/27/6 37/26/6
f 28/20/6 39/28/6 38/27/6
f 28/20/6 40/29/6 39/28/6
f 40/29/6 28/20/6 41/30/6
f 53/18/6 41/30/6 54/20/6
f 41/30/6 53/18/6 52/19/6
f 41/30/6 52/19/6 51/21/6
f 41/30/6 51/21/6 50/22/6
f 41/30/6 50/22/6 49/23/6
f 41/30/6 49/23/6 48/24/6
f 41/30/6 48/24/6 47/25/6
f 41/30/6 47/25/6 46/26/6
f 41/30/6 46/26/6 45/27/6
f 41/30/6 45/27/6 44/28/6
f 41/30/6 44/28/6 43/29/6
f 59/32/6 58/31/6 57/31/6
f 58/31/6 59/32/6 60/33/6
f 58/31/6 60/33/6 61/34/6
f 59/32/6 62/35/6 60/33/6
f 63/36/6 62/35/6 59/32/6
f 64/37/6 62/35/6 63/36/6
f 64/37/6 65/38/6 62/35/6
f 66/39/6 65/38/6 64/37/6
f 66/39/6 67/40/6 65/38/6
f 68/41/6 67/40/6 66/39/6
f 69/39/6 67/40/6 68/41/6
f 69/39/6 70/38/6 67/40/6
f 71/37/6 70/38/6 69/39/6
f 72/36/6 70/38/6 71/37/6
f 72/36/6 73/35/6 70/38/6
f 74/32/6 73/35/6 72/36/6
f 73/35/6 74/32/6 75/33/6
f 76/31/6 75/33/6 74/32/6
f 77/31/6 75/33/6 76/31/6
f 75/33/6 77/31/6 78/34/6
f 81/31/4 80/32/4 79/31/4
f 80/32/4 81/31/4 82/33/4
f 82/33/4 81/31/4 83/34/4
f 84/35/4 80/32/4 82/33/4
f 84/35/4 85/36/4 80/32/4
f 84/35/4 86/37/4 85/36/4
f 87/38/4 86/37/4 84/35/4
f 87/38/4 88/39/4 86/37/4
f 89/40/4 88/39/4 87/38/4
f 89/40/4 90/41/4 88/39/4
f 89/40/4 91/39/4 90/41/4
f 92/38/4 91/39/4 89/40/4
f 92/38/4 93/37/4 91/39/4
f 92/38/4 94/36/4 93/37/4
f 95/35/4 94/36/4 92/38/4
f 95/35/4 96/32/4 94/36/4
f 97/33/4 96/32/4 95/35/4
f 97/33/4 98/31/4 96/32/4
f 99/34/4 98/31/4 97/33/4
f 98/31/4 99/34/4 100/31/4
f 61/34/7 81/31/5 58/31/5
f 81/31/5 61/34/7 83/34/7
f 60/33/8 83/34/7 61/34/7
f 83/34/7 60/33/8 82/33/8
f 62/35/9 82/33/8 60/33/8
f 82/33/8 62/35/9 84/35/9
f 87/38/10 62/35/9 65/38/10
f 62/35/9 87/38/10 84/35/9
f 89/40/11 65/38/10 67/40/11
f 65/38/10 89/40/11 87/38/10
f 92/38/12 67/40/13 70/38/12
f 67/40/13 92/38/12 89/40/13
f 95/35/14 70/38/12 73/35/14
f 70/38/12 95/35/14 92/38/12
f 95/35/14 75/33/15 97/33/15
f 75/33/15 95/35/14 73/35/14
f 97/33/15 78/34/16 99/34/16
f 78/34/16 97/33/15 75/33/15
f 99/34/16 77/31/3 100/31/3
f 77/31/3 99/34/16 78/34/16
f 98/31/2 77/31/2 76/31/2
f 77/31/2 98/31/2 100/31/2
f 74/32/17 98/31/5 76/31/5
f 98/31/5 74/32/17 96/32/17
f 72/36/18 96/32/17 74/32/17
f 96/32/17 72/36/18 94/36/18
f 71/37/19 94/36/18 72/36/18
f 94/36/18 71/37/19 93/37/19
f 91/39/20 71/37/19 69/39/20
f 71/37/19 91/39/20 93/37/19
f 90/41/21 69/39/20 68/41/21
f 69/39/20 90/41/21 91/39/20
f 88/39/22 68/41/23 66/39/22
f 68/41/23 88/39/22 90/41/23
f 86/37/24 66/39/22 64/37/24
f 66/39/22 86/37/24 88/39/22
f 86/37/24 63/36/25 85/36/25
f 63/36/25 86/37/24 64/37/24
f 85/36/25 59/32/26 80/32/26
f 59/32/26 85/36/25 63/36/25
f 80/32/26 57/31/3 79/31/3
f 57/31/3 80/32/26 59/32/26
f 81/31/2 57/31/2 58/31/2
f 57/31/2 81/31/2 79/31/2
g wall-wood-doorway-round
usemtl colormap
f 3/1/1 2/1/1 1/1/1
f 2/1/1 3/1/1 4/1/1
f 7/2/2 6/2/2 5/2/2
f 6/2/2 7/2/2 8/2/2
f 3/1/3 6/2/3 8/2/3
f 6/2/3 3/1/3 1/1/3
f 7/2/4 3/1/4 8/2/4
f 3/1/4 7/2/4 4/1/4
f 2/1/5 7/2/5 5/2/5
f 7/2/5 2/1/5 4/1/5
f 2/1/6 6/2/6 1/1/6
f 6/2/6 2/1/6 5/2/6
f 11/1/1 10/1/1 9/1/1
f 10/1/1 11/1/1 12/1/1
f 15/2/2 14/2/2 13/2/2
f 14/2/2 15/2/2 16/2/2
f 11/1/3 14/2/3 16/2/3
f 14/2/3 11/1/3 9/1/3
f 15/2/4 11/1/4 16/2/4
f 11/1/4 15/2/4 12/1/4
f 10/1/5 15/2/5 13/2/5
f 15/2/5 10/1/5 12/1/5
f 10/1/6 14/2/6 9/1/6
f 14/2/6 10/1/6 13/2/6
f 19/3/4 18/4/4 17/3/4
f 20/5/4 18/4/4 19/3/4
f 20/5/4 21/6/4 18/4/4
f 22/5/4 21/6/4 20/5/4
f 22/5/4 23/4/4 21/6/4
f 22/5/4 24/3/4 23/4/4
f 24/3/4 22/5/4 25/3/4
f 28/4/6 27/3/6 26/3/6
f 27/3/6 28/4/6 29/5/6
f 30/7/6 29/5/6 28/4/6
f 31/8/6 29/5/6 30/7/6
f 32/9/6 29/5/6 31/8/6
f 33/10/6 29/5/6 32/9/6
f 34/11/6 29/5/6 33/10/6
f 35/12/6 29/5/6 34/11/6
f 36/13/6 29/5/6 35/12/6
f 37/14/6 29/5/6 36/13/6
f 38/15/6 29/5/6 37/14/6
f 39/16/6 29/5/6 38/15/6
f 40/17/6 29/5/6 39/16/6
f 41/6/6 29/5/6 40/17/6
f 41/6/6 42/5/6 29/5/6
f 43/17/6 42/5/6 41/6/6
f 44/16/6 42/5/6 43/17/6
f 45/15/6 42/5/6 44/16/6
f 46/14/6 42/5/6 45/15/6
f 47/13/6 42/5/6 46/14/6
f 48/12/6 42/5/6 47/13/6
f 49/11/6 42/5/6 48/12/6
f 50/10/6 42/5/6 49/11/6
f 51/9/6 42/5/6 50/10/6
f 52/8/6 42/5/6 51/9/6
f 53/7/6 42/5/6 52/8/6
f 54/4/6 42/5/6 53/7/6
f 42/5/6 54/4/6 55/3/6
f 56/3/6 55/3/6 54/4/6
f 19/3/2 26/3/2 27/3/2
f 26/3/2 19/3/2 17/3/2
f 22/5/1 29/5/1 42/5/1
f 29/5/1 22/5/1 20/5/1
f 24/3/2 55/3/2 56/3/2
f 55/3/2 24/3/2 25/3/2
f 28/20/6 31/19/6 30/18/6
f 28/20/6 32/21/6 31/19/6
f 28/20/6 33/22/6 32/21/6
f 28/20/6 34/23/6 33/22/6
f 28/20/6 35/24/6 34/23/6
f 28/20/6 36/25/6 35/24/6
f 28/20/6 37/26/6 36/25/6
f 28/20/6 38/27/6 37/26/6
f 28/20/6 39/28/6 38/27/6
f 28/20/6 40/29/6 39/28/6
f 40/29/6 28/20/6 41/30/6
f 53/18/6 41/30/6 54/20/6
f 41/30/6 53/18/6 52/19/6
f 41/30/6 52/19/6 51/21/6
f 41/30/6 51/21/6 50/22/6
f 41/30/6 50/22/6 49/23/6
f 41/30/6 49/23/6 48/24/6
f 41/30/6 48/24/6 47/25/6
f 41/30/6 47/25/6 46/26/6
f 41/30/6 46/26/6 45/27/6
f 41/30/6 45/27/6 44/28/6
f 41/30/6 44/28/6 43/29/6
f 59/32/6 58/31/6 57/31/6
f 58/31/6 59/32/6 60/33/6
f 58/31/6 60/33/6 61/34/6
f 59/32/6 62/35/6 60/33/6
f 63/36/6 62/35/6 59/32/6
f 64/37/6 62/35/6 63/36/6
f 64/37/6 65/38/6 62/35/6
f 66/39/6 65/38/6 64/37/6
f 66/39/6 67/40/6 65/38/6
f 68/41/6 67/40/6 66/39/6
f 69/39/6 67/40/6 68/41/6
f 69/39/6 70/38/6 67/40/6
f 71/37/6 70/38/6 69/39/6
f 72/36/6 70/38/6 71/37/6
f 72/36/6 73/35/6 70/38/6
f 74/32/6 73/35/6 72/36/6
f 73/35/6 74/32/6 75/33/6
f 76/31/6 75/33/6 74/32/6
f 77/31/6 75/33/6 76/31/6
f 75/33/6 77/31/6 78/34/6
f 81/31/4 80/32/4 79/31/4
f 80/32/4 81/31/4 82/33/4
f 82/33/4 81/31/4 83/34/4
f 84/35/4 80/32/4 82/33/4
f 84/35/4 85/36/4 80/32/4
f 84/35/4 86/37/4 85/36/4
f 87/38/4 86/37/4 84/35/4
f 87/38/4 88/39/4 86/37/4
f 89/40/4 88/39/4 87/38/4
f 89/40/4 90/41/4 88/39/4
f 89/40/4 91/39/4 90/41/4
f 92/38/4 91/39/4 89/40/4
f 92/38/4 93/37/4 91/39/4
f 92/38/4 94/36/4 93/37/4
f 95/35/4 94/36/4 92/38/4
f 95/35/4 96/32/4 94/36/4
f 97/33/4 96/32/4 95/35/4
f 97/33/4 98/31/4 96/32/4
f 99/34/4 98/31/4 97/33/4
f 98/31/4 99/34/4 100/31/4
f 61/34/7 81/31/5 58/31/5
f 81/31/5 61/34/7 83/34/7
f 60/33/8 83/34/7 61/34/7
f 83/34/7 60/33/8 82/33/8
f 62/35/9 82/33/8 60/33/8
f 82/33/8 62/35/9 84/35/9
f 87/38/10 62/35/9 65/38/10
f 62/35/9 87/38/10 84/35/9
f 89/40/11 65/38/10 67/40/11
f 65/38/10 89/40/11 87/38/10
f 92/38/12 67/40/13 70/38/12
f 67/40/13 92/38/12 89/40/13
f 95/35/14 70/38/12 73/35/14
f 70/38/12 95/35/14 92/38/12
f 95/35/14 75/33/15 97/33/15
f 75/33/15 95/35/14 73/35/14
f 97/33/15 78/34/16 99/34/16
f 78/34/16 97/33/15 75/33/15
f 99/34/16 77/31/3 100/31/3
f 77/31/3 99/34/16 78/34/16
f 98/31/2 77/31/2 76/31/2
f 77/31/2 98/31/2 100/31/2
f 74/32/17 98/31/5 76/31/5
f 98/31/5 74/32/17 96/32/17
f 72/36/18 96/32/17 74/32/17
f 96/32/17 72/36/18 94/36/18
f 71/37/19 94/36/18 72/36/18
f 94/36/18 71/37/19 93/37/19
f 91/39/20 71/37/19 69/39/20
f 71/37/19 91/39/20 93/37/19
f 90/41/21 69/39/20 68/41/21
f 69/39/20 90/41/21 91/39/20
f 88/39/22 68/41/23 66/39/22
f 68/41/23 88/39/22 90/41/23
f 86/37/24 66/39/22 64/37/24
f 66/39/22 86/37/24 88/39/22
f 86/37/24 63/36/25 85/36/25
f 63/36/25 86/37/24 64/37/24
f 85/36/25 59/32/26 80/32/26
f 59/32/26 85/36/25 63/36/25
f 80/32/26 57/31/3 79/31/3
f 57/31/3 80/32/26 59/32/26
f 81/31/2 57/31/2 58/31/2
f 57/31/2 81/31/2 79/31/2
