mtllib wall-curved.mtl
g wall-curved
v 0.5 1 -0.5
v 0.5 1 -0.4
v 0.4 1 -0.5
v 0.4 1 -0.4
v 0.5 0 -0.4
v 0.5 0 -0.5
v 0.4 0 -0.4
v 0.4 0 -0.5
v -0.4 1 0.4
v -0.4 1 0.5
v -0.5 1 0.4
v -0.5 1 0.5
v -0.4 0 0.5
v -0.4 0 0.4
v -0.5 0 0.5
v -0.5 0 0.4
v 0.475 1 -0.4
v 0.46751 1 -0.28579
v 0.425 1 -0.4
v 0.44519 1 -0.17353
v 0.40839 1 -0.065152
v 0.41794 1 -0.29232
v 0.39689 1 -0.18647
v 0.35777 1 0.0375
v 0.3622 1 -0.084286
v 0.31447 1 0.0125
v 0.29418 1 0.13267
v 0.25452 1 0.10223
v 0.21872 1 0.21872
v 0.18336 1 0.18336
v 0.13267 1 0.29418
v 0.10223 1 0.25452
v 0.0375 1 0.35777
v 0.0125 1 0.31447
v -0.065152 1 0.40839
v -0.084286 1 0.3622
v -0.17353 1 0.44519
v -0.18647 1 0.39689
v -0.28579 1 0.46751
v -0.29232 1 0.41794
v -0.4 1 0.475
v -0.4 1 0.425
v 0.475 0 -0.4
v 0.425 0 -0.4
v 0.46751 -3.6096e-16 -0.28579
v 0.44519 -3.6096e-16 -0.17353
v 0.40839 -3.6096e-16 -0.065152
v 0.41794 -3.6096e-16 -0.29232
v 0.39689 -3.6096e-16 -0.18647
v 0.35777 -3.6096e-16 0.0375
v 0.3622 -3.6096e-16 -0.084286
v 0.31447 -3.6096e-16 0.0125
v 0.29418 -3.6096e-16 0.13267
v 0.25452 -3.6096e-16 0.10223
v 0.21872 -3.6096e-16 0.21872
v 0.18336 -3.6096e-16 0.18336
v 0.13267 -3.6096e-16 0.29418
v 0.10223 -3.6096e-16 0.25452
v 0.0375 -3.6096e-16 0.35777
v 0.0125 -3.6096e-16 0.31447
v -0.065152 -3.6096e-16 0.40839
v -0.084286 -3.6096e-16 0.3622
v -0.17353 -3.6096e-16 0.44519
v -0.18647 -3.6096e-16 0.39689
v -0.28579 -3.6096e-16 0.46751
v -0.29232 -3.6096e-16 0.41794
v -0.4 0 0.475
v -0.4 0 0.425
vn 0 1 0
vn 0 -1 0
vn 0 0 -1
vn -1 0 0
vn 0 0 1
vn 1 0 0
vn 0.13053 0 0.99144
vn 0.065403 0 0.99786
vn 0.25882 0 0.96593
vn 0.38268 0 0.92388
vn 0.5 0 0.86603
vn 0.60876 0 0.79335
vn 0.70711 0 0.70711
vn 0.79335 0 0.60876
vn 0.86603 0 0.5
vn 0.92388 0 0.38268
vn 0.96593 0 0.25882
vn 0.99144 0 0.13053
vn 0.99786 0 0.065403
vn -0.99786 0 -0.065403
vn -0.99144 0 -0.13053
vn -0.96593 0 -0.25882
vn -0.92388 0 -0.38268
vn -0.86603 0 -0.5
vn -0.79335 0 -0.60876
vn -0.70711 0 -0.70711
vn -0.60876 0 -0.79335
vn -0.5 0 -0.86603
vn -0.38268 0 -0.92388
vn -0.25882 0 -0.96593
vn -0.13053 0 -0.99144
vn -0.065403 0 -0.99786
vt 0.59375 0.175
vt 0.59375 0.075
vt 0.21875 0.425
vt 0.21875 0.325
usemtl colormap
f 3/1/1 2/1/1 1/1/1
f 2/1/1 3/1/1 4/1/1
f 7/2/2 6/2/2 5/2/2
f 6/2/2 7/2/2 8/2/2
f 3/1/3 6/2/3 8/2/3
f 6/2/3 3/1/3 1/1/3
f 7/2/4 3/1/4 8/2/4
f 3/1/4 7/2/4 4/1/4
f 2/1/5 7/2/5 5/2/5
f 7/2/5 2/1/5 4/1/5
f 2/1/6 6/2/6 1/1/6
f 6/2/6 2/1/6 5/2/6
f 11/1/1 10/1/1 9/1/1
f 10/1/1 11/1/1 12/1/1
f 15/2/2 14/2/2 13/2/2
f 14/2/2 15/2/2 16/2/2
f 11/1/3 14/2/3 16/2/3
f 14/2/3 11/1/3 9/1/3
f 15/2/4 11/1/4 16/2/4
f 11/1/4 15/2/4 12/1/4
f 10/1/5 15/2/5 13/2/5
f 15/2/5 10/1/5 12/1/5
f 10/1/6 14/2/6 9/1/6
f 14/2/6 10/1/6 13/2/6
f 19/3/1 18/3/1 17/3/1
f 18/3/1 19/3/1 20/3/1
f 20/3/1 19/3/1 21/3/1
f 21/3/1 19/3/1 22/3/1
f 21/3/1 22/3/1 23/3/1
f 21/3/1 23/3/1 24/3/1
f 24/3/1 23/3/1 25/3/1
f 24/3/1 25/3/1 26/3/1
f 24/3/1 26/3/1 27/3/1
f 27/3/1 26/3/1 28/3/1
f 27/3/1 28/3/1 29/3/1
f 29/3/1 28/3/1 30/3/1
f 29/3/1 30/3/1 31/3/1
f 31/3/1 30/3/1 32/3/1
f 31/3/1 32/3/1 33/3/1
f 33/3/1 32/3/1 34/3/1
f 33/3/1 34/3/1 35/3/1
f 35/3/1 34/3/1 36/3/1
f 35/3/1 36/3/1 37/3/1
f 37/3/1 36/3/1 38/3/1
f 37/3/1 38/3/1 39/3/1
f 39/3/1 38/3/1 40/3/1
f 39/3/1 40/3/1 41/3/1
f 41/3/1 40/3/1 42/3/1
f 45/4/2 44/4/2 43/4/2
f 44/4/2 45/4/2 46/4/2
f 44/4/2 46/4/2 47/4/2
f 44/4/2 47/4/2 48/4/2
f 48/4/2 47/4/2 49/4/2
f 49/4/2 47/4/2 50/4/2
f 49/4/2 50/4/2 51/4/2
f 51/4/2 50/4/2 52/4/2
f 52/4/2 50/4/2 53/4/2
f 52/4/2 53/4/2 54/4/2
f 54/4/2 53/4/2 55/4/2
f 54/4/2 55/4/2 56/4/2
f 56/4/2 55/4/2 57/4/2
f 56/4/2 57/4/2 58/4/2
f 58/4/2 57/4/2 59/4/2
f 58/4/2 59/4/2 60/4/2
f 60/4/2 59/4/2 61/4/2
f 60/4/2 61/4/2 62/4/2
f 62/4/2 61/4/2 63/4/2
f 62/4/2 63/4/2 64/4/2
f 64/4/2 63/4/2 65/4/2
f 64/4/2 65/4/2 66/4/2
f 66/4/2 65/4/2 67/4/2
f 66/4/2 67/4/2 68/4/2
f 39/3/7 67/4/8 65/4/7
f 67/4/8 39/3/7 41/3/8
f 37/3/9 65/4/7 63/4/9
f 65/4/7 37/3/9 39/3/7
f 35/3/10 63/4/9 61/4/10
f 63/4/9 35/3/10 37/3/9
f 33/3/11 61/4/10 59/4/11
f 61/4/10 33/3/11 35/3/10
f 31/3/12 59/4/11 57/4/12
f 59/4/11 31/3/12 33/3/11
f 29/3/13 57/4/12 55/4/13
f 57/4/12 29/3/13 31/3/12
f 29/3/13 53/4/14 27/3/14
f 53/4/14 29/3/13 55/4/13
f 27/3/14 50/4/15 24/3/15
f 50/4/15 27/3/14 53/4/14
f 24/3/15 47/4/16 21/3/16
f 47/4/16 24/3/15 50/4/15
f 21/3/16 46/4/17 20/3/17
f 46/4/17 21/3/16 47/4/16
f 20/3/17 45/4/18 18/3/18
f 45/4/18 20/3/17 46/4/17
f 18/3/18 43/4/19 17/3/19
f 43/4/19 18/3/18 45/4/18
f 48/4/21 19/3/20 44/4/20
f 19/3/20 48/4/21 22/3/21
f 49/4/22 22/3/21 48/4/21
f 22/3/21 49/4/22 23/3/22
f 51/4/23 23/3/22 49/4/22
f 23/3/22 51/4/23 25/3/23
f 52/4/24 25/3/23 51/4/23
f 25/3/23 52/4/24 26/3/24
f 54/4/25 26/3/24 52/4/24
f 26/3/24 54/4/25 28/3/25
f 56/4/26 28/3/25 54/4/25
f 28/3/25 56/4/26 30/3/26
f 32/3/27 56/4/26 58/4/27
f 56/4/26 32/3/27 30/3/26
f 34/3/28 58/4/27 60/4/28
f 58/4/27 34/3/28 32/3/27
f 36/3/29 60/4/28 62/4/29
f 60/4/28 36/3/29 34/3/28
f 38/3/30 62/4/29 64/4/30
f 62/4/29 38/3/30 36/3/29
f 40/3/31 64/4/30 66/4/31
f 64/4/30 40/3/31 38/3/30
f 68/4/32 40/3/31 66/4/31
f 40/3/31 68/4/32 42/3/32
g wall-curved
usemtl colormap
f 3/1/1 2/1/1 1/1/1
f 2/1/1 3/1/1 4/1/1
f 7/2/2 6/2/2 5/2/2
f 6/2/2 7/2/2 8/2/2
f 3/1/3 6/2/3 8/2/3
f 6/2/3 3/1/3 1/1/3
f 7/2/4 3/1/4 8/2/4
f 3/1/4 7/2/4 4/1/4
f 2/1/5 7/2/5 5/2/5
f 7/2/5 2/1/5 4/1/5
f 2/1/6 6/2/6 1/1/6
f 6/2/6 2/1/6 5/2/6
f 11/1/1 10/1/1 9/1/1
f 10/1/1 11/1/1 12/1/1
f 15/2/2 14/2/2 13/2/2
f 14/2/2 15/2/2 16/2/2
f 11/1/3 14/2/3 16/2/3
f 14/2/3 11/1/3 9/1/3
f 15/2/4 11/1/4 16/2/4
f 11/1/4 15/2/4 12/1/4
f 10/1/5 15/2/5 13/2/5
f 15/2/5 10/1/5 12/1/5
f 10/1/6 14/2/6 9/1/6
f 14/2/6 10/1/6 13/2/6
f 19/3/1 18/3/1 17/3/1
f 18/3/1 19/3/1 20/3/1
f 20/3/1 19/3/1 21/3/1
f 21/3/1 19/3/1 22/3/1
f 21/3/1 22/3/1 23/3/1
f 21/3/1 23/3/1 24/3/1
f 24/3/1 23/3/1 25/3/1
f 24/3/1 25/3/1 26/3/1
f 24/3/1 26/3/1 27/3/1
f 27/3/1 26/3/1 28/3/1
f 27/3/1 28/3/1 29/3/1
f 29/3/1 28/3/1 30/3/1
f 29/3/1 30/3/1 31/3/1
f 31/3/1 30/3/1 32/3/1
f 31/3/1 32/3/1 33/3/1
f 33/3/1 32/3/1 34/3/1
f 33/3/1 34/3/1 35/3/1
f 35/3/1 34/3/1 36/3/1
f 35/3/1 36/3/1 37/3/1
f 37/3/1 36/3/1 38/3/1
f 37/3/1 38/3/1 39/3/1
f 39/3/1 38/3/1 40/3/1
f 39/3/1 40/3/1 41/3/1
f 41/3/1 40/3/1 42/3/1
f 45/4/2 44/4/2 43/4/2
f 44/4/2 45/4/2 46/4/2
f 44/4/2 46/4/2 47/4/2
f 44/4/2 47/4/2 48/4/2
f 48/4/2 47/4/2 49/4/2
f 49/4/2 47/4/2 50/4/2
f 49/4/2 50/4/2 51/4/2
f 51/4/2 50/4/2 52/4/2
f 52/4/2 50/4/2 53/4/2
f 52/4/2 53/4/2 54/4/2
f 54/4/2 53/4/2 55/4/2
f 54/4/2 55/4/2 56/4/2
f 56/4/2 55/4/2 57/4/2
f 56/4/2 57/4/2 58/4/2
f 58/4/2 57/4/2 59/4/2
f 58/4/2 59/4/2 60/4/2
f 60/4/2 59/4/2 61/4/2
f 60/4/2 61/4/2 62/4/2
f 62/4/2 61/4/2 63/4/2
f 62/4/2 63/4/2 64/4/2
f 64/4/2 63/4/2 65/4/2
f 64/4/2 65/4/2 66/4/2
f 66/4/2 65/4/2 67/4/2
f 66/4/2 67/4/2 68/4/2
f 39/3/7 67/4/8 65/4/7
f 67/4/8 39/3/7 41/3/8
f 37/3/9 65/4/7 63/4/9
f 65/4/7 37/3/9 39/3/7
f 35/3/10 63/4/9 61/4/10
f 63/4/9 35/3/10 37/3/9
f 33/3/11 61/4/10 59/4/11
f 61/4/10 33/3/11 35/3/10
f 31/3/12 59/4/11 57/4/12
f 59/4/11 31/3/12 33/3/11
f 29/3/13 57/4/12 55/4/13
f 57/4/12 29/3/13 31/3/12
f 29/3/13 53/4/14 27/3/14
f 53/4/14 29/3/13 55/4/13
f 27/3/14 50/4/15 24/3/15
f 50/4/15 27/3/14 53/4/14
f 24/3/15 47/4/16 21/3/16
f 47/4/16 24/3/15 50/4/15
f 21/3/16 46/4/17 20/3/17
f 46/4/17 21/3/16 47/4/16
f 20/3/17 45/4/18 18/3/18
f 45/4/18 20/3/17 46/4/17
f 18/3/18 43/4/19 17/3/19
f 43/4/19 18/3/18 45/4/18
f 48/4/21 19/3/20 44/4/20
f 19/3/20 48/4/21 22/3/21
f 49/4/22 22/3/21 48/4/21
f 22/3/21 49/4/22 23/3/22
f 51/4/23 23/3/22 49/4/22
f 23/3/22 51/4/23 25/3/23
f 52/4/24 25/3/23 51/4/23
f 25/3/23 52/4/24 26/3/24
f 54/4/25 26/3/24 52/4/24
f 26/3/24 54/4/25 28/3/25
f 56/4/26 28/3/25 54/4/25
f 28/3/25 56/4/26 30/3/26
f 32/3/27 56/4/26 58/4/27
f 56/4/26 32/3/27 30/3/26
f 34/3/28 58/4/27 60/4/28
f 58/4/27 34/3/28 32/3/27
f 36/3/29 60/4/28 62/4/29
f 60/4/28 36/3/29 34/3/28
f 38/3/30 62/4/29 64/4/30
f 62/4/29 38/3/30 36/3/29
f 40/3/31 64/4/30 66/4/31
f 64/4/30 40/3/31 38/3/30
f 68/4/32 40/3/31 66/4/31
f 40/3/31 68/4/32 42/3/32
