mtllib wall-arch-top.mtl
g wall-arch-top
v 0.5 1 0.4
v 0.5 1 0.5
v 0.4 1 0.4
v 0.4 1 0.5
v 0.5 0 0.5
v 0.5 0 0.4
v 0.4 0 0.5
v 0.4 0 0.4
v 0.4 0.7 -0.5
v 0.4 0.8 -0.5
v 0.4 0.69401 -0.40863
v 0.4 0.79316 -0.39558
v 0.4 0.67615 -0.31883
v 0.4 0.77274 -0.29294
v 0.4 0.64672 -0.23212
v 0.4 0.7391 -0.19385
v 0.4 0.60622 -0.15
v 0.4 0.69282 -0.1
v 0.4 0.55535 -0.073867
v 0.4 0.63468 -0.012991
v 0.4 0.49497 -0.0050253
v 0.4 0.56569 0.065685
v 0.4 0.42613 0.055347
v 0.4 0.35 0.10622
v 0.4 0.48701 0.13468
v 0.4 0.26788 0.14672
v 0.4 0.4 0.19282
v 0.4 0.18117 0.17615
v 0.4 0.091368 0.19401
v 0.4 0.30615 0.2391
v 0.4 -3.6096e-16 0.2
v 0.4 -6.6174e-17 0.3
v 0.4 0.20706 0.27274
v 0.4 0.10442 0.29316
v 0.5 0.69401 -0.40863
v 0.5 0.7 -0.5
v 0.5 0.64672 -0.23212
v 0.5 0.67615 -0.31883
v 0.5 0.60622 -0.15
v 0.5 0.8 -0.5
v 0.5 0.79316 -0.39558
v 0.5 0.77274 -0.29294
v 0.5 0.7391 -0.19385
v 0.5 0.69282 -0.1
v 0.5 0.55535 -0.073867
v 0.5 0.63468 -0.012991
v 0.5 0.49497 -0.0050253
v 0.5 0.56569 0.065685
v 0.5 0.42613 0.055347
v 0.5 0.35 0.10622
v 0.5 0.48701 0.13468
v 0.5 0.26788 0.14672
v 0.5 0.4 0.19282
v 0.5 0.18117 0.17615
v 0.5 0.091368 0.19401
v 0.5 0.30615 0.2391
v 0.5 -3.6096e-16 0.2
v 0.5 -6.6174e-17 0.3
v 0.5 0.20706 0.27274
v 0.5 0.10442 0.29316
v 0.425 0.8 -0.5
v 0.425 1 -0.5
v 0.425 0.79316 -0.39558
v 0.425 1 0.4
v 0.425 0.77274 -0.29294
v 0.425 0.7391 -0.19385
v 0.425 0.69282 -0.1
v 0.425 0.63468 -0.012991
v 0.425 0.56569 0.065685
v 0.425 0.48701 0.13468
v 0.425 0.4 0.19282
v 0.425 0.30615 0.2391
v 0.425 0.20706 0.27274
v 0.425 0.10442 0.29316
v 0.425 -6.6174e-17 0.3
v 0.425 6.2475e-17 0.4
v 0.475 0.8 -0.5
v 0.475 1 -0.5
v 0.475 1 0.4
v 0.475 0.79316 -0.39558
v 0.475 0.77274 -0.29294
v 0.475 0.7391 -0.19385
v 0.475 0.69282 -0.1
v 0.475 0.63468 -0.012991
v 0.475 0.56569 0.065685
v 0.475 0.48701 0.13468
v 0.475 0.4 0.19282
v 0.475 0.30615 0.2391
v 0.475 0.20706 0.27274
v 0.475 0.10442 0.29316
v 0.475 -6.6174e-17 0.3
v 0.475 6.2475e-17 0.4
vn 0 1 0
vn 0 -1 0
vn 0 0 -1
vn -1 0 0
vn 0 0 1
vn 1 0 0
vn 0 -0.99144 -0.13053
vn 0 -0.99786 -0.065403
vn 0 -0.92388 -0.38268
vn 0 -0.96593 -0.25882
vn 0 -0.86603 -0.5
vn 0 -0.79335 -0.60876
vn 0 -0.60876 -0.79335
vn 0 -0.70711 -0.70711
vn 0 -0.5 -0.86603
vn 0 -0.065403 -0.99786
vn 0 -0.13053 -0.99144
vn 0 -0.25882 -0.96593
vn 0 -0.38268 -0.92388
vn 0 0.065403 0.99786
vn 0 0.13053 0.99144
vn 0 0.25882 0.96593
vn 0 0.38268 0.92388
vn 0 0.99786 0.065403
vn 0 0.99144 0.13053
vn 0 0.60876 0.79335
vn 0 0.70711 0.70711
vn 0 0.96593 0.25882
vn 0 0.92388 0.38268
vn 0 0.5 0.86603
vn 0 0.86603 0.5
vn 0 0.79335 0.60876
vt 0.59375 0.175
vt 0.59375 0.075
vt 0.96875 0.1625
vt 0.96875 0.175
vt 0.96875 0.16175
vt 0.96875 0.17414
vt 0.96875 0.15952
vt 0.96875 0.17159
vt 0.96875 0.15584
vt 0.96875 0.16739
vt 0.96875 0.15078
vt 0.96875 0.1616
vt 0.96875 0.14442
vt 0.96875 0.15434
vt 0.96875 0.13687
vt 0.96875 0.14571
vt 0.96875 0.12827
vt 0.96875 0.11875
vt 0.96875 0.13588
vt 0.96875 0.10848
vt 0.96875 0.125
vt 0.96875 0.097647
vt 0.96875 0.086421
vt 0.96875 0.11327
vt 0.96875 0.075
vt 0.96875 0.10088
vt 0.96875 0.088053
vt 0.21875 0.405
vt 0.21875 0.425
vt 0.21875 0.40432
vt 0.21875 0.40227
vt 0.21875 0.39891
vt 0.21875 0.39428
vt 0.21875 0.38847
vt 0.21875 0.38157
vt 0.21875 0.3737
vt 0.21875 0.365
vt 0.21875 0.35561
vt 0.21875 0.34571
vt 0.21875 0.33544
vt 0.21875 0.325
usemtl colormap
f 3/1/1 2/1/1 1/1/1
f 2/1/1 3/1/1 4/1/1
f 7/2/2 6/2/2 5/2/2
f 6/2/2 7/2/2 8/2/2
f 3/1/3 6/2/3 8/2/3
f 6/2/3 3/1/3 1/1/3
f 7/2/4 3/1/4 8/2/4
f 3/1/4 7/2/4 4/1/4
f 2/1/5 7/2/5 5/2/5
f 7/2/5 2/1/5 4/1/5
f 2/1/6 6/2/6 1/1/6
f 6/2/6 2/1/6 5/2/6
f 11/5/4 10/4/4 9/3/4
f 10/4/4 11/5/4 12/6/4
f 12/6/4 11/5/4 13/7/4
f 12/6/4 13/7/4 14/8/4
f 14/8/4 13/7/4 15/9/4
f 14/8/4 15/9/4 16/10/4
f 16/10/4 15/9/4 17/11/4
f 16/10/4 17/11/4 18/12/4
f 18/12/4 17/11/4 19/13/4
f 18/12/4 19/13/4 20/14/4
f 20/14/4 19/13/4 21/15/4
f 20/14/4 21/15/4 22/16/4
f 22/16/4 21/15/4 23/17/4
f 22/16/4 23/17/4 24/18/4
f 22/16/4 24/18/4 25/19/4
f 25/19/4 24/18/4 26/20/4
f 25/19/4 26/20/4 27/21/4
f 27/21/4 26/20/4 28/22/4
f 27/21/4 28/22/4 29/23/4
f 27/21/4 29/23/4 30/24/4
f 30/24/4 29/23/4 31/25/4
f 30/24/4 31/25/4 32/25/4
f 30/24/4 32/25/4 33/26/4
f 33/26/4 32/25/4 34/27/4
f 11/5/7 36/3/8 35/5/7
f 36/3/8 11/5/7 9/3/8
f 15/9/9 38/7/10 37/9/9
f 38/7/10 15/9/9 13/7/10
f 17/11/11 37/9/9 39/11/11
f 37/9/9 17/11/11 15/9/9
f 10/4/3 36/3/3 9/3/3
f 36/3/3 10/4/3 40/4/3
f 13/7/10 35/5/7 38/7/10
f 35/5/7 13/7/10 11/5/7
f 41/6/6 36/3/6 40/4/6
f 36/3/6 41/6/6 35/5/6
f 35/5/6 41/6/6 38/7/6
f 38/7/6 41/6/6 42/8/6
f 38/7/6 42/8/6 37/9/6
f 37/9/6 42/8/6 43/10/6
f 37/9/6 43/10/6 39/11/6
f 39/11/6 43/10/6 44/12/6
f 39/11/6 44/12/6 45/13/6
f 45/13/6 44/12/6 46/14/6
f 45/13/6 46/14/6 47/15/6
f 47/15/6 46/14/6 48/16/6
f 47/15/6 48/16/6 49/17/6
f 49/17/6 48/16/6 50/18/6
f 50/18/6 48/16/6 51/19/6
f 50/18/6 51/19/6 52/20/6
f 52/20/6 51/19/6 53/21/6
f 52/20/6 53/21/6 54/22/6
f 54/22/6 53/21/6 55/23/6
f 55/23/6 53/21/6 56/24/6
f 55/23/6 56/24/6 57/25/6
f 57/25/6 56/24/6 58/25/6
f 58/25/6 56/24/6 59/26/6
f 58/25/6 59/26/6 60/27/6
f 19/13/12 39/11/11 45/13/12
f 39/11/11 19/13/12 17/11/11
f 21/15/14 49/17/13 23/17/13
f 49/17/13 21/15/14 47/15/14
f 23/17/13 50/18/15 24/18/15
f 50/18/15 23/17/13 49/17/13
f 29/23/17 57/25/16 31/25/16
f 57/25/16 29/23/17 55/23/17
f 28/22/18 55/23/17 29/23/17
f 55/23/17 28/22/18 54/22/18
f 26/20/19 54/22/18 28/22/18
f 54/22/18 26/20/19 52/20/19
f 32/25/2 57/25/2 58/25/2
f 57/25/2 32/25/2 31/25/2
f 60/27/21 32/25/20 58/25/20
f 32/25/20 60/27/21 34/27/21
f 21/15/14 45/13/12 47/15/14
f 45/13/12 21/15/14 19/13/12
f 24/18/15 52/20/19 26/20/19
f 52/20/19 24/18/15 50/18/15
f 56/24/23 33/26/22 59/26/22
f 33/26/22 56/24/23 30/24/23
f 10/4/24 41/6/25 40/4/24
f 41/6/25 10/4/24 12/6/25
f 48/16/27 25/19/26 51/19/26
f 25/19/26 48/16/27 22/16/27
f 14/8/28 43/10/29 42/8/28
f 43/10/29 14/8/28 16/10/29
f 53/21/30 30/24/23 56/24/23
f 30/24/23 53/21/30 27/21/30
f 51/19/26 27/21/30 53/21/30
f 27/21/30 51/19/26 25/19/26
f 59/26/22 34/27/21 60/27/21
f 34/27/21 59/26/22 33/26/22
f 12/6/25 42/8/28 41/6/25
f 42/8/28 12/6/25 14/8/28
f 16/10/29 44/12/31 43/10/29
f 44/12/31 16/10/29 18/12/31
f 18/12/31 46/14/32 44/12/31
f 46/14/32 18/12/31 20/14/32
f 20/14/32 48/16/27 46/14/32
f 48/16/27 20/14/32 22/16/27
f 63/30/4 62/29/4 61/28/4
f 62/29/4 63/30/4 64/29/4
f 64/29/4 63/30/4 65/31/4
f 64/29/4 65/31/4 66/32/4
f 64/29/4 66/32/4 67/33/4
f 64/29/4 67/33/4 68/34/4
f 64/29/4 68/34/4 69/35/4
f 64/29/4 69/35/4 70/36/4
f 64/29/4 70/36/4 71/37/4
f 64/29/4 71/37/4 72/38/4
f 64/29/4 72/38/4 73/39/4
f 64/29/4 73/39/4 74/40/4
f 64/29/4 74/40/4 75/41/4
f 64/29/4 75/41/4 76/41/4
f 62/29/3 77/28/3 61/28/3
f 77/28/3 62/29/3 78/29/3
f 79/29/6 77/28/6 78/29/6
f 77/28/6 79/29/6 80/30/6
f 80/30/6 79/29/6 81/31/6
f 81/31/6 79/29/6 82/32/6
f 82/32/6 79/29/6 83/33/6
f 83/33/6 79/29/6 84/34/6
f 84/34/6 79/29/6 85/35/6
f 85/35/6 79/29/6 86/36/6
f 86/36/6 79/29/6 87/37/6
f 87/37/6 79/29/6 88/38/6
f 88/38/6 79/29/6 89/39/6
f 89/39/6 79/29/6 90/40/6
f 90/40/6 79/29/6 91/41/6
f 91/41/6 79/29/6 92/41/6
f 76/41/2 91/41/2 92/41/2
f 91/41/2 76/41/2 75/41/2
f 62/29/1 79/29/1 78/29/1
f 79/29/1 62/29/1 64/29/1
g wall-arch-top
usemtl colormap
f 3/1/1 2/1/1 1/1/1
f 2/1/1 3/1/1 4/1/1
f 7/2/2 6/2/2 5/2/2
f 6/2/2 7/2/2 8/2/2
f 3/1/3 6/2/3 8/2/3
f 6/2/3 3/1/3 1/1/3
f 7/2/4 3/1/4 8/2/4
f 3/1/4 7/2/4 4/1/4
f 2/1/5 7/2/5 5/2/5
f 7/2/5 2/1/5 4/1/5
f 2/1/6 6/2/6 1/1/6
f 6/2/6 2/1/6 5/2/6
f 11/5/4 10/4/4 9/3/4
f 10/4/4 11/5/4 12/6/4
f 12/6/4 11/5/4 13/7/4
f 12/6/4 13/7/4 14/8/4
f 14/8/4 13/7/4 15/9/4
f 14/8/4 15/9/4 16/10/4
f 16/10/4 15/9/4 17/11/4
f 16/10/4 17/11/4 18/12/4
f 18/12/4 17/11/4 19/13/4
f 18/12/4 19/13/4 20/14/4
f 20/14/4 19/13/4 21/15/4
f 20/14/4 21/15/4 22/16/4
f 22/16/4 21/15/4 23/17/4
f 22/16/4 23/17/4 24/18/4
f 22/16/4 24/18/4 25/19/4
f 25/19/4 24/18/4 26/20/4
f 25/19/4 26/20/4 27/21/4
f 27/21/4 26/20/4 28/22/4
f 27/21/4 28/22/4 29/23/4
f 27/21/4 29/23/4 30/24/4
f 30/24/4 29/23/4 31/25/4
f 30/24/4 31/25/4 32/25/4
f 30/24/4 32/25/4 33/26/4
f 33/26/4 32/25/4 34/27/4
f 11/5/7 36/3/8 35/5/7
f 36/3/8 11/5/7 9/3/8
f 15/9/9 38/7/10 37/9/9
f 38/7/10 15/9/9 13/7/10
f 17/11/11 37/9/9 39/11/11
f 37/9/9 17/11/11 15/9/9
f 10/4/3 36/3/3 9/3/3
f 36/3/3 10/4/3 40/4/3
f 13/7/10 35/5/7 38/7/10
f 35/5/7 13/7/10 11/5/7
f 41/6/6 36/3/6 40/4/6
f 36/3/6 41/6/6 35/5/6
f 35/5/6 41/6/6 38/7/6
f 38/7/6 41/6/6 42/8/6
f 38/7/6 42/8/6 37/9/6
f 37/9/6 42/8/6 43/10/6
f 37/9/6 43/10/6 39/11/6
f 39/11/6 43/10/6 44/12/6
f 39/11/6 44/12/6 45/13/6
f 45/13/6 44/12/6 46/14/6
f 45/13/6 46/14/6 47/15/6
f 47/15/6 46/14/6 48/16/6
f 47/15/6 48/16/6 49/17/6
f 49/17/6 48/16/6 50/18/6
f 50/18/6 48/16/6 51/19/6
f 50/18/6 51/19/6 52/20/6
f 52/20/6 51/19/6 53/21/6
f 52/20/6 53/21/6 54/22/6
f 54/22/6 53/21/6 55/23/6
f 55/23/6 53/21/6 56/24/6
f 55/23/6 56/24/6 57/25/6
f 57/25/6 56/24/6 58/25/6
f 58/25/6 56/24/6 59/26/6
f 58/25/6 59/26/6 60/27/6
f 19/13/12 39/11/11 45/13/12
f 39/11/11 19/13/12 17/11/11
f 21/15/14 49/17/13 23/17/13
f 49/17/13 21/15/14 47/15/14
f 23/17/13 50/18/15 24/18/15
f 50/18/15 23/17/13 49/17/13
f 29/23/17 57/25/16 31/25/16
f 57/25/16 29/23/17 55/23/17
f 28/22/18 55/23/17 29/23/17
f 55/23/17 28/22/18 54/22/18
f 26/20/19 54/22/18 28/22/18
f 54/22/18 26/20/19 52/20/19
f 32/25/2 57/25/2 58/25/2
f 57/25/2 32/25/2 31/25/2
f 60/27/21 32/25/20 58/25/20
f 32/25/20 60/27/21 34/27/21
f 21/15/14 45/13/12 47/15/14
f 45/13/12 21/15/14 19/13/12
f 24/18/15 52/20/19 26/20/19
f 52/20/19 24/18/15 50/18/15
f 56/24/23 33/26/22 59/26/22
f 33/26/22 56/24/23 30/24/23
f 10/4/24 41/6/25 40/4/24
f 41/6/25 10/4/24 12/6/25
f 48/16/27 25/19/26 51/19/26
f 25/19/26 48/16/27 22/16/27
f 14/8/28 43/10/29 42/8/28
f 43/10/29 14/8/28 16/10/29
f 53/21/30 30/24/23 56/24/23
f 30/24/23 53/21/30 27/21/30
f 51/19/26 27/21/30 53/21/30
f 27/21/30 51/19/26 25/19/26
f 59/26/22 34/27/21 60/27/21
f 34/27/21 59/26/22 33/26/22
f 12/6/25 42/8/28 41/6/25
f 42/8/28 12/6/25 14/8/28
f 16/10/29 44/12/31 43/10/29
f 44/12/31 16/10/29 18/12/31
f 18/12/31 46/14/32 44/12/31
f 46/14/32 18/12/31 20/14/32
f 20/14/32 48/16/27 46/14/32
f 48/16/27 20/14/32 22/16/27
f 63/30/4 62/29/4 61/28/4
f 62/29/4 63/30/4 64/29/4
f 64/29/4 63/30/4 65/31/4
f 64/29/4 65/31/4 66/32/4
f 64/29/4 66/32/4 67/33/4
f 64/29/4 67/33/4 68/34/4
f 64/29/4 68/34/4 69/35/4
f 64/29/4 69/35/4 70/36/4
f 64/29/4 70/36/4 71/37/4
f 64/29/4 71/37/4 72/38/4
f 64/29/4 72/38/4 73/39/4
f 64/29/4 73/39/4 74/40/4
f 64/29/4 74/40/4 75/41/4
f 64/29/4 75/41/4 76/41/4
f 62/29/3 77/28/3 61/28/3
f 77/28/3 62/29/3 78/29/3
f 79/29/6 77/28/6 78/29/6
f 77/28/6 79/29/6 80/30/6
f 80/30/6 79/29/6 81/31/6
f 81/31/6 79/29/6 82/32/6
f 82/32/6 79/29/6 83/33/6
f 83/33/6 79/29/6 84/34/6
f 84/34/6 79/29/6 85/35/6
f 85/35/6 79/29/6 86/36/6
f 86/36/6 79/29/6 87/37/6
f 87/37/6 79/29/6 88/38/6
f 88/38/6 79/29/6 89/39/6
f 89/39/6 79/29/6 90/40/6
f 90/40/6 79/29/6 91/41/6
f 91/41/6 79/29/6 92/41/6
f 76/41/2 91/41/2 92/41/2
f 91/41/2 76/41/2 75/41/2
f 62/29/1 79/29/1 78/29/1
f 79/29/1 62/29/1 64/29/1
