mtllib wall-doorway-round.mtl
g wall-doorway-round
v 0.5 1 -0.5
v 0.5 1 -0.4
v 0.4 1 -0.5
v 0.4 1 -0.4
v 0.5 0 -0.4
v 0.5 0 -0.5
v 0.4 0 -0.4
v 0.4 0 -0.5
v 0.5 1 0.4
v 0.5 1 0.5
v 0.4 1 0.4
v 0.4 1 0.5
v 0.5 0 0.5
v 0.5 0 0.4
v 0.4 0 0.5
v 0.4 0 0.4
v 0.425 1.0733e-17 0.3
v 0.425 0.55 0.3
v 0.425 1.0733e-17 0.4
v 0.425 1 0.4
v 0.425 0.85 0
v 0.425 1 -0.4
v 0.425 0.55 -0.3
v 0.425 1.0733e-17 -0.3
v 0.425 1.0733e-17 -0.4
v 0.475 2.7583e-17 0.3
v 0.475 2.7583e-17 0.4
v 0.475 0.55 0.3
v 0.475 1 0.4
v 0.475 0.58392 0.28645
v 0.475 0.61675 0.27044
v 0.475 0.64831 0.25205
v 0.475 0.67843 0.23139
v 0.475 0.70695 0.20857
v 0.475 0.73371 0.18371
v 0.475 0.75857 0.15695
v 0.475 0.78139 0.12843
v 0.475 0.80205 0.098309
v 0.475 0.82044 0.066748
v 0.475 0.83645 0.033919
v 0.475 0.85 0
v 0.475 1 -0.4
v 0.475 0.83645 -0.033919
v 0.475 0.82044 -0.066748
v 0.475 0.80205 -0.098309
v 0.475 0.78139 -0.12843
v 0.475 0.75857 -0.15695
v 0.475 0.73371 -0.18371
v 0.475 0.70695 -0.20857
v 0.475 0.67843 -0.23139
v 0.475 0.64831 -0.25205
v 0.475 0.61675 -0.27044
v 0.475 0.58392 -0.28645
v 0.475 0.55 -0.3
v 0.475 2.7583e-17 -0.4
v 0.475 2.7583e-17 -0.3
v 0.5 4.295e-17 0.2
v 0.5 4.2932e-17 0.3
v 0.5 0.52691 0.2
v 0.5 0.64831 0.25205
v 0.5 0.55 0.3
v 0.5 0.73371 0.18371
v 0.5 0.5945 0.16704
v 0.5 0.66257 0.11257
v 0.5 0.80205 0.098309
v 0.5 0.71704 0.044496
v 0.5 0.85 2.8876e-15
v 0.5 0.73874 0
v 0.5 0.71704 -0.044496
v 0.5 0.80205 -0.098309
v 0.5 0.66257 -0.11257
v 0.5 0.5945 -0.16704
v 0.5 0.73371 -0.18371
v 0.5 0.52691 -0.2
v 0.5 0.64831 -0.25205
v 0.5 4.295e-17 -0.2
v 0.5 4.2932e-17 -0.3
v 0.5 0.55 -0.3
v 0.4 4.295e-17 0.2
v 0.4 0.52691 0.2
v 0.4 4.2932e-17 0.3
v 0.4 0.64831 0.25205
v 0.4 0.55 0.3
v 0.4 0.73371 0.18371
v 0.4 0.5945 0.16704
v 0.4 0.66257 0.11257
v 0.4 0.80205 0.098309
v 0.4 0.71704 0.044496
v 0.4 0.85 2.8876e-15
v 0.4 0.73874 0
v 0.4 0.71704 -0.044496
v 0.4 0.80205 -0.098309
v 0.4 0.66257 -0.11257
v 0.4 0.5945 -0.16704
v 0.4 0.73371 -0.18371
v 0.4 0.52691 -0.2
v 0.4 0.64831 -0.25205
v 0.4 4.295e-17 -0.2
v 0.4 0.55 -0.3
v 0.4 4.2932e-17 -0.3
vn 0 1 0
vn 0 -1 0
vn 0 0 -1
vn -1 0 0
vn 0 0 1
vn 1 0 0
vn 0 0.22495 0.97437
vn 0 0.53485 0.84495
vn 0 0.70711 0.70711
vn 0 0.84495 0.53485
vn 0 0.89879 0.43838
vn 0 0.84495 -0.53485
vn 0 0.89879 -0.43838
vn 0 0.70711 -0.70711
vn 0 0.53485 -0.84495
vn 0 0.22495 -0.97437
vn 0 -0.22495 0.97437
vn 0 -0.53485 0.84495
vn 0 -0.70711 0.70711
vn 0 -0.84495 0.53485
vn 0 -0.89879 0.43838
vn 0 -0.84495 -0.53485
vn 0 -0.89879 -0.43838
vn 0 -0.70711 -0.70711
vn 0 -0.53485 -0.84495
vn 0 -0.22495 -0.97437
vt 0.59375 0.175
vt 0.59375 0.075
vt 0.21875 0.325
vt 0.21875 0.38
vt 0.21875 0.425
vt 0.21875 0.41
vt 0.21875 0.38339
vt 0.21875 0.38667
vt 0.21875 0.38983
vt 0.21875 0.39284
vt 0.21875 0.3957
vt 0.21875 0.39837
vt 0.21875 0.40086
vt 0.21875 0.40314
vt 0.21875 0.40521
vt 0.21875 0.40704
vt 0.21875 0.40864
vt 0.96875 0.075
vt 0.96875 0.13699
vt 0.96875 0.15127
vt 0.96875 0.13971
vt 0.96875 0.16132
vt 0.96875 0.14494
vt 0.96875 0.15295
vt 0.96875 0.16936
vt 0.96875 0.15936
vt 0.96875 0.175
vt 0.96875 0.16191
usemtl colormap
f 3/1/1 2/1/1 1/1/1
f 2/1/1 3/1/1 4/1/1
f 7/2/2 6/2/2 5/2/2
f 6/2/2 7/2/2 8/2/2
f 3/1/3 6/2/3 8/2/3
f 6/2/3 3/1/3 1/1/3
f 7/2/4 3/1/4 8/2/4
f 3/1/4 7/2/4 4/1/4
f 2/1/5 7/2/5 5/2/5
f 7/2/5 2/1/5 4/1/5
f 2/1/6 6/2/6 1/1/6
f 6/2/6 2/1/6 5/2/6
f 11/1/1 10/1/1 9/1/1
f 10/1/1 11/1/1 12/1/1
f 15/2/2 14/2/2 13/2/2
f 14/2/2 15/2/2 16/2/2
f 11/1/3 14/2/3 16/2/3
f 14/2/3 11/1/3 9/1/3
f 15/2/4 11/1/4 16/2/4
f 11/1/4 15/2/4 12/1/4
f 10/1/5 15/2/5 13/2/5
f 15/2/5 10/1/5 12/1/5
f 10/1/6 14/2/6 9/1/6
f 14/2/6 10/1/6 13/2/6
f 19/3/4 18/4/4 17/3/4
f 20/5/4 18/4/4 19/3/4
f 20/5/4 21/6/4 18/4/4
f 22/5/4 21/6/4 20/5/4
f 22/5/4 23/4/4 21/6/4
f 22/5/4 24/3/4 23/4/4
f 24/3/4 22/5/4 25/3/4
f 28/4/6 27/3/6 26/3/6
f 27/3/6 28/4/6 29/5/6
f 30/7/6 29/5/6 28/4/6
f 28/4/6 31/8/6 30/7/6
f 31/8/6 29/5/6 30/7/6
f 28/4/6 32/9/6 31/8/6
f 32/9/6 29/5/6 31/8/6
f 28/4/6 33/10/6 32/9/6
f 33/10/6 29/5/6 32/9/6
f 28/4/6 34/11/6 33/10/6
f 34/11/6 29/5/6 33/10/6
f 35/12/6 29/5/6 34/11/6
f 28/4/6 35/12/6 34/11/6
f 36/13/6 29/5/6 35/12/6
f 28/4/6 36/13/6 35/12/6
f 37/14/6 29/5/6 36/13/6
f 28/4/6 37/14/6 36/13/6
f 38/15/6 29/5/6 37/14/6
f 28/4/6 38/15/6 37/14/6
f 28/4/6 39/16/6 38/15/6
f 39/16/6 29/5/6 38/15/6
f 28/4/6 40/17/6 39/16/6
f 40/17/6 29/5/6 39/16/6
f 40/17/6 28/4/6 41/6/6
f 41/6/6 29/5/6 40/17/6
f 41/6/6 42/5/6 29/5/6
f 43/17/6 42/5/6 41/6/6
f 41/6/6 44/16/6 43/17/6
f 44/16/6 42/5/6 43/17/6
f 41/6/6 45/15/6 44/16/6
f 45/15/6 42/5/6 44/16/6
f 41/6/6 46/14/6 45/15/6
f 46/14/6 42/5/6 45/15/6
f 41/6/6 47/13/6 46/14/6
f 47/13/6 42/5/6 46/14/6
f 48/12/6 42/5/6 47/13/6
f 41/6/6 48/12/6 47/13/6
f 49/11/6 42/5/6 48/12/6
f 41/6/6 49/11/6 48/12/6
f 50/10/6 42/5/6 49/11/6
f 41/6/6 50/10/6 49/11/6
f 51/9/6 42/5/6 50/10/6
f 41/6/6 51/9/6 50/10/6
f 41/6/6 52/8/6 51/9/6
f 52/8/6 42/5/6 51/9/6
f 41/6/6 53/7/6 52/8/6
f 53/7/6 42/5/6 52/8/6
f 53/7/6 41/6/6 54/4/6
f 54/4/6 42/5/6 53/7/6
f 42/5/6 54/4/6 55/3/6
f 56/3/6 55/3/6 54/4/6
f 19/3/2 26/3/2 27/3/2
f 26/3/2 19/3/2 17/3/2
f 22/5/1 29/5/1 42/5/1
f 29/5/1 22/5/1 20/5/1
f 24/3/2 55/3/2 56/3/2
f 55/3/2 24/3/2 25/3/2
f 59/19/6 58/18/6 57/18/6
f 58/18/6 59/19/6 60/20/6
f 58/18/6 60/20/6 61/21/6
f 59/19/6 62/22/6 60/20/6
f 63/23/6 62/22/6 59/19/6
f 64/24/6 62/22/6 63/23/6
f 64/24/6 65/25/6 62/22/6
f 66/26/6 65/25/6 64/24/6
f 66/26/6 67/27/6 65/25/6
f 68/28/6 67/27/6 66/26/6
f 69/26/6 67/27/6 68/28/6
f 69/26/6 70/25/6 67/27/6
f 71/24/6 70/25/6 69/26/6
f 72/23/6 70/25/6 71/24/6
f 72/23/6 73/22/6 70/25/6
f 74/19/6 73/22/6 72/23/6
f 73/22/6 74/19/6 75/20/6
f 76/18/6 75/20/6 74/19/6
f 77/18/6 75/20/6 76/18/6
f 75/20/6 77/18/6 78/21/6
f 81/18/4 80/19/4 79/18/4
f 80/19/4 81/18/4 82/20/4
f 82/20/4 81/18/4 83/21/4
f 84/22/4 80/19/4 82/20/4
f 84/22/4 85/23/4 80/19/4
f 84/22/4 86/24/4 85/23/4
f 87/25/4 86/24/4 84/22/4
f 87/25/4 88/26/4 86/24/4
f 89/27/4 88/26/4 87/25/4
f 89/27/4 90/28/4 88/26/4
f 89/27/4 91/26/4 90/28/4
f 92/25/4 91/26/4 89/27/4
f 92/25/4 93/24/4 91/26/4
f 92/25/4 94/23/4 93/24/4
f 95/22/4 94/23/4 92/25/4
f 95/22/4 96/19/4 94/23/4
f 97/20/4 96/19/4 95/22/4
f 97/20/4 98/18/4 96/19/4
f 99/21/4 98/18/4 97/20/4
f 98/18/4 99/21/4 100/18/4
f 61/21/7 81/18/5 58/18/5
f 81/18/5 61/21/7 83/21/7
f 60/20/8 83/21/7 61/21/7
f 83/21/7 60/20/8 82/20/8
f 62/22/9 82/20/8 60/20/8
f 82/20/8 62/22/9 84/22/9
f 87/25/10 62/22/9 65/25/10
f 62/22/9 87/25/10 84/22/9
f 89/27/11 65/25/10 67/27/11
f 65/25/10 89/27/11 87/25/10
f 92/25/12 67/27/13 70/25/12
f 67/27/13 92/25/12 89/27/13
f 95/22/14 70/25/12 73/22/14
f 70/25/12 95/22/14 92/25/12
f 95/22/14 75/20/15 97/20/15
f 75/20/15 95/22/14 73/22/14
f 97/20/15 78/21/16 99/21/16
f 78/21/16 97/20/15 75/20/15
f 99/21/16 77/18/3 100/18/3
f 77/18/3 99/21/16 78/21/16
f 98/18/2 77/18/2 76/18/2
f 77/18/2 98/18/2 100/18/2
f 74/19/17 98/18/5 76/18/5
f 98/18/5 74/19/17 96/19/17
f 72/23/18 96/19/17 74/19/17
f 96/19/17 72/23/18 94/23/18
f 71/24/19 94/23/18 72/23/18
f 94/23/18 71/24/19 93/24/19
f 91/26/20 71/24/19 69/26/20
f 71/24/19 91/26/20 93/24/19
f 90/28/21 69/26/20 68/28/21
f 69/26/20 90/28/21 91/26/20
f 88/26/22 68/28/23 66/26/22
f 68/28/23 88/26/22 90/28/23
f 86/24/24 66/26/22 64/24/24
f 66/26/22 86/24/24 88/26/22
f 86/24/24 63/23/25 85/23/25
f 63/23/25 86/24/24 64/24/24
f 85/23/25 59/19/26 80/19/26
f 59/19/26 85/23/25 63/23/25
f 80/19/26 57/18/3 79/18/3
f 57/18/3 80/19/26 59/19/26
f 81/18/2 57/18/2 58/18/2
f 57/18/2 81/18/2 79/18/2
g wall-doorway-round
usemtl colormap
f 3/1/1 2/1/1 1/1/1
f 2/1/1 3/1/1 4/1/1
f 7/2/2 6/2/2 5/2/2
f 6/2/2 7/2/2 8/2/2
f 3/1/3 6/2/3 8/2/3
f 6/2/3 3/1/3 1/1/3
f 7/2/4 3/1/4 8/2/4
f 3/1/4 7/2/4 4/1/4
f 2/1/5 7/2/5 5/2/5
f 7/2/5 2/1/5 4/1/5
f 2/1/6 6/2/6 1/1/6
f 6/2/6 2/1/6 5/2/6
f 11/1/1 10/1/1 9/1/1
f 10/1/1 11/1/1 12/1/1
f 15/2/2 14/2/2 13/2/2
f 14/2/2 15/2/2 16/2/2
f 11/1/3 14/2/3 16/2/3
f 14/2/3 11/1/3 9/1/3
f 15/2/4 11/1/4 16/2/4
f 11/1/4 15/2/4 12/1/4
f 10/1/5 15/2/5 13/2/5
f 15/2/5 10/1/5 12/1/5
f 10/1/6 14/2/6 9/1/6
f 14/2/6 10/1/6 13/2/6
f 19/3/4 18/4/4 17/3/4
f 20/5/4 18/4/4 19/3/4
f 20/5/4 21/6/4 18/4/4
f 22/5/4 21/6/4 20/5/4
f 22/5/4 23/4/4 21/6/4
f 22/5/4 24/3/4 23/4/4
f 24/3/4 22/5/4 25/3/4
f 28/4/6 27/3/6 26/3/6
f 27/3/6 28/4/6 29/5/6
f 30/7/6 29/5/6 28/4/6
f 28/4/6 31/8/6 30/7/6
f 31/8/6 29/5/6 30/7/6
f 28/4/6 32/9/6 31/8/6
f 32/9/6 29/5/6 31/8/6
f 28/4/6 33/10/6 32/9/6
f 33/10/6 29/5/6 32/9/6
f 28/4/6 34/11/6 33/10/6
f 34/11/6 29/5/6 33/10/6
f 35/12/6 29/5/6 34/11/6
f 28/4/6 35/12/6 34/11/6
f 36/13/6 29/5/6 35/12/6
f 28/4/6 36/13/6 35/12/6
f 37/14/6 29/5/6 36/13/6
f 28/4/6 37/14/6 36/13/6
f 38/15/6 29/5/6 37/14/6
f 28/4/6 38/15/6 37/14/6
f 28/4/6 39/16/6 38/15/6
f 39/16/6 29/5/6 38/15/6
f 28/4/6 40/17/6 39/16/6
f 40/17/6 29/5/6 39/16/6
f 40/17/6 28/4/6 41/6/6
f 41/6/6 29/5/6 40/17/6
f 41/6/6 42/5/6 29/5/6
f 43/17/6 42/5/6 41/6/6
f 41/6/6 44/16/6 43/17/6
f 44/16/6 42/5/6 43/17/6
f 41/6/6 45/15/6 44/16/6
f 45/15/6 42/5/6 44/16/6
f 41/6/6 46/14/6 45/15/6
f 46/14/6 42/5/6 45/15/6
f 41/6/6 47/13/6 46/14/6
f 47/13/6 42/5/6 46/14/6
f 48/12/6 42/5/6 47/13/6
f 41/6/6 48/12/6 47/13/6
f 49/11/6 42/5/6 48/12/6
f 41/6/6 49/11/6 48/12/6
f 50/10/6 42/5/6 49/11/6
f 41/6/6 50/10/6 49/11/6
f 51/9/6 42/5/6 50/10/6
f 41/6/6 51/9/6 50/10/6
f 41/6/6 52/8/6 51/9/6
f 52/8/6 42/5/6 51/9/6
f 41/6/6 53/7/6 52/8/6
f 53/7/6 42/5/6 52/8/6
f 53/7/6 41/6/6 54/4/6
f 54/4/6 42/5/6 53/7/6
f 42/5/6 54/4/6 55/3/6
f 56/3/6 55/3/6 54/4/6
f 19/3/2 26/3/2 27/3/2
f 26/3/2 19/3/2 17/3/2
f 22/5/1 29/5/1 42/5/1
f 29/5/1 22/5/1 20/5/1
f 24/3/2 55/3/2 56/3/2
f 55/3/2 24/3/2 25/3/2
f 59/19/6 58/18/6 57/18/6
f 58/18/6 59/19/6 60/20/6
f 58/18/6 60/20/6 61/21/6
f 59/19/6 62/22/6 60/20/6
f 63/23/6 62/22/6 59/19/6
f 64/24/6 62/22/6 63/23/6
f 64/24/6 65/25/6 62/22/6
f 66/26/6 65/25/6 64/24/6
f 66/26/6 67/27/6 65/25/6
f 68/28/6 67/27/6 66/26/6
f 69/26/6 67/27/6 68/28/6
f 69/26/6 70/25/6 67/27/6
f 71/24/6 70/25/6 69/26/6
f 72/23/6 70/25/6 71/24/6
f 72/23/6 73/22/6 70/25/6
f 74/19/6 73/22/6 72/23/6
f 73/22/6 74/19/6 75/20/6
f 76/18/6 75/20/6 74/19/6
f 77/18/6 75/20/6 76/18/6
f 75/20/6 77/18/6 78/21/6
f 81/18/4 80/19/4 79/18/4
f 80/19/4 81/18/4 82/20/4
f 82/20/4 81/18/4 83/21/4
f 84/22/4 80/19/4 82/20/4
f 84/22/4 85/23/4 80/19/4
f 84/22/4 86/24/4 85/23/4
f 87/25/4 86/24/4 84/22/4
f 87/25/4 88/26/4 86/24/4
f 89/27/4 88/26/4 87/25/4
f 89/27/4 90/28/4 88/26/4
f 89/27/4 91/26/4 90/28/4
f 92/25/4 91/26/4 89/27/4
f 92/25/4 93/24/4 91/26/4
f 92/25/4 94/23/4 93/24/4
f 95/22/4 94/23/4 92/25/4
f 95/22/4 96/19/4 94/23/4
f 97/20/4 96/19/4 95/22/4
f 97/20/4 98/18/4 96/19/4
f 99/21/4 98/18/4 97/20/4
f 98/18/4 99/21/4 100/18/4
f 61/21/7 81/18/5 58/18/5
f 81/18/5 61/21/7 83/21/7
f 60/20/8 83/21/7 61/21/7
f 83/21/7 60/20/8 82/20/8
f 62/22/9 82/20/8 60/20/8
f 82/20/8 62/22/9 84/22/9
f 87/25/10 62/22/9 65/25/10
f 62/22/9 87/25/10 84/22/9
f 89/27/11 65/25/10 67/27/11
f 65/25/10 89/27/11 87/25/10
f 92/25/12 67/27/13 70/25/12
f 67/27/13 92/25/12 89/27/13
f 95/22/14 70/25/12 73/22/14
f 70/25/12 95/22/14 92/25/12
f 95/22/14 75/20/15 97/20/15
f 75/20/15 95/22/14 73/22/14
f 97/20/15 78/21/16 99/21/16
f 78/21/16 97/20/15 75/20/15
f 99/21/16 77/18/3 100/18/3
f 77/18/3 99/21/16 78/21/16
f 98/18/2 77/18/2 76/18/2
f 77/18/2 98/18/2 100/18/2
f 74/19/17 98/18/5 76/18/5
f 98/18/5 74/19/17 96/19/17
f 72/23/18 96/19/17 74/19/17
f 96/19/17 72/23/18 94/23/18
f 71/24/19 94/23/18 72/23/18
f 94/23/18 71/24/19 93/24/19
f 91/26/20 71/24/19 69/26/20
f 71/24/19 91/26/20 93/24/19
f 90/28/21 69/26/20 68/28/21
f 69/26/20 90/28/21 91/26/20
f 88/26/22 68/28/23 66/26/22
f 68/28/23 88/26/22 90/28/23
f 86/24/24 66/26/22 64/24/24
f 66/26/22 86/24/24 88/26/22
f 86/24/24 63/23/25 85/23/25
f 63/23/25 86/24/24 64/24/24
f 85/23/25 59/19/26 80/19/26
f 59/19/26 85/23/25 63/23/25
f 80/19/26 57/18/3 79/18/3
f 57/18/3 80/19/26 59/19/26
f 81/18/2 57/18/2 58/18/2
f 57/18/2 81/18/2 79/18/2
