mtllib path-long.mtl
g path-long
v 0.1 0 0.2
v 0.1 1.3136e-17 -0.2
v -0.1 5.6399e-18 0.2
v -0.1 1.8776e-17 -0.2
v 0.07 0.01 -0.2
v -0.07 0.01 -0.2
v 0.07 0.01 0.2
v -0.07 0.01 0.2
vn 0 -1 0
vn 0 0 -1
vn 0 1 0
vn 0 0 1
vn 0.31623 0.94868 0
vn -0.31623 0.94868 0
vt 0.09375 0.325
vt 0.09375 0.425
vt 0.59375 0.325
vt 0.59375 0.425
usemtl colormap
f 3/1/1 2/1/1 1/1/1
f 2/1/1 3/1/1 4/1/1
f 4/1/2 5/2/2 2/1/2
f 5/2/2 4/1/2 6/2/2
f 6/2/3 7/2/3 5/2/3
f 7/2/3 6/2/3 8/2/3
f 7/2/4 3/1/4 1/1/4
f 3/1/4 7/2/4 8/2/4
f 5/4/5 1/3/5 2/3/5
f 1/3/5 5/4/5 7/4/5
f 4/3/6 8/4/6 6/4/6
f 8/4/6 4/3/6 3/3/6
g path-long
usemtl colormap
f 3/1/1 2/1/1 1/1/1
f 2/1/1 3/1/1 4/1/1
f 4/1/2 5/2/2 2/1/2
f 5/2/2 4/1/2 6/2/2
f 6/2/3 7/2/3 5/2/3
f 7/2/3 6/2/3 8/2/3
f 7/2/4 3/1/4 1/1/4
f 3/1/4 7/2/4 8/2/4
f 5/4/5 1/3/5 2/3/5
f 1/3/5 5/4/5 7/4/5
f 4/3/6 8/4/6 6/4/6
f 8/4/6 4/3/6 3/3/6
