mtllib path-short.mtl
g path-short
v 0.1 0 0.1
v 0.1 1.3136e-17 -0.1
v -0.1 5.6399e-18 0.1
v -0.1 1.8776e-17 -0.1
v 0.07 0.01 -0.1
v 0.07 0.01 0.1
v -0.07 0.01 -0.1
v -0.07 0.01 0.1
vn 0 -1 0
vn 0 1 0
vn 0 0 1
vn 0 0 -1
vn -0.31623 0.94868 0
vn 0.31623 0.94868 0
vt 0.09375 0.325
vt 0.09375 0.425
vt 0.59375 0.425
vt 0.59375 0.325
usemtl colormap
f 3/1/1 2/1/1 1/1/1
f 2/1/1 3/1/1 4/1/1
f 7/2/2 6/2/2 5/2/2
f 6/2/2 7/2/2 8/2/2
f 6/2/3 3/1/3 1/1/3
f 3/1/3 6/2/3 8/2/3
f 4/1/4 5/2/4 2/1/4
f 5/2/4 4/1/4 7/2/4
f 4/4/5 8/3/5 7/3/5
f 8/3/5 4/4/5 3/4/5
f 5/3/6 1/4/6 2/4/6
f 1/4/6 5/3/6 6/3/6
g path-short
usemtl colormap
f 3/1/1 2/1/1 1/1/1
f 2/1/1 3/1/1 4/1/1
f 7/2/2 6/2/2 5/2/2
f 6/2/2 7/2/2 8/2/2
f 6/2/3 3/1/3 1/1/3
f 3/1/3 6/2/3 8/2/3
f 4/1/4 5/2/4 2/1/4
f 5/2/4 4/1/4 7/2/4
f 4/4/5 8/3/5 7/3/5
f 8/3/5 4/4/5 3/4/5
f 5/3/6 1/4/6 2/4/6
f 1/4/6 5/3/6 6/3/6
