mtllib city_planter.mtl
g planter
v 0.2 0.05 -0.10057
v 0.2 2.7812e-20 -0.10057
v 0.2 0.05 0.099427
v 0.2 2.7812e-20 0.099427
v -0.15 2.7812e-20 -0.15057
v 0.15 2.7812e-20 -0.15057
v -0.15 0.05 -0.15057
v 0.15 0.05 -0.15057
v 0.18536 0 -0.13593
v 0.18536 0.05 -0.13593
v -0.2 2.7812e-20 -0.10057
v -0.2 0.05 -0.10057
v -0.2 2.7812e-20 0.099427
v -0.2 0.05 0.099427
v -0.18536 0 -0.13593
v -0.18536 0.05 -0.13593
v 0.18536 0 0.13478
v 0.15 2.7812e-20 0.14943
v -0.15 2.7812e-20 0.14943
v -0.18536 0 0.13478
v 0.18536 0.05 0.13478
v 0.18 0.05 -0.096595
v 0.17005 0.05 -0.12062
v 0.18 0.05 0.095448
v 0.17005 0.05 0.11947
v 0.14602 0.05 -0.13057
v 0.15 0.05 0.14943
v 0.14602 0.05 0.12943
v -0.14602 0.05 -0.13057
v -0.17005 0.05 -0.12062
v -0.15 0.05 0.14943
v -0.14602 0.05 0.12943
v -0.17005 0.05 0.11947
v -0.18536 0.05 0.13478
v -0.18 0.05 -0.096595
v -0.18 0.05 0.095448
v -0.17005 0.03 -0.12062
v -0.18 0.03 -0.096595
v -0.18 0.03 0.095448
v 0.17005 0.03 -0.12062
v 0.18 0.03 -0.096595
v 0.14602 0.03 -0.13057
v -0.14602 0.03 -0.13057
v -0.17005 0.03 0.11947
v -0.14602 0.03 0.12943
v 0.18 0.03 0.095448
v 0.17005 0.03 0.11947
v 0.14602 0.03 0.12943
v 0.089443 0.17711 -0.027201
v 0.053577 0.17711 -0.027359
v 0.10751 0.17711 -0.058184
v 0.03578 0.17711 -0.058499
v 0.089716 0.17711 -0.089324
v 0.05385 0.17711 -0.089482
v 0.10779 0.09956 -0.12031
v 0.036053 0.09956 -0.12062
v 0.09574 0.03 -0.099652
v 0.047918 0.03 -0.099862
v 0.023825 0.03 -0.058552
v -8.6248e-05 0.09956 -0.058657
v 0.11947 0.03 -0.058131
v 0.14338 0.09956 -0.058026
v 0.095376 0.03 -0.016821
v 0.10724 0.09956 0.0039386
v 0.047554 0.03 -0.017032
v 0.035507 0.09956 0.0036233
v -0.095475 0.14156 -0.026337
v -0.11354 0.14156 -0.061223
v -0.05623 0.14156 -0.024542
v -0.092366 0.14156 -0.094313
v -0.035052 0.14156 -0.057632
v -0.05312 0.14156 -0.092518
v 0.0041936 0.082749 -0.055837
v -0.031943 0.082749 -0.12561
v -0.02197 0.03 -0.057034
v -0.046061 0.03 -0.10355
v -0.098389 0.03 -0.10594
v -0.11043 0.082749 -0.1292
v -0.050207 0.03 -0.012914
v -0.038162 0.082749 0.010343
v -0.10253 0.03 -0.015307
v -0.11665 0.082749 0.0067528
v -0.12663 0.03 -0.061821
v -0.15279 0.082749 -0.063018
v 0.093689 0.14156 0.024113
v 0.11358 0.14156 0.05799
v 0.054403 0.14156 0.024404
v 0.094192 0.14156 0.092158
v 0.035012 0.14156 0.058571
v 0.054907 0.14156 0.092448
v -0.0042735 0.082749 0.058862
v 0.035515 0.082749 0.12662
v 0.021917 0.03 0.058668
v 0.048443 0.03 0.10384
v 0.10082 0.03 0.10345
v 0.11409 0.082749 0.12603
v 0.047772 0.03 0.013111
v 0.034509 0.082749 -0.0094734
v 0.10015 0.03 0.012724
v 0.11308 0.082749 -0.010055
v 0.12668 0.03 0.057893
v 0.15287 0.082749 0.0577
v -0.070272 0.17711 0.021354
v -0.03992 0.17711 0.040465
v -0.102 0.17711 0.038084
v -0.041295 0.17711 0.076306
v -0.10337 0.17711 0.073924
v -0.073022 0.17711 0.093035
v -0.1351 0.09956 0.090654
v -0.074397 0.09956 0.12888
v -0.11395 0.03 0.079501
v -0.07348 0.03 0.10498
v -0.031178 0.03 0.082676
v -0.010944 0.09956 0.095417
v -0.11212 0.03 0.031713
v -0.13235 0.09956 0.018973
v -0.069813 0.03 0.0094076
v -0.068897 0.09956 -0.014486
v -0.029345 0.03 0.034889
v -0.0081942 0.09956 0.023736
vn 0.98079 0 -0.19509
vn 0.98079 0 0.19509
vn -0.19509 0 -0.98079
vn 0.19509 0 -0.98079
vn 0.70711 0 -0.70711
vn -0.98079 0 -0.19509
vn -0.98079 0 0.19509
vn -0.70711 0 -0.70711
vn 0 -1 0
vn 0 1 0
vn 0.70711 0 0.70711
vn 0.98079 0 0.19509
vn 0.98079 0 -0.19509
vn -0.70711 0 0.70711
vn -0.98079 0 0.19509
vn -0.19509 0 0.98079
vn 0.19509 0 0.98079
vn 0.19509 0 -0.98079
vn 0.19509 0 0.98079
vn -0.19509 0 0.98079
vn -0.98079 0 -0.19509
vn -0.19509 0 -0.98079
vn 0.33498 0.73771 0.58615
vn -0.34012 0.73771 0.58318
vn 0.67511 0.73771 0.0029675
vn -0.67511 0.73771 -0.0029675
vn 0.34012 0.73771 -0.58318
vn -0.33498 0.73771 -0.58615
vn 0.50333 0.043061 -0.86302
vn -0.49573 0.043061 -0.86741
vn 0.47644 -0.32508 -0.8169
vn -0.46924 -0.32508 -0.82106
vn -0.94568 -0.32508 -0.0041568
vn -0.99906 0.043061 -0.0043914
vn 0.94568 -0.32508 0.0041568
vn 0.99906 0.043061 0.0043914
vn 0.46924 -0.32508 0.82106
vn 0.49573 0.043061 0.86741
vn -0.47644 -0.32508 0.8169
vn -0.50333 0.043061 0.86302
vn -0.2885 0.84473 0.45078
vn -0.53463 0.84473 -0.024456
vn 0.24614 0.84473 0.47523
vn -0.24614 0.84473 -0.47523
vn 0.53463 0.84473 0.024456
vn 0.2885 0.84473 -0.45078
vn 0.99703 0.062137 0.045608
vn 0.53801 0.062137 -0.84064
vn 0.89473 -0.44472 0.040929
vn 0.48281 -0.44472 -0.7544
vn -0.41192 -0.44472 -0.79532
vn -0.45901 0.062137 -0.88625
vn 0.41192 -0.44472 0.79532
vn 0.45901 0.062137 0.88625
vn -0.48281 -0.44472 0.7544
vn -0.53801 0.062137 0.84064
vn -0.89473 -0.44472 -0.040929
vn -0.99703 0.062137 -0.045608
vn 0.26416 0.84473 -0.46546
vn 0.53518 0.84473 -0.0039584
vn -0.27102 0.84473 -0.4615
vn 0.27102 0.84473 0.4615
vn -0.53518 0.84473 0.0039584
vn -0.26416 0.84473 0.46546
vn -0.99804 0.062137 0.007382
vn -0.49263 0.062137 0.86802
vn -0.89564 -0.44472 0.0066247
vn -0.44208 -0.44472 0.77896
vn 0.45356 -0.44472 0.77234
vn 0.50541 0.062137 0.86064
vn -0.45356 -0.44472 -0.77234
vn -0.50541 0.062137 -0.86064
vn 0.44208 -0.44472 -0.77896
vn 0.49263 0.062137 -0.86802
vn 0.89564 -0.44472 -0.0066247
vn 0.99804 0.062137 -0.007382
vn 0.025882 0.73771 -0.67462
vn 0.59718 0.73771 -0.3149
vn -0.5713 0.73771 -0.35972
vn 0.5713 0.73771 0.35972
vn -0.59718 0.73771 0.3149
vn -0.025882 0.73771 0.67462
vn -0.88374 0.043061 0.466
vn -0.038301 0.043061 0.99834
vn -0.83651 -0.32508 0.4411
vn -0.036255 -0.32508 0.94499
vn 0.80026 -0.32508 0.50389
vn 0.84544 0.043061 0.53234
vn -0.80026 -0.32508 -0.50389
vn -0.84544 0.043061 -0.53234
vn 0.036255 -0.32508 -0.94499
vn 0.038301 0.043061 -0.99834
vn 0.83651 -0.32508 -0.4411
vn 0.88374 0.043061 -0.466
vt 0.09375 0.475
vt 0.09375 0.275
vt 0.09375 0.395
vt 0.59375 0.395
vt 0.21875 0.225
vt 0.21875 0.11957
vt 0.21875 0.025
usemtl colormap
f 3/1/2 2/2/1 1/1/1
f 2/2/1 3/1/2 4/2/2
f 7/1/3 6/2/4 5/2/3
f 6/2/4 7/1/3 8/1/4
f 6/2/4 10/1/5 9/2/5
f 10/1/5 6/2/4 8/1/4
f 1/1/1 9/2/5 10/1/5
f 9/2/5 1/1/1 2/2/1
f 13/2/7 12/1/6 11/2/6
f 12/1/6 13/2/7 14/1/7
f 11/2/6 16/1/8 15/2/8
f 16/1/8 11/2/6 12/1/6
f 16/1/8 5/2/3 15/2/8
f 5/2/3 16/1/8 7/1/3
f 4/2/9 9/2/9 2/2/9
f 9/2/9 4/2/9 17/2/9
f 9/2/9 17/2/9 6/2/9
f 6/2/9 17/2/9 18/2/9
f 6/2/9 18/2/9 5/2/9
f 5/2/9 18/2/9 19/2/9
f 5/2/9 19/2/9 15/2/9
f 15/2/9 19/2/9 20/2/9
f 15/2/9 20/2/9 11/2/9
f 11/2/9 20/2/9 13/2/9
f 10/1/10 3/1/10 1/1/10
f 3/1/10 10/1/10 21/1/10
f 21/1/10 10/1/10 22/1/10
f 22/1/10 10/1/10 23/1/10
f 24/1/10 21/1/10 22/1/10
f 23/1/10 10/1/10 8/1/10
f 25/1/10 21/1/10 24/1/10
f 23/1/10 8/1/10 26/1/10
f 21/1/10 25/1/10 27/1/10
f 27/1/10 25/1/10 28/1/10
f 26/1/10 8/1/10 7/1/10
f 26/1/10 7/1/10 29/1/10
f 29/1/10 7/1/10 30/1/10
f 27/1/10 28/1/10 31/1/10
f 31/1/10 28/1/10 32/1/10
f 31/1/10 32/1/10 33/1/10
f 30/1/10 7/1/10 16/1/10
f 31/1/10 33/1/10 34/1/10
f 30/1/10 16/1/10 35/1/10
f 35/1/10 16/1/10 36/1/10
f 34/1/10 33/1/10 36/1/10
f 34/1/10 36/1/10 16/1/10
f 34/1/10 16/1/10 12/1/10
f 34/1/10 12/1/10 14/1/10
f 35/1/12 37/3/11 30/1/11
f 37/3/11 35/1/12 38/3/12
f 36/1/13 38/3/12 35/1/12
f 38/3/12 36/1/13 39/3/13
f 41/3/15 23/1/14 40/3/14
f 23/1/14 41/3/15 22/1/15
f 23/1/14 42/3/16 40/3/14
f 42/3/16 23/1/14 26/1/16
f 26/1/16 43/3/17 42/3/16
f 43/3/17 26/1/16 29/1/17
f 29/1/17 37/3/11 43/3/17
f 37/3/11 29/1/17 30/1/11
f 33/1/5 45/3/18 44/3/5
f 45/3/18 33/1/5 32/1/18
f 33/1/5 39/3/13 36/1/13
f 39/3/13 33/1/5 44/3/5
f 27/1/19 19/2/20 18/2/19
f 19/2/20 27/1/19 31/1/20
f 47/3/8 24/1/21 46/3/21
f 24/1/21 47/3/8 25/1/8
f 20/2/14 14/1/7 13/2/7
f 14/1/7 20/2/14 34/1/14
f 19/2/20 34/1/14 20/2/14
f 34/1/14 19/2/20 31/1/20
f 32/1/18 48/3/22 45/3/18
f 48/3/22 32/1/18 28/1/22
f 28/1/22 47/3/8 48/3/22
f 47/3/8 28/1/22 25/1/8
f 21/1/11 4/2/2 3/1/2
f 4/2/2 21/1/11 17/2/11
f 21/1/11 18/2/19 17/2/11
f 18/2/19 21/1/11 27/1/19
f 46/3/21 22/1/15 41/3/15
f 22/1/15 46/3/21 24/1/21
f 40/4/10 46/4/10 41/4/10
f 46/4/10 40/4/10 47/4/10
f 47/4/10 40/4/10 42/4/10
f 47/4/10 42/4/10 48/4/10
f 48/4/10 42/4/10 43/4/10
f 48/4/10 43/4/10 45/4/10
f 45/4/10 43/4/10 37/4/10
f 45/4/10 37/4/10 44/4/10
f 44/4/10 37/4/10 38/4/10
f 44/4/10 38/4/10 39/4/10
f 51/5/25 50/5/24 49/5/23
f 50/5/24 51/5/25 52/5/26
f 52/5/26 51/5/25 53/5/27
f 52/5/26 53/5/27 54/5/28
f 57/7/31 56/6/30 55/6/29
f 56/6/30 57/7/31 58/7/32
f 60/6/34 58/7/32 59/7/33
f 58/7/32 60/6/34 56/6/30
f 55/6/29 61/7/35 57/7/31
f 61/7/35 55/6/29 62/6/36
f 62/6/36 63/7/37 61/7/35
f 63/7/37 62/6/36 64/6/38
f 66/6/40 59/7/33 65/7/39
f 59/7/33 66/6/40 60/6/34
f 66/6/40 63/7/37 64/6/38
f 63/7/37 66/6/40 65/7/39
f 56/6/30 53/5/27 55/6/29
f 53/5/27 56/6/30 54/5/28
f 50/5/24 60/6/34 66/6/40
f 60/6/34 50/5/24 52/5/26
f 49/5/23 66/6/40 64/6/38
f 66/6/40 49/5/23 50/5/24
f 52/5/26 56/6/30 60/6/34
f 56/6/30 52/5/26 54/5/28
f 51/5/25 64/6/38 62/6/36
f 64/6/38 51/5/25 49/5/23
f 53/5/27 62/6/36 55/6/29
f 62/6/36 53/5/27 51/5/25
f 69/5/43 68/5/42 67/5/41
f 68/5/42 69/5/43 70/5/44
f 70/5/44 69/5/43 71/5/45
f 70/5/44 71/5/45 72/5/46
f 75/7/49 74/6/48 73/6/47
f 74/6/48 75/7/49 76/7/50
f 78/6/52 76/7/50 77/7/51
f 76/7/50 78/6/52 74/6/48
f 73/6/47 79/7/53 75/7/49
f 79/7/53 73/6/47 80/6/54
f 80/6/54 81/7/55 79/7/53
f 81/7/55 80/6/54 82/6/56
f 84/6/58 77/7/51 83/7/57
f 77/7/51 84/6/58 78/6/52
f 84/6/58 81/7/55 82/6/56
f 81/7/55 84/6/58 83/7/57
f 74/6/48 71/5/45 73/6/47
f 71/5/45 74/6/48 72/5/46
f 68/5/42 78/6/52 84/6/58
f 78/6/52 68/5/42 70/5/44
f 67/5/41 84/6/58 82/6/56
f 84/6/58 67/5/41 68/5/42
f 70/5/44 74/6/48 78/6/52
f 74/6/48 70/5/44 72/5/46
f 69/5/43 82/6/56 80/6/54
f 82/6/56 69/5/43 67/5/41
f 71/5/45 80/6/54 73/6/47
f 80/6/54 71/5/45 69/5/43
f 87/5/61 86/5/60 85/5/59
f 86/5/60 87/5/61 88/5/62
f 88/5/62 87/5/61 89/5/63
f 88/5/62 89/5/63 90/5/64
f 93/7/67 92/6/66 91/6/65
f 92/6/66 93/7/67 94/7/68
f 96/6/70 94/7/68 95/7/69
f 94/7/68 96/6/70 92/6/66
f 91/6/65 97/7/71 93/7/67
f 97/7/71 91/6/65 98/6/72
f 98/6/72 99/7/73 97/7/71
f 99/7/73 98/6/72 100/6/74
f 102/6/76 95/7/69 101/7/75
f 95/7/69 102/6/76 96/6/70
f 102/6/76 99/7/73 100/6/74
f 99/7/73 102/6/76 101/7/75
f 92/6/66 89/5/63 91/6/65
f 89/5/63 92/6/66 90/5/64
f 86/5/60 96/6/70 102/6/76
f 96/6/70 86/5/60 88/5/62
f 85/5/59 102/6/76 100/6/74
f 102/6/76 85/5/59 86/5/60
f 88/5/62 92/6/66 96/6/70
f 92/6/66 88/5/62 90/5/64
f 87/5/61 100/6/74 98/6/72
f 100/6/74 87/5/61 85/5/59
f 89/5/63 98/6/72 91/6/65
f 98/6/72 89/5/63 87/5/61
f 105/5/79 104/5/78 103/5/77
f 104/5/78 105/5/79 106/5/80
f 106/5/80 105/5/79 107/5/81
f 106/5/80 107/5/81 108/5/82
f 111/7/85 110/6/84 109/6/83
f 110/6/84 111/7/85 112/7/86
f 114/6/88 112/7/86 113/7/87
f 112/7/86 114/6/88 110/6/84
f 109/6/83 115/7/89 111/7/85
f 115/7/89 109/6/83 116/6/90
f 116/6/90 117/7/91 115/7/89
f 117/7/91 116/6/90 118/6/92
f 120/6/94 113/7/87 119/7/93
f 113/7/87 120/6/94 114/6/88
f 120/6/94 117/7/91 118/6/92
f 117/7/91 120/6/94 119/7/93
f 110/6/84 107/5/81 109/6/83
f 107/5/81 110/6/84 108/5/82
f 104/5/78 114/6/88 120/6/94
f 114/6/88 104/5/78 106/5/80
f 103/5/77 120/6/94 118/6/92
f 120/6/94 103/5/77 104/5/78
f 106/5/80 110/6/84 114/6/88
f 110/6/84 106/5/80 108/5/82
f 105/5/79 118/6/92 116/6/90
f 118/6/92 105/5/79 103/5/77
f 107/5/81 116/6/90 109/6/83
f 116/6/90 107/5/81 105/5/79
g planter
usemtl colormap
f 3/1/2 2/2/1 1/1/1
f 2/2/1 3/1/2 4/2/2
f 7/1/3 6/2/4 5/2/3
f 6/2/4 7/1/3 8/1/4
f 6/2/4 10/1/5 9/2/5
f 10/1/5 6/2/4 8/1/4
f 1/1/1 9/2/5 10/1/5
f 9/2/5 1/1/1 2/2/1
f 13/2/7 12/1/6 11/2/6
f 12/1/6 13/2/7 14/1/7
f 11/2/6 16/1/8 15/2/8
f 16/1/8 11/2/6 12/1/6
f 16/1/8 5/2/3 15/2/8
f 5/2/3 16/1/8 7/1/3
f 4/2/9 9/2/9 2/2/9
f 9/2/9 4/2/9 17/2/9
f 9/2/9 17/2/9 6/2/9
f 6/2/9 17/2/9 18/2/9
f 6/2/9 18/2/9 5/2/9
f 5/2/9 18/2/9 19/2/9
f 5/2/9 19/2/9 15/2/9
f 15/2/9 19/2/9 20/2/9
f 15/2/9 20/2/9 11/2/9
f 11/2/9 20/2/9 13/2/9
f 10/1/10 3/1/10 1/1/10
f 3/1/10 10/1/10 21/1/10
f 21/1/10 10/1/10 22/1/10
f 22/1/10 10/1/10 23/1/10
f 24/1/10 21/1/10 22/1/10
f 23/1/10 10/1/10 8/1/10
f 25/1/10 21/1/10 24/1/10
f 23/1/10 8/1/10 26/1/10
f 21/1/10 25/1/10 27/1/10
f 27/1/10 25/1/10 28/1/10
f 26/1/10 8/1/10 7/1/10
f 26/1/10 7/1/10 29/1/10
f 29/1/10 7/1/10 30/1/10
f 27/1/10 28/1/10 31/1/10
f 31/1/10 28/1/10 32/1/10
f 31/1/10 32/1/10 33/1/10
f 30/1/10 7/1/10 16/1/10
f 31/1/10 33/1/10 34/1/10
f 30/1/10 16/1/10 35/1/10
f 35/1/10 16/1/10 36/1/10
f 34/1/10 33/1/10 36/1/10
f 34/1/10 36/1/10 16/1/10
f 34/1/10 16/1/10 12/1/10
f 34/1/10 12/1/10 14/1/10
f 35/1/12 37/3/11 30/1/11
f 37/3/11 35/1/12 38/3/12
f 36/1/13 38/3/12 35/1/12
f 38/3/12 36/1/13 39/3/13
f 41/3/15 23/1/14 40/3/14
f 23/1/14 41/3/15 22/1/15
f 23/1/14 42/3/16 40/3/14
f 42/3/16 23/1/14 26/1/16
f 26/1/16 43/3/17 42/3/16
f 43/3/17 26/1/16 29/1/17
f 29/1/17 37/3/11 43/3/17
f 37/3/11 29/1/17 30/1/11
f 33/1/5 45/3/18 44/3/5
f 45/3/18 33/1/5 32/1/18
f 33/1/5 39/3/13 36/1/13
f 39/3/13 33/1/5 44/3/5
f 27/1/19 19/2/20 18/2/19
f 19/2/20 27/1/19 31/1/20
f 47/3/8 24/1/21 46/3/21
f 24/1/21 47/3/8 25/1/8
f 20/2/14 14/1/7 13/2/7
f 14/1/7 20/2/14 34/1/14
f 19/2/20 34/1/14 20/2/14
f 34/1/14 19/2/20 31/1/20
f 32/1/18 48/3/22 45/3/18
f 48/3/22 32/1/18 28/1/22
f 28/1/22 47/3/8 48/3/22
f 47/3/8 28/1/22 25/1/8
f 21/1/11 4/2/2 3/1/2
f 4/2/2 21/1/11 17/2/11
f 21/1/11 18/2/19 17/2/11
f 18/2/19 21/1/11 27/1/19
f 46/3/21 22/1/15 41/3/15
f 22/1/15 46/3/21 24/1/21
f 40/4/10 46/4/10 41/4/10
f 46/4/10 40/4/10 47/4/10
f 47/4/10 40/4/10 42/4/10
f 47/4/10 42/4/10 48/4/10
f 48/4/10 42/4/10 43/4/10
f 48/4/10 43/4/10 45/4/10
f 45/4/10 43/4/10 37/4/10
f 45/4/10 37/4/10 44/4/10
f 44/4/10 37/4/10 38/4/10
f 44/4/10 38/4/10 39/4/10
f 51/5/25 50/5/24 49/5/23
f 50/5/24 51/5/25 52/5/26
f 52/5/26 51/5/25 53/5/27
f 52/5/26 53/5/27 54/5/28
f 57/7/31 56/6/30 55/6/29
f 56/6/30 57/7/31 58/7/32
f 60/6/34 58/7/32 59/7/33
f 58/7/32 60/6/34 56/6/30
f 55/6/29 61/7/35 57/7/31
f 61/7/35 55/6/29 62/6/36
f 62/6/36 63/7/37 61/7/35
f 63/7/37 62/6/36 64/6/38
f 66/6/40 59/7/33 65/7/39
f 59/7/33 66/6/40 60/6/34
f 66/6/40 63/7/37 64/6/38
f 63/7/37 66/6/40 65/7/39
f 56/6/30 53/5/27 55/6/29
f 53/5/27 56/6/30 54/5/28
f 50/5/24 60/6/34 66/6/40
f 60/6/34 50/5/24 52/5/26
f 49/5/23 66/6/40 64/6/38
f 66/6/40 49/5/23 50/5/24
f 52/5/26 56/6/30 60/6/34
f 56/6/30 52/5/26 54/5/28
f 51/5/25 64/6/38 62/6/36
f 64/6/38 51/5/25 49/5/23
f 53/5/27 62/6/36 55/6/29
f 62/6/36 53/5/27 51/5/25
f 69/5/43 68/5/42 67/5/41
f 68/5/42 69/5/43 70/5/44
f 70/5/44 69/5/43 71/5/45
f 70/5/44 71/5/45 72/5/46
f 75/7/49 74/6/48 73/6/47
f 74/6/48 75/7/49 76/7/50
f 78/6/52 76/7/50 77/7/51
f 76/7/50 78/6/52 74/6/48
f 73/6/47 79/7/53 75/7/49
f 79/7/53 73/6/47 80/6/54
f 80/6/54 81/7/55 79/7/53
f 81/7/55 80/6/54 82/6/56
f 84/6/58 77/7/51 83/7/57
f 77/7/51 84/6/58 78/6/52
f 84/6/58 81/7/55 82/6/56
f 81/7/55 84/6/58 83/7/57
f 74/6/48 71/5/45 73/6/47
f 71/5/45 74/6/48 72/5/46
f 68/5/42 78/6/52 84/6/58
f 78/6/52 68/5/42 70/5/44
f 67/5/41 84/6/58 82/6/56
f 84/6/58 67/5/41 68/5/42
f 70/5/44 74/6/48 78/6/52
f 74/6/48 70/5/44 72/5/46
f 69/5/43 82/6/56 80/6/54
f 82/6/56 69/5/43 67/5/41
f 71/5/45 80/6/54 73/6/47
f 80/6/54 71/5/45 69/5/43
f 87/5/61 86/5/60 85/5/59
f 86/5/60 87/5/61 88/5/62
f 88/5/62 87/5/61 89/5/63
f 88/5/62 89/5/63 90/5/64
f 93/7/67 92/6/66 91/6/65
f 92/6/66 93/7/67 94/7/68
f 96/6/70 94/7/68 95/7/69
f 94/7/68 96/6/70 92/6/66
f 91/6/65 97/7/71 93/7/67
f 97/7/71 91/6/65 98/6/72
f 98/6/72 99/7/73 97/7/71
f 99/7/73 98/6/72 100/6/74
f 102/6/76 95/7/69 101/7/75
f 95/7/69 102/6/76 96/6/70
f 102/6/76 99/7/73 100/6/74
f 99/7/73 102/6/76 101/7/75
f 92/6/66 89/5/63 91/6/65
f 89/5/63 92/6/66 90/5/64
f 86/5/60 96/6/70 102/6/76
f 96/6/70 86/5/60 88/5/62
f 85/5/59 102/6/76 100/6/74
f 102/6/76 85/5/59 86/5/60
f 88/5/62 92/6/66 96/6/70
f 92/6/66 88/5/62 90/5/64
f 87/5/61 100/6/74 98/6/72
f 100/6/74 87/5/61 85/5/59
f 89/5/63 98/6/72 91/6/65
f 98/6/72 89/5/63 87/5/61
f 105/5/79 104/5/78 103/5/77
f 104/5/78 105/5/79 106/5/80
f 106/5/80 105/5/79 107/5/81
f 106/5/80 107/5/81 108/5/82
f 111/7/85 110/6/84 109/6/83
f 110/6/84 111/7/85 112/7/86
f 114/6/88 112/7/86 113/7/87
f 112/7/86 114/6/88 110/6/84
f 109/6/83 115/7/89 111/7/85
f 115/7/89 109/6/83 116/6/90
f 116/6/90 117/7/91 115/7/89
f 117/7/91 116/6/90 118/6/92
f 120/6/94 113/7/87 119/7/93
f 113/7/87 120/6/94 114/6/88
f 120/6/94 117/7/91 118/6/92
f 117/7/91 120/6/94 119/7/93
f 110/6/84 107/5/81 109/6/83
f 107/5/81 110/6/84 108/5/82
f 104/5/78 114/6/88 120/6/94
f 114/6/88 104/5/78 106/5/80
f 103/5/77 120/6/94 118/6/92
f 120/6/94 103/5/77 104/5/78
f 106/5/80 110/6/84 114/6/88
f 110/6/84 106/5/80 108/5/82
f 105/5/79 118/6/92 116/6/90
f 118/6/92 105/5/79 103/5/77
f 107/5/81 116/6/90 109/6/83
f 116/6/90 107/5/81 105/5/79
