mtllib city_path-stones-messy.mtl
g path-stones-messy
v -0.064688 0 -0.18068
v 0.07462 0 -0.16677
v -0.055731 0.01 -0.16973
v 0.063676 0.01 -0.15781
v 0.055731 0.01 -0.078209
v -0.063676 0.01 -0.090127
v 0.064688 0 -0.067265
v -0.07462 0 -0.08117
v -0.077812 5.1791e-19 -0.035648
v 0.059932 5.1791e-19 -0.06068
v -0.066185 0.01 -0.027597
v 0.051881 0.01 -0.049054
v 0.066185 0.01 0.029657
v -0.051881 0.01 0.051113
v 0.077812 5.1791e-19 0.037708
v -0.059932 5.1791e-19 0.06274
v -0.066437 5.1791e-19 0.071385
v 0.073239 5.1791e-19 0.080907
v -0.05714 0.01 0.082042
v 0.062582 0.01 0.090203
v 0.05714 0.01 0.17002
v -0.062582 0.01 0.16186
v 0.066437 5.1791e-19 0.18068
v -0.073239 5.1791e-19 0.17115
vn -0.36568 0.8165 -0.44678
vn 0.44678 0.8165 -0.36568
vn -0.26889 0.90541 -0.32852
vn 0.32852 0.90541 -0.26889
vn 0.26889 0.90541 0.32852
vn -0.32852 0.90541 0.26889
vn 0.36568 0.8165 0.44678
vn -0.44678 0.8165 0.36568
vn 0 -1 0
vn -0.47467 0.8165 -0.32867
vn 0.32867 0.8165 -0.47467
vn -0.34903 0.90541 -0.24168
vn 0.24168 0.90541 -0.34903
vn 0.34903 0.90541 0.24168
vn -0.24168 0.90541 0.34903
vn 0.47467 0.8165 0.32867
vn -0.32867 0.8165 0.47467
vn -0.37954 0.8165 -0.43507
vn 0.43507 0.8165 -0.37954
vn -0.27908 0.90541 -0.31992
vn 0.31992 0.90541 -0.27908
vn 0.27908 0.90541 0.31992
vn -0.31992 0.90541 0.27908
vn 0.37954 0.8165 0.43507
vn -0.43507 0.8165 0.37954
vt 0.09375 0.325
vt 0.09375 0.425
usemtl colormap
f 3/2/3 2/1/2 1/1/1
f 2/1/2 3/2/3 4/2/4
f 3/2/3 5/2/5 4/2/4
f 5/2/5 3/2/3 6/2/6
f 4/2/4 7/1/7 2/1/2
f 7/1/7 4/2/4 5/2/5
f 1/1/1 6/2/6 3/2/3
f 6/2/6 1/1/1 8/1/8
f 5/2/5 8/1/8 7/1/7
f 8/1/8 5/2/5 6/2/6
f 8/1/9 2/1/9 7/1/9
f 2/1/9 8/1/9 1/1/9
f 11/2/12 10/1/11 9/1/10
f 10/1/11 11/2/12 12/2/13
f 11/2/12 13/2/14 12/2/13
f 13/2/14 11/2/12 14/2/15
f 12/2/13 15/1/16 10/1/11
f 15/1/16 12/2/13 13/2/14
f 9/1/10 14/2/15 11/2/12
f 14/2/15 9/1/10 16/1/17
f 13/2/14 16/1/17 15/1/16
f 16/1/17 13/2/14 14/2/15
f 16/1/9 10/1/9 15/1/9
f 10/1/9 16/1/9 9/1/9
f 19/2/20 18/1/19 17/1/18
f 18/1/19 19/2/20 20/2/21
f 19/2/20 21/2/22 20/2/21
f 21/2/22 19/2/20 22/2/23
f 20/2/21 23/1/24 18/1/19
f 23/1/24 20/2/21 21/2/22
f 17/1/18 22/2/23 19/2/20
f 22/2/23 17/1/18 24/1/25
f 21/2/22 24/1/25 23/1/24
f 24/1/25 21/2/22 22/2/23
f 24/1/9 18/1/9 23/1/9
f 18/1/9 24/1/9 17/1/9
g path-stones-messy
usemtl colormap
f 3/2/3 2/1/2 1/1/1
f 2/1/2 3/2/3 4/2/4
f 3/2/3 5/2/5 4/2/4
f 5/2/5 3/2/3 6/2/6
f 4/2/4 7/1/7 2/1/2
f 7/1/7 4/2/4 5/2/5
f 1/1/1 6/2/6 3/2/3
f 6/2/6 1/1/1 8/1/8
f 5/2/5 8/1/8 7/1/7
f 8/1/8 5/2/5 6/2/6
f 8/1/9 2/1/9 7/1/9
f 2/1/9 8/1/9 1/1/9
f 11/2/12 10/1/11 9/1/10
f 10/1/11 11/2/12 12/2/13
f 11/2/12 13/2/14 12/2/13
f 13/2/14 11/2/12 14/2/15
f 12/2/13 15/1/16 10/1/11
f 15/1/16 12/2/13 13/2/14
f 9/1/10 14/2/15 11/2/12
f 14/2/15 9/1/10 16/1/17
f 13/2/14 16/1/17 15/1/16
f 16/1/17 13/2/14 14/2/15
f 16/1/9 10/1/9 15/1/9
f 10/1/9 16/1/9 9/1/9
f 19/2/20 18/1/19 17/1/18
f 18/1/19 19/2/20 20/2/21
f 19/2/20 21/2/22 20/2/21
f 21/2/22 19/2/20 22/2/23
f 20/2/21 23/1/24 18/1/19
f 23/1/24 20/2/21 21/2/22
f 17/1/18 22/2/23 19/2/20
f 22/2/23 17/1/18 24/1/25
f 21/2/22 24/1/25 23/1/24
f 24/1/25 21/2/22 22/2/23
f 24/1/9 18/1/9 23/1/9
f 18/1/9 24/1/9 17/1/9
