mtllib city_tree-small.mtl
g tree-small
v 0.070148 0.1261 0.0405
v 0 0.1261 0.081
v 0.10522 0.2268 0.06075
v 0 0.2268 0.1215
v 0 0.1261 -0.081
v 0.070148 0.1261 -0.0405
v 0 0.2268 -0.1215
v 0.10522 0.2268 -0.06075
v -0.070148 0.1261 0.0405
v -0.070148 0.1261 -0.0405
v -0.10522 0.2268 0.06075
v 0 0.567 0.0405
v -0.035074 0.567 0.02025
v -0.10522 0.2268 -0.06075
v 0.035074 0.567 0.02025
v -0.035074 0.567 -0.02025
v 0 0.567 -0.0405
v 0.035074 0.567 -0.02025
v 0.026122 0 -0.026122
v 0.026122 0 0.026122
v 0.01701 0.1261 -0.01701
v 0.01701 0.1261 0.01701
v -0.026122 0 -0.026122
v -0.01701 0.1261 -0.01701
v -0.026122 0 0.026122
v -0.01701 0.1261 0.01701
vn 0.80348 -0.37314 0.46389
vn 0 -0.37314 0.92778
vn 0.86402 -0.067987 0.49884
vn 0 -0.067987 0.99769
vn 0 -0.37314 -0.92778
vn 0.80348 -0.37314 -0.46389
vn 0 -0.067987 -0.99769
vn 0.86402 -0.067987 -0.49884
vn 0 -1 0
vn -0.86402 -0.067987 0.49884
vn 0 0.69626 0.71779
vn -0.62162 0.69626 0.35889
vn -0.86402 -0.067987 -0.49884
vn -0.80348 -0.37314 -0.46389
vn -0.80348 -0.37314 0.46389
vn 0.62162 0.69626 0.35889
vn -0.62162 0.69626 -0.35889
vn 0 0.69626 -0.71779
vn 0.62162 0.69626 -0.35889
vn 0.9974 0.072076 0
vn 0 0.072076 -0.9974
vn -0.9974 0.072076 0
vn 0 0.072076 0.9974
vt 0.21875 0.025
vt 0.21875 0.070679
vt 0.21875 0.225
vt 0.59375 0.475
vt 0.59375 0.275
usemtl colormap
f 3/2/3 2/1/2 1/1/1
f 2/1/2 3/2/3 4/2/4
f 7/2/7 6/1/6 5/1/5
f 6/1/6 7/2/7 8/2/8
f 2/1/9 6/1/9 1/1/9
f 6/1/9 2/1/9 5/1/9
f 5/1/9 2/1/9 9/1/9
f 5/1/9 9/1/9 10/1/9
f 12/3/11 11/2/10 4/2/4
f 11/2/10 12/3/11 13/3/12
f 10/1/14 11/2/10 14/2/13
f 11/2/10 10/1/14 9/1/15
f 4/2/4 9/1/15 2/1/2
f 9/1/15 4/2/4 11/2/10
f 15/3/16 4/2/4 3/2/3
f 4/2/4 15/3/16 12/3/11
f 16/3/17 7/2/7 14/2/13
f 7/2/7 16/3/17 17/3/18
f 3/2/3 6/1/6 8/2/8
f 6/1/6 3/2/3 1/1/1
f 17/3/18 15/3/16 18/3/19
f 15/3/16 17/3/18 12/3/11
f 12/3/11 17/3/18 16/3/17
f 12/3/11 16/3/17 13/3/12
f 17/3/18 8/2/8 7/2/7
f 8/2/8 17/3/18 18/3/19
f 14/2/13 5/1/5 10/1/14
f 5/1/5 14/2/13 7/2/7
f 11/2/10 16/3/17 14/2/13
f 16/3/17 11/2/10 13/3/12
f 18/3/19 3/2/3 8/2/8
f 3/2/3 18/3/19 15/3/16
f 21/5/20 20/4/20 19/4/20
f 20/4/20 21/5/20 22/5/20
f 24/5/21 19/4/21 23/4/21
f 19/4/21 24/5/21 21/5/21
f 25/4/22 24/5/22 23/4/22
f 24/5/22 25/4/22 26/5/22
f 22/5/23 25/4/23 20/4/23
f 25/4/23 22/5/23 26/5/23
f 25/4/9 19/4/9 20/4/9
f 19/4/9 25/4/9 23/4/9
g tree-small
usemtl colormap
f 3/2/3 2/1/2 1/1/1
f 2/1/2 3/2/3 4/2/4
f 7/2/7 6/1/6 5/1/5
f 6/1/6 7/2/7 8/2/8
f 2/1/9 6/1/9 1/1/9
f 6/1/9 2/1/9 5/1/9
f 5/1/9 2/1/9 9/1/9
f 5/1/9 9/1/9 10/1/9
f 12/3/11 11/2/10 4/2/4
f 11/2/10 12/3/11 13/3/12
f 10/1/14 11/2/10 14/2/13
f 11/2/10 10/1/14 9/1/15
f 4/2/4 9/1/15 2/1/2
f 9/1/15 4/2/4 11/2/10
f 15/3/16 4/2/4 3/2/3
f 4/2/4 15/3/16 12/3/11
f 16/3/17 7/2/7 14/2/13
f 7/2/7 16/3/17 17/3/18
f 3/2/3 6/1/6 8/2/8
f 6/1/6 3/2/3 1/1/1
f 17/3/18 15/3/16 18/3/19
f 15/3/16 17/3/18 12/3/11
f 12/3/11 17/3/18 16/3/17
f 12/3/11 16/3/17 13/3/12
f 17/3/18 8/2/8 7/2/7
f 8/2/8 17/3/18 18/3/19
f 14/2/13 5/1/5 10/1/14
f 5/1/5 14/2/13 7/2/7
f 11/2/10 16/3/17 14/2/13
f 16/3/17 11/2/10 13/3/12
f 18/3/19 3/2/3 8/2/8
f 3/2/3 18/3/19 15/3/16
f 21/5/20 20/4/20 19/4/20
f 20/4/20 21/5/20 22/5/20
f 24/5/21 19/4/21 23/4/21
f 19/4/21 24/5/21 21/5/21
f 25/4/22 24/5/22 23/4/22
f 24/5/22 25/4/22 26/5/22
f 22/5/23 25/4/23 20/4/23
f 25/4/23 22/5/23 26/5/23
f 25/4/9 19/4/9 20/4/9
f 19/4/9 25/4/9 23/4/9
