mtllib city_tree-large.mtl
g tree-large
v 0 0.4268 -0.1215
v 0.10522 0.4268 -0.06075
v 0 0.767 -0.0405
v 0.035074 0.767 -0.02025
v -0.10522 0.4268 -0.06075
v -0.035074 0.767 -0.02025
v 0.10522 0.4268 0.06075
v 0 0.4268 0.1215
v 0.035074 0.767 0.02025
v 0 0.767 0.0405
v 0.070148 0.3261 0.0405
v 0.070148 0.3261 -0.0405
v 0 0.3261 0.081
v 0 0.3261 -0.081
v -0.070148 0.3261 0.0405
v -0.070148 0.3261 -0.0405
v -0.035074 0.767 0.02025
v -0.10522 0.4268 0.06075
v 0.026122 0 -0.026122
v 0.026122 0 0.026122
v 0.01701 0.3261 -0.01701
v 0.01701 0.3261 0.01701
v -0.026122 0 0.026122
v -0.01701 0.3261 0.01701
v -0.026122 0 -0.026122
v -0.01701 0.3261 -0.01701
vn 0 -0.067987 -0.99769
vn 0.86402 -0.067987 -0.49884
vn 0 0.69626 -0.71779
vn 0.62162 0.69626 -0.35889
vn -0.86402 -0.067987 -0.49884
vn -0.62162 0.69626 -0.35889
vn 0.86402 -0.067987 0.49884
vn 0 -0.067987 0.99769
vn 0.62162 0.69626 0.35889
vn 0 0.69626 0.71779
vn 0 -1 0
vn 0.80348 -0.37314 0.46389
vn 0 -0.37314 0.92778
vn -0.80348 -0.37314 -0.46389
vn 0 -0.37314 -0.92778
vn 0.80348 -0.37314 -0.46389
vn -0.62162 0.69626 0.35889
vn -0.86402 -0.067987 0.49884
vn -0.80348 -0.37314 0.46389
vn 0.99961 0.027933 0
vn 0 0.027933 0.99961
vn -0.99961 0.027933 0
vn 0 0.027933 -0.99961
vt 0.21875 0.070679
vt 0.21875 0.225
vt 0.21875 0.025
vt 0.59375 0.475
vt 0.59375 0.275
usemtl colormap
f 3/2/3 2/1/2 1/1/1
f 2/1/2 3/2/3 4/2/4
f 6/2/6 1/1/1 5/1/5
f 1/1/1 6/2/6 3/2/3
f 9/2/9 8/1/8 7/1/7
f 8/1/8 9/2/9 10/2/10
f 13/3/11 12/3/11 11/3/11
f 12/3/11 13/3/11 14/3/11
f 14/3/11 13/3/11 15/3/11
f 14/3/11 15/3/11 16/3/11
f 7/1/7 13/3/13 11/3/12
f 13/3/13 7/1/7 8/1/8
f 5/1/5 14/3/15 16/3/14
f 14/3/15 5/1/5 1/1/1
f 1/1/1 12/3/16 14/3/15
f 12/3/16 1/1/1 2/1/2
f 3/2/3 9/2/9 4/2/4
f 9/2/9 3/2/3 10/2/10
f 10/2/10 3/2/3 6/2/6
f 10/2/10 6/2/6 17/2/17
f 18/1/18 6/2/6 5/1/5
f 6/2/6 18/1/18 17/2/17
f 10/2/10 18/1/18 8/1/8
f 18/1/18 10/2/10 17/2/17
f 8/1/8 15/3/19 13/3/13
f 15/3/19 8/1/8 18/1/18
f 16/3/14 18/1/18 5/1/5
f 18/1/18 16/3/14 15/3/19
f 7/1/7 12/3/16 2/1/2
f 12/3/16 7/1/7 11/3/12
f 4/2/4 7/1/7 2/1/2
f 7/1/7 4/2/4 9/2/9
f 21/5/20 20/4/20 19/4/20
f 20/4/20 21/5/20 22/5/20
f 22/5/21 23/4/21 20/4/21
f 23/4/21 22/5/21 24/5/21
f 23/4/22 26/5/22 25/4/22
f 26/5/22 23/4/22 24/5/22
f 23/4/11 19/4/11 20/4/11
f 19/4/11 23/4/11 25/4/11
f 26/5/23 19/4/23 25/4/23
f 19/4/23 26/5/23 21/5/23
g tree-large
usemtl colormap
f 3/2/3 2/1/2 1/1/1
f 2/1/2 3/2/3 4/2/4
f 6/2/6 1/1/1 5/1/5
f 1/1/1 6/2/6 3/2/3
f 9/2/9 8/1/8 7/1/7
f 8/1/8 9/2/9 10/2/10
f 13/3/11 12/3/11 11/3/11
f 12/3/11 13/3/11 14/3/11
f 14/3/11 13/3/11 15/3/11
f 14/3/11 15/3/11 16/3/11
f 7/1/7 13/3/13 11/3/12
f 13/3/13 7/1/7 8/1/8
f 5/1/5 14/3/15 16/3/14
f 14/3/15 5/1/5 1/1/1
f 1/1/1 12/3/16 14/3/15
f 12/3/16 1/1/1 2/1/2
f 3/2/3 9/2/9 4/2/4
f 9/2/9 3/2/3 10/2/10
f 10/2/10 3/2/3 6/2/6
f 10/2/10 6/2/6 17/2/17
f 18/1/18 6/2/6 5/1/5
f 6/2/6 18/1/18 17/2/17
f 10/2/10 18/1/18 8/1/8
f 18/1/18 10/2/10 17/2/17
f 8/1/8 15/3/19 13/3/13
f 15/3/19 8/1/8 18/1/18
f 16/3/14 18/1/18 5/1/5
f 18/1/18 16/3/14 15/3/19
f 7/1/7 12/3/16 2/1/2
f 12/3/16 7/1/7 11/3/12
f 4/2/4 7/1/7 2/1/2
f 7/1/7 4/2/4 9/2/9
f 21/5/20 20/4/20 19/4/20
f 20/4/20 21/5/20 22/5/20
f 22/5/21 23/4/21 20/4/21
f 23/4/21 22/5/21 24/5/21
f 23/4/22 26/5/22 25/4/22
f 26/5/22 23/4/22 24/5/22
f 23/4/11 19/4/11 20/4/11
f 19/4/11 23/4/11 25/4/11
f 26/5/23 19/4/23 25/4/23
f 19/4/23 26/5/23 21/5/23
