mtllib forest_stones.mtl
g stones
v -0.0074761 1.8048e-16 0.19115
v 0.045979 0.082238 0.19087
v 0.078974 1.8048e-16 0.36175
v 0.11082 0.082238 0.31881
v 0.034597 1.8048e-16 0.06263
v 0.077534 0.082238 0.094473
v 0.20519 1.8048e-16 -0.02382
v 0.33372 1.8048e-16 0.018253
v 0.20548 0.082238 0.029635
v 0.30187 0.082238 0.06119
v 0.42017 1.8048e-16 0.18885
v 0.36671 0.082238 0.18914
v 0.2075 1.8048e-16 0.40382
v 0.20721 0.082238 0.35037
v 0.33516 0.082238 0.28553
v 0.37809 1.8048e-16 0.31737
v 0.029781 0 -0.3131
v 0.029781 0 -0.37254
v -0.0217 0 -0.28338
v -0.0217 0 -0.40227
v -0.073182 0 -0.3131
v -0.073182 0 -0.37254
v 0.010218 0.047112 -0.36125
v 0.010218 0.047112 -0.32439
v -0.0217 0.047112 -0.37968
v -0.0217 0.047112 -0.30596
v -0.053619 0.047112 -0.36125
v -0.053619 0.047112 -0.32439
v -0.16778 4.3089e-16 -0.0027973
v -0.16726 0.19125 0.050656
v -0.338 4.3089e-16 0.084407
v -0.29492 0.19125 0.11606
v -0.039076 4.3089e-16 0.038706
v -0.070729 0.19125 0.081784
v 0.048128 4.3089e-16 0.20892
v 0.0066242 4.3089e-16 0.33763
v -0.0053255 0.19125 0.20944
v -0.036453 0.19125 0.30597
v -0.16359 4.3089e-16 0.42483
v -0.16411 0.19125 0.37138
v -0.3795 4.3089e-16 0.21311
v -0.32605 0.19125 0.21259
v -0.26064 0.19125 0.34025
v -0.2923 4.3089e-16 0.38333
v -0.055318 3.1584e-16 0.16421
v -0.10523 0.082238 0.14506
v -0.07391 3.1584e-16 -0.026137
v -0.11917 0.082238 0.002304
v -0.14119 3.1584e-16 0.26868
v -0.16964 0.082238 0.22341
v -0.33154 3.1584e-16 0.28727
v -0.43601 3.1584e-16 0.20139
v -0.31239 0.082238 0.23736
v -0.39074 0.082238 0.17295
v -0.4546 3.1584e-16 0.011047
v -0.40469 0.082238 0.030192
v -0.17838 3.1584e-16 -0.11201
v -0.19752 0.082238 -0.062103
v -0.34028 0.082238 -0.048159
v -0.36872 3.1584e-16 -0.093421
v 0.032678 3.5419e-16 0.13443
v 0.063285 0.30757 0.090608
v 0.22189 3.5419e-16 0.16226
v 0.2052 0.30757 0.11147
v -0.048019 3.5419e-16 0.025916
v 0.0027623 0.30757 0.0092192
v -0.020198 3.5419e-16 -0.1633
v 0.08832 3.5419e-16 -0.244
v 0.023628 0.30757 -0.13269
v 0.10502 0.30757 -0.19322
v 0.27754 3.5419e-16 -0.21618
v 0.24693 0.30757 -0.17235
v 0.33041 3.5419e-16 0.081558
v 0.28659 0.30757 0.050951
v 0.30745 0.30757 -0.090961
v 0.35823 3.5419e-16 -0.10766
v -0.10681 7.2191e-16 -0.20251
v -0.10681 7.2191e-16 -0.29839
v -0.18985 7.2191e-16 -0.15457
v -0.18985 7.2191e-16 -0.34633
v -0.27288 7.2191e-16 -0.20251
v -0.27288 7.2191e-16 -0.29839
v -0.13837 0.075987 -0.28018
v -0.13837 0.075987 -0.22073
v -0.18985 0.075987 -0.3099
v -0.18985 0.075987 -0.19101
v -0.24133 0.075987 -0.28018
v -0.24133 0.075987 -0.22073
v -0.14952 3.1584e-16 0.021746
v -0.11765 0.4539 0.037684
v -0.14952 3.1584e-16 0.14925
v -0.11765 0.4539 0.13331
v -0.085771 3.1584e-16 -0.042004
v -0.069834 0.4539 -0.010129
v 0.041729 3.1584e-16 -0.042004
v 0.10548 3.1584e-16 0.021746
v 0.025791 0.4539 -0.010129
v 0.073604 0.4539 0.037684
v 0.10548 3.1584e-16 0.14925
v 0.073604 0.4539 0.13331
v -0.085771 3.1584e-16 0.213
v -0.069834 0.4539 0.18112
v 0.025791 0.4539 0.18112
v 0.041729 3.1584e-16 0.213
v 0.42979 0.047112 0.37198
v 0.42979 0.047112 0.40883
v 0.39787 0.047112 0.35355
v 0.39787 0.047112 0.42726
v 0.36595 0.047112 0.37198
v 0.36595 0.047112 0.40883
v 0.34639 0 0.36068
v 0.39787 0 0.33096
v 0.34639 0 0.42013
v 0.44935 0 0.36068
v 0.39787 0 0.44985
v 0.44935 0 0.42013
v 0.43989 0 -0.25208
v 0.43989 0 -0.34796
v 0.35686 0 -0.20414
v 0.35686 0 -0.3959
v 0.27382 0 -0.25208
v 0.27382 0 -0.34796
v 0.40834 0.075987 -0.32975
v 0.40834 0.075987 -0.2703
v 0.35686 0.075987 -0.35947
v 0.35686 0.075987 -0.24058
v 0.30538 0.075987 -0.32975
v 0.30538 0.075987 -0.2703
v -0.18138 0.23836 0.18303
v -0.18138 0.23836 0.21988
v -0.2133 0.23836 0.1646
v -0.2133 0.23836 0.23831
v -0.24522 0.23836 0.18303
v -0.24522 0.23836 0.21988
v -0.26478 0.19125 0.17173
v -0.2133 0.19125 0.14201
v -0.26478 0.19125 0.23118
v -0.16182 0.19125 0.17173
v -0.2133 0.19125 0.2609
v -0.16182 0.19125 0.23118
vn -0.83667 0.54407 0.063004
vn -0.83656 0.544 0.065023
vn -0.54557 0.54407 0.63745
vn -0.54713 0.544 0.63617
vn -0.63745 0.54407 -0.54557
vn -0.63617 0.544 -0.54713
vn -0.063004 0.54407 -0.83667
vn 0.54557 0.54407 -0.63745
vn -0.065023 0.544 -0.83656
vn 0.54713 0.544 -0.63617
vn 0.83667 0.54407 -0.063004
vn 0.83656 0.544 -0.065023
vn 0.063004 0.54407 0.83667
vn 0.065023 0.544 0.83656
vn 0 1 0
vn 0.63745 0.54407 0.54557
vn 0.63617 0.544 0.54713
vn 0 -1 0
vn -0.7809 0.43235 -0.45085
vn 0 0.43235 -0.9017
vn -0.7809 0.43235 0.45085
vn 0.7809 0.43235 -0.45085
vn 0 0.43235 0.9017
vn 0.7809 0.43235 0.45085
vn -0.076582 0.26858 -0.96021
vn -0.078896 0.26854 -0.96003
vn -0.73459 0.26858 -0.62309
vn -0.73309 0.26854 -0.62487
vn 0.62309 0.26858 -0.73459
vn 0.62487 0.26854 -0.73309
vn 0.96021 0.26858 -0.076582
vn 0.73459 0.26858 0.62309
vn 0.96003 0.26854 -0.078896
vn 0.73309 0.26854 0.62487
vn 0.076582 0.26858 0.96021
vn 0.078896 0.26854 0.96003
vn -0.96021 0.26858 0.076582
vn -0.96003 0.26854 0.078896
vn -0.62309 0.26858 0.73459
vn -0.62487 0.26854 0.73309
vn 0.80243 0.54407 0.24515
vn 0.80306 0.544 0.24323
vn 0.73982 0.54407 -0.39579
vn 0.74081 0.544 -0.39403
vn 0.39579 0.54407 0.73982
vn 0.39403 0.544 0.74081
vn -0.24515 0.54407 0.80243
vn -0.73982 0.54407 0.39579
vn -0.24323 0.544 0.80306
vn -0.74081 0.544 0.39403
vn -0.80243 0.54407 -0.24515
vn -0.80306 0.544 -0.24323
vn 0.24515 0.54407 -0.80243
vn 0.24323 0.544 -0.80306
vn -0.39579 0.54407 -0.73982
vn -0.39403 0.544 -0.74081
vn -0.50646 0.17083 0.84517
vn -0.50443 0.1708 0.84639
vn 0.24175 0.17083 0.95518
vn 0.23945 0.1708 0.95577
vn -0.95518 0.17083 0.24175
vn -0.95577 0.1708 0.23945
vn -0.84517 0.17083 -0.50646
vn -0.24175 0.17083 -0.95518
vn -0.84639 0.1708 -0.50443
vn -0.23945 0.1708 -0.95577
vn 0.50646 0.17083 -0.84517
vn 0.50443 0.1708 -0.84639
vn 0.84517 0.17083 0.50646
vn 0.84639 0.1708 0.50443
vn 0.95518 0.17083 -0.24175
vn 0.95577 0.1708 -0.23945
vn -0.7809 0.43235 -0.45085
vn 0 0.43235 -0.9017
vn -0.7809 0.43235 0.45085
vn 0.7809 0.43235 -0.45085
vn 0 0.43235 0.9017
vn 0.7809 0.43235 0.45085
vn -0.92061 0.078083 -0.3826
vn -0.92153 0.07807 -0.38038
vn -0.92061 0.078083 0.3826
vn -0.92153 0.07807 0.38038
vn -0.3826 0.078083 -0.92061
vn -0.38038 0.07807 -0.92153
vn 0.3826 0.078083 -0.92061
vn 0.92061 0.078083 -0.3826
vn 0.38038 0.07807 -0.92153
vn 0.92153 0.07807 -0.38038
vn 0.92061 0.078083 0.3826
vn 0.92153 0.07807 0.38038
vn -0.3826 0.078083 0.92061
vn -0.38038 0.07807 0.92153
vn 0.3826 0.078083 0.92061
vn 0.38038 0.07807 0.92153
vt 0.96875 0.15714
vt 0.96875 0.135
vt 0.96875 0.12665
vt 0.96875 0.11724
vt 0.96875 0.16419
vt 0.96875 0.14056
vt 0.96875 0.11877
vt 0.96875 0.12433
vt 0.96875 0.12178
vt 0.96875 0.14519
vt 0.96875 0.1523
vt 0.96875 0.21825
vt 0.96875 0.057544
vt 0.96875 0.10102
vt 0.96875 0.12357
vt 0.96875 0.17047
vt 0.96875 0.11027
vt 0.96875 0.19389
vt 0.96875 0.15027
vt 0.96875 0.15518
usemtl colormap
f 3/1/3 2/2/2 1/1/1
f 2/2/2 3/1/3 4/2/4
f 2/2/2 5/1/5 1/1/1
f 5/1/5 2/2/2 6/2/6
f 9/2/9 8/1/8 7/1/7
f 8/1/8 9/2/9 10/2/10
f 10/2/10 11/1/11 8/1/8
f 11/1/11 10/2/10 12/2/12
f 14/2/14 3/1/3 13/1/13
f 3/1/3 14/2/14 4/2/4
f 9/2/15 12/2/15 10/2/15
f 12/2/15 9/2/15 15/2/15
f 15/2/15 9/2/15 6/2/15
f 15/2/15 6/2/15 14/2/15
f 14/2/15 6/2/15 2/2/15
f 14/2/15 2/2/15 4/2/15
f 15/2/17 13/1/13 16/1/16
f 13/1/13 15/2/17 14/2/14
f 12/2/12 16/1/16 11/1/11
f 16/1/16 12/2/12 15/2/17
f 6/2/6 7/1/7 5/1/5
f 7/1/7 6/2/6 9/2/9
f 16/1/18 8/1/18 11/1/18
f 8/1/18 16/1/18 7/1/18
f 7/1/18 16/1/18 13/1/18
f 7/1/18 13/1/18 5/1/18
f 5/1/18 13/1/18 3/1/18
f 5/1/18 3/1/18 1/1/18
f 19/3/18 18/3/18 17/3/18
f 18/3/18 19/3/18 20/3/18
f 20/3/18 19/3/18 21/3/18
f 20/3/18 21/3/18 22/3/18
f 25/4/15 24/4/15 23/4/15
f 24/4/15 25/4/15 26/4/15
f 26/4/15 25/4/15 27/4/15
f 26/4/15 27/4/15 28/4/15
f 27/4/19 20/3/20 22/3/19
f 20/3/20 27/4/19 25/4/20
f 21/3/21 27/4/19 22/3/19
f 27/4/19 21/3/21 28/4/21
f 25/4/20 18/3/22 20/3/20
f 18/3/22 25/4/20 23/4/22
f 26/4/23 21/3/21 19/3/23
f 21/3/21 26/4/23 28/4/21
f 23/4/22 17/3/24 18/3/22
f 17/3/24 23/4/22 24/4/24
f 24/4/24 19/3/23 17/3/24
f 19/3/23 24/4/24 26/4/23
f 31/5/27 30/6/26 29/5/25
f 30/6/26 31/5/27 32/6/28
f 30/6/26 33/5/29 29/5/25
f 33/5/29 30/6/26 34/6/30
f 37/6/33 36/5/32 35/5/31
f 36/5/32 37/6/33 38/6/34
f 38/6/34 39/5/35 36/5/32
f 39/5/35 38/6/34 40/6/36
f 42/6/38 31/5/27 41/5/37
f 31/5/27 42/6/38 32/6/28
f 37/6/15 40/6/15 38/6/15
f 40/6/15 37/6/15 43/6/15
f 43/6/15 37/6/15 34/6/15
f 43/6/15 34/6/15 42/6/15
f 42/6/15 34/6/15 30/6/15
f 42/6/15 30/6/15 32/6/15
f 44/5/18 36/5/18 39/5/18
f 36/5/18 44/5/18 35/5/18
f 35/5/18 44/5/18 41/5/18
f 35/5/18 41/5/18 33/5/18
f 33/5/18 41/5/18 31/5/18
f 33/5/18 31/5/18 29/5/18
f 43/6/40 41/5/37 44/5/39
f 41/5/37 43/6/40 42/6/38
f 40/6/36 44/5/39 39/5/35
f 44/5/39 40/6/36 43/6/40
f 34/6/30 35/5/31 33/5/29
f 35/5/31 34/6/30 37/6/33
f 47/7/43 46/8/42 45/7/41
f 46/8/42 47/7/43 48/8/44
f 46/8/42 49/7/45 45/7/41
f 49/7/45 46/8/42 50/8/46
f 53/8/49 52/7/48 51/7/47
f 52/7/48 53/8/49 54/8/50
f 54/8/50 55/7/51 52/7/48
f 55/7/51 54/8/50 56/8/52
f 58/8/54 47/7/43 57/7/53
f 47/7/43 58/8/54 48/8/44
f 53/8/15 56/8/15 54/8/15
f 56/8/15 53/8/15 59/8/15
f 59/8/15 53/8/15 50/8/15
f 59/8/15 50/8/15 58/8/15
f 58/8/15 50/8/15 46/8/15
f 58/8/15 46/8/15 48/8/15
f 60/7/18 52/7/18 55/7/18
f 52/7/18 60/7/18 51/7/18
f 51/7/18 60/7/18 57/7/18
f 51/7/18 57/7/18 49/7/18
f 49/7/18 57/7/18 47/7/18
f 49/7/18 47/7/18 45/7/18
f 59/8/56 57/7/53 60/7/55
f 57/7/53 59/8/56 58/8/54
f 56/8/52 60/7/55 55/7/51
f 60/7/55 56/8/52 59/8/56
f 50/8/46 51/7/47 49/7/45
f 51/7/47 50/8/46 53/8/49
f 63/9/59 62/10/58 61/9/57
f 62/10/58 63/9/59 64/10/60
f 62/10/58 65/9/61 61/9/57
f 65/9/61 62/10/58 66/10/62
f 69/10/65 68/9/64 67/9/63
f 68/9/64 69/10/65 70/10/66
f 70/10/66 71/9/67 68/9/64
f 71/9/67 70/10/66 72/10/68
f 74/10/70 63/9/59 73/9/69
f 63/9/59 74/10/70 64/10/60
f 69/10/15 72/10/15 70/10/15
f 72/10/15 69/10/15 75/10/15
f 75/10/15 69/10/15 66/10/15
f 75/10/15 66/10/15 74/10/15
f 74/10/15 66/10/15 62/10/15
f 74/10/15 62/10/15 64/10/15
f 76/9/18 68/9/18 71/9/18
f 68/9/18 76/9/18 67/9/18
f 67/9/18 76/9/18 73/9/18
f 67/9/18 73/9/18 65/9/18
f 65/9/18 73/9/18 63/9/18
f 65/9/18 63/9/18 61/9/18
f 75/10/72 73/9/69 76/9/71
f 73/9/69 75/10/72 74/10/70
f 72/10/68 76/9/71 71/9/67
f 76/9/71 72/10/68 75/10/72
f 66/10/62 67/9/63 65/9/61
f 67/9/63 66/10/62 69/10/65
f 79/11/18 78/11/18 77/11/18
f 78/11/18 79/11/18 80/11/18
f 80/11/18 79/11/18 81/11/18
f 80/11/18 81/11/18 82/11/18
f 85/12/15 84/12/15 83/12/15
f 84/12/15 85/12/15 86/12/15
f 86/12/15 85/12/15 87/12/15
f 86/12/15 87/12/15 88/12/15
f 87/12/73 80/11/74 82/11/73
f 80/11/74 87/12/73 85/12/74
f 81/11/75 87/12/73 82/11/73
f 87/12/73 81/11/75 88/12/75
f 85/12/74 78/11/76 80/11/74
f 78/11/76 85/12/74 83/12/76
f 86/12/77 81/11/75 79/11/77
f 81/11/75 86/12/77 88/12/75
f 83/12/76 77/11/78 78/11/76
f 77/11/78 83/12/76 84/12/78
f 84/12/78 79/11/77 77/11/78
f 79/11/77 84/12/78 86/12/77
f 91/13/81 90/14/80 89/13/79
f 90/14/80 91/13/81 92/14/82
f 90/14/80 93/13/83 89/13/79
f 93/13/83 90/14/80 94/14/84
f 97/14/87 96/13/86 95/13/85
f 96/13/86 97/14/87 98/14/88
f 98/14/88 99/13/89 96/13/86
f 99/13/89 98/14/88 100/14/90
f 102/14/92 91/13/81 101/13/91
f 91/13/81 102/14/92 92/14/82
f 97/14/15 100/14/15 98/14/15
f 100/14/15 97/14/15 103/14/15
f 103/14/15 97/14/15 94/14/15
f 103/14/15 94/14/15 102/14/15
f 102/14/15 94/14/15 90/14/15
f 102/14/15 90/14/15 92/14/15
f 104/13/18 96/13/18 99/13/18
f 96/13/18 104/13/18 95/13/18
f 95/13/18 104/13/18 101/13/18
f 95/13/18 101/13/18 93/13/18
f 93/13/18 101/13/18 91/13/18
f 93/13/18 91/13/18 89/13/18
f 103/14/94 101/13/91 104/13/93
f 101/13/91 103/14/94 102/14/92
f 100/14/90 104/13/93 99/13/89
f 104/13/93 100/14/90 103/14/94
f 94/14/84 95/13/85 93/13/83
f 95/13/85 94/14/84 97/14/87
f 107/15/15 106/15/15 105/15/15
f 106/15/15 107/15/15 108/15/15
f 108/15/15 107/15/15 109/15/15
f 108/15/15 109/15/15 110/15/15
f 109/15/19 112/16/20 111/16/19
f 112/16/20 109/15/19 107/15/20
f 113/16/21 109/15/19 111/16/19
f 109/15/19 113/16/21 110/15/21
f 107/15/20 114/16/22 112/16/20
f 114/16/22 107/15/20 105/15/22
f 108/15/23 113/16/21 115/16/23
f 113/16/21 108/15/23 110/15/21
f 105/15/22 116/16/24 114/16/22
f 116/16/24 105/15/22 106/15/24
f 106/15/24 115/16/23 116/16/24
f 115/16/23 106/15/24 108/15/23
f 115/16/18 114/16/18 116/16/18
f 114/16/18 115/16/18 112/16/18
f 112/16/18 115/16/18 113/16/18
f 112/16/18 113/16/18 111/16/18
f 119/17/18 118/17/18 117/17/18
f 118/17/18 119/17/18 120/17/18
f 120/17/18 119/17/18 121/17/18
f 120/17/18 121/17/18 122/17/18
f 125/18/15 124/18/15 123/18/15
f 124/18/15 125/18/15 126/18/15
f 126/18/15 125/18/15 127/18/15
f 126/18/15 127/18/15 128/18/15
f 127/18/73 120/17/74 122/17/73
f 120/17/74 127/18/73 125/18/74
f 121/17/75 127/18/73 122/17/73
f 127/18/73 121/17/75 128/18/75
f 125/18/74 118/17/76 120/17/74
f 118/17/76 125/18/74 123/18/76
f 126/18/77 121/17/75 119/17/77
f 121/17/75 126/18/77 128/18/75
f 123/18/76 117/17/78 118/17/76
f 117/17/78 123/18/76 124/18/78
f 124/18/78 119/17/77 117/17/78
f 119/17/77 124/18/78 126/18/77
f 131/19/15 130/19/15 129/19/15
f 130/19/15 131/19/15 132/19/15
f 132/19/15 131/19/15 133/19/15
f 132/19/15 133/19/15 134/19/15
f 133/19/19 136/20/20 135/20/19
f 136/20/20 133/19/19 131/19/20
f 137/20/21 133/19/19 135/20/19
f 133/19/19 137/20/21 134/19/21
f 131/19/20 138/20/22 136/20/20
f 138/20/22 131/19/20 129/19/22
f 132/19/23 137/20/21 139/20/23
f 137/20/21 132/19/23 134/19/21
f 129/19/22 140/20/24 138/20/22
f 140/20/24 129/19/22 130/19/24
f 130/19/24 139/20/23 140/20/24
f 139/20/23 130/19/24 132/19/23
g stones
usemtl colormap
f 3/1/3 2/2/2 1/1/1
f 2/2/2 3/1/3 4/2/4
f 2/2/2 5/1/5 1/1/1
f 5/1/5 2/2/2 6/2/6
f 9/2/9 8/1/8 7/1/7
f 8/1/8 9/2/9 10/2/10
f 10/2/10 11/1/11 8/1/8
f 11/1/11 10/2/10 12/2/12
f 14/2/14 3/1/3 13/1/13
f 3/1/3 14/2/14 4/2/4
f 9/2/15 12/2/15 10/2/15
f 12/2/15 9/2/15 15/2/15
f 15/2/15 9/2/15 6/2/15
f 15/2/15 6/2/15 14/2/15
f 14/2/15 6/2/15 2/2/15
f 14/2/15 2/2/15 4/2/15
f 15/2/17 13/1/13 16/1/16
f 13/1/13 15/2/17 14/2/14
f 12/2/12 16/1/16 11/1/11
f 16/1/16 12/2/12 15/2/17
f 6/2/6 7/1/7 5/1/5
f 7/1/7 6/2/6 9/2/9
f 16/1/18 8/1/18 11/1/18
f 8/1/18 16/1/18 7/1/18
f 7/1/18 16/1/18 13/1/18
f 7/1/18 13/1/18 5/1/18
f 5/1/18 13/1/18 3/1/18
f 5/1/18 3/1/18 1/1/18
f 19/3/18 18/3/18 17/3/18
f 18/3/18 19/3/18 20/3/18
f 20/3/18 19/3/18 21/3/18
f 20/3/18 21/3/18 22/3/18
f 25/4/15 24/4/15 23/4/15
f 24/4/15 25/4/15 26/4/15
f 26/4/15 25/4/15 27/4/15
f 26/4/15 27/4/15 28/4/15
f 27/4/19 20/3/20 22/3/19
f 20/3/20 27/4/19 25/4/20
f 21/3/21 27/4/19 22/3/19
f 27/4/19 21/3/21 28/4/21
f 25/4/20 18/3/22 20/3/20
f 18/3/22 25/4/20 23/4/22
f 26/4/23 21/3/21 19/3/23
f 21/3/21 26/4/23 28/4/21
f 23/4/22 17/3/24 18/3/22
f 17/3/24 23/4/22 24/4/24
f 24/4/24 19/3/23 17/3/24
f 19/3/23 24/4/24 26/4/23
f 31/5/27 30/6/26 29/5/25
f 30/6/26 31/5/27 32/6/28
f 30/6/26 33/5/29 29/5/25
f 33/5/29 30/6/26 34/6/30
f 37/6/33 36/5/32 35/5/31
f 36/5/32 37/6/33 38/6/34
f 38/6/34 39/5/35 36/5/32
f 39/5/35 38/6/34 40/6/36
f 42/6/38 31/5/27 41/5/37
f 31/5/27 42/6/38 32/6/28
f 37/6/15 40/6/15 38/6/15
f 40/6/15 37/6/15 43/6/15
f 43/6/15 37/6/15 34/6/15
f 43/6/15 34/6/15 42/6/15
f 42/6/15 34/6/15 30/6/15
f 42/6/15 30/6/15 32/6/15
f 44/5/18 36/5/18 39/5/18
f 36/5/18 44/5/18 35/5/18
f 35/5/18 44/5/18 41/5/18
f 35/5/18 41/5/18 33/5/18
f 33/5/18 41/5/18 31/5/18
f 33/5/18 31/5/18 29/5/18
f 43/6/40 41/5/37 44/5/39
f 41/5/37 43/6/40 42/6/38
f 40/6/36 44/5/39 39/5/35
f 44/5/39 40/6/36 43/6/40
f 34/6/30 35/5/31 33/5/29
f 35/5/31 34/6/30 37/6/33
f 47/7/43 46/8/42 45/7/41
f 46/8/42 47/7/43 48/8/44
f 46/8/42 49/7/45 45/7/41
f 49/7/45 46/8/42 50/8/46
f 53/8/49 52/7/48 51/7/47
f 52/7/48 53/8/49 54/8/50
f 54/8/50 55/7/51 52/7/48
f 55/7/51 54/8/50 56/8/52
f 58/8/54 47/7/43 57/7/53
f 47/7/43 58/8/54 48/8/44
f 53/8/15 56/8/15 54/8/15
f 56/8/15 53/8/15 59/8/15
f 59/8/15 53/8/15 50/8/15
f 59/8/15 50/8/15 58/8/15
f 58/8/15 50/8/15 46/8/15
f 58/8/15 46/8/15 48/8/15
f 60/7/18 52/7/18 55/7/18
f 52/7/18 60/7/18 51/7/18
f 51/7/18 60/7/18 57/7/18
f 51/7/18 57/7/18 49/7/18
f 49/7/18 57/7/18 47/7/18
f 49/7/18 47/7/18 45/7/18
f 59/8/56 57/7/53 60/7/55
f 57/7/53 59/8/56 58/8/54
f 56/8/52 60/7/55 55/7/51
f 60/7/55 56/8/52 59/8/56
f 50/8/46 51/7/47 49/7/45
f 51/7/47 50/8/46 53/8/49
f 63/9/59 62/10/58 61/9/57
f 62/10/58 63/9/59 64/10/60
f 62/10/58 65/9/61 61/9/57
f 65/9/61 62/10/58 66/10/62
f 69/10/65 68/9/64 67/9/63
f 68/9/64 69/10/65 70/10/66
f 70/10/66 71/9/67 68/9/64
f 71/9/67 70/10/66 72/10/68
f 74/10/70 63/9/59 73/9/69
f 63/9/59 74/10/70 64/10/60
f 69/10/15 72/10/15 70/10/15
f 72/10/15 69/10/15 75/10/15
f 75/10/15 69/10/15 66/10/15
f 75/10/15 66/10/15 74/10/15
f 74/10/15 66/10/15 62/10/15
f 74/10/15 62/10/15 64/10/15
f 76/9/18 68/9/18 71/9/18
f 68/9/18 76/9/18 67/9/18
f 67/9/18 76/9/18 73/9/18
f 67/9/18 73/9/18 65/9/18
f 65/9/18 73/9/18 63/9/18
f 65/9/18 63/9/18 61/9/18
f 75/10/72 73/9/69 76/9/71
f 73/9/69 75/10/72 74/10/70
f 72/10/68 76/9/71 71/9/67
f 76/9/71 72/10/68 75/10/72
f 66/10/62 67/9/63 65/9/61
f 67/9/63 66/10/62 69/10/65
f 79/11/18 78/11/18 77/11/18
f 78/11/18 79/11/18 80/11/18
f 80/11/18 79/11/18 81/11/18
f 80/11/18 81/11/18 82/11/18
f 85/12/15 84/12/15 83/12/15
f 84/12/15 85/12/15 86/12/15
f 86/12/15 85/12/15 87/12/15
f 86/12/15 87/12/15 88/12/15
f 87/12/73 80/11/74 82/11/73
f 80/11/74 87/12/73 85/12/74
f 81/11/75 87/12/73 82/11/73
f 87/12/73 81/11/75 88/12/75
f 85/12/74 78/11/76 80/11/74
f 78/11/76 85/12/74 83/12/76
f 86/12/77 81/11/75 79/11/77
f 81/11/75 86/12/77 88/12/75
f 83/12/76 77/11/78 78/11/76
f 77/11/78 83/12/76 84/12/78
f 84/12/78 79/11/77 77/11/78
f 79/11/77 84/12/78 86/12/77
f 91/13/81 90/14/80 89/13/79
f 90/14/80 91/13/81 92/14/82
f 90/14/80 93/13/83 89/13/79
f 93/13/83 90/14/80 94/14/84
f 97/14/87 96/13/86 95/13/85
f 96/13/86 97/14/87 98/14/88
f 98/14/88 99/13/89 96/13/86
f 99/13/89 98/14/88 100/14/90
f 102/14/92 91/13/81 101/13/91
f 91/13/81 102/14/92 92/14/82
f 97/14/15 100/14/15 98/14/15
f 100/14/15 97/14/15 103/14/15
f 103/14/15 97/14/15 94/14/15
f 103/14/15 94/14/15 102/14/15
f 102/14/15 94/14/15 90/14/15
f 102/14/15 90/14/15 92/14/15
f 104/13/18 96/13/18 99/13/18
f 96/13/18 104/13/18 95/13/18
f 95/13/18 104/13/18 101/13/18
f 95/13/18 101/13/18 93/13/18
f 93/13/18 101/13/18 91/13/18
f 93/13/18 91/13/18 89/13/18
f 103/14/94 101/13/91 104/13/93
f 101/13/91 103/14/94 102/14/92
f 100/14/90 104/13/93 99/13/89
f 104/13/93 100/14/90 103/14/94
f 94/14/84 95/13/85 93/13/83
f 95/13/85 94/14/84 97/14/87
f 107/15/15 106/15/15 105/15/15
f 106/15/15 107/15/15 108/15/15
f 108/15/15 107/15/15 109/15/15
f 108/15/15 109/15/15 110/15/15
f 109/15/19 112/16/20 111/16/19
f 112/16/20 109/15/19 107/15/20
f 113/16/21 109/15/19 111/16/19
f 109/15/19 113/16/21 110/15/21
f 107/15/20 114/16/22 112/16/20
f 114/16/22 107/15/20 105/15/22
f 108/15/23 113/16/21 115/16/23
f 113/16/21 108/15/23 110/15/21
f 105/15/22 116/16/24 114/16/22
f 116/16/24 105/15/22 106/15/24
f 106/15/24 115/16/23 116/16/24
f 115/16/23 106/15/24 108/15/23
f 115/16/18 114/16/18 116/16/18
f 114/16/18 115/16/18 112/16/18
f 112/16/18 115/16/18 113/16/18
f 112/16/18 113/16/18 111/16/18
f 119/17/18 118/17/18 117/17/18
f 118/17/18 119/17/18 120/17/18
f 120/17/18 119/17/18 121/17/18
f 120/17/18 121/17/18 122/17/18
f 125/18/15 124/18/15 123/18/15
f 124/18/15 125/18/15 126/18/15
f 126/18/15 125/18/15 127/18/15
f 126/18/15 127/18/15 128/18/15
f 127/18/73 120/17/74 122/17/73
f 120/17/74 127/18/73 125/18/74
f 121/17/75 127/18/73 122/17/73
f 127/18/73 121/17/75 128/18/75
f 125/18/74 118/17/76 120/17/74
f 118/17/76 125/18/74 123/18/76
f 126/18/77 121/17/75 119/17/77
f 121/17/75 126/18/77 128/18/75
f 123/18/76 117/17/78 118/17/76
f 117/17/78 123/18/76 124/18/78
f 124/18/78 119/17/77 117/17/78
f 119/17/77 124/18/78 126/18/77
f 131/19/15 130/19/15 129/19/15
f 130/19/15 131/19/15 132/19/15
f 132/19/15 131/19/15 133/19/15
f 132/19/15 133/19/15 134/19/15
f 133/19/19 136/20/20 135/20/19
f 136/20/20 133/19/19 131/19/20
f 137/20/21 133/19/19 135/20/19
f 133/19/19 137/20/21 134/19/21
f 131/19/20 138/20/22 136/20/20
f 138/20/22 131/19/20 129/19/22
f 132/19/23 137/20/21 139/20/23
f 137/20/21 132/19/23 134/19/21
f 129/19/22 140/20/24 138/20/22
f 140/20/24 129/19/22 130/19/24
f 130/19/24 139/20/23 140/20/24
f 139/20/23 130/19/24 132/19/23
