mtllib forest_patch-grass.mtl
g patch-grass
v 0.37908 0 0.3927
v 0.37908 0 0.35199
v 0.27178 0 0.5
v 0.2175 0 -0.5
v 0.12004 0 0.5
v 0.017742 0 -0.41726
v 0.038556 0 0.41851
v -0.15818 0 0.5
v -0.0059207 0 -0.36013
v -0.058006 0 -0.3817
v -0.076939 0 -0.42741
v -0.25218 0 -0.5
v -0.39988 0 0.39988
v 0.41726 0 -0.41726
v -0.42741 0 -0.42741
v 0.41726 0 -0.017742
v 0.5 0 -0.2175
v 0.44193 0 0.32595
v 0.5 0 0.18576
v -0.42741 0 -0.076939
v -0.5 0 -0.25218
v -0.45336 0 0.045575
v -0.5 0 0.15818
v 0.40143 0.035355 -0.017794
v 0.48417 0.035355 0.18571
v -0.48415 0.035355 0.15818
v -0.38867 0.035355 0.38867
v 0.028951 0.035355 -0.40605
v 0.2175 0.035355 -0.48415
v -0.4054 0.05 0.060447
v -0.44588 0.05 0.15818
v -0.43931 0.035355 0.049931
v -0.36161 0.05 0.36161
v 0.041992 0.035355 0.40124
v -0.15818 0.035355 0.48415
v -0.37529 0.05 -0.081749
v -0.41215 0.035355 -0.078348
v 0.14076 0.05 0.45
v 0.12611 0.035355 0.48536
v 0.050288 0.05 0.35953
v 0.36444 0.035355 0.38664
v 0.26572 0.035355 0.48536
v 0.25107 0.05 0.45
v 0.36444 0.035355 0.3422
v 0.44595 0.05 0.18559
v 0.36321 0.05 -0.017919
v 0.32908 0.05 0.37199
v 0.2175 0.05 -0.44588
v 0.056011 0.05 -0.37899
v -0.15818 0.05 0.44588
v 0.32908 0.05 0.31858
v 0.40605 0.035355 -0.40605
v 0.37899 0.05 -0.37899
v 0.48415 0.035355 -0.2175
v 0.44588 0.05 -0.2175
v -0.088148 0.035355 -0.41621
v -0.11521 0.05 -0.38915
v -0.25218 0.035355 -0.48415
v -0.25218 0.05 -0.44588
v -0.38915 0.05 -0.38915
v -0.44588 0.05 -0.25218
v -0.41621 0.035355 -0.41621
v -0.48415 0.035355 -0.25218
v 0.002005 0.035355 -0.341
v -0.069214 0.035355 -0.3705
v -0.096274 0.05 -0.34344
v 0.021139 0.05 -0.2948
v 0.43072 0.035355 0.31475
v 0.40366 0.05 0.28769
v -0.24565 0.14504 0.25695
v -0.26172 0.1383 0.27185
v -0.25212 0.1383 0.23602
v -0.27219 0.1274 0.23798
v -0.27812 0.1274 0.26012
v -0.2026 0.066439 0.23009
v -0.18965 0.079913 0.27196
v -0.24274 0.044637 0.234
v -0.22179 0.066439 0.30175
v -0.2546 0.044637 0.27829
v -0.19299 0.040749 0.24226
v -0.18328 0.050855 0.27366
v -0.20739 0.040749 0.29601
v -0.2231 0.024398 0.2452
v -0.232 0.024398 0.27841
v -0.11269 0.10217 0.23828
v -0.13071 0.11014 0.2379
v -0.10918 0.094195 0.22059
v -0.12504 0.097241 0.20928
v -0.13834 0.1071 0.21998
v -0.12087 0.031323 0.23458
v -0.12789 0.047272 0.26996
v -0.15259 0.037415 0.21197
v -0.16394 0.063221 0.2692
v -0.17921 0.057129 0.23336
v -0.13561 0.017011 0.24413
v -0.14087 0.028973 0.27066
v -0.16791 0.040935 0.27009
v -0.1594 0.02158 0.22717
v -0.17936 0.036366 0.24321
v -0.15637 0.15931 0.37797
v -0.17883 0.16378 0.35954
v -0.13141 0.16378 0.36312
v -0.13844 0.17102 0.33551
v -0.16774 0.17102 0.3333
v -0.10575 0.046492 0.33907
v -0.15568 0.03755 0.36878
v -0.11981 0.06096 0.28387
v -0.20059 0.046492 0.33193
v -0.17842 0.06096 0.27945
v -0.11664 0.0085458 0.32529
v -0.15408 0.0018394 0.34757
v -0.18777 0.0085458 0.31993
v -0.12718 0.019397 0.28388
v -0.17114 0.019397 0.28057
v 0.33731 0.10217 0.13828
v 0.31929 0.11014 0.1379
v 0.34082 0.094195 0.12059
v 0.32496 0.097241 0.10928
v 0.31166 0.1071 0.11998
v 0.32913 0.031323 0.13458
v 0.32211 0.047272 0.16996
v 0.29741 0.037415 0.11197
v 0.28606 0.063221 0.1692
v 0.27079 0.057129 0.13336
v 0.31439 0.017011 0.14413
v 0.30913 0.028973 0.17066
v 0.28209 0.040935 0.17009
v 0.2906 0.02158 0.12717
v 0.27064 0.036366 0.14321
v 0.29363 0.15931 0.29797
v 0.27117 0.16378 0.27954
v 0.31859 0.16378 0.28312
v 0.31156 0.17102 0.25551
v 0.28226 0.17102 0.2533
v 0.34425 0.046492 0.25907
v 0.29432 0.03755 0.28878
v 0.33019 0.06096 0.20387
v 0.24941 0.046492 0.25193
v 0.27158 0.06096 0.19945
v 0.33336 0.0085458 0.24529
v 0.29592 0.0018394 0.26757
v 0.26223 0.0085458 0.23993
v 0.32282 0.019397 0.20388
v 0.27886 0.019397 0.20057
v -0.33005 0.15931 -0.26774
v -0.30286 0.16378 -0.27798
v -0.32966 0.16378 -0.2387
v -0.30225 0.17102 -0.23098
v -0.28568 0.17102 -0.25526
v -0.32167 0.046492 -0.20446
v -0.32243 0.03755 -0.26255
v -0.26683 0.06096 -0.18903
v -0.26806 0.046492 -0.28302
v -0.2337 0.06096 -0.23758
v -0.30429 0.0085458 -0.20699
v -0.30486 0.0018394 -0.25056
v -0.26408 0.0085458 -0.26591
v -0.26316 0.019397 -0.19542
v -0.23831 0.019397 -0.23183
v -0.18061 0.14504 -0.28455
v -0.18547 0.1383 -0.30591
v -0.15924 0.1383 -0.27969
v -0.1509 0.1274 -0.29805
v -0.16711 0.1274 -0.31425
v -0.17887 0.066439 -0.23383
v -0.2216 0.079913 -0.24356
v -0.16218 0.044637 -0.27055
v -0.23132 0.066439 -0.28629
v -0.1946 0.044637 -0.30297
v -0.19421 0.040749 -0.2316
v -0.22626 0.050855 -0.2389
v -0.23355 0.040749 -0.27094
v -0.1817 0.024398 -0.25914
v -0.20601 0.024398 -0.28346
vn 0.81697 -0.46695 0.3384
vn 0.57465 -0.72273 0.38397
vn 0.3384 -0.46695 0.81697
vn 0 -0.46695 -0.88428
vn -0.3384 -0.46695 0.81697
vn -0.62528 -0.46695 -0.62528
vn -0.13483 -0.72273 0.67785
vn 0 -0.46695 0.88428
vn -0.23595 -0.7873 -0.56964
vn 0.53007 -0.66185 -0.53007
vn 0.62528 -0.46695 -0.62528
vn -0.62528 -0.46695 0.62528
vn 0.75049 -0.66088 0.0024509
vn 0.88428 -0.46695 0
vn 0.62528 -0.46695 0.62528
vn 0.88391 -0.46765 0.0028867
vn -0.76921 -0.63504 0.070972
vn -0.88428 -0.46695 0
vn -0.77902 -0.5786 -0.24157
vn 0.63113 0.77567 0.0020611
vn 0.73095 0.68243 0.0023871
vn -0.73096 0.68242 0
vn -0.51687 0.68242 0.51687
vn -0.51687 0.68242 -0.51687
vn 0 0.68242 -0.73096
vn -0.17513 0.98305 -0.054307
vn -0.22483 0.9744 0
vn -0.6633 0.71954 -0.20569
vn -0.15898 0.9744 0.15898
vn -0.11025 0.82502 0.55425
vn 0 0.68242 0.73096
vn -0.15161 0.98834 0.013989
vn -0.65123 0.7565 0.060085
vn -0.086037 0.9744 0.20771
vn -0.27973 0.68242 0.67532
vn -0.020269 0.99459 0.1019
vn 0.67532 0.68242 0.27973
vn 0.27973 0.68242 0.67532
vn 0.086037 0.9744 0.20771
vn 0.46987 0.82502 0.31395
vn 0.22474 0.97442 0.00073396
vn 0.13772 0.99047 0.00044978
vn 0.20771 0.9744 0.086037
vn 0 0.9744 -0.22483
vn -0.15898 0.9744 -0.15898
vn 0 0.9744 0.22483
vn 0.086384 0.99459 0.05772
vn 0.51687 0.68242 -0.51687
vn 0.15898 0.9744 -0.15898
vn 0.73096 0.68242 0
vn 0.22483 0.9744 0
vn -0.18278 0.87857 -0.44126
vn 0.44563 0.77642 -0.44563
vn 0.097001 0.99055 -0.097001
vn -0.027325 0.99745 -0.065968
vn 0.51687 0.68242 0.51687
vn 0.15898 0.9744 0.15898
vn 0.1739 0.98366 0.046597
vn -0.35815 0.76402 0.53665
vn -0.041843 0.76402 -0.64383
vn -0.70482 0.41025 -0.57873
vn -0.89975 0.41025 0.14878
vn 0.52357 0.10836 -0.84507
vn 0.85815 0.45902 0.22994
vn -0.50031 -0.45197 -0.73852
vn 0.030891 0.10836 0.99363
vn -0.80254 -0.45197 0.38942
vn 0.63758 -0.12207 -0.76065
vn 0.94198 0.22128 0.2524
vn 0.17184 -0.12207 0.97753
vn -0.32114 -0.6776 -0.6616
vn -0.60892 -0.6776 0.41239
vn 0.68486 0.69816 0.20867
vn 0.054726 0.97959 0.19339
vn 0.80775 0.42182 -0.41184
vn 0.25525 0.53314 -0.8066
vn -0.20827 0.87648 -0.43405
vn 0.80936 -0.52549 -0.26228
vn 0.60448 -0.046818 0.79524
vn -0.13775 -0.34615 -0.92801
vn -0.47504 0.42589 0.77004
vn -0.9256 0.23742 -0.29479
vn 0.64329 -0.75341 -0.13623
vn 0.45798 -0.29257 0.83944
vn -0.55129 0.13144 0.82389
vn -0.24937 -0.61276 -0.74989
vn -0.985 -0.06787 -0.15864
vn -0.063708 0.53015 0.84551
vn -0.67146 0.65479 0.34696
vn 0.61189 0.65479 0.44366
vn 0.42068 0.85585 -0.30093
vn -0.37083 0.85585 -0.36057
vn 0.92819 -0.12214 0.35149
vn -0.071682 -0.29973 0.95133
vn 0.64213 0.16192 -0.7493
vn -0.97038 -0.12214 0.20843
vn -0.52259 0.16192 -0.83706
vn 0.88833 -0.35887 0.2865
vn -0.06455 -0.51179 0.85668
vn -0.92123 -0.35887 0.15015
vn 0.62164 -0.11049 -0.77547
vn -0.49842 -0.11049 -0.85987
vn -0.70038 0.53015 -0.47793
vn 0.03525 0.65479 -0.75498
vn -0.69017 0.65479 0.30808
vn 0.050272 0.85585 0.51478
vn 0.49767 0.85585 -0.14087
vn -0.76849 -0.12214 0.62809
vn -0.78803 -0.29973 -0.53774
vn 0.32785 0.16192 0.93075
vn 0.30468 -0.12214 -0.94459
vn 0.98622 0.16192 -0.034048
vn -0.69228 -0.35887 0.62607
vn -0.70963 -0.51179 -0.48424
vn 0.33058 -0.35887 -0.87288
vn 0.36076 -0.11049 0.92609
vn 0.99388 -0.11049 -0.001707
vn -0.1273 0.98366 0.1273
vn -0.28568 0.76402 -0.5785
vn 0.5785 0.76402 0.28568
vn 0.8536 0.41025 -0.32103
vn 0.32103 0.41025 -0.8536
vn 0.47006 0.10836 0.87596
vn -0.62821 0.45902 0.62821
vn 0.88973 -0.45197 -0.06402
vn -0.87596 0.10836 -0.47006
vn 0.06402 -0.45197 -0.88973
vn 0.33995 -0.12207 0.93249
vn -0.68958 0.22128 0.68958
vn -0.93249 -0.12207 -0.33995
vn 0.73354 -0.6776 0.052683
vn -0.052682 -0.6776 -0.73354
vt 0.15625 0.125
usemtl colormap
f 3/1/3 2/1/2 1/1/1
f 4/1/4 2/1/2 3/1/3
f 4/1/4 3/1/3 5/1/5
f 4/1/4 5/1/5 6/1/6
f 6/1/6 5/1/5 7/1/7
f 6/1/6 7/1/7 8/1/8
f 6/1/6 8/1/8 9/1/9
f 9/1/9 8/1/8 10/1/10
f 10/1/10 8/1/8 11/1/11
f 11/1/11 8/1/8 12/1/4
f 12/1/4 8/1/8 13/1/12
f 14/1/11 2/1/2 4/1/4
f 12/1/4 13/1/12 15/1/6
f 16/1/13 2/1/2 14/1/11
f 14/1/11 17/1/14 16/1/13
f 16/1/13 18/1/15 2/1/2
f 18/1/15 16/1/13 19/1/16
f 15/1/6 13/1/12 20/1/17
f 15/1/6 20/1/17 21/1/18
f 13/1/12 22/1/19 20/1/17
f 22/1/19 13/1/12 23/1/18
f 25/1/21 16/1/13 24/1/20
f 16/1/13 25/1/21 19/1/16
f 13/1/12 26/1/22 23/1/18
f 26/1/22 13/1/12 27/1/23
f 28/1/24 4/1/4 6/1/6
f 4/1/4 28/1/24 29/1/25
f 32/1/28 31/1/27 30/1/26
f 31/1/27 32/1/28 26/1/22
f 31/1/27 27/1/23 33/1/29
f 27/1/23 31/1/27 26/1/22
f 34/1/30 8/1/8 7/1/7
f 8/1/8 34/1/30 35/1/31
f 37/1/33 30/1/26 36/1/32
f 30/1/26 37/1/33 32/1/28
f 40/1/36 39/1/35 38/1/34
f 39/1/35 40/1/36 34/1/30
f 20/1/17 32/1/28 37/1/33
f 32/1/28 20/1/17 22/1/19
f 41/1/37 3/1/3 1/1/1
f 3/1/3 41/1/37 42/1/38
f 43/1/39 39/1/35 42/1/38
f 39/1/35 43/1/39 38/1/34
f 41/1/37 2/1/2 44/1/40
f 2/1/2 41/1/37 1/1/1
f 42/1/38 5/1/5 3/1/3
f 5/1/5 42/1/38 39/1/35
f 35/1/31 13/1/12 8/1/8
f 13/1/12 35/1/31 27/1/23
f 24/1/20 45/1/41 25/1/21
f 45/1/41 24/1/20 46/1/42
f 7/1/7 39/1/35 34/1/30
f 39/1/35 7/1/7 5/1/5
f 47/1/43 42/1/38 41/1/37
f 42/1/38 47/1/43 43/1/39
f 28/1/24 48/1/44 29/1/25
f 48/1/44 28/1/24 49/1/45
f 50/1/46 27/1/23 35/1/31
f 27/1/23 50/1/46 33/1/29
f 23/1/18 32/1/28 22/1/19
f 32/1/28 23/1/18 26/1/22
f 51/1/47 41/1/37 44/1/40
f 41/1/37 51/1/47 47/1/43
f 50/1/46 34/1/30 40/1/36
f 34/1/30 50/1/46 35/1/31
f 29/1/25 53/1/49 52/1/48
f 53/1/49 29/1/25 48/1/44
f 24/1/20 17/1/14 54/1/50
f 17/1/14 24/1/20 16/1/13
f 52/1/48 55/1/51 54/1/50
f 55/1/51 52/1/48 53/1/49
f 58/1/25 57/1/49 56/1/48
f 57/1/49 58/1/25 59/1/44
f 62/1/24 61/1/27 60/1/45
f 61/1/27 62/1/24 63/1/22
f 9/1/9 28/1/24 6/1/6
f 28/1/24 9/1/9 64/1/52
f 56/1/48 10/1/10 11/1/11
f 10/1/10 56/1/48 65/1/53
f 55/1/51 24/1/20 54/1/50
f 24/1/20 55/1/51 46/1/42
f 56/1/48 66/1/54 65/1/53
f 66/1/54 56/1/48 57/1/49
f 28/1/24 67/1/55 49/1/45
f 67/1/55 28/1/24 64/1/52
f 21/1/18 62/1/24 15/1/6
f 62/1/24 21/1/18 63/1/22
f 64/1/52 66/1/54 67/1/55
f 66/1/54 64/1/52 65/1/53
f 58/1/25 11/1/11 12/1/4
f 11/1/11 58/1/25 56/1/48
f 52/1/48 17/1/14 14/1/11
f 17/1/14 52/1/48 54/1/50
f 65/1/53 9/1/9 10/1/10
f 9/1/9 65/1/53 64/1/52
f 61/1/27 37/1/33 36/1/32
f 37/1/33 61/1/27 63/1/22
f 20/1/17 63/1/22 21/1/18
f 63/1/22 20/1/17 37/1/33
f 29/1/25 14/1/11 4/1/4
f 14/1/11 29/1/25 52/1/48
f 62/1/24 59/1/44 58/1/25
f 59/1/44 62/1/24 60/1/45
f 62/1/24 12/1/4 15/1/6
f 12/1/4 62/1/24 58/1/25
f 45/1/41 68/1/56 25/1/21
f 68/1/56 45/1/41 69/1/57
f 68/1/56 19/1/16 25/1/21
f 19/1/16 68/1/56 18/1/15
f 69/1/57 44/1/40 68/1/56
f 44/1/40 69/1/57 51/1/47
f 46/1/42 69/1/57 45/1/41
f 69/1/57 46/1/42 51/1/47
f 46/1/42 48/1/44 51/1/47
f 51/1/47 48/1/44 47/1/43
f 47/1/43 48/1/44 43/1/39
f 43/1/39 48/1/44 38/1/34
f 46/1/42 53/1/49 48/1/44
f 53/1/49 46/1/42 55/1/51
f 38/1/34 48/1/44 49/1/45
f 38/1/34 49/1/45 40/1/36
f 40/1/36 49/1/45 67/1/55
f 40/1/36 67/1/55 50/1/46
f 50/1/46 67/1/55 66/1/54
f 50/1/46 66/1/54 57/1/49
f 50/1/46 57/1/49 59/1/44
f 50/1/46 59/1/44 33/1/29
f 33/1/29 59/1/44 36/1/32
f 36/1/32 59/1/44 60/1/45
f 36/1/32 60/1/45 61/1/27
f 30/1/26 33/1/29 36/1/32
f 33/1/29 30/1/26 31/1/27
f 68/1/56 2/1/2 18/1/15
f 2/1/2 68/1/56 44/1/40
f 72/1/60 71/1/59 70/1/58
f 71/1/59 72/1/60 73/1/61
f 71/1/59 73/1/61 74/1/62
f 72/1/60 76/1/64 75/1/63
f 76/1/64 72/1/60 70/1/58
f 73/1/61 75/1/63 77/1/65
f 75/1/63 73/1/61 72/1/60
f 71/1/59 79/1/67 78/1/66
f 79/1/67 71/1/59 74/1/62
f 79/1/67 73/1/61 77/1/65
f 73/1/61 79/1/67 74/1/62
f 71/1/59 76/1/64 70/1/58
f 76/1/64 71/1/59 78/1/66
f 76/1/64 80/1/68 75/1/63
f 80/1/68 76/1/64 81/1/69
f 76/1/64 82/1/70 81/1/69
f 82/1/70 76/1/64 78/1/66
f 77/1/65 80/1/68 83/1/71
f 80/1/68 77/1/65 75/1/63
f 83/1/71 79/1/67 77/1/65
f 79/1/67 83/1/71 84/1/72
f 78/1/66 84/1/72 82/1/70
f 84/1/72 78/1/66 79/1/67
f 87/1/75 86/1/74 85/1/73
f 86/1/74 87/1/75 88/1/76
f 86/1/74 88/1/76 89/1/77
f 87/1/75 91/1/79 90/1/78
f 91/1/79 87/1/75 85/1/73
f 88/1/76 90/1/78 92/1/80
f 90/1/78 88/1/76 87/1/75
f 86/1/74 94/1/82 93/1/81
f 94/1/82 86/1/74 89/1/77
f 94/1/82 88/1/76 92/1/80
f 88/1/76 94/1/82 89/1/77
f 86/1/74 91/1/79 85/1/73
f 91/1/79 86/1/74 93/1/81
f 91/1/79 95/1/83 90/1/78
f 95/1/83 91/1/79 96/1/84
f 91/1/79 97/1/85 96/1/84
f 97/1/85 91/1/79 93/1/81
f 92/1/80 95/1/83 98/1/86
f 95/1/83 92/1/80 90/1/78
f 98/1/86 94/1/82 92/1/80
f 94/1/82 98/1/86 99/1/87
f 93/1/81 99/1/87 97/1/85
f 99/1/87 93/1/81 94/1/82
f 102/1/90 101/1/89 100/1/88
f 101/1/89 102/1/90 103/1/91
f 101/1/89 103/1/91 104/1/92
f 102/1/90 106/1/94 105/1/93
f 106/1/94 102/1/90 100/1/88
f 103/1/91 105/1/93 107/1/95
f 105/1/93 103/1/91 102/1/90
f 101/1/89 109/1/97 108/1/96
f 109/1/97 101/1/89 104/1/92
f 109/1/97 103/1/91 107/1/95
f 103/1/91 109/1/97 104/1/92
f 101/1/89 106/1/94 100/1/88
f 106/1/94 101/1/89 108/1/96
f 106/1/94 110/1/98 105/1/93
f 110/1/98 106/1/94 111/1/99
f 106/1/94 112/1/100 111/1/99
f 112/1/100 106/1/94 108/1/96
f 107/1/95 110/1/98 113/1/101
f 110/1/98 107/1/95 105/1/93
f 113/1/101 109/1/97 107/1/95
f 109/1/97 113/1/101 114/1/102
f 108/1/96 114/1/102 112/1/100
f 114/1/102 108/1/96 109/1/97
f 117/1/75 116/1/74 115/1/73
f 116/1/74 117/1/75 118/1/76
f 116/1/74 118/1/76 119/1/77
f 117/1/75 121/1/79 120/1/78
f 121/1/79 117/1/75 115/1/73
f 118/1/76 120/1/78 122/1/80
f 120/1/78 118/1/76 117/1/75
f 116/1/74 124/1/82 123/1/81
f 124/1/82 116/1/74 119/1/77
f 124/1/82 118/1/76 122/1/80
f 118/1/76 124/1/82 119/1/77
f 116/1/74 121/1/79 115/1/73
f 121/1/79 116/1/74 123/1/81
f 121/1/79 125/1/83 120/1/78
f 125/1/83 121/1/79 126/1/84
f 121/1/79 127/1/85 126/1/84
f 127/1/85 121/1/79 123/1/81
f 122/1/80 125/1/83 128/1/86
f 125/1/83 122/1/80 120/1/78
f 128/1/86 124/1/82 122/1/80
f 124/1/82 128/1/86 129/1/87
f 123/1/81 129/1/87 127/1/85
f 129/1/87 123/1/81 124/1/82
f 132/1/90 131/1/89 130/1/88
f 131/1/89 132/1/90 133/1/91
f 131/1/89 133/1/91 134/1/92
f 132/1/90 136/1/94 135/1/93
f 136/1/94 132/1/90 130/1/88
f 133/1/91 135/1/93 137/1/95
f 135/1/93 133/1/91 132/1/90
f 131/1/89 139/1/97 138/1/96
f 139/1/97 131/1/89 134/1/92
f 139/1/97 133/1/91 137/1/95
f 133/1/91 139/1/97 134/1/92
f 131/1/89 136/1/94 130/1/88
f 136/1/94 131/1/89 138/1/96
f 136/1/94 140/1/98 135/1/93
f 140/1/98 136/1/94 141/1/99
f 136/1/94 142/1/100 141/1/99
f 142/1/100 136/1/94 138/1/96
f 137/1/95 140/1/98 143/1/101
f 140/1/98 137/1/95 135/1/93
f 143/1/101 139/1/97 137/1/95
f 139/1/97 143/1/101 144/1/102
f 138/1/96 144/1/102 142/1/100
f 144/1/102 138/1/96 139/1/97
f 147/1/105 146/1/104 145/1/103
f 146/1/104 147/1/105 148/1/106
f 146/1/104 148/1/106 149/1/107
f 147/1/105 151/1/109 150/1/108
f 151/1/109 147/1/105 145/1/103
f 148/1/106 150/1/108 152/1/110
f 150/1/108 148/1/106 147/1/105
f 146/1/104 154/1/112 153/1/111
f 154/1/112 146/1/104 149/1/107
f 154/1/112 148/1/106 152/1/110
f 148/1/106 154/1/112 149/1/107
f 146/1/104 151/1/109 145/1/103
f 151/1/109 146/1/104 153/1/111
f 151/1/109 155/1/113 150/1/108
f 155/1/113 151/1/109 156/1/114
f 151/1/109 157/1/115 156/1/114
f 157/1/115 151/1/109 153/1/111
f 152/1/110 155/1/113 158/1/116
f 155/1/113 152/1/110 150/1/108
f 158/1/116 154/1/112 152/1/110
f 154/1/112 158/1/116 159/1/117
f 153/1/111 159/1/117 157/1/115
f 159/1/117 153/1/111 154/1/112
f 162/1/120 161/1/119 160/1/118
f 161/1/119 162/1/120 163/1/121
f 161/1/119 163/1/121 164/1/122
f 162/1/120 166/1/124 165/1/123
f 166/1/124 162/1/120 160/1/118
f 163/1/121 165/1/123 167/1/125
f 165/1/123 163/1/121 162/1/120
f 161/1/119 169/1/127 168/1/126
f 169/1/127 161/1/119 164/1/122
f 169/1/127 163/1/121 167/1/125
f 163/1/121 169/1/127 164/1/122
f 161/1/119 166/1/124 160/1/118
f 166/1/124 161/1/119 168/1/126
f 166/1/124 170/1/128 165/1/123
f 170/1/128 166/1/124 171/1/129
f 166/1/124 172/1/130 171/1/129
f 172/1/130 166/1/124 168/1/126
f 167/1/125 170/1/128 173/1/131
f 170/1/128 167/1/125 165/1/123
f 173/1/131 169/1/127 167/1/125
f 169/1/127 173/1/131 174/1/132
f 168/1/126 174/1/132 172/1/130
f 174/1/132 168/1/126 169/1/127
g patch-grass
usemtl colormap
f 3/1/3 2/1/2 1/1/1
f 4/1/4 2/1/2 3/1/3
f 4/1/4 3/1/3 5/1/5
f 4/1/4 5/1/5 6/1/6
f 6/1/6 5/1/5 7/1/7
f 6/1/6 7/1/7 8/1/8
f 6/1/6 8/1/8 9/1/9
f 9/1/9 8/1/8 10/1/10
f 10/1/10 8/1/8 11/1/11
f 11/1/11 8/1/8 12/1/4
f 12/1/4 8/1/8 13/1/12
f 14/1/11 2/1/2 4/1/4
f 12/1/4 13/1/12 15/1/6
f 16/1/13 2/1/2 14/1/11
f 14/1/11 17/1/14 16/1/13
f 16/1/13 18/1/15 2/1/2
f 18/1/15 16/1/13 19/1/16
f 15/1/6 13/1/12 20/1/17
f 15/1/6 20/1/17 21/1/18
f 13/1/12 22/1/19 20/1/17
f 22/1/19 13/1/12 23/1/18
f 25/1/21 16/1/13 24/1/20
f 16/1/13 25/1/21 19/1/16
f 13/1/12 26/1/22 23/1/18
f 26/1/22 13/1/12 27/1/23
f 28/1/24 4/1/4 6/1/6
f 4/1/4 28/1/24 29/1/25
f 32/1/28 31/1/27 30/1/26
f 31/1/27 32/1/28 26/1/22
f 31/1/27 27/1/23 33/1/29
f 27/1/23 31/1/27 26/1/22
f 34/1/30 8/1/8 7/1/7
f 8/1/8 34/1/30 35/1/31
f 37/1/33 30/1/26 36/1/32
f 30/1/26 37/1/33 32/1/28
f 40/1/36 39/1/35 38/1/34
f 39/1/35 40/1/36 34/1/30
f 20/1/17 32/1/28 37/1/33
f 32/1/28 20/1/17 22/1/19
f 41/1/37 3/1/3 1/1/1
f 3/1/3 41/1/37 42/1/38
f 43/1/39 39/1/35 42/1/38
f 39/1/35 43/1/39 38/1/34
f 41/1/37 2/1/2 44/1/40
f 2/1/2 41/1/37 1/1/1
f 42/1/38 5/1/5 3/1/3
f 5/1/5 42/1/38 39/1/35
f 35/1/31 13/1/12 8/1/8
f 13/1/12 35/1/31 27/1/23
f 24/1/20 45/1/41 25/1/21
f 45/1/41 24/1/20 46/1/42
f 7/1/7 39/1/35 34/1/30
f 39/1/35 7/1/7 5/1/5
f 47/1/43 42/1/38 41/1/37
f 42/1/38 47/1/43 43/1/39
f 28/1/24 48/1/44 29/1/25
f 48/1/44 28/1/24 49/1/45
f 50/1/46 27/1/23 35/1/31
f 27/1/23 50/1/46 33/1/29
f 23/1/18 32/1/28 22/1/19
f 32/1/28 23/1/18 26/1/22
f 51/1/47 41/1/37 44/1/40
f 41/1/37 51/1/47 47/1/43
f 50/1/46 34/1/30 40/1/36
f 34/1/30 50/1/46 35/1/31
f 29/1/25 53/1/49 52/1/48
f 53/1/49 29/1/25 48/1/44
f 24/1/20 17/1/14 54/1/50
f 17/1/14 24/1/20 16/1/13
f 52/1/48 55/1/51 54/1/50
f 55/1/51 52/1/48 53/1/49
f 58/1/25 57/1/49 56/1/48
f 57/1/49 58/1/25 59/1/44
f 62/1/24 61/1/27 60/1/45
f 61/1/27 62/1/24 63/1/22
f 9/1/9 28/1/24 6/1/6
f 28/1/24 9/1/9 64/1/52
f 56/1/48 10/1/10 11/1/11
f 10/1/10 56/1/48 65/1/53
f 55/1/51 24/1/20 54/1/50
f 24/1/20 55/1/51 46/1/42
f 56/1/48 66/1/54 65/1/53
f 66/1/54 56/1/48 57/1/49
f 28/1/24 67/1/55 49/1/45
f 67/1/55 28/1/24 64/1/52
f 21/1/18 62/1/24 15/1/6
f 62/1/24 21/1/18 63/1/22
f 64/1/52 66/1/54 67/1/55
f 66/1/54 64/1/52 65/1/53
f 58/1/25 11/1/11 12/1/4
f 11/1/11 58/1/25 56/1/48
f 52/1/48 17/1/14 14/1/11
f 17/1/14 52/1/48 54/1/50
f 65/1/53 9/1/9 10/1/10
f 9/1/9 65/1/53 64/1/52
f 61/1/27 37/1/33 36/1/32
f 37/1/33 61/1/27 63/1/22
f 20/1/17 63/1/22 21/1/18
f 63/1/22 20/1/17 37/1/33
f 29/1/25 14/1/11 4/1/4
f 14/1/11 29/1/25 52/1/48
f 62/1/24 59/1/44 58/1/25
f 59/1/44 62/1/24 60/1/45
f 62/1/24 12/1/4 15/1/6
f 12/1/4 62/1/24 58/1/25
f 45/1/41 68/1/56 25/1/21
f 68/1/56 45/1/41 69/1/57
f 68/1/56 19/1/16 25/1/21
f 19/1/16 68/1/56 18/1/15
f 69/1/57 44/1/40 68/1/56
f 44/1/40 69/1/57 51/1/47
f 46/1/42 69/1/57 45/1/41
f 69/1/57 46/1/42 51/1/47
f 46/1/42 48/1/44 51/1/47
f 51/1/47 48/1/44 47/1/43
f 47/1/43 48/1/44 43/1/39
f 43/1/39 48/1/44 38/1/34
f 46/1/42 53/1/49 48/1/44
f 53/1/49 46/1/42 55/1/51
f 38/1/34 48/1/44 49/1/45
f 38/1/34 49/1/45 40/1/36
f 40/1/36 49/1/45 67/1/55
f 40/1/36 67/1/55 50/1/46
f 50/1/46 67/1/55 66/1/54
f 50/1/46 66/1/54 57/1/49
f 50/1/46 57/1/49 59/1/44
f 50/1/46 59/1/44 33/1/29
f 33/1/29 59/1/44 36/1/32
f 36/1/32 59/1/44 60/1/45
f 36/1/32 60/1/45 61/1/27
f 30/1/26 33/1/29 36/1/32
f 33/1/29 30/1/26 31/1/27
f 68/1/56 2/1/2 18/1/15
f 2/1/2 68/1/56 44/1/40
f 72/1/60 71/1/59 70/1/58
f 71/1/59 72/1/60 73/1/61
f 71/1/59 73/1/61 74/1/62
f 72/1/60 76/1/64 75/1/63
f 76/1/64 72/1/60 70/1/58
f 73/1/61 75/1/63 77/1/65
f 75/1/63 73/1/61 72/1/60
f 71/1/59 79/1/67 78/1/66
f 79/1/67 71/1/59 74/1/62
f 79/1/67 73/1/61 77/1/65
f 73/1/61 79/1/67 74/1/62
f 71/1/59 76/1/64 70/1/58
f 76/1/64 71/1/59 78/1/66
f 76/1/64 80/1/68 75/1/63
f 80/1/68 76/1/64 81/1/69
f 76/1/64 82/1/70 81/1/69
f 82/1/70 76/1/64 78/1/66
f 77/1/65 80/1/68 83/1/71
f 80/1/68 77/1/65 75/1/63
f 83/1/71 79/1/67 77/1/65
f 79/1/67 83/1/71 84/1/72
f 78/1/66 84/1/72 82/1/70
f 84/1/72 78/1/66 79/1/67
f 87/1/75 86/1/74 85/1/73
f 86/1/74 87/1/75 88/1/76
f 86/1/74 88/1/76 89/1/77
f 87/1/75 91/1/79 90/1/78
f 91/1/79 87/1/75 85/1/73
f 88/1/76 90/1/78 92/1/80
f 90/1/78 88/1/76 87/1/75
f 86/1/74 94/1/82 93/1/81
f 94/1/82 86/1/74 89/1/77
f 94/1/82 88/1/76 92/1/80
f 88/1/76 94/1/82 89/1/77
f 86/1/74 91/1/79 85/1/73
f 91/1/79 86/1/74 93/1/81
f 91/1/79 95/1/83 90/1/78
f 95/1/83 91/1/79 96/1/84
f 91/1/79 97/1/85 96/1/84
f 97/1/85 91/1/79 93/1/81
f 92/1/80 95/1/83 98/1/86
f 95/1/83 92/1/80 90/1/78
f 98/1/86 94/1/82 92/1/80
f 94/1/82 98/1/86 99/1/87
f 93/1/81 99/1/87 97/1/85
f 99/1/87 93/1/81 94/1/82
f 102/1/90 101/1/89 100/1/88
f 101/1/89 102/1/90 103/1/91
f 101/1/89 103/1/91 104/1/92
f 102/1/90 106/1/94 105/1/93
f 106/1/94 102/1/90 100/1/88
f 103/1/91 105/1/93 107/1/95
f 105/1/93 103/1/91 102/1/90
f 101/1/89 109/1/97 108/1/96
f 109/1/97 101/1/89 104/1/92
f 109/1/97 103/1/91 107/1/95
f 103/1/91 109/1/97 104/1/92
f 101/1/89 106/1/94 100/1/88
f 106/1/94 101/1/89 108/1/96
f 106/1/94 110/1/98 105/1/93
f 110/1/98 106/1/94 111/1/99
f 106/1/94 112/1/100 111/1/99
f 112/1/100 106/1/94 108/1/96
f 107/1/95 110/1/98 113/1/101
f 110/1/98 107/1/95 105/1/93
f 113/1/101 109/1/97 107/1/95
f 109/1/97 113/1/101 114/1/102
f 108/1/96 114/1/102 112/1/100
f 114/1/102 108/1/96 109/1/97
f 117/1/75 116/1/74 115/1/73
f 116/1/74 117/1/75 118/1/76
f 116/1/74 118/1/76 119/1/77
f 117/1/75 121/1/79 120/1/78
f 121/1/79 117/1/75 115/1/73
f 118/1/76 120/1/78 122/1/80
f 120/1/78 118/1/76 117/1/75
f 116/1/74 124/1/82 123/1/81
f 124/1/82 116/1/74 119/1/77
f 124/1/82 118/1/76 122/1/80
f 118/1/76 124/1/82 119/1/77
f 116/1/74 121/1/79 115/1/73
f 121/1/79 116/1/74 123/1/81
f 121/1/79 125/1/83 120/1/78
f 125/1/83 121/1/79 126/1/84
f 121/1/79 127/1/85 126/1/84
f 127/1/85 121/1/79 123/1/81
f 122/1/80 125/1/83 128/1/86
f 125/1/83 122/1/80 120/1/78
f 128/1/86 124/1/82 122/1/80
f 124/1/82 128/1/86 129/1/87
f 123/1/81 129/1/87 127/1/85
f 129/1/87 123/1/81 124/1/82
f 132/1/90 131/1/89 130/1/88
f 131/1/89 132/1/90 133/1/91
f 131/1/89 133/1/91 134/1/92
f 132/1/90 136/1/94 135/1/93
f 136/1/94 132/1/90 130/1/88
f 133/1/91 135/1/93 137/1/95
f 135/1/93 133/1/91 132/1/90
f 131/1/89 139/1/97 138/1/96
f 139/1/97 131/1/89 134/1/92
f 139/1/97 133/1/91 137/1/95
f 133/1/91 139/1/97 134/1/92
f 131/1/89 136/1/94 130/1/88
f 136/1/94 131/1/89 138/1/96
f 136/1/94 140/1/98 135/1/93
f 140/1/98 136/1/94 141/1/99
f 136/1/94 142/1/100 141/1/99
f 142/1/100 136/1/94 138/1/96
f 137/1/95 140/1/98 143/1/101
f 140/1/98 137/1/95 135/1/93
f 143/1/101 139/1/97 137/1/95
f 139/1/97 143/1/101 144/1/102
f 138/1/96 144/1/102 142/1/100
f 144/1/102 138/1/96 139/1/97
f 147/1/105 146/1/104 145/1/103
f 146/1/104 147/1/105 148/1/106
f 146/1/104 148/1/106 149/1/107
f 147/1/105 151/1/109 150/1/108
f 151/1/109 147/1/105 145/1/103
f 148/1/106 150/1/108 152/1/110
f 150/1/108 148/1/106 147/1/105
f 146/1/104 154/1/112 153/1/111
f 154/1/112 146/1/104 149/1/107
f 154/1/112 148/1/106 152/1/110
f 148/1/106 154/1/112 149/1/107
f 146/1/104 151/1/109 145/1/103
f 151/1/109 146/1/104 153/1/111
f 151/1/109 155/1/113 150/1/108
f 155/1/113 151/1/109 156/1/114
f 151/1/109 157/1/115 156/1/114
f 157/1/115 151/1/109 153/1/111
f 152/1/110 155/1/113 158/1/116
f 155/1/113 152/1/110 150/1/108
f 158/1/116 154/1/112 152/1/110
f 154/1/112 158/1/116 159/1/117
f 153/1/111 159/1/117 157/1/115
f 159/1/117 153/1/111 154/1/112
f 162/1/120 161/1/119 160/1/118
f 161/1/119 162/1/120 163/1/121
f 161/1/119 163/1/121 164/1/122
f 162/1/120 166/1/124 165/1/123
f 166/1/124 162/1/120 160/1/118
f 163/1/121 165/1/123 167/1/125
f 165/1/123 163/1/121 162/1/120
f 161/1/119 169/1/127 168/1/126
f 169/1/127 161/1/119 164/1/122
f 169/1/127 163/1/121 167/1/125
f 163/1/121 169/1/127 164/1/122
f 161/1/119 166/1/124 160/1/118
f 166/1/124 161/1/119 168/1/126
f 166/1/124 170/1/128 165/1/123
f 170/1/128 166/1/124 171/1/129
f 166/1/124 172/1/130 171/1/129
f 172/1/130 166/1/124 168/1/126
f 167/1/125 170/1/128 173/1/131
f 170/1/128 167/1/125 165/1/123
f 173/1/131 169/1/127 167/1/125
f 169/1/127 173/1/131 174/1/132
f 168/1/126 174/1/132 172/1/130
f 174/1/132 168/1/126 169/1/127
