mtllib forest_rocks-ramp.mtl
g rocks-ramp
v 0.054344 0.4 -0.054344
v -1.3101e-14 0.33469 0
v -0.067284 0.4 -0.067284
v 0.2 0 -0.2
v 0.15 0 -0.45
v -1.3101e-14 0 0
v 0.1 0 -0.5
v -0.1 0 -0.5
v -0.2 0 -0.2
v -0.15 0 -0.45
v -0.15 0.4 -0.45
v -0.2 0.4 -0.2
v 0.15 0.4 -0.45
v 0.2 0.4 -0.2
v 0.1 0.4 -0.5
v -0.1 0.4 -0.5
v -0.225 0.5 -0.475
v -0.15 0.42891 -0.45
v -0.16394 0.5 -0.38029
v -0.2 0.5 -0.2
v -0.45 0.5 -0.15
v -0.3 0.5 -0.5
v -0.45 0.5 -0.45
v -0.5 0.5 -0.3
v -0.15 0 -0.45
v -0.3 0 -0.5
v -0.2 0 -0.2
v -0.45 0 -0.15
v -0.45 0 -0.45
v -0.5 0 -0.3
v 0.5 0.1 -0.1
v 0.5 0.1 0.1
v 0.45 0.1 -0.15
v 0.45 0.1 0.15
v 0.2 0.1 -0.2
v 0.2 0.1 0.2
v 0 0.1 1.49e-09
v 0.5 0 -0.1
v 0.45 0 -0.15
v 0.5 0 0.1
v 0.45 0 0.15
v 0.2 0 -0.2
v 0.2 0 0.2
v 0 0 1.49e-09
v -0.059584 0.233 0.2775
v -0.11991 0.233 0.25611
v -0.038199 0.233 0.21718
v -0.098521 0.233 0.19579
v -0.015219 0.2 0.20623
v -0.048633 0.2 0.30048
v -0.14289 0.2 0.26706
v -0.10947 0.2 0.17281
v -0.38917 0.32277 -0.01016
v -0.39925 0.32277 -0.053156
v -0.34618 0.32277 -0.020232
v -0.35625 0.32277 -0.063228
v -0.33125 0.3 -0.010972
v -0.39843 0.3 0.0047655
v -0.41417 0.3 -0.062416
v -0.34699 0.3 -0.078153
v -0.068562 0.433 -0.38632
v -0.009681 0.433 -0.4114
v -0.043481 0.433 -0.32744
v 0.0154 0.433 -0.35252
v -0.052988 0.4 -0.30382
v -0.092176 0.4 -0.39583
v -0.00017464 0.4 -0.43501
v 0.039014 0.4 -0.34301
v 0.29239 0.133 -0.13177
v 0.30864 0.133 -0.069869
v 0.23049 0.133 -0.11553
v 0.24674 0.133 -0.053623
v 0.20851 0.1 -0.12837
v 0.30523 0.1 -0.15375
v 0.33062 0.1 -0.057028
v 0.23389 0.1 -0.031643
v -0.11124 0.42277 -0.22438
v -0.08107 0.42277 -0.25663
v -0.078997 0.42277 -0.19421
v -0.048825 0.42277 -0.22645
v -0.078414 0.4 -0.17665
v -0.1288 0.4 -0.2238
v -0.081653 0.4 -0.27418
v -0.03127 0.4 -0.22704
v -0.16613 0.45 0.36935
v -0.15 0.30937 0.45
v -0.19334 0.45 0.46445
v -0.475 0.45 0.225
v -0.45 0.35038 0.15
v -0.38159 0.45 0.16368
v -0.15 0 0.45
v -0.2 0 0.2
v -0.3 0 0.5
v -0.45 0 0.15
v -0.45 0 0.45
v -0.5 0 0.3
v -0.2 0.45 0.2
v -0.5 0.45 0.3
v -0.45 0.45 0.45
v -0.3 0.45 0.5
v 0 0.3 1.49e-09
v -0.2 0.3 0.2
v -0.2 0.3 -0.2
v -0.45 0.3 -0.15
v -0.45 0.3 0.15
v -0.5 0.3 -0.1
v -0.5 0.3 0.1
v -0.2 0 -0.2
v -0.2 0 0.2
v -0.45 0 -0.15
v -0.45 0 0.15
v -0.5 0 -0.1
v -0.5 0 0.1
v 0.47402 0.3 -0.22205
v 0.45 0.15 -0.15
v 0.37553 0.3 -0.16489
v 0.5 0.3 -0.3
v 0.45 0.3 -0.45
v 0.3 0.3 -0.5
v 0.2 0.3 -0.2
v 0.15 0.3 -0.45
v 0.5 0 -0.3
v 0.45 0 -0.45
v 0.45 0 -0.15
v 0.3 0 -0.5
v 0.2 0 -0.2
v 0.15 0 -0.45
v 0.175 0.15 0.325
v 0.15854 0.2 0.40728
v 0.11658 0.2 0.32015
v 0.1875 0.2 0.2625
v 0.2 0 0.2
v -1.2879e-14 0 0
v 0.15 0 0.45
v 0.1 0 0.5
v -0.1 0 0.5
v -0.2 0 0.2
v -0.15 0 0.45
v -1.2879e-14 0.2 0
v 0.2 0.2 0.2
v -0.2 0.2 0.2
v -0.15 0.2 0.45
v -0.1 0.2 0.5
v 0.1 0.2 0.5
v 0.15 0.2 0.45
vn -0.078032 0.67526 0.73345
vn 0 -1 0
vn -0.98058 0 -0.19612
vn 0.98058 0 -0.19612
vn 0.70711 0 -0.70711
vn 0 0 -1
vn -0.70711 0 -0.70711
vn -0.70711 0 0.70711
vn 0.70711 0 0.70711
vn 0 1 0
vn 0.68979 0.57134 -0.4447
vn 0.19612 0 0.98058
vn 0.98058 0 0.19612
vn 0.31623 0 -0.94868
vn -0.31623 0 -0.94868
vn -0.94868 0 -0.31623
vn -0.94868 0 0.31623
vn 0.19612 0 -0.98058
vn 1 0 0
vn 0.25022 0.81345 0.52507
vn -0.52507 0.81345 0.25022
vn 0.52507 0.81345 -0.25022
vn -0.25022 0.81345 -0.52507
vn 0.71478 0.61078 -0.34063
vn 0.34063 0.61078 0.71478
vn -0.71478 0.61078 0.34063
vn -0.34063 0.61078 -0.71478
vn -0.30663 0.81345 0.49425
vn -0.49425 0.81345 -0.30663
vn 0.49425 0.81345 0.30663
vn 0.30663 0.81345 -0.49425
vn 0.67283 0.61078 0.41743
vn -0.41743 0.61078 0.67283
vn -0.67283 0.61078 -0.41743
vn 0.41743 0.61078 -0.67283
vn -0.53956 0.81345 -0.21721
vn 0.21721 0.81345 -0.53956
vn -0.21721 0.81345 0.53956
vn 0.53956 0.81345 0.21721
vn -0.29569 0.61078 0.73451
vn -0.73451 0.61078 -0.29569
vn 0.29569 0.61078 -0.73451
vn 0.73451 0.61078 0.29569
vn 0.2934 0.81345 -0.50221
vn 0.50221 0.81345 0.2934
vn -0.50221 0.81345 -0.2934
vn -0.2934 0.81345 0.50221
vn -0.68367 0.61078 -0.39942
vn 0.39942 0.61078 -0.68367
vn 0.68367 0.61078 0.39942
vn -0.39942 0.61078 0.68367
vn -0.58132 0.81345 0.019311
vn -0.019311 0.81345 -0.58132
vn 0.019311 0.81345 0.58132
vn 0.58132 0.81345 -0.019311
vn 0.026289 0.61078 0.79136
vn -0.79136 0.61078 0.026289
vn -0.026289 0.61078 -0.79136
vn 0.79136 0.61078 -0.026289
vn 0.92865 0.25888 0.26569
vn -0.49249 0.4412 -0.7502
vn -0.31623 0 0.94868
vn 0.31623 0 0.94868
vn -0.19612 0 -0.98058
vn -1 0 0
vn -0.19612 0 0.98058
vn 0.47592 0.31772 0.8201
vn -0.98058 0 0.19612
vn 0.94868 0 0.31623
vn 0.94868 0 -0.31623
vn 0.63015 0.7542 0.18468
vn 0.63367 0.71084 -0.30523
vn 0.63929 0.75896 0.12362
vn 0.48963 0.63047 0.6023
vn 0 0 1
vt 0.09375 0.225
vt 0.09375 0.19235
vt 0.09375 0.025
vt 0.09375 0.21363
vt 0.09375 0.145
vt 0.09375 0.105
vt 0.09375 0.08
vt 0.09375 0.08729
vt 0.09375 0.175
vt 0.09375 0.075
vt 0.09375 0.125
vt 0.09375 0.15
usemtl colormap
f 3/1/1 2/2/1 1/1/1
f 6/3/2 5/3/2 4/3/2
f 5/3/2 6/3/2 7/3/2
f 7/3/2 6/3/2 8/3/2
f 8/3/2 6/3/2 9/3/2
f 8/3/2 9/3/2 10/3/2
f 9/3/3 11/1/3 10/3/3
f 11/1/3 9/3/3 12/1/3
f 14/1/4 5/3/4 13/1/4
f 5/3/4 14/1/4 4/3/4
f 13/1/5 7/3/5 15/1/5
f 7/3/5 13/1/5 5/3/5
f 16/1/6 7/3/6 8/3/6
f 7/3/6 16/1/6 15/1/6
f 11/1/7 8/3/7 10/3/7
f 8/3/7 11/1/7 16/1/7
f 6/3/8 12/1/8 9/3/8
f 12/1/8 6/3/8 3/1/8
f 3/1/8 6/3/8 2/2/8
f 14/1/9 6/3/9 4/3/9
f 6/3/9 14/1/9 2/2/9
f 2/2/9 14/1/9 1/1/9
f 13/1/10 1/1/10 14/1/10
f 1/1/10 13/1/10 15/1/10
f 1/1/10 15/1/10 16/1/10
f 1/1/10 16/1/10 3/1/10
f 3/1/10 16/1/10 12/1/10
f 12/1/10 16/1/10 11/1/10
f 19/1/11 18/4/11 17/1/11
f 17/1/10 20/1/10 19/1/10
f 20/1/10 17/1/10 21/1/10
f 21/1/10 17/1/10 22/1/10
f 21/1/10 22/1/10 23/1/10
f 21/1/10 23/1/10 24/1/10
f 27/5/2 26/5/2 25/5/2
f 26/5/2 27/5/2 28/5/2
f 26/5/2 28/5/2 29/5/2
f 29/5/2 28/5/2 30/5/2
f 20/1/12 28/5/12 27/5/12
f 28/5/12 20/1/12 21/1/12
f 19/1/13 25/5/13 18/4/13
f 25/5/13 19/1/13 27/5/13
f 27/5/13 19/1/13 20/1/13
f 22/1/14 25/5/14 26/5/14
f 25/5/14 22/1/14 18/4/14
f 18/4/14 22/1/14 17/1/14
f 23/1/15 26/5/15 29/5/15
f 26/5/15 23/1/15 22/1/15
f 30/5/16 23/1/16 29/5/16
f 23/1/16 30/5/16 24/1/16
f 28/5/17 24/1/17 30/5/17
f 24/1/17 28/5/17 21/1/17
f 33/1/10 32/1/10 31/1/10
f 32/1/10 33/1/10 34/1/10
f 34/1/10 33/1/10 35/1/10
f 34/1/10 35/1/10 36/1/10
f 36/1/10 35/1/10 37/1/10
f 40/5/2 39/5/2 38/5/2
f 39/5/2 40/5/2 41/5/2
f 39/5/2 41/5/2 42/5/2
f 42/5/2 41/5/2 43/5/2
f 42/5/2 43/5/2 44/5/2
f 35/1/18 39/5/18 42/5/18
f 39/5/18 35/1/18 33/1/18
f 37/1/7 42/5/7 44/5/7
f 42/5/7 37/1/7 35/1/7
f 43/5/8 37/1/8 44/5/8
f 37/1/8 43/5/8 36/1/8
f 34/1/12 43/5/12 41/5/12
f 43/5/12 34/1/12 36/1/12
f 32/1/9 41/5/9 40/5/9
f 41/5/9 32/1/9 34/1/9
f 32/1/19 38/5/19 31/1/19
f 38/5/19 32/1/19 40/5/19
f 31/1/5 39/5/5 33/1/5
f 39/5/5 31/1/5 38/5/5
f 47/1/22 46/1/21 45/1/20
f 46/1/21 47/1/22 48/1/23
f 47/1/22 50/5/25 49/5/24
f 50/5/25 47/1/22 45/1/20
f 46/1/21 52/5/27 51/5/26
f 52/5/27 46/1/21 48/1/23
f 52/5/27 47/1/22 49/5/24
f 47/1/22 52/5/27 48/1/23
f 45/1/20 51/5/26 50/5/25
f 51/5/26 45/1/20 46/1/21
f 55/1/30 54/1/29 53/1/28
f 54/1/29 55/1/30 56/1/31
f 55/1/30 58/5/33 57/5/32
f 58/5/33 55/1/30 53/1/28
f 54/1/29 60/5/35 59/5/34
f 60/5/35 54/1/29 56/1/31
f 60/5/35 55/1/30 57/5/32
f 55/1/30 60/5/35 56/1/31
f 53/1/28 59/5/34 58/5/33
f 59/5/34 53/1/28 54/1/29
f 63/1/38 62/1/37 61/1/36
f 62/1/37 63/1/38 64/1/39
f 63/1/38 66/5/41 65/5/40
f 66/5/41 63/1/38 61/1/36
f 62/1/37 68/5/43 67/5/42
f 68/5/43 62/1/37 64/1/39
f 68/5/43 63/1/38 65/5/40
f 63/1/38 68/5/43 64/1/39
f 61/1/36 67/5/42 66/5/41
f 67/5/42 61/1/36 62/1/37
f 71/1/46 70/1/45 69/1/44
f 70/1/45 71/1/46 72/1/47
f 71/1/46 74/5/49 73/5/48
f 74/5/49 71/1/46 69/1/44
f 70/1/45 76/5/51 75/5/50
f 76/5/51 70/1/45 72/1/47
f 76/5/51 71/1/46 73/5/48
f 71/1/46 76/5/51 72/1/47
f 69/1/44 75/5/50 74/5/49
f 75/5/50 69/1/44 70/1/45
f 79/1/54 78/1/53 77/1/52
f 78/1/53 79/1/54 80/1/55
f 79/1/54 82/5/57 81/5/56
f 82/5/57 79/1/54 77/1/52
f 78/1/53 84/5/59 83/5/58
f 84/5/59 78/1/53 80/1/55
f 84/5/59 79/1/54 81/5/56
f 79/1/54 84/5/59 80/1/55
f 77/1/52 83/5/58 82/5/57
f 83/5/58 77/1/52 78/1/53
f 87/6/60 86/7/60 85/6/60
f 90/6/61 89/8/61 88/6/61
f 93/3/2 92/3/2 91/3/2
f 92/3/2 93/3/2 94/3/2
f 94/3/2 93/3/2 95/3/2
f 94/3/2 95/3/2 96/3/2
f 85/6/4 92/3/4 97/6/4
f 92/3/4 85/6/4 91/3/4
f 91/3/4 85/6/4 86/7/4
f 95/3/17 98/6/17 96/3/17
f 98/6/17 95/3/17 99/6/17
f 100/6/62 95/3/62 93/3/62
f 95/3/62 100/6/62 99/6/62
f 86/7/63 93/3/63 91/3/63
f 93/3/63 86/7/63 100/6/63
f 100/6/63 86/7/63 87/6/63
f 89/8/18 92/3/18 94/3/18
f 92/3/18 89/8/18 97/6/18
f 97/6/18 89/8/18 90/6/18
f 96/3/16 89/8/16 94/3/16
f 89/8/16 96/3/16 88/6/16
f 88/6/16 96/3/16 98/6/16
f 97/6/10 87/6/10 85/6/10
f 87/6/10 97/6/10 100/6/10
f 100/6/10 97/6/10 90/6/10
f 100/6/10 90/6/10 99/6/10
f 99/6/10 90/6/10 88/6/10
f 99/6/10 88/6/10 98/6/10
f 103/9/10 102/9/10 101/9/10
f 102/9/10 103/9/10 104/9/10
f 102/9/10 104/9/10 105/9/10
f 105/9/10 104/9/10 106/9/10
f 105/9/10 106/9/10 107/9/10
f 109/10/2 108/10/2 44/10/2
f 108/10/2 109/10/2 110/10/2
f 110/10/2 109/10/2 111/10/2
f 110/10/2 111/10/2 112/10/2
f 112/10/2 111/10/2 113/10/2
f 101/9/9 109/10/9 44/10/9
f 109/10/9 101/9/9 102/9/9
f 101/9/5 108/10/5 103/9/5
f 108/10/5 101/9/5 44/10/5
f 104/9/64 108/10/64 110/10/64
f 108/10/64 104/9/64 103/9/64
f 106/9/7 110/10/7 112/10/7
f 110/10/7 106/9/7 104/9/7
f 113/10/65 106/9/65 112/10/65
f 106/9/65 113/10/65 107/9/65
f 111/10/8 107/9/8 113/10/8
f 107/9/8 111/10/8 105/9/8
f 102/9/66 111/10/66 109/10/66
f 111/10/66 102/9/66 105/9/66
f 116/9/67 115/11/67 114/9/67
f 118/9/10 114/9/10 117/9/10
f 114/9/10 118/9/10 116/9/10
f 116/9/10 118/9/10 119/9/10
f 116/9/10 119/9/10 120/9/10
f 120/9/10 119/9/10 121/9/10
f 124/10/2 123/10/2 122/10/2
f 123/10/2 124/10/2 125/10/2
f 125/10/2 124/10/2 126/10/2
f 125/10/2 126/10/2 127/10/2
f 126/10/68 121/9/68 127/10/68
f 121/9/68 126/10/68 120/9/68
f 115/11/66 126/10/66 124/10/66
f 126/10/66 115/11/66 120/9/66
f 120/9/66 115/11/66 116/9/66
f 114/9/69 122/10/69 117/9/69
f 122/10/69 114/9/69 124/10/69
f 124/10/69 114/9/69 115/11/69
f 117/9/70 123/10/70 118/9/70
f 123/10/70 117/9/70 122/10/70
f 119/9/14 123/10/14 125/10/14
f 123/10/14 119/9/14 118/9/14
f 121/9/15 125/10/15 127/10/15
f 125/10/15 121/9/15 119/9/15
f 130/9/73 129/9/72 128/12/71
f 130/9/73 128/12/71 131/9/74
f 134/10/2 133/10/2 132/10/2
f 133/10/2 134/10/2 135/10/2
f 133/10/2 135/10/2 136/10/2
f 133/10/2 136/10/2 137/10/2
f 137/10/2 136/10/2 138/10/2
f 140/9/5 133/10/5 139/9/5
f 133/10/5 140/9/5 132/10/5
f 141/9/7 133/10/7 137/10/7
f 133/10/7 141/9/7 139/9/7
f 138/10/68 141/9/68 137/10/68
f 141/9/68 138/10/68 142/9/68
f 136/10/8 142/9/8 138/10/8
f 142/9/8 136/10/8 143/9/8
f 144/9/75 136/10/75 135/10/75
f 136/10/75 144/9/75 143/9/75
f 145/9/9 135/10/9 134/10/9
f 135/10/9 145/9/9 144/9/9
f 139/9/10 131/9/10 140/9/10
f 131/9/10 139/9/10 130/9/10
f 130/9/10 139/9/10 144/9/10
f 145/9/10 130/9/10 144/9/10
f 130/9/10 145/9/10 129/9/10
f 144/9/10 139/9/10 143/9/10
f 143/9/10 139/9/10 141/9/10
f 143/9/10 141/9/10 142/9/10
f 131/9/13 132/10/13 140/9/13
f 132/10/13 131/9/13 134/10/13
f 134/10/13 131/9/13 128/12/13
f 134/10/13 128/12/13 129/9/13
f 134/10/13 129/9/13 145/9/13
g rocks-ramp
usemtl colormap
f 3/1/1 2/2/1 1/1/1
f 6/3/2 5/3/2 4/3/2
f 5/3/2 6/3/2 7/3/2
f 7/3/2 6/3/2 8/3/2
f 8/3/2 6/3/2 9/3/2
f 8/3/2 9/3/2 10/3/2
f 9/3/3 11/1/3 10/3/3
f 11/1/3 9/3/3 12/1/3
f 14/1/4 5/3/4 13/1/4
f 5/3/4 14/1/4 4/3/4
f 13/1/5 7/3/5 15/1/5
f 7/3/5 13/1/5 5/3/5
f 16/1/6 7/3/6 8/3/6
f 7/3/6 16/1/6 15/1/6
f 11/1/7 8/3/7 10/3/7
f 8/3/7 11/1/7 16/1/7
f 6/3/8 12/1/8 9/3/8
f 12/1/8 6/3/8 3/1/8
f 3/1/8 6/3/8 2/2/8
f 14/1/9 6/3/9 4/3/9
f 6/3/9 14/1/9 2/2/9
f 2/2/9 14/1/9 1/1/9
f 13/1/10 1/1/10 14/1/10
f 1/1/10 13/1/10 15/1/10
f 1/1/10 15/1/10 16/1/10
f 1/1/10 16/1/10 3/1/10
f 3/1/10 16/1/10 12/1/10
f 12/1/10 16/1/10 11/1/10
f 19/1/11 18/4/11 17/1/11
f 17/1/10 20/1/10 19/1/10
f 20/1/10 17/1/10 21/1/10
f 21/1/10 17/1/10 22/1/10
f 21/1/10 22/1/10 23/1/10
f 21/1/10 23/1/10 24/1/10
f 27/5/2 26/5/2 25/5/2
f 26/5/2 27/5/2 28/5/2
f 26/5/2 28/5/2 29/5/2
f 29/5/2 28/5/2 30/5/2
f 20/1/12 28/5/12 27/5/12
f 28/5/12 20/1/12 21/1/12
f 19/1/13 25/5/13 18/4/13
f 25/5/13 19/1/13 27/5/13
f 27/5/13 19/1/13 20/1/13
f 22/1/14 25/5/14 26/5/14
f 25/5/14 22/1/14 18/4/14
f 18/4/14 22/1/14 17/1/14
f 23/1/15 26/5/15 29/5/15
f 26/5/15 23/1/15 22/1/15
f 30/5/16 23/1/16 29/5/16
f 23/1/16 30/5/16 24/1/16
f 28/5/17 24/1/17 30/5/17
f 24/1/17 28/5/17 21/1/17
f 33/1/10 32/1/10 31/1/10
f 32/1/10 33/1/10 34/1/10
f 34/1/10 33/1/10 35/1/10
f 34/1/10 35/1/10 36/1/10
f 36/1/10 35/1/10 37/1/10
f 40/5/2 39/5/2 38/5/2
f 39/5/2 40/5/2 41/5/2
f 39/5/2 41/5/2 42/5/2
f 42/5/2 41/5/2 43/5/2
f 42/5/2 43/5/2 44/5/2
f 35/1/18 39/5/18 42/5/18
f 39/5/18 35/1/18 33/1/18
f 37/1/7 42/5/7 44/5/7
f 42/5/7 37/1/7 35/1/7
f 43/5/8 37/1/8 44/5/8
f 37/1/8 43/5/8 36/1/8
f 34/1/12 43/5/12 41/5/12
f 43/5/12 34/1/12 36/1/12
f 32/1/9 41/5/9 40/5/9
f 41/5/9 32/1/9 34/1/9
f 32/1/19 38/5/19 31/1/19
f 38/5/19 32/1/19 40/5/19
f 31/1/5 39/5/5 33/1/5
f 39/5/5 31/1/5 38/5/5
f 47/1/22 46/1/21 45/1/20
f 46/1/21 47/1/22 48/1/23
f 47/1/22 50/5/25 49/5/24
f 50/5/25 47/1/22 45/1/20
f 46/1/21 52/5/27 51/5/26
f 52/5/27 46/1/21 48/1/23
f 52/5/27 47/1/22 49/5/24
f 47/1/22 52/5/27 48/1/23
f 45/1/20 51/5/26 50/5/25
f 51/5/26 45/1/20 46/1/21
f 55/1/30 54/1/29 53/1/28
f 54/1/29 55/1/30 56/1/31
f 55/1/30 58/5/33 57/5/32
f 58/5/33 55/1/30 53/1/28
f 54/1/29 60/5/35 59/5/34
f 60/5/35 54/1/29 56/1/31
f 60/5/35 55/1/30 57/5/32
f 55/1/30 60/5/35 56/1/31
f 53/1/28 59/5/34 58/5/33
f 59/5/34 53/1/28 54/1/29
f 63/1/38 62/1/37 61/1/36
f 62/1/37 63/1/38 64/1/39
f 63/1/38 66/5/41 65/5/40
f 66/5/41 63/1/38 61/1/36
f 62/1/37 68/5/43 67/5/42
f 68/5/43 62/1/37 64/1/39
f 68/5/43 63/1/38 65/5/40
f 63/1/38 68/5/43 64/1/39
f 61/1/36 67/5/42 66/5/41
f 67/5/42 61/1/36 62/1/37
f 71/1/46 70/1/45 69/1/44
f 70/1/45 71/1/46 72/1/47
f 71/1/46 74/5/49 73/5/48
f 74/5/49 71/1/46 69/1/44
f 70/1/45 76/5/51 75/5/50
f 76/5/51 70/1/45 72/1/47
f 76/5/51 71/1/46 73/5/48
f 71/1/46 76/5/51 72/1/47
f 69/1/44 75/5/50 74/5/49
f 75/5/50 69/1/44 70/1/45
f 79/1/54 78/1/53 77/1/52
f 78/1/53 79/1/54 80/1/55
f 79/1/54 82/5/57 81/5/56
f 82/5/57 79/1/54 77/1/52
f 78/1/53 84/5/59 83/5/58
f 84/5/59 78/1/53 80/1/55
f 84/5/59 79/1/54 81/5/56
f 79/1/54 84/5/59 80/1/55
f 77/1/52 83/5/58 82/5/57
f 83/5/58 77/1/52 78/1/53
f 87/6/60 86/7/60 85/6/60
f 90/6/61 89/8/61 88/6/61
f 93/3/2 92/3/2 91/3/2
f 92/3/2 93/3/2 94/3/2
f 94/3/2 93/3/2 95/3/2
f 94/3/2 95/3/2 96/3/2
f 85/6/4 92/3/4 97/6/4
f 92/3/4 85/6/4 91/3/4
f 91/3/4 85/6/4 86/7/4
f 95/3/17 98/6/17 96/3/17
f 98/6/17 95/3/17 99/6/17
f 100/6/62 95/3/62 93/3/62
f 95/3/62 100/6/62 99/6/62
f 86/7/63 93/3/63 91/3/63
f 93/3/63 86/7/63 100/6/63
f 100/6/63 86/7/63 87/6/63
f 89/8/18 92/3/18 94/3/18
f 92/3/18 89/8/18 97/6/18
f 97/6/18 89/8/18 90/6/18
f 96/3/16 89/8/16 94/3/16
f 89/8/16 96/3/16 88/6/16
f 88/6/16 96/3/16 98/6/16
f 97/6/10 87/6/10 85/6/10
f 87/6/10 97/6/10 100/6/10
f 100/6/10 97/6/10 90/6/10
f 100/6/10 90/6/10 99/6/10
f 99/6/10 90/6/10 88/6/10
f 99/6/10 88/6/10 98/6/10
f 103/9/10 102/9/10 101/9/10
f 102/9/10 103/9/10 104/9/10
f 102/9/10 104/9/10 105/9/10
f 105/9/10 104/9/10 106/9/10
f 105/9/10 106/9/10 107/9/10
f 109/10/2 108/10/2 44/10/2
f 108/10/2 109/10/2 110/10/2
f 110/10/2 109/10/2 111/10/2
f 110/10/2 111/10/2 112/10/2
f 112/10/2 111/10/2 113/10/2
f 101/9/9 109/10/9 44/10/9
f 109/10/9 101/9/9 102/9/9
f 101/9/5 108/10/5 103/9/5
f 108/10/5 101/9/5 44/10/5
f 104/9/64 108/10/64 110/10/64
f 108/10/64 104/9/64 103/9/64
f 106/9/7 110/10/7 112/10/7
f 110/10/7 106/9/7 104/9/7
f 113/10/65 106/9/65 112/10/65
f 106/9/65 113/10/65 107/9/65
f 111/10/8 107/9/8 113/10/8
f 107/9/8 111/10/8 105/9/8
f 102/9/66 111/10/66 109/10/66
f 111/10/66 102/9/66 105/9/66
f 116/9/67 115/11/67 114/9/67
f 118/9/10 114/9/10 117/9/10
f 114/9/10 118/9/10 116/9/10
f 116/9/10 118/9/10 119/9/10
f 116/9/10 119/9/10 120/9/10
f 120/9/10 119/9/10 121/9/10
f 124/10/2 123/10/2 122/10/2
f 123/10/2 124/10/2 125/10/2
f 125/10/2 124/10/2 126/10/2
f 125/10/2 126/10/2 127/10/2
f 126/10/68 121/9/68 127/10/68
f 121/9/68 126/10/68 120/9/68
f 115/11/66 126/10/66 124/10/66
f 126/10/66 115/11/66 120/9/66
f 120/9/66 115/11/66 116/9/66
f 114/9/69 122/10/69 117/9/69
f 122/10/69 114/9/69 124/10/69
f 124/10/69 114/9/69 115/11/69
f 117/9/70 123/10/70 118/9/70
f 123/10/70 117/9/70 122/10/70
f 119/9/14 123/10/14 125/10/14
f 123/10/14 119/9/14 118/9/14
f 121/9/15 125/10/15 127/10/15
f 125/10/15 121/9/15 119/9/15
f 130/9/73 129/9/72 128/12/71
f 130/9/73 128/12/71 131/9/74
f 134/10/2 133/10/2 132/10/2
f 133/10/2 134/10/2 135/10/2
f 133/10/2 135/10/2 136/10/2
f 133/10/2 136/10/2 137/10/2
f 137/10/2 136/10/2 138/10/2
f 140/9/5 133/10/5 139/9/5
f 133/10/5 140/9/5 132/10/5
f 141/9/7 133/10/7 137/10/7
f 133/10/7 141/9/7 139/9/7
f 138/10/68 141/9/68 137/10/68
f 141/9/68 138/10/68 142/9/68
f 136/10/8 142/9/8 138/10/8
f 142/9/8 136/10/8 143/9/8
f 144/9/75 136/10/75 135/10/75
f 136/10/75 144/9/75 143/9/75
f 145/9/9 135/10/9 134/10/9
f 135/10/9 145/9/9 144/9/9
f 139/9/10 131/9/10 140/9/10
f 131/9/10 139/9/10 130/9/10
f 130/9/10 139/9/10 144/9/10
f 145/9/10 130/9/10 144/9/10
f 130/9/10 145/9/10 129/9/10
f 144/9/10 139/9/10 143/9/10
f 143/9/10 139/9/10 141/9/10
f 143/9/10 141/9/10 142/9/10
f 131/9/13 132/10/13 140/9/13
f 132/10/13 131/9/13 134/10/13
f 134/10/13 131/9/13 128/12/13
f 134/10/13 128/12/13 129/9/13
f 134/10/13 129/9/13 145/9/13
