mtllib forest_ladder.mtl
g ladder
v -0.24426 0.32483 0.025
v -0.25243 0.39547 0.025
v -0.24426 0.32483 0.075
v -0.25243 0.39547 0.075
v -0.25 0.57556 0.025
v -0.25 0.64667 0.025
v -0.25 0.57556 0.075
v -0.25 0.64667 0.075
v -0.25 0.13111 0.025
v -0.25 0.20222 0.025
v -0.25 0.13111 0.075
v -0.25 0.20222 0.075
v -0.25224 0.82146 0.025
v -0.24554 0.89226 0.025
v -0.25224 0.82146 0.075
v -0.24554 0.89226 0.075
v 0.25224 0.8452 0.025
v 0.24554 0.77441 0.025
v 0.25224 0.8452 0.075
v 0.24554 0.77441 0.075
v 0.22375 0.75638 0.075
v 0.22375 0.75638 0.025
v -0.23421 0.79967 0.075
v -0.23421 0.79967 0.025
v 0.23421 0.867 0.025
v 0.23421 0.867 0.075
v -0.22375 0.91029 0.025
v -0.22375 0.91029 0.075
v 0.23 0.66667 0.025
v 0.23 0.66667 0.075
v -0.23 0.66667 0.025
v -0.23 0.66667 0.075
v 0.23 0.55556 0.075
v 0.23 0.55556 0.025
v -0.23 0.55556 0.075
v -0.23 0.55556 0.025
v 0.25 0.64667 0.025
v 0.25 0.57556 0.025
v 0.25 0.64667 0.075
v 0.25 0.57556 0.075
v 0.24426 0.45294 0.025
v 0.25243 0.3823 0.025
v 0.24426 0.45294 0.075
v 0.25243 0.3823 0.075
v 0.22209 0.47051 0.025
v 0.22209 0.47051 0.075
v -0.23486 0.41764 0.025
v -0.23486 0.41764 0.075
v 0.23486 0.36014 0.075
v 0.23486 0.36014 0.025
v -0.22209 0.30727 0.075
v -0.22209 0.30727 0.025
v 0.23 0.11111 0.075
v 0.23 0.11111 0.025
v -0.23 0.11111 0.075
v -0.23 0.11111 0.025
v 0.23 0.22222 0.025
v 0.23 0.22222 0.075
v -0.23 0.22222 0.025
v -0.23 0.22222 0.075
v 0.25 0.20222 0.025
v 0.25 0.13111 0.025
v 0.25 0.20222 0.075
v 0.25 0.13111 0.075
v -0.11 0 0.04
v -0.11 0 -0.04
v -0.19 0 0.04
v -0.19 0 -0.04
v -0.1 1 -0.05
v -0.1 1 0.05
v -0.2 1 -0.05
v -0.2 1 0.05
v 0.19 0 0.04
v 0.19 0 -0.04
v 0.11 0 0.04
v 0.11 0 -0.04
v 0.2 1 -0.05
v 0.2 1 0.05
v 0.1 1 -0.05
v 0.1 1 0.05
v 0.16354 0.77445 0.075
v 0.12818 0.80981 0.075
v 0.16354 0.78329 0.0875
v 0.13702 0.80981 0.0875
v 0.19889 0.80981 0.075
v 0.19005 0.80981 0.0875
v 0.16354 0.84516 0.075
v 0.16354 0.83632 0.0875
v 0.16464 0.57576 0.075
v 0.12929 0.61111 0.075
v 0.16464 0.58459 0.0875
v 0.13813 0.61111 0.0875
v 0.2 0.61111 0.075
v 0.19116 0.61111 0.0875
v 0.16464 0.64647 0.075
v 0.16464 0.63763 0.0875
v 0.16299 0.38227 0.075
v 0.12763 0.41762 0.075
v 0.16299 0.39111 0.0875
v 0.13647 0.41762 0.0875
v 0.19834 0.41762 0.075
v 0.1895 0.41762 0.0875
v 0.16299 0.45298 0.075
v 0.16299 0.44414 0.0875
v 0.16464 0.13131 0.075
v 0.12929 0.16667 0.075
v 0.16464 0.14015 0.0875
v 0.13813 0.16667 0.0875
v 0.2 0.16667 0.075
v 0.19116 0.16667 0.0875
v 0.16464 0.20202 0.075
v 0.16464 0.19318 0.0875
v -0.16354 0.82151 0.075
v -0.19889 0.85686 0.075
v -0.16354 0.83034 0.0875
v -0.19005 0.85686 0.0875
v -0.12818 0.85686 0.075
v -0.13702 0.85686 0.0875
v -0.16354 0.89222 0.075
v -0.16354 0.88338 0.0875
v -0.16464 0.57576 0.075
v -0.2 0.61111 0.075
v -0.16464 0.58459 0.0875
v -0.19116 0.61111 0.0875
v -0.12929 0.61111 0.075
v -0.13813 0.61111 0.0875
v -0.16464 0.64647 0.075
v -0.16464 0.63763 0.0875
v -0.16299 0.3248 0.075
v -0.19834 0.36015 0.075
v -0.16299 0.33364 0.0875
v -0.1895 0.36015 0.0875
v -0.12763 0.36015 0.075
v -0.13647 0.36015 0.0875
v -0.16299 0.39551 0.075
v -0.16299 0.38667 0.0875
v -0.16464 0.13131 0.075
v -0.2 0.16667 0.075
v -0.16464 0.14015 0.0875
v -0.19116 0.16667 0.0875
v -0.12929 0.16667 0.075
v -0.13813 0.16667 0.0875
v -0.16464 0.20202 0.075
v -0.16464 0.19318 0.0875
vn -0.67838 -0.37758 -0.63026
vn -0.74668 0.2127 -0.63026
vn -0.87377 -0.48634 0
vn -0.96174 0.27396 0
vn -0.71728 -0.29711 -0.63026
vn -0.71728 0.29711 -0.63026
vn -0.92388 -0.38268 0
vn -0.92388 0.38268 0
vn -0.74206 -0.22829 -0.63026
vn -0.68614 0.36329 -0.63026
vn -0.95579 -0.29404 0
vn -0.88377 0.46793 0
vn 0.74206 0.22829 -0.63026
vn 0.68614 -0.36329 -0.63026
vn 0.95579 0.29404 0
vn 0.88377 -0.46793 0
vn 0.29404 -0.95579 0
vn -0.46793 -0.88377 0
vn 0.46793 0.88377 0
vn -0.29404 0.95579 0
vn 0 0 1
vn 0 0 -1
vn 0.38268 0.92388 0
vn -0.38268 0.92388 0
vn 0.38268 -0.92388 0
vn -0.38268 -0.92388 0
vn 0.71728 0.29711 -0.63026
vn 0.71728 -0.29711 -0.63026
vn 0.92388 0.38268 0
vn 0.92388 -0.38268 0
vn 0.67838 0.37758 -0.63026
vn 0.74668 -0.2127 -0.63026
vn 0.87377 0.48634 0
vn 0.96174 -0.27396 0
vn 0.27396 0.96174 0
vn -0.48634 0.87377 0
vn 0.48634 -0.87377 0
vn -0.27396 -0.96174 0
vn 0 -1 0
vn 0 1 0
vn 0.70704 -0.014141 0.70704
vn -0.70704 -0.014141 0.70704
vn 0.70704 -0.014141 -0.70704
vn -0.70704 -0.014141 -0.70704
vn 0 -0.8165 0.57735
vn -0.8165 0 0.57735
vn 0 -0.45208 0.89198
vn -0.45208 0 0.89198
vn 0.8165 0 0.57735
vn 0.45208 0 0.89198
vn 0 0.8165 0.57735
vn 0 0.45208 0.89198
vt 0.96875 0.16639
vt 0.96875 0.17347
vt 0.96875 0.19149
vt 0.96875 0.19861
vt 0.96875 0.147
vt 0.96875 0.15412
vt 0.96875 0.21611
vt 0.96875 0.2232
vt 0.96875 0.21849
vt 0.96875 0.2114
vt 0.96875 0.20959
vt 0.96875 0.21393
vt 0.96875 0.22067
vt 0.96875 0.225
vt 0.96875 0.20061
vt 0.96875 0.18949
vt 0.96875 0.17922
vt 0.96875 0.17215
vt 0.96875 0.18098
vt 0.96875 0.17568
vt 0.96875 0.16993
vt 0.96875 0.16464
vt 0.96875 0.145
vt 0.96875 0.15612
vt 0.96875 0.025
vt 0.96875 0.105
vt 0.96875 0.065
vt 0.96875 0.035
vt 0.96875 0.095
usemtl colormap
f 3/1/3 2/2/2 1/1/1
f 2/2/2 3/1/3 4/2/4
f 7/3/7 6/4/6 5/3/5
f 6/4/6 7/3/7 8/4/8
f 11/5/7 10/6/6 9/5/5
f 10/6/6 11/5/7 12/6/8
f 15/7/11 14/8/10 13/7/9
f 14/8/10 15/7/11 16/8/12
f 19/9/15 18/10/14 17/9/13
f 18/10/14 19/9/15 20/10/16
f 23/12/18 22/11/17 21/11/17
f 22/11/17 23/12/18 24/12/18
f 27/14/20 26/13/19 25/13/19
f 26/13/19 27/14/20 28/14/20
f 21/11/17 18/10/14 20/10/16
f 18/10/14 21/11/17 22/11/17
f 26/13/19 17/9/13 25/13/19
f 17/9/13 26/13/19 19/9/15
f 14/8/10 28/14/20 27/14/20
f 28/14/20 14/8/10 16/8/12
f 23/12/18 13/7/9 24/12/18
f 13/7/9 23/12/18 15/7/11
f 20/10/21 23/12/21 21/11/21
f 23/12/21 20/10/21 19/9/21
f 23/12/21 19/9/21 15/7/21
f 15/7/21 19/9/21 16/8/21
f 16/8/21 19/9/21 26/13/21
f 16/8/21 26/13/21 28/14/21
f 24/12/22 18/10/14 22/11/22
f 18/10/14 24/12/22 17/9/13
f 17/9/13 24/12/22 13/7/9
f 17/9/13 13/7/9 14/8/10
f 17/9/13 14/8/10 25/13/22
f 25/13/22 14/8/10 27/14/22
f 31/15/24 30/15/23 29/15/23
f 30/15/23 31/15/24 32/15/24
f 35/16/26 34/16/25 33/16/25
f 34/16/25 35/16/26 36/16/26
f 39/4/29 38/3/28 37/4/27
f 38/3/28 39/4/29 40/3/30
f 6/4/6 32/15/24 31/15/24
f 32/15/24 6/4/6 8/4/8
f 35/16/26 5/3/5 36/16/26
f 5/3/5 35/16/26 7/3/7
f 33/16/25 38/3/28 40/3/30
f 38/3/28 33/16/25 34/16/25
f 30/15/23 37/4/27 29/15/23
f 37/4/27 30/15/23 39/4/29
f 40/3/21 35/16/21 33/16/21
f 35/16/21 40/3/21 7/3/21
f 7/3/21 40/3/21 39/4/21
f 7/3/21 39/4/21 8/4/21
f 8/4/21 39/4/21 30/15/21
f 8/4/21 30/15/21 32/15/21
f 36/16/22 38/3/28 34/16/22
f 38/3/28 36/16/22 5/3/5
f 38/3/28 5/3/5 37/4/27
f 37/4/27 5/3/5 6/4/6
f 37/4/27 6/4/6 29/15/22
f 29/15/22 6/4/6 31/15/22
f 43/17/33 42/18/32 41/17/31
f 42/18/32 43/17/33 44/18/34
f 47/20/36 46/19/35 45/19/35
f 46/19/35 47/20/36 48/20/36
f 51/22/38 50/21/37 49/21/37
f 50/21/37 51/22/38 52/22/38
f 44/18/34 50/21/37 42/18/32
f 50/21/37 44/18/34 49/21/37
f 45/19/35 43/17/33 41/17/31
f 43/17/33 45/19/35 46/19/35
f 4/2/4 47/20/36 2/2/2
f 47/20/36 4/2/4 48/20/36
f 3/1/3 52/22/38 51/22/38
f 52/22/38 3/1/3 1/1/1
f 1/1/1 50/21/22 52/22/22
f 50/21/22 1/1/1 2/2/2
f 50/21/22 2/2/2 42/18/32
f 42/18/32 2/2/2 41/17/31
f 41/17/31 2/2/2 47/20/22
f 41/17/31 47/20/22 45/19/22
f 49/21/21 3/1/21 51/22/21
f 3/1/21 49/21/21 4/2/21
f 4/2/21 49/21/21 44/18/21
f 4/2/21 44/18/21 43/17/21
f 4/2/21 43/17/21 48/20/21
f 48/20/21 43/17/21 46/19/21
f 55/23/26 54/23/25 53/23/25
f 54/23/25 55/23/26 56/23/26
f 59/24/24 58/24/23 57/24/23
f 58/24/23 59/24/24 60/24/24
f 63/6/29 62/5/28 61/6/27
f 62/5/28 63/6/29 64/5/30
f 10/6/6 60/24/24 59/24/24
f 60/24/24 10/6/6 12/6/8
f 55/23/26 9/5/5 56/23/26
f 9/5/5 55/23/26 11/5/7
f 53/23/25 62/5/28 64/5/30
f 62/5/28 53/23/25 54/23/25
f 58/24/23 61/6/27 57/24/23
f 61/6/27 58/24/23 63/6/29
f 64/5/21 55/23/21 53/23/21
f 55/23/21 64/5/21 11/5/21
f 11/5/21 64/5/21 63/6/21
f 11/5/21 63/6/21 12/6/21
f 12/6/21 63/6/21 58/24/21
f 12/6/21 58/24/21 60/24/21
f 56/23/22 62/5/28 54/23/22
f 62/5/28 56/23/22 9/5/5
f 62/5/28 9/5/5 61/6/27
f 61/6/27 9/5/5 10/6/6
f 61/6/27 10/6/6 57/24/22
f 57/24/22 10/6/6 59/24/22
f 67/25/39 66/25/39 65/25/39
f 66/25/39 67/25/39 68/25/39
f 71/26/40 70/26/40 69/26/40
f 70/26/40 71/26/40 72/26/40
f 70/26/41 67/25/42 65/25/41
f 67/25/42 70/26/41 72/26/42
f 70/26/41 66/25/43 69/26/43
f 66/25/43 70/26/41 65/25/41
f 71/26/44 66/25/43 68/25/44
f 66/25/43 71/26/44 69/26/43
f 68/25/44 72/26/42 71/26/44
f 72/26/42 68/25/44 67/25/42
f 75/25/39 74/25/39 73/25/39
f 74/25/39 75/25/39 76/25/39
f 79/26/40 78/26/40 77/26/40
f 78/26/40 79/26/40 80/26/40
f 78/26/41 74/25/43 77/26/43
f 74/25/43 78/26/41 73/25/41
f 79/26/44 74/25/43 76/25/44
f 74/25/43 79/26/44 77/26/43
f 76/25/44 80/26/42 79/26/44
f 80/26/42 76/25/44 75/25/42
f 78/26/41 75/25/42 73/25/41
f 75/25/42 78/26/41 80/26/42
f 83/28/47 82/27/46 81/25/45
f 82/27/46 83/28/47 84/27/48
f 86/27/50 81/25/45 85/27/49
f 81/25/45 86/27/50 83/28/47
f 87/26/51 86/27/50 85/27/49
f 86/27/50 87/26/51 88/29/52
f 84/27/48 87/26/51 82/27/46
f 87/26/51 84/27/48 88/29/52
f 86/27/50 84/27/48 83/28/47
f 84/27/48 86/27/50 88/29/52
f 91/28/47 90/27/46 89/25/45
f 90/27/46 91/28/47 92/27/48
f 94/27/50 89/25/45 93/27/49
f 89/25/45 94/27/50 91/28/47
f 95/26/51 94/27/50 93/27/49
f 94/27/50 95/26/51 96/29/52
f 92/27/48 95/26/51 90/27/46
f 95/26/51 92/27/48 96/29/52
f 94/27/50 92/27/48 91/28/47
f 92/27/48 94/27/50 96/29/52
f 99/28/47 98/27/46 97/25/45
f 98/27/46 99/28/47 100/27/48
f 102/27/50 97/25/45 101/27/49
f 97/25/45 102/27/50 99/28/47
f 103/26/51 102/27/50 101/27/49
f 102/27/50 103/26/51 104/29/52
f 100/27/48 103/26/51 98/27/46
f 103/26/51 100/27/48 104/29/52
f 102/27/50 100/27/48 99/28/47
f 100/27/48 102/27/50 104/29/52
f 107/28/47 106/27/46 105/25/45
f 106/27/46 107/28/47 108/27/48
f 110/27/50 105/25/45 109/27/49
f 105/25/45 110/27/50 107/28/47
f 111/26/51 110/27/50 109/27/49
f 110/27/50 111/26/51 112/29/52
f 108/27/48 111/26/51 106/27/46
f 111/26/51 108/27/48 112/29/52
f 110/27/50 108/27/48 107/28/47
f 108/27/48 110/27/50 112/29/52
f 115/28/47 114/27/46 113/25/45
f 114/27/46 115/28/47 116/27/48
f 118/27/50 113/25/45 117/27/49
f 113/25/45 118/27/50 115/28/47
f 119/26/51 118/27/50 117/27/49
f 118/27/50 119/26/51 120/29/52
f 116/27/48 119/26/51 114/27/46
f 119/26/51 116/27/48 120/29/52
f 118/27/50 116/27/48 115/28/47
f 116/27/48 118/27/50 120/29/52
f 123/28/47 122/27/46 121/25/45
f 122/27/46 123/28/47 124/27/48
f 126/27/50 121/25/45 125/27/49
f 121/25/45 126/27/50 123/28/47
f 127/26/51 126/27/50 125/27/49
f 126/27/50 127/26/51 128/29/52
f 124/27/48 127/26/51 122/27/46
f 127/26/51 124/27/48 128/29/52
f 126/27/50 124/27/48 123/28/47
f 124/27/48 126/27/50 128/29/52
f 131/28/47 130/27/46 129/25/45
f 130/27/46 131/28/47 132/27/48
f 134/27/50 129/25/45 133/27/49
f 129/25/45 134/27/50 131/28/47
f 135/26/51 134/27/50 133/27/49
f 134/27/50 135/26/51 136/29/52
f 132/27/48 135/26/51 130/27/46
f 135/26/51 132/27/48 136/29/52
f 134/27/50 132/27/48 131/28/47
f 132/27/48 134/27/50 136/29/52
f 139/28/47 138/27/46 137/25/45
f 138/27/46 139/28/47 140/27/48
f 142/27/50 137/25/45 141/27/49
f 137/25/45 142/27/50 139/28/47
f 143/26/51 142/27/50 141/27/49
f 142/27/50 143/26/51 144/29/52
f 140/27/48 143/26/51 138/27/46
f 143/26/51 140/27/48 144/29/52
f 142/27/50 140/27/48 139/28/47
f 140/27/48 142/27/50 144/29/52
g ladder
usemtl colormap
f 3/1/3 2/2/2 1/1/1
f 2/2/2 3/1/3 4/2/4
f 7/3/7 6/4/6 5/3/5
f 6/4/6 7/3/7 8/4/8
f 11/5/7 10/6/6 9/5/5
f 10/6/6 11/5/7 12/6/8
f 15/7/11 14/8/10 13/7/9
f 14/8/10 15/7/11 16/8/12
f 19/9/15 18/10/14 17/9/13
f 18/10/14 19/9/15 20/10/16
f 23/12/18 22/11/17 21/11/17
f 22/11/17 23/12/18 24/12/18
f 27/14/20 26/13/19 25/13/19
f 26/13/19 27/14/20 28/14/20
f 21/11/17 18/10/14 20/10/16
f 18/10/14 21/11/17 22/11/17
f 26/13/19 17/9/13 25/13/19
f 17/9/13 26/13/19 19/9/15
f 14/8/10 28/14/20 27/14/20
f 28/14/20 14/8/10 16/8/12
f 23/12/18 13/7/9 24/12/18
f 13/7/9 23/12/18 15/7/11
f 20/10/21 23/12/21 21/11/21
f 23/12/21 20/10/21 19/9/21
f 23/12/21 19/9/21 15/7/21
f 15/7/21 19/9/21 16/8/21
f 16/8/21 19/9/21 26/13/21
f 16/8/21 26/13/21 28/14/21
f 24/12/22 18/10/14 22/11/22
f 18/10/14 24/12/22 17/9/13
f 17/9/13 24/12/22 13/7/9
f 17/9/13 13/7/9 14/8/10
f 17/9/13 14/8/10 25/13/22
f 25/13/22 14/8/10 27/14/22
f 31/15/24 30/15/23 29/15/23
f 30/15/23 31/15/24 32/15/24
f 35/16/26 34/16/25 33/16/25
f 34/16/25 35/16/26 36/16/26
f 39/4/29 38/3/28 37/4/27
f 38/3/28 39/4/29 40/3/30
f 6/4/6 32/15/24 31/15/24
f 32/15/24 6/4/6 8/4/8
f 35/16/26 5/3/5 36/16/26
f 5/3/5 35/16/26 7/3/7
f 33/16/25 38/3/28 40/3/30
f 38/3/28 33/16/25 34/16/25
f 30/15/23 37/4/27 29/15/23
f 37/4/27 30/15/23 39/4/29
f 40/3/21 35/16/21 33/16/21
f 35/16/21 40/3/21 7/3/21
f 7/3/21 40/3/21 39/4/21
f 7/3/21 39/4/21 8/4/21
f 8/4/21 39/4/21 30/15/21
f 8/4/21 30/15/21 32/15/21
f 36/16/22 38/3/28 34/16/22
f 38/3/28 36/16/22 5/3/5
f 38/3/28 5/3/5 37/4/27
f 37/4/27 5/3/5 6/4/6
f 37/4/27 6/4/6 29/15/22
f 29/15/22 6/4/6 31/15/22
f 43/17/33 42/18/32 41/17/31
f 42/18/32 43/17/33 44/18/34
f 47/20/36 46/19/35 45/19/35
f 46/19/35 47/20/36 48/20/36
f 51/22/38 50/21/37 49/21/37
f 50/21/37 51/22/38 52/22/38
f 44/18/34 50/21/37 42/18/32
f 50/21/37 44/18/34 49/21/37
f 45/19/35 43/17/33 41/17/31
f 43/17/33 45/19/35 46/19/35
f 4/2/4 47/20/36 2/2/2
f 47/20/36 4/2/4 48/20/36
f 3/1/3 52/22/38 51/22/38
f 52/22/38 3/1/3 1/1/1
f 1/1/1 50/21/22 52/22/22
f 50/21/22 1/1/1 2/2/2
f 50/21/22 2/2/2 42/18/32
f 42/18/32 2/2/2 41/17/31
f 41/17/31 2/2/2 47/20/22
f 41/17/31 47/20/22 45/19/22
f 49/21/21 3/1/21 51/22/21
f 3/1/21 49/21/21 4/2/21
f 4/2/21 49/21/21 44/18/21
f 4/2/21 44/18/21 43/17/21
f 4/2/21 43/17/21 48/20/21
f 48/20/21 43/17/21 46/19/21
f 55/23/26 54/23/25 53/23/25
f 54/23/25 55/23/26 56/23/26
f 59/24/24 58/24/23 57/24/23
f 58/24/23 59/24/24 60/24/24
f 63/6/29 62/5/28 61/6/27
f 62/5/28 63/6/29 64/5/30
f 10/6/6 60/24/24 59/24/24
f 60/24/24 10/6/6 12/6/8
f 55/23/26 9/5/5 56/23/26
f 9/5/5 55/23/26 11/5/7
f 53/23/25 62/5/28 64/5/30
f 62/5/28 53/23/25 54/23/25
f 58/24/23 61/6/27 57/24/23
f 61/6/27 58/24/23 63/6/29
f 64/5/21 55/23/21 53/23/21
f 55/23/21 64/5/21 11/5/21
f 11/5/21 64/5/21 63/6/21
f 11/5/21 63/6/21 12/6/21
f 12/6/21 63/6/21 58/24/21
f 12/6/21 58/24/21 60/24/21
f 56/23/22 62/5/28 54/23/22
f 62/5/28 56/23/22 9/5/5
f 62/5/28 9/5/5 61/6/27
f 61/6/27 9/5/5 10/6/6
f 61/6/27 10/6/6 57/24/22
f 57/24/22 10/6/6 59/24/22
f 67/25/39 66/25/39 65/25/39
f 66/25/39 67/25/39 68/25/39
f 71/26/40 70/26/40 69/26/40
f 70/26/40 71/26/40 72/26/40
f 70/26/41 67/25/42 65/25/41
f 67/25/42 70/26/41 72/26/42
f 70/26/41 66/25/43 69/26/43
f 66/25/43 70/26/41 65/25/41
f 71/26/44 66/25/43 68/25/44
f 66/25/43 71/26/44 69/26/43
f 68/25/44 72/26/42 71/26/44
f 72/26/42 68/25/44 67/25/42
f 75/25/39 74/25/39 73/25/39
f 74/25/39 75/25/39 76/25/39
f 79/26/40 78/26/40 77/26/40
f 78/26/40 79/26/40 80/26/40
f 78/26/41 74/25/43 77/26/43
f 74/25/43 78/26/41 73/25/41
f 79/26/44 74/25/43 76/25/44
f 74/25/43 79/26/44 77/26/43
f 76/25/44 80/26/42 79/26/44
f 80/26/42 76/25/44 75/25/42
f 78/26/41 75/25/42 73/25/41
f 75/25/42 78/26/41 80/26/42
f 83/28/47 82/27/46 81/25/45
f 82/27/46 83/28/47 84/27/48
f 86/27/50 81/25/45 85/27/49
f 81/25/45 86/27/50 83/28/47
f 87/26/51 86/27/50 85/27/49
f 86/27/50 87/26/51 88/29/52
f 84/27/48 87/26/51 82/27/46
f 87/26/51 84/27/48 88/29/52
f 86/27/50 84/27/48 83/28/47
f 84/27/48 86/27/50 88/29/52
f 91/28/47 90/27/46 89/25/45
f 90/27/46 91/28/47 92/27/48
f 94/27/50 89/25/45 93/27/49
f 89/25/45 94/27/50 91/28/47
f 95/26/51 94/27/50 93/27/49
f 94/27/50 95/26/51 96/29/52
f 92/27/48 95/26/51 90/27/46
f 95/26/51 92/27/48 96/29/52
f 94/27/50 92/27/48 91/28/47
f 92/27/48 94/27/50 96/29/52
f 99/28/47 98/27/46 97/25/45
f 98/27/46 99/28/47 100/27/48
f 102/27/50 97/25/45 101/27/49
f 97/25/45 102/27/50 99/28/47
f 103/26/51 102/27/50 101/27/49
f 102/27/50 103/26/51 104/29/52
f 100/27/48 103/26/51 98/27/46
f 103/26/51 100/27/48 104/29/52
f 102/27/50 100/27/48 99/28/47
f 100/27/48 102/27/50 104/29/52
f 107/28/47 106/27/46 105/25/45
f 106/27/46 107/28/47 108/27/48
f 110/27/50 105/25/45 109/27/49
f 105/25/45 110/27/50 107/28/47
f 111/26/51 110/27/50 109/27/49
f 110/27/50 111/26/51 112/29/52
f 108/27/48 111/26/51 106/27/46
f 111/26/51 108/27/48 112/29/52
f 110/27/50 108/27/48 107/28/47
f 108/27/48 110/27/50 112/29/52
f 115/28/47 114/27/46 113/25/45
f 114/27/46 115/28/47 116/27/48
f 118/27/50 113/25/45 117/27/49
f 113/25/45 118/27/50 115/28/47
f 119/26/51 118/27/50 117/27/49
f 118/27/50 119/26/51 120/29/52
f 116/27/48 119/26/51 114/27/46
f 119/26/51 116/27/48 120/29/52
f 118/27/50 116/27/48 115/28/47
f 116/27/48 118/27/50 120/29/52
f 123/28/47 122/27/46 121/25/45
f 122/27/46 123/28/47 124/27/48
f 126/27/50 121/25/45 125/27/49
f 121/25/45 126/27/50 123/28/47
f 127/26/51 126/27/50 125/27/49
f 126/27/50 127/26/51 128/29/52
f 124/27/48 127/26/51 122/27/46
f 127/26/51 124/27/48 128/29/52
f 126/27/50 124/27/48 123/28/47
f 124/27/48 126/27/50 128/29/52
f 131/28/47 130/27/46 129/25/45
f 130/27/46 131/28/47 132/27/48
f 134/27/50 129/25/45 133/27/49
f 129/25/45 134/27/50 131/28/47
f 135/26/51 134/27/50 133/27/49
f 134/27/50 135/26/51 136/29/52
f 132/27/48 135/26/51 130/27/46
f 135/26/51 132/27/48 136/29/52
f 134/27/50 132/27/48 131/28/47
f 132/27/48 134/27/50 136/29/52
f 139/28/47 138/27/46 137/25/45
f 138/27/46 139/28/47 140/27/48
f 142/27/50 137/25/45 141/27/49
f 137/25/45 142/27/50 139/28/47
f 143/26/51 142/27/50 141/27/49
f 142/27/50 143/26/51 144/29/52
f 140/27/48 143/26/51 138/27/46
f 143/26/51 140/27/48 144/29/52
f 142/27/50 140/27/48 139/28/47
f 140/27/48 142/27/50 144/29/52
