mtllib forest_character-archer.mtl
g body-mesh
v 0.12612 0.17625 0.02125
v 0.041021 0.17625 0.02125
v 0.12612 0.17625 -0.06875
v 0.041021 0.17625 -0.06875
v 0.13676 0 0.1075
v 0.13676 0 -0.1075
v 0.030383 0 0.1075
v 0.030383 0 -0.1075
v 0.13676 0.0575 0.1075
v 0.030383 0.0575 0.1075
v 0.13676 0.09 0.05
v 0.030383 0.09 0.05
v 0.13676 0.115 0.05
v 0.030383 0.115 0.05
v 0.083571 0.14 0.05
v 0.030383 0.09 -0.082819
v 0.13676 0.09 -0.082819
v -0.13676 0 -0.1075
v -0.13676 0.09 -0.082819
v -0.13676 0 0.1075
v -0.13676 0.09 0.05
v -0.13676 0.0575 0.1075
v -0.041021 0.17625 0.02125
v -0.12612 0.17625 0.02125
v -0.041021 0.17625 -0.06875
v -0.12612 0.17625 -0.06875
v -0.030383 0 0.1075
v -0.030383 0.0575 0.1075
v -0.030383 0.09 0.05
v -0.030383 0.115 0.05
v -0.13676 0.115 0.05
v -0.083571 0.14 0.05
v -0.030383 0 -0.1075
v -0.030383 0.09 -0.082819
v 0.29449 0.34325 -0.055419
v 0.34023 0.34325 -0.0057839
v 0.28369 0.36825 -0.032873
v 0.29227 0.23225 0.09432
v 0.23573 0.20725 0.067231
v 0.22493 0.23225 0.089776
v 0.34023 0.23225 -0.0057839
v 0.29449 0.23225 -0.055419
v 0.28369 0.20725 -0.032873
v 0.29227 0.34325 0.09432
v 0.22493 0.34325 0.089776
v 0.23573 0.36825 0.067231
v 0.34232 0.23225 0.1183
v 0.34232 0.34325 0.1183
v 0.28369 0.23225 -0.032873
v 0.28369 0.34325 -0.032873
v 0.39028 0.23225 0.018197
v 0.39028 0.34325 0.018197
v 0.23573 0.34325 0.067231
v 0.23573 0.23225 0.067231
v -0.29449 0.34325 -0.055419
v -0.28369 0.36825 -0.032873
v -0.34023 0.34325 -0.0057839
v -0.22493 0.34325 0.089776
v -0.29227 0.34325 0.09432
v -0.23573 0.36825 0.067231
v -0.28369 0.20725 -0.032873
v -0.29449 0.23225 -0.055419
v -0.34023 0.23225 -0.0057839
v -0.23573 0.20725 0.067231
v -0.29227 0.23225 0.09432
v -0.22493 0.23225 0.089776
v -0.39028 0.34325 0.018197
v -0.39028 0.23225 0.018197
v -0.28369 0.34325 -0.032873
v -0.28369 0.23225 -0.032873
v -0.2109 0.23225 -0.06775
v -0.2109 0.34325 -0.06775
v -0.23573 0.23225 0.067231
v -0.34232 0.23225 0.1183
v -0.099897 0.23225 -0.06775
v -0.099897 0.34325 -0.06775
v -0.18568 0.23225 0.04325
v -0.099897 0.23225 0.04325
v -0.099897 0.34325 0.04325
v -0.18568 0.34325 0.04325
v -0.23573 0.34325 0.067231
v -0.34232 0.34325 0.1183
v 0.12612 0.25312 0.085361
v -0.12612 0.25312 0.085361
v 0.099897 0.34325 0.085361
v -0.099897 0.34325 0.085361
v 0.12612 0.17625 0.07445
v 0.12612 0.17625 -0.12195
v -0.12612 0.17625 0.07445
v -0.12612 0.17625 -0.12195
v -0.12612 0.25312 -0.13286
v 0.12612 0.25312 -0.13286
v -0.099897 0.34325 -0.10986
v 0.099897 0.34325 -0.10986
v 0.11543 0.22725 -0.093147
v 0.11543 0.22725 0.034736
v 0.082967 0.22725 -0.12407
v 0.082967 0.22725 0.06566
v -0.082967 0.22725 -0.12407
v -0.082967 0.22725 0.06566
v -0.11543 0.22725 -0.093147
v -0.11543 0.22725 0.034736
v 0.16396 0.15289 0.070405
v 0.16396 0.15289 -0.12882
v 0.12707 0.15289 0.10555
v 0.12707 0.15289 -0.16396
v -0.12707 0.15289 0.10555
v -0.12707 0.15289 -0.16396
v -0.16396 0.15289 0.070405
v -0.16396 0.15289 -0.12882
v 0.12612 0.25312 -0.15786
v 0.12612 0.19547 -0.15786
v 0.15112 0.25312 -0.13286
v 0.15112 0.19547 -0.13286
v 0.15112 0.19547 0.085361
v 0.12612 0.19547 0.11036
v -0.12612 0.19547 0.11036
v -0.12612 0.19547 -0.15786
v -0.15112 0.19547 0.085361
v -0.15112 0.19547 -0.13286
v 0.12612 0.25312 0.11036
v -0.12612 0.25312 0.11036
v -0.15112 0.25312 0.085361
v -0.15112 0.25312 -0.13286
v 0.15112 0.25312 0.085361
v -0.12612 0.25312 -0.15786
v 0.049193 0.21261 -0.15121
v 0.06673 0.20248 -0.12745
v 0.078018 0.26253 -0.15121
v 0.095555 0.25241 -0.12745
v 0.06673 0.20248 0.079949
v 0.049193 0.21261 0.10371
v -0.12775 0.31476 0.10371
v -0.12775 0.31476 -0.15121
v -0.14529 0.32489 0.079949
v -0.14529 0.32489 -0.12745
v -0.098925 0.36469 0.10371
v 0.078018 0.26253 0.10371
v -0.11646 0.37482 0.079949
v -0.11646 0.37482 -0.12745
v 0.095555 0.25241 0.079949
v -0.098925 0.36469 -0.15121
v 0.2109 0.23225 -0.06775
v 0.2109 0.34325 -0.06775
v 0.099897 0.23225 -0.06775
v 0.099897 0.34325 -0.06775
v 0.18568 0.23225 0.04325
v 0.099897 0.23225 0.04325
v 0.18568 0.34325 0.04325
v 0.099897 0.34325 0.04325
vn 0 1 0
vn 0 -1 0
vn 0 0.50396 0.86373
vn 0 0.87056 0.49206
vn 0 0 1
vn 0 0.26447 -0.96439
vn -1 0 0
vn 1 0 0
vn 0.69376 0.3317 -0.63928
vn 0.68087 0.63041 -0.37282
vn 0.45845 0.87628 -0.14815
vn 0.13609 -0.63041 0.76424
vn 0.17181 -0.87628 0.45012
vn -0.063501 -0.3317 0.94125
vn 0.68087 -0.63041 -0.37282
vn 0.69376 -0.3317 -0.63928
vn 0.45845 -0.87628 -0.14815
vn 0.13609 0.63041 0.76424
vn -0.063501 0.3317 0.94125
vn 0.17181 0.87628 0.45012
vn -0.43209 0 0.90183
vn 0.43209 0 -0.90183
vn -0.90183 0 -0.43209
vn 0.90183 0 0.43209
vn -0.69376 0.3317 -0.63928
vn -0.45845 0.87628 -0.14815
vn -0.68087 0.63041 -0.37282
vn 0.68087 -0.63041 0.37282
vn 0.45845 -0.87628 0.14815
vn 0.69376 -0.3317 0.63928
vn 0.063501 0.3317 0.94125
vn -0.13609 0.63041 0.76424
vn -0.17181 0.87628 0.45012
vn 0.17181 -0.87628 -0.45012
vn 0.13609 -0.63041 -0.76424
vn -0.063501 -0.3317 -0.94125
vn -0.45845 -0.87628 -0.14815
vn -0.69376 -0.3317 -0.63928
vn -0.68087 -0.63041 -0.37282
vn 0.68087 0.63041 0.37282
vn 0.69376 0.3317 0.63928
vn 0.45845 0.87628 0.14815
vn -0.17181 -0.87628 0.45012
vn -0.13609 -0.63041 0.76424
vn 0.063501 -0.3317 0.94125
vn -0.063501 0.3317 -0.94125
vn 0.13609 0.63041 -0.76424
vn 0.17181 0.87628 -0.45012
vn -0.43209 0 -0.90183
vn 0.43209 0 0.90183
vn 0.22155 0 0.97515
vn 0.90183 0 -0.43209
vn -0.90183 0 0.43209
vn 0 0 -1
vn 0 0.16099 -0.98696
vn 0 0.31623 0.94868
vn 0.99248 0.12241 0
vn -0.99248 0.12241 0
vn 0 -0.077421 0.997
vn -0.99071 0.13602 0
vn -0.98903 0.14772 0
vn 0 0.24725 -0.96895
vn 0 -0.14054 0.99007
vn -0.96019 0.27936 0
vn 0.99071 0.13602 0
vn 0.98903 0.14772 0
vn 0 -0.14054 -0.99007
vn 0.96019 0.27936 0
vn -0.225 0.56084 0.79676
vn -0.34584 0.59451 0.72592
vn -0.74333 0.61327 0.26712
vn -0.70873 0.62213 0.33265
vn -0.34584 0.59451 -0.72592
vn 0.34584 0.59451 -0.72592
vn -0.225 0.56084 -0.79676
vn 0.225 0.56084 -0.79676
vn -0.70873 0.62213 -0.33265
vn -0.74333 0.61327 -0.26712
vn 0.70873 0.62213 -0.33265
vn 0.70873 0.62213 0.33265
vn 0.74333 0.61327 -0.26712
vn 0.74333 0.61327 0.26712
vn 0.34584 0.59451 0.72592
vn 0.225 0.56084 0.79676
vn 0.38268 0 -0.92388
vn 0.92388 0 -0.38268
vn 0.38268 0 0.92388
vn -0.38268 0 0.92388
vn -0.92388 0 0.38268
vn -0.92388 0 -0.38268
vn 0.92388 0 0.38268
vn -0.38268 0 -0.92388
vn 0.38214 -0.22063 -0.89738
vn 0.81773 -0.47212 -0.32928
vn -0.5 -0.86603 0
vn -0.38214 0.22063 0.89738
vn 0.38214 -0.22063 0.89738
vn -0.81773 0.47212 0.32928
vn -0.81773 0.47212 -0.32928
vn 0.5 0.86603 0
vn 0.81773 -0.47212 0.32928
vn -0.38214 0.22063 -0.89738
vn 0.22155 0 -0.97515
vn -0.22155 0 -0.97515
vt 0.09375 0.475
vt 0.09375 0.41289
vt 0.09375 0.275
vt 0.96875 0.025
vt 0.96875 0.16289
vt 0.21875 0.475
vt 0.21875 0.11706
vt 0.21875 0.225
vt 0.21875 0.025
vt 0.21875 0.125
vt 0.96875 0.225
vt 0.96875 0.075
vt 0.96875 0.175
usemtl colormap
f 3/1/1 2/1/1 1/1/1
f 2/1/1 3/1/1 4/1/1
f 7/1/2 6/1/2 5/1/2
f 6/1/2 7/1/2 8/1/2
f 11/1/4 10/1/3 9/1/3
f 10/1/3 11/1/4 12/1/4
f 13/1/5 12/1/5 11/1/5
f 12/1/5 13/1/5 14/1/5
f 14/1/5 13/1/5 15/1/5
f 16/1/6 6/1/6 8/1/6
f 6/1/6 16/1/6 17/1/6
f 7/1/7 16/1/7 8/1/7
f 16/1/7 7/1/7 12/1/7
f 12/1/7 7/1/7 10/1/7
f 17/1/8 5/1/8 6/1/8
f 5/1/8 17/1/8 11/1/8
f 5/1/8 11/1/8 9/1/8
f 9/1/3 7/1/5 5/1/5
f 7/1/5 9/1/3 10/1/3
f 20/1/7 19/1/7 18/1/7
f 19/1/7 20/1/7 21/1/7
f 21/1/7 20/1/7 22/1/7
f 25/1/1 24/1/1 23/1/1
f 24/1/1 25/1/1 26/1/1
f 28/1/3 20/1/5 27/1/5
f 20/1/5 28/1/3 22/1/3
f 30/1/5 21/1/5 29/1/5
f 21/1/5 30/1/5 31/1/5
f 31/1/5 30/1/5 32/1/5
f 20/1/2 33/1/2 27/1/2
f 33/1/2 20/1/2 18/1/2
f 34/1/8 27/1/8 33/1/8
f 27/1/8 34/1/8 29/1/8
f 27/1/8 29/1/8 28/1/8
f 29/1/4 22/1/3 28/1/3
f 22/1/3 29/1/4 21/1/4
f 19/1/6 33/1/6 18/1/6
f 33/1/6 19/1/6 34/1/6
f 37/1/11 36/2/10 35/2/9
f 40/3/14 39/3/13 38/3/12
f 43/3/17 42/3/16 41/3/15
f 46/1/20 45/2/19 44/2/18
f 47/3/21 44/2/21 38/3/21
f 44/2/21 47/3/21 48/2/21
f 50/5/22 41/3/22 49/4/22
f 41/3/22 50/5/22 36/2/22
f 36/2/22 51/3/22 41/3/22
f 51/3/22 36/2/22 52/2/22
f 35/2/9 41/3/15 42/3/16
f 41/3/15 35/2/9 36/2/10
f 46/1/23 40/3/23 45/2/23
f 53/2/23 40/3/23 46/1/23
f 37/1/23 53/2/23 46/1/23
f 54/3/23 40/3/23 53/2/23
f 54/3/23 39/3/23 40/3/23
f 49/3/23 39/3/23 54/3/23
f 37/1/23 50/2/23 53/2/23
f 39/3/23 49/3/23 43/3/23
f 50/2/23 43/3/23 49/3/23
f 35/2/23 50/2/23 37/1/23
f 35/2/23 43/3/23 50/2/23
f 43/3/23 35/2/23 42/3/23
f 47/3/2 41/3/2 51/3/2
f 41/3/2 47/3/2 38/3/2
f 38/3/2 49/4/2 41/3/2
f 49/4/2 38/3/2 54/4/2
f 38/3/12 43/3/17 41/3/15
f 43/3/17 38/3/12 39/3/13
f 44/2/18 40/3/14 38/3/12
f 40/3/14 44/2/18 45/2/19
f 37/1/11 44/2/18 36/2/10
f 44/2/18 37/1/11 46/1/20
f 48/2/24 51/3/24 52/2/24
f 51/3/24 48/2/24 47/3/24
f 36/2/1 48/2/1 52/2/1
f 48/2/1 36/2/1 44/2/1
f 57/2/27 56/1/26 55/2/25
f 55/2/30 56/1/29 57/2/28
f 60/1/33 59/2/32 58/2/31
f 58/2/36 59/2/35 60/1/34
f 63/3/39 62/3/38 61/3/37
f 61/3/42 62/3/41 63/3/40
f 66/3/45 65/3/44 64/3/43
f 64/3/48 65/3/47 66/3/46
f 56/1/26 59/2/32 60/1/33
f 59/2/32 56/1/26 57/2/27
f 60/1/34 59/2/35 56/1/29
f 57/2/28 56/1/29 59/2/35
f 57/2/49 68/3/49 67/2/49
f 68/3/49 57/2/49 63/3/49
f 69/5/49 63/3/49 57/2/49
f 63/3/49 69/5/49 70/4/49
f 67/2/50 68/3/50 57/2/50
f 63/3/50 57/2/50 68/3/50
f 57/2/50 63/3/50 69/2/50
f 70/3/50 69/2/50 63/3/50
f 70/3/50 71/3/51 69/2/50
f 72/2/51 69/2/50 71/3/51
f 65/3/2 70/4/2 73/4/2
f 70/4/2 65/3/2 63/3/2
f 74/3/2 63/3/2 65/3/2
f 63/3/2 74/3/2 68/3/2
f 71/3/51 75/3/5 72/2/51
f 76/2/5 72/2/51 75/3/5
f 65/3/44 61/3/37 64/3/43
f 61/3/37 65/3/44 63/3/39
f 64/3/48 61/3/42 65/3/47
f 63/3/40 65/3/47 61/3/42
f 78/3/1 75/3/1 77/3/1
f 71/3/1 77/3/1 75/3/1
f 73/3/1 77/3/1 71/3/1
f 70/3/1 73/3/1 71/3/1
f 73/3/1 70/3/1 65/3/1
f 63/3/1 65/3/1 70/3/1
f 65/3/1 63/3/1 74/3/1
f 68/3/1 74/3/1 63/3/1
f 76/2/2 79/2/2 72/2/2
f 80/2/2 72/2/2 79/2/2
f 81/2/2 72/2/2 80/2/2
f 69/2/2 72/2/2 81/2/2
f 64/3/52 58/2/52 66/3/52
f 73/3/52 58/2/52 64/3/52
f 61/3/52 73/3/52 64/3/52
f 81/2/52 58/2/52 73/3/52
f 81/2/52 60/1/52 58/2/52
f 81/2/52 56/1/52 60/1/52
f 61/3/52 70/3/52 73/3/52
f 69/2/52 56/1/52 81/2/52
f 61/3/52 69/2/52 70/3/52
f 56/1/52 69/2/52 55/2/52
f 61/3/52 55/2/52 69/2/52
f 55/2/52 61/3/52 62/3/52
f 66/3/53 58/2/53 64/3/53
f 64/3/53 58/2/53 73/3/53
f 64/3/53 73/3/53 61/3/53
f 73/3/53 58/2/53 81/2/53
f 58/2/53 60/1/53 81/2/53
f 60/1/53 56/1/53 81/2/53
f 73/3/53 70/3/53 61/3/53
f 81/2/53 56/1/53 69/2/53
f 70/3/53 69/2/53 61/3/53
f 55/2/53 69/2/53 56/1/53
f 69/2/53 55/2/53 61/3/53
f 62/3/53 61/3/53 55/2/53
f 77/3/54 80/2/54 78/3/54
f 79/2/54 78/3/54 80/2/54
f 76/2/7 75/3/7 79/2/7
f 78/3/7 79/2/7 75/3/7
f 59/2/50 74/3/50 65/3/50
f 74/3/50 59/2/50 82/2/50
f 65/3/49 74/3/49 59/2/49
f 82/2/49 59/2/49 74/3/49
f 57/2/1 82/2/1 59/2/1
f 82/2/1 57/2/1 67/2/1
f 59/2/2 82/2/2 57/2/2
f 67/2/2 57/2/2 82/2/2
f 66/3/45 59/2/32 65/3/44
f 59/2/32 66/3/45 58/2/31
f 65/3/47 59/2/35 66/3/46
f 58/2/36 66/3/46 59/2/35
f 74/3/53 67/2/53 68/3/53
f 67/2/53 74/3/53 82/2/53
f 68/3/52 67/2/52 74/3/52
f 82/2/52 74/3/52 67/2/52
f 73/3/49 81/2/49 77/3/49
f 80/2/49 77/3/49 81/2/49
f 63/3/39 55/2/25 62/3/38
f 55/2/25 63/3/39 57/2/27
f 62/3/41 55/2/30 63/3/40
f 57/2/28 63/3/40 55/2/30
f 4/6/55 17/6/55 16/6/55
f 17/6/55 4/6/55 3/6/55
f 1/6/56 12/6/56 11/6/56
f 12/6/56 1/6/56 2/6/56
f 3/6/57 11/6/57 17/6/57
f 11/6/57 3/6/57 1/6/57
f 12/6/58 4/6/58 16/6/58
f 4/6/58 12/6/58 2/6/58
f 23/6/56 21/6/56 29/6/56
f 21/6/56 23/6/56 24/6/56
f 21/6/58 26/6/58 19/6/58
f 26/6/58 21/6/58 24/6/58
f 26/6/55 34/6/55 19/6/55
f 34/6/55 26/6/55 25/6/55
f 25/6/57 29/6/57 34/6/57
f 29/6/57 25/6/57 23/6/57
f 85/8/5 84/7/59 83/7/59
f 84/7/59 85/8/5 86/8/5
f 89/9/2 88/9/2 87/9/2
f 88/9/2 89/9/2 90/9/2
f 90/9/7 84/7/61 91/7/60
f 84/7/61 90/9/7 89/9/7
f 93/8/62 92/7/62 91/7/62
f 92/7/62 93/8/62 94/8/62
f 83/7/59 89/9/63 87/9/63
f 89/9/63 83/7/59 84/7/59
f 93/8/1 85/8/1 94/8/1
f 85/8/1 93/8/1 86/8/1
f 84/7/61 93/8/64 91/7/60
f 93/8/64 84/7/61 86/8/64
f 83/7/66 88/9/8 92/7/65
f 88/9/8 83/7/66 87/9/8
f 90/9/67 92/7/67 88/9/67
f 92/7/67 90/9/67 91/7/67
f 94/8/68 83/7/66 92/7/65
f 83/7/66 94/8/68 85/8/68
f 97/8/1 96/8/1 95/8/1
f 96/8/1 97/8/1 98/8/1
f 98/8/1 97/8/1 99/8/1
f 98/8/1 99/8/1 100/8/1
f 100/8/1 99/8/1 101/8/1
f 100/8/1 101/8/1 102/8/1
f 105/10/2 104/10/2 103/10/2
f 104/10/2 105/10/2 106/10/2
f 106/10/2 105/10/2 107/10/2
f 106/10/2 107/10/2 108/10/2
f 108/10/2 107/10/2 109/10/2
f 108/10/2 109/10/2 110/10/2
f 102/8/71 107/10/70 100/8/69
f 107/10/70 102/8/71 109/10/72
f 99/8/75 106/10/74 108/10/73
f 106/10/74 99/8/75 97/8/76
f 109/10/72 101/8/78 110/10/77
f 101/8/78 109/10/72 102/8/71
f 95/8/81 103/10/80 104/10/79
f 103/10/80 95/8/81 96/8/82
f 98/8/84 107/10/70 105/10/83
f 107/10/70 98/8/84 100/8/69
f 96/8/82 105/10/83 103/10/80
f 105/10/83 96/8/82 98/8/84
f 108/10/73 101/8/78 99/8/75
f 101/8/78 108/10/73 110/10/77
f 106/10/74 95/8/81 104/10/79
f 95/8/81 106/10/74 97/8/76
f 113/11/86 112/4/85 111/11/85
f 112/4/85 113/11/86 114/4/86
f 116/4/2 114/4/2 115/4/2
f 114/4/2 116/4/2 112/4/2
f 112/4/2 116/4/2 117/4/2
f 112/4/2 117/4/2 118/4/2
f 118/4/2 117/4/2 119/4/2
f 118/4/2 119/4/2 120/4/2
f 121/11/87 117/4/88 116/4/87
f 117/4/88 121/11/87 122/11/88
f 117/4/88 123/11/89 119/4/89
f 123/11/89 117/4/88 122/11/88
f 119/4/89 124/11/90 120/4/90
f 124/11/90 119/4/89 123/11/89
f 111/11/1 125/11/1 113/11/1
f 125/11/1 111/11/1 121/11/1
f 121/11/1 111/11/1 126/11/1
f 121/11/1 126/11/1 122/11/1
f 122/11/1 126/11/1 124/11/1
f 122/11/1 124/11/1 123/11/1
f 125/11/91 114/4/86 113/11/86
f 114/4/86 125/11/91 115/4/91
f 126/11/92 112/4/85 118/4/92
f 112/4/85 126/11/92 111/11/85
f 120/4/90 126/11/92 118/4/92
f 126/11/92 120/4/90 124/11/90
f 121/11/87 115/4/91 125/11/91
f 115/4/91 121/11/87 116/4/87
f 129/13/93 128/12/94 127/12/93
f 128/12/94 129/13/93 130/13/94
f 132/12/95 128/12/95 131/12/95
f 128/12/95 132/12/95 127/12/95
f 127/12/95 132/12/95 133/12/95
f 127/12/95 133/12/95 134/12/95
f 134/12/95 133/12/95 135/12/95
f 134/12/95 135/12/95 136/12/95
f 132/12/97 137/13/96 133/12/96
f 137/13/96 132/12/97 138/13/97
f 137/13/96 135/12/98 133/12/96
f 135/12/98 137/13/96 139/13/98
f 135/12/98 140/13/99 136/12/99
f 140/13/99 135/12/98 139/13/98
f 129/13/100 141/13/100 130/13/100
f 141/13/100 129/13/100 138/13/100
f 138/13/100 129/13/100 142/13/100
f 138/13/100 142/13/100 137/13/100
f 137/13/100 142/13/100 140/13/100
f 137/13/100 140/13/100 139/13/100
f 141/13/101 128/12/94 130/13/94
f 128/12/94 141/13/101 131/12/101
f 142/13/102 127/12/93 134/12/102
f 127/12/93 142/13/102 129/13/93
f 140/13/99 134/12/102 136/12/99
f 134/12/102 140/13/99 142/13/102
f 141/13/101 132/12/97 131/12/101
f 132/12/97 141/13/101 138/13/97
f 145/4/54 144/5/103 143/4/103
f 144/5/103 145/4/54 146/5/54
f 54/4/2 143/4/2 49/4/2
f 143/4/2 54/4/2 147/4/2
f 143/4/2 147/4/2 145/4/2
f 145/4/2 147/4/2 148/4/2
f 53/5/21 147/4/21 54/4/21
f 147/4/21 53/5/21 149/5/21
f 144/5/1 53/5/1 50/5/1
f 53/5/1 144/5/1 149/5/1
f 149/5/1 144/5/1 146/5/1
f 149/5/1 146/5/1 150/5/1
f 143/4/103 50/5/22 49/4/22
f 50/5/22 143/4/103 144/5/103
f 149/5/5 148/4/5 147/4/5
f 148/4/5 149/5/5 150/5/5
f 148/4/7 146/5/7 145/4/7
f 146/5/7 148/4/7 150/5/7
f 72/5/104 75/4/54 71/4/104
f 75/4/54 72/5/104 76/5/54
f 77/4/2 75/4/2 78/4/2
f 75/4/2 77/4/2 71/4/2
f 71/4/2 77/4/2 73/4/2
f 71/4/2 73/4/2 70/4/2
f 72/5/1 79/5/1 76/5/1
f 79/5/1 72/5/1 80/5/1
f 80/5/1 72/5/1 81/5/1
f 81/5/1 72/5/1 69/5/1
f 78/4/5 80/5/5 77/4/5
f 80/5/5 78/4/5 79/5/5
f 79/5/8 75/4/8 76/5/8
f 75/4/8 79/5/8 78/4/8
f 69/5/49 71/4/104 70/4/49
f 71/4/104 69/5/49 72/5/104
f 77/4/50 81/5/50 73/4/50
f 81/5/50 77/4/50 80/5/50
g head-mesh
v 0.16 0.50781 -0.022361
v 0.17669 0.50781 -0.0056735
v 0.16 0.48421 0.011014
v 0.17669 0.41341 -0.0056735
v 0.16 0.41341 -0.022361
v 0.16 0.43701 0.011014
v -0.16 0.50781 -0.022361
v -0.16 0.48421 0.011014
v -0.17669 0.50781 -0.0056735
v -0.16 0.43701 0.011014
v -0.16 0.41341 -0.022361
v -0.17669 0.41341 -0.0056735
v 0.22675 0.48421 -0.055737
v 0.22675 0.43701 -0.055737
v 0.21006 0.50781 -0.039049
v 0.21006 0.41341 -0.039049
v 0.17669 0.50781 -0.072424
v 0.16 0.50781 -0.055737
v 0.17669 0.41341 -0.072424
v 0.16 0.41341 -0.055737
v 0.19338 0.48421 -0.089112
v 0.19338 0.43701 -0.089112
v -0.16 0.50781 -0.055737
v -0.17669 0.50781 -0.072424
v -0.21006 0.50781 -0.039049
v -0.22675 0.43701 -0.055737
v -0.22675 0.48421 -0.055737
v -0.21006 0.41341 -0.039049
v -0.19338 0.43701 -0.089112
v -0.19338 0.48421 -0.089112
v -0.17669 0.41341 -0.072424
v -0.16 0.41341 -0.055737
v 0.16 0.34325 0.12264
v 0.16 0.34325 -0.022361
v 0.12 0.34325 0.16264
v 0.16 0.34325 -0.11736
v 0.12 0.34325 -0.15736
v -0.12 0.34325 0.16264
v -0.12 0.34325 -0.15736
v -0.16 0.34325 0.12264
v -0.16 0.34325 -0.022361
v -0.16 0.34325 -0.11736
v -0.16 0.43701 -0.022361
v -0.16 0.43701 0.050139
v -0.16 0.45508 0.10588
v -0.16 0.50423 0.12264
v 0.16 0.43701 -0.022361
v 0.16 0.43701 0.050139
v 0.16 0.45508 0.10588
v 0.16 0.50423 0.12264
v -0.12 0.61445 0.16264
v -0.16 0.61445 0.12264
v 0.12 0.61445 0.16264
v 0.16 0.61445 0.12264
v 0.14937 0.61561 -0.16149
v 0.16507 0.75036 -0.17145
v 0.096648 0.62165 -0.16286
v 0.11235 0.7564 -0.17281
v 0.17157 0.81493 -0.13671
v 0.11885 0.82097 -0.13807
v 0.14416 0.5978 -0.038488
v 0.14199 0.56928 -0.081351
v 0.09143 0.60384 -0.03985
v 0.089269 0.57533 -0.082712
v 0.14937 0.6455 -0.028822
v 0.096648 0.65155 -0.030184
v 0.14416 0.57666 -0.1323
v 0.16507 0.7715 -0.077633
v 0.11235 0.77754 -0.078994
v 0.09143 0.5827 -0.13366
v 0.16 0.61445 0.12264
v 0.16 0.58945 0.12264
v 0.12 0.58945 0.17514
v 0.12 0.61445 0.16264
v -0.16 0.58945 0.12264
v -0.16 0.61445 0.12264
v -0.12 0.58945 0.17514
v -0.12 0.61445 0.16264
v 3.8442e-14 0.56445 0.18764
v 0.12 0.61445 -0.15736
v 0.12 0.66133 0.092639
v 0.09 0.66133 0.12264
v -0.09 0.66133 0.12264
v -0.12 0.66133 0.092639
v -0.12 0.61445 -0.15736
v -0.16 0.61445 -0.11736
v 0.16 0.61445 -0.11736
v 0.10864 0.49003 0.17045
v 0.070529 0.50024 0.17045
v 0.11653 0.51947 0.17045
v 0.028471 0.50475 0.17045
v 0.070529 0.53179 0.17045
v 0.032416 0.49003 0.17045
v -0.10864 0.49003 0.17045
v -0.070529 0.50024 0.17045
v -0.11653 0.51947 0.17045
v -0.028471 0.50475 0.17045
v -0.070529 0.53179 0.17045
v -0.032416 0.49003 0.17045
v 0.083979 0.38781 0.17155
v 0.045004 0.41031 0.17155
v 0.09267 0.40286 0.17155
v 0.084426 0.42769 0.17155
v -0.045004 0.41031 0.17155
v -0.084426 0.42769 0.17155
v -0.09267 0.40286 0.17155
v -0.083979 0.38781 0.17155
v -2.0051e-14 0.42769 0.17155
v 0.054319 0.44507 0.17155
v 0.02716 0.44507 0.17155
v -0.02716 0.44507 0.17155
v -0.054319 0.44507 0.17155
v 0.028938 0.3357 0.17155
v -0.028938 0.3357 0.17155
v 0.043582 0.38628 0.17155
v -0.043582 0.38628 0.17155
v 0.024527 0.40233 0.17155
v -0.024527 0.40233 0.17155
v -0.07209 0.45502 0.16461
v -0.05097 0.46206 0.16461
v -0.09321 0.46206 0.16461
v -0.10025 0.48318 0.16461
v -0.04393 0.48318 0.16461
v -0.09321 0.5043 0.16461
v -0.05097 0.5043 0.16461
v -0.07209 0.51134 0.16461
v 0.07209 0.45502 0.16461
v 0.09321 0.46206 0.16461
v 0.05097 0.46206 0.16461
v 0.04393 0.48318 0.16461
v 0.10025 0.48318 0.16461
v 0.05097 0.5043 0.16461
v 0.09321 0.5043 0.16461
v 0.07209 0.51134 0.16461
v 0.036731 0.74439 -0.14629
v 0.10661 0.62143 -0.16883
v 0.045026 0.74897 -0.12599
v 0.13069 0.63041 -0.12895
v -0.10661 0.62143 -0.16883
v -0.036731 0.74439 -0.14629
v -0.045026 0.74897 -0.12599
v -0.13069 0.63041 -0.12895
v -0.045026 0.77324 -0.01826
v -0.027989 0.77852 0.0051338
v -0.13069 0.67809 0.08261
v -0.081235 0.68845 0.12855
v 0.045026 0.77324 -0.01826
v 0.13069 0.67809 0.08261
v 0.027989 0.77852 0.0051338
v 0.081235 0.68845 0.12855
v 0.18135 0.57746 0.090922
v 0.18135 0.53393 -0.10221
v 0.15044 0.59239 0.15717
v 0.15215 0.52139 -0.15786
v 0.10629 0.51602 -0.18171
v 0.079069 0.60739 0.22374
v -0.10629 0.51602 -0.18171
v 0.013381 0.61276 0.24759
v -0.013381 0.61276 0.24759
v -0.079069 0.60739 0.22374
v -0.15044 0.59239 0.15717
v -0.15215 0.52139 -0.15786
v -0.18135 0.57746 0.090922
v -0.18135 0.53393 -0.10221
v 0.19712 0.62884 -0.13595
v 0.19712 0.67615 0.073979
v 0.16538 0.61521 -0.19644
v 0.16352 0.69238 0.14599
v 0.11553 0.60936 -0.22236
v 0.085944 0.70868 0.21835
v -0.11553 0.60936 -0.22236
v 0.014545 0.71452 0.24427
v -0.014545 0.71452 0.24427
v -0.085944 0.70868 0.21835
v -0.16352 0.69238 0.14599
v -0.16538 0.61521 -0.19644
v -0.19712 0.67615 0.073979
v -0.19712 0.62884 -0.13595
vn -0.15378 0.97606 0.15378
vn -0.2706 0.92388 0.2706
vn -0.5 0.70711 0.5
vn -0.2706 -0.92388 0.2706
vn -0.15378 -0.97606 0.15378
vn -0.5 -0.70711 0.5
vn 0.15378 0.97606 0.15378
vn 0.5 0.70711 0.5
vn 0.2706 0.92388 0.2706
vn 0.5 -0.70711 0.5
vn 0.15378 -0.97606 0.15378
vn 0.2706 -0.92388 0.2706
vn 0.70711 0 0.70711
vn 0.2706 0.92388 -0.2706
vn 0.2706 -0.92388 -0.2706
vn -0.70711 0 -0.70711
vn 0.65328 -0.38268 -0.65328
vn 0.65328 0.38268 -0.65328
vn -0.2706 0.92388 -0.2706
vn -0.70711 0 0.70711
vn -0.65328 -0.38268 -0.65328
vn -0.65328 0.38268 -0.65328
vn 0.70711 0 -0.70711
vn -0.2706 -0.92388 -0.2706
vn -0.70711 0 0.70711
vn -0.38268 0 0.92388
vn 0.70711 0 0.70711
vn -0.015822 -0.34921 -0.93691
vn 0.048571 0.20346 -0.97788
vn 0.11667 0.96887 -0.21834
vn -0.084588 -0.55103 0.83019
vn -0.11667 -0.96887 0.21834
vn -0.015822 0.086421 0.99613
vn 0.99317 -0.11382 0.02565
vn 0.048571 0.60324 0.79608
vn -0.084588 -0.85386 -0.51358
vn -0.99317 0.11382 -0.02565
vn 0.77369 0.081537 0.6283
vn 0.79543 0 0.60604
vn 0.31084 0.39318 0.86532
vn 0.38973 0.41185 0.82371
vn -0.79543 0 0.60604
vn -0.77369 0.081537 0.6283
vn -0.31084 0.39318 0.86532
vn -0.38973 0.41185 0.82371
vn 0 0.44721 0.89443
vn 0.053326 0.98363 -0.17214
vn 0.34196 0.93712 0.069743
vn 0.13038 0.91996 0.36969
vn -0.13038 0.91996 0.36969
vn -0.34196 0.93712 0.069743
vn -0.053326 0.98363 -0.17214
vn -0.25536 0.95283 -0.16405
vn -0.62994 0.7215 0.28742
vn 0.25536 0.95283 -0.16405
vn 0.62994 0.7215 0.28742
vn 0.38268 0 -0.92388
vn 0.70711 0 -0.70711
vn 0.28742 0.7215 0.62994
vn -0.28742 0.7215 0.62994
vn -0.70711 0 -0.70711
vn 0.3687 0.36612 -0.85441
vn 0.38949 0.38558 -0.83644
vn 0.78306 0.55547 -0.27975
vn 0.75247 0.55266 -0.35827
vn -0.38949 0.38558 -0.83644
vn -0.3687 0.36612 -0.85441
vn -0.78306 0.55547 -0.27975
vn -0.75247 0.55266 -0.35827
vn -0.73535 0.67752 0.014651
vn -0.2987 0.84012 0.45275
vn -0.63495 0.74846 0.19144
vn -0.2368 0.8306 0.50401
vn 0.73535 0.67752 0.014651
vn 0.63495 0.74846 0.19144
vn 0.2987 0.84012 0.45275
vn 0.2368 0.8306 0.50401
vn 2.2628e-16 0.97553 -0.21985
vn 0 -0.97553 0.21985
vn 0 0.97553 -0.21985
vn -0.96473 -0.11336 0.2376
vn -0.96376 -0.11247 0.24189
vn -0.80472 -0.039036 0.59238
vn -0.80274 -0.038473 0.59509
vn -0.52592 0.0095853 0.85048
vn -0.51914 0.010267 0.85463
vn -0.17657 0.030074 0.98383
vn -0.17175 0.030157 0.98468
vn 0.80472 -0.039036 0.59238
vn 0.52592 0.0095853 0.85048
vn 0.80274 -0.038473 0.59509
vn 0.51914 0.010267 0.85463
vn -0.23086 -0.4076 -0.8835
vn 0.23086 -0.4076 -0.8835
vn -0.24328 -0.40741 -0.88025
vn 0.24328 -0.40741 -0.88025
vn -0.69379 -0.35541 -0.62637
vn -0.87368 -0.28527 -0.3941
vn -0.70114 -0.3535 -0.61923
vn -0.98779 -0.15196 0.034246
vn 0.17657 0.030074 0.98383
vn 0.17175 0.030157 0.98468
vn 0.70114 -0.3535 -0.61923
vn 0.69379 -0.35541 -0.62637
vn 0.87368 -0.28527 -0.3941
vn 0.96473 -0.11336 0.2376
vn 0.96376 -0.11247 0.24189
vn 0.98779 -0.15196 0.034246
vt 0.21875 0.475
vt 0.21875 0.425
vt 0.21875 0.275
vt 0.21875 0.325
vt 0.21875 0.40586
vt 0.21875 0.39253
vt 0.21875 0.35629
vt 0.21875 0.32369
vt 0.21875 0.42729
vt 0.21875 0.32849
vt 0.21875 0.43209
vt 0.21875 0.4702
vt 0.21875 0.28926
vt 0.21875 0.29406
vt 0.21875 0.2798
vt 0.09375 0.375
vt 0.09375 0.44553
vt 0.09375 0.37622
vt 0.09375 0.34532
vt 0.09375 0.33396
vt 0.09375 0.325
vt 0.09375 0.34945
vt 0.09375 0.39549
vt 0.09375 0.36024
vt 0.09375 0.425
vt 0.09375 0.37136
vt 0.09375 0.39244
vt 0.09375 0.38546
vt 0.09375 0.40872
vt 0.09375 0.36993
vt 0.09375 0.38497
vt 0.34375 0.15799
vt 0.34375 0.16637
vt 0.34375 0.19149
vt 0.34375 0.21662
vt 0.34375 0.225
vt 0.21875 0.175
vt 0.21875 0.075
usemtl colormap
f 153/15/107 152/14/106 151/14/105
f 156/17/110 155/16/109 154/16/108
f 159/14/113 158/15/112 157/14/111
f 162/16/116 161/16/115 160/17/114
f 165/6/117 164/17/117 163/15/117
f 164/17/117 165/6/117 166/16/117
f 166/16/117 165/6/117 154/16/117
f 154/16/117 165/6/117 152/14/117
f 154/16/117 152/14/117 156/17/117
f 156/17/117 152/14/117 153/15/117
f 167/14/118 152/14/106 165/6/118
f 152/14/106 167/14/118 151/14/105
f 151/14/105 167/14/118 168/14/1
f 154/16/108 169/16/119 166/16/119
f 169/16/119 154/16/108 155/16/109
f 169/16/119 155/16/109 170/16/2
f 172/17/120 167/14/120 171/15/120
f 167/14/120 172/17/120 169/16/120
f 167/14/120 169/16/120 170/16/120
f 167/14/120 170/16/120 168/14/120
f 171/15/122 164/17/121 172/17/121
f 164/17/121 171/15/122 163/15/122
f 171/15/122 165/6/118 163/15/122
f 165/6/118 171/15/122 167/14/118
f 166/16/119 172/17/121 164/17/121
f 172/17/121 166/16/119 169/16/119
f 174/14/123 157/14/111 173/14/1
f 157/14/111 174/14/123 159/14/113
f 159/14/113 174/14/123 175/6/123
f 178/16/124 177/15/124 176/17/124
f 177/15/124 178/16/124 175/6/124
f 175/6/124 178/16/124 162/16/124
f 175/6/124 162/16/124 159/14/124
f 159/14/124 162/16/124 160/17/124
f 159/14/124 160/17/124 158/15/124
f 176/17/125 180/15/126 179/17/125
f 180/15/126 176/17/125 177/15/126
f 174/14/127 179/17/127 180/15/127
f 179/17/127 174/14/127 181/16/127
f 181/16/127 174/14/127 173/14/127
f 181/16/127 173/14/127 182/16/127
f 180/15/126 175/6/123 174/14/123
f 175/6/123 180/15/126 177/15/126
f 161/16/115 181/16/128 182/16/2
f 181/16/128 161/16/115 162/16/116
f 181/16/128 162/16/116 178/16/128
f 178/16/128 179/17/125 181/16/128
f 179/17/125 178/16/128 176/17/125
f 185/6/2 184/6/2 183/6/2
f 184/6/2 185/6/2 186/6/2
f 186/6/2 185/6/2 187/6/2
f 187/6/2 185/6/2 188/6/2
f 187/6/2 188/6/2 189/6/2
f 189/6/2 188/6/2 190/6/2
f 189/6/2 190/6/2 191/6/2
f 189/6/2 191/6/2 192/6/2
f 191/6/7 194/18/7 193/18/7
f 194/18/7 191/6/7 190/6/7
f 194/18/7 190/6/7 195/19/7
f 195/19/7 190/6/7 196/20/7
f 198/18/8 184/6/8 197/18/8
f 184/6/8 198/18/8 183/6/8
f 183/6/8 198/18/8 199/19/8
f 183/6/8 199/19/8 200/20/8
f 188/6/130 196/20/129 190/6/129
f 196/20/129 188/6/130 201/16/130
f 196/20/129 201/16/130 202/16/129
f 203/16/87 188/6/130 185/6/87
f 188/6/130 203/16/87 201/16/130
f 204/16/131 183/6/131 200/20/131
f 183/6/131 204/16/131 203/16/87
f 183/6/131 203/16/87 185/6/87
f 207/23/132 206/22/133 205/21/132
f 206/22/133 207/23/132 208/24/133
f 208/24/133 209/25/134 206/22/133
f 209/25/134 208/24/133 210/6/134
f 213/27/135 212/16/136 211/26/135
f 212/16/136 213/27/135 214/28/136
f 215/21/137 213/27/135 211/26/135
f 213/27/135 215/21/137 216/23/137
f 206/22/138 217/26/138 205/21/138
f 217/26/138 206/22/138 209/25/138
f 217/26/138 209/25/138 212/16/138
f 212/16/138 209/25/138 218/22/138
f 212/16/138 218/22/138 211/26/138
f 211/26/138 218/22/138 215/21/138
f 218/22/139 216/23/137 215/21/137
f 216/23/137 218/22/139 219/24/139
f 212/16/136 220/27/140 217/26/140
f 220/27/140 212/16/136 214/28/136
f 209/25/134 219/24/139 218/22/139
f 219/24/139 209/25/134 210/6/134
f 220/27/141 208/24/141 207/23/141
f 208/24/141 220/27/141 210/6/141
f 210/6/141 220/27/141 214/28/141
f 210/6/141 214/28/141 213/27/141
f 210/6/141 213/27/141 219/24/141
f 219/24/141 213/27/141 216/23/141
f 220/27/140 205/21/132 217/26/140
f 205/21/132 220/27/140 207/23/132
f 223/29/144 222/29/143 221/1/142
f 223/29/144 221/1/142 224/1/145
f 227/29/148 226/1/147 225/29/146
f 227/29/148 228/1/149 226/1/147
f 223/29/144 227/29/148 229/3/150
f 227/29/148 223/29/144 228/1/149
f 228/1/149 223/29/144 224/1/145
f 232/1/153 231/1/152 230/30/151
f 235/30/156 234/1/155 233/1/154
f 202/30/158 234/1/155 236/30/157
f 236/30/157 234/1/155 235/30/156
f 230/30/151 231/1/152 237/30/159
f 204/30/160 237/30/159 231/1/152
f 235/30/92 187/3/161 189/3/92
f 187/3/161 235/30/92 230/30/161
f 230/30/161 186/3/162 187/3/161
f 186/3/162 230/30/161 237/30/162
f 231/1/152 203/30/163 204/30/160
f 203/30/163 231/1/152 232/1/153
f 235/30/156 232/1/153 230/30/151
f 232/1/153 235/30/156 233/1/154
f 234/1/155 201/30/164 233/1/154
f 201/30/164 234/1/155 202/30/158
f 192/3/165 235/30/92 189/3/92
f 235/30/92 192/3/165 236/30/165
f 202/30/7 195/32/7 196/31/7
f 202/30/7 194/33/7 195/32/7
f 202/30/7 193/33/7 194/33/7
f 193/33/7 202/30/7 236/30/7
f 236/30/7 191/3/7 193/33/7
f 191/3/7 236/30/7 192/3/7
f 203/30/163 233/1/154 201/30/164
f 233/1/154 203/30/163 232/1/153
f 204/30/8 186/3/8 237/30/8
f 186/3/8 204/30/8 197/33/8
f 184/3/8 186/3/8 197/33/8
f 197/33/8 204/30/8 198/33/8
f 198/33/8 204/30/8 199/32/8
f 199/32/8 204/30/8 200/31/8
f 240/36/5 239/35/5 238/34/5
f 239/35/5 240/36/5 241/37/5
f 241/37/5 240/36/5 242/38/5
f 241/37/5 243/34/5 239/35/5
f 245/35/5 249/34/5 247/37/5
f 248/38/5 246/36/5 247/37/5
f 247/37/5 246/36/5 245/35/5
f 244/34/5 245/35/5 246/36/5
f 252/41/5 251/40/5 250/39/5
f 251/40/5 252/41/5 253/42/5
f 251/40/5 253/42/5 254/40/5
f 255/42/5 254/40/5 253/42/5
f 256/41/5 254/40/5 255/42/5
f 254/40/5 256/41/5 257/39/5
f 255/42/5 253/42/5 258/42/5
f 259/38/5 258/42/5 253/42/5
f 258/42/5 259/38/5 260/38/5
f 255/42/5 258/42/5 261/38/5
f 255/42/5 261/38/5 262/38/5
f 265/43/5 264/34/5 263/34/5
f 264/34/5 265/43/5 266/43/5
f 266/43/5 265/43/5 267/44/5
f 266/43/5 267/44/5 268/44/5
f 284/49/5 282/48/5 283/48/5
f 283/48/5 282/48/5 281/47/5
f 282/48/5 280/47/5 281/47/5
f 281/47/5 280/47/5 278/46/5
f 280/47/5 279/46/5 278/46/5
f 277/45/5 278/46/5 279/46/5
f 276/49/5 274/48/5 275/48/5
f 275/48/5 274/48/5 273/47/5
f 274/48/5 272/47/5 273/47/5
f 273/47/5 272/47/5 270/46/5
f 272/47/5 271/46/5 270/46/5
f 269/45/5 270/46/5 271/46/5
f 287/50/168 286/51/167 285/50/166
f 287/50/168 288/51/169 286/51/167
f 291/50/172 290/50/171 289/51/170
f 291/50/172 289/51/170 292/51/173
f 295/51/176 294/50/175 293/50/174
f 295/51/176 296/51/177 294/50/175
f 299/50/180 298/51/179 297/50/178
f 299/50/180 300/51/181 298/51/179
f 285/50/182 297/50/182 287/50/182
f 297/50/182 285/50/182 299/50/182
f 299/50/182 285/50/182 290/50/182
f 299/50/182 290/50/182 294/50/182
f 294/50/182 290/50/182 293/50/182
f 293/50/182 290/50/182 291/50/182
f 299/50/180 296/51/177 300/51/181
f 296/51/177 299/50/180 294/50/175
f 295/51/176 291/50/172 292/51/173
f 291/50/172 295/51/176 293/50/174
f 287/50/168 298/51/179 288/51/169
f 298/51/179 287/50/168 297/50/178
f 290/50/171 286/51/167 289/51/170
f 286/51/167 290/50/171 285/50/166
f 303/51/183 302/51/183 301/51/183
f 302/51/183 303/51/183 304/51/183
f 304/51/183 303/51/183 305/51/183
f 305/51/183 303/51/183 306/51/183
f 305/51/183 306/51/183 307/51/183
f 307/51/183 306/51/183 308/51/183
f 307/51/183 308/51/183 309/51/183
f 307/51/183 309/51/183 310/51/183
f 307/51/183 310/51/183 311/51/183
f 307/51/183 311/51/183 312/51/183
f 312/51/183 311/51/183 313/51/183
f 312/51/183 313/51/183 314/51/183
f 317/50/184 316/50/184 315/50/184
f 316/50/184 317/50/184 318/50/184
f 318/50/184 317/50/184 319/50/184
f 318/50/184 319/50/184 320/50/184
f 320/50/184 319/50/184 321/50/184
f 320/50/184 321/50/184 322/50/184
f 322/50/184 321/50/184 323/50/184
f 323/50/184 321/50/184 324/50/184
f 324/50/184 321/50/184 325/50/184
f 325/50/184 321/50/184 326/50/184
f 325/50/184 326/50/184 327/50/184
f 327/50/184 326/50/184 328/50/184
f 311/51/187 327/50/186 313/51/185
f 327/50/186 311/51/187 325/50/188
f 309/51/191 324/50/190 310/51/189
f 324/50/190 309/51/191 323/50/192
f 318/50/195 306/51/194 303/51/193
f 306/51/194 318/50/195 320/50/196
f 321/50/199 305/51/198 307/51/197
f 305/51/198 321/50/199 319/50/200
f 312/51/203 328/50/202 326/50/201
f 328/50/202 312/51/203 314/51/202
f 326/50/201 307/51/197 312/51/203
f 307/51/197 326/50/201 321/50/199
f 314/51/204 327/50/186 328/50/204
f 327/50/186 314/51/204 313/51/185
f 320/50/196 308/51/205 306/51/194
f 308/51/205 320/50/196 322/50/206
f 319/50/200 304/51/207 305/51/198
f 304/51/207 319/50/200 317/50/208
f 315/50/209 304/51/207 317/50/208
f 304/51/207 315/50/209 302/51/209
f 316/50/211 303/51/193 301/51/210
f 303/51/193 316/50/211 318/50/195
f 310/51/189 325/50/188 311/51/187
f 325/50/188 310/51/189 324/50/190
f 316/50/211 302/51/212 315/50/212
f 302/51/212 316/50/211 301/51/210
f 322/50/206 309/51/191 308/51/205
f 309/51/191 322/50/206 323/50/192
