mtllib forest_plant.mtl
g plant
v -0.13406 0.13131 -0.10851
v -0.14784 0.10959 -0.14575
v -0.12852 0.17494 -0.097912
v -0.047992 0.17254 -0.19471
v -0.052307 0.10959 -0.20091
v -0.024154 0.14852 -0.16652
v -0.055554 0.098935 -0.05008
v -0.092175 0.12871 -0.003651
v -0.11601 0.16378 -0.10866
v -0.030534 0.10507 -0.17658
v -0.082017 0.0052231 -0.03175
v -0.1181 0.058206 -0.048558
v -0.058066 0.040693 0.011696
v -0.037588 0.093458 -0.065104
v -0.00975 0.0029668 -0.016887
v 0.016998 0.058206 -0.12656
v -0.027423 -0.016977 -0.047498
v 0.039162 0.040693 -0.044438
v 0.013513 0.0052231 -0.086904
v 0.042925 0.12871 -0.081651
v -0.12256 0.11595 -0.21229
v -0.12426 0.16296 -0.21523
v -0.015594 0.098935 -0.073151
v -0.020536 0.17494 -0.16025
v -0.14463 0.17254 -0.13892
v -0.036094 0.16378 -0.1548
v -0.07796 0.14987 -0.13503
v -0.13765 0.10507 -0.11473
v 0.20015 0.087624 -0.055154
v 0.19262 0.13965 -0.055793
v 0.14905 0.14164 -0.062342
v 0.161 0.10557 -0.061846
v 0.20015 0.087624 0.055154
v 0.16819 0.083889 0.061846
v 0.15629 0.1198 0.062342
v 0.15211 0.13241 -0.046142
v 0.049249 0.10343 -0.078
v 0.15211 0.13241 0.046142
v 0.14905 0.14164 0.062342
v 0.071148 0.078818 0.023071
v 0.071148 0.078818 -0.023071
v 0.19262 0.13965 0.055793
v 0.049249 0.10343 0.078
v 0.1011 0.045158 0.078
v 0.0195 -0.00049446 0
v 0.054846 -0.016977 0
v 0.018904 0.030685 -0.056134
v 0.068505 0.0013703 0.055154
v 0.018904 0.030685 0.056134
v 0.068505 0.0013703 -0.055154
v 0.1011 0.045158 -0.078
v 0.075176 0.074292 0
v 0.24852 0.13173 0
v 0.24513 0.092881 0
v 0.15592 0.12091 0
v 0.16819 0.083889 -0.061846
v -0.1181 0.037701 0.048558
v -0.13213 0.10339 0.10418
v -0.13765 0.071785 0.11473
v -0.092175 0.088977 0.003651
v -0.00975 -0.0024723 0.016887
v -0.055554 0.067323 0.05008
v 0.039162 0.024965 0.044438
v 0.042925 0.088977 0.081651
v -0.020536 0.1226 0.16025
v -0.026941 0.090869 0.17035
v -0.027423 -0.016977 0.047498
v 0.013513 -0.00083136 0.086904
v -0.058066 0.024965 -0.011696
v 0.016998 0.037701 0.12656
v -0.14784 0.075072 0.14575
v -0.14463 0.12085 0.13892
v -0.12256 0.079698 0.21229
v -0.12852 0.1226 0.097912
v -0.037588 0.063339 0.065104
v -0.082017 -0.00083136 0.03175
v -0.015594 0.067323 0.073151
v -0.11601 0.11449 0.10866
v -0.12426 0.11389 0.21523
v -0.052307 0.075072 0.20091
v -0.047992 0.12085 0.19471
v -0.036094 0.11449 0.1548
v -0.030534 0.071785 0.17658
v -0.07796 0.10436 0.13503
vn -0.93973 0.049868 0.33826
vn -0.99914 0.037535 0.017664
vn -0.93174 0.024327 0.36232
vn 0.55342 0.030708 -0.83233
vn 0.4868 0.059837 -0.87146
vn 0.77302 0.042161 -0.63298
vn 0.69014 0.64204 0.33391
vn 0.74993 0.6089 0.25853
vn 0.53946 0.84155 0.027665
vn 0.74662 0.04401 -0.66379
vn 0.63456 0.7704 -0.061736
vn -0.47458 -0.53534 0.6987
vn -0.84942 -0.060129 0.52428
vn -0.53066 -0.46796 0.70669
vn 0.59275 0.65365 0.47052
vn 0.72902 0.45471 0.51164
vn 0.89986 -0.069261 -0.43064
vn 0.23409 -0.85864 0.45601
vn 0.87998 -0.44829 -0.15706
vn 0.86694 -0.49151 -0.082669
vn 0.23127 -0.85874 0.45726
vn 0.88206 -0.059276 -0.4674
vn -0.46469 -0.037883 -0.88466
vn -0.46835 -0.036705 -0.88278
vn 0.078588 0.45471 0.88717
vn 0.11111 0.65365 0.7486
vn -0.056111 0.6416 0.76499
vn 0.67026 0.37174 0.64231
vn 0.22112 0.37174 0.90162
vn -0.1498 0.60866 0.77916
vn 0.78461 0.039308 -0.61874
vn 0.36059 0.92995 -0.071957
vn -0.99466 0.040417 0.094937
vn -0.8474 -0.03727 0.52965
vn -0.37025 0.77316 0.51492
vn -0.24834 0.84171 0.47943
vn -0.24261 0.92995 0.2763
vn 0.43469 0.88636 0.1594
vn -0.079299 0.88636 0.45615
vn -0.20041 -0.91615 -0.34713
vn -0.070018 -0.99015 -0.12127
vn 0.3235 0.94567 -0.032339
vn -0.42585 -0.52402 -0.7376
vn -0.36102 -0.69185 -0.62531
vn -0.94645 0.054107 0.31829
vn -0.18976 0.94567 0.26399
vn 0.48411 0.045402 -0.87383
vn 0.41496 0.048886 -0.90853
vn 0.15207 0.029432 -0.98793
vn 0.17682 0.060305 -0.98239
vn 0.51088 0.072343 0.8566
vn 0.20146 0.053229 0.97805
vn 0.1616 0.050993 0.98554
vn -0.2336 0.82541 0.51393
vn -0.25479 0.8834 0.3933
vn -0.55316 0.68054 0.4805
vn -0.25247 0.88352 -0.39452
vn -0.23076 0.82772 -0.51149
vn -0.58134 0.71135 -0.395
vn -0.58109 0.71176 0.39463
vn 0.44401 0.037148 0.89525
vn -0.036219 -0.071666 0.99677
vn 0.14348 0.047545 0.98851
vn -0.076898 -0.083713 0.99352
vn -0.55412 0.68031 -0.47971
vn -0.44161 -0.89687 -0.024468
vn -0.44191 -0.89679 -0.021815
vn -0.3303 -0.53948 -0.77451
vn -0.34315 -0.56396 0.75113
vn -0.29072 -0.51878 0.80396
vn -0.77144 0.52556 -0.35871
vn -0.34554 -0.60855 -0.71433
vn -0.029307 -0.072695 -0.99692
vn -0.64299 0.72252 0.25403
vn -0.77144 0.52556 0.35871
vn -0.64299 0.72252 -0.25403
vn -0.86411 0.43604 0.25137
vn 0.99837 -0.044399 0.035779
vn 0.99815 -0.045823 0.039882
vn -0.86411 0.43604 -0.25137
vn -0.034983 -0.045082 -0.99837
vn -0.099661 0.95054 -0.29419
vn -0.099661 0.95054 0.29419
vn -0.11243 0.96193 0.24911
vn -0.30423 0.9181 0.25403
vn 0.34004 -0.94041 0
vn 0.65313 -0.75724 0
vn -0.11243 0.96193 -0.24911
vn -0.30423 0.9181 -0.25403
vn 0.11609 -0.99324 0
vn 0.80212 -0.59716 0
vn 0.19744 0.065425 -0.97813
vn -0.82113 -0.095031 -0.56278
vn -0.93395 0.057925 -0.35268
vn -0.94735 0.060462 -0.31443
vn 0.65006 0.72571 -0.22532
vn 0.66994 0.57455 -0.47018
vn 0.59071 0.75464 -0.28562
vn 0.07222 0.57455 -0.81527
vn 0.20866 0.48232 -0.85078
vn -0.13099 0.72592 -0.67519
vn 0.77944 0.033441 0.62558
vn 0.88184 -0.051215 0.46875
vn 0.76197 0.068492 0.64398
vn 0.80256 -0.5886 0.097166
vn 0.21782 -0.91734 -0.33322
vn 0.21589 -0.91728 -0.33466
vn 0.75188 -0.657 0.055025
vn 0.63247 0.48232 -0.60609
vn 0.87734 -0.082545 0.47272
vn -0.99652 0.082145 0.014122
vn -0.99712 0.042206 -0.063085
vn -0.53345 -0.052056 0.84423
vn -0.92751 0.054011 -0.36987
vn 0.50449 0.76494 -0.40046
vn -0.53049 -0.56769 -0.62954
vn -0.45817 -0.61309 -0.64359
vn -0.84449 -0.081378 -0.52936
vn 0.094561 0.76494 -0.63713
vn -0.047809 0.75502 -0.65396
vn 0.50978 0.85879 0.051042
vn 0.42233 0.90624 -0.019299
vn 0.27102 0.96105 0.054083
vn -0.53002 -0.050439 0.84648
vn 0.51454 0.051578 0.85591
vn 0.57913 0.055532 0.81334
vn -0.19246 0.90613 -0.37668
vn -0.29987 0.85679 -0.41952
vn -0.18235 0.96105 -0.20767
vn 0.7479 0.0743 0.65964
vn -0.38172 -0.64587 0.66116
vn -0.30229 -0.79654 0.52358
vn 0.33342 0.93482 -0.12226
vn 0.24136 0.97014 0.024127
vn -0.15161 -0.95292 0.26259
vn -0.051159 -0.99475 0.088609
vn -0.060825 0.93482 -0.34988
vn -0.14158 0.97014 -0.19696
vt 0.21875 0.17953
vt 0.21875 0.1569
vt 0.21875 0.225
vt 0.21875 0.22249
vt 0.21875 0.19746
vt 0.21875 0.14579
vt 0.21875 0.17682
vt 0.21875 0.21337
vt 0.21875 0.15219
vt 0.21875 0.048134
vt 0.21875 0.10335
vt 0.21875 0.085098
vt 0.21875 0.14008
vt 0.21875 0.045783
vt 0.21875 0.025
vt 0.21875 0.16352
vt 0.21875 0.21251
vt 0.21875 0.19887
usemtl colormap
f 3/3/3 2/2/2 1/1/1
f 6/5/6 5/2/5 4/4/4
f 9/8/9 8/7/8 7/6/7
f 6/5/6 10/9/10 5/2/5
f 3/3/11 8/7/8 9/8/9
f 13/12/14 12/11/13 11/10/12
f 15/14/16 14/13/15 7/6/7
f 16/11/17 10/9/10 6/5/6
f 11/10/12 17/15/18 13/12/14
f 15/14/21 19/10/20 18/12/19
f 20/7/22 19/10/20 16/11/17
f 2/2/2 22/17/24 21/16/23
f 23/6/27 14/13/26 15/14/25
f 13/12/28 15/14/16 8/7/8
f 20/7/30 15/14/25 18/12/29
f 4/4/4 21/16/23 22/17/24
f 24/3/31 6/5/6 4/4/4
f 25/4/32 3/3/11 9/8/9
f 25/4/33 22/17/24 2/2/2
f 8/7/34 1/1/1 12/11/13
f 20/7/22 16/11/17 6/5/6
f 24/3/35 23/6/27 20/7/30
f 20/7/22 6/5/6 24/3/31
f 17/15/18 19/10/20 15/14/21
f 26/8/36 23/6/27 24/3/35
f 3/3/3 25/4/33 2/2/2
f 8/7/8 15/14/16 7/6/7
f 8/7/34 3/3/3 1/1/1
f 4/4/4 5/2/5 21/16/23
f 13/12/14 8/7/34 12/11/13
f 4/4/37 26/8/36 24/3/35
f 13/12/14 17/15/18 15/14/21
f 18/12/19 19/10/20 20/7/22
f 20/7/30 23/6/27 15/14/25
f 27/18/38 7/6/7 14/13/15
f 7/6/7 27/18/38 9/8/9
f 26/8/36 14/13/26 23/6/27
f 14/13/26 26/8/36 27/18/39
f 28/9/40 5/2/41 10/9/40
f 5/2/41 28/9/40 21/16/41
f 21/16/41 28/9/40 2/2/41
f 22/17/42 9/8/9 27/18/38
f 9/8/9 22/17/42 25/4/32
f 11/10/43 19/10/43 17/15/43
f 19/10/43 11/10/43 12/11/44
f 19/10/43 12/11/44 16/11/44
f 28/9/45 1/1/1 2/2/2
f 1/1/1 28/9/45 12/11/13
f 12/11/44 10/9/40 16/11/44
f 10/9/40 12/11/44 28/9/40
f 4/4/37 27/18/39 26/8/36
f 27/18/39 4/4/37 22/17/46
f 31/3/49 30/4/48 29/2/47
f 31/3/49 29/2/47 32/1/50
f 35/5/53 34/9/52 33/2/51
f 37/7/56 36/8/55 31/3/54
f 40/6/59 39/3/58 38/8/57
f 37/7/56 41/6/60 36/8/55
f 42/4/61 35/5/53 33/2/51
f 39/3/63 43/7/62 35/5/53
f 35/5/53 43/7/62 44/11/64
f 43/7/65 39/3/58 40/6/59
f 47/12/68 46/15/67 45/14/66
f 43/7/62 49/12/70 48/10/69
f 43/7/65 40/6/59 45/14/71
f 51/11/73 50/10/72 47/12/68
f 45/14/75 52/13/74 41/6/60
f 40/6/59 52/13/76 45/14/71
f 45/14/75 37/7/56 47/12/77
f 54/16/79 29/2/47 53/17/78
f 35/5/53 44/11/64 34/9/52
f 47/12/68 50/10/72 46/15/67
f 49/12/70 45/14/66 48/10/69
f 43/7/65 45/14/71 49/12/80
f 42/4/61 54/16/79 53/17/78
f 43/7/62 48/10/69 44/11/64
f 31/3/49 32/1/50 37/7/81
f 37/7/81 51/11/73 47/12/68
f 45/14/66 46/15/67 48/10/69
f 39/3/58 42/4/82 38/8/57
f 31/3/54 36/8/55 30/4/83
f 53/17/78 29/2/47 30/4/48
f 42/4/61 33/2/51 54/16/79
f 39/3/63 35/5/53 42/4/61
f 32/1/50 51/11/73 37/7/81
f 45/14/75 41/6/60 37/7/56
f 30/4/83 55/18/85 53/17/84
f 55/18/85 30/4/83 36/8/55
f 34/9/86 51/11/87 56/9/86
f 51/11/87 34/9/86 44/11/87
f 55/18/89 42/4/82 53/17/88
f 42/4/82 55/18/89 38/8/57
f 36/8/55 52/13/74 55/18/85
f 52/13/74 36/8/55 41/6/60
f 33/2/90 29/2/90 54/16/90
f 29/2/90 33/2/90 56/9/86
f 56/9/86 33/2/90 34/9/86
f 52/13/76 38/8/57 55/18/89
f 38/8/57 52/13/76 40/6/59
f 44/11/87 50/10/91 51/11/87
f 50/10/91 44/11/87 46/15/91
f 46/15/91 44/11/87 48/10/91
f 32/1/50 56/9/92 51/11/73
f 56/9/92 32/1/50 29/2/47
f 59/9/95 58/5/94 57/11/93
f 62/6/98 61/14/97 60/7/96
f 64/7/101 63/12/100 61/14/99
f 66/1/104 64/7/103 65/3/102
f 67/15/107 61/14/106 63/12/105
f 67/15/107 63/12/105 68/10/108
f 61/14/97 69/12/109 60/7/96
f 70/11/110 63/12/105 64/7/103
f 73/16/113 72/4/112 71/2/111
f 72/4/112 74/3/114 58/5/94
f 75/13/115 61/14/97 62/6/98
f 70/11/110 68/10/108 63/12/105
f 76/10/117 69/12/116 61/14/106
f 60/7/118 76/10/117 57/11/93
f 77/6/120 61/14/99 75/13/119
f 72/4/123 78/8/122 74/3/121
f 79/17/124 72/4/112 73/16/113
f 79/17/124 73/16/113 80/2/125
f 76/10/117 60/7/118 69/12/116
f 81/4/126 79/17/124 80/2/125
f 76/10/117 61/14/106 67/15/107
f 64/7/101 61/14/99 77/6/120
f 81/4/129 65/3/128 82/8/127
f 82/8/127 64/7/101 77/6/120
f 58/5/94 74/3/114 60/7/118
f 74/3/121 62/6/98 60/7/96
f 58/5/94 60/7/118 57/11/93
f 71/2/111 58/5/94 59/9/95
f 80/2/125 66/1/104 65/3/102
f 82/8/127 65/3/128 64/7/101
f 74/3/121 78/8/122 62/6/98
f 66/1/104 70/11/110 64/7/103
f 71/2/111 72/4/112 58/5/94
f 80/2/125 65/3/102 81/4/126
f 66/1/104 83/9/130 70/11/110
f 83/9/130 66/1/104 80/2/125
f 68/10/131 76/10/131 67/15/131
f 76/10/131 68/10/131 70/11/132
f 76/10/131 70/11/132 57/11/132
f 78/8/122 79/17/134 84/18/133
f 79/17/134 78/8/122 72/4/123
f 83/9/135 57/11/132 70/11/132
f 57/11/132 83/9/135 59/9/135
f 80/2/136 59/9/135 83/9/135
f 59/9/135 80/2/136 73/16/136
f 59/9/135 73/16/136 71/2/136
f 84/18/137 81/4/129 82/8/127
f 81/4/129 84/18/137 79/17/138
f 62/6/98 84/18/133 75/13/115
f 84/18/133 62/6/98 78/8/122
f 75/13/119 82/8/127 77/6/120
f 82/8/127 75/13/119 84/18/137
g plant
usemtl colormap
f 3/3/3 2/2/2 1/1/1
f 6/5/6 5/2/5 4/4/4
f 9/8/9 8/7/8 7/6/7
f 6/5/6 10/9/10 5/2/5
f 3/3/11 8/7/8 9/8/9
f 13/12/14 12/11/13 11/10/12
f 15/14/16 14/13/15 7/6/7
f 16/11/17 10/9/10 6/5/6
f 11/10/12 17/15/18 13/12/14
f 15/14/21 19/10/20 18/12/19
f 20/7/22 19/10/20 16/11/17
f 2/2/2 22/17/24 21/16/23
f 23/6/27 14/13/26 15/14/25
f 13/12/28 15/14/16 8/7/8
f 20/7/30 15/14/25 18/12/29
f 4/4/4 21/16/23 22/17/24
f 24/3/31 6/5/6 4/4/4
f 25/4/32 3/3/11 9/8/9
f 25/4/33 22/17/24 2/2/2
f 8/7/34 1/1/1 12/11/13
f 20/7/22 16/11/17 6/5/6
f 24/3/35 23/6/27 20/7/30
f 20/7/22 6/5/6 24/3/31
f 17/15/18 19/10/20 15/14/21
f 26/8/36 23/6/27 24/3/35
f 3/3/3 25/4/33 2/2/2
f 8/7/8 15/14/16 7/6/7
f 8/7/34 3/3/3 1/1/1
f 4/4/4 5/2/5 21/16/23
f 13/12/14 8/7/34 12/11/13
f 4/4/37 26/8/36 24/3/35
f 13/12/14 17/15/18 15/14/21
f 18/12/19 19/10/20 20/7/22
f 20/7/30 23/6/27 15/14/25
f 27/18/38 7/6/7 14/13/15
f 7/6/7 27/18/38 9/8/9
f 26/8/36 14/13/26 23/6/27
f 14/13/26 26/8/36 27/18/39
f 28/9/40 5/2/41 10/9/40
f 5/2/41 28/9/40 21/16/41
f 21/16/41 28/9/40 2/2/41
f 22/17/42 9/8/9 27/18/38
f 9/8/9 22/17/42 25/4/32
f 11/10/43 19/10/43 17/15/43
f 19/10/43 11/10/43 12/11/44
f 19/10/43 12/11/44 16/11/44
f 28/9/45 1/1/1 2/2/2
f 1/1/1 28/9/45 12/11/13
f 12/11/44 10/9/40 16/11/44
f 10/9/40 12/11/44 28/9/40
f 4/4/37 27/18/39 26/8/36
f 27/18/39 4/4/37 22/17/46
f 31/3/49 30/4/48 29/2/47
f 31/3/49 29/2/47 32/1/50
f 35/5/53 34/9/52 33/2/51
f 37/7/56 36/8/55 31/3/54
f 40/6/59 39/3/58 38/8/57
f 37/7/56 41/6/60 36/8/55
f 42/4/61 35/5/53 33/2/51
f 39/3/63 43/7/62 35/5/53
f 35/5/53 43/7/62 44/11/64
f 43/7/65 39/3/58 40/6/59
f 47/12/68 46/15/67 45/14/66
f 43/7/62 49/12/70 48/10/69
f 43/7/65 40/6/59 45/14/71
f 51/11/73 50/10/72 47/12/68
f 45/14/75 52/13/74 41/6/60
f 40/6/59 52/13/76 45/14/71
f 45/14/75 37/7/56 47/12/77
f 54/16/79 29/2/47 53/17/78
f 35/5/53 44/11/64 34/9/52
f 47/12/68 50/10/72 46/15/67
f 49/12/70 45/14/66 48/10/69
f 43/7/65 45/14/71 49/12/80
f 42/4/61 54/16/79 53/17/78
f 43/7/62 48/10/69 44/11/64
f 31/3/49 32/1/50 37/7/81
f 37/7/81 51/11/73 47/12/68
f 45/14/66 46/15/67 48/10/69
f 39/3/58 42/4/82 38/8/57
f 31/3/54 36/8/55 30/4/83
f 53/17/78 29/2/47 30/4/48
f 42/4/61 33/2/51 54/16/79
f 39/3/63 35/5/53 42/4/61
f 32/1/50 51/11/73 37/7/81
f 45/14/75 41/6/60 37/7/56
f 30/4/83 55/18/85 53/17/84
f 55/18/85 30/4/83 36/8/55
f 34/9/86 51/11/87 56/9/86
f 51/11/87 34/9/86 44/11/87
f 55/18/89 42/4/82 53/17/88
f 42/4/82 55/18/89 38/8/57
f 36/8/55 52/13/74 55/18/85
f 52/13/74 36/8/55 41/6/60
f 33/2/90 29/2/90 54/16/90
f 29/2/90 33/2/90 56/9/86
f 56/9/86 33/2/90 34/9/86
f 52/13/76 38/8/57 55/18/89
f 38/8/57 52/13/76 40/6/59
f 44/11/87 50/10/91 51/11/87
f 50/10/91 44/11/87 46/15/91
f 46/15/91 44/11/87 48/10/91
f 32/1/50 56/9/92 51/11/73
f 56/9/92 32/1/50 29/2/47
f 59/9/95 58/5/94 57/11/93
f 62/6/98 61/14/97 60/7/96
f 64/7/101 63/12/100 61/14/99
f 66/1/104 64/7/103 65/3/102
f 67/15/107 61/14/106 63/12/105
f 67/15/107 63/12/105 68/10/108
f 61/14/97 69/12/109 60/7/96
f 70/11/110 63/12/105 64/7/103
f 73/16/113 72/4/112 71/2/111
f 72/4/112 74/3/114 58/5/94
f 75/13/115 61/14/97 62/6/98
f 70/11/110 68/10/108 63/12/105
f 76/10/117 69/12/116 61/14/106
f 60/7/118 76/10/117 57/11/93
f 77/6/120 61/14/99 75/13/119
f 72/4/123 78/8/122 74/3/121
f 79/17/124 72/4/112 73/16/113
f 79/17/124 73/16/113 80/2/125
f 76/10/117 60/7/118 69/12/116
f 81/4/126 79/17/124 80/2/125
f 76/10/117 61/14/106 67/15/107
f 64/7/101 61/14/99 77/6/120
f 81/4/129 65/3/128 82/8/127
f 82/8/127 64/7/101 77/6/120
f 58/5/94 74/3/114 60/7/118
f 74/3/121 62/6/98 60/7/96
f 58/5/94 60/7/118 57/11/93
f 71/2/111 58/5/94 59/9/95
f 80/2/125 66/1/104 65/3/102
f 82/8/127 65/3/128 64/7/101
f 74/3/121 78/8/122 62/6/98
f 66/1/104 70/11/110 64/7/103
f 71/2/111 72/4/112 58/5/94
f 80/2/125 65/3/102 81/4/126
f 66/1/104 83/9/130 70/11/110
f 83/9/130 66/1/104 80/2/125
f 68/10/131 76/10/131 67/15/131
f 76/10/131 68/10/131 70/11/132
f 76/10/131 70/11/132 57/11/132
f 78/8/122 79/17/134 84/18/133
f 79/17/134 78/8/122 72/4/123
f 83/9/135 57/11/132 70/11/132
f 57/11/132 83/9/135 59/9/135
f 80/2/136 59/9/135 83/9/135
f 59/9/135 80/2/136 73/16/136
f 59/9/135 73/16/136 71/2/136
f 84/18/137 81/4/129 82/8/127
f 81/4/129 84/18/137 79/17/138
f 62/6/98 84/18/133 75/13/115
f 84/18/133 62/6/98 78/8/122
f 75/13/119 82/8/127 77/6/120
f 82/8/127 75/13/119 84/18/137
