mtllib survival_tool-pickaxe-upgraded.mtl
g tool-pickaxe-upgraded
v 0.0129 0 -0.0129
v 0.0129 0 0.0129
v 0.00915 0.18 -0.00915
v 0.00915 0.18 0.00915
v -0.0129 0 0.0129
v -0.0129 0 -0.0129
v -0.00915 0.18 0.00915
v -0.00915 0.18 -0.00915
v 0.016254 0.1398 0.016254
v 0.016254 0.1398 -0.016254
v -0.016254 0.1398 0.016254
v -0.016254 0.1398 -0.016254
v 0.01935 0.1602 0.01935
v -0.01935 0.1602 0.01935
v -0.01935 0.1602 -0.01935
v 0.01935 0.1602 -0.01935
v 0.089304 0.18864 0.0072005
v 0.041169 0.20174 0.0072005
v 0.089304 0.21864 0.0072005
v 0.015463 0.20174 0.0072005
v 0.015463 0.23174 0.0072005
v 0.041169 0.23174 0.0072005
v -0.041169 0.23174 -0.0072005
v -0.041169 0.23174 0.0072005
v -0.089304 0.21864 -0.0072005
v -0.089304 0.21864 0.0072005
v 0.041169 0.23174 -0.0072005
v 0.015463 0.23174 -0.0072005
v 0.089304 0.21864 -0.0072005
v 0.089304 0.18864 -0.0072005
v 0.015463 0.24 -0.015463
v 0.015463 0.24 0.015463
v -0.015463 0.24 -0.015463
v -0.015463 0.24 0.015463
v 0.015463 0.18 0.015463
v 0.015463 0.18 -0.015463
v -0.015463 0.18 0.015463
v -0.015463 0.18 -0.015463
v 0.015463 0.20174 -0.0072005
v 0.041169 0.20174 -0.0072005
v -0.089304 0.18864 -0.0072005
v -0.041169 0.20174 -0.0072005
v -0.015463 0.20174 -0.0072005
v -0.015463 0.23174 -0.0072005
v -0.015463 0.23174 0.0072005
v -0.089304 0.18864 0.0072005
v -0.015463 0.20174 0.0072005
v -0.041169 0.20174 0.0072005
v -0.01 0.03 -0.02
v 0.01 0.03 -0.02
v -0.01 0.115 -0.02
v 0.01 0.115 -0.02
v -0.02 0.03 -0.01
v -0.02 0.115 -0.01
v -0.02 0.03 0.01
v -0.02 0.115 0.01
v 0.01 0.03 0.02
v -0.01 0.03 0.02
v 0.01 0.115 0.02
v -0.01 0.115 0.02
v 0.02 0.115 -0.01
v 0.02 0.03 -0.01
v 0.02 0.115 0.01
v 0.02 0.03 0.01
vn 0.99978 0.020829 0
vn 0 -1 0
vn 0 0.020829 0.99978
vn 0 0.020829 -0.99978
vn -0.99978 0.020829 0
vn 0 -0.15005 0.98868
vn 0 -0.15005 -0.98868
vn -0.98868 -0.15005 0
vn 0.98868 -0.15005 0
vn 0 1 0
vn 0 0 1
vn -0.13243 0.99119 0
vn -0.79452 0.60723 0
vn -0.79452 0.60723 0
vn 0.13243 0.99119 0
vn 0.79452 0.60723 0
vn 1 0 0
vn 0.79452 0.60723 0
vn 0 0 -1
vn -1 0 0
vn 0 -1 -2.8572e-07
vn 0.13243 -0.99119 -2.8666e-07
vn 0.26254 -0.96492 -2.8255e-07
vn -0.26254 -0.96492 -2.8312e-07
vn -0.13243 -0.99119 -2.7953e-07
vn 0 -1 -2.7102e-07
vn -0.38268 0 -0.92388
vn 0.38268 0 -0.92388
vn -0.92388 0 -0.38268
vn -0.92388 0 0.38268
vn 0.38268 0 0.92388
vn -0.38268 0 0.92388
vn 0.92388 0 -0.38268
vn 0.92388 0 0.38268
vt 0.21875 0.025
vt 0.21875 0.225
vt 0.34375 0.025
vt 0.34375 0.225
vt 0.34375 0.033685
vt 0.34375 0.1182
vt 0.34375 0.18368
vt 0.34375 0.033685
vt 0.34375 0.033685
vt 0.59375 0.025
vt 0.59375 0.225
usemtl colormap
f 3/2/1 2/1/1 1/1/1
f 2/1/1 3/2/1 4/2/1
f 5/1/2 1/1/2 2/1/2
f 1/1/2 5/1/2 6/1/2
f 4/2/3 5/1/3 2/1/3
f 5/1/3 4/2/3 7/2/3
f 8/2/4 1/1/4 6/1/4
f 1/1/4 8/2/4 3/2/4
f 5/1/5 8/2/5 6/1/5
f 8/2/5 5/1/5 7/2/5
f 11/3/2 10/3/2 9/3/2
f 10/3/2 11/3/2 12/3/2
f 13/4/6 11/3/6 9/3/6
f 11/3/6 13/4/6 14/4/6
f 15/4/7 10/3/7 12/3/7
f 10/3/7 15/4/7 16/4/7
f 12/3/8 14/4/8 15/4/8
f 14/4/8 12/3/8 11/3/8
f 13/4/9 10/3/9 16/4/9
f 10/3/9 13/4/9 9/3/9
f 15/4/10 13/4/10 16/4/10
f 13/4/10 15/4/10 14/4/10
f 19/6/11 18/5/11 17/3/11
f 18/5/11 19/6/11 20/5/11
f 20/5/11 19/6/11 21/7/11
f 21/7/11 19/6/11 22/7/11
f 25/6/13 24/7/12 23/7/12
f 24/7/12 25/6/13 26/6/14
f 28/7/10 22/7/15 27/7/15
f 22/7/15 28/7/10 21/7/10
f 19/6/18 30/3/17 29/6/16
f 30/3/17 19/6/18 17/3/17
f 33/4/10 32/4/10 31/4/10
f 32/4/10 33/4/10 34/4/10
f 37/3/2 36/3/2 35/3/2
f 36/3/2 37/3/2 38/3/2
f 28/7/19 40/8/19 39/8/19
f 40/8/19 28/7/19 29/6/19
f 29/6/19 28/7/19 27/7/19
f 29/6/19 30/3/19 40/8/19
f 25/6/19 42/9/19 41/3/19
f 42/9/19 25/6/19 43/9/19
f 43/9/19 25/6/19 44/7/19
f 44/7/19 25/6/19 23/7/19
f 33/4/19 36/3/19 38/3/19
f 36/3/19 33/4/19 31/4/19
f 23/7/12 45/7/10 44/7/10
f 45/7/10 23/7/12 24/7/12
f 27/7/15 19/6/18 29/6/16
f 19/6/18 27/7/15 22/7/15
f 41/3/20 26/6/14 25/6/13
f 26/6/14 41/3/20 46/3/20
f 32/4/11 37/3/11 35/3/11
f 37/3/11 32/4/11 34/4/11
f 45/7/11 48/5/11 47/5/11
f 48/5/11 45/7/11 26/6/11
f 26/6/11 45/7/11 24/7/11
f 26/6/11 46/3/11 48/5/11
f 48/5/22 43/9/21 47/5/21
f 43/9/21 48/5/22 42/9/22
f 46/3/23 42/9/22 48/5/22
f 42/9/22 46/3/23 41/3/23
f 17/3/24 40/8/25 30/3/24
f 40/8/25 17/3/24 18/5/25
f 18/5/25 39/8/26 40/8/25
f 39/8/26 18/5/25 20/5/26
f 38/3/20 43/9/20 33/4/20
f 43/9/20 38/3/20 37/3/20
f 33/4/20 43/9/20 44/7/20
f 43/9/20 37/3/20 47/5/20
f 44/7/20 34/4/20 33/4/20
f 34/4/20 47/5/20 37/3/20
f 34/4/20 44/7/20 45/7/20
f 34/4/20 45/7/20 47/5/20
f 28/7/17 32/4/17 21/7/17
f 21/7/17 32/4/17 20/5/17
f 28/7/17 31/4/17 32/4/17
f 35/3/17 20/5/17 32/4/17
f 31/4/17 28/7/17 36/3/17
f 35/3/17 39/8/17 20/5/17
f 36/3/17 39/8/17 35/3/17
f 39/8/17 36/3/17 28/7/17
f 51/11/27 50/10/28 49/10/27
f 50/10/28 51/11/27 52/11/28
f 55/10/30 54/11/29 53/10/29
f 54/11/29 55/10/30 56/11/30
f 59/11/31 58/10/32 57/10/31
f 58/10/32 59/11/31 60/11/32
f 63/11/34 62/10/33 61/11/33
f 62/10/33 63/11/34 64/10/34
f 52/11/28 62/10/33 50/10/28
f 62/10/33 52/11/28 61/11/33
f 54/11/29 49/10/27 53/10/29
f 49/10/27 54/11/29 51/11/27
f 60/11/32 55/10/30 58/10/32
f 55/10/30 60/11/32 56/11/30
f 63/11/34 57/10/31 64/10/34
f 57/10/31 63/11/34 59/11/31
f 52/11/10 63/11/10 61/11/10
f 63/11/10 52/11/10 59/11/10
f 59/11/10 52/11/10 51/11/10
f 59/11/10 51/11/10 60/11/10
f 60/11/10 51/11/10 54/11/10
f 60/11/10 54/11/10 56/11/10
f 57/10/2 62/10/2 64/10/2
f 62/10/2 57/10/2 50/10/2
f 50/10/2 57/10/2 58/10/2
f 50/10/2 58/10/2 49/10/2
f 49/10/2 58/10/2 55/10/2
f 49/10/2 55/10/2 53/10/2
g tool-pickaxe-upgraded
usemtl colormap
f 3/2/1 2/1/1 1/1/1
f 2/1/1 3/2/1 4/2/1
f 5/1/2 1/1/2 2/1/2
f 1/1/2 5/1/2 6/1/2
f 4/2/3 5/1/3 2/1/3
f 5/1/3 4/2/3 7/2/3
f 8/2/4 1/1/4 6/1/4
f 1/1/4 8/2/4 3/2/4
f 5/1/5 8/2/5 6/1/5
f 8/2/5 5/1/5 7/2/5
f 11/3/2 10/3/2 9/3/2
f 10/3/2 11/3/2 12/3/2
f 13/4/6 11/3/6 9/3/6
f 11/3/6 13/4/6 14/4/6
f 15/4/7 10/3/7 12/3/7
f 10/3/7 15/4/7 16/4/7
f 12/3/8 14/4/8 15/4/8
f 14/4/8 12/3/8 11/3/8
f 13/4/9 10/3/9 16/4/9
f 10/3/9 13/4/9 9/3/9
f 15/4/10 13/4/10 16/4/10
f 13/4/10 15/4/10 14/4/10
f 19/6/11 18/5/11 17/3/11
f 18/5/11 19/6/11 20/5/11
f 20/5/11 19/6/11 21/7/11
f 21/7/11 19/6/11 22/7/11
f 25/6/13 24/7/12 23/7/12
f 24/7/12 25/6/13 26/6/14
f 28/7/10 22/7/15 27/7/15
f 22/7/15 28/7/10 21/7/10
f 19/6/18 30/3/17 29/6/16
f 30/3/17 19/6/18 17/3/17
f 33/4/10 32/4/10 31/4/10
f 32/4/10 33/4/10 34/4/10
f 37/3/2 36/3/2 35/3/2
f 36/3/2 37/3/2 38/3/2
f 28/7/19 40/8/19 39/8/19
f 40/8/19 28/7/19 29/6/19
f 29/6/19 28/7/19 27/7/19
f 29/6/19 30/3/19 40/8/19
f 25/6/19 42/9/19 41/3/19
f 42/9/19 25/6/19 43/9/19
f 43/9/19 25/6/19 44/7/19
f 44/7/19 25/6/19 23/7/19
f 33/4/19 36/3/19 38/3/19
f 36/3/19 33/4/19 31/4/19
f 23/7/12 45/7/10 44/7/10
f 45/7/10 23/7/12 24/7/12
f 27/7/15 19/6/18 29/6/16
f 19/6/18 27/7/15 22/7/15
f 41/3/20 26/6/14 25/6/13
f 26/6/14 41/3/20 46/3/20
f 32/4/11 37/3/11 35/3/11
f 37/3/11 32/4/11 34/4/11
f 45/7/11 48/5/11 47/5/11
f 48/5/11 45/7/11 26/6/11
f 26/6/11 45/7/11 24/7/11
f 26/6/11 46/3/11 48/5/11
f 48/5/22 43/9/21 47/5/21
f 43/9/21 48/5/22 42/9/22
f 46/3/23 42/9/22 48/5/22
f 42/9/22 46/3/23 41/3/23
f 17/3/24 40/8/25 30/3/24
f 40/8/25 17/3/24 18/5/25
f 18/5/25 39/8/26 40/8/25
f 39/8/26 18/5/25 20/5/26
f 38/3/20 43/9/20 33/4/20
f 43/9/20 38/3/20 37/3/20
f 33/4/20 43/9/20 44/7/20
f 43/9/20 37/3/20 47/5/20
f 44/7/20 34/4/20 33/4/20
f 34/4/20 47/5/20 37/3/20
f 34/4/20 44/7/20 45/7/20
f 34/4/20 45/7/20 47/5/20
f 28/7/17 32/4/17 21/7/17
f 21/7/17 32/4/17 20/5/17
f 28/7/17 31/4/17 32/4/17
f 35/3/17 20/5/17 32/4/17
f 31/4/17 28/7/17 36/3/17
f 35/3/17 39/8/17 20/5/17
f 36/3/17 39/8/17 35/3/17
f 39/8/17 36/3/17 28/7/17
f 51/11/27 50/10/28 49/10/27
f 50/10/28 51/11/27 52/11/28
f 55/10/30 54/11/29 53/10/29
f 54/11/29 55/10/30 56/11/30
f 59/11/31 58/10/32 57/10/31
f 58/10/32 59/11/31 60/11/32
f 63/11/34 62/10/33 61/11/33
f 62/10/33 63/11/34 64/10/34
f 52/11/28 62/10/33 50/10/28
f 62/10/33 52/11/28 61/11/33
f 54/11/29 49/10/27 53/10/29
f 49/10/27 54/11/29 51/11/27
f 60/11/32 55/10/30 58/10/32
f 55/10/30 60/11/32 56/11/30
f 63/11/34 57/10/31 64/10/34
f 57/10/31 63/11/34 59/11/31
f 52/11/10 63/11/10 61/11/10
f 63/11/10 52/11/10 59/11/10
f 59/11/10 52/11/10 51/11/10
f 59/11/10 51/11/10 60/11/10
f 60/11/10 51/11/10 54/11/10
f 60/11/10 54/11/10 56/11/10
f 57/10/2 62/10/2 64/10/2
f 62/10/2 57/10/2 50/10/2
f 50/10/2 57/10/2 58/10/2
f 50/10/2 58/10/2 49/10/2
f 49/10/2 58/10/2 55/10/2
f 49/10/2 55/10/2 53/10/2
