mtllib survival_rock-flat.mtl
g rock-flat
v 0.56126 0.0825 -0.51753
v 0.55056 0.0825 -0.499
v 0.54382 1.9176e-16 -0.54773
v 0.67203 0.0825 -0.38279
v 0.70268 0.0825 -0.43588
v 0.71281 1.9176e-16 -0.39304
v 0.73755 1.9176e-16 -0.43588
v 0.66576 0.0825 -0.44675
v 0.65554 0.0825 -0.51753
v 0.67297 1.9176e-16 -0.54773
v 0.7373 1.8048e-16 -0.1433
v 0.67203 0.0825 -0.38279
v 0.71281 1.9176e-16 -0.39304
v 0.62671 0.165 -0.41879
v 0.66576 0.0825 -0.44675
v 0.70394 0.0825 -0.057271
v 0.67247 0.165 0.047923
v 0.7162 0.0825 0.067762
v -0.72963 0.165 -0.31924
v -0.32351 0.165 -0.55372
v -0.72963 0.165 0.14971
v -0.32351 0.165 0.38418
v -0.07937 0.165 -0.41276
v 0.0083156 0.165 0.1926
v 0.19964 0.165 -0.61251
v 0.29116 0.165 0.32091
v 0.3835 9.0239e-17 0.35711
v 0.33793 0.0825 0.33858
v 0.40311 1.3536e-16 0.34307
v 0.44095 0.0825 0.26482
v 0.29585 0.0825 0.36871
v 0.19027 1.9176e-16 -0.70811
v 0.54382 1.9176e-16 -0.54773
v 0.55056 0.0825 -0.499
v -0.32351 0.0825 -0.60174
v -0.19631 0.0825 -0.5283
v -0.084204 1.8048e-16 -0.5116
v -0.134 1.692e-16 -0.54035
v -0.77122 0.0825 -0.34325
v -0.65453 0.0825 -0.41063
v -0.4548 0.0825 -0.52594
v -0.51711 1.692e-16 -0.53799
v -0.65468 1.692e-16 -0.45856
v -0.32351 0.0825 0.43221
v -0.5647 0.0825 0.29296
v -0.81282 1.692e-16 0.19773
v -0.64777 1.692e-16 0.29302
v -0.81282 1.692e-16 -0.13627
v -0.77122 0.0825 -0.1601
v -0.153 1.692e-16 0.38179
v -0.23607 0.0825 0.38172
v 0.012884 1.8048e-16 0.28602
v 0.2061 0.0825 0.32799
v 0.15757 9.0239e-17 0.35165
v -0.53123 1.692e-16 -0.56246
v -0.51711 1.692e-16 -0.53799
v -0.42873 1.692e-16 -0.74
v -0.27226 1.692e-16 0.70784
v -0.22373 1.692e-16 -0.74
v -0.57976 1.692e-16 0.70784
v -0.73351 1.692e-16 0.44154
v -0.65468 1.692e-16 -0.45856
v -0.79389 1.692e-16 -0.45856
v -0.81282 1.692e-16 0.19773
v -0.89639 1.692e-16 -0.28103
v -0.153 1.7206e-16 0.38179
v -0.11851 1.692e-16 0.44154
v -0.134 1.7366e-16 -0.54035
v -0.12123 1.692e-16 -0.56246
v 0.012884 1.8048e-16 0.28602
v -0.084204 1.8048e-16 -0.5116
v 0.19027 1.9176e-16 -0.70811
v 0.15757 9.3076e-17 0.35165
v 0.20438 0 0.49427
v 0.13981 0 0.38242
v 0.33353 0 0.49427
v 0.3835 9.5879e-17 0.35711
v 0.39811 0 0.38242
v 0.40311 1.3504e-16 0.34307
v 0.42875 1.692e-16 0.38749
v 0.73625 1.692e-16 0.38749
v 0.71281 1.9037e-16 -0.39304
v 0.73755 1.9176e-16 -0.43588
v 0.7373 1.8048e-16 -0.1433
v 0.89 1.692e-16 0.12118
v -0.84104 0.0825 -0.28103
v -0.77122 0.0825 -0.1601
v -0.76622 0.0825 -0.41063
v -0.81282 1.692e-16 -0.13627
v -0.79389 1.692e-16 -0.45856
v -0.65468 1.692e-16 -0.45856
v 0.36324 0.0825 0.38242
v 0.39811 0 0.38242
v 0.33353 0 0.49427
v 0.20438 0 0.49427
v 0.3161 0.0825 0.46407
v 0.22182 0.0825 0.46407
v 0.17468 0.0825 0.38242
v 0.2061 0.0825 0.32799
v 0.29585 0.0825 0.36871
v 0.13981 0 0.38242
v 0.15757 9.5879e-17 0.35165
v 0.48201 2.256e-16 0.48835
v 0.46467 2.256e-16 0.44145
v 0.43511 2.256e-16 0.50569
v 0.41778 2.256e-16 0.45879
v 0.4595 0.03 0.45269
v 0.47077 0.03 0.48318
v 0.42902 0.03 0.46396
v 0.44029 0.03 0.49445
v 0.58106 0.0825 0.28764
v 0.61323 0.0825 0.24937
v 0.54279 0.0825 0.25547
v 0.57496 0.0825 0.21719
v 0.6009 0.1125 0.25043
v 0.57999 0.1125 0.27531
v 0.57603 0.1125 0.22952
v 0.55511 0.1125 0.2544
v 0.22453 0.165 -0.48388
v 0.23289 0.165 -0.53318
v 0.17523 0.165 -0.49224
v 0.18359 0.165 -0.54154
v 0.2228 0.195 -0.52601
v 0.21736 0.195 -0.49397
v 0.19076 0.195 -0.53145
v 0.18532 0.195 -0.49941
v -0.5055 0.0825 0.37789
v -0.55151 0.0825 0.3583
v -0.52509 0.0825 0.4239
v -0.57109 0.0825 0.40431
v -0.54688 0.1125 0.36978
v -0.51698 0.1125 0.38251
v -0.55961 0.1125 0.39968
v -0.52971 0.1125 0.41242
v -0.60155 4.5119e-17 -0.52202
v -0.59846 4.5119e-17 -0.57192
v -0.65145 4.5119e-17 -0.52511
v -0.64836 4.5119e-17 -0.57501
v -0.60773 0.03 -0.56373
v -0.60974 0.03 -0.53129
v -0.64017 0.03 -0.56574
v -0.64218 0.03 -0.5333
v -0.53123 1.692e-16 -0.56246
v -0.42873 1.692e-16 -0.74
v -0.47588 0.0825 -0.56246
v -0.40106 0.0825 -0.69207
v -0.17658 0.0825 -0.56246
v -0.134 1.7484e-16 -0.54035
v -0.12123 1.692e-16 -0.56246
v -0.25141 0.0825 -0.69207
v -0.22373 1.692e-16 -0.74
v -0.73351 1.692e-16 0.44154
v -0.65049 0.0825 0.44154
v -0.5647 0.0825 0.29296
v -0.27226 1.692e-16 0.70784
v -0.57976 1.692e-16 0.70784
v -0.31377 0.0825 0.63594
v -0.53825 0.0825 0.63594
v -0.20154 0.0825 0.44154
v -0.11851 1.692e-16 0.44154
v -0.23607 0.0825 0.38172
v -0.153 1.7484e-16 0.38179
v -0.32351 0.0825 0.43221
v 0.40311 1.3536e-16 0.34307
v 0.44095 0.0825 0.26482
v 0.42875 1.692e-16 0.38749
v 0.47026 0.0825 0.31558
v 0.73625 1.692e-16 0.38749
v 0.69474 0.0825 0.31558
v 0.70394 0.0825 -0.057271
v 0.7373 1.8048e-16 -0.1433
v 0.80697 0.0825 0.12118
v 0.89 1.692e-16 0.12118
v 0.7162 0.0825 0.067762
vn -0.81325 0.34374 -0.46953
vn 0.81325 0.34374 0.46953
vn 0 1 0
vn 0.81325 0.34374 -0.46953
vn 1.3993e-08 0.34374 -0.93906
vn 0.88868 0.45016 -0.087136
vn -0.88868 -0.45016 0.087136
vn 0 -1 0
vn 0.5198 0.45016 0.72606
vn -0.5198 -0.45016 -0.72606
vn 0.36888 0.45016 -0.81319
vn -0.36888 -0.45016 0.81319
vn 0.44647 0.45016 -0.77331
vn -0.44647 -0.45016 0.77331
vn -0.5198 0.45016 -0.72606
vn 0.5198 -0.45016 0.72606
vn -0.44647 0.45016 -0.77331
vn 0.44647 -0.45016 0.77331
vn -0.44647 0.45016 0.77331
vn 0.44647 -0.45016 -0.77331
vn -0.89295 0.45016 -1.3306e-08
vn 0.89295 -0.45016 1.3306e-08
vn 0.44647 0.45016 0.77331
vn -0.44647 -0.45016 -0.77331
vn -0.36888 0.45016 0.81319
vn 0.36888 -0.45016 -0.81319
vn -0.74881 0.50238 0.43232
vn -0.74881 0.50238 -0.43232
vn 1.2884e-08 0.50238 -0.86465
vn -1.3993e-08 0.34374 0.93906
vn -0.81325 0.34374 0.46953
vn 0.90043 0.28 -0.33289
vn 0.33289 0.28 0.90043
vn -0.33289 0.28 -0.90043
vn -0.90043 0.28 0.33289
vn 0.73487 0.28 0.61771
vn -0.61771 0.28 0.73487
vn 0.61771 0.28 -0.73487
vn -0.73487 0.28 -0.61771
vn 0.94648 0.28 0.16055
vn -0.16055 0.28 0.94648
vn 0.16055 0.28 -0.94648
vn -0.94648 0.28 -0.16055
vn 0.37608 0.28 -0.88327
vn 0.88327 0.28 0.37608
vn -0.88327 0.28 -0.37608
vn -0.37608 0.28 0.88327
vn 0.95817 0.28 0.059299
vn -0.059299 0.28 0.95817
vn 0.059299 0.28 -0.95817
vn -0.95817 0.28 -0.059299
vn 0.74881 0.50238 0.43232
vn 0.74881 0.50238 -0.43232
vn -0.65287 0.65702 -0.37693
vn -1.1233e-08 0.65702 0.75387
vn -0.65287 0.65702 0.37693
vn 0.65287 0.65702 0.37693
vn 0.65287 0.65702 -0.37693
vt 0.84375 0.225
vt 0.84375 0.025
vt 0.84375 0.125
vt 0.84375 0.20147
vt 0.84375 0.20445
vt 0.84375 0.20613
vt 0.84375 0.21324
vt 0.84375 0.12208
vt 0.84375 0.16584
vt 0.84375 0.22355
usemtl colormap
f 3/2/1 2/1/1 1/1/1
f 6/2/2 5/1/2 4/1/2
f 5/1/2 6/2/2 7/2/2
f 8/1/3 1/1/3 2/1/3
f 1/1/3 8/1/3 9/1/3
f 9/1/3 8/1/3 5/1/3
f 5/1/3 8/1/3 4/1/3
f 7/2/4 9/1/4 5/1/4
f 9/1/4 7/2/4 10/2/4
f 1/1/5 10/2/5 3/2/5
f 10/2/5 1/1/5 9/1/5
f 13/2/6 12/3/6 11/2/6
f 14/1/6 11/2/6 12/3/6
f 14/1/6 12/3/6 15/3/6
f 14/1/6 16/3/6 11/2/6
f 17/1/6 16/3/6 14/1/6
f 16/3/6 17/1/6 18/3/6
f 11/2/7 12/3/7 13/2/7
f 12/3/7 11/2/7 14/1/7
f 15/3/7 12/3/7 14/1/7
f 11/2/7 16/3/7 14/1/7
f 14/1/7 16/3/7 17/1/7
f 18/3/7 17/1/7 16/3/7
f 21/1/3 20/1/3 19/1/3
f 20/1/3 21/1/3 22/1/3
f 20/1/3 22/1/3 23/1/3
f 23/1/3 22/1/3 24/1/3
f 23/1/3 24/1/3 25/1/3
f 25/1/3 24/1/3 26/1/3
f 25/1/3 26/1/3 14/1/3
f 14/1/3 26/1/3 17/1/3
f 19/1/8 20/1/8 21/1/8
f 22/1/8 21/1/8 20/1/8
f 23/1/8 22/1/8 20/1/8
f 24/1/8 22/1/8 23/1/8
f 25/1/8 24/1/8 23/1/8
f 26/1/8 24/1/8 25/1/8
f 14/1/8 26/1/8 25/1/8
f 17/1/8 26/1/8 14/1/8
f 29/2/9 28/3/9 27/2/9
f 28/3/9 29/2/9 30/3/9
f 26/1/9 28/3/9 30/3/9
f 28/3/9 26/1/9 31/3/9
f 26/1/9 30/3/9 17/1/9
f 17/1/9 30/3/9 18/3/9
f 27/2/10 28/3/10 29/2/10
f 30/3/10 29/2/10 28/3/10
f 30/3/10 28/3/10 26/1/10
f 31/3/10 26/1/10 28/3/10
f 17/1/10 30/3/10 26/1/10
f 18/3/10 30/3/10 17/1/10
f 25/1/11 33/2/11 32/2/11
f 33/2/11 25/1/11 34/3/11
f 14/1/11 34/3/11 25/1/11
f 34/3/11 14/1/11 15/3/11
f 32/2/12 33/2/12 25/1/12
f 34/3/12 25/1/12 33/2/12
f 25/1/12 34/3/12 14/1/12
f 15/3/12 14/1/12 34/3/12
f 20/1/13 36/3/13 35/3/13
f 23/1/13 36/3/13 20/1/13
f 37/2/13 36/3/13 23/1/13
f 36/3/13 37/2/13 38/2/13
f 35/3/14 36/3/14 20/1/14
f 20/1/14 36/3/14 23/1/14
f 23/1/14 36/3/14 37/2/14
f 38/2/14 37/2/14 36/3/14
f 23/1/15 32/2/15 37/2/15
f 32/2/15 23/1/15 25/1/15
f 37/2/16 32/2/16 23/1/16
f 25/1/16 23/1/16 32/2/16
f 19/1/17 40/3/17 39/3/17
f 40/3/17 19/1/17 41/3/17
f 20/1/17 41/3/17 19/1/17
f 41/3/17 20/1/17 35/3/17
f 42/2/17 40/3/17 41/3/17
f 40/3/17 42/2/17 43/2/17
f 39/3/18 40/3/18 19/1/18
f 41/3/18 19/1/18 40/3/18
f 19/1/18 41/3/18 20/1/18
f 35/3/18 20/1/18 41/3/18
f 41/3/18 40/3/18 42/2/18
f 43/2/18 42/2/18 40/3/18
f 22/1/19 45/3/19 44/3/19
f 21/1/19 45/3/19 22/1/19
f 46/2/19 45/3/19 21/1/19
f 45/3/19 46/2/19 47/2/19
f 44/3/20 45/3/20 22/1/20
f 22/1/20 45/3/20 21/1/20
f 21/1/20 45/3/20 46/2/20
f 47/2/20 46/2/20 45/3/20
f 21/1/21 48/2/21 46/2/21
f 48/2/21 21/1/21 49/3/21
f 49/3/21 21/1/21 19/1/21
f 49/3/21 19/1/21 39/3/21
f 46/2/22 48/2/22 21/1/22
f 49/3/22 21/1/22 48/2/22
f 19/1/22 21/1/22 49/3/22
f 39/3/22 19/1/22 49/3/22
f 52/2/23 51/3/23 50/2/23
f 51/3/23 52/2/23 24/1/23
f 51/3/23 24/1/23 44/3/23
f 44/3/23 24/1/23 22/1/23
f 50/2/24 51/3/24 52/2/24
f 24/1/24 52/2/24 51/3/24
f 44/3/24 24/1/24 51/3/24
f 22/1/24 24/1/24 44/3/24
f 26/1/25 53/3/25 31/3/25
f 24/1/25 53/3/25 26/1/25
f 52/2/25 53/3/25 24/1/25
f 53/3/25 52/2/25 54/2/25
f 31/3/26 53/3/26 26/1/26
f 26/1/26 53/3/26 24/1/26
f 24/1/26 53/3/26 52/2/26
f 54/2/26 52/2/26 53/3/26
f 57/4/8 56/4/8 55/4/8
f 58/4/8 56/4/8 57/4/8
f 58/4/8 57/4/8 59/4/8
f 60/4/8 56/4/8 58/4/8
f 47/4/8 56/4/8 60/4/8
f 60/4/8 61/4/8 47/4/8
f 47/4/8 62/4/8 56/4/8
f 47/4/8 63/4/8 62/4/8
f 64/4/8 63/4/8 47/4/8
f 48/4/8 63/4/8 64/4/8
f 63/4/8 48/4/8 65/4/8
f 58/4/8 59/4/8 66/5/8
f 58/4/8 66/5/8 67/4/8
f 59/4/8 68/6/8 66/5/8
f 68/6/8 59/4/8 69/4/8
f 68/6/8 70/7/8 66/5/8
f 70/7/8 68/6/8 71/7/8
f 70/7/8 71/7/8 72/1/8
f 70/7/8 72/1/8 73/8/8
f 74/2/8 73/8/8 72/1/8
f 73/8/8 74/2/8 75/2/8
f 74/2/8 72/1/8 33/1/8
f 74/2/8 33/1/8 76/2/8
f 76/2/8 33/1/8 77/3/8
f 78/2/8 76/2/8 77/3/8
f 77/3/8 33/1/8 79/9/8
f 79/9/8 33/1/8 80/4/8
f 80/4/8 33/1/8 81/4/8
f 81/4/8 33/1/8 10/1/8
f 81/4/8 10/1/8 82/10/8
f 83/1/8 82/10/8 10/1/8
f 81/4/8 82/10/8 84/7/8
f 81/4/8 84/7/8 85/4/8
f 87/1/3 39/1/3 86/1/3
f 39/1/3 88/1/3 86/1/3
f 88/1/3 39/1/3 40/1/3
f 87/1/27 65/2/27 89/2/27
f 65/2/27 87/1/27 86/1/27
f 86/1/28 90/2/28 65/2/28
f 90/2/28 86/1/28 88/1/28
f 88/1/29 91/2/29 90/2/29
f 91/2/29 88/1/29 40/1/29
f 93/2/4 28/1/4 92/1/4
f 28/1/4 93/2/4 77/2/4
f 96/1/30 95/2/30 94/2/30
f 95/2/30 96/1/30 97/1/30
f 93/2/2 96/1/2 94/2/2
f 96/1/2 93/2/2 92/1/2
f 97/1/3 99/1/3 98/1/3
f 99/1/3 97/1/3 100/1/3
f 100/1/3 97/1/3 96/1/3
f 100/1/3 96/1/3 28/1/3
f 28/1/3 96/1/3 92/1/3
f 98/1/1 102/2/1 101/2/1
f 102/2/1 98/1/1 99/1/1
f 97/1/31 101/2/31 95/2/31
f 101/2/31 97/1/31 98/1/31
f 105/2/8 104/2/8 103/2/8
f 104/2/8 105/2/8 106/2/8
f 109/1/3 108/1/3 107/1/3
f 108/1/3 109/1/3 110/1/3
f 107/1/32 103/2/32 104/2/32
f 103/2/32 107/1/32 108/1/32
f 108/1/33 105/2/33 103/2/33
f 105/2/33 108/1/33 110/1/33
f 109/1/34 104/2/34 106/2/34
f 104/2/34 109/1/34 107/1/34
f 105/2/35 109/1/35 106/2/35
f 109/1/35 105/2/35 110/1/35
f 113/2/8 112/2/8 111/2/8
f 112/2/8 113/2/8 114/2/8
f 117/1/3 116/1/3 115/1/3
f 116/1/3 117/1/3 118/1/3
f 115/1/36 111/2/36 112/2/36
f 111/2/36 115/1/36 116/1/36
f 116/1/37 113/2/37 111/2/37
f 113/2/37 116/1/37 118/1/37
f 117/1/38 112/2/38 114/2/38
f 112/2/38 117/1/38 115/1/38
f 113/2/39 117/1/39 114/2/39
f 117/1/39 113/2/39 118/1/39
f 121/2/8 120/2/8 119/2/8
f 120/2/8 121/2/8 122/2/8
f 125/1/3 124/1/3 123/1/3
f 124/1/3 125/1/3 126/1/3
f 123/1/40 119/2/40 120/2/40
f 119/2/40 123/1/40 124/1/40
f 124/1/41 121/2/41 119/2/41
f 121/2/41 124/1/41 126/1/41
f 125/1/42 120/2/42 122/2/42
f 120/2/42 125/1/42 123/1/42
f 121/2/43 125/1/43 122/2/43
f 125/1/43 121/2/43 126/1/43
f 129/2/8 128/2/8 127/2/8
f 128/2/8 129/2/8 130/2/8
f 133/1/3 132/1/3 131/1/3
f 132/1/3 133/1/3 134/1/3
f 131/1/44 127/2/44 128/2/44
f 127/2/44 131/1/44 132/1/44
f 132/1/45 129/2/45 127/2/45
f 129/2/45 132/1/45 134/1/45
f 133/1/46 128/2/46 130/2/46
f 128/2/46 133/1/46 131/1/46
f 129/2/47 133/1/47 130/2/47
f 133/1/47 129/2/47 134/1/47
f 137/2/8 136/2/8 135/2/8
f 136/2/8 137/2/8 138/2/8
f 141/1/3 140/1/3 139/1/3
f 140/1/3 141/1/3 142/1/3
f 139/1/48 135/2/48 136/2/48
f 135/2/48 139/1/48 140/1/48
f 140/1/49 137/2/49 135/2/49
f 137/2/49 140/1/49 142/1/49
f 141/1/50 136/2/50 138/2/50
f 136/2/50 141/1/50 139/1/50
f 137/2/51 141/1/51 138/2/51
f 141/1/51 137/2/51 142/1/51
f 145/3/28 144/2/28 143/2/28
f 144/2/28 145/3/28 146/3/28
f 148/2/52 147/3/52 36/3/52
f 147/3/52 148/2/52 149/2/52
f 41/3/3 146/3/3 145/3/3
f 146/3/3 41/3/3 35/3/3
f 146/3/3 35/3/3 150/3/3
f 150/3/3 35/3/3 36/3/3
f 150/3/3 36/3/3 147/3/3
f 145/3/27 42/2/27 41/3/27
f 42/2/27 145/3/27 143/2/27
f 146/3/29 151/2/29 144/2/29
f 151/2/29 146/3/29 150/3/29
f 149/2/53 150/3/53 147/3/53
f 150/3/53 149/2/53 151/2/53
f 153/3/54 47/2/54 152/2/54
f 47/2/54 153/3/54 154/3/54
f 157/3/55 156/2/55 155/2/55
f 156/2/55 157/3/55 158/3/55
f 156/2/56 153/3/56 152/2/56
f 153/3/56 156/2/56 158/3/56
f 155/2/57 159/3/57 157/3/57
f 159/3/57 155/2/57 160/2/57
f 159/3/58 162/2/58 161/3/58
f 162/2/58 159/3/58 160/2/58
f 158/3/3 154/3/3 153/3/3
f 154/3/3 158/3/3 163/3/3
f 163/3/3 158/3/3 157/3/3
f 163/3/3 157/3/3 161/3/3
f 161/3/3 157/3/3 159/3/3
f 166/2/56 165/3/56 164/2/56
f 165/3/56 166/2/56 167/3/56
f 169/3/55 166/2/55 168/2/55
f 166/2/55 169/3/55 167/3/55
f 172/3/58 171/2/58 170/3/58
f 171/2/58 172/3/58 173/2/58
f 167/3/3 174/3/3 165/3/3
f 174/3/3 167/3/3 169/3/3
f 174/3/3 169/3/3 172/3/3
f 172/3/3 170/3/3 174/3/3
f 168/2/57 172/3/57 169/3/57
f 172/3/57 168/2/57 173/2/57
g rock-flat
usemtl colormap
f 3/2/1 2/1/1 1/1/1
f 6/2/2 5/1/2 4/1/2
f 5/1/2 6/2/2 7/2/2
f 8/1/3 1/1/3 2/1/3
f 1/1/3 8/1/3 9/1/3
f 9/1/3 8/1/3 5/1/3
f 5/1/3 8/1/3 4/1/3
f 7/2/4 9/1/4 5/1/4
f 9/1/4 7/2/4 10/2/4
f 1/1/5 10/2/5 3/2/5
f 10/2/5 1/1/5 9/1/5
f 13/2/6 12/3/6 11/2/6
f 14/1/6 11/2/6 12/3/6
f 14/1/6 12/3/6 15/3/6
f 14/1/6 16/3/6 11/2/6
f 17/1/6 16/3/6 14/1/6
f 16/3/6 17/1/6 18/3/6
f 11/2/7 12/3/7 13/2/7
f 12/3/7 11/2/7 14/1/7
f 15/3/7 12/3/7 14/1/7
f 11/2/7 16/3/7 14/1/7
f 14/1/7 16/3/7 17/1/7
f 18/3/7 17/1/7 16/3/7
f 21/1/3 20/1/3 19/1/3
f 20/1/3 21/1/3 22/1/3
f 20/1/3 22/1/3 23/1/3
f 23/1/3 22/1/3 24/1/3
f 23/1/3 24/1/3 25/1/3
f 25/1/3 24/1/3 26/1/3
f 25/1/3 26/1/3 14/1/3
f 14/1/3 26/1/3 17/1/3
f 19/1/8 20/1/8 21/1/8
f 22/1/8 21/1/8 20/1/8
f 23/1/8 22/1/8 20/1/8
f 24/1/8 22/1/8 23/1/8
f 25/1/8 24/1/8 23/1/8
f 26/1/8 24/1/8 25/1/8
f 14/1/8 26/1/8 25/1/8
f 17/1/8 26/1/8 14/1/8
f 29/2/9 28/3/9 27/2/9
f 28/3/9 29/2/9 30/3/9
f 26/1/9 28/3/9 30/3/9
f 28/3/9 26/1/9 31/3/9
f 26/1/9 30/3/9 17/1/9
f 17/1/9 30/3/9 18/3/9
f 27/2/10 28/3/10 29/2/10
f 30/3/10 29/2/10 28/3/10
f 30/3/10 28/3/10 26/1/10
f 31/3/10 26/1/10 28/3/10
f 17/1/10 30/3/10 26/1/10
f 18/3/10 30/3/10 17/1/10
f 25/1/11 33/2/11 32/2/11
f 33/2/11 25/1/11 34/3/11
f 14/1/11 34/3/11 25/1/11
f 34/3/11 14/1/11 15/3/11
f 32/2/12 33/2/12 25/1/12
f 34/3/12 25/1/12 33/2/12
f 25/1/12 34/3/12 14/1/12
f 15/3/12 14/1/12 34/3/12
f 20/1/13 36/3/13 35/3/13
f 23/1/13 36/3/13 20/1/13
f 37/2/13 36/3/13 23/1/13
f 36/3/13 37/2/13 38/2/13
f 35/3/14 36/3/14 20/1/14
f 20/1/14 36/3/14 23/1/14
f 23/1/14 36/3/14 37/2/14
f 38/2/14 37/2/14 36/3/14
f 23/1/15 32/2/15 37/2/15
f 32/2/15 23/1/15 25/1/15
f 37/2/16 32/2/16 23/1/16
f 25/1/16 23/1/16 32/2/16
f 19/1/17 40/3/17 39/3/17
f 40/3/17 19/1/17 41/3/17
f 20/1/17 41/3/17 19/1/17
f 41/3/17 20/1/17 35/3/17
f 42/2/17 40/3/17 41/3/17
f 40/3/17 42/2/17 43/2/17
f 39/3/18 40/3/18 19/1/18
f 41/3/18 19/1/18 40/3/18
f 19/1/18 41/3/18 20/1/18
f 35/3/18 20/1/18 41/3/18
f 41/3/18 40/3/18 42/2/18
f 43/2/18 42/2/18 40/3/18
f 22/1/19 45/3/19 44/3/19
f 21/1/19 45/3/19 22/1/19
f 46/2/19 45/3/19 21/1/19
f 45/3/19 46/2/19 47/2/19
f 44/3/20 45/3/20 22/1/20
f 22/1/20 45/3/20 21/1/20
f 21/1/20 45/3/20 46/2/20
f 47/2/20 46/2/20 45/3/20
f 21/1/21 48/2/21 46/2/21
f 48/2/21 21/1/21 49/3/21
f 49/3/21 21/1/21 19/1/21
f 49/3/21 19/1/21 39/3/21
f 46/2/22 48/2/22 21/1/22
f 49/3/22 21/1/22 48/2/22
f 19/1/22 21/1/22 49/3/22
f 39/3/22 19/1/22 49/3/22
f 52/2/23 51/3/23 50/2/23
f 51/3/23 52/2/23 24/1/23
f 51/3/23 24/1/23 44/3/23
f 44/3/23 24/1/23 22/1/23
f 50/2/24 51/3/24 52/2/24
f 24/1/24 52/2/24 51/3/24
f 44/3/24 24/1/24 51/3/24
f 22/1/24 24/1/24 44/3/24
f 26/1/25 53/3/25 31/3/25
f 24/1/25 53/3/25 26/1/25
f 52/2/25 53/3/25 24/1/25
f 53/3/25 52/2/25 54/2/25
f 31/3/26 53/3/26 26/1/26
f 26/1/26 53/3/26 24/1/26
f 24/1/26 53/3/26 52/2/26
f 54/2/26 52/2/26 53/3/26
f 57/4/8 56/4/8 55/4/8
f 58/4/8 56/4/8 57/4/8
f 58/4/8 57/4/8 59/4/8
f 60/4/8 56/4/8 58/4/8
f 47/4/8 56/4/8 60/4/8
f 60/4/8 61/4/8 47/4/8
f 47/4/8 62/4/8 56/4/8
f 47/4/8 63/4/8 62/4/8
f 64/4/8 63/4/8 47/4/8
f 48/4/8 63/4/8 64/4/8
f 63/4/8 48/4/8 65/4/8
f 58/4/8 59/4/8 66/5/8
f 58/4/8 66/5/8 67/4/8
f 59/4/8 68/6/8 66/5/8
f 68/6/8 59/4/8 69/4/8
f 68/6/8 70/7/8 66/5/8
f 70/7/8 68/6/8 71/7/8
f 70/7/8 71/7/8 72/1/8
f 70/7/8 72/1/8 73/8/8
f 74/2/8 73/8/8 72/1/8
f 73/8/8 74/2/8 75/2/8
f 74/2/8 72/1/8 33/1/8
f 74/2/8 33/1/8 76/2/8
f 76/2/8 33/1/8 77/3/8
f 78/2/8 76/2/8 77/3/8
f 77/3/8 33/1/8 79/9/8
f 79/9/8 33/1/8 80/4/8
f 80/4/8 33/1/8 81/4/8
f 81/4/8 33/1/8 10/1/8
f 81/4/8 10/1/8 82/10/8
f 83/1/8 82/10/8 10/1/8
f 81/4/8 82/10/8 84/7/8
f 81/4/8 84/7/8 85/4/8
f 87/1/3 39/1/3 86/1/3
f 39/1/3 88/1/3 86/1/3
f 88/1/3 39/1/3 40/1/3
f 87/1/27 65/2/27 89/2/27
f 65/2/27 87/1/27 86/1/27
f 86/1/28 90/2/28 65/2/28
f 90/2/28 86/1/28 88/1/28
f 88/1/29 91/2/29 90/2/29
f 91/2/29 88/1/29 40/1/29
f 93/2/4 28/1/4 92/1/4
f 28/1/4 93/2/4 77/2/4
f 96/1/30 95/2/30 94/2/30
f 95/2/30 96/1/30 97/1/30
f 93/2/2 96/1/2 94/2/2
f 96/1/2 93/2/2 92/1/2
f 97/1/3 99/1/3 98/1/3
f 99/1/3 97/1/3 100/1/3
f 100/1/3 97/1/3 96/1/3
f 100/1/3 96/1/3 28/1/3
f 28/1/3 96/1/3 92/1/3
f 98/1/1 102/2/1 101/2/1
f 102/2/1 98/1/1 99/1/1
f 97/1/31 101/2/31 95/2/31
f 101/2/31 97/1/31 98/1/31
f 105/2/8 104/2/8 103/2/8
f 104/2/8 105/2/8 106/2/8
f 109/1/3 108/1/3 107/1/3
f 108/1/3 109/1/3 110/1/3
f 107/1/32 103/2/32 104/2/32
f 103/2/32 107/1/32 108/1/32
f 108/1/33 105/2/33 103/2/33
f 105/2/33 108/1/33 110/1/33
f 109/1/34 104/2/34 106/2/34
f 104/2/34 109/1/34 107/1/34
f 105/2/35 109/1/35 106/2/35
f 109/1/35 105/2/35 110/1/35
f 113/2/8 112/2/8 111/2/8
f 112/2/8 113/2/8 114/2/8
f 117/1/3 116/1/3 115/1/3
f 116/1/3 117/1/3 118/1/3
f 115/1/36 111/2/36 112/2/36
f 111/2/36 115/1/36 116/1/36
f 116/1/37 113/2/37 111/2/37
f 113/2/37 116/1/37 118/1/37
f 117/1/38 112/2/38 114/2/38
f 112/2/38 117/1/38 115/1/38
f 113/2/39 117/1/39 114/2/39
f 117/1/39 113/2/39 118/1/39
f 121/2/8 120/2/8 119/2/8
f 120/2/8 121/2/8 122/2/8
f 125/1/3 124/1/3 123/1/3
f 124/1/3 125/1/3 126/1/3
f 123/1/40 119/2/40 120/2/40
f 119/2/40 123/1/40 124/1/40
f 124/1/41 121/2/41 119/2/41
f 121/2/41 124/1/41 126/1/41
f 125/1/42 120/2/42 122/2/42
f 120/2/42 125/1/42 123/1/42
f 121/2/43 125/1/43 122/2/43
f 125/1/43 121/2/43 126/1/43
f 129/2/8 128/2/8 127/2/8
f 128/2/8 129/2/8 130/2/8
f 133/1/3 132/1/3 131/1/3
f 132/1/3 133/1/3 134/1/3
f 131/1/44 127/2/44 128/2/44
f 127/2/44 131/1/44 132/1/44
f 132/1/45 129/2/45 127/2/45
f 129/2/45 132/1/45 134/1/45
f 133/1/46 128/2/46 130/2/46
f 128/2/46 133/1/46 131/1/46
f 129/2/47 133/1/47 130/2/47
f 133/1/47 129/2/47 134/1/47
f 137/2/8 136/2/8 135/2/8
f 136/2/8 137/2/8 138/2/8
f 141/1/3 140/1/3 139/1/3
f 140/1/3 141/1/3 142/1/3
f 139/1/48 135/2/48 136/2/48
f 135/2/48 139/1/48 140/1/48
f 140/1/49 137/2/49 135/2/49
f 137/2/49 140/1/49 142/1/49
f 141/1/50 136/2/50 138/2/50
f 136/2/50 141/1/50 139/1/50
f 137/2/51 141/1/51 138/2/51
f 141/1/51 137/2/51 142/1/51
f 145/3/28 144/2/28 143/2/28
f 144/2/28 145/3/28 146/3/28
f 148/2/52 147/3/52 36/3/52
f 147/3/52 148/2/52 149/2/52
f 41/3/3 146/3/3 145/3/3
f 146/3/3 41/3/3 35/3/3
f 146/3/3 35/3/3 150/3/3
f 150/3/3 35/3/3 36/3/3
f 150/3/3 36/3/3 147/3/3
f 145/3/27 42/2/27 41/3/27
f 42/2/27 145/3/27 143/2/27
f 146/3/29 151/2/29 144/2/29
f 151/2/29 146/3/29 150/3/29
f 149/2/53 150/3/53 147/3/53
f 150/3/53 149/2/53 151/2/53
f 153/3/54 47/2/54 152/2/54
f 47/2/54 153/3/54 154/3/54
f 157/3/55 156/2/55 155/2/55
f 156/2/55 157/3/55 158/3/55
f 156/2/56 153/3/56 152/2/56
f 153/3/56 156/2/56 158/3/56
f 155/2/57 159/3/57 157/3/57
f 159/3/57 155/2/57 160/2/57
f 159/3/58 162/2/58 161/3/58
f 162/2/58 159/3/58 160/2/58
f 158/3/3 154/3/3 153/3/3
f 154/3/3 158/3/3 163/3/3
f 163/3/3 158/3/3 157/3/3
f 163/3/3 157/3/3 161/3/3
f 161/3/3 157/3/3 159/3/3
f 166/2/56 165/3/56 164/2/56
f 165/3/56 166/2/56 167/3/56
f 169/3/55 166/2/55 168/2/55
f 166/2/55 169/3/55 167/3/55
f 172/3/58 171/2/58 170/3/58
f 171/2/58 172/3/58 173/2/58
f 167/3/3 174/3/3 165/3/3
f 174/3/3 167/3/3 169/3/3
f 174/3/3 169/3/3 172/3/3
f 172/3/3 170/3/3 174/3/3
f 168/2/57 172/3/57 169/3/57
f 172/3/57 168/2/57 173/2/57
