mtllib survival_campfire-pit.mtl
g campfire-pit
v 0.019227 0.035517 -0.093843
v 0.019227 0.035517 -0.091668
v 0.01814 0.035517 -0.092755
v 0.0050865 0 0.052575
v 0.0073399 0.037208 0.063651
v -0.015145 0 0.083142
v -0.016513 0.037208 0.099688
v -0.019159 0.028316 0.10023
v -0.037366 0 -0.029848
v -0.076399 0 -0.038074
v -0.044587 0.051449 -0.040926
v -0.08667 0.050951 -0.049702
v -0.094063 0.051449 -0.051352
v -0.099442 0.026469 -0.047846
v 0.038767 0 0.074868
v 0.043827 0.035697 0.087412
v 0.043377 0.037208 0.087503
v -0.034161 0.051449 -0.090402
v -0.083637 0.051449 -0.10083
v 0.055328 0 0.01296
v 0.083888 0 -0.012219
v 0.066608 0.033848 0.01367
v 0.09921 0.025025 -0.01785
v 0.099025 0.033848 -0.014909
v 0.05288 0 -0.13462
v 0.094741 0 -0.092755
v 0.05288 0.056376 -0.12331
v 0.083438 0.056376 -0.092755
v 0.05288 0.056376 -0.062197
v 0.022321 0.056376 -0.092755
v -0.090859 0 -0.11191
v -0.10407 0 -0.049237
v -0.031981 0 -0.099499
v -0.027434 0.020207 -0.094787
v 0.13888 0 0.018217
v 0.11205 0 -0.012219
v 0.097967 0 0.054291
v 0.073404 0 -0.071419
v 0.11265 0 -0.071419
v 0.11265 0 -0.012219
v 0.053448 0 -0.012219
v 0.053448 0 -0.051462
v 0.05288 0 -0.050894
v 0.027219 0 -0.076555
v 0.027219 0 -0.10895
v -0.030309 0 -0.063334
v 0.027219 0 -0.063334
v 0.027219 0 -0.12253
v -0.031981 0 -0.12253
v -0.084524 0 0.0066549
v -0.062823 0 -0.0013726
v -0.10787 0 0.015293
v -0.13888 0 -0.036357
v -0.11835 0 0.019166
v -0.11947 0 0.058579
v -0.074345 0 0.070671
v -0.056701 0 0.05304
v -0.046968 0 0.016718
v -0.074345 0 0.11224
v -0.015145 0 0.05304
v -0.015145 0 0.11018
v -0.015145 0 0.11224
v 0.021778 0 0.13462
v 0.043941 0 0.10113
v 0.038767 0 0.041931
v 0.080869 0 0.041931
v 0.097967 0 0.10113
v -0.030946 0.0046016 -0.064369
v -0.056756 0.028058 0.022369
v -0.066041 0.028058 0.057018
v -0.0985 0.028058 0.011184
v -0.070368 0.028058 0.057018
v -0.067942 0.028058 0.064113
v -0.070368 0.028058 0.063462
v -0.10969 0.028058 0.052927
v 0.060351 0.030677 -0.064516
v 0.1276 0.033848 0.017508
v 0.019525 0.037208 0.12354
v -0.099486 0.023162 0.0094757
v 0.095187 0.033848 0.046087
v 0.041168 0.016938 0.098729
v 0.094927 0.02144 0.050222
v 0.093798 0.029402 0.046099
v 0.093798 0.029402 0.046099
v 0.094927 0.02144 0.050222
v 0.089975 0.056376 0.049923
v 0.089975 0.056376 0.093139
v 0.097967 0 0.054291
v 0.097967 0 0.10113
v 0.038767 0 0.041931
v 0.046759 0.056376 0.049923
v 0.038767 0 0.074867
v 0.046759 0.056376 0.093139
v 0.043827 0.035697 0.087412
v 0.041168 0.016938 0.098729
v 0.043941 0 0.10113
v 0.080869 0 0.041931
v 0.11265 0 -0.071419
v 0.11265 0 -0.012219
v 0.10466 0.035517 -0.063427
v 0.10466 0.035517 -0.020211
v 0.060351 0.030677 -0.064516
v 0.06144 0.035517 -0.063427
v 0.053448 0 -0.051462
v 0.06144 0.035517 -0.020211
v 0.053448 0 -0.012219
v 0.11205 0 -0.012219
v 0.09921 0.025025 -0.01785
v 0.083888 0 -0.012219
v 0.073404 0 -0.071419
v 0.027219 0 -0.12253
v 0.027219 0 -0.10895
v 0.019227 0.035517 -0.11454
v 0.019227 0.035517 -0.093842
v -0.023989 0.035517 -0.11454
v 0.01814 0.035517 -0.092755
v -0.023989 0.035517 -0.071326
v 0.019227 0.035517 -0.091668
v 0.019227 0.035517 -0.071326
v -0.031981 0 -0.12253
v 0.027219 0 -0.076555
v 0.027219 0 -0.063334
v -0.030309 0 -0.063334
v -0.030946 0.0046016 -0.064369
v -0.031981 0 -0.099498
v -0.027434 0.020207 -0.094787
v -0.13888 0 -0.036357
v -0.10407 0 -0.049237
v -0.12862 0.072725 -0.031634
v -0.099442 0.026469 -0.047846
v -0.08667 0.050951 -0.049702
v -0.088084 0.072725 -0.046627
v -0.062823 0 -0.0013726
v -0.084524 0 0.0066549
v -0.073091 0.072725 -0.0060955
v -0.099486 0.023162 0.0094757
v -0.11362 0.072725 0.0088976
v -0.11835 0 0.019166
v -0.10787 0 0.015293
v -0.076399 0 -0.038074
v -0.015145 0 0.05304
v -0.015145 0 0.083142
v -0.023137 0.056376 0.061032
v -0.023137 0.056376 0.10425
v -0.019159 0.028316 0.10023
v -0.015145 0 0.11018
v -0.015145 0 0.11224
v -0.066353 0.056376 0.061032
v -0.066353 0.056376 0.10425
v -0.074345 0 0.11224
v -0.070368 0.028058 0.057018
v -0.066041 0.028058 0.057018
v -0.056701 0 0.05304
v -0.070368 0.028058 0.063462
v -0.074345 0 0.07067
vn 0 1 0
vn -0.81529 0.21 -0.53963
vn -0.20288 0.17882 0.96274
vn 0.53963 0.21 -0.81529
vn -0.64361 0.22979 -0.73004
vn 0.70011 0.14036 -0.70011
vn -0.96274 0.17882 -0.20288
vn 0.20288 0.17882 -0.96274
vn 0 -1 0
vn 0.96274 0.17882 0.20288
vn 0.70011 0.14036 0.70011
vn 0.73004 0.22979 -0.64361
vn 0.92898 0.27394 0.24892
vn -0.70011 0.14036 0.70011
vn -0.70011 0.14036 -0.70011
vn 0.24892 0.27394 -0.92898
vn -0.53963 0.21 0.81529
vn 0.81529 0.21 0.53963
vn 0.64361 0.22979 0.73004
vn -0.92898 0.27394 -0.24892
vn -0.24892 0.27394 0.92898
vn -0.73004 0.22979 0.64361
vn 0.9901 0.14036 0
vn -0.9901 0.14036 0
vn 0 0.14036 0.9901
vn 0 0.14036 -0.9901
vn 0.97561 0.21953 0
vn -0.97561 0.21953 0
vn 0 0.21953 0.97561
vn 0 0.21953 -0.97561
vn -0.34486 0.10924 -0.93228
vn 0.34486 0.10924 0.93228
vn 0.93228 0.10924 -0.34486
vn -0.93228 0.10924 0.34486
vt 0.84375 0.151
vt 0.84375 0.025
vt 0.84375 0.157
vt 0.84375 0.12545
vt 0.84375 0.20752
vt 0.84375 0.20575
vt 0.84375 0.1189
vt 0.84375 0.15164
vt 0.84375 0.14508
vt 0.84375 0.11378
vt 0.84375 0.225
vt 0.84375 0.096686
vt 0.84375 0.041325
vt 0.84375 0.12454
vt 0.84375 0.13383
vt 0.84375 0.10717
vt 0.84375 0.08509
vt 0.84375 0.10106
vt 0.84375 0.12931
vt 0.84375 0.077154
vt 0.84375 0.063029
vt 0.84375 0.125
vt 0.84375 0.088319
vt 0.84375 0.055045
vt 0.84375 0.11137
vt 0.84375 0.095459
vt 0.84375 0.037956
vt 0.84375 0.081894
vt 0.84375 0.061396
vt 0.84375 0.09506
vt 0.84375 0.056848
vt 0.84375 0.075227
vt 0.84375 0.07477
usemtl colormap
f 3/1/1 2/1/1 1/1/1
f 6/2/2 5/3/2 4/2/2
f 5/3/2 6/2/2 7/3/2
f 7/3/2 6/2/2 8/4/2
f 11/5/3 10/2/3 9/2/3
f 10/2/3 11/5/3 12/6/3
f 13/5/3 12/6/3 11/5/3
f 12/6/3 13/5/3 14/7/3
f 5/3/4 15/2/4 4/2/4
f 15/2/4 5/3/4 16/8/4
f 16/8/4 5/3/4 17/3/4
f 19/5/1 11/5/1 18/5/1
f 11/5/1 19/5/1 13/5/1
f 22/9/5 21/2/5 20/2/5
f 21/2/5 22/9/5 23/10/5
f 23/10/5 22/9/5 24/9/5
f 27/11/6 26/2/6 25/2/6
f 26/2/6 27/11/6 28/11/6
f 27/11/1 29/11/1 28/11/1
f 29/11/1 27/11/1 30/11/1
f 32/2/7 19/5/7 31/2/7
f 19/5/7 32/2/7 13/5/7
f 13/5/7 32/2/7 14/7/7
f 19/5/8 33/2/8 31/2/8
f 33/2/8 19/5/8 34/12/8
f 34/12/8 19/5/8 18/5/8
f 37/2/9 36/2/9 35/2/9
f 38/2/9 36/2/9 37/2/9
f 39/2/9 36/2/9 38/2/9
f 36/2/9 39/2/9 40/2/9
f 38/2/9 37/2/9 21/2/9
f 38/2/9 21/2/9 41/2/9
f 42/2/9 38/2/9 41/2/9
f 25/2/9 38/2/9 42/2/9
f 38/2/9 25/2/9 26/2/9
f 25/2/9 42/2/9 43/2/9
f 25/2/9 43/2/9 44/2/9
f 25/2/9 44/2/9 45/2/9
f 44/2/9 46/2/9 45/2/9
f 46/2/9 44/2/9 47/2/9
f 45/2/9 46/2/9 48/2/9
f 48/2/9 46/2/9 49/2/9
f 49/2/9 46/2/9 33/2/9
f 9/2/9 33/2/9 46/2/9
f 33/2/9 9/2/9 31/2/9
f 31/2/9 9/2/9 10/2/9
f 31/2/9 10/2/9 50/2/9
f 50/2/9 10/2/9 51/2/9
f 50/2/9 52/2/9 31/2/9
f 31/2/9 52/2/9 32/2/9
f 52/2/9 53/2/9 32/2/9
f 53/2/9 52/2/9 54/2/9
f 50/2/9 55/2/9 52/2/9
f 50/2/9 56/2/9 55/2/9
f 50/2/9 57/2/9 56/2/9
f 57/2/9 50/2/9 58/2/9
f 56/2/9 57/2/9 59/2/9
f 60/2/9 59/2/9 57/2/9
f 6/2/9 59/2/9 60/2/9
f 61/2/9 59/2/9 6/2/9
f 59/2/9 61/2/9 62/2/9
f 4/2/9 61/2/9 6/2/9
f 4/2/9 63/2/9 61/2/9
f 15/2/9 63/2/9 4/2/9
f 63/2/9 15/2/9 64/2/9
f 65/2/9 64/2/9 15/2/9
f 66/2/9 64/2/9 65/2/9
f 37/2/9 64/2/9 66/2/9
f 64/2/9 37/2/9 67/2/9
f 37/2/9 66/2/9 21/2/9
f 20/2/9 21/2/9 66/2/9
f 18/5/10 68/13/10 34/12/10
f 68/13/10 18/5/10 11/5/10
f 68/13/10 11/5/10 46/2/10
f 46/2/10 11/5/10 9/2/10
f 71/14/1 70/14/1 69/14/1
f 70/14/1 71/14/1 72/14/1
f 72/14/1 73/14/1 70/14/1
f 73/14/1 72/14/1 74/14/1
f 72/14/1 71/14/1 74/14/1
f 74/14/1 71/14/1 75/14/1
f 28/11/11 38/2/11 26/2/11
f 38/2/11 28/11/11 29/11/11
f 38/2/11 29/11/11 76/15/11
f 76/15/11 29/11/11 42/2/11
f 42/2/11 29/11/11 43/2/11
f 24/9/12 36/2/12 23/10/12
f 36/2/12 24/9/12 77/9/12
f 36/2/12 77/9/12 35/2/12
f 69/14/13 57/2/13 58/2/13
f 57/2/13 69/14/13 70/14/13
f 29/11/14 44/2/14 43/2/14
f 44/2/14 29/11/14 2/1/14
f 2/1/14 29/11/14 3/1/14
f 3/1/14 29/11/14 30/11/14
f 45/2/15 27/11/15 25/2/15
f 27/11/15 45/2/15 30/11/15
f 30/11/15 45/2/15 1/1/15
f 30/11/15 1/1/15 3/1/15
f 5/3/1 78/3/1 17/3/1
f 78/3/1 5/3/1 7/3/1
f 79/16/16 58/2/16 50/2/16
f 58/2/16 79/16/16 69/14/16
f 69/14/16 79/16/16 71/14/16
f 24/9/1 80/9/1 77/9/1
f 80/9/1 24/9/1 22/9/1
f 78/3/17 61/2/17 63/2/17
f 61/2/17 78/3/17 8/4/17
f 8/4/17 78/3/17 7/3/17
f 17/3/18 81/17/18 16/8/18
f 81/17/18 17/3/18 78/3/18
f 81/17/18 78/3/18 64/2/18
f 64/2/18 78/3/18 63/2/18
f 77/9/19 37/2/19 35/2/19
f 37/2/19 77/9/19 82/18/19
f 82/18/19 77/9/19 80/9/19
f 52/2/20 71/14/20 79/16/20
f 71/14/20 52/2/20 75/14/20
f 75/14/20 52/2/20 55/2/20
f 74/14/21 55/2/21 56/2/21
f 55/2/21 74/14/21 75/14/21
f 66/2/22 22/9/22 20/2/22
f 22/9/22 66/2/22 80/9/22
f 80/9/22 66/2/22 83/19/22
f 80/9/22 83/19/22 82/18/22
f 86/22/23 85/21/23 84/20/23
f 85/21/23 86/22/23 87/22/23
f 85/21/23 87/22/23 88/2/23
f 88/2/23 87/22/23 89/2/23
f 92/2/24 91/22/24 90/2/24
f 91/22/24 92/2/24 93/22/24
f 93/22/24 92/2/24 94/23/24
f 93/22/24 94/23/24 95/24/24
f 87/22/25 96/2/25 89/2/25
f 96/2/25 87/22/25 95/24/25
f 95/24/25 87/22/25 93/22/25
f 91/22/1 87/22/1 86/22/1
f 87/22/1 91/22/1 93/22/1
f 91/22/26 97/2/26 90/2/26
f 97/2/26 91/22/26 84/20/26
f 84/20/26 91/22/26 86/22/26
f 100/22/27 99/2/27 98/2/27
f 99/2/27 100/22/27 101/22/27
f 104/2/28 103/22/28 102/25/28
f 103/22/28 104/2/28 105/22/28
f 105/22/28 104/2/28 106/2/28
f 101/22/29 107/2/29 99/2/29
f 107/2/29 101/22/29 108/26/29
f 105/22/29 108/26/29 101/22/29
f 106/2/29 108/26/29 105/22/29
f 108/26/29 106/2/29 109/2/29
f 103/22/1 101/22/1 100/22/1
f 101/22/1 103/22/1 105/22/1
f 102/25/30 98/2/30 110/2/30
f 98/2/30 102/25/30 100/22/30
f 100/22/30 102/25/30 103/22/30
f 113/22/27 112/2/27 111/2/27
f 112/2/27 113/22/27 114/22/27
f 115/22/1 114/22/1 113/22/1
f 114/22/1 115/22/1 116/22/1
f 117/22/1 116/22/1 115/22/1
f 117/22/1 118/22/1 116/22/1
f 118/22/1 117/22/1 119/22/1
f 115/22/30 111/2/30 120/2/30
f 111/2/30 115/22/30 113/22/30
f 119/22/27 121/2/27 118/22/27
f 121/2/27 119/22/27 122/2/27
f 119/22/29 123/2/29 122/2/29
f 123/2/29 119/22/29 124/27/29
f 124/27/29 119/22/29 117/22/29
f 125/2/28 115/22/28 120/2/28
f 115/22/28 125/2/28 126/28/28
f 115/22/28 126/28/28 117/22/28
f 117/22/28 126/28/28 124/27/28
f 129/22/31 128/2/31 127/2/31
f 128/2/31 129/22/31 130/29/31
f 130/29/31 129/22/31 131/30/31
f 131/30/31 129/22/31 132/22/31
f 135/22/32 134/2/32 133/2/32
f 134/2/32 135/22/32 136/31/32
f 137/22/32 136/31/32 135/22/32
f 138/2/32 136/31/32 137/22/32
f 136/31/32 138/2/32 139/2/32
f 132/22/33 140/2/33 131/30/33
f 140/2/33 132/22/33 135/22/33
f 140/2/33 135/22/33 133/2/33
f 132/22/1 137/22/1 135/22/1
f 137/22/1 132/22/1 129/22/1
f 138/2/34 129/22/34 127/2/34
f 129/22/34 138/2/34 137/22/34
f 143/22/23 142/2/23 141/2/23
f 142/2/23 143/22/23 144/22/23
f 142/2/23 144/22/23 145/32/23
f 145/32/23 144/22/23 146/2/23
f 146/2/23 144/22/23 147/2/23
f 148/22/1 144/22/1 143/22/1
f 144/22/1 148/22/1 149/22/1
f 144/22/25 150/2/25 147/2/25
f 150/2/25 144/22/25 149/22/25
f 148/22/26 152/33/26 151/33/26
f 143/22/26 152/33/26 148/22/26
f 141/2/26 152/33/26 143/22/26
f 152/33/26 141/2/26 153/2/26
f 154/33/24 148/22/24 151/33/24
f 148/22/24 154/33/24 149/22/24
f 149/22/24 154/33/24 155/2/24
f 149/22/24 155/2/24 150/2/24
g campfire-pit
usemtl colormap
f 3/1/1 2/1/1 1/1/1
f 6/2/2 5/3/2 4/2/2
f 5/3/2 6/2/2 7/3/2
f 7/3/2 6/2/2 8/4/2
f 11/5/3 10/2/3 9/2/3
f 10/2/3 11/5/3 12/6/3
f 13/5/3 12/6/3 11/5/3
f 12/6/3 13/5/3 14/7/3
f 5/3/4 15/2/4 4/2/4
f 15/2/4 5/3/4 16/8/4
f 16/8/4 5/3/4 17/3/4
f 19/5/1 11/5/1 18/5/1
f 11/5/1 19/5/1 13/5/1
f 22/9/5 21/2/5 20/2/5
f 21/2/5 22/9/5 23/10/5
f 23/10/5 22/9/5 24/9/5
f 27/11/6 26/2/6 25/2/6
f 26/2/6 27/11/6 28/11/6
f 27/11/1 29/11/1 28/11/1
f 29/11/1 27/11/1 30/11/1
f 32/2/7 19/5/7 31/2/7
f 19/5/7 32/2/7 13/5/7
f 13/5/7 32/2/7 14/7/7
f 19/5/8 33/2/8 31/2/8
f 33/2/8 19/5/8 34/12/8
f 34/12/8 19/5/8 18/5/8
f 37/2/9 36/2/9 35/2/9
f 38/2/9 36/2/9 37/2/9
f 39/2/9 36/2/9 38/2/9
f 36/2/9 39/2/9 40/2/9
f 38/2/9 37/2/9 21/2/9
f 38/2/9 21/2/9 41/2/9
f 42/2/9 38/2/9 41/2/9
f 25/2/9 38/2/9 42/2/9
f 38/2/9 25/2/9 26/2/9
f 25/2/9 42/2/9 43/2/9
f 25/2/9 43/2/9 44/2/9
f 25/2/9 44/2/9 45/2/9
f 44/2/9 46/2/9 45/2/9
f 46/2/9 44/2/9 47/2/9
f 45/2/9 46/2/9 48/2/9
f 48/2/9 46/2/9 49/2/9
f 49/2/9 46/2/9 33/2/9
f 9/2/9 33/2/9 46/2/9
f 33/2/9 9/2/9 31/2/9
f 31/2/9 9/2/9 10/2/9
f 31/2/9 10/2/9 50/2/9
f 50/2/9 10/2/9 51/2/9
f 50/2/9 52/2/9 31/2/9
f 31/2/9 52/2/9 32/2/9
f 52/2/9 53/2/9 32/2/9
f 53/2/9 52/2/9 54/2/9
f 50/2/9 55/2/9 52/2/9
f 50/2/9 56/2/9 55/2/9
f 50/2/9 57/2/9 56/2/9
f 57/2/9 50/2/9 58/2/9
f 56/2/9 57/2/9 59/2/9
f 60/2/9 59/2/9 57/2/9
f 6/2/9 59/2/9 60/2/9
f 61/2/9 59/2/9 6/2/9
f 59/2/9 61/2/9 62/2/9
f 4/2/9 61/2/9 6/2/9
f 4/2/9 63/2/9 61/2/9
f 15/2/9 63/2/9 4/2/9
f 63/2/9 15/2/9 64/2/9
f 65/2/9 64/2/9 15/2/9
f 66/2/9 64/2/9 65/2/9
f 37/2/9 64/2/9 66/2/9
f 64/2/9 37/2/9 67/2/9
f 37/2/9 66/2/9 21/2/9
f 20/2/9 21/2/9 66/2/9
f 18/5/10 68/13/10 34/12/10
f 68/13/10 18/5/10 11/5/10
f 68/13/10 11/5/10 46/2/10
f 46/2/10 11/5/10 9/2/10
f 71/14/1 70/14/1 69/14/1
f 70/14/1 71/14/1 72/14/1
f 72/14/1 73/14/1 70/14/1
f 73/14/1 72/14/1 74/14/1
f 72/14/1 71/14/1 74/14/1
f 74/14/1 71/14/1 75/14/1
f 28/11/11 38/2/11 26/2/11
f 38/2/11 28/11/11 29/11/11
f 38/2/11 29/11/11 76/15/11
f 76/15/11 29/11/11 42/2/11
f 42/2/11 29/11/11 43/2/11
f 24/9/12 36/2/12 23/10/12
f 36/2/12 24/9/12 77/9/12
f 36/2/12 77/9/12 35/2/12
f 69/14/13 57/2/13 58/2/13
f 57/2/13 69/14/13 70/14/13
f 29/11/14 44/2/14 43/2/14
f 44/2/14 29/11/14 2/1/14
f 2/1/14 29/11/14 3/1/14
f 3/1/14 29/11/14 30/11/14
f 45/2/15 27/11/15 25/2/15
f 27/11/15 45/2/15 30/11/15
f 30/11/15 45/2/15 1/1/15
f 30/11/15 1/1/15 3/1/15
f 5/3/1 78/3/1 17/3/1
f 78/3/1 5/3/1 7/3/1
f 79/16/16 58/2/16 50/2/16
f 58/2/16 79/16/16 69/14/16
f 69/14/16 79/16/16 71/14/16
f 24/9/1 80/9/1 77/9/1
f 80/9/1 24/9/1 22/9/1
f 78/3/17 61/2/17 63/2/17
f 61/2/17 78/3/17 8/4/17
f 8/4/17 78/3/17 7/3/17
f 17/3/18 81/17/18 16/8/18
f 81/17/18 17/3/18 78/3/18
f 81/17/18 78/3/18 64/2/18
f 64/2/18 78/3/18 63/2/18
f 77/9/19 37/2/19 35/2/19
f 37/2/19 77/9/19 82/18/19
f 82/18/19 77/9/19 80/9/19
f 52/2/20 71/14/20 79/16/20
f 71/14/20 52/2/20 75/14/20
f 75/14/20 52/2/20 55/2/20
f 74/14/21 55/2/21 56/2/21
f 55/2/21 74/14/21 75/14/21
f 66/2/22 22/9/22 20/2/22
f 22/9/22 66/2/22 80/9/22
f 80/9/22 66/2/22 83/19/22
f 80/9/22 83/19/22 82/18/22
f 86/22/23 85/21/23 84/20/23
f 85/21/23 86/22/23 87/22/23
f 85/21/23 87/22/23 88/2/23
f 88/2/23 87/22/23 89/2/23
f 92/2/24 91/22/24 90/2/24
f 91/22/24 92/2/24 93/22/24
f 93/22/24 92/2/24 94/23/24
f 93/22/24 94/23/24 95/24/24
f 87/22/25 96/2/25 89/2/25
f 96/2/25 87/22/25 95/24/25
f 95/24/25 87/22/25 93/22/25
f 91/22/1 87/22/1 86/22/1
f 87/22/1 91/22/1 93/22/1
f 91/22/26 97/2/26 90/2/26
f 97/2/26 91/22/26 84/20/26
f 84/20/26 91/22/26 86/22/26
f 100/22/27 99/2/27 98/2/27
f 99/2/27 100/22/27 101/22/27
f 104/2/28 103/22/28 102/25/28
f 103/22/28 104/2/28 105/22/28
f 105/22/28 104/2/28 106/2/28
f 101/22/29 107/2/29 99/2/29
f 107/2/29 101/22/29 108/26/29
f 105/22/29 108/26/29 101/22/29
f 106/2/29 108/26/29 105/22/29
f 108/26/29 106/2/29 109/2/29
f 103/22/1 101/22/1 100/22/1
f 101/22/1 103/22/1 105/22/1
f 102/25/30 98/2/30 110/2/30
f 98/2/30 102/25/30 100/22/30
f 100/22/30 102/25/30 103/22/30
f 113/22/27 112/2/27 111/2/27
f 112/2/27 113/22/27 114/22/27
f 115/22/1 114/22/1 113/22/1
f 114/22/1 115/22/1 116/22/1
f 117/22/1 116/22/1 115/22/1
f 117/22/1 118/22/1 116/22/1
f 118/22/1 117/22/1 119/22/1
f 115/22/30 111/2/30 120/2/30
f 111/2/30 115/22/30 113/22/30
f 119/22/27 121/2/27 118/22/27
f 121/2/27 119/22/27 122/2/27
f 119/22/29 123/2/29 122/2/29
f 123/2/29 119/22/29 124/27/29
f 124/27/29 119/22/29 117/22/29
f 125/2/28 115/22/28 120/2/28
f 115/22/28 125/2/28 126/28/28
f 115/22/28 126/28/28 117/22/28
f 117/22/28 126/28/28 124/27/28
f 129/22/31 128/2/31 127/2/31
f 128/2/31 129/22/31 130/29/31
f 130/29/31 129/22/31 131/30/31
f 131/30/31 129/22/31 132/22/31
f 135/22/32 134/2/32 133/2/32
f 134/2/32 135/22/32 136/31/32
f 137/22/32 136/31/32 135/22/32
f 138/2/32 136/31/32 137/22/32
f 136/31/32 138/2/32 139/2/32
f 132/22/33 140/2/33 131/30/33
f 140/2/33 132/22/33 135/22/33
f 140/2/33 135/22/33 133/2/33
f 132/22/1 137/22/1 135/22/1
f 137/22/1 132/22/1 129/22/1
f 138/2/34 129/22/34 127/2/34
f 129/22/34 138/2/34 137/22/34
f 143/22/23 142/2/23 141/2/23
f 142/2/23 143/22/23 144/22/23
f 142/2/23 144/22/23 145/32/23
f 145/32/23 144/22/23 146/2/23
f 146/2/23 144/22/23 147/2/23
f 148/22/1 144/22/1 143/22/1
f 144/22/1 148/22/1 149/22/1
f 144/22/25 150/2/25 147/2/25
f 150/2/25 144/22/25 149/22/25
f 148/22/26 152/33/26 151/33/26
f 143/22/26 152/33/26 148/22/26
f 141/2/26 152/33/26 143/22/26
f 152/33/26 141/2/26 153/2/26
f 154/33/24 148/22/24 151/33/24
f 148/22/24 154/33/24 149/22/24
f 149/22/24 154/33/24 155/2/24
f 149/22/24 155/2/24 150/2/24
g wood
v 0.019358 0.047275 0.01856
v 0.019358 0.050338 0.049618
v -0.086553 0.089065 0.046938
v -0.078788 0.089065 0.075916
v 0.035441 0.040501 0.045309
v 0.026243 0.015517 0.047773
v 0.019358 0.042144 0.049618
v -0.089108 0.061033 0.078681
v 0.023757 0.029857 0.017381
v 0.019358 0.030306 0.01856
v 0.018478 0.015517 0.018795
v -0.096873 0.061033 0.049704
v 0.049358 0.061033 0.099177
v 0.019358 0.061033 0.099177
v 0.049358 0.089065 0.088492
v 0.019358 0.089065 0.088492
v 0.085684 0.061033 -0.07134
v 0.094656 0.061033 -0.042712
v 0.075489 0.089065 -0.068145
v 0.08446 0.089065 -0.039517
v 0.049358 0.04355 -0.030928
v 0.049358 0.0432 -0.030794
v 0.049358 0.044469 -0.028517
v 0.049358 0.04294 -0.028517
v 0.049358 0.015517 -0.020243
v -0.028271 0.015517 -0.035628
v -0.038467 0.04355 -0.032433
v -0.0193 0.015517 -0.007001
v -0.029495 0.04355 -0.0038059
v 0.01546 0.061506 -0.017894
v -0.01544 0.052301 -0.035735
v -0.018588 0.047906 -0.0072242
v 0.0076964 0.035517 0.012264
v -0.095724 0.081033 -0.047446
v 0.016949 0.06355 0.017606
v -0.086471 0.10907 -0.042104
v 0.031949 0.06355 -0.0083743
v -0.071471 0.10907 -0.068084
v -0.080724 0.081033 -0.073427
v 0.019358 0.035517 -0.0079349
v 0.019358 0.036986 -0.015644
v 0.01546 0.038701 -0.017894
v 0.02789 0.051253 -0.010718
v 0.019358 0.059192 0.010112
v 0.019358 0.031793 -0.026447
v 0.019358 0.030958 -0.019116
v 0.019358 0.015517 -0.020243
v 0.019358 0.049375 -0.015644
v 0.019358 0.048052 -0.019116
vn 0.34401 0.93443 -0.092178
vn 0.25882 0 0.96593
vn -0.25882 0 -0.96593
vn 0 0.35615 0.93443
vn -0.90259 0.35615 0.24185
vn 0.90259 -0.35615 -0.24185
vn 0.89167 0.35615 -0.27943
vn 1 0 0
vn -0.34401 -0.93443 0.092178
vn -0.29904 0 -0.95424
vn -0.89167 -0.35615 0.27943
vn -0.33985 0.93443 0.1065
vn -0.5 0 0.86603
vn 0.30843 0.93443 0.17807
vn -0.80924 0.35615 -0.46721
vn -0.30843 -0.93443 -0.17807
vn 0.80924 -0.35615 0.46721
vn -1 0 0
vn 0 -0.93443 0.35615
vn 0.5 0 -0.86603
vn 0 0.93443 -0.35615
vn 0 -0.35615 -0.93443
vn 0.33985 -0.93443 -0.1065
vn 0.29904 0 0.95424
vt 0.59375 0.092896
vt 0.59375 0.099446
vt 0.59375 0.18224
vt 0.59375 0.078415
vt 0.59375 0.025
vt 0.59375 0.081926
vt 0.59375 0.12231
vt 0.59375 0.055658
vt 0.59375 0.056619
vt 0.59375 0.084932
vt 0.59375 0.084184
vt 0.59375 0.086897
vt 0.59375 0.083629
vt 0.59375 0.12332
vt 0.59375 0.10364
vt 0.59375 0.094247
vt 0.59375 0.067759
vt 0.59375 0.16507
vt 0.59375 0.12769
vt 0.59375 0.225
vt 0.59375 0.070899
vt 0.59375 0.074567
vt 0.59375 0.1014
vt 0.59375 0.11837
vt 0.59375 0.059797
vt 0.59375 0.058011
vt 0.59375 0.097386
vt 0.59375 0.094557
usemtl colormap
f 158/36/35 157/35/35 156/34/35
f 157/35/35 158/36/35 159/36/35
f 162/39/36 161/38/36 160/37/36
f 161/38/36 162/39/36 163/40/36
f 163/40/36 162/39/36 157/35/36
f 163/40/36 157/35/36 159/36/36
f 166/38/37 165/42/37 164/41/37
f 165/42/37 166/38/37 167/40/37
f 165/42/37 167/40/37 156/34/37
f 156/34/37 167/40/37 158/36/37
f 170/36/38 169/40/38 168/40/38
f 169/40/38 170/36/38 171/36/38
f 167/40/39 159/36/39 158/36/39
f 159/36/39 167/40/39 163/40/39
f 160/37/40 166/38/40 164/41/40
f 166/38/40 160/37/40 161/38/40
f 174/36/41 173/40/41 172/40/41
f 173/40/41 174/36/41 175/36/41
f 178/45/42 177/44/42 176/43/42
f 177/44/42 178/45/42 179/46/42
f 170/36/42 179/46/42 178/45/42
f 180/38/42 177/44/42 179/46/42
f 179/46/42 170/36/42 180/38/42
f 180/38/42 170/36/42 168/40/42
f 163/40/43 166/38/43 161/38/43
f 166/38/43 163/40/43 167/40/43
f 182/43/44 172/40/44 181/38/44
f 172/40/44 182/43/44 174/36/44
f 183/38/45 182/43/45 181/38/45
f 182/43/45 183/38/45 184/43/45
f 174/36/46 185/47/46 175/36/46
f 185/47/46 174/36/46 186/48/46
f 186/48/46 174/36/46 182/43/46
f 186/48/46 182/43/46 187/49/46
f 187/49/46 182/43/46 184/43/46
f 190/52/47 189/51/47 188/50/47
f 189/51/47 190/52/47 191/53/47
f 193/53/48 190/52/48 192/52/48
f 190/52/48 193/53/48 191/53/48
f 189/51/49 193/53/49 194/51/49
f 193/53/49 189/51/49 191/53/49
f 188/50/50 196/54/50 195/50/50
f 196/54/50 188/50/50 197/55/50
f 197/55/50 188/50/50 187/49/50
f 187/49/50 188/50/50 189/51/50
f 187/49/50 189/51/50 194/51/50
f 194/51/50 186/48/50 187/49/50
f 192/52/51 199/57/51 198/56/51
f 199/57/51 192/52/51 190/52/51
f 199/57/51 190/52/51 188/50/51
f 188/50/51 195/50/51 199/57/51
f 202/38/52 201/59/52 200/58/52
f 201/59/52 202/38/52 165/42/52
f 201/59/52 165/42/52 196/54/52
f 203/60/52 201/59/52 196/54/52
f 201/59/52 203/60/52 204/61/52
f 196/54/52 165/42/52 195/50/52
f 195/50/52 165/42/52 199/57/52
f 199/57/52 165/42/52 156/34/52
f 199/57/52 156/34/52 171/36/52
f 171/36/52 156/34/52 157/35/52
f 171/36/52 157/35/52 162/39/52
f 171/36/52 162/39/52 169/40/52
f 160/37/53 169/40/53 162/39/53
f 160/37/53 168/40/53 169/40/53
f 168/40/53 160/37/53 180/38/53
f 160/37/53 202/38/53 180/38/53
f 202/38/53 160/37/53 164/41/53
f 202/38/53 164/41/53 165/42/53
f 194/51/54 185/47/54 186/48/54
f 185/47/54 194/51/54 192/52/54
f 192/52/54 194/51/54 193/53/54
f 198/56/54 185/47/54 192/52/54
f 203/60/54 185/47/54 198/56/54
f 203/60/54 197/55/54 185/47/54
f 197/55/54 203/60/54 196/54/54
f 198/56/55 204/61/55 203/60/55
f 198/56/55 178/45/55 204/61/55
f 178/45/55 198/56/55 170/36/55
f 198/56/55 171/36/55 170/36/55
f 171/36/55 198/56/55 199/57/55
f 200/58/56 180/38/56 202/38/56
f 180/38/56 200/58/56 177/44/56
f 183/38/57 200/58/57 201/59/57
f 181/38/57 200/58/57 183/38/57
f 181/38/57 177/44/57 200/58/57
f 172/40/57 177/44/57 181/38/57
f 172/40/57 179/46/57 177/44/57
f 179/46/57 172/40/57 173/40/57
f 173/40/58 178/45/58 179/46/58
f 178/45/58 173/40/58 204/61/58
f 185/47/58 204/61/58 173/40/58
f 185/47/58 173/40/58 175/36/58
f 197/55/58 204/61/58 185/47/58
f 204/61/58 197/55/58 201/59/58
f 184/43/58 201/59/58 197/55/58
f 184/43/58 197/55/58 187/49/58
f 201/59/58 184/43/58 183/38/58
