mtllib survival_fish-large.mtl
g fish-large
v -0.063397 0.057074 0.034243
v -0.11736 0.057074 0.026367
v -0.063397 0.094306 0.024213
v -0.15364 0.067114 -0.0065255
v -0.11736 0.084209 -0.018644
v -0.15364 0.071273 -6.1596e-10
v -0.15364 0.047034 -0.0065255
v -0.11736 0.057074 -0.026367
v -0.14641 0.057074 -0.0092285
v -0.11736 0.029939 0.018644
v -0.11736 0.018699 1.6748e-10
v -0.15364 0.047034 0.0065255
v -0.007367 0.019842 -0.024213
v 0.039838 0.025054 -0.020339
v 0.039838 0.057074 -0.028764
v -0.063397 0.0044197 3.8029e-10
v -0.063397 0.019842 -0.024213
v -0.11736 0.029939 -0.018644
v -0.11736 0.084209 0.018644
v -0.063397 0.057074 -0.034243
v -0.063397 0.094306 -0.024213
v -0.15364 0.042875 -1.928e-10
v -0.063397 0.019842 0.024213
v -0.15364 0.067114 0.0065255
v 0.096797 0.038471 0.01213
v 0.093639 0.030732 0.002113
v 0.069298 0.030498 0.017085
v 0.069298 0.08365 -0.017085
v 0.039838 0.089094 -0.020339
v 0.069298 0.019489 1.558e-10
v 0.039838 0.011791 2.7049e-10
v 0.039838 0.025054 0.020339
v -0.14641 0.057074 0.0092285
v 0.069298 0.094659 -9.6433e-10
v 0.069298 0.08365 0.017085
v 0.039838 0.089094 0.020339
v 0.075252 0.025565 0.0066962
v 0.077846 0.022396 1.1249e-10
v 0.081747 0.086865 -0.0049807
v 0.08365 0.089189 -8.8281e-10
v -0.007367 0.0044197 3.8032e-10
v -0.11736 0.095449 -9.7619e-10
v 0.075264 0.025551 -0.0066918
v 0.096797 0.038471 -0.01213
v 0.069298 0.030498 -0.017085
v 0.076835 0.023631 -0.0026471
v 0.0816 0.086685 0.0052903
v -0.063397 0.10973 -1.189e-09
v 0.094415 0.084435 -8.1196e-10
v 0.096797 0.083383 -7.9629e-10
v 0.093582 0.083417 0.0021509
v 0.096797 0.075677 -0.01213
v 0.081631 0.086723 -0.0052791
v 0.081875 0.027378 -0.0050416
v 0.039838 0.057074 0.028764
v 0.093218 0.083421 0.0023943
v 0.096797 0.075677 0.01213
v 0.096797 0.057074 0.017155
v 0.069298 0.057074 0.024162
v -0.007367 0.019842 0.024213
v 0.082119 0.086589 -0.0051574
v 0.069298 0.057074 -0.024162
v 0.1115 0.041122 0.010068
v 0.1115 0.034514 -6.8054e-11
v -0.007367 0.057074 -0.034243
v 0.096797 0.030765 -1.2198e-11
v 0.095788 0.030319 -5.5614e-12
v 0.095435 0.030751 0.00091127
v 0.096797 0.057074 -0.017155
v 0.1115 0.041122 -0.010068
v 0.1115 0.057074 -0.014239
v -0.007367 0.057074 0.034243
v 0.1115 0.057074 0.014239
v 0.1115 0.073026 -0.010068
v 0.1115 0.079634 -7.404e-10
v 0.1115 0.073026 0.010068
v -0.007367 0.10695 0.0043642
v 0.037349 0.10193 0.0012768
v -0.007367 0.094306 0.024213
v -0.007367 0.094306 -0.024213
v 0.039838 0.10164 -0.0011055
v 0.0013664 0.10591 -0.0037629
v 0.041549 0.10127 -0.00099243
v 0.056608 0.097975 -1.0137e-09
v 0.039838 0.10164 0.0011055
v 0.093531 0.083355 -0.0023147
v 0.093517 0.083338 0.0023197
v 0.095115 0.031141 0.0017445
v 0.095122 0.031132 -0.0017419
v -0.007367 0.10695 -0.0043642
v -0.029206 0.10973 -1.1889e-09
v -0.034138 0.10569 0.0063381
v -0.034138 0.10569 -0.0063381
v -0.061282 4.1827e-05 0.048963
v 0.15364 0.016702 0.0039266
v 0.12794 0.025039 7.316e-11
v 0.12794 0.034422 0.0039266
v 0.15364 0.11417 -1.2549e-09
v 0.15364 0.097446 -0.0039266
v 0.15364 0.097446 0.0039266
v 0.12794 0.034422 -0.0039266
v 0.12794 0.079726 0.0039266
v 0.12794 0.089109 -8.8157e-10
v 0.12794 0.057074 0.005553
v 0.12794 0.057074 -0.005553
v 0.12794 0.079726 -0.0039266
v 0.15364 0.016702 -0.0039266
v 0.14744 0.057074 -0.005553
v 0.14744 0.057074 0.005553
v -0.061282 4.1827e-05 -0.048963
v 0.15364 -2.0914e-05 4.467e-10
v 0.064588 0.00030433 -0.045089
v 0.064588 0.00030434 0.045089
v 0.031565 0.15947 -1.9301e-09
v 0.096297 0.10464 -1.1131e-09
v 0.093855 0.0028394 4.0396e-10
v 0.099962 0.02522 7.045e-11
v 0.099962 0.091211 -9.1293e-10
vn -0.069098 0.25948 0.96327
vn -0.28287 0.23182 0.93072
vn -0.067785 0.2615 0.96282
vn -0.49966 0.73049 -0.46554
vn -0.35535 0.79986 -0.48369
vn -0.49859 0.73415 -0.46091
vn -0.46641 -0.058723 -0.88262
vn -0.27972 -0.23489 -0.9309
vn -0.50359 0.13288 -0.85366
vn -0.36099 -0.79672 0.48468
vn -0.3436 -0.80367 0.48586
vn -0.49271 -0.73735 0.46211
vn 0.05337 -0.25867 -0.96449
vn 0.12722 -0.253 -0.95906
vn 0.12868 -0.25358 -0.95872
vn -0.3853 0.093983 -0.91799
vn -0.31445 0.25702 -0.91382
vn -0.28223 0.23849 -0.92923
vn -0.10154 -0.84061 -0.53204
vn -0.1053 -0.83876 -0.53422
vn -0.35941 -0.79658 -0.48609
vn -0.26146 0.26421 0.92835
vn -0.10154 -0.84061 0.53204
vn -0.069098 0.25948 -0.96327
vn -0.067785 0.2615 -0.96282
vn -0.3253 0.02023 -0.9454
vn -0.34252 -0.80461 -0.48506
vn -0.49966 -0.73049 -0.46554
vn -0.49859 -0.73415 -0.46091
vn -0.25759 -0.26149 0.9302
vn -0.27972 -0.23489 0.9309
vn -0.071495 -0.26149 0.96256
vn -0.1053 -0.83876 0.53423
vn -0.48986 -0.73519 0.46854
vn -0.88809 -0.45966 0
vn -1 0 0
vn 0.27184 -0.80922 0.52083
vn 0.33618 -0.78884 0.5145
vn 0.26019 -0.8049 0.53334
vn 0.13073 0.25293 -0.95861
vn 0.19078 0.25175 -0.9488
vn 0.12932 0.25362 -0.95862
vn 0.23494 -0.82016 0.52167
vn 0.16888 -0.82561 0.53837
vn 0.17233 -0.82666 0.53566
vn -0.50359 -0.13288 0.85366
vn -0.46641 0.058723 0.88262
vn 0.25179 0.81398 0.52349
vn 0.26308 0.80785 0.52741
vn 0.17441 0.82536 0.537
vn 0.29413 -0.79221 0.53469
vn 0.2794 -0.82152 0.49703
vn -0.25759 -0.26149 -0.9302
vn -0.069842 -0.25947 -0.96322
vn -0.071495 -0.26149 -0.96256
vn 0.29763 0.80999 -0.50531
vn 0.30914 0.8111 -0.49653
vn 0.25267 0.8148 -0.52179
vn 0.17121 -0.82627 -0.53662
vn 0.06792 -0.8415 -0.53597
vn 0.065356 -0.8408 -0.53739
vn -0.10895 0.83998 -0.53157
vn -0.33727 0.80412 -0.48953
vn 0.28343 -0.80097 -0.52737
vn 0.28228 -0.80534 -0.5213
vn 0.25517 -0.80329 -0.53815
vn 0.27851 -0.82307 -0.49497
vn 0.23579 -0.82099 -0.51998
vn 0.30805 0.80824 0.50184
vn 0.3261 0.78025 0.53374
vn -0.10154 0.84061 0.53204
vn -0.1053 0.83876 0.53422
vn -0.36099 0.79672 0.48468
vn -0.48986 0.73519 0.46854
vn -0.3436 0.80367 0.48586
vn -0.49271 0.73735 0.46211
vn 0.34801 0.78807 0.50777
vn 0.28642 0.80802 0.51485
vn 0.34573 0.79128 0.50432
vn 0.28112 0.80588 -0.52109
vn 0.29827 0.80467 -0.51336
vn 0.261 0.80676 -0.53012
vn 0.34596 -0.78943 -0.50706
vn 0.19029 0.25233 0.94875
vn 0.13073 0.25293 0.95861
vn 0.12932 0.25362 0.95862
vn 0.33591 0.78857 0.51509
vn 0.16798 -0.82625 -0.53767
vn 0.21592 0.25279 0.94312
vn 0.21539 0.25378 0.94297
vn 0.19289 0.25248 0.94818
vn 0.12722 -0.253 0.95906
vn 0.05337 -0.25867 0.96449
vn 0.12868 -0.25358 0.95872
vn 0.34596 0.78943 -0.50706
vn -0.88809 0.45966 0
vn 0.19434 -0.25224 -0.94795
vn 0.27212 0.80898 0.52106
vn 0.19369 -0.25166 0.94823
vn 0.22203 -0.81517 0.53498
vn 0.21646 -0.82002 0.52982
vn 0.19125 -0.25312 0.94834
vn 0.055236 -0.25971 -0.96411
vn 0.28642 -0.80802 0.51485
vn 0.34801 -0.78807 0.50777
vn 0.34573 -0.79128 0.50432
vn 0.19175 -0.25254 -0.9484
vn 0.21264 -0.25282 -0.94386
vn 0.18324 -0.25311 -0.94993
vn 0.18846 -0.2484 -0.95015
vn 0.19354 0.25307 -0.94789
vn 0.21264 0.25282 -0.94386
vn 0.21322 0.25386 -0.94345
vn -0.10455 0.83883 -0.53427
vn 0.055236 -0.25971 0.96411
vn 0.065356 -0.8408 0.53739
vn 0.17839 -0.24887 0.95197
vn 0.21592 -0.25279 0.94312
vn 0.18402 -0.25307 0.94978
vn 0.18846 0.2484 -0.95015
vn 0.18324 0.25311 -0.94993
vn 0.21495 0.82033 -0.52996
vn 0.20852 0.81766 -0.53662
vn 0.29062 0.80616 -0.51541
vn 0.17839 0.24887 0.95197
vn 0.18402 0.25307 0.94978
vn 0.067259 0.84154 0.536
vn 0.13521 0.83084 0.53984
vn 0.066053 0.84075 0.53738
vn 0.21322 -0.25386 -0.94345
vn 0.054044 0.25864 0.96446
vn 0.052262 0.25975 0.96426
vn 0.054044 0.25864 -0.96446
vn 0.06792 -0.8415 0.53597
vn 0.21646 0.82002 0.52982
vn 0.22203 0.81517 0.53498
vn 0.052262 0.25975 -0.96426
vn 0.17121 0.82627 -0.53662
vn 0.16932 0.82555 -0.53833
vn 0.13489 0.83477 -0.53382
vn 0.21539 -0.25378 0.94297
vn -0.069842 -0.25947 0.96322
vn 0.20852 -0.81766 -0.53662
vn 0.21495 -0.82033 -0.52996
vn 0.29062 -0.80616 -0.51541
vn 0.28037 -0.82438 -0.49173
vn -0.46641 -0.058723 0.88262
vn -0.50359 0.13288 0.85366
vn 0.21114 0.81934 -0.53302
vn 0.21382 0.81827 0.53359
vn 0.17419 0.82484 0.53787
vn 0.34927 0.79093 -0.50244
vn 0.34504 0.79225 0.50328
vn 0.34504 -0.79225 0.50328
vn 0.34927 -0.79093 -0.50244
vn 0.21454 0.82104 -0.52902
vn 0.06792 0.8415 -0.53597
vn 0.069955 0.84138 -0.5359
vn 0 0.84345 0.53721
vn 0 0.84345 -0.53721
vn 0.082449 0.78164 0.61826
vn -0.082449 -0.78164 -0.61826
vn -0.22388 -0.24595 0.94307
vn -0.19183 -0.42379 0.88521
vn 0.037976 -0.38577 0.92181
vn 1 0 0
vn 0.99654 -0.083136 0
vn 0.25008 -0.24489 -0.93674
vn 0.10275 -0.099381 -0.98973
vn 0.38094 -0.13954 -0.91401
vn 0.037976 0.38577 0.92181
vn -0.19183 0.42379 0.88521
vn -0.22388 0.24595 0.94307
vn 0.10231 -0.059479 0.99297
vn 0.38555 -0.13928 0.91211
vn 0.20128 -0.11068 0.97326
vn 0.38094 0.13954 -0.91401
vn 0.23405 0.059393 -0.97041
vn 0.10275 0.099381 -0.98973
vn 0.23405 -0.059393 -0.97041
vn -0.024291 -0.055675 -0.99815
vn 0 -0.040254 -0.99919
vn -0.30907 0.36715 -0.87731
vn -0.23012 0.46984 -0.85223
vn -0.19986 0.25692 -0.94554
vn -0.43399 0.7532 0.49431
vn -0.26137 0.68987 0.6751
vn 0.20128 0.11068 0.97326
vn 0.38555 0.13928 0.91211
vn 0.10231 0.059479 0.99297
vn -0.024291 0.055675 -0.99815
vn -0.23012 -0.46984 -0.85223
vn -0.13448 -0.82844 -0.54369
vn -0.16428 -0.72305 -0.67098
vn -0.16428 0.72305 -0.67098
vn -0.43399 -0.7532 0.49431
vn -0.26137 -0.68987 0.6751
vn 0.45504 -0.22523 0.86152
vn -0.031023 -0.044993 0.99851
vn -0.015522 -0.058311 0.99818
vn 0.082449 0.78164 -0.61826
vn -0.082449 -0.78164 0.61826
vn 0.25008 0.24489 -0.93674
vn 0.99654 0.083136 0
vn -0.21756 0.22311 0.9502
vn -0.018283 0.69779 -0.71607
vn 0.018283 -0.69779 0.71607
vn -0.19986 -0.25692 -0.94554
vn -0.15569 -0.2258 -0.96165
vn 0.45504 0.22523 0.86152
vn -0.015522 0.058311 0.99818
vn -0.031023 0.044993 0.99851
vn -0.13448 0.82844 -0.54369
vn -0.21756 -0.22311 0.9502
vn -0.15569 0.2258 -0.96165
vn 0 0.040254 -0.99919
vn -0.30907 -0.36715 -0.87731
vn -0.018283 0.69779 0.71607
vn 0.018283 -0.69779 -0.71607
vn -0.63338 0.77384 0
vn -0.77381 0.63342 0
vn 0.25998 -0.070937 -0.96301
vn 0.25998 0.070937 0.96301
vn 0.25998 0.070937 -0.96301
vn 0.07213 0.029375 -0.99696
vn 0.07213 0.029375 0.99696
vn 0.77381 -0.63342 0
vn -0.77381 -0.63342 0
vn 0.77381 0.63342 0
vn 0.25998 -0.070937 0.96301
vn 0.34502 0.789 -0.50837
vt 0.21875 0.09658
vt 0.21875 0.14328
vt 0.21875 0.10917
vt 0.21875 0.13061
vt 0.21875 0.11439
vt 0.21875 0.083988
vt 0.21875 0.062548
vt 0.21875 0.048452
vt 0.21875 0.049885
vt 0.21875 0.056422
vt 0.21875 0.030543
vt 0.21875 0.078773
vt 0.21875 0.073248
vt 0.21875 0.063543
vt 0.21875 0.063249
vt 0.21875 0.12991
vt 0.21875 0.13674
vt 0.21875 0.049443
vt 0.21875 0.039788
vt 0.21875 0.14372
vt 0.21875 0.057063
vt 0.21875 0.053089
vt 0.21875 0.13394
vt 0.21875 0.13686
vt 0.21875 0.14471
vt 0.21875 0.057045
vt 0.21875 0.054638
vt 0.21875 0.13372
vt 0.21875 0.16262
vt 0.21875 0.1309
vt 0.21875 0.12958
vt 0.21875 0.12962
vt 0.21875 0.11991
vt 0.21875 0.13377
vt 0.21875 0.059337
vt 0.21875 0.12962
vt 0.21875 0.1336
vt 0.21875 0.076574
vt 0.21875 0.068287
vt 0.21875 0.063584
vt 0.21875 0.063025
vt 0.21875 0.063566
vt 0.21875 0.11659
vt 0.21875 0.12487
vt 0.21875 0.15913
vt 0.21875 0.15284
vt 0.21875 0.15247
vt 0.21875 0.15783
vt 0.21875 0.15201
vt 0.21875 0.14788
vt 0.21875 0.12954
vt 0.21875 0.12952
vt 0.21875 0.064056
vt 0.21875 0.064045
vt 0.21875 0.15755
vt 0.21875 0.15755
vt 0.46875 0.29988
vt 0.46875 0.27505
vt 0.46875 0.31255
vt 0.46875 0.29595
vt 0.46875 0.3064
vt 0.46875 0.31817
vt 0.46875 0.41819
vt 0.46875 0.39721
vt 0.46875 0.32657
vt 0.46875 0.34658
vt 0.46875 0.37499
vt 0.46875 0.38676
vt 0.46875 0.37487
vt 0.46875 0.36659
vt 0.46875 0.31829
vt 0.46875 0.275
vt 0.46875 0.27538
vt 0.46875 0.30642
vt 0.46875 0.475
vt 0.46875 0.41262
vt 0.46875 0.40755
vt 0.46875 0.40755
vt 0.46875 0.38377
vt 0.46875 0.40624
vt 0.46875 0.38394
vt 0.46875 0.38686
vt 0.46875 0.38372
vt 0.46875 0.27856
vt 0.46875 0.30663
vt 0.46875 0.30704
vt 0.46875 0.30934
vt 0.46875 0.31404
vt 0.46875 0.37952
vt 0.46875 0.37962
vt 0.46875 0.38939
vt 0.46875 0.37954
vt 0.46875 0.3836
vt 0.46875 0.40913
vt 0.46875 0.40783
vt 0.46875 0.40247
vt 0.46875 0.40201
vt 0.46875 0.39788
vt 0.46875 0.40284
vt 0.46875 0.3809
vt 0.46875 0.37962
vt 0.46875 0.30464
vt 0.46875 0.30309
vt 0.46875 0.30706
vt 0.46875 0.31303
vt 0.46875 0.31357
vt 0.46875 0.31406
vt 0.46875 0.31354
vt 0.46875 0.1336
vt 0.46875 0.13394
vt 0.46875 0.13377
usemtl colormap
f 3/2/3 2/1/2 1/1/1
f 6/5/6 5/4/5 4/3/4
f 9/1/9 8/1/8 7/6/7
f 12/6/12 11/8/11 10/7/10
f 15/1/15 14/10/14 13/9/13
f 5/4/18 8/1/17 9/1/16
f 18/7/21 17/9/20 16/11/19
f 3/2/3 19/4/22 2/1/2
f 10/7/10 11/8/11 16/11/23
f 21/2/25 20/1/24 8/1/17
f 5/4/18 9/1/16 4/3/26
f 11/8/27 18/7/21 16/11/19
f 22/12/29 7/6/28 18/7/21
f 1/1/32 2/1/31 10/7/30
f 10/7/10 16/11/23 23/9/33
f 12/6/12 22/12/34 11/8/11
f 24/3/35 6/5/36 4/3/35
f 27/15/39 26/14/38 25/13/37
f 29/17/42 28/16/41 15/1/40
f 32/10/45 31/19/44 30/18/43
f 24/3/47 33/1/46 2/1/2
f 36/17/50 35/16/49 34/20/48
f 32/10/45 30/18/43 27/15/39
f 30/18/43 38/22/52 37/21/51
f 22/12/29 18/7/21 11/8/27
f 20/1/55 17/9/54 18/7/53
f 34/20/58 40/24/57 39/23/56
f 41/11/61 13/9/60 14/10/59
f 42/25/63 21/2/62 5/4/5
f 45/15/66 44/13/65 43/26/64
f 30/18/68 43/26/64 46/27/67
f 34/20/48 47/28/70 40/24/69
f 30/18/68 45/15/66 43/26/64
f 19/4/73 3/2/72 48/29/71
f 35/16/49 47/28/70 34/20/48
f 24/3/76 42/25/75 6/5/74
f 51/32/79 50/31/78 49/30/77
f 27/15/39 37/21/51 26/14/38
f 28/16/82 53/34/81 52/33/80
f 43/26/64 44/13/65 54/35/83
f 36/17/86 55/1/85 35/16/84
f 35/16/49 56/36/87 47/28/70
f 31/19/88 45/15/66 30/18/68
f 27/15/39 30/18/43 37/21/51
f 35/16/84 58/1/90 57/33/89
f 35/16/84 59/1/91 58/1/90
f 55/1/94 60/9/93 32/10/92
f 31/19/88 14/10/59 45/15/66
f 8/1/8 18/7/53 7/6/7
f 53/34/81 61/37/95 52/33/80
f 12/6/96 7/6/96 22/12/36
f 62/1/97 14/10/14 15/1/15
f 24/3/76 19/4/73 42/25/75
f 28/16/82 39/23/56 53/34/81
f 35/16/49 57/33/98 56/36/87
f 35/16/84 55/1/85 59/1/91
f 55/1/94 32/10/92 59/1/99
f 25/13/37 64/39/101 63/38/100
f 59/1/99 32/10/92 27/15/102
f 15/1/15 13/9/13 65/1/103
f 68/42/106 67/41/105 66/40/104
f 62/1/97 45/15/107 14/10/14
f 71/1/110 70/38/109 69/1/108
f 34/20/58 39/23/56 28/16/82
f 52/33/113 69/1/112 62/1/111
f 42/25/63 48/29/114 21/2/62
f 72/1/115 60/9/93 55/1/94
f 41/11/116 31/19/44 32/10/45
f 19/4/73 48/29/71 42/25/75
f 73/1/119 25/13/118 63/38/117
f 8/1/8 20/1/55 18/7/53
f 74/43/121 71/1/120 69/1/112
f 50/31/124 75/44/123 74/43/122
f 57/33/89 73/1/126 76/43/125
f 28/16/41 52/33/113 62/1/111
f 79/2/129 78/46/128 77/45/127
f 41/11/61 14/10/59 31/19/88
f 69/1/108 44/13/130 62/1/97
f 62/1/97 44/13/130 45/15/107
f 28/16/41 62/1/111 15/1/40
f 79/2/132 72/1/131 36/17/86
f 29/17/42 15/1/40 65/1/133
f 60/9/134 41/11/116 32/10/45
f 57/33/98 76/43/136 75/44/135
f 36/17/86 72/1/131 55/1/85
f 57/33/89 58/1/90 73/1/126
f 57/33/98 75/44/135 50/31/78
f 80/2/137 29/17/42 65/1/133
f 82/48/140 81/47/139 29/17/138
f 69/1/108 70/38/109 44/13/130
f 52/33/113 74/43/121 69/1/112
f 59/1/99 27/15/102 58/1/141
f 1/1/32 10/7/30 23/9/142
f 21/2/25 8/1/17 5/4/18
f 25/13/37 66/40/104 64/39/101
f 66/40/145 70/38/144 64/39/143
f 30/18/68 46/27/67 38/22/146
f 19/4/22 24/3/47 2/1/2
f 58/1/141 27/15/102 25/13/118
f 50/31/124 74/43/122 52/33/80
f 58/1/141 25/13/118 73/1/119
f 2/1/31 33/1/148 12/6/147
f 6/5/6 42/25/63 5/4/5
f 2/1/31 12/6/147 10/7/30
f 66/40/145 44/13/65 70/38/144
f 29/17/138 83/49/149 28/16/82
f 83/49/149 29/17/138 81/47/139
f 84/50/150 36/17/50 34/20/48
f 36/17/50 84/50/150 85/47/151
f 86/51/152 52/33/80 61/37/95
f 52/33/80 86/51/152 50/31/124
f 50/31/124 86/51/152 49/30/152
f 51/32/79 57/33/98 50/31/78
f 57/33/98 51/32/79 87/52/153
f 57/33/98 87/52/153 56/36/87
f 25/13/37 68/42/106 66/40/104
f 68/42/106 25/13/37 88/53/154
f 88/53/154 25/13/37 26/14/38
f 20/1/55 13/9/13 17/9/54
f 13/9/13 20/1/55 65/1/103
f 78/46/128 36/17/50 85/47/151
f 36/17/50 78/46/128 79/2/129
f 41/11/61 17/9/20 13/9/60
f 17/9/20 41/11/61 16/11/19
f 44/13/65 89/54/155 54/35/83
f 89/54/155 44/13/65 66/40/145
f 89/54/155 66/40/145 67/41/155
f 60/9/93 1/1/32 23/9/142
f 1/1/32 60/9/93 72/1/115
f 83/49/149 34/20/58 28/16/82
f 34/20/58 83/49/149 84/50/156
f 60/9/134 16/11/23 41/11/116
f 16/11/23 60/9/134 23/9/33
f 33/1/36 4/3/35 9/1/36
f 4/3/35 33/1/36 24/3/35
f 80/2/157 82/48/140 29/17/138
f 82/48/140 80/2/157 90/45/158
f 48/29/71 92/55/159 91/29/159
f 3/2/72 92/55/159 48/29/71
f 79/2/129 92/55/159 3/2/72
f 92/55/159 79/2/129 77/45/127
f 7/6/96 33/1/36 9/1/36
f 33/1/36 7/6/96 12/6/96
f 72/1/131 3/2/3 1/1/1
f 3/2/3 72/1/131 79/2/132
f 21/2/25 65/1/133 20/1/24
f 65/1/133 21/2/25 80/2/137
f 21/2/62 90/45/158 80/2/157
f 90/45/158 21/2/62 93/56/160
f 48/29/114 93/56/160 21/2/62
f 93/56/160 48/29/114 91/29/160
f 10/59/161 94/58/161 23/57/161
f 23/57/162 94/58/162 10/59/162
f 97/62/165 96/61/164 95/60/163
f 100/64/167 99/64/167 98/63/166
f 71/66/170 101/62/169 70/65/168
f 100/64/173 103/68/172 102/67/171
f 104/66/176 63/65/175 97/62/174
f 106/67/179 105/66/178 71/66/177
f 108/66/182 107/60/181 105/66/180
f 98/63/185 106/67/184 103/68/183
f 76/70/187 103/68/172 75/69/186
f 102/67/190 76/70/189 104/66/188
f 99/64/191 105/66/178 106/67/179
f 64/71/194 70/65/193 101/62/192
f 105/66/180 107/60/181 101/62/169
f 103/68/183 106/67/184 75/69/195
f 63/65/197 64/71/196 96/61/164
f 73/66/198 63/65/175 104/66/176
f 109/66/200 97/62/174 95/60/199
f 18/59/201 17/57/201 110/58/201
f 110/58/202 17/57/202 18/59/202
f 106/67/179 71/66/177 74/70/203
f 95/60/204 111/72/166 107/60/204
f 98/63/205 103/68/172 100/64/173
f 14/74/206 112/73/206 13/57/206
f 13/57/207 112/73/207 14/74/207
f 101/62/192 107/60/209 111/72/208
f 76/70/189 73/66/210 104/66/188
f 109/66/200 104/66/176 97/62/174
f 63/65/197 96/61/164 97/62/165
f 103/68/172 76/70/187 102/67/171
f 100/64/212 102/67/190 109/66/211
f 75/69/195 106/67/184 74/70/213
f 96/61/164 111/72/214 95/60/163
f 105/66/180 101/62/169 71/66/170
f 98/63/185 99/64/215 106/67/184
f 99/64/191 108/66/216 105/66/178
f 102/67/190 104/66/188 109/66/211
f 101/62/192 111/72/208 96/61/217
f 32/74/218 60/57/218 113/73/218
f 113/73/219 60/57/219 32/74/219
f 64/71/194 101/62/192 96/61/217
f 93/77/220 91/76/220 114/75/220
f 92/78/220 114/75/220 91/76/220
f 39/81/221 115/80/221 53/79/221
f 115/80/221 39/81/221 40/82/221
f 115/80/221 40/82/221 47/83/221
f 43/86/222 117/85/222 116/84/222
f 117/85/222 43/86/222 54/87/222
f 117/85/222 54/87/222 89/88/222
f 118/91/223 56/90/223 87/89/223
f 56/90/223 118/91/223 47/83/223
f 47/83/223 118/91/223 115/80/223
f 61/93/224 118/91/224 86/92/224
f 118/91/224 61/93/224 53/79/224
f 118/91/224 53/79/224 115/80/224
f 114/75/225 90/94/225 93/77/225
f 114/75/225 82/95/225 90/94/225
f 114/75/225 81/96/225 82/95/225
f 114/75/225 83/97/225 81/96/225
f 83/97/225 114/75/225 84/98/225
f 114/75/226 85/96/226 84/98/226
f 85/96/226 114/75/226 78/99/226
f 78/99/226 114/75/226 77/94/226
f 114/75/226 92/78/226 77/94/226
f 118/91/227 49/100/227 86/92/227
f 49/100/227 118/91/227 87/89/227
f 49/100/227 87/89/227 51/101/227
f 116/84/228 46/102/228 43/86/228
f 46/102/228 116/84/228 38/103/228
f 38/103/228 116/84/228 37/104/228
f 67/105/229 117/85/229 89/88/229
f 117/85/229 67/105/229 68/106/229
f 117/85/229 68/106/229 88/107/229
f 117/85/230 37/104/230 116/84/230
f 37/104/230 117/85/230 88/107/230
f 37/104/230 88/107/230 26/108/230
f 99/64/167 109/66/166 108/66/166
f 109/66/166 99/64/167 100/64/167
f 109/66/166 107/60/204 108/66/166
f 107/60/204 109/66/166 95/60/204
f 53/111/231 39/110/231 61/109/231
g fish-large
usemtl colormap
f 3/2/3 2/1/2 1/1/1
f 6/5/6 5/4/5 4/3/4
f 9/1/9 8/1/8 7/6/7
f 12/6/12 11/8/11 10/7/10
f 15/1/15 14/10/14 13/9/13
f 5/4/18 8/1/17 9/1/16
f 18/7/21 17/9/20 16/11/19
f 3/2/3 19/4/22 2/1/2
f 10/7/10 11/8/11 16/11/23
f 21/2/25 20/1/24 8/1/17
f 5/4/18 9/1/16 4/3/26
f 11/8/27 18/7/21 16/11/19
f 22/12/29 7/6/28 18/7/21
f 1/1/32 2/1/31 10/7/30
f 10/7/10 16/11/23 23/9/33
f 12/6/12 22/12/34 11/8/11
f 24/3/35 6/5/36 4/3/35
f 27/15/39 26/14/38 25/13/37
f 29/17/42 28/16/41 15/1/40
f 32/10/45 31/19/44 30/18/43
f 24/3/47 33/1/46 2/1/2
f 36/17/50 35/16/49 34/20/48
f 32/10/45 30/18/43 27/15/39
f 30/18/43 38/22/52 37/21/51
f 22/12/29 18/7/21 11/8/27
f 20/1/55 17/9/54 18/7/53
f 34/20/58 40/24/57 39/23/56
f 41/11/61 13/9/60 14/10/59
f 42/25/63 21/2/62 5/4/5
f 45/15/66 44/13/65 43/26/64
f 30/18/68 43/26/64 46/27/67
f 34/20/48 47/28/70 40/24/69
f 30/18/68 45/15/66 43/26/64
f 19/4/73 3/2/72 48/29/71
f 35/16/49 47/28/70 34/20/48
f 24/3/76 42/25/75 6/5/74
f 51/32/79 50/31/78 49/30/77
f 27/15/39 37/21/51 26/14/38
f 28/16/82 53/34/81 52/33/80
f 43/26/64 44/13/65 54/35/83
f 36/17/86 55/1/85 35/16/84
f 35/16/49 56/36/87 47/28/70
f 31/19/88 45/15/66 30/18/68
f 27/15/39 30/18/43 37/21/51
f 35/16/84 58/1/90 57/33/89
f 35/16/84 59/1/91 58/1/90
f 55/1/94 60/9/93 32/10/92
f 31/19/88 14/10/59 45/15/66
f 8/1/8 18/7/53 7/6/7
f 53/34/81 61/37/95 52/33/80
f 12/6/96 7/6/96 22/12/36
f 62/1/97 14/10/14 15/1/15
f 24/3/76 19/4/73 42/25/75
f 28/16/82 39/23/56 53/34/81
f 35/16/49 57/33/98 56/36/87
f 35/16/84 55/1/85 59/1/91
f 55/1/94 32/10/92 59/1/99
f 25/13/37 64/39/101 63/38/100
f 59/1/99 32/10/92 27/15/102
f 15/1/15 13/9/13 65/1/103
f 68/42/106 67/41/105 66/40/104
f 62/1/97 45/15/107 14/10/14
f 71/1/110 70/38/109 69/1/108
f 34/20/58 39/23/56 28/16/82
f 52/33/113 69/1/112 62/1/111
f 42/25/63 48/29/114 21/2/62
f 72/1/115 60/9/93 55/1/94
f 41/11/116 31/19/44 32/10/45
f 19/4/73 48/29/71 42/25/75
f 73/1/119 25/13/118 63/38/117
f 8/1/8 20/1/55 18/7/53
f 74/43/121 71/1/120 69/1/112
f 50/31/124 75/44/123 74/43/122
f 57/33/89 73/1/126 76/43/125
f 28/16/41 52/33/113 62/1/111
f 79/2/129 78/46/128 77/45/127
f 41/11/61 14/10/59 31/19/88
f 69/1/108 44/13/130 62/1/97
f 62/1/97 44/13/130 45/15/107
f 28/16/41 62/1/111 15/1/40
f 79/2/132 72/1/131 36/17/86
f 29/17/42 15/1/40 65/1/133
f 60/9/134 41/11/116 32/10/45
f 57/33/98 76/43/136 75/44/135
f 36/17/86 72/1/131 55/1/85
f 57/33/89 58/1/90 73/1/126
f 57/33/98 75/44/135 50/31/78
f 80/2/137 29/17/42 65/1/133
f 82/48/140 81/47/139 29/17/138
f 69/1/108 70/38/109 44/13/130
f 52/33/113 74/43/121 69/1/112
f 59/1/99 27/15/102 58/1/141
f 1/1/32 10/7/30 23/9/142
f 21/2/25 8/1/17 5/4/18
f 25/13/37 66/40/104 64/39/101
f 66/40/145 70/38/144 64/39/143
f 30/18/68 46/27/67 38/22/146
f 19/4/22 24/3/47 2/1/2
f 58/1/141 27/15/102 25/13/118
f 50/31/124 74/43/122 52/33/80
f 58/1/141 25/13/118 73/1/119
f 2/1/31 33/1/148 12/6/147
f 6/5/6 42/25/63 5/4/5
f 2/1/31 12/6/147 10/7/30
f 66/40/145 44/13/65 70/38/144
f 29/17/138 83/49/149 28/16/82
f 83/49/149 29/17/138 81/47/139
f 84/50/150 36/17/50 34/20/48
f 36/17/50 84/50/150 85/47/151
f 86/51/152 52/33/80 61/37/95
f 52/33/80 86/51/152 50/31/124
f 50/31/124 86/51/152 49/30/152
f 51/32/79 57/33/98 50/31/78
f 57/33/98 51/32/79 87/52/153
f 57/33/98 87/52/153 56/36/87
f 25/13/37 68/42/106 66/40/104
f 68/42/106 25/13/37 88/53/154
f 88/53/154 25/13/37 26/14/38
f 20/1/55 13/9/13 17/9/54
f 13/9/13 20/1/55 65/1/103
f 78/46/128 36/17/50 85/47/151
f 36/17/50 78/46/128 79/2/129
f 41/11/61 17/9/20 13/9/60
f 17/9/20 41/11/61 16/11/19
f 44/13/65 89/54/155 54/35/83
f 89/54/155 44/13/65 66/40/145
f 89/54/155 66/40/145 67/41/155
f 60/9/93 1/1/32 23/9/142
f 1/1/32 60/9/93 72/1/115
f 83/49/149 34/20/58 28/16/82
f 34/20/58 83/49/149 84/50/156
f 60/9/134 16/11/23 41/11/116
f 16/11/23 60/9/134 23/9/33
f 33/1/36 4/3/35 9/1/36
f 4/3/35 33/1/36 24/3/35
f 80/2/157 82/48/140 29/17/138
f 82/48/140 80/2/157 90/45/158
f 48/29/71 92/55/159 91/29/159
f 3/2/72 92/55/159 48/29/71
f 79/2/129 92/55/159 3/2/72
f 92/55/159 79/2/129 77/45/127
f 7/6/96 33/1/36 9/1/36
f 33/1/36 7/6/96 12/6/96
f 72/1/131 3/2/3 1/1/1
f 3/2/3 72/1/131 79/2/132
f 21/2/25 65/1/133 20/1/24
f 65/1/133 21/2/25 80/2/137
f 21/2/62 90/45/158 80/2/157
f 90/45/158 21/2/62 93/56/160
f 48/29/114 93/56/160 21/2/62
f 93/56/160 48/29/114 91/29/160
f 10/59/161 94/58/161 23/57/161
f 23/57/162 94/58/162 10/59/162
f 97/62/165 96/61/164 95/60/163
f 100/64/167 99/64/167 98/63/166
f 71/66/170 101/62/169 70/65/168
f 100/64/173 103/68/172 102/67/171
f 104/66/176 63/65/175 97/62/174
f 106/67/179 105/66/178 71/66/177
f 108/66/182 107/60/181 105/66/180
f 98/63/185 106/67/184 103/68/183
f 76/70/187 103/68/172 75/69/186
f 102/67/190 76/70/189 104/66/188
f 99/64/191 105/66/178 106/67/179
f 64/71/194 70/65/193 101/62/192
f 105/66/180 107/60/181 101/62/169
f 103/68/183 106/67/184 75/69/195
f 63/65/197 64/71/196 96/61/164
f 73/66/198 63/65/175 104/66/176
f 109/66/200 97/62/174 95/60/199
f 18/59/201 17/57/201 110/58/201
f 110/58/202 17/57/202 18/59/202
f 106/67/179 71/66/177 74/70/203
f 95/60/204 111/72/166 107/60/204
f 98/63/205 103/68/172 100/64/173
f 14/74/206 112/73/206 13/57/206
f 13/57/207 112/73/207 14/74/207
f 101/62/192 107/60/209 111/72/208
f 76/70/189 73/66/210 104/66/188
f 109/66/200 104/66/176 97/62/174
f 63/65/197 96/61/164 97/62/165
f 103/68/172 76/70/187 102/67/171
f 100/64/212 102/67/190 109/66/211
f 75/69/195 106/67/184 74/70/213
f 96/61/164 111/72/214 95/60/163
f 105/66/180 101/62/169 71/66/170
f 98/63/185 99/64/215 106/67/184
f 99/64/191 108/66/216 105/66/178
f 102/67/190 104/66/188 109/66/211
f 101/62/192 111/72/208 96/61/217
f 32/74/218 60/57/218 113/73/218
f 113/73/219 60/57/219 32/74/219
f 64/71/194 101/62/192 96/61/217
f 93/77/220 91/76/220 114/75/220
f 92/78/220 114/75/220 91/76/220
f 39/81/221 115/80/221 53/79/221
f 115/80/221 39/81/221 40/82/221
f 115/80/221 40/82/221 47/83/221
f 43/86/222 117/85/222 116/84/222
f 117/85/222 43/86/222 54/87/222
f 117/85/222 54/87/222 89/88/222
f 118/91/223 56/90/223 87/89/223
f 56/90/223 118/91/223 47/83/223
f 47/83/223 118/91/223 115/80/223
f 61/93/224 118/91/224 86/92/224
f 118/91/224 61/93/224 53/79/224
f 118/91/224 53/79/224 115/80/224
f 114/75/225 90/94/225 93/77/225
f 114/75/225 82/95/225 90/94/225
f 114/75/225 81/96/225 82/95/225
f 114/75/225 83/97/225 81/96/225
f 83/97/225 114/75/225 84/98/225
f 114/75/226 85/96/226 84/98/226
f 85/96/226 114/75/226 78/99/226
f 78/99/226 114/75/226 77/94/226
f 114/75/226 92/78/226 77/94/226
f 118/91/227 49/100/227 86/92/227
f 49/100/227 118/91/227 87/89/227
f 49/100/227 87/89/227 51/101/227
f 116/84/228 46/102/228 43/86/228
f 46/102/228 116/84/228 38/103/228
f 38/103/228 116/84/228 37/104/228
f 67/105/229 117/85/229 89/88/229
f 117/85/229 67/105/229 68/106/229
f 117/85/229 68/106/229 88/107/229
f 117/85/230 37/104/230 116/84/230
f 37/104/230 117/85/230 88/107/230
f 37/104/230 88/107/230 26/108/230
f 99/64/167 109/66/166 108/66/166
f 109/66/166 99/64/167 100/64/167
f 109/66/166 107/60/204 108/66/166
f 107/60/204 109/66/166 95/60/204
f 53/111/231 39/110/231 61/109/231
