mtllib survival_patch-grass.mtl
g patch-grass
v 0.6 0 -2.9802e-09
v 0.57321 0 0.1
v 0.57321 0 -0.1
v 0.5 0 -0.17321
v 0.5 0 0.17321
v 0.4 0 -0.2
v 0.4 0 0.2
v 0.3 0 -0.22679
v 0.3 0 0.22679
v 0.22679 0 0.3
v 0.22679 0 -0.3
v 0.2 0 0.4
v 0.2 0 -0.4
v 0.17321 0 0.5
v 0.17321 0 -0.5
v 0.1 0 0.57321
v 0.1 0 -0.57321
v 5.2154e-09 0 0.6
v -7.4506e-10 0 -0.6
v -0.1 0 0.57321
v -0.2 0 -0.6
v -0.17321 0 0.5
v -0.2 0 0.4
v -0.3 0 -0.57321
v -0.22679 0 0.3
v -0.3 0 0.22679
v -0.37321 0 -0.5
v -0.4 0 0.2
v -0.4 0 -0.4
v -0.5 0 -0.37321
v -0.5 0 0.17321
v -0.57321 0 -0.3
v -0.57321 0 0.1
v -0.6 0 -0.2
v -0.6 0 -2.9802e-09
vn 0 1 0
vt 0.09375 0.275
usemtl colormap
f 3/1/1 2/1/1 1/1/1
f 2/1/1 3/1/1 4/1/1
f 2/1/1 4/1/1 5/1/1
f 5/1/1 4/1/1 6/1/1
f 5/1/1 6/1/1 7/1/1
f 7/1/1 6/1/1 8/1/1
f 7/1/1 8/1/1 9/1/1
f 9/1/1 8/1/1 10/1/1
f 10/1/1 8/1/1 11/1/1
f 10/1/1 11/1/1 12/1/1
f 12/1/1 11/1/1 13/1/1
f 12/1/1 13/1/1 14/1/1
f 14/1/1 13/1/1 15/1/1
f 14/1/1 15/1/1 16/1/1
f 16/1/1 15/1/1 17/1/1
f 16/1/1 17/1/1 18/1/1
f 18/1/1 17/1/1 19/1/1
f 18/1/1 19/1/1 20/1/1
f 20/1/1 19/1/1 21/1/1
f 20/1/1 21/1/1 22/1/1
f 22/1/1 21/1/1 23/1/1
f 23/1/1 21/1/1 24/1/1
f 23/1/1 24/1/1 25/1/1
f 25/1/1 24/1/1 26/1/1
f 26/1/1 24/1/1 27/1/1
f 26/1/1 27/1/1 28/1/1
f 28/1/1 27/1/1 29/1/1
f 28/1/1 29/1/1 30/1/1
f 28/1/1 30/1/1 31/1/1
f 31/1/1 30/1/1 32/1/1
f 31/1/1 32/1/1 33/1/1
f 33/1/1 32/1/1 34/1/1
f 33/1/1 34/1/1 35/1/1
g patch-grass
usemtl colormap
f 3/1/1 2/1/1 1/1/1
f 2/1/1 3/1/1 4/1/1
f 2/1/1 4/1/1 5/1/1
f 5/1/1 4/1/1 6/1/1
f 5/1/1 6/1/1 7/1/1
f 7/1/1 6/1/1 8/1/1
f 7/1/1 8/1/1 9/1/1
f 9/1/1 8/1/1 10/1/1
f 10/1/1 8/1/1 11/1/1
f 10/1/1 11/1/1 12/1/1
f 12/1/1 11/1/1 13/1/1
f 12/1/1 13/1/1 14/1/1
f 14/1/1 13/1/1 15/1/1
f 14/1/1 15/1/1 16/1/1
f 16/1/1 15/1/1 17/1/1
f 16/1/1 17/1/1 18/1/1
f 18/1/1 17/1/1 19/1/1
f 18/1/1 19/1/1 20/1/1
f 20/1/1 19/1/1 21/1/1
f 20/1/1 21/1/1 22/1/1
f 22/1/1 21/1/1 23/1/1
f 23/1/1 21/1/1 24/1/1
f 23/1/1 24/1/1 25/1/1
f 25/1/1 24/1/1 26/1/1
f 26/1/1 24/1/1 27/1/1
f 26/1/1 27/1/1 28/1/1
f 28/1/1 27/1/1 29/1/1
f 28/1/1 29/1/1 30/1/1
f 28/1/1 30/1/1 31/1/1
f 31/1/1 30/1/1 32/1/1
f 31/1/1 32/1/1 33/1/1
f 33/1/1 32/1/1 34/1/1
f 33/1/1 34/1/1 35/1/1
