mtllib survival_tool-hammer.mtl
g tool-hammer
v 0.015056 0.0183 -0.011856
v 0.01 0.15348 -0.01
v -0.011856 0.0183 -0.011856
v -0.01 0.15348 -0.01
v 0.015056 0.0183 0.015056
v -0.011856 0.0183 0.015056
v 0.01 0.15348 0.01
v -0.01 0.15348 0.01
v 0.01088 0 -0.00768
v -0.00768 2.7655e-10 -0.00768
v 0.01088 0 0.01088
v -0.00768 2.7655e-10 0.01088
v -0.024258 0.13567 0.02
v -0.045 0.12262 0.02
v -0.045 0.14067 0.015
v 0.045 0.085665 0.02
v 0.045 0.080665 -0.0046451
v 0.032829 0.080665 0.015
v -0.045 0.085665 0.02
v -0.045 0.080665 0.015
v -0.045 0.085665 -0.02
v -0.045 0.13567 -0.02
v -0.045 0.080665 -0.015
v -0.045 0.14067 -0.015
v 0.045 0.080665 -0.015
v 0.045 0.085665 -0.02
v 0.045 0.13567 0.02
v 0.045 0.13567 -0.02
v 0.045 0.14067 -0.015
v 0.045 0.14067 0.015
vn 0 -0.097632 -0.99522
vn 0 0.013729 -0.99991
vn 0 -0.096725 -0.99531
vn 0 -0.0851 0.99637
vn 0 -0.084102 0.99646
vn 0 0.037376 0.9993
vn 0 -0.22248 -0.97494
vn 0.99646 -0.084102 0
vn 0.99637 -0.0851 0
vn 0.9993 0.037376 0
vn 0 -0.22248 0.97494
vn 0.97494 -0.22248 0
vn -0.99531 -0.096725 0
vn -0.99991 0.013729 0
vn -0.99522 -0.097632 0
vn -0.97494 -0.22248 0
vn 0 -1 0
vn 0 1 0
vn -0.1656 0.26339 0.95037
vn 0.30558 -0.93315 0.18932
vn 0 -0.18813 0.98214
vn 0 -0.90667 0.42184
vn 0 -0.38268 0.92388
vn 0 -0.92388 0.38268
vn -1 0 0
vn 0 -0.92388 -0.38268
vn 0 -0.38268 -0.92388
vn 0 0.38268 0.92388
vn 0 0 1
vn 0 0.39913 0.91689
vn 0 0.38268 -0.92388
vn 0 0.92388 -0.38268
vn 0 0.92388 0.38268
vn 0 0.9918 0.12779
vn 1 0 0
vt 0.59375 0.048847
vt 0.59375 0.225
vt 0.59375 0.025
vt 0.34375 0.20833
vt 0.34375 0.16486
vt 0.34375 0.225
vt 0.34375 0.041667
vt 0.34375 0.025
vt 0.34375 0.041667
vt 0.34375 0.025
vt 0.34375 0.20833
usemtl colormap
f 3/1/3 2/2/2 1/1/1
f 2/2/2 3/1/3 4/2/2
f 7/2/6 6/1/5 5/1/4
f 6/1/5 7/2/6 8/2/6
f 10/3/7 1/1/1 9/3/7
f 1/1/1 10/3/7 3/1/3
f 2/2/10 5/1/9 1/1/8
f 5/1/9 2/2/10 7/2/10
f 5/1/4 12/3/11 11/3/11
f 12/3/11 5/1/4 6/1/5
f 5/1/9 9/3/12 1/1/8
f 9/3/12 5/1/9 11/3/12
f 6/1/15 4/2/14 3/1/13
f 4/2/14 6/1/15 8/2/14
f 10/3/16 6/1/15 3/1/13
f 6/1/15 10/3/16 12/3/16
f 12/3/17 9/3/17 11/3/17
f 9/3/17 12/3/17 10/3/17
f 2/2/18 8/2/18 7/2/18
f 8/2/18 2/2/18 4/2/18
f 15/6/19 14/5/19 13/4/19
f 18/8/20 17/8/20 16/7/20
f 19/9/23 18/8/22 16/7/21
f 18/8/22 19/9/23 20/10/24
f 23/10/25 22/4/25 21/9/25
f 22/4/25 23/10/25 24/6/25
f 24/6/25 23/10/25 20/10/25
f 24/6/25 20/10/25 15/6/25
f 15/6/25 20/10/25 19/9/25
f 15/6/25 19/9/25 14/5/25
f 23/10/26 26/7/27 25/8/26
f 26/7/27 23/10/26 21/9/27
f 27/11/28 19/9/23 16/7/21
f 19/9/23 27/11/28 14/5/29
f 14/5/29 27/11/28 13/4/30
f 18/8/22 25/8/26 17/8/17
f 25/8/26 18/8/22 23/10/26
f 23/10/26 18/8/22 20/10/24
f 22/4/31 29/6/32 28/11/31
f 29/6/32 22/4/31 24/6/32
f 29/6/32 15/6/34 30/6/33
f 15/6/34 29/6/32 24/6/32
f 21/9/27 28/11/31 26/7/27
f 28/11/31 21/9/27 22/4/31
f 29/6/35 26/7/35 28/11/35
f 26/7/35 29/6/35 25/8/35
f 25/8/35 29/6/35 30/6/35
f 25/8/35 30/6/35 17/8/35
f 17/8/35 30/6/35 16/7/35
f 16/7/35 30/6/35 27/11/35
f 30/6/33 13/4/30 27/11/28
f 13/4/30 30/6/33 15/6/34
g tool-hammer
usemtl colormap
f 3/1/3 2/2/2 1/1/1
f 2/2/2 3/1/3 4/2/2
f 7/2/6 6/1/5 5/1/4
f 6/1/5 7/2/6 8/2/6
f 10/3/7 1/1/1 9/3/7
f 1/1/1 10/3/7 3/1/3
f 2/2/10 5/1/9 1/1/8
f 5/1/9 2/2/10 7/2/10
f 5/1/4 12/3/11 11/3/11
f 12/3/11 5/1/4 6/1/5
f 5/1/9 9/3/12 1/1/8
f 9/3/12 5/1/9 11/3/12
f 6/1/15 4/2/14 3/1/13
f 4/2/14 6/1/15 8/2/14
f 10/3/16 6/1/15 3/1/13
f 6/1/15 10/3/16 12/3/16
f 12/3/17 9/3/17 11/3/17
f 9/3/17 12/3/17 10/3/17
f 2/2/18 8/2/18 7/2/18
f 8/2/18 2/2/18 4/2/18
f 15/6/19 14/5/19 13/4/19
f 18/8/20 17/8/20 16/7/20
f 19/9/23 18/8/22 16/7/21
f 18/8/22 19/9/23 20/10/24
f 23/10/25 22/4/25 21/9/25
f 22/4/25 23/10/25 24/6/25
f 24/6/25 23/10/25 20/10/25
f 24/6/25 20/10/25 15/6/25
f 15/6/25 20/10/25 19/9/25
f 15/6/25 19/9/25 14/5/25
f 23/10/26 26/7/27 25/8/26
f 26/7/27 23/10/26 21/9/27
f 27/11/28 19/9/23 16/7/21
f 19/9/23 27/11/28 14/5/29
f 14/5/29 27/11/28 13/4/30
f 18/8/22 25/8/26 17/8/17
f 25/8/26 18/8/22 23/10/26
f 23/10/26 18/8/22 20/10/24
f 22/4/31 29/6/32 28/11/31
f 29/6/32 22/4/31 24/6/32
f 29/6/32 15/6/34 30/6/33
f 15/6/34 29/6/32 24/6/32
f 21/9/27 28/11/31 26/7/27
f 28/11/31 21/9/27 22/4/31
f 29/6/35 26/7/35 28/11/35
f 26/7/35 29/6/35 25/8/35
f 25/8/35 29/6/35 30/6/35
f 25/8/35 30/6/35 17/8/35
f 17/8/35 30/6/35 16/7/35
f 16/7/35 30/6/35 27/11/35
f 30/6/33 13/4/30 27/11/28
f 13/4/30 30/6/33 15/6/34
