mtllib survival_workbench.mtl
g workbench
v 0.058639 0.1953 0.12837
v 0.058639 0.23655 0.12837
v 0.071894 0.1953 0.14783
v 0.071894 0.23655 0.14783
v 0.045385 0.23655 0.14783
v 0.045385 0.1953 0.14783
v -0.12033 0.1953 0.14783
v -0.12033 0.23655 0.14783
v -0.14783 0.1953 -0.046014
v -0.12837 0.1953 -0.059269
v -0.14783 0.23655 -0.046014
v -0.12837 0.23655 -0.059269
v -0.14783 0.1953 -0.072523
v -0.14783 0.23655 -0.072523
v -0.14783 0.1953 -0.12033
v -0.14783 0.23655 -0.12033
v 0.042148 0.23655 -0.14783
v 0.042148 0.1953 -0.14783
v 0.055403 0.23655 -0.12837
v 0.055403 0.1953 -0.12837
v 0.068657 0.1953 -0.14783
v 0.068657 0.23655 -0.14783
v 0.12033 0.1953 -0.14783
v 0.12033 0.23655 -0.14783
v -0.14783 0.1953 0.12033
v -0.14783 0.23655 0.12033
v 0.12033 0.1953 0.14783
v 0.12033 0.23655 0.14783
v -0.13408 0.23655 0.13408
v 0.14783 0.23655 0.12033
v 0.14783 0.1953 0.12033
v 0.13408 0.23655 0.13408
v 0.14783 0.1953 -0.12033
v -0.12033 0.1953 -0.14783
v 0.14783 0.23655 -0.12033
v 0.13408 0.23655 -0.13408
v -0.12033 0.23655 -0.14783
v -0.13408 0.23655 -0.13408
v -3.1132e-16 0.23655 -3.4968e-16
v 0.10695 0 0.10695
v 0.10695 0 -0.10695
v -0.10695 0 0.10695
v -0.10695 0 -0.10695
v -0.10695 0.1953 -0.10695
v 0.10695 0.1953 -0.10695
v 0.10695 0.1953 0.10695
v -0.10695 0.1953 0.10695
v 0.12439 0.1953 0.089512
v 0.12439 0.1953 0.12439
v 0.089512 0.1953 0.089512
v 0.089512 0.1953 0.12439
v 0.1302 0 0.1302
v 0.1302 0 0.0837
v 0.0837 0 0.1302
v 0.0837 0 0.0837
v 0.1302 0.05 0.0837
v 0.1302 0.05 0.1302
v 0.0837 0.05 0.1302
v 0.0837 0.05 0.0837
v -0.089512 0.1953 -0.12439
v -0.089512 0.1953 -0.089512
v -0.12439 0.1953 -0.12439
v -0.12439 0.1953 -0.089512
v -0.0837 0 -0.0837
v -0.0837 0 -0.1302
v -0.1302 0 -0.0837
v -0.1302 0 -0.1302
v -0.0837 0.05 -0.1302
v -0.0837 0.05 -0.0837
v -0.1302 0.05 -0.0837
v -0.1302 0.05 -0.1302
v 0.12439 0.1953 -0.12439
v 0.12439 0.1953 -0.089512
v 0.089512 0.1953 -0.12439
v 0.089512 0.1953 -0.089512
v 0.1302 0 -0.0837
v 0.1302 0 -0.1302
v 0.0837 0 -0.0837
v 0.0837 0 -0.1302
v 0.1302 0.05 -0.1302
v 0.1302 0.05 -0.0837
v 0.0837 0.05 -0.0837
v 0.0837 0.05 -0.1302
v -0.089512 0.1953 0.089512
v -0.089512 0.1953 0.12439
v -0.12439 0.1953 0.089512
v -0.12439 0.1953 0.12439
v -0.0837 0 0.1302
v -0.0837 0 0.0837
v -0.1302 0 0.1302
v -0.1302 0 0.0837
v -0.0837 0.05 0.0837
v -0.0837 0.05 0.1302
v -0.1302 0.05 0.1302
v -0.1302 0.05 0.0837
vn 0 0 1
vn -0.82638 0 0.56311
vn 0.82638 0 0.56311
vn -0.38268 0 0.92388
vn -0.56311 0 -0.82638
vn -1 0 0
vn -0.56311 0 0.82638
vn -0.92388 0 -0.38268
vn 0.82638 0 -0.56311
vn 0 0 -1
vn -0.82638 0 -0.56311
vn 0.38268 0 -0.92388
vn -0.92388 0 0.38268
vn 0.38268 0 0.92388
vn -0.70711 0 0.70711
vn 0.92388 0 0.38268
vn 0.70711 0 0.70711
vn 0 -1 0
vn 0.92388 0 -0.38268
vn 0.70711 0 -0.70711
vn -0.38268 0 -0.92388
vn -0.70711 0 -0.70711
vn 0 1 0
vn 1 0 0
vn 0.99981 0.019732 0
vn 0 0.019732 0.99981
vn -0.99981 0.019732 0
vn 0 0.019732 -0.99981
vn 0 0.039971 -0.9992
vn 0 0.039971 0.9992
vn 0.9992 0.039971 0
vn -0.9992 0.039971 0
vt 0.59375 0.025
vt 0.59375 0.225
vt 0.59375 0.125
vt 0.59375 0.099398
usemtl colormap
f 3/1/2 2/2/1 1/1/1
f 2/2/1 3/1/2 4/2/2
f 5/2/3 1/1/1 2/2/1
f 1/1/1 5/2/3 6/1/3
f 5/2/1 7/1/4 6/1/1
f 7/1/4 5/2/1 8/2/4
f 11/2/5 10/1/6 9/1/5
f 10/1/6 11/2/5 12/2/6
f 12/2/6 13/1/7 10/1/6
f 13/1/7 12/2/6 14/2/7
f 13/1/6 16/2/8 15/1/8
f 16/2/8 13/1/6 14/2/6
f 19/2/10 18/1/9 17/2/9
f 18/1/9 19/2/10 20/1/10
f 20/1/10 22/2/11 21/1/11
f 22/2/11 20/1/10 19/2/10
f 22/2/10 23/1/12 21/1/10
f 23/1/12 22/2/10 24/2/12
f 25/1/13 11/2/6 9/1/6
f 11/2/6 25/1/13 26/2/13
f 28/2/14 3/1/1 27/1/14
f 3/1/1 28/2/14 4/2/1
f 8/2/4 25/1/13 7/1/4
f 25/1/13 8/2/4 26/2/13
f 26/2/13 8/2/4 29/2/15
f 32/2/17 31/1/16 30/2/16
f 31/1/16 32/2/17 27/1/14
f 27/1/14 32/2/17 28/2/14
f 27/1/18 33/1/18 31/1/18
f 33/1/18 27/1/18 23/1/18
f 23/1/18 27/1/18 3/1/18
f 23/1/18 3/1/18 21/1/18
f 21/1/18 3/1/18 1/1/18
f 21/1/18 1/1/18 20/1/18
f 20/1/18 1/1/18 6/1/18
f 20/1/18 6/1/18 18/1/18
f 18/1/18 6/1/18 7/1/18
f 18/1/18 7/1/18 34/1/18
f 34/1/18 7/1/18 10/1/18
f 10/1/18 7/1/18 25/1/18
f 10/1/18 25/1/18 9/1/18
f 10/1/18 15/1/18 34/1/18
f 15/1/18 10/1/18 13/1/18
f 30/2/16 33/1/19 35/2/19
f 33/1/19 30/2/16 31/1/16
f 36/2/20 23/1/12 24/2/12
f 23/1/12 36/2/20 33/1/19
f 33/1/19 36/2/20 35/2/19
f 37/2/21 18/1/10 34/1/21
f 18/1/10 37/2/21 17/2/10
f 15/1/8 37/2/21 34/1/21
f 37/2/21 15/1/8 38/2/22
f 38/2/22 15/1/8 16/2/8
f 36/2/23 30/2/23 35/2/23
f 30/2/23 36/2/23 32/2/23
f 32/2/23 36/2/23 39/2/23
f 39/2/23 28/2/23 32/2/23
f 24/2/23 39/2/23 36/2/23
f 28/2/23 39/2/23 4/2/23
f 39/2/23 24/2/23 22/2/23
f 4/2/23 39/2/23 2/2/23
f 39/2/23 22/2/23 19/2/23
f 2/2/23 39/2/23 5/2/23
f 39/2/23 19/2/23 17/2/23
f 5/2/23 39/2/23 8/2/23
f 39/2/23 17/2/23 37/2/23
f 8/2/23 39/2/23 29/2/23
f 39/2/23 37/2/23 38/2/23
f 12/2/23 29/2/23 39/2/23
f 38/2/23 12/2/23 39/2/23
f 29/2/23 12/2/23 11/2/23
f 29/2/23 11/2/23 26/2/23
f 12/2/23 38/2/23 14/2/23
f 14/2/23 38/2/23 16/2/23
f 42/2/18 41/2/18 40/2/18
f 41/2/18 42/2/18 43/2/18
f 44/1/10 41/2/10 43/2/10
f 41/2/10 44/1/10 45/1/10
f 46/1/24 41/2/24 45/1/24
f 41/2/24 46/1/24 40/2/24
f 46/1/1 42/2/1 40/2/1
f 42/2/1 46/1/1 47/1/1
f 42/2/6 44/1/6 43/2/6
f 44/1/6 42/2/6 47/1/6
f 50/1/23 49/1/23 48/1/23
f 49/1/23 50/1/23 51/1/23
f 54/3/18 53/3/18 52/3/18
f 53/3/18 54/3/18 55/3/18
f 57/4/25 53/3/24 56/4/25
f 53/3/24 57/4/25 52/3/24
f 57/4/26 54/3/1 52/3/1
f 54/3/1 57/4/26 58/4/26
f 54/3/6 59/4/27 55/3/6
f 59/4/27 54/3/6 58/4/27
f 59/4/28 53/3/10 55/3/10
f 53/3/10 59/4/28 56/4/28
f 50/1/29 56/4/28 59/4/28
f 56/4/28 50/1/29 48/1/29
f 49/1/30 58/4/26 57/4/26
f 58/4/26 49/1/30 51/1/30
f 48/1/31 57/4/25 56/4/25
f 57/4/25 48/1/31 49/1/31
f 58/4/27 50/1/32 59/4/27
f 50/1/32 58/4/27 51/1/32
f 62/1/23 61/1/23 60/1/23
f 61/1/23 62/1/23 63/1/23
f 66/3/18 65/3/18 64/3/18
f 65/3/18 66/3/18 67/3/18
f 69/4/25 65/3/24 68/4/25
f 65/3/24 69/4/25 64/3/24
f 69/4/26 66/3/1 64/3/1
f 66/3/1 69/4/26 70/4/26
f 66/3/6 71/4/27 67/3/6
f 71/4/27 66/3/6 70/4/27
f 71/4/28 65/3/10 67/3/10
f 65/3/10 71/4/28 68/4/28
f 62/1/29 68/4/28 71/4/28
f 68/4/28 62/1/29 60/1/29
f 61/1/30 70/4/26 69/4/26
f 70/4/26 61/1/30 63/1/30
f 60/1/31 69/4/25 68/4/25
f 69/4/25 60/1/31 61/1/31
f 70/4/27 62/1/32 71/4/27
f 62/1/32 70/4/27 63/1/32
f 74/1/23 73/1/23 72/1/23
f 73/1/23 74/1/23 75/1/23
f 78/3/18 77/3/18 76/3/18
f 77/3/18 78/3/18 79/3/18
f 81/4/25 77/3/24 80/4/25
f 77/3/24 81/4/25 76/3/24
f 81/4/26 78/3/1 76/3/1
f 78/3/1 81/4/26 82/4/26
f 78/3/6 83/4/27 79/3/6
f 83/4/27 78/3/6 82/4/27
f 83/4/28 77/3/10 79/3/10
f 77/3/10 83/4/28 80/4/28
f 74/1/29 80/4/28 83/4/28
f 80/4/28 74/1/29 72/1/29
f 73/1/30 82/4/26 81/4/26
f 82/4/26 73/1/30 75/1/30
f 72/1/31 81/4/25 80/4/25
f 81/4/25 72/1/31 73/1/31
f 82/4/27 74/1/32 83/4/27
f 74/1/32 82/4/27 75/1/32
f 86/1/23 85/1/23 84/1/23
f 85/1/23 86/1/23 87/1/23
f 90/3/18 89/3/18 88/3/18
f 89/3/18 90/3/18 91/3/18
f 93/4/25 89/3/24 92/4/25
f 89/3/24 93/4/25 88/3/24
f 93/4/26 90/3/1 88/3/1
f 90/3/1 93/4/26 94/4/26
f 90/3/6 95/4/27 91/3/6
f 95/4/27 90/3/6 94/4/27
f 95/4/28 89/3/10 91/3/10
f 89/3/10 95/4/28 92/4/28
f 86/1/29 92/4/28 95/4/28
f 92/4/28 86/1/29 84/1/29
f 85/1/30 94/4/26 93/4/26
f 94/4/26 85/1/30 87/1/30
f 84/1/31 93/4/25 92/4/25
f 93/4/25 84/1/31 85/1/31
f 94/4/27 86/1/32 95/4/27
f 86/1/32 94/4/27 87/1/32
g workbench
usemtl colormap
f 3/1/2 2/2/1 1/1/1
f 2/2/1 3/1/2 4/2/2
f 5/2/3 1/1/1 2/2/1
f 1/1/1 5/2/3 6/1/3
f 5/2/1 7/1/4 6/1/1
f 7/1/4 5/2/1 8/2/4
f 11/2/5 10/1/6 9/1/5
f 10/1/6 11/2/5 12/2/6
f 12/2/6 13/1/7 10/1/6
f 13/1/7 12/2/6 14/2/7
f 13/1/6 16/2/8 15/1/8
f 16/2/8 13/1/6 14/2/6
f 19/2/10 18/1/9 17/2/9
f 18/1/9 19/2/10 20/1/10
f 20/1/10 22/2/11 21/1/11
f 22/2/11 20/1/10 19/2/10
f 22/2/10 23/1/12 21/1/10
f 23/1/12 22/2/10 24/2/12
f 25/1/13 11/2/6 9/1/6
f 11/2/6 25/1/13 26/2/13
f 28/2/14 3/1/1 27/1/14
f 3/1/1 28/2/14 4/2/1
f 8/2/4 25/1/13 7/1/4
f 25/1/13 8/2/4 26/2/13
f 26/2/13 8/2/4 29/2/15
f 32/2/17 31/1/16 30/2/16
f 31/1/16 32/2/17 27/1/14
f 27/1/14 32/2/17 28/2/14
f 27/1/18 33/1/18 31/1/18
f 33/1/18 27/1/18 23/1/18
f 23/1/18 27/1/18 3/1/18
f 23/1/18 3/1/18 21/1/18
f 21/1/18 3/1/18 1/1/18
f 21/1/18 1/1/18 20/1/18
f 20/1/18 1/1/18 6/1/18
f 20/1/18 6/1/18 18/1/18
f 18/1/18 6/1/18 7/1/18
f 18/1/18 7/1/18 34/1/18
f 34/1/18 7/1/18 10/1/18
f 10/1/18 7/1/18 25/1/18
f 10/1/18 25/1/18 9/1/18
f 10/1/18 15/1/18 34/1/18
f 15/1/18 10/1/18 13/1/18
f 30/2/16 33/1/19 35/2/19
f 33/1/19 30/2/16 31/1/16
f 36/2/20 23/1/12 24/2/12
f 23/1/12 36/2/20 33/1/19
f 33/1/19 36/2/20 35/2/19
f 37/2/21 18/1/10 34/1/21
f 18/1/10 37/2/21 17/2/10
f 15/1/8 37/2/21 34/1/21
f 37/2/21 15/1/8 38/2/22
f 38/2/22 15/1/8 16/2/8
f 36/2/23 30/2/23 35/2/23
f 30/2/23 36/2/23 32/2/23
f 32/2/23 36/2/23 39/2/23
f 39/2/23 28/2/23 32/2/23
f 24/2/23 39/2/23 36/2/23
f 28/2/23 39/2/23 4/2/23
f 39/2/23 24/2/23 22/2/23
f 4/2/23 39/2/23 2/2/23
f 39/2/23 22/2/23 19/2/23
f 2/2/23 39/2/23 5/2/23
f 39/2/23 19/2/23 17/2/23
f 5/2/23 39/2/23 8/2/23
f 39/2/23 17/2/23 37/2/23
f 8/2/23 39/2/23 29/2/23
f 39/2/23 37/2/23 38/2/23
f 12/2/23 29/2/23 39/2/23
f 38/2/23 12/2/23 39/2/23
f 29/2/23 12/2/23 11/2/23
f 29/2/23 11/2/23 26/2/23
f 12/2/23 38/2/23 14/2/23
f 14/2/23 38/2/23 16/2/23
f 42/2/18 41/2/18 40/2/18
f 41/2/18 42/2/18 43/2/18
f 44/1/10 41/2/10 43/2/10
f 41/2/10 44/1/10 45/1/10
f 46/1/24 41/2/24 45/1/24
f 41/2/24 46/1/24 40/2/24
f 46/1/1 42/2/1 40/2/1
f 42/2/1 46/1/1 47/1/1
f 42/2/6 44/1/6 43/2/6
f 44/1/6 42/2/6 47/1/6
f 50/1/23 49/1/23 48/1/23
f 49/1/23 50/1/23 51/1/23
f 54/3/18 53/3/18 52/3/18
f 53/3/18 54/3/18 55/3/18
f 57/4/25 53/3/24 56/4/25
f 53/3/24 57/4/25 52/3/24
f 57/4/26 54/3/1 52/3/1
f 54/3/1 57/4/26 58/4/26
f 54/3/6 59/4/27 55/3/6
f 59/4/27 54/3/6 58/4/27
f 59/4/28 53/3/10 55/3/10
f 53/3/10 59/4/28 56/4/28
f 50/1/29 56/4/28 59/4/28
f 56/4/28 50/1/29 48/1/29
f 49/1/30 58/4/26 57/4/26
f 58/4/26 49/1/30 51/1/30
f 48/1/31 57/4/25 56/4/25
f 57/4/25 48/1/31 49/1/31
f 58/4/27 50/1/32 59/4/27
f 50/1/32 58/4/27 51/1/32
f 62/1/23 61/1/23 60/1/23
f 61/1/23 62/1/23 63/1/23
f 66/3/18 65/3/18 64/3/18
f 65/3/18 66/3/18 67/3/18
f 69/4/25 65/3/24 68/4/25
f 65/3/24 69/4/25 64/3/24
f 69/4/26 66/3/1 64/3/1
f 66/3/1 69/4/26 70/4/26
f 66/3/6 71/4/27 67/3/6
f 71/4/27 66/3/6 70/4/27
f 71/4/28 65/3/10 67/3/10
f 65/3/10 71/4/28 68/4/28
f 62/1/29 68/4/28 71/4/28
f 68/4/28 62/1/29 60/1/29
f 61/1/30 70/4/26 69/4/26
f 70/4/26 61/1/30 63/1/30
f 60/1/31 69/4/25 68/4/25
f 69/4/25 60/1/31 61/1/31
f 70/4/27 62/1/32 71/4/27
f 62/1/32 70/4/27 63/1/32
f 74/1/23 73/1/23 72/1/23
f 73/1/23 74/1/23 75/1/23
f 78/3/18 77/3/18 76/3/18
f 77/3/18 78/3/18 79/3/18
f 81/4/25 77/3/24 80/4/25
f 77/3/24 81/4/25 76/3/24
f 81/4/26 78/3/1 76/3/1
f 78/3/1 81/4/26 82/4/26
f 78/3/6 83/4/27 79/3/6
f 83/4/27 78/3/6 82/4/27
f 83/4/28 77/3/10 79/3/10
f 77/3/10 83/4/28 80/4/28
f 74/1/29 80/4/28 83/4/28
f 80/4/28 74/1/29 72/1/29
f 73/1/30 82/4/26 81/4/26
f 82/4/26 73/1/30 75/1/30
f 72/1/31 81/4/25 80/4/25
f 81/4/25 72/1/31 73/1/31
f 82/4/27 74/1/32 83/4/27
f 74/1/32 82/4/27 75/1/32
f 86/1/23 85/1/23 84/1/23
f 85/1/23 86/1/23 87/1/23
f 90/3/18 89/3/18 88/3/18
f 89/3/18 90/3/18 91/3/18
f 93/4/25 89/3/24 92/4/25
f 89/3/24 93/4/25 88/3/24
f 93/4/26 90/3/1 88/3/1
f 90/3/1 93/4/26 94/4/26
f 90/3/6 95/4/27 91/3/6
f 95/4/27 90/3/6 94/4/27
f 95/4/28 89/3/10 91/3/10
f 89/3/10 95/4/28 92/4/28
f 86/1/29 92/4/28 95/4/28
f 92/4/28 86/1/29 84/1/29
f 85/1/30 94/4/26 93/4/26
f 94/4/26 85/1/30 87/1/30
f 84/1/31 93/4/25 92/4/25
f 93/4/25 84/1/31 85/1/31
f 94/4/27 86/1/32 95/4/27
f 86/1/32 94/4/27 87/1/32
g paper
v 0.12851 0.24655 -0.057998
v 0.17783 0.24655 0.062242
v -0.001017 0.24655 -0.0048743
v 0.048297 0.24655 0.11537
v -0.011761 0.25828 -0.03107
v -0.015054 0.27127 -0.0391
v 0.11777 0.25828 -0.084194
v 0.11448 0.27127 -0.092224
v -0.016211 0.28659 -0.04192
v 0.11332 0.28659 -0.095044
v 0.1227 0.2496 -0.072175
v -0.0068313 0.2496 -0.019051
vn 0.037193 0.99518 0.090686
vn -0.037193 -0.99518 -0.090686
vn 0.26832 0.70711 0.65422
vn 0.35057 0.38268 0.85478
vn -0.26832 -0.70711 -0.65422
vn -0.35057 -0.38268 -0.85478
vn 0.37217 0.19509 0.90743
vn -0.37217 -0.19509 -0.90743
vn 0.14521 0.92388 0.35406
vn -0.14521 -0.92388 -0.35406
vt 0.84375 0.14498
vt 0.84375 0.16842
vt 0.84375 0.19438
vt 0.84375 0.225
vt 0.84375 0.15107
vt 0.84375 0.15107
usemtl colormap
f 98/5/33 97/5/23 96/5/33
f 97/5/23 98/5/33 99/5/23
f 96/5/34 97/5/18 98/5/34
f 99/5/18 98/5/34 97/5/18
f 102/6/35 101/7/36 100/6/35
f 101/7/36 102/6/35 103/7/36
f 100/6/37 101/7/38 102/6/37
f 103/7/38 102/6/37 101/7/38
f 103/7/36 104/8/39 101/7/36
f 104/8/39 103/7/36 105/8/39
f 101/7/38 104/8/40 103/7/38
f 105/8/40 103/7/38 104/8/40
f 106/9/41 98/5/33 96/5/33
f 98/5/33 106/9/41 107/10/41
f 96/5/34 98/5/34 106/9/42
f 107/10/42 106/9/42 98/5/34
f 102/6/35 107/10/41 106/9/41
f 107/10/41 102/6/35 100/6/35
f 106/9/42 107/10/42 102/6/37
f 100/6/37 102/6/37 107/10/42
g hammer
v -0.1242 0.26743 0.068195
v -0.1235 0.27161 0.049437
v -0.10627 0.26743 0.072998
v -0.097503 0.27161 0.056403
v -0.10627 0.24887 0.072998
v -0.097503 0.24469 0.056403
v -0.086718 0.24655 -0.080656
v -0.0674 0.24655 -0.07548
v -0.086718 0.26655 -0.080656
v -0.0674 0.26655 -0.07548
v -0.1242 0.24887 0.068195
v -0.1235 0.24469 0.049437
v -0.052438 0.2519 0.0039125
v -0.064194 0.27155 0.00076248
v -0.051144 0.27655 -0.00091715
v -0.12851 0.27655 -0.059911
v -0.12384 0.27155 -0.077337
v -0.1051 0.27655 -0.067139
v -0.13808 0.23655 -0.024211
v -0.051144 0.23655 -0.00091715
v -0.12514 0.23655 -0.072507
v -0.038203 0.23655 -0.049213
v -0.13937 0.27155 -0.019381
v -0.13937 0.24155 -0.019381
v -0.13808 0.27655 -0.024211
v -0.12384 0.24155 -0.077337
v -0.036909 0.24155 -0.054043
v -0.052438 0.24155 0.0039125
v -0.036909 0.27155 -0.054043
v -0.038203 0.27655 -0.049213
vn -0.057581 0.97494 0.2149
vn -0.021767 0.99646 0.081236
vn -0.022026 0.99637 0.082201
vn 0.88414 0 0.46723
vn 0.94074 0 0.33914
vn 0.9404 0 0.34008
vn 0.25882 0 -0.96593
vn 0.0096736 0.9993 -0.036102
vn -0.25882 0 0.96593
vn -0.025034 -0.99531 0.093429
vn -0.025269 -0.99522 0.094305
vn 0.0035532 -0.99991 -0.013261
vn -0.9993 0 -0.037436
vn -0.98658 0 -0.16328
vn -0.98643 0 -0.16418
vn -0.057581 -0.97494 0.2149
vn 0.97492 0 0.22254
vn -0.96228 0 -0.27206
vn 0.053654 0.18932 0.98045
vn -0.091789 0.95037 -0.29728
vn -0.099046 -0.92388 0.36964
vn 0.099046 -0.92388 -0.36964
vn -0.96593 0 -0.25882
vn 0.23912 -0.38268 -0.8924
vn -0.23912 -0.38268 0.8924
vn 0.2567 0.12779 -0.95801
vn 0.23912 0.38268 -0.8924
vn 0.1033 0.91689 -0.38553
vn 0.099046 0.92388 -0.36964
vn -0.23912 0.38268 0.8924
vn -0.23466 0.42184 0.87578
vn -0.099046 0.92388 0.36964
vn -0.048691 0.98214 0.18172
vn 0.96593 0 0.25882
vt 0.59375 0.19397
vt 0.59375 0.056034
vt 0.59375 0.038793
vt 0.59375 0.18743
vt 0.34375 0.10177
vt 0.34375 0.2
vt 0.34375 0.225
vt 0.34375 0.025
vt 0.34375 0.05
usemtl colormap
f 110/11/43 109/2/44 108/11/43
f 109/2/44 110/11/43 111/2/45
f 113/1/47 110/11/46 112/12/46
f 110/11/46 113/1/47 111/2/48
f 116/14/49 115/13/49 114/13/49
f 115/13/49 116/14/49 117/14/49
f 111/2/45 116/14/50 109/2/44
f 116/14/50 111/2/45 117/14/50
f 110/11/51 118/12/51 112/12/51
f 118/12/51 110/11/51 108/11/51
f 114/13/54 113/1/53 119/1/52
f 113/1/53 114/13/54 115/13/54
f 109/2/56 118/12/55 108/11/55
f 118/12/55 109/2/56 119/1/57
f 119/1/52 112/12/58 118/12/58
f 112/12/58 119/1/52 113/1/53
f 115/13/59 111/2/48 113/1/47
f 111/2/48 115/13/59 117/14/59
f 116/14/60 119/1/57 109/2/56
f 119/1/57 116/14/60 114/13/60
f 122/17/61 121/16/61 120/15/61
f 125/17/62 124/16/62 123/17/62
f 128/18/64 127/18/63 126/18/63
f 127/18/63 128/18/64 129/18/64
f 132/17/65 131/19/65 130/16/65
f 131/19/65 132/17/65 126/18/65
f 126/18/65 132/17/65 123/17/65
f 126/18/65 123/17/65 128/18/65
f 128/18/65 123/17/65 124/16/65
f 128/18/65 124/16/65 133/19/65
f 133/19/66 129/18/64 128/18/64
f 129/18/64 133/19/66 134/19/66
f 126/18/63 135/19/67 131/19/67
f 135/19/67 126/18/63 127/18/63
f 124/16/68 134/19/66 133/19/66
f 134/19/66 124/16/68 136/16/69
f 125/17/70 136/16/69 124/16/68
f 136/16/69 125/17/70 137/17/71
f 120/15/51 131/19/67 135/19/67
f 131/19/67 120/15/51 130/16/72
f 130/16/72 120/15/51 121/16/73
f 121/16/73 132/17/74 130/16/72
f 132/17/74 121/16/73 122/17/75
f 135/19/76 122/17/76 120/15/76
f 122/17/76 135/19/76 127/18/76
f 122/17/76 127/18/76 129/18/76
f 122/17/76 129/18/76 137/17/76
f 137/17/76 129/18/76 134/19/76
f 137/17/76 134/19/76 136/16/76
f 122/17/75 123/17/23 132/17/74
f 123/17/23 122/17/75 125/17/70
f 125/17/70 122/17/75 137/17/71
