mtllib survival_rock-sand-a.mtl
g rock-sand-a
v -0.3 0 0.030738
v -0.26838 0 0.051273
v -0.24371 0 -0.17933
v -0.1133 0 0.2417
v -0.29103 0 0.13581
v -0.026529 0 -0.19071
v -0.0014706 0 0.163
v -0.019678 0 -0.17286
v 0.15036 0 -0.17519
v 0.051314 0 0.19445
v 0.25518 0 0.050984
v -0.022971 0.3927 -0.041674
v -0.089232 0.3927 -0.12995
v -0.037457 0.13858 -0.16986
v -0.18641 0.3927 0.036065
v -0.27615 0.13341 0.02298
v -0.2164 0.3927 -0.042051
v -0.11705 0.079167 0.13575
v -0.21268 0.079167 0.073648
v -0.11487 0.3927 0.082522
v -0.3 0 0.030738
v -0.24371 0 -0.17933
v -0.19432 0.3927 -0.12444
v -0.0083953 0.3927 -0.0037025
v -0.026529 0 -0.19071
v 0.024871 0.17426 0.0052111
v -0.019243 0.17426 -0.10971
v -0.019678 0 -0.17286
v -0.046254 0.17426 0.062807
v -0.063692 0.079167 0.092535
v 0.037111 4.5119e-17 0.27725
v 0.020608 4.5119e-17 0.23005
v -0.010087 4.5119e-17 0.29375
v -0.02659 4.5119e-17 0.24655
v 0.015237 0.03 0.2412
v 0.025963 0.03 0.27188
v -0.015442 0.03 0.25193
v -0.0047156 0.03 0.2826
v 0.024262 0.17426 -0.04945
v 0.059699 0.17426 -0.014176
v 0.059535 0.17426 -0.084887
v 0.094972 0.17426 -0.049614
v 0.05967 0.20426 -0.026551
v 0.036636 0.20426 -0.049478
v 0.082598 0.20426 -0.049585
v 0.059564 0.20426 -0.072512
v -0.11314 0.023901 0.2247
v -0.15028 0.079167 0.16306
v -0.077085 0.079167 0.16028
v -0.0014706 0 0.163
v -0.01881 0.079167 0.11927
v -0.29103 0 0.13581
v -0.22475 0.079167 0.11869
v -0.11705 0.079167 0.13575
v -0.063692 0.079167 0.092535
v -0.26838 0 0.051273
v 0.11621 0.17426 0.076145
v 0.051588 0.070513 0.16486
v 0.020165 0.17426 0.10238
v 0.024871 0.17426 0.0052111
v 0.11439 0.17426 -0.11154
v 0.18043 0.17426 0.030954
v 0.25518 0 0.050984
v -0.01881 0.079167 0.11927
v -0.063692 0.079167 0.092535
v -0.019678 0 -0.17286
vn 0 -1 0
vn 0.87972 0.17322 -0.44282
vn 0.77456 0.24911 -0.58138
vn 0.91166 0.14247 -0.38546
vn -0.89297 0.29173 0.34278
vn -0.53891 0.14462 0.82985
vn -0.95414 0.15574 -0.25566
vn 0 1 0
vn -0.051786 0.14462 -0.98813
vn 0.92608 0.12653 -0.35549
vn 0.62426 0.12653 0.7709
vn 0.90621 0.28 -0.31685
vn 0.31685 0.28 0.90621
vn -0.31685 0.28 -0.90621
vn -0.90621 0.28 0.31685
vn -0.67725 0.28 0.68039
vn -0.68039 0.28 -0.67725
vn 0.68039 0.28 0.67725
vn 0.67725 0.28 -0.68039
vn 0.025026 0.75177 0.65895
vn 0.49831 0.50027 0.70811
vn -0.4361 0.52342 0.73202
vn -0.77172 0.6014 -0.20678
vn 0.21981 0.55132 0.80481
vn 0.85877 0.32265 -0.398
vn 0.54472 0.32265 0.77407
vn -0.48118 0.34074 0.80769
vn -0.012873 0.34074 -0.94007
vt 0.84375 0.025
vt 0.84375 0.225
vt 0.84375 0.095576
vt 0.84375 0.092943
vt 0.84375 0.065319
vt 0.84375 0.11375
vt 0.84375 0.15519
vt 0.84375 0.125
vt 0.84375 0.065464
vt 0.84375 0.07043
usemtl colormap
f 3/1/1 2/1/1 1/1/1
f 4/1/1 2/1/1 3/1/1
f 2/1/1 4/1/1 5/1/1
f 4/1/1 3/1/1 6/1/1
f 4/1/1 6/1/1 7/1/1
f 7/1/1 6/1/1 8/1/1
f 7/1/1 8/1/1 9/1/1
f 7/1/1 9/1/1 10/1/1
f 10/1/1 9/1/1 11/1/1
f 14/3/4 13/2/3 12/2/2
f 17/2/5 16/4/5 15/2/5
f 20/2/6 19/5/6 18/5/6
f 19/5/6 20/2/6 16/4/6
f 16/4/6 20/2/6 15/2/6
f 21/1/6 19/5/6 16/4/6
f 19/5/6 21/1/6 2/1/6
f 16/4/7 22/1/7 21/1/7
f 22/1/7 16/4/7 17/2/7
f 22/1/7 17/2/7 23/2/7
f 15/2/8 23/2/8 17/2/8
f 23/2/8 15/2/8 13/2/8
f 13/2/8 15/2/8 20/2/8
f 13/2/8 20/2/8 24/2/8
f 13/2/8 24/2/8 12/2/8
f 23/2/9 25/1/9 22/1/9
f 25/1/9 23/2/9 14/3/9
f 14/3/9 23/2/9 13/2/9
f 27/6/10 24/2/10 26/6/10
f 24/2/10 27/6/10 12/2/2
f 12/2/2 27/6/10 14/3/4
f 14/3/4 27/6/10 28/1/10
f 14/3/4 28/1/10 25/1/10
f 24/2/11 29/6/11 26/6/11
f 20/2/11 29/6/11 24/2/11
f 20/2/11 30/5/11 29/6/11
f 30/5/11 20/2/11 18/5/11
f 33/1/1 32/1/1 31/1/1
f 32/1/1 33/1/1 34/1/1
f 37/2/8 36/2/8 35/2/8
f 36/2/8 37/2/8 38/2/8
f 35/2/12 31/1/12 32/1/12
f 31/1/12 35/2/12 36/2/12
f 36/2/13 33/1/13 31/1/13
f 33/1/13 36/2/13 38/2/13
f 37/2/14 32/1/14 34/1/14
f 32/1/14 37/2/14 35/2/14
f 33/1/15 37/2/15 34/1/15
f 37/2/15 33/1/15 38/2/15
f 41/1/1 40/1/1 39/1/1
f 40/1/1 41/1/1 42/1/1
f 45/2/8 44/2/8 43/2/8
f 44/2/8 45/2/8 46/2/8
f 43/2/16 39/1/16 40/1/16
f 39/1/16 43/2/16 44/2/16
f 44/2/17 41/1/17 39/1/17
f 41/1/17 44/2/17 46/2/17
f 45/2/18 40/1/18 42/1/18
f 40/1/18 45/2/18 43/2/18
f 41/1/19 45/2/19 42/1/19
f 45/2/19 41/1/19 46/2/19
f 49/2/20 48/2/20 47/7/20
f 51/2/21 4/8/21 50/8/21
f 4/8/21 51/2/21 47/7/21
f 47/7/21 51/2/21 49/2/21
f 47/7/22 52/8/22 4/8/22
f 52/8/22 47/7/22 53/2/22
f 53/2/22 47/7/22 48/2/22
f 48/2/8 19/2/8 53/2/8
f 19/2/8 48/2/8 54/2/8
f 54/2/8 48/2/8 49/2/8
f 54/2/8 49/2/8 55/2/8
f 55/2/8 49/2/8 51/2/8
f 53/2/23 56/8/23 52/8/23
f 56/8/23 53/2/23 19/2/23
f 59/8/24 58/9/24 57/8/24
f 59/8/8 60/8/8 29/8/8
f 60/8/8 59/8/8 57/8/8
f 60/8/8 57/8/8 61/8/8
f 61/8/8 57/8/8 62/8/8
f 61/8/8 27/8/8 60/8/8
f 9/1/25 62/8/25 63/1/25
f 62/8/25 9/1/25 61/8/25
f 62/8/26 10/1/26 63/1/26
f 10/1/26 62/8/26 58/9/26
f 58/9/26 62/8/26 57/8/26
f 58/9/27 7/1/27 10/1/27
f 7/1/27 58/9/27 64/10/27
f 64/10/27 58/9/27 59/8/27
f 64/10/27 59/8/27 65/10/27
f 65/10/27 59/8/27 29/8/27
f 27/8/28 9/1/28 66/1/28
f 9/1/28 27/8/28 61/8/28
g rock-sand-a
usemtl colormap
f 3/1/1 2/1/1 1/1/1
f 4/1/1 2/1/1 3/1/1
f 2/1/1 4/1/1 5/1/1
f 4/1/1 3/1/1 6/1/1
f 4/1/1 6/1/1 7/1/1
f 7/1/1 6/1/1 8/1/1
f 7/1/1 8/1/1 9/1/1
f 7/1/1 9/1/1 10/1/1
f 10/1/1 9/1/1 11/1/1
f 14/3/4 13/2/3 12/2/2
f 17/2/5 16/4/5 15/2/5
f 20/2/6 19/5/6 18/5/6
f 19/5/6 20/2/6 16/4/6
f 16/4/6 20/2/6 15/2/6
f 21/1/6 19/5/6 16/4/6
f 19/5/6 21/1/6 2/1/6
f 16/4/7 22/1/7 21/1/7
f 22/1/7 16/4/7 17/2/7
f 22/1/7 17/2/7 23/2/7
f 15/2/8 23/2/8 17/2/8
f 23/2/8 15/2/8 13/2/8
f 13/2/8 15/2/8 20/2/8
f 13/2/8 20/2/8 24/2/8
f 13/2/8 24/2/8 12/2/8
f 23/2/9 25/1/9 22/1/9
f 25/1/9 23/2/9 14/3/9
f 14/3/9 23/2/9 13/2/9
f 27/6/10 24/2/10 26/6/10
f 24/2/10 27/6/10 12/2/2
f 12/2/2 27/6/10 14/3/4
f 14/3/4 27/6/10 28/1/10
f 14/3/4 28/1/10 25/1/10
f 24/2/11 29/6/11 26/6/11
f 20/2/11 29/6/11 24/2/11
f 20/2/11 30/5/11 29/6/11
f 30/5/11 20/2/11 18/5/11
f 33/1/1 32/1/1 31/1/1
f 32/1/1 33/1/1 34/1/1
f 37/2/8 36/2/8 35/2/8
f 36/2/8 37/2/8 38/2/8
f 35/2/12 31/1/12 32/1/12
f 31/1/12 35/2/12 36/2/12
f 36/2/13 33/1/13 31/1/13
f 33/1/13 36/2/13 38/2/13
f 37/2/14 32/1/14 34/1/14
f 32/1/14 37/2/14 35/2/14
f 33/1/15 37/2/15 34/1/15
f 37/2/15 33/1/15 38/2/15
f 41/1/1 40/1/1 39/1/1
f 40/1/1 41/1/1 42/1/1
f 45/2/8 44/2/8 43/2/8
f 44/2/8 45/2/8 46/2/8
f 43/2/16 39/1/16 40/1/16
f 39/1/16 43/2/16 44/2/16
f 44/2/17 41/1/17 39/1/17
f 41/1/17 44/2/17 46/2/17
f 45/2/18 40/1/18 42/1/18
f 40/1/18 45/2/18 43/2/18
f 41/1/19 45/2/19 42/1/19
f 45/2/19 41/1/19 46/2/19
f 49/2/20 48/2/20 47/7/20
f 51/2/21 4/8/21 50/8/21
f 4/8/21 51/2/21 47/7/21
f 47/7/21 51/2/21 49/2/21
f 47/7/22 52/8/22 4/8/22
f 52/8/22 47/7/22 53/2/22
f 53/2/22 47/7/22 48/2/22
f 48/2/8 19/2/8 53/2/8
f 19/2/8 48/2/8 54/2/8
f 54/2/8 48/2/8 49/2/8
f 54/2/8 49/2/8 55/2/8
f 55/2/8 49/2/8 51/2/8
f 53/2/23 56/8/23 52/8/23
f 56/8/23 53/2/23 19/2/23
f 59/8/24 58/9/24 57/8/24
f 59/8/8 60/8/8 29/8/8
f 60/8/8 59/8/8 57/8/8
f 60/8/8 57/8/8 61/8/8
f 61/8/8 57/8/8 62/8/8
f 61/8/8 27/8/8 60/8/8
f 9/1/25 62/8/25 63/1/25
f 62/8/25 9/1/25 61/8/25
f 62/8/26 10/1/26 63/1/26
f 10/1/26 62/8/26 58/9/26
f 58/9/26 62/8/26 57/8/26
f 58/9/27 7/1/27 10/1/27
f 7/1/27 58/9/27 64/10/27
f 64/10/27 58/9/27 59/8/27
f 64/10/27 59/8/27 65/10/27
f 65/10/27 59/8/27 29/8/27
f 27/8/28 9/1/28 66/1/28
f 9/1/28 27/8/28 61/8/28
