mtllib survival_workbench-anvil.mtl
g workbench-anvil
v 0.058639 0.0853 0.12837
v 0.058639 0.12655 0.12837
v 0.071894 0.0853 0.14783
v 0.071894 0.12655 0.14783
v 0.045385 0.12655 0.14783
v 0.045385 0.0853 0.14783
v -0.12033 0.0853 0.14783
v -0.12033 0.12655 0.14783
v -0.14783 0.0853 -0.046014
v -0.12837 0.0853 -0.059269
v -0.14783 0.12655 -0.046014
v -0.12837 0.12655 -0.059269
v -0.14783 0.0853 -0.072523
v -0.14783 0.12655 -0.072523
v -0.14783 0.0853 -0.12033
v -0.14783 0.12655 -0.12033
v 0.042148 0.12655 -0.14783
v 0.042148 0.0853 -0.14783
v 0.055403 0.12655 -0.12837
v 0.055403 0.0853 -0.12837
v 0.068657 0.0853 -0.14783
v 0.068657 0.12655 -0.14783
v 0.12033 0.0853 -0.14783
v 0.12033 0.12655 -0.14783
v -0.14783 0.0853 0.12033
v -0.14783 0.12655 0.12033
v 0.12033 0.0853 0.14783
v 0.12033 0.12655 0.14783
v -0.13408 0.12655 0.13408
v 0.14783 0.12655 0.12033
v 0.14783 0.0853 0.12033
v 0.13408 0.12655 0.13408
v 0.14783 0.0853 -0.12033
v -0.12033 0.0853 -0.14783
v 0.14783 0.12655 -0.12033
v 0.13408 0.12655 -0.13408
v -0.12033 0.12655 -0.14783
v -0.13408 0.12655 -0.13408
v 4.9631e-17 0.12655 1.128e-17
v -0.089512 0.0853 0.089512
v -0.089512 0.0853 0.12439
v -0.12439 0.0853 0.089512
v -0.12439 0.0853 0.12439
v -0.0837 0 0.1302
v -0.0837 0 0.0837
v -0.1302 0 0.1302
v -0.1302 0 0.0837
v -0.0837 0.021838 0.0837
v -0.0837 0.021838 0.1302
v -0.1302 0.021838 0.1302
v -0.1302 0.021838 0.0837
v 0.12439 0.0853 0.089512
v 0.12439 0.0853 0.12439
v 0.089512 0.0853 0.089512
v 0.089512 0.0853 0.12439
v 0.1302 0 0.1302
v 0.1302 0 0.0837
v 0.0837 0 0.1302
v 0.0837 0 0.0837
v 0.1302 0.021838 0.0837
v 0.1302 0.021838 0.1302
v 0.0837 0.021838 0.1302
v 0.0837 0.021838 0.0837
v -0.089512 0.0853 -0.12439
v -0.089512 0.0853 -0.089512
v -0.12439 0.0853 -0.12439
v -0.12439 0.0853 -0.089512
v -0.0837 0 -0.0837
v -0.0837 0 -0.1302
v -0.1302 0 -0.0837
v -0.1302 0 -0.1302
v -0.0837 0.021838 -0.1302
v -0.0837 0.021838 -0.0837
v -0.1302 0.021838 -0.0837
v -0.1302 0.021838 -0.1302
v 0.12439 0.0853 -0.12439
v 0.12439 0.0853 -0.089512
v 0.089512 0.0853 -0.12439
v 0.089512 0.0853 -0.089512
v 0.1302 0 -0.0837
v 0.1302 0 -0.1302
v 0.0837 0 -0.0837
v 0.0837 0 -0.1302
v 0.1302 0.021838 -0.1302
v 0.1302 0.021838 -0.0837
v 0.0837 0.021838 -0.0837
v 0.0837 0.021838 -0.1302
v -0.02967 0.12655 0.088922
v -0.070174 0.12655 0.094255
v -0.031241 0.17935 0.093466
v -0.073877 0.17935 0.09908
v -0.028082 0.12655 -0.055509
v 0.012423 0.12655 -0.060842
v -0.029569 0.17935 -0.058566
v 0.013067 0.17935 -0.06418
v -0.012084 0.12655 0.066004
v -0.012729 0.17935 0.069342
v -0.091504 0.12655 -0.067762
v -0.051 0.12655 -0.073095
v -0.096329 0.17935 -0.071465
v -0.053693 0.17935 -0.077078
v 0.074215 0.17935 -0.093917
v 0.070513 0.12655 -0.089092
v 0.079828 0.17935 -0.051281
v 0.091843 0.12655 0.072925
v 0.091055 0.17935 0.033991
v 0.096668 0.17935 0.076627
v 0.051338 0.12655 0.078257
v 0.054032 0.17935 0.08224
v 0.030008 0.12655 -0.08376
v 0.031579 0.17935 -0.088304
v -0.090716 0.17935 -0.028829
v -0.07949 0.17935 0.056443
v 0.02842 0.12655 0.060671
v 0.029907 0.17935 0.063729
v 0.055952 0.20735 -0.048138
v 0.067178 0.20735 0.037134
v -0.06684 0.20735 -0.031972
v -0.091075 0.23015 -0.040514
v 0.07715 0.23015 -0.062662
v -0.14065 0.25295 -0.033988
v 0.07715 0.27295 -0.062662
v -0.14065 0.29575 -0.033988
v 0.07715 0.29575 -0.062662
v -0.055614 0.20735 0.0533
v 0.091413 0.29575 0.045677
v 0.091413 0.27295 0.045677
v -0.12638 0.25295 0.07435
v -0.12638 0.29575 0.07435
v 0.091413 0.23015 0.045677
v -0.076812 0.23015 0.067824
v 0.17128 0.24085 -0.033723
v 0.17128 0.26225 -0.033723
v 0.17485 0.24085 -0.0066387
v 0.17485 0.26225 -0.0066387
vn 0 0 1
vn -0.82638 0 0.56311
vn 0.82638 0 0.56311
vn -0.38268 0 0.92388
vn -0.56311 0 -0.82638
vn -1 0 0
vn -0.56311 0 0.82638
vn -0.92388 0 -0.38268
vn 0.82638 0 -0.56311
vn 0 0 -1
vn -0.82638 0 -0.56311
vn 0.38268 0 -0.92388
vn -0.92388 0 0.38268
vn 0.38268 0 0.92388
vn -0.70711 0 0.70711
vn 0.92388 0 0.38268
vn 0.70711 0 0.70711
vn 0 -1 0
vn 0.92388 0 -0.38268
vn 0.70711 0 -0.70711
vn -0.38268 0 -0.92388
vn -0.70711 0 -0.70711
vn 0 1 0
vn 0.99902 0.044291 0
vn 1 0 0
vn 0 0.044291 0.99902
vn -0.99902 0.044291 0
vn 0 0.044291 -0.99902
vn 0 0.091209 -0.99583
vn 0 0.091209 0.99583
vn 0.99583 0.091209 0
vn -0.99583 0.091209 0
vn 0.51383 -0.058381 0.85591
vn 0.1301 -0.081178 0.98817
vn 0.48488 -0.060668 0.87248
vn -0.13028 -0.060972 -0.9896
vn 0.79302 -0.028784 0.60851
vn -0.1301 -0.081178 -0.98817
vn 0.27479 -0.058381 -0.95973
vn 0.24254 -0.060668 -0.96824
vn 0.60851 -0.028784 -0.79302
vn 0.98817 -0.081178 -0.1301
vn -0.27479 -0.058381 0.95973
vn -0.24254 -0.060668 0.96824
vn -0.51383 -0.058381 -0.85591
vn -0.48488 -0.060668 -0.87248
vn -0.98817 -0.081178 0.1301
vn 0.13028 -0.060972 0.9896
vn -0.79302 -0.028784 -0.60851
vn -0.60851 -0.028784 0.79302
vn 0.75167 0.65207 -0.098959
vn -0.13053 0 -0.99144
vn -0.75167 0.65207 0.098959
vn 0.99144 0 -0.13053
vn -0.99144 0 0.13053
vn 0.11627 -0.45447 0.88314
vn -0.11627 -0.45447 -0.88314
vn -0.41135 -0.90987 0.054155
vn 0.13053 0 0.99144
vn -0.69933 -0.70885 0.092068
vn 0.69933 -0.70885 -0.092068
vn 0.29385 0 -0.95585
vn 0.74976 0 -0.66171
vn 0.11763 -0.99294 -0.015486
vn 0.53123 0 0.84723
vn 0.89547 0 0.44512
vn 0.11763 0.99294 -0.015486
vt 0.59375 0.025
vt 0.59375 0.225
vt 0.59375 0.125
vt 0.59375 0.099398
vt 0.34375 0.025
vt 0.34375 0.087411
vt 0.34375 0.12051
vt 0.34375 0.14746
vt 0.34375 0.17441
vt 0.34375 0.19805
vt 0.34375 0.225
vt 0.34375 0.16011
vt 0.34375 0.1854
usemtl colormap
f 3/1/2 2/2/1 1/1/1
f 2/2/1 3/1/2 4/2/2
f 5/2/3 1/1/1 2/2/1
f 1/1/1 5/2/3 6/1/3
f 5/2/1 7/1/4 6/1/1
f 7/1/4 5/2/1 8/2/4
f 11/2/5 10/1/6 9/1/5
f 10/1/6 11/2/5 12/2/6
f 12/2/6 13/1/7 10/1/6
f 13/1/7 12/2/6 14/2/7
f 13/1/6 16/2/8 15/1/8
f 16/2/8 13/1/6 14/2/6
f 19/2/10 18/1/9 17/2/9
f 18/1/9 19/2/10 20/1/10
f 20/1/10 22/2/11 21/1/11
f 22/2/11 20/1/10 19/2/10
f 22/2/10 23/1/12 21/1/10
f 23/1/12 22/2/10 24/2/12
f 25/1/13 11/2/6 9/1/6
f 11/2/6 25/1/13 26/2/13
f 28/2/14 3/1/1 27/1/14
f 3/1/1 28/2/14 4/2/1
f 8/2/4 25/1/13 7/1/4
f 25/1/13 8/2/4 26/2/13
f 26/2/13 8/2/4 29/2/15
f 32/2/17 31/1/16 30/2/16
f 31/1/16 32/2/17 27/1/14
f 27/1/14 32/2/17 28/2/14
f 27/1/18 33/1/18 31/1/18
f 33/1/18 27/1/18 23/1/18
f 23/1/18 27/1/18 3/1/18
f 23/1/18 3/1/18 21/1/18
f 21/1/18 3/1/18 1/1/18
f 21/1/18 1/1/18 20/1/18
f 20/1/18 1/1/18 6/1/18
f 20/1/18 6/1/18 18/1/18
f 18/1/18 6/1/18 7/1/18
f 18/1/18 7/1/18 34/1/18
f 34/1/18 7/1/18 10/1/18
f 10/1/18 7/1/18 25/1/18
f 10/1/18 25/1/18 9/1/18
f 10/1/18 15/1/18 34/1/18
f 15/1/18 10/1/18 13/1/18
f 30/2/16 33/1/19 35/2/19
f 33/1/19 30/2/16 31/1/16
f 36/2/20 23/1/12 24/2/12
f 23/1/12 36/2/20 33/1/19
f 33/1/19 36/2/20 35/2/19
f 37/2/21 18/1/10 34/1/21
f 18/1/10 37/2/21 17/2/10
f 15/1/8 37/2/21 34/1/21
f 37/2/21 15/1/8 38/2/22
f 38/2/22 15/1/8 16/2/8
f 36/2/23 30/2/23 35/2/23
f 30/2/23 36/2/23 32/2/23
f 32/2/23 36/2/23 39/2/23
f 39/2/23 28/2/23 32/2/23
f 24/2/23 39/2/23 36/2/23
f 28/2/23 39/2/23 4/2/23
f 39/2/23 24/2/23 22/2/23
f 4/2/23 39/2/23 2/2/23
f 39/2/23 22/2/23 19/2/23
f 2/2/23 39/2/23 5/2/23
f 39/2/23 19/2/23 17/2/23
f 5/2/23 39/2/23 8/2/23
f 39/2/23 17/2/23 37/2/23
f 8/2/23 39/2/23 29/2/23
f 39/2/23 37/2/23 38/2/23
f 12/2/23 29/2/23 39/2/23
f 38/2/23 12/2/23 39/2/23
f 29/2/23 12/2/23 11/2/23
f 29/2/23 11/2/23 26/2/23
f 12/2/23 38/2/23 14/2/23
f 14/2/23 38/2/23 16/2/23
f 42/1/23 41/1/23 40/1/23
f 41/1/23 42/1/23 43/1/23
f 46/3/18 45/3/18 44/3/18
f 45/3/18 46/3/18 47/3/18
f 49/4/24 45/3/25 48/4/24
f 45/3/25 49/4/24 44/3/25
f 49/4/26 46/3/1 44/3/1
f 46/3/1 49/4/26 50/4/26
f 46/3/6 51/4/27 47/3/6
f 51/4/27 46/3/6 50/4/27
f 51/4/28 45/3/10 47/3/10
f 45/3/10 51/4/28 48/4/28
f 42/1/29 48/4/28 51/4/28
f 48/4/28 42/1/29 40/1/29
f 41/1/30 50/4/26 49/4/26
f 50/4/26 41/1/30 43/1/30
f 40/1/31 49/4/24 48/4/24
f 49/4/24 40/1/31 41/1/31
f 50/4/27 42/1/32 51/4/27
f 42/1/32 50/4/27 43/1/32
f 54/1/23 53/1/23 52/1/23
f 53/1/23 54/1/23 55/1/23
f 58/3/18 57/3/18 56/3/18
f 57/3/18 58/3/18 59/3/18
f 61/4/24 57/3/25 60/4/24
f 57/3/25 61/4/24 56/3/25
f 61/4/26 58/3/1 56/3/1
f 58/3/1 61/4/26 62/4/26
f 58/3/6 63/4/27 59/3/6
f 63/4/27 58/3/6 62/4/27
f 63/4/28 57/3/10 59/3/10
f 57/3/10 63/4/28 60/4/28
f 54/1/29 60/4/28 63/4/28
f 60/4/28 54/1/29 52/1/29
f 53/1/30 62/4/26 61/4/26
f 62/4/26 53/1/30 55/1/30
f 52/1/31 61/4/24 60/4/24
f 61/4/24 52/1/31 53/1/31
f 62/4/27 54/1/32 63/4/27
f 54/1/32 62/4/27 55/1/32
f 66/1/23 65/1/23 64/1/23
f 65/1/23 66/1/23 67/1/23
f 70/3/18 69/3/18 68/3/18
f 69/3/18 70/3/18 71/3/18
f 73/4/24 69/3/25 72/4/24
f 69/3/25 73/4/24 68/3/25
f 73/4/26 70/3/1 68/3/1
f 70/3/1 73/4/26 74/4/26
f 70/3/6 75/4/27 71/3/6
f 75/4/27 70/3/6 74/4/27
f 75/4/28 69/3/10 71/3/10
f 69/3/10 75/4/28 72/4/28
f 66/1/29 72/4/28 75/4/28
f 72/4/28 66/1/29 64/1/29
f 65/1/30 74/4/26 73/4/26
f 74/4/26 65/1/30 67/1/30
f 64/1/31 73/4/24 72/4/24
f 73/4/24 64/1/31 65/1/31
f 74/4/27 66/1/32 75/4/27
f 66/1/32 74/4/27 67/1/32
f 78/1/23 77/1/23 76/1/23
f 77/1/23 78/1/23 79/1/23
f 82/3/18 81/3/18 80/3/18
f 81/3/18 82/3/18 83/3/18
f 85/4/24 81/3/25 84/4/24
f 81/3/25 85/4/24 80/3/25
f 85/4/26 82/3/1 80/3/1
f 82/3/1 85/4/26 86/4/26
f 82/3/6 87/4/27 83/3/6
f 87/4/27 82/3/6 86/4/27
f 87/4/28 81/3/10 83/3/10
f 81/3/10 87/4/28 84/4/28
f 78/1/29 84/4/28 87/4/28
f 84/4/28 78/1/29 76/1/29
f 77/1/30 86/4/26 85/4/26
f 86/4/26 77/1/30 79/1/30
f 76/1/31 85/4/24 84/4/24
f 85/4/24 76/1/31 77/1/31
f 86/4/27 78/1/32 87/4/27
f 78/1/32 86/4/27 79/1/32
f 90/6/35 89/5/34 88/5/33
f 89/5/34 90/6/35 91/6/34
f 94/6/36 93/5/36 92/5/36
f 93/5/36 94/6/36 95/6/36
f 97/6/37 88/5/33 96/5/37
f 88/5/33 97/6/37 90/6/35
f 100/6/38 99/5/39 98/5/38
f 99/5/39 100/6/38 101/6/40
f 94/6/41 99/5/39 101/6/40
f 99/5/39 94/6/41 92/5/41
f 104/6/42 103/5/42 102/6/42
f 103/5/42 104/6/42 105/5/42
f 105/5/42 104/6/42 106/6/42
f 105/5/42 106/6/42 107/6/42
f 107/6/34 108/5/43 105/5/34
f 108/5/43 107/6/34 109/6/44
f 111/6/46 103/5/38 110/5/45
f 103/5/38 111/6/46 102/6/38
f 98/5/47 112/6/47 100/6/47
f 112/6/47 98/5/47 89/5/47
f 112/6/47 89/5/47 113/6/47
f 113/6/47 89/5/47 91/6/47
f 115/6/48 96/5/48 114/5/48
f 96/5/48 115/6/48 97/6/48
f 110/5/45 95/6/49 111/6/46
f 95/6/49 110/5/45 93/5/49
f 108/5/43 115/6/50 114/5/50
f 115/6/50 108/5/43 109/6/44
f 117/7/51 104/6/51 116/7/51
f 104/6/51 117/7/51 106/6/51
f 118/7/52 104/6/52 112/6/52
f 104/6/52 118/7/52 116/7/52
f 121/9/52 120/8/52 119/8/52
f 120/8/52 121/9/52 122/10/52
f 122/10/52 121/9/52 123/11/52
f 122/10/52 123/11/52 124/11/52
f 113/6/53 118/7/53 112/6/53
f 118/7/53 113/6/53 125/7/53
f 126/11/54 122/10/54 124/11/54
f 122/10/54 126/11/54 127/10/54
f 128/9/55 123/11/55 121/9/55
f 123/11/55 128/9/55 129/11/55
f 107/6/23 115/6/23 109/6/23
f 106/6/23 115/6/23 107/6/23
f 115/6/23 106/6/23 113/6/23
f 115/6/23 113/6/23 97/6/23
f 97/6/23 113/6/23 90/6/23
f 90/6/23 113/6/23 91/6/23
f 130/8/56 125/7/56 117/7/56
f 125/7/56 130/8/56 131/8/56
f 119/8/57 116/7/57 118/7/57
f 116/7/57 119/8/57 120/8/57
f 128/9/58 119/8/58 131/8/58
f 119/8/58 128/9/58 121/9/58
f 127/10/59 131/8/59 130/8/59
f 131/8/59 127/10/59 128/9/59
f 128/9/59 127/10/59 129/11/59
f 129/11/59 127/10/59 126/11/59
f 117/7/59 113/6/59 106/6/59
f 113/6/59 117/7/59 125/7/59
f 131/8/60 118/7/60 125/7/60
f 118/7/60 131/8/60 119/8/60
f 111/6/23 104/6/23 102/6/23
f 104/6/23 111/6/23 95/6/23
f 104/6/23 95/6/23 112/6/23
f 112/6/23 95/6/23 94/6/23
f 112/6/23 94/6/23 101/6/23
f 112/6/23 101/6/23 100/6/23
f 117/7/61 120/8/61 130/8/61
f 120/8/61 117/7/61 116/7/61
f 123/11/23 126/11/23 124/11/23
f 126/11/23 123/11/23 129/11/23
f 108/5/18 103/5/18 105/5/18
f 103/5/18 108/5/18 110/5/18
f 110/5/18 108/5/18 114/5/18
f 110/5/18 114/5/18 93/5/18
f 93/5/18 114/5/18 96/5/18
f 93/5/18 96/5/18 92/5/18
f 92/5/18 96/5/18 88/5/18
f 92/5/18 88/5/18 99/5/18
f 99/5/18 88/5/18 89/5/18
f 99/5/18 89/5/18 98/5/18
f 122/10/62 132/12/63 120/8/62
f 132/12/63 122/10/62 133/13/63
f 130/8/64 132/12/64 134/12/64
f 132/12/64 130/8/64 120/8/64
f 134/12/66 127/10/65 130/8/65
f 127/10/65 134/12/66 135/13/66
f 135/13/66 132/12/63 133/13/63
f 132/12/63 135/13/66 134/12/66
f 122/10/67 135/13/67 133/13/67
f 135/13/67 122/10/67 127/10/67
g workbench-anvil
usemtl colormap
f 3/1/2 2/2/1 1/1/1
f 2/2/1 3/1/2 4/2/2
f 5/2/3 1/1/1 2/2/1
f 1/1/1 5/2/3 6/1/3
f 5/2/1 7/1/4 6/1/1
f 7/1/4 5/2/1 8/2/4
f 11/2/5 10/1/6 9/1/5
f 10/1/6 11/2/5 12/2/6
f 12/2/6 13/1/7 10/1/6
f 13/1/7 12/2/6 14/2/7
f 13/1/6 16/2/8 15/1/8
f 16/2/8 13/1/6 14/2/6
f 19/2/10 18/1/9 17/2/9
f 18/1/9 19/2/10 20/1/10
f 20/1/10 22/2/11 21/1/11
f 22/2/11 20/1/10 19/2/10
f 22/2/10 23/1/12 21/1/10
f 23/1/12 22/2/10 24/2/12
f 25/1/13 11/2/6 9/1/6
f 11/2/6 25/1/13 26/2/13
f 28/2/14 3/1/1 27/1/14
f 3/1/1 28/2/14 4/2/1
f 8/2/4 25/1/13 7/1/4
f 25/1/13 8/2/4 26/2/13
f 26/2/13 8/2/4 29/2/15
f 32/2/17 31/1/16 30/2/16
f 31/1/16 32/2/17 27/1/14
f 27/1/14 32/2/17 28/2/14
f 27/1/18 33/1/18 31/1/18
f 33/1/18 27/1/18 23/1/18
f 23/1/18 27/1/18 3/1/18
f 23/1/18 3/1/18 21/1/18
f 21/1/18 3/1/18 1/1/18
f 21/1/18 1/1/18 20/1/18
f 20/1/18 1/1/18 6/1/18
f 20/1/18 6/1/18 18/1/18
f 18/1/18 6/1/18 7/1/18
f 18/1/18 7/1/18 34/1/18
f 34/1/18 7/1/18 10/1/18
f 10/1/18 7/1/18 25/1/18
f 10/1/18 25/1/18 9/1/18
f 10/1/18 15/1/18 34/1/18
f 15/1/18 10/1/18 13/1/18
f 30/2/16 33/1/19 35/2/19
f 33/1/19 30/2/16 31/1/16
f 36/2/20 23/1/12 24/2/12
f 23/1/12 36/2/20 33/1/19
f 33/1/19 36/2/20 35/2/19
f 37/2/21 18/1/10 34/1/21
f 18/1/10 37/2/21 17/2/10
f 15/1/8 37/2/21 34/1/21
f 37/2/21 15/1/8 38/2/22
f 38/2/22 15/1/8 16/2/8
f 36/2/23 30/2/23 35/2/23
f 30/2/23 36/2/23 32/2/23
f 32/2/23 36/2/23 39/2/23
f 39/2/23 28/2/23 32/2/23
f 24/2/23 39/2/23 36/2/23
f 28/2/23 39/2/23 4/2/23
f 39/2/23 24/2/23 22/2/23
f 4/2/23 39/2/23 2/2/23
f 39/2/23 22/2/23 19/2/23
f 2/2/23 39/2/23 5/2/23
f 39/2/23 19/2/23 17/2/23
f 5/2/23 39/2/23 8/2/23
f 39/2/23 17/2/23 37/2/23
f 8/2/23 39/2/23 29/2/23
f 39/2/23 37/2/23 38/2/23
f 12/2/23 29/2/23 39/2/23
f 38/2/23 12/2/23 39/2/23
f 29/2/23 12/2/23 11/2/23
f 29/2/23 11/2/23 26/2/23
f 12/2/23 38/2/23 14/2/23
f 14/2/23 38/2/23 16/2/23
f 42/1/23 41/1/23 40/1/23
f 41/1/23 42/1/23 43/1/23
f 46/3/18 45/3/18 44/3/18
f 45/3/18 46/3/18 47/3/18
f 49/4/24 45/3/25 48/4/24
f 45/3/25 49/4/24 44/3/25
f 49/4/26 46/3/1 44/3/1
f 46/3/1 49/4/26 50/4/26
f 46/3/6 51/4/27 47/3/6
f 51/4/27 46/3/6 50/4/27
f 51/4/28 45/3/10 47/3/10
f 45/3/10 51/4/28 48/4/28
f 42/1/29 48/4/28 51/4/28
f 48/4/28 42/1/29 40/1/29
f 41/1/30 50/4/26 49/4/26
f 50/4/26 41/1/30 43/1/30
f 40/1/31 49/4/24 48/4/24
f 49/4/24 40/1/31 41/1/31
f 50/4/27 42/1/32 51/4/27
f 42/1/32 50/4/27 43/1/32
f 54/1/23 53/1/23 52/1/23
f 53/1/23 54/1/23 55/1/23
f 58/3/18 57/3/18 56/3/18
f 57/3/18 58/3/18 59/3/18
f 61/4/24 57/3/25 60/4/24
f 57/3/25 61/4/24 56/3/25
f 61/4/26 58/3/1 56/3/1
f 58/3/1 61/4/26 62/4/26
f 58/3/6 63/4/27 59/3/6
f 63/4/27 58/3/6 62/4/27
f 63/4/28 57/3/10 59/3/10
f 57/3/10 63/4/28 60/4/28
f 54/1/29 60/4/28 63/4/28
f 60/4/28 54/1/29 52/1/29
f 53/1/30 62/4/26 61/4/26
f 62/4/26 53/1/30 55/1/30
f 52/1/31 61/4/24 60/4/24
f 61/4/24 52/1/31 53/1/31
f 62/4/27 54/1/32 63/4/27
f 54/1/32 62/4/27 55/1/32
f 66/1/23 65/1/23 64/1/23
f 65/1/23 66/1/23 67/1/23
f 70/3/18 69/3/18 68/3/18
f 69/3/18 70/3/18 71/3/18
f 73/4/24 69/3/25 72/4/24
f 69/3/25 73/4/24 68/3/25
f 73/4/26 70/3/1 68/3/1
f 70/3/1 73/4/26 74/4/26
f 70/3/6 75/4/27 71/3/6
f 75/4/27 70/3/6 74/4/27
f 75/4/28 69/3/10 71/3/10
f 69/3/10 75/4/28 72/4/28
f 66/1/29 72/4/28 75/4/28
f 72/4/28 66/1/29 64/1/29
f 65/1/30 74/4/26 73/4/26
f 74/4/26 65/1/30 67/1/30
f 64/1/31 73/4/24 72/4/24
f 73/4/24 64/1/31 65/1/31
f 74/4/27 66/1/32 75/4/27
f 66/1/32 74/4/27 67/1/32
f 78/1/23 77/1/23 76/1/23
f 77/1/23 78/1/23 79/1/23
f 82/3/18 81/3/18 80/3/18
f 81/3/18 82/3/18 83/3/18
f 85/4/24 81/3/25 84/4/24
f 81/3/25 85/4/24 80/3/25
f 85/4/26 82/3/1 80/3/1
f 82/3/1 85/4/26 86/4/26
f 82/3/6 87/4/27 83/3/6
f 87/4/27 82/3/6 86/4/27
f 87/4/28 81/3/10 83/3/10
f 81/3/10 87/4/28 84/4/28
f 78/1/29 84/4/28 87/4/28
f 84/4/28 78/1/29 76/1/29
f 77/1/30 86/4/26 85/4/26
f 86/4/26 77/1/30 79/1/30
f 76/1/31 85/4/24 84/4/24
f 85/4/24 76/1/31 77/1/31
f 86/4/27 78/1/32 87/4/27
f 78/1/32 86/4/27 79/1/32
f 90/6/35 89/5/34 88/5/33
f 89/5/34 90/6/35 91/6/34
f 94/6/36 93/5/36 92/5/36
f 93/5/36 94/6/36 95/6/36
f 97/6/37 88/5/33 96/5/37
f 88/5/33 97/6/37 90/6/35
f 100/6/38 99/5/39 98/5/38
f 99/5/39 100/6/38 101/6/40
f 94/6/41 99/5/39 101/6/40
f 99/5/39 94/6/41 92/5/41
f 104/6/42 103/5/42 102/6/42
f 103/5/42 104/6/42 105/5/42
f 105/5/42 104/6/42 106/6/42
f 105/5/42 106/6/42 107/6/42
f 107/6/34 108/5/43 105/5/34
f 108/5/43 107/6/34 109/6/44
f 111/6/46 103/5/38 110/5/45
f 103/5/38 111/6/46 102/6/38
f 98/5/47 112/6/47 100/6/47
f 112/6/47 98/5/47 89/5/47
f 112/6/47 89/5/47 113/6/47
f 113/6/47 89/5/47 91/6/47
f 115/6/48 96/5/48 114/5/48
f 96/5/48 115/6/48 97/6/48
f 110/5/45 95/6/49 111/6/46
f 95/6/49 110/5/45 93/5/49
f 108/5/43 115/6/50 114/5/50
f 115/6/50 108/5/43 109/6/44
f 117/7/51 104/6/51 116/7/51
f 104/6/51 117/7/51 106/6/51
f 118/7/52 104/6/52 112/6/52
f 104/6/52 118/7/52 116/7/52
f 121/9/52 120/8/52 119/8/52
f 120/8/52 121/9/52 122/10/52
f 122/10/52 121/9/52 123/11/52
f 122/10/52 123/11/52 124/11/52
f 113/6/53 118/7/53 112/6/53
f 118/7/53 113/6/53 125/7/53
f 126/11/54 122/10/54 124/11/54
f 122/10/54 126/11/54 127/10/54
f 128/9/55 123/11/55 121/9/55
f 123/11/55 128/9/55 129/11/55
f 107/6/23 115/6/23 109/6/23
f 106/6/23 115/6/23 107/6/23
f 115/6/23 106/6/23 113/6/23
f 115/6/23 113/6/23 97/6/23
f 97/6/23 113/6/23 90/6/23
f 90/6/23 113/6/23 91/6/23
f 130/8/56 125/7/56 117/7/56
f 125/7/56 130/8/56 131/8/56
f 119/8/57 116/7/57 118/7/57
f 116/7/57 119/8/57 120/8/57
f 128/9/58 119/8/58 131/8/58
f 119/8/58 128/9/58 121/9/58
f 127/10/59 131/8/59 130/8/59
f 131/8/59 127/10/59 128/9/59
f 128/9/59 127/10/59 129/11/59
f 129/11/59 127/10/59 126/11/59
f 117/7/59 113/6/59 106/6/59
f 113/6/59 117/7/59 125/7/59
f 131/8/60 118/7/60 125/7/60
f 118/7/60 131/8/60 119/8/60
f 111/6/23 104/6/23 102/6/23
f 104/6/23 111/6/23 95/6/23
f 104/6/23 95/6/23 112/6/23
f 112/6/23 95/6/23 94/6/23
f 112/6/23 94/6/23 101/6/23
f 112/6/23 101/6/23 100/6/23
f 117/7/61 120/8/61 130/8/61
f 120/8/61 117/7/61 116/7/61
f 123/11/23 126/11/23 124/11/23
f 126/11/23 123/11/23 129/11/23
f 108/5/18 103/5/18 105/5/18
f 103/5/18 108/5/18 110/5/18
f 110/5/18 108/5/18 114/5/18
f 110/5/18 114/5/18 93/5/18
f 93/5/18 114/5/18 96/5/18
f 93/5/18 96/5/18 92/5/18
f 92/5/18 96/5/18 88/5/18
f 92/5/18 88/5/18 99/5/18
f 99/5/18 88/5/18 89/5/18
f 99/5/18 89/5/18 98/5/18
f 122/10/62 132/12/63 120/8/62
f 132/12/63 122/10/62 133/13/63
f 130/8/64 132/12/64 134/12/64
f 132/12/64 130/8/64 120/8/64
f 134/12/66 127/10/65 130/8/65
f 127/10/65 134/12/66 135/13/66
f 135/13/66 132/12/63 133/13/63
f 132/12/63 135/13/66 134/12/66
f 122/10/67 135/13/67 133/13/67
f 135/13/67 122/10/67 127/10/67
g hammer
v -0.076886 0.33575 0.0099491
v -0.075963 0.33575 0.034432
v -0.091586 0.33075 0.025412
v 0.0010449 0.33575 -0.02503
v 0.005375 0.3111 -0.02253
v -0.0007103 0.33075 -0.01199
v -0.043955 0.33575 0.052912
v -0.039625 0.33075 0.055412
v -0.046586 0.30075 -0.05253
v -0.046586 0.33075 -0.05253
v -0.091586 0.30075 0.025412
v 0.0010449 0.29575 -0.02503
v -0.042256 0.29575 -0.05003
v -0.043955 0.29575 0.052912
v -0.087256 0.29575 0.027912
v -0.042256 0.33575 -0.05003
v 0.005375 0.30075 -0.02253
v -0.039625 0.30075 0.055412
v -0.075184 0.30575 -0.028627
v -0.075184 0.32575 -0.028627
v -0.085184 0.30575 -0.011306
v -0.085184 0.32575 -0.011306
v 0.030957 0.30389 0.057891
v 0.030957 0.33081 0.057891
v 0.048893 0.30807 0.063424
v 0.048893 0.32663 0.063424
v 0.044413 0.30389 0.034585
v 0.058173 0.30807 0.047351
v 0.044413 0.33081 0.034585
v 0.058173 0.32663 0.047351
vn -0.31091 0.95037 0.01172
vn 0.96093 0.18932 0.20193
vn 0.16292 0.98214 0.094063
vn 0.7852 0.42184 0.45334
vn 0.33141 0.92388 0.19134
vn 0.8001 0.38268 0.46194
vn -0.8001 -0.38268 -0.46194
vn -0.8001 0.38268 -0.46194
vn -0.85893 0.12779 -0.4959
vn 0.33141 -0.92388 0.19134
vn -0.33141 -0.92388 -0.19134
vn -0.33141 0.92388 -0.19134
vn -0.34566 0.91689 -0.19957
vn 0.5 0 -0.86603
vn 0.8001 -0.38268 0.46194
vn -0.5 0 0.86603
vn 0.86603 0 0.5
vn -0.86603 0 -0.5
vn -0.41389 0 0.91033
vn -0.41306 0 0.9107
vn -0.2948 0 0.95556
vn 0.57106 0 -0.82091
vn 0.68014 0 -0.73308
vn 0.57189 0 -0.82033
vn 0.084552 -0.99522 0.048816
vn -0.011889 -0.99991 -0.0068643
vn 0.083766 -0.99531 0.048363
vn 0.19267 0.97494 0.11124
vn 0.073699 0.99637 0.04255
vn 0.072834 0.99646 0.042051
vn -0.032368 0.9993 -0.018688
vn -0.51184 0 0.85908
vn 0.19267 -0.97494 0.11124
vn 0.46728 0 -0.88411
vt 0.34375 0.2
vt 0.34375 0.10177
vt 0.34375 0.05
vt 0.59375 0.038793
vt 0.59375 0.18743
vt 0.59375 0.056034
vt 0.59375 0.19397
usemtl colormap
f 138/14/68 137/11/68 136/11/68
f 141/14/69 140/15/69 139/11/69
f 142/11/72 141/14/71 139/11/70
f 141/14/71 142/11/72 143/14/73
f 146/16/74 145/14/75 144/16/74
f 145/14/75 146/16/74 138/14/76
f 149/5/77 148/5/78 147/5/77
f 148/5/78 149/5/77 150/5/78
f 145/14/75 136/11/80 151/11/79
f 136/11/80 145/14/75 138/14/76
f 144/16/81 147/5/81 148/5/81
f 147/5/81 144/16/81 152/16/81
f 152/16/81 144/16/81 145/14/81
f 152/16/81 145/14/81 140/15/81
f 140/15/81 145/14/81 139/11/81
f 139/11/81 145/14/81 151/11/81
f 150/5/78 144/16/74 148/5/78
f 144/16/74 150/5/78 146/16/74
f 153/16/82 147/5/77 152/16/82
f 147/5/77 153/16/82 149/5/77
f 153/16/83 150/5/83 149/5/83
f 150/5/83 153/16/83 146/16/83
f 146/16/83 153/16/83 143/14/83
f 146/16/83 143/14/83 138/14/83
f 138/14/83 143/14/83 142/11/83
f 138/14/83 142/11/83 137/11/83
f 141/14/71 152/16/82 140/15/84
f 152/16/82 141/14/71 153/16/82
f 153/16/82 141/14/71 143/14/73
f 151/11/79 142/11/72 139/11/70
f 142/11/72 151/11/79 136/11/80
f 142/11/72 136/11/80 137/11/23
f 156/17/85 155/18/85 154/17/85
f 155/18/85 156/17/85 157/18/85
f 160/19/88 159/2/87 158/1/86
f 159/2/87 160/19/88 161/20/88
f 164/2/91 163/19/90 162/1/89
f 163/19/90 164/2/91 165/20/90
f 158/1/94 154/17/93 162/1/92
f 154/17/93 158/1/94 156/17/93
f 164/2/96 161/20/95 165/20/95
f 161/20/95 164/2/96 159/2/97
f 155/18/98 159/2/97 164/2/96
f 159/2/97 155/18/98 157/18/98
f 159/2/87 156/17/99 158/1/86
f 156/17/99 159/2/87 157/18/99
f 160/19/100 162/1/92 163/19/100
f 162/1/92 160/19/100 158/1/94
f 161/20/84 163/19/84 165/20/84
f 163/19/84 161/20/84 160/19/84
f 154/17/101 164/2/91 162/1/89
f 164/2/91 154/17/101 155/18/101
