mtllib survival_rock-a.mtl
g rock-a
v -0.022971 0.3927 -0.041674
v -0.089232 0.3927 -0.12995
v -0.037457 0.13858 -0.16986
v -0.18641 0.3927 0.036065
v -0.27615 0.13341 0.02298
v -0.2164 0.3927 -0.042051
v -0.11705 0.079167 0.13575
v -0.21268 0.079167 0.073648
v -0.11487 0.3927 0.082522
v -0.3 0 0.030738
v -0.26838 0 0.051273
v -0.24371 0 -0.17933
v -0.19432 0.3927 -0.12444
v -0.0083953 0.3927 -0.0037025
v -0.026529 0 -0.19071
v 0.024871 0.17426 0.0052111
v -0.019243 0.17426 -0.10971
v -0.019678 0 -0.17286
v -0.046254 0.17426 0.062807
v -0.063692 0.079167 0.092535
v -0.032096 4.6529e-17 -0.22654
v 0.038484 4.6529e-17 -0.20117
v -0.0067297 4.6529e-17 -0.29712
v 0.06385 4.6529e-17 -0.27175
v 0.0011827 0.025875 -0.28033
v 0.04706 0.025875 -0.26384
v -0.015306 0.025875 -0.23445
v 0.030572 0.025875 -0.21796
v -0.062442 4.6529e-17 0.26438
v -0.01755 4.6529e-17 0.32446
v -0.0023605 4.6529e-17 0.21949
v 0.042531 4.6529e-17 0.27957
v -0.0050186 0.025875 0.23786
v 0.024161 0.025875 0.27691
v -0.044071 0.025875 0.26704
v -0.014892 0.025875 0.30609
v 0.065507 0.17426 -0.058664
v 0.028976 0.17426 0.0068375
v 0.13101 0.17426 -0.022133
v 0.094478 0.17426 0.043369
v 0.11315 0.20014 -0.017063
v 0.089408 0.20014 0.025513
v 0.070577 0.20014 -0.040808
v 0.046832 0.20014 0.0017677
v -0.11314 0.023901 0.2247
v -0.15028 0.079167 0.16306
v -0.077085 0.079167 0.16028
v -0.0014706 0 0.163
v -0.1133 0 0.2417
v -0.01881 0.079167 0.11927
v -0.29103 0 0.13581
v -0.22475 0.079167 0.11869
v -0.11705 0.079167 0.13575
v -0.063692 0.079167 0.092535
v -0.26838 0 0.051273
v 0.11621 0.17426 0.076145
v 0.051588 0.070513 0.16486
v 0.020165 0.17426 0.10238
v 0.024871 0.17426 0.0052111
v 0.11439 0.17426 -0.11154
v 0.18043 0.17426 0.030954
v 0.25518 0 0.050984
v 0.15036 0 -0.17519
v 0.051314 0 0.19445
v -0.0014706 0 0.163
v -0.01881 0.079167 0.11927
v -0.063692 0.079167 0.092535
v -0.019678 0 -0.17286
v -0.3 0 0.030738
v -0.24371 0 -0.17933
v -0.29103 0 0.13581
v -0.026529 0 -0.19071
v -0.019678 0 -0.17286
v 0.25518 0 0.050984
vn 0.87972 0.17322 -0.44282
vn 0.77456 0.24911 -0.58138
vn 0.91166 0.14247 -0.38546
vn -0.89297 0.29173 0.34278
vn -0.53891 0.14462 0.82985
vn -0.95414 0.15574 -0.25566
vn 0 1 0
vn -0.051786 0.14462 -0.98813
vn 0.92608 0.12653 -0.35549
vn 0.62426 0.12653 0.7709
vn 0 -1 0
vn -0.83927 0.45238 -0.30163
vn 0.30163 0.45238 -0.83927
vn -0.30163 0.45238 0.83927
vn 0.83927 0.45238 0.30163
vn -0.53381 0.45238 -0.71443
vn 0.71443 0.45238 -0.53381
vn -0.71443 0.45238 0.53381
vn 0.53381 0.45238 0.71443
vn 0.43439 0.45238 -0.77888
vn 0.77888 0.45238 0.43439
vn -0.77888 0.45238 -0.43439
vn -0.43439 0.45238 0.77888
vn 0.025026 0.75177 0.65895
vn 0.49831 0.50027 0.70811
vn -0.4361 0.52342 0.73202
vn -0.77172 0.6014 -0.20678
vn 0.21981 0.55132 0.80481
vn 0.85877 0.32265 -0.398
vn 0.54472 0.32265 0.77407
vn -0.48118 0.34074 0.80769
vn -0.012873 0.34074 -0.94007
vt 0.21875 0.225
vt 0.21875 0.095576
vt 0.21875 0.092943
vt 0.21875 0.065319
vt 0.21875 0.025
vt 0.21875 0.11375
vt 0.21875 0.15519
vt 0.21875 0.125
vt 0.21875 0.065464
vt 0.21875 0.07043
vt 0.84375 0.025
usemtl colormap
f 3/2/3 2/1/2 1/1/1
f 6/1/4 5/3/4 4/1/4
f 9/1/5 8/4/5 7/4/5
f 8/4/5 9/1/5 5/3/5
f 5/3/5 9/1/5 4/1/5
f 10/5/5 8/4/5 5/3/5
f 8/4/5 10/5/5 11/5/5
f 5/3/6 12/5/6 10/5/6
f 12/5/6 5/3/6 6/1/6
f 12/5/6 6/1/6 13/1/6
f 4/1/7 13/1/7 6/1/7
f 13/1/7 4/1/7 2/1/7
f 2/1/7 4/1/7 9/1/7
f 2/1/7 9/1/7 14/1/7
f 2/1/7 14/1/7 1/1/7
f 13/1/8 15/5/8 12/5/8
f 15/5/8 13/1/8 3/2/8
f 3/2/8 13/1/8 2/1/8
f 17/6/9 14/1/9 16/6/9
f 14/1/9 17/6/9 1/1/1
f 1/1/1 17/6/9 3/2/3
f 3/2/3 17/6/9 18/5/9
f 3/2/3 18/5/9 15/5/9
f 14/1/10 19/6/10 16/6/10
f 9/1/10 19/6/10 14/1/10
f 9/1/10 20/4/10 19/6/10
f 20/4/10 9/1/10 7/4/10
f 23/5/11 22/5/11 21/5/11
f 22/5/11 23/5/11 24/5/11
f 27/1/7 26/1/7 25/1/7
f 26/1/7 27/1/7 28/1/7
f 27/1/12 23/5/12 21/5/12
f 23/5/12 27/1/12 25/1/12
f 25/1/13 24/5/13 23/5/13
f 24/5/13 25/1/13 26/1/13
f 28/1/14 21/5/14 22/5/14
f 21/5/14 28/1/14 27/1/14
f 24/5/15 28/1/15 22/5/15
f 28/1/15 24/5/15 26/1/15
f 31/5/11 30/5/11 29/5/11
f 30/5/11 31/5/11 32/5/11
f 35/1/7 34/1/7 33/1/7
f 34/1/7 35/1/7 36/1/7
f 35/1/16 31/5/16 29/5/16
f 31/5/16 35/1/16 33/1/16
f 33/1/17 32/5/17 31/5/17
f 32/5/17 33/1/17 34/1/17
f 36/1/18 29/5/18 30/5/18
f 29/5/18 36/1/18 35/1/18
f 32/5/19 36/1/19 30/5/19
f 36/1/19 32/5/19 34/1/19
f 39/5/11 38/5/11 37/5/11
f 38/5/11 39/5/11 40/5/11
f 43/1/7 42/1/7 41/1/7
f 42/1/7 43/1/7 44/1/7
f 43/1/20 39/5/20 37/5/20
f 39/5/20 43/1/20 41/1/20
f 41/1/21 40/5/21 39/5/21
f 40/5/21 41/1/21 42/1/21
f 44/1/22 37/5/22 38/5/22
f 37/5/22 44/1/22 43/1/22
f 40/5/23 44/1/23 38/5/23
f 44/1/23 40/5/23 42/1/23
f 47/1/24 46/1/24 45/7/24
f 50/1/25 49/8/25 48/8/25
f 49/8/25 50/1/25 45/7/25
f 45/7/25 50/1/25 47/1/25
f 45/7/26 51/8/26 49/8/26
f 51/8/26 45/7/26 52/1/26
f 52/1/26 45/7/26 46/1/26
f 46/1/7 8/1/7 52/1/7
f 8/1/7 46/1/7 53/1/7
f 53/1/7 46/1/7 47/1/7
f 53/1/7 47/1/7 54/1/7
f 54/1/7 47/1/7 50/1/7
f 52/1/27 55/8/27 51/8/27
f 55/8/27 52/1/27 8/1/27
f 58/8/28 57/9/28 56/8/28
f 58/8/7 59/8/7 19/8/7
f 59/8/7 58/8/7 56/8/7
f 59/8/7 56/8/7 60/8/7
f 60/8/7 56/8/7 61/8/7
f 60/8/7 17/8/7 59/8/7
f 63/5/29 61/8/29 62/5/29
f 61/8/29 63/5/29 60/8/29
f 61/8/30 64/5/30 62/5/30
f 64/5/30 61/8/30 57/9/30
f 57/9/30 61/8/30 56/8/30
f 57/9/31 65/5/31 64/5/31
f 65/5/31 57/9/31 66/10/31
f 66/10/31 57/9/31 58/8/31
f 66/10/31 58/8/31 67/10/31
f 67/10/31 58/8/31 19/8/31
f 17/8/32 63/5/32 68/5/32
f 63/5/32 17/8/32 60/8/32
f 70/11/11 11/11/11 69/11/11
f 49/11/11 11/11/11 70/11/11
f 11/11/11 49/11/11 71/11/11
f 49/11/11 70/11/11 72/11/11
f 49/11/11 72/11/11 65/11/11
f 65/11/11 72/11/11 73/11/11
f 65/11/11 73/11/11 63/11/11
f 65/11/11 63/11/11 64/11/11
f 64/11/11 63/11/11 74/11/11
g rock-a
usemtl colormap
f 3/2/3 2/1/2 1/1/1
f 6/1/4 5/3/4 4/1/4
f 9/1/5 8/4/5 7/4/5
f 8/4/5 9/1/5 5/3/5
f 5/3/5 9/1/5 4/1/5
f 10/5/5 8/4/5 5/3/5
f 8/4/5 10/5/5 11/5/5
f 5/3/6 12/5/6 10/5/6
f 12/5/6 5/3/6 6/1/6
f 12/5/6 6/1/6 13/1/6
f 4/1/7 13/1/7 6/1/7
f 13/1/7 4/1/7 2/1/7
f 2/1/7 4/1/7 9/1/7
f 2/1/7 9/1/7 14/1/7
f 2/1/7 14/1/7 1/1/7
f 13/1/8 15/5/8 12/5/8
f 15/5/8 13/1/8 3/2/8
f 3/2/8 13/1/8 2/1/8
f 17/6/9 14/1/9 16/6/9
f 14/1/9 17/6/9 1/1/1
f 1/1/1 17/6/9 3/2/3
f 3/2/3 17/6/9 18/5/9
f 3/2/3 18/5/9 15/5/9
f 14/1/10 19/6/10 16/6/10
f 9/1/10 19/6/10 14/1/10
f 9/1/10 20/4/10 19/6/10
f 20/4/10 9/1/10 7/4/10
f 23/5/11 22/5/11 21/5/11
f 22/5/11 23/5/11 24/5/11
f 27/1/7 26/1/7 25/1/7
f 26/1/7 27/1/7 28/1/7
f 27/1/12 23/5/12 21/5/12
f 23/5/12 27/1/12 25/1/12
f 25/1/13 24/5/13 23/5/13
f 24/5/13 25/1/13 26/1/13
f 28/1/14 21/5/14 22/5/14
f 21/5/14 28/1/14 27/1/14
f 24/5/15 28/1/15 22/5/15
f 28/1/15 24/5/15 26/1/15
f 31/5/11 30/5/11 29/5/11
f 30/5/11 31/5/11 32/5/11
f 35/1/7 34/1/7 33/1/7
f 34/1/7 35/1/7 36/1/7
f 35/1/16 31/5/16 29/5/16
f 31/5/16 35/1/16 33/1/16
f 33/1/17 32/5/17 31/5/17
f 32/5/17 33/1/17 34/1/17
f 36/1/18 29/5/18 30/5/18
f 29/5/18 36/1/18 35/1/18
f 32/5/19 36/1/19 30/5/19
f 36/1/19 32/5/19 34/1/19
f 39/5/11 38/5/11 37/5/11
f 38/5/11 39/5/11 40/5/11
f 43/1/7 42/1/7 41/1/7
f 42/1/7 43/1/7 44/1/7
f 43/1/20 39/5/20 37/5/20
f 39/5/20 43/1/20 41/1/20
f 41/1/21 40/5/21 39/5/21
f 40/5/21 41/1/21 42/1/21
f 44/1/22 37/5/22 38/5/22
f 37/5/22 44/1/22 43/1/22
f 40/5/23 44/1/23 38/5/23
f 44/1/23 40/5/23 42/1/23
f 47/1/24 46/1/24 45/7/24
f 50/1/25 49/8/25 48/8/25
f 49/8/25 50/1/25 45/7/25
f 45/7/25 50/1/25 47/1/25
f 45/7/26 51/8/26 49/8/26
f 51/8/26 45/7/26 52/1/26
f 52/1/26 45/7/26 46/1/26
f 46/1/7 8/1/7 52/1/7
f 8/1/7 46/1/7 53/1/7
f 53/1/7 46/1/7 47/1/7
f 53/1/7 47/1/7 54/1/7
f 54/1/7 47/1/7 50/1/7
f 52/1/27 55/8/27 51/8/27
f 55/8/27 52/1/27 8/1/27
f 58/8/28 57/9/28 56/8/28
f 58/8/7 59/8/7 19/8/7
f 59/8/7 58/8/7 56/8/7
f 59/8/7 56/8/7 60/8/7
f 60/8/7 56/8/7 61/8/7
f 60/8/7 17/8/7 59/8/7
f 63/5/29 61/8/29 62/5/29
f 61/8/29 63/5/29 60/8/29
f 61/8/30 64/5/30 62/5/30
f 64/5/30 61/8/30 57/9/30
f 57/9/30 61/8/30 56/8/30
f 57/9/31 65/5/31 64/5/31
f 65/5/31 57/9/31 66/10/31
f 66/10/31 57/9/31 58/8/31
f 66/10/31 58/8/31 67/10/31
f 67/10/31 58/8/31 19/8/31
f 17/8/32 63/5/32 68/5/32
f 63/5/32 17/8/32 60/8/32
f 70/11/11 11/11/11 69/11/11
f 49/11/11 11/11/11 70/11/11
f 11/11/11 49/11/11 71/11/11
f 49/11/11 70/11/11 72/11/11
f 49/11/11 72/11/11 65/11/11
f 65/11/11 72/11/11 73/11/11
f 65/11/11 73/11/11 63/11/11
f 65/11/11 63/11/11 64/11/11
f 64/11/11 63/11/11 74/11/11
