mtllib survival_tree.mtl
g tree
v 0.1 0 0.05
v 0.1 0 -0.05
v 0.05 0 0.1
v 0.05 0 -0.1
v -0.05 0 0.1
v -0.05 0 -0.1
v -0.1 0 0.05
v -0.1 0 -0.05
v 0.05 0.18106 -0.025
v 0.05 0.18106 0.025
v 0.025 0.18106 0.05
v 0.025 0.18106 -0.05
v -0.025 0.18106 -0.05
v -0.05 0.18106 -0.025
v -0.05 0.18106 0.025
v -0.025 0.18106 0.05
v -0.0625 0.45266 -0.03125
v -0.0625 0.45266 0.03125
v -0.03125 0.45266 0.0625
v 0.0625 0.45266 -0.03125
v 0.0625 0.45266 0.03125
v -0.03125 0.45266 -0.0625
v 0.03125 0.45266 -0.0625
v 0.03125 0.45266 0.0625
v 0.082645 0.2457 -0.02444
v 0.06763 0.2457 0.011809
v 0.06763 0.2457 -0.060689
v 0.031381 0.2457 -0.075704
v 0.031381 0.2457 0.026823
v -0.0048674 0.2457 -0.060689
v -0.0048674 0.2457 0.011809
v -0.019882 0.2457 -0.02444
v 0.11168 0.18 -0.02444
v 0.088162 0.18 -0.081221
v 0.088162 0.18 0.032341
v 0.031381 0.18 0.05586
v 0.031381 0.18 -0.10474
v -0.025399 0.18 0.032341
v -0.025399 0.18 -0.081221
v -0.048919 0.18 -0.02444
v 0.11967 0.45266 0.21567
v -0.12937 0.45266 0.21567
v 0.068618 0.75202 0.12725
v -0.078314 0.75202 0.12725
v 0.11967 0.45266 -0.21567
v 0.24419 0.45266 -5.5668e-09
v 0.068618 0.75202 -0.12725
v 0.14208 0.75202 -4.0451e-09
v -0.12937 0.45266 -0.21567
v -0.078314 0.75202 -0.12725
v -0.15178 0.75202 3.3441e-10
v -0.25388 0.45266 1.8561e-09
v 0.13875 1.0736 -2.7473e-09
v 0.066949 1.0736 0.12436
v 0.028157 1.411 -1.0993e-09
v 0.011654 1.411 0.028583
v -0.037853 1.411 -1.1558e-10
v -0.02135 1.411 0.028583
v -0.14844 1.0736 1.5325e-09
v -0.076645 1.0736 0.12436
v -0.076645 1.0736 -0.12436
v 0.066949 1.0736 -0.12436
v -0.02135 1.411 -0.028583
v 0.011654 1.411 -0.028583
v 0.17049 0.75202 -0.10123
v 0.17049 0.75202 0.10123
v 0.075496 1.0736 -0.046386
v 0.075496 1.0736 0.046386
v -0.004848 0.75202 -0.20247
v -0.004848 1.0736 -0.092773
v -0.004848 0.75202 0.20247
v -0.004848 1.0736 0.092773
v -0.18019 0.75202 0.10123
v -0.085192 1.0736 0.046386
v -0.18019 0.75202 -0.10123
v -0.085192 1.0736 -0.046386
v -0.004848 0.35927 0.26312
v -0.14306 0.40597 0.23939
v 0.13337 0.40597 0.23939
v -0.14306 0.40597 -0.23939
v -0.23272 0.35927 -0.13156
v -0.28128 0.40597 2.2643e-09
v -0.23272 0.35927 0.13156
v 0.27158 0.40597 -5.975e-09
v 0.22302 0.35927 0.13156
v -0.004848 0.35927 -0.26312
v 0.13337 0.40597 -0.23939
v 0.22302 0.35927 -0.13156
v -0.11181 0.67609 -0.18526
v -0.004848 0.71405 -0.22474
v -0.19948 0.71405 -0.11237
v 0.18978 0.71405 -0.11237
v 0.20907 0.67609 -4.5243e-09
v 0.18978 0.71405 0.11237
v -0.11181 0.67609 0.18526
v -0.19948 0.71405 0.11237
v -0.004848 0.71405 0.22474
v -0.21877 0.67609 -1.1795e-09
v 0.10211 0.67609 0.18526
v 0.10211 0.67609 -0.18526
v -0.084543 1.0467 -0.13804
v -0.13624 1.0198 -0.075857
v -0.16424 1.0467 1.7679e-09
v -0.13624 1.0198 0.075857
v -0.084543 1.0467 0.13804
v 0.074847 1.0467 -0.13804
v 0.12654 1.0198 -0.075857
v 0.15454 1.0467 -2.9827e-09
v -0.004848 1.0198 0.15171
v 0.074847 1.0467 0.13804
v -0.004848 1.0198 -0.15171
v 0.12654 1.0198 0.075857
vn 0 -1 0
vn 0.88123 0.29442 -0.36979
vn 0.88123 0.29442 0.36979
vn 0.88506 0.29422 -0.36071
vn 0.88506 0.29422 0.36071
vn 0.36071 0.29422 0.88506
vn 0.36979 0.29442 0.88123
vn 0.36979 0.29442 -0.88123
vn 0.36071 0.29422 -0.88506
vn -0.36979 0.29442 -0.88123
vn -0.36071 0.29422 -0.88506
vn -0.88123 0.29442 -0.36979
vn -0.88506 0.29422 -0.36071
vn -0.88123 0.29442 0.36979
vn -0.88506 0.29422 0.36071
vn -0.36979 0.29442 0.88123
vn -0.36071 0.29422 0.88506
vn -0.92233 -0.051261 -0.38298
vn -0.92233 -0.051261 0.38298
vn -0.92301 -0.051255 -0.38135
vn -0.92301 -0.051255 0.38135
vn -0.38135 -0.051255 0.92301
vn -0.38298 -0.051261 0.92233
vn 0.92233 -0.051261 -0.38298
vn 0.92301 -0.051255 -0.38135
vn 0.92233 -0.051261 0.38298
vn 0.92301 -0.051255 0.38135
vn -0.38135 -0.051255 -0.92301
vn 0.38135 -0.051255 -0.92301
vn -0.38298 -0.051261 -0.92233
vn 0.38298 -0.051261 -0.92233
vn 0.38135 -0.051255 0.92301
vn 0.38298 -0.051261 0.92233
vn 0 1 0
vn 0.64676 0.40424 -0.64676
vn 0.91465 0.40424 0
vn 0 0.40424 0.91465
vn -0.64676 0.40424 0.64676
vn -0.91465 0.40424 0
vn 0 0.40424 -0.91465
vn 0.64676 0.40424 0.64676
vn -0.64676 0.40424 -0.64676
vn 0.47323 0.32281 0.81966
vn -0.47323 0.32281 0.81966
vn 0.47323 0.32281 -0.81966
vn 0.94646 0.32281 0
vn -0.47323 0.32281 -0.81966
vn -0.94646 0.32281 0
vn 0.95024 0.31152 0
vn 0.47512 0.31152 0.82293
vn 0.68773 0.72596 0
vn 0.34387 0.72596 0.59559
vn -0.68773 0.72596 0
vn -0.34387 0.72596 0.59559
vn -0.95024 0.31152 0
vn -0.47512 0.31152 0.82293
vn -0.47512 0.31152 -0.82293
vn 0.47512 0.31152 -0.82293
vn -0.34387 0.72596 -0.59559
vn 0.34387 0.72596 -0.59559
vn 0.81966 0.32281 -0.47323
vn 0.81966 0.32281 0.47323
vn 0 0.32281 -0.94646
vn 0 0.32281 0.94646
vn -0.81966 0.32281 0.47323
vn -0.81966 0.32281 -0.47323
vn 0 0.45296 0.89153
vn -0.43126 0.50601 0.74697
vn 0.43126 0.50601 0.74697
vn -0.43126 -0.50601 -0.74697
vn 0.43126 -0.50601 -0.74697
vn 0 -0.45296 -0.89153
vn -0.43126 0.50601 -0.74697
vn -0.77209 0.45296 -0.44577
vn -0.86252 0.50601 0
vn 0.77209 -0.45296 0.44577
vn 0.43126 -0.50601 0.74697
vn 0.86252 -0.50601 0
vn -0.77209 0.45296 0.44577
vn 0.77209 -0.45296 -0.44577
vn 0.86252 0.50601 0
vn 0.77209 0.45296 0.44577
vn -0.86252 -0.50601 0
vn -0.77209 -0.45296 -0.44577
vn 0 0.45296 -0.89153
vn 0.43126 0.50601 -0.74697
vn -0.43126 -0.50601 0.74697
vn 0 -0.45296 0.89153
vn 0.77209 0.45296 -0.44577
vn -0.77209 -0.45296 0.44577
vn -0.44577 0.45296 -0.77209
vn 0 0.50601 -0.86252
vn -0.74697 0.50601 -0.43126
vn 0.74697 -0.50601 0.43126
vn 0 -0.50601 0.86252
vn 0.44577 -0.45296 0.77209
vn 0.74697 0.50601 -0.43126
vn 0.89153 0.45296 0
vn 0.74697 0.50601 0.43126
vn -0.74697 -0.50601 0.43126
vn -0.89153 -0.45296 0
vn -0.74697 -0.50601 -0.43126
vn -0.44577 0.45296 0.77209
vn -0.74697 0.50601 0.43126
vn 0 0.50601 0.86252
vn 0 -0.50601 -0.86252
vn 0.74697 -0.50601 -0.43126
vn 0.44577 -0.45296 -0.77209
vn -0.89153 0.45296 0
vn 0.89153 -0.45296 0
vn 0.44577 0.45296 0.77209
vn -0.44577 -0.45296 -0.77209
vn 0.44577 0.45296 -0.77209
vn -0.44577 -0.45296 0.77209
vn -0.77209 0.45296 -0.44577
vn 0.77209 -0.45296 0.44577
vn -0.43126 0.50601 0.74697
vn -0.77209 0.45296 0.44577
vn 0.43126 -0.50601 -0.74697
vn 0.77209 -0.45296 -0.44577
vn 0.77209 0.45296 -0.44577
vn 0.86252 0.50601 0
vn -0.77209 -0.45296 0.44577
vn -0.86252 -0.50601 0
vn 0 0.45296 -0.89153
vn 0 -0.45296 0.89153
vt 0.59375 0.025
vt 0.59375 0.105
vt 0.59375 0.225
vt 0.09375 0.475
vt 0.09375 0.275
vt 0.09375 0.34878
vt 0.09375 0.425
vt 0.09375 0.33877
vt 0.09375 0.3441
vt 0.09375 0.325
vt 0.09375 0.375
usemtl colormap
f 3/1/1 2/1/1 1/1/1
f 2/1/1 3/1/1 4/1/1
f 4/1/1 3/1/1 5/1/1
f 4/1/1 5/1/1 6/1/1
f 6/1/1 5/1/1 7/1/1
f 6/1/1 7/1/1 8/1/1
f 9/2/4 1/1/3 2/1/2
f 1/1/3 9/2/4 10/2/5
f 11/2/6 1/1/3 10/2/5
f 1/1/3 11/2/6 3/1/7
f 12/2/9 2/1/2 4/1/8
f 2/1/2 12/2/9 9/2/4
f 13/2/11 4/1/8 6/1/10
f 4/1/8 13/2/11 12/2/9
f 7/1/14 14/2/13 8/1/12
f 14/2/13 7/1/14 15/2/15
f 11/2/6 5/1/16 3/1/7
f 5/1/16 11/2/6 16/2/17
f 8/1/12 13/2/11 6/1/10
f 13/2/11 8/1/12 14/2/13
f 7/1/14 16/2/17 15/2/15
f 16/2/17 7/1/14 5/1/16
f 14/2/20 18/3/19 17/3/18
f 18/3/19 14/2/20 15/2/21
f 16/2/22 18/3/19 15/2/21
f 18/3/19 16/2/22 19/3/23
f 21/3/26 9/2/25 20/3/24
f 9/2/25 21/3/26 10/2/27
f 22/3/30 12/2/29 13/2/28
f 12/2/29 22/3/30 23/3/31
f 21/3/26 11/2/32 10/2/27
f 11/2/32 21/3/26 24/3/33
f 13/2/28 17/3/18 22/3/30
f 17/3/18 13/2/28 14/2/20
f 20/3/24 12/2/29 23/3/31
f 12/2/29 20/3/24 9/2/25
f 24/3/33 16/2/22 11/2/32
f 16/2/22 24/3/33 19/3/23
f 27/4/34 26/4/34 25/4/34
f 26/4/34 27/4/34 28/4/34
f 26/4/34 28/4/34 29/4/34
f 29/4/34 28/4/34 30/4/34
f 29/4/34 30/4/34 31/4/34
f 31/4/34 30/4/34 32/4/34
f 35/5/1 34/5/1 33/5/1
f 34/5/1 35/5/1 36/5/1
f 34/5/1 36/5/1 37/5/1
f 37/5/1 36/5/1 38/5/1
f 37/5/1 38/5/1 39/5/1
f 39/5/1 38/5/1 40/5/1
f 27/4/35 33/5/36 34/5/35
f 33/5/36 27/4/35 25/4/36
f 29/4/37 38/5/38 36/5/37
f 38/5/38 29/4/37 31/4/38
f 40/5/39 31/4/38 32/4/39
f 31/4/38 40/5/39 38/5/38
f 28/4/40 34/5/35 37/5/40
f 34/5/35 28/4/40 27/4/35
f 26/4/41 36/5/37 35/5/41
f 36/5/37 26/4/41 29/4/37
f 30/4/42 37/5/40 39/5/42
f 37/5/40 30/4/42 28/4/40
f 26/4/41 33/5/36 25/4/36
f 33/5/36 26/4/41 35/5/41
f 40/5/39 30/4/42 39/5/42
f 30/4/42 40/5/39 32/4/39
f 43/7/43 42/6/44 41/6/43
f 42/6/44 43/7/43 44/7/44
f 47/7/45 46/6/46 45/6/45
f 46/6/46 47/7/45 48/7/46
f 50/7/47 45/6/45 49/6/47
f 45/6/45 50/7/47 47/7/45
f 48/7/46 41/6/43 46/6/46
f 41/6/43 48/7/46 43/7/43
f 52/6/48 44/7/44 51/7/48
f 44/7/44 52/6/48 42/6/44
f 52/6/48 50/7/47 49/6/47
f 50/7/47 52/6/48 51/7/48
f 41/6/1 45/6/1 46/6/1
f 45/6/1 41/6/1 42/6/1
f 45/6/1 42/6/1 49/6/1
f 49/6/1 42/6/1 52/6/1
f 55/7/51 54/8/50 53/8/49
f 54/8/50 55/7/51 56/7/52
f 59/8/55 58/7/54 57/7/53
f 58/7/54 59/8/55 60/8/56
f 63/7/59 62/8/58 61/8/57
f 62/8/58 63/7/59 64/7/60
f 64/7/60 53/8/49 62/8/58
f 53/8/49 64/7/60 55/7/51
f 64/7/60 56/7/52 55/7/51
f 56/7/52 64/7/60 58/7/54
f 58/7/54 64/7/60 63/7/59
f 58/7/54 63/7/59 57/7/53
f 59/8/55 63/7/59 61/8/57
f 63/7/59 59/8/55 57/7/53
f 54/8/1 62/8/1 53/8/1
f 62/8/1 54/8/1 60/8/1
f 62/8/1 60/8/1 61/8/1
f 61/8/1 60/8/1 59/8/1
f 56/7/52 60/8/56 54/8/50
f 60/8/56 56/7/52 58/7/54
f 67/7/61 66/9/62 65/9/61
f 66/9/62 67/7/61 68/7/62
f 70/7/63 65/9/61 69/9/63
f 65/9/61 70/7/63 67/7/61
f 68/7/62 71/9/64 66/9/62
f 71/9/64 68/7/62 72/7/64
f 72/7/64 73/9/65 71/9/64
f 73/9/65 72/7/64 74/7/65
f 71/9/1 65/9/1 66/9/1
f 65/9/1 71/9/1 69/9/1
f 69/9/1 71/9/1 73/9/1
f 69/9/1 73/9/1 75/9/1
f 76/7/66 69/9/63 75/9/66
f 69/9/63 76/7/66 70/7/63
f 73/9/65 76/7/66 75/9/66
f 76/7/66 73/9/65 74/7/65
f 79/11/69 78/11/68 77/10/67
f 78/11/68 79/11/69 41/7/69
f 78/11/68 41/7/69 42/7/68
f 77/10/72 78/11/71 79/11/70
f 41/7/70 79/11/70 78/11/71
f 42/7/71 41/7/70 78/11/71
f 81/10/74 49/7/73 80/11/73
f 49/7/73 81/10/74 52/7/75
f 52/7/75 81/10/74 82/11/75
f 80/11/77 49/7/77 81/10/76
f 52/7/78 81/10/76 49/7/77
f 82/11/78 81/10/76 52/7/78
f 82/11/75 42/7/68 52/7/75
f 42/7/68 82/11/75 83/10/79
f 42/7/68 83/10/79 78/11/68
f 52/7/78 42/7/71 82/11/78
f 83/10/80 82/11/78 42/7/71
f 78/11/71 83/10/80 42/7/71
f 46/7/81 85/10/82 84/11/81
f 85/10/82 46/7/81 41/7/69
f 85/10/82 41/7/69 79/11/69
f 84/11/83 85/10/84 46/7/83
f 41/7/70 46/7/83 85/10/84
f 79/11/70 41/7/70 85/10/84
f 80/11/73 87/11/86 86/10/85
f 87/11/86 80/11/73 49/7/73
f 87/11/86 49/7/73 45/7/86
f 86/10/88 87/11/87 80/11/77
f 49/7/77 80/11/77 87/11/87
f 45/7/87 49/7/77 87/11/87
f 45/7/86 88/10/89 87/11/86
f 88/10/89 45/7/86 46/7/81
f 88/10/89 46/7/81 84/11/81
f 87/11/87 88/10/90 45/7/87
f 46/7/83 45/7/87 88/10/90
f 84/11/83 46/7/83 88/10/90
f 91/11/93 90/11/92 89/10/91
f 90/11/92 91/11/93 75/7/93
f 90/11/92 75/7/93 69/7/92
f 89/10/96 90/11/95 91/11/94
f 75/7/94 91/11/94 90/11/95
f 69/7/95 75/7/94 90/11/95
f 65/7/97 93/10/98 92/11/97
f 93/10/98 65/7/97 66/7/99
f 93/10/98 66/7/99 94/11/99
f 92/11/100 93/10/101 65/7/100
f 66/7/102 65/7/100 93/10/101
f 94/11/102 66/7/102 93/10/101
f 97/11/105 96/11/104 95/10/103
f 96/11/104 97/11/105 71/7/105
f 96/11/104 71/7/105 73/7/104
f 95/10/108 96/11/107 97/11/106
f 71/7/106 97/11/106 96/11/107
f 73/7/107 71/7/106 96/11/107
f 98/10/109 75/7/93 91/11/93
f 75/7/93 98/10/109 73/7/104
f 73/7/104 98/10/109 96/11/104
f 91/11/94 75/7/94 98/10/110
f 73/7/107 98/10/110 75/7/94
f 96/11/107 98/10/110 73/7/107
f 94/11/99 97/11/105 99/10/111
f 97/11/105 94/11/99 66/7/99
f 97/11/105 66/7/99 71/7/105
f 99/10/112 97/11/106 94/11/102
f 66/7/102 94/11/102 97/11/106
f 71/7/106 66/7/102 97/11/106
f 90/11/92 92/11/97 100/10/113
f 92/11/97 90/11/92 69/7/92
f 92/11/97 69/7/92 65/7/97
f 100/10/114 92/11/100 90/11/95
f 69/7/95 90/11/95 92/11/100
f 65/7/100 69/7/95 92/11/100
f 102/10/115 61/7/73 101/11/73
f 61/7/73 102/10/115 59/7/75
f 59/7/75 102/10/115 103/11/75
f 101/11/77 61/7/77 102/10/116
f 59/7/78 102/10/116 61/7/77
f 103/11/78 102/10/116 59/7/78
f 103/11/75 60/7/117 59/7/75
f 60/7/117 103/11/75 104/10/118
f 60/7/117 104/10/118 105/11/68
f 59/7/78 60/7/119 103/11/78
f 104/10/120 103/11/78 60/7/119
f 105/11/71 104/10/120 60/7/119
f 62/7/86 107/10/121 106/11/86
f 107/10/121 62/7/86 53/7/122
f 107/10/121 53/7/122 108/11/122
f 106/11/87 107/10/123 62/7/87
f 53/7/124 62/7/87 107/10/123
f 108/11/124 53/7/124 107/10/123
f 110/11/69 105/11/68 109/10/67
f 105/11/68 110/11/69 54/7/69
f 105/11/68 54/7/69 60/7/117
f 109/10/72 105/11/71 110/11/70
f 54/7/70 110/11/70 105/11/71
f 60/7/119 54/7/70 105/11/71
f 101/11/73 106/11/86 111/10/125
f 106/11/86 101/11/73 61/7/73
f 106/11/86 61/7/73 62/7/86
f 111/10/126 106/11/87 101/11/77
f 61/7/77 101/11/77 106/11/87
f 62/7/87 61/7/77 106/11/87
f 53/7/122 112/10/82 108/11/122
f 112/10/82 53/7/122 54/7/69
f 112/10/82 54/7/69 110/11/69
f 108/11/124 112/10/84 53/7/124
f 54/7/70 53/7/124 112/10/84
f 110/11/70 54/7/70 112/10/84
g tree
usemtl colormap
f 3/1/1 2/1/1 1/1/1
f 2/1/1 3/1/1 4/1/1
f 4/1/1 3/1/1 5/1/1
f 4/1/1 5/1/1 6/1/1
f 6/1/1 5/1/1 7/1/1
f 6/1/1 7/1/1 8/1/1
f 9/2/4 1/1/3 2/1/2
f 1/1/3 9/2/4 10/2/5
f 11/2/6 1/1/3 10/2/5
f 1/1/3 11/2/6 3/1/7
f 12/2/9 2/1/2 4/1/8
f 2/1/2 12/2/9 9/2/4
f 13/2/11 4/1/8 6/1/10
f 4/1/8 13/2/11 12/2/9
f 7/1/14 14/2/13 8/1/12
f 14/2/13 7/1/14 15/2/15
f 11/2/6 5/1/16 3/1/7
f 5/1/16 11/2/6 16/2/17
f 8/1/12 13/2/11 6/1/10
f 13/2/11 8/1/12 14/2/13
f 7/1/14 16/2/17 15/2/15
f 16/2/17 7/1/14 5/1/16
f 14/2/20 18/3/19 17/3/18
f 18/3/19 14/2/20 15/2/21
f 16/2/22 18/3/19 15/2/21
f 18/3/19 16/2/22 19/3/23
f 21/3/26 9/2/25 20/3/24
f 9/2/25 21/3/26 10/2/27
f 22/3/30 12/2/29 13/2/28
f 12/2/29 22/3/30 23/3/31
f 21/3/26 11/2/32 10/2/27
f 11/2/32 21/3/26 24/3/33
f 13/2/28 17/3/18 22/3/30
f 17/3/18 13/2/28 14/2/20
f 20/3/24 12/2/29 23/3/31
f 12/2/29 20/3/24 9/2/25
f 24/3/33 16/2/22 11/2/32
f 16/2/22 24/3/33 19/3/23
f 27/4/34 26/4/34 25/4/34
f 26/4/34 27/4/34 28/4/34
f 26/4/34 28/4/34 29/4/34
f 29/4/34 28/4/34 30/4/34
f 29/4/34 30/4/34 31/4/34
f 31/4/34 30/4/34 32/4/34
f 35/5/1 34/5/1 33/5/1
f 34/5/1 35/5/1 36/5/1
f 34/5/1 36/5/1 37/5/1
f 37/5/1 36/5/1 38/5/1
f 37/5/1 38/5/1 39/5/1
f 39/5/1 38/5/1 40/5/1
f 27/4/35 33/5/36 34/5/35
f 33/5/36 27/4/35 25/4/36
f 29/4/37 38/5/38 36/5/37
f 38/5/38 29/4/37 31/4/38
f 40/5/39 31/4/38 32/4/39
f 31/4/38 40/5/39 38/5/38
f 28/4/40 34/5/35 37/5/40
f 34/5/35 28/4/40 27/4/35
f 26/4/41 36/5/37 35/5/41
f 36/5/37 26/4/41 29/4/37
f 30/4/42 37/5/40 39/5/42
f 37/5/40 30/4/42 28/4/40
f 26/4/41 33/5/36 25/4/36
f 33/5/36 26/4/41 35/5/41
f 40/5/39 30/4/42 39/5/42
f 30/4/42 40/5/39 32/4/39
f 43/7/43 42/6/44 41/6/43
f 42/6/44 43/7/43 44/7/44
f 47/7/45 46/6/46 45/6/45
f 46/6/46 47/7/45 48/7/46
f 50/7/47 45/6/45 49/6/47
f 45/6/45 50/7/47 47/7/45
f 48/7/46 41/6/43 46/6/46
f 41/6/43 48/7/46 43/7/43
f 52/6/48 44/7/44 51/7/48
f 44/7/44 52/6/48 42/6/44
f 52/6/48 50/7/47 49/6/47
f 50/7/47 52/6/48 51/7/48
f 41/6/1 45/6/1 46/6/1
f 45/6/1 41/6/1 42/6/1
f 45/6/1 42/6/1 49/6/1
f 49/6/1 42/6/1 52/6/1
f 55/7/51 54/8/50 53/8/49
f 54/8/50 55/7/51 56/7/52
f 59/8/55 58/7/54 57/7/53
f 58/7/54 59/8/55 60/8/56
f 63/7/59 62/8/58 61/8/57
f 62/8/58 63/7/59 64/7/60
f 64/7/60 53/8/49 62/8/58
f 53/8/49 64/7/60 55/7/51
f 64/7/60 56/7/52 55/7/51
f 56/7/52 64/7/60 58/7/54
f 58/7/54 64/7/60 63/7/59
f 58/7/54 63/7/59 57/7/53
f 59/8/55 63/7/59 61/8/57
f 63/7/59 59/8/55 57/7/53
f 54/8/1 62/8/1 53/8/1
f 62/8/1 54/8/1 60/8/1
f 62/8/1 60/8/1 61/8/1
f 61/8/1 60/8/1 59/8/1
f 56/7/52 60/8/56 54/8/50
f 60/8/56 56/7/52 58/7/54
f 67/7/61 66/9/62 65/9/61
f 66/9/62 67/7/61 68/7/62
f 70/7/63 65/9/61 69/9/63
f 65/9/61 70/7/63 67/7/61
f 68/7/62 71/9/64 66/9/62
f 71/9/64 68/7/62 72/7/64
f 72/7/64 73/9/65 71/9/64
f 73/9/65 72/7/64 74/7/65
f 71/9/1 65/9/1 66/9/1
f 65/9/1 71/9/1 69/9/1
f 69/9/1 71/9/1 73/9/1
f 69/9/1 73/9/1 75/9/1
f 76/7/66 69/9/63 75/9/66
f 69/9/63 76/7/66 70/7/63
f 73/9/65 76/7/66 75/9/66
f 76/7/66 73/9/65 74/7/65
f 79/11/69 78/11/68 77/10/67
f 78/11/68 79/11/69 41/7/69
f 78/11/68 41/7/69 42/7/68
f 77/10/72 78/11/71 79/11/70
f 41/7/70 79/11/70 78/11/71
f 42/7/71 41/7/70 78/11/71
f 81/10/74 49/7/73 80/11/73
f 49/7/73 81/10/74 52/7/75
f 52/7/75 81/10/74 82/11/75
f 80/11/77 49/7/77 81/10/76
f 52/7/78 81/10/76 49/7/77
f 82/11/78 81/10/76 52/7/78
f 82/11/75 42/7/68 52/7/75
f 42/7/68 82/11/75 83/10/79
f 42/7/68 83/10/79 78/11/68
f 52/7/78 42/7/71 82/11/78
f 83/10/80 82/11/78 42/7/71
f 78/11/71 83/10/80 42/7/71
f 46/7/81 85/10/82 84/11/81
f 85/10/82 46/7/81 41/7/69
f 85/10/82 41/7/69 79/11/69
f 84/11/83 85/10/84 46/7/83
f 41/7/70 46/7/83 85/10/84
f 79/11/70 41/7/70 85/10/84
f 80/11/73 87/11/86 86/10/85
f 87/11/86 80/11/73 49/7/73
f 87/11/86 49/7/73 45/7/86
f 86/10/88 87/11/87 80/11/77
f 49/7/77 80/11/77 87/11/87
f 45/7/87 49/7/77 87/11/87
f 45/7/86 88/10/89 87/11/86
f 88/10/89 45/7/86 46/7/81
f 88/10/89 46/7/81 84/11/81
f 87/11/87 88/10/90 45/7/87
f 46/7/83 45/7/87 88/10/90
f 84/11/83 46/7/83 88/10/90
f 91/11/93 90/11/92 89/10/91
f 90/11/92 91/11/93 75/7/93
f 90/11/92 75/7/93 69/7/92
f 89/10/96 90/11/95 91/11/94
f 75/7/94 91/11/94 90/11/95
f 69/7/95 75/7/94 90/11/95
f 65/7/97 93/10/98 92/11/97
f 93/10/98 65/7/97 66/7/99
f 93/10/98 66/7/99 94/11/99
f 92/11/100 93/10/101 65/7/100
f 66/7/102 65/7/100 93/10/101
f 94/11/102 66/7/102 93/10/101
f 97/11/105 96/11/104 95/10/103
f 96/11/104 97/11/105 71/7/105
f 96/11/104 71/7/105 73/7/104
f 95/10/108 96/11/107 97/11/106
f 71/7/106 97/11/106 96/11/107
f 73/7/107 71/7/106 96/11/107
f 98/10/109 75/7/93 91/11/93
f 75/7/93 98/10/109 73/7/104
f 73/7/104 98/10/109 96/11/104
f 91/11/94 75/7/94 98/10/110
f 73/7/107 98/10/110 75/7/94
f 96/11/107 98/10/110 73/7/107
f 94/11/99 97/11/105 99/10/111
f 97/11/105 94/11/99 66/7/99
f 97/11/105 66/7/99 71/7/105
f 99/10/112 97/11/106 94/11/102
f 66/7/102 94/11/102 97/11/106
f 71/7/106 66/7/102 97/11/106
f 90/11/92 92/11/97 100/10/113
f 92/11/97 90/11/92 69/7/92
f 92/11/97 69/7/92 65/7/97
f 100/10/114 92/11/100 90/11/95
f 69/7/95 90/11/95 92/11/100
f 65/7/100 69/7/95 92/11/100
f 102/10/115 61/7/73 101/11/73
f 61/7/73 102/10/115 59/7/75
f 59/7/75 102/10/115 103/11/75
f 101/11/77 61/7/77 102/10/116
f 59/7/78 102/10/116 61/7/77
f 103/11/78 102/10/116 59/7/78
f 103/11/75 60/7/117 59/7/75
f 60/7/117 103/11/75 104/10/118
f 60/7/117 104/10/118 105/11/68
f 59/7/78 60/7/119 103/11/78
f 104/10/120 103/11/78 60/7/119
f 105/11/71 104/10/120 60/7/119
f 62/7/86 107/10/121 106/11/86
f 107/10/121 62/7/86 53/7/122
f 107/10/121 53/7/122 108/11/122
f 106/11/87 107/10/123 62/7/87
f 53/7/124 62/7/87 107/10/123
f 108/11/124 53/7/124 107/10/123
f 110/11/69 105/11/68 109/10/67
f 105/11/68 110/11/69 54/7/69
f 105/11/68 54/7/69 60/7/117
f 109/10/72 105/11/71 110/11/70
f 54/7/70 110/11/70 105/11/71
f 60/7/119 54/7/70 105/11/71
f 101/11/73 106/11/86 111/10/125
f 106/11/86 101/11/73 61/7/73
f 106/11/86 61/7/73 62/7/86
f 111/10/126 106/11/87 101/11/77
f 61/7/77 101/11/77 106/11/87
f 62/7/87 61/7/77 106/11/87
f 53/7/122 112/10/82 108/11/122
f 112/10/82 53/7/122 54/7/69
f 112/10/82 54/7/69 110/11/69
f 108/11/124 112/10/84 53/7/124
f 54/7/70 53/7/124 112/10/84
f 110/11/70 54/7/70 112/10/84
