mtllib town_wall-door.mtl
g wall-door
v 0.5 1 -0.5
v 0.5 1 -0.4
v 0.4 1 -0.5
v 0.4 1 -0.4
v 0.5 0 -0.4
v 0.5 0 -0.5
v 0.4 0 -0.4
v 0.4 0 -0.5
v 0.5 1 0.4
v 0.5 1 0.5
v 0.4 1 0.4
v 0.4 1 0.5
v 0.5 0 0.5
v 0.5 0 0.4
v 0.4 0 0.5
v 0.4 0 0.4
v 0.5 0.76213 -0.21213
v 0.5 0.80981 -0.15
v 0.4 0.76213 -0.21213
v 0.4 0.80981 -0.15
v 0.5 0.55 0.3
v 0.4 0.55 0.3
v 0.5 0.62765 0.28978
v 0.4 0.62765 0.28978
v 0.4 0.7 -0.25981
v 0.5 0.7 -0.25981
v 0.4 0.62765 -0.28978
v 0.5 0.62765 -0.28978
v 0.4 0.55 -0.3
v 0.5 0.55 -0.3
v 0.4 0 0.3
v 0.5 7.3482e-20 0.3
v 0.5 0.85 0
v 0.5 0.83978 0.077646
v 0.4 0.85 0
v 0.4 0.83978 0.077646
v 0.5 0.83978 -0.077646
v 0.4 0.83978 -0.077646
v 0.5 7.3482e-20 0.2
v 0.4 0 0.2
v 0.5 0.7 0.25981
v 0.4 0.7 0.25981
v 0.5 0.76213 0.21213
v 0.5 0.55 0.2
v 0.5 0.60176 0.19319
v 0.5 0.65 0.1732
v 0.5 0.80981 0.15
v 0.5 0.69142 0.14142
v 0.5 0.72321 0.1
v 0.5 0.74319 0.051764
v 0.5 0.75 0
v 0.5 0.74319 -0.051764
v 0.5 0.72321 -0.1
v 0.5 0.69142 -0.14142
v 0.5 0.65 -0.17321
v 0.5 0.60176 -0.19319
v 0.5 0.55 -0.2
v 0.5 7.3482e-20 -0.2
v 0.5 7.3482e-20 -0.3
v 0.4 0.76213 0.21213
v 0.4 0.80981 0.15
v 0.4 0.55 0.2
v 0.4 0.60176 0.19319
v 0.4 0.65 -0.17321
v 0.4 0.69142 -0.14142
v 0.4 0.55 -0.2
v 0.4 0.60176 -0.19319
v 0.4 0.72321 -0.1
v 0.4 0.74319 -0.051764
v 0.4 0.72321 0.1
v 0.4 0.74319 0.051764
v 0.4 0 -0.2
v 0.4 0 -0.3
v 0.4 0.69142 0.14142
v 0.4 0.65 0.1732
v 0.4 0.75 0
v 0.475 1 -0.4
v 0.475 1 0.4
v 0.425 1 -0.4
v 0.425 1 0.4
v 0.475 9.454e-19 0.3
v 0.475 9.454e-19 0.4
v 0.475 0.55 0.3
v 0.475 0.62765 0.28978
v 0.475 0.7 0.25981
v 0.475 0.76213 0.21213
v 0.475 0.80981 0.15
v 0.475 0.83978 0.077646
v 0.475 0.85 0
v 0.475 0.83978 -0.077646
v 0.475 0.80981 -0.15
v 0.475 0.76213 -0.21213
v 0.475 0.7 -0.25981
v 0.475 0.62765 -0.28978
v 0.475 9.454e-19 -0.4
v 0.475 0.55 -0.3
v 0.475 9.454e-19 -0.3
v 0.425 0 -0.3
v 0.425 0 -0.4
v 0.425 0 0.4
v 0.425 0 0.3
v 0.425 0.55 0.3
v 0.425 0.62765 0.28978
v 0.425 0.7 0.25981
v 0.425 0.76213 0.21213
v 0.425 0.80981 0.15
v 0.425 0.83978 0.077646
v 0.425 0.85 0
v 0.425 0.83978 -0.077646
v 0.425 0.80981 -0.15
v 0.425 0.76213 -0.21213
v 0.425 0.7 -0.25981
v 0.425 0.62765 -0.28978
v 0.425 0.55 -0.3
vn 0 1 0
vn 0 -1 0
vn 0 0 -1
vn -1 0 0
vn 0 0 1
vn 1 0 0
vn 0 0.70711 -0.70711
vn 0 0.86603 -0.5
vn 0 0.065403 0.99786
vn 0 0.25882 0.96593
vn 0 0.5 -0.86603
vn 0 0.25882 -0.96593
vn 0 0.065403 -0.99786
vn 0 0.96593 0.25882
vn 0 0.96593 -0.25882
vn 0 0.5 0.86603
vn 0 0.70711 0.70711
vn 0 0.86603 0.5
vn 0 -0.065403 -0.99786
vn 0 -0.25882 -0.96593
vn 0 -0.5 0.86603
vn 0 -0.70711 0.70711
vn 0 -0.065403 0.99786
vn 0 -0.25882 0.96593
vn 0 -0.86603 0.5
vn 0 -0.96593 0.25882
vn 0 -0.86603 -0.5
vn 0 -0.96593 -0.25882
vn 0 -0.70711 -0.70711
vn 0 -0.5 -0.86603
vt 0.59375 0.175
vt 0.59375 0.075
vt 0.59375 0.16466
vt 0.59375 0.17027
vt 0.59375 0.13971
vt 0.59375 0.14884
vt 0.59375 0.15735
vt 0.59375 0.1738
vt 0.59375 0.1458
vt 0.59375 0.15147
vt 0.59375 0.15634
vt 0.59375 0.16008
vt 0.59375 0.16243
vt 0.59375 0.16324
vt 0.21875 0.425
vt 0.21875 0.325
vt 0.21875 0.38
vt 0.21875 0.38776
vt 0.21875 0.395
vt 0.21875 0.40121
vt 0.21875 0.40598
vt 0.21875 0.40898
vt 0.21875 0.41
usemtl colormap
f 3/1/1 2/1/1 1/1/1
f 2/1/1 3/1/1 4/1/1
f 7/2/2 6/2/2 5/2/2
f 6/2/2 7/2/2 8/2/2
f 3/1/3 6/2/3 8/2/3
f 6/2/3 3/1/3 1/1/3
f 7/2/4 3/1/4 8/2/4
f 3/1/4 7/2/4 4/1/4
f 2/1/5 7/2/5 5/2/5
f 7/2/5 2/1/5 4/1/5
f 2/1/6 6/2/6 1/1/6
f 6/2/6 2/1/6 5/2/6
f 11/1/1 10/1/1 9/1/1
f 10/1/1 11/1/1 12/1/1
f 15/2/2 14/2/2 13/2/2
f 14/2/2 15/2/2 16/2/2
f 11/1/3 14/2/3 16/2/3
f 14/2/3 11/1/3 9/1/3
f 15/2/4 11/1/4 16/2/4
f 11/1/4 15/2/4 12/1/4
f 10/1/5 15/2/5 13/2/5
f 15/2/5 10/1/5 12/1/5
f 10/1/6 14/2/6 9/1/6
f 14/2/6 10/1/6 13/2/6
f 19/3/7 18/4/8 17/3/7
f 18/4/8 19/3/7 20/4/8
f 23/6/10 22/5/9 21/5/9
f 22/5/9 23/6/10 24/6/10
f 19/3/7 26/7/11 25/7/11
f 26/7/11 19/3/7 17/3/7
f 25/7/11 28/6/12 27/6/12
f 28/6/12 25/7/11 26/7/11
f 27/6/12 30/5/13 29/5/13
f 30/5/13 27/6/12 28/6/12
f 32/2/5 22/5/9 31/2/5
f 22/5/9 32/2/5 21/5/9
f 35/1/1 34/8/14 33/1/1
f 34/8/14 35/1/1 36/8/14
f 20/4/8 37/8/15 18/4/8
f 37/8/15 20/4/8 38/8/15
f 31/2/2 39/2/2 32/2/2
f 39/2/2 31/2/2 40/2/2
f 41/7/16 24/6/10 23/6/10
f 24/6/10 41/7/16 42/7/16
f 32/2/6 23/6/6 21/5/6
f 32/2/6 41/7/6 23/6/6
f 32/2/6 43/3/6 41/7/6
f 39/2/6 43/3/6 32/2/6
f 44/5/6 43/3/6 39/2/6
f 45/9/6 43/3/6 44/5/6
f 46/10/6 43/3/6 45/9/6
f 46/10/6 47/4/6 43/3/6
f 48/11/6 47/4/6 46/10/6
f 49/12/6 47/4/6 48/11/6
f 49/12/6 34/8/6 47/4/6
f 50/13/6 34/8/6 49/12/6
f 51/14/6 34/8/6 50/13/6
f 51/14/6 33/1/6 34/8/6
f 52/13/6 33/1/6 51/14/6
f 52/13/6 37/8/6 33/1/6
f 53/12/6 37/8/6 52/13/6
f 54/11/6 37/8/6 53/12/6
f 54/11/6 18/4/6 37/8/6
f 55/10/6 18/4/6 54/11/6
f 56/9/6 18/4/6 55/10/6
f 56/9/6 17/3/6 18/4/6
f 17/3/6 56/9/6 57/5/6
f 58/2/6 17/3/6 57/5/6
f 58/2/6 26/7/6 17/3/6
f 58/2/6 28/6/6 26/7/6
f 59/2/6 28/6/6 58/2/6
f 28/6/6 59/2/6 30/5/6
f 43/3/17 42/7/16 41/7/16
f 42/7/16 43/3/17 60/3/17
f 61/4/18 43/3/17 47/4/18
f 43/3/17 61/4/18 60/3/17
f 62/5/19 39/2/3 40/2/3
f 39/2/3 62/5/19 44/5/19
f 38/8/15 33/1/1 37/8/15
f 33/1/1 38/8/15 35/1/1
f 36/8/14 47/4/18 34/8/14
f 47/4/18 36/8/14 61/4/18
f 63/9/20 44/5/19 62/5/19
f 44/5/19 63/9/20 45/9/20
f 54/11/22 64/10/21 55/10/21
f 64/10/21 54/11/22 65/11/22
f 56/9/24 66/5/23 57/5/23
f 66/5/23 56/9/24 67/9/24
f 68/12/25 54/11/22 53/12/25
f 54/11/22 68/12/25 65/11/22
f 69/13/26 53/12/25 52/13/26
f 53/12/25 69/13/26 68/12/25
f 70/12/27 50/13/28 49/12/27
f 50/13/28 70/12/27 71/13/28
f 72/2/2 59/2/2 58/2/2
f 59/2/2 72/2/2 73/2/2
f 74/11/29 49/12/27 48/11/29
f 49/12/27 74/11/29 70/12/27
f 74/11/29 46/10/30 75/10/30
f 46/10/30 74/11/29 48/11/29
f 75/10/30 45/9/20 63/9/20
f 45/9/20 75/10/30 46/10/30
f 29/5/13 59/2/3 73/2/3
f 59/2/3 29/5/13 30/5/13
f 58/2/5 66/5/23 72/2/5
f 66/5/23 58/2/5 57/5/23
f 71/13/28 51/14/2 50/13/28
f 51/14/2 71/13/28 76/14/2
f 55/10/21 67/9/24 56/9/24
f 67/9/24 55/10/21 64/10/21
f 76/14/2 52/13/26 51/14/2
f 52/13/26 76/14/2 69/13/26
f 31/2/4 62/5/4 40/2/4
f 62/5/4 31/2/4 60/3/4
f 60/3/4 63/9/4 62/5/4
f 60/3/4 75/10/4 63/9/4
f 60/3/4 31/2/4 42/7/4
f 42/7/4 31/2/4 24/6/4
f 24/6/4 31/2/4 22/5/4
f 61/4/4 75/10/4 60/3/4
f 61/4/4 74/11/4 75/10/4
f 61/4/4 70/12/4 74/11/4
f 36/8/4 70/12/4 61/4/4
f 36/8/4 71/13/4 70/12/4
f 35/1/4 71/13/4 36/8/4
f 35/1/4 76/14/4 71/13/4
f 35/1/4 69/13/4 76/14/4
f 38/8/4 69/13/4 35/1/4
f 38/8/4 68/12/4 69/13/4
f 38/8/4 65/11/4 68/12/4
f 20/4/4 65/11/4 38/8/4
f 20/4/4 64/10/4 65/11/4
f 20/4/4 67/9/4 64/10/4
f 19/3/4 67/9/4 20/4/4
f 19/3/4 66/5/4 67/9/4
f 19/3/4 72/2/4 66/5/4
f 25/7/4 72/2/4 19/3/4
f 27/6/4 72/2/4 25/7/4
f 29/5/4 72/2/4 27/6/4
f 72/2/4 29/5/4 73/2/4
f 79/15/1 78/15/1 77/15/1
f 78/15/1 79/15/1 80/15/1
f 83/17/6 82/16/6 81/16/6
f 82/16/6 83/17/6 78/15/6
f 84/18/6 78/15/6 83/17/6
f 85/19/6 78/15/6 84/18/6
f 86/20/6 78/15/6 85/19/6
f 87/21/6 78/15/6 86/20/6
f 88/22/6 78/15/6 87/21/6
f 89/23/6 78/15/6 88/22/6
f 90/22/6 78/15/6 89/23/6
f 90/22/6 77/15/6 78/15/6
f 91/21/6 77/15/6 90/22/6
f 92/20/6 77/15/6 91/21/6
f 93/19/6 77/15/6 92/20/6
f 94/18/6 77/15/6 93/19/6
f 77/15/6 94/18/6 95/16/6
f 95/16/6 94/18/6 96/17/6
f 97/16/6 95/16/6 96/17/6
f 98/16/2 95/16/2 97/16/2
f 95/16/2 98/16/2 99/16/2
f 100/16/2 81/16/2 82/16/2
f 81/16/2 100/16/2 101/16/2
f 100/16/4 102/17/4 101/16/4
f 80/15/4 102/17/4 100/16/4
f 80/15/4 103/18/4 102/17/4
f 80/15/4 104/19/4 103/18/4
f 80/15/4 105/20/4 104/19/4
f 80/15/4 106/21/4 105/20/4
f 80/15/4 107/22/4 106/21/4
f 80/15/4 108/23/4 107/22/4
f 80/15/4 109/22/4 108/23/4
f 79/15/4 109/22/4 80/15/4
f 79/15/4 110/21/4 109/22/4
f 79/15/4 111/20/4 110/21/4
f 79/15/4 112/19/4 111/20/4
f 79/15/4 113/18/4 112/19/4
f 79/15/4 114/17/4 113/18/4
f 79/15/4 98/16/4 114/17/4
f 98/16/4 79/15/4 99/16/4
g wall-door
usemtl colormap
f 3/1/1 2/1/1 1/1/1
f 2/1/1 3/1/1 4/1/1
f 7/2/2 6/2/2 5/2/2
f 6/2/2 7/2/2 8/2/2
f 3/1/3 6/2/3 8/2/3
f 6/2/3 3/1/3 1/1/3
f 7/2/4 3/1/4 8/2/4
f 3/1/4 7/2/4 4/1/4
f 2/1/5 7/2/5 5/2/5
f 7/2/5 2/1/5 4/1/5
f 2/1/6 6/2/6 1/1/6
f 6/2/6 2/1/6 5/2/6
f 11/1/1 10/1/1 9/1/1
f 10/1/1 11/1/1 12/1/1
f 15/2/2 14/2/2 13/2/2
f 14/2/2 15/2/2 16/2/2
f 11/1/3 14/2/3 16/2/3
f 14/2/3 11/1/3 9/1/3
f 15/2/4 11/1/4 16/2/4
f 11/1/4 15/2/4 12/1/4
f 10/1/5 15/2/5 13/2/5
f 15/2/5 10/1/5 12/1/5
f 10/1/6 14/2/6 9/1/6
f 14/2/6 10/1/6 13/2/6
f 19/3/7 18/4/8 17/3/7
f 18/4/8 19/3/7 20/4/8
f 23/6/10 22/5/9 21/5/9
f 22/5/9 23/6/10 24/6/10
f 19/3/7 26/7/11 25/7/11
f 26/7/11 19/3/7 17/3/7
f 25/7/11 28/6/12 27/6/12
f 28/6/12 25/7/11 26/7/11
f 27/6/12 30/5/13 29/5/13
f 30/5/13 27/6/12 28/6/12
f 32/2/5 22/5/9 31/2/5
f 22/5/9 32/2/5 21/5/9
f 35/1/1 34/8/14 33/1/1
f 34/8/14 35/1/1 36/8/14
f 20/4/8 37/8/15 18/4/8
f 37/8/15 20/4/8 38/8/15
f 31/2/2 39/2/2 32/2/2
f 39/2/2 31/2/2 40/2/2
f 41/7/16 24/6/10 23/6/10
f 24/6/10 41/7/16 42/7/16
f 32/2/6 23/6/6 21/5/6
f 32/2/6 41/7/6 23/6/6
f 32/2/6 43/3/6 41/7/6
f 39/2/6 43/3/6 32/2/6
f 44/5/6 43/3/6 39/2/6
f 45/9/6 43/3/6 44/5/6
f 46/10/6 43/3/6 45/9/6
f 46/10/6 47/4/6 43/3/6
f 48/11/6 47/4/6 46/10/6
f 49/12/6 47/4/6 48/11/6
f 49/12/6 34/8/6 47/4/6
f 50/13/6 34/8/6 49/12/6
f 51/14/6 34/8/6 50/13/6
f 51/14/6 33/1/6 34/8/6
f 52/13/6 33/1/6 51/14/6
f 52/13/6 37/8/6 33/1/6
f 53/12/6 37/8/6 52/13/6
f 54/11/6 37/8/6 53/12/6
f 54/11/6 18/4/6 37/8/6
f 55/10/6 18/4/6 54/11/6
f 56/9/6 18/4/6 55/10/6
f 56/9/6 17/3/6 18/4/6
f 17/3/6 56/9/6 57/5/6
f 58/2/6 17/3/6 57/5/6
f 58/2/6 26/7/6 17/3/6
f 58/2/6 28/6/6 26/7/6
f 59/2/6 28/6/6 58/2/6
f 28/6/6 59/2/6 30/5/6
f 43/3/17 42/7/16 41/7/16
f 42/7/16 43/3/17 60/3/17
f 61/4/18 43/3/17 47/4/18
f 43/3/17 61/4/18 60/3/17
f 62/5/19 39/2/3 40/2/3
f 39/2/3 62/5/19 44/5/19
f 38/8/15 33/1/1 37/8/15
f 33/1/1 38/8/15 35/1/1
f 36/8/14 47/4/18 34/8/14
f 47/4/18 36/8/14 61/4/18
f 63/9/20 44/5/19 62/5/19
f 44/5/19 63/9/20 45/9/20
f 54/11/22 64/10/21 55/10/21
f 64/10/21 54/11/22 65/11/22
f 56/9/24 66/5/23 57/5/23
f 66/5/23 56/9/24 67/9/24
f 68/12/25 54/11/22 53/12/25
f 54/11/22 68/12/25 65/11/22
f 69/13/26 53/12/25 52/13/26
f 53/12/25 69/13/26 68/12/25
f 70/12/27 50/13/28 49/12/27
f 50/13/28 70/12/27 71/13/28
f 72/2/2 59/2/2 58/2/2
f 59/2/2 72/2/2 73/2/2
f 74/11/29 49/12/27 48/11/29
f 49/12/27 74/11/29 70/12/27
f 74/11/29 46/10/30 75/10/30
f 46/10/30 74/11/29 48/11/29
f 75/10/30 45/9/20 63/9/20
f 45/9/20 75/10/30 46/10/30
f 29/5/13 59/2/3 73/2/3
f 59/2/3 29/5/13 30/5/13
f 58/2/5 66/5/23 72/2/5
f 66/5/23 58/2/5 57/5/23
f 71/13/28 51/14/2 50/13/28
f 51/14/2 71/13/28 76/14/2
f 55/10/21 67/9/24 56/9/24
f 67/9/24 55/10/21 64/10/21
f 76/14/2 52/13/26 51/14/2
f 52/13/26 76/14/2 69/13/26
f 31/2/4 62/5/4 40/2/4
f 62/5/4 31/2/4 60/3/4
f 60/3/4 63/9/4 62/5/4
f 60/3/4 75/10/4 63/9/4
f 60/3/4 31/2/4 42/7/4
f 42/7/4 31/2/4 24/6/4
f 24/6/4 31/2/4 22/5/4
f 61/4/4 75/10/4 60/3/4
f 61/4/4 74/11/4 75/10/4
f 61/4/4 70/12/4 74/11/4
f 36/8/4 70/12/4 61/4/4
f 36/8/4 71/13/4 70/12/4
f 35/1/4 71/13/4 36/8/4
f 35/1/4 76/14/4 71/13/4
f 35/1/4 69/13/4 76/14/4
f 38/8/4 69/13/4 35/1/4
f 38/8/4 68/12/4 69/13/4
f 38/8/4 65/11/4 68/12/4
f 20/4/4 65/11/4 38/8/4
f 20/4/4 64/10/4 65/11/4
f 20/4/4 67/9/4 64/10/4
f 19/3/4 67/9/4 20/4/4
f 19/3/4 66/5/4 67/9/4
f 19/3/4 72/2/4 66/5/4
f 25/7/4 72/2/4 19/3/4
f 27/6/4 72/2/4 25/7/4
f 29/5/4 72/2/4 27/6/4
f 72/2/4 29/5/4 73/2/4
f 79/15/1 78/15/1 77/15/1
f 78/15/1 79/15/1 80/15/1
f 83/17/6 82/16/6 81/16/6
f 82/16/6 83/17/6 78/15/6
f 84/18/6 78/15/6 83/17/6
f 85/19/6 78/15/6 84/18/6
f 86/20/6 78/15/6 85/19/6
f 87/21/6 78/15/6 86/20/6
f 88/22/6 78/15/6 87/21/6
f 89/23/6 78/15/6 88/22/6
f 90/22/6 78/15/6 89/23/6
f 90/22/6 77/15/6 78/15/6
f 91/21/6 77/15/6 90/22/6
f 92/20/6 77/15/6 91/21/6
f 93/19/6 77/15/6 92/20/6
f 94/18/6 77/15/6 93/19/6
f 77/15/6 94/18/6 95/16/6
f 95/16/6 94/18/6 96/17/6
f 97/16/6 95/16/6 96/17/6
f 98/16/2 95/16/2 97/16/2
f 95/16/2 98/16/2 99/16/2
f 100/16/2 81/16/2 82/16/2
f 81/16/2 100/16/2 101/16/2
f 100/16/4 102/17/4 101/16/4
f 80/15/4 102/17/4 100/16/4
f 80/15/4 103/18/4 102/17/4
f 80/15/4 104/19/4 103/18/4
f 80/15/4 105/20/4 104/19/4
f 80/15/4 106/21/4 105/20/4
f 80/15/4 107/22/4 106/21/4
f 80/15/4 108/23/4 107/22/4
f 80/15/4 109/22/4 108/23/4
f 79/15/4 109/22/4 80/15/4
f 79/15/4 110/21/4 109/22/4
f 79/15/4 111/20/4 110/21/4
f 79/15/4 112/19/4 111/20/4
f 79/15/4 113/18/4 112/19/4
f 79/15/4 114/17/4 113/18/4
f 79/15/4 98/16/4 114/17/4
f 98/16/4 79/15/4 99/16/4
g door
v 0.475 0.54668 -0.14942
v 0.475 0.050585 -0.14942
v 0.475 0.58856 -0.1439
v 0.475 0.10048 -0.09952
v 0.475 0.62449 -0.12902
v 0.475 0.050585 0.14942
v 0.475 0.65534 -0.10534
v 0.475 0.10048 0.09952
v 0.475 0.44126 0.09952
v 0.475 0.54341 -0.09952
v 0.475 0.57553 -0.095291
v 0.475 0.49115 -0.09952
v 0.475 0.44126 -0.09952
v 0.475 0.67902 -0.07449
v 0.475 0.59933 -0.085436
v 0.475 0.61976 -0.069758
v 0.475 0.49115 0.09952
v 0.475 0.6939 -0.038559
v 0.475 0.63544 -0.049327
v 0.475 0.64529 -0.025533
v 0.475 0.69898 -1.9372e-07
v 0.475 0.64865 -1.9372e-07
v 0.475 0.6939 0.038558
v 0.475 0.64529 0.025533
v 0.475 0.63544 0.049326
v 0.475 0.67902 0.074489
v 0.475 0.61976 0.069758
v 0.475 0.59933 0.085436
v 0.475 0.65534 0.10534
v 0.475 0.57553 0.095291
v 0.475 0.54341 0.09952
v 0.475 0.62449 0.12902
v 0.475 0.58856 0.1439
v 0.475 0.54668 0.14942
v 0.425 0.54668 0.14942
v 0.425 0.050585 0.14942
v 0.425 0.58856 0.1439
v 0.425 0.62449 0.12902
v 0.425 0.65534 0.10534
v 0.425 0.54341 0.09952
v 0.425 0.57553 0.095291
v 0.425 0.59933 0.085436
v 0.425 0.67902 0.074489
v 0.425 0.61976 0.069758
v 0.425 0.63544 0.049326
v 0.425 0.6939 0.038558
v 0.425 0.64529 0.025533
v 0.425 0.69898 -1.9372e-07
v 0.425 0.64865 -1.9372e-07
v 0.425 0.64529 -0.025533
v 0.425 0.6939 -0.038559
v 0.425 0.63544 -0.049327
v 0.425 0.61976 -0.069758
v 0.425 0.67902 -0.07449
v 0.425 0.59933 -0.085436
v 0.425 0.57553 -0.095291
v 0.425 0.65534 -0.10534
v 0.425 0.54341 -0.09952
v 0.425 0.10048 -0.09952
v 0.425 0.62449 -0.12902
v 0.425 0.58856 -0.1439
v 0.425 0.54668 -0.14942
v 0.425 0.050585 -0.14942
v 0.425 0.44126 -0.09952
v 0.425 0.49115 -0.09952
v 0.425 0.10048 0.09952
v 0.425 0.44126 0.09952
v 0.425 0.49115 0.09952
v 0.425 0.27087 -1.9372e-07
v 0.475 0.27087 -1.9372e-07
v 0.425 0.55 0.2
v 0.425 3.6741e-20 0.2
v 0.425 0.60176 0.19318
v 0.425 0.65 0.1732
v 0.425 0.69142 0.14142
v 0.425 0.62449 0.12902
v 0.425 0.72321 0.1
v 0.425 0.74319 0.051764
v 0.425 0.6939 0.038558
v 0.425 0.75 -1.9372e-07
v 0.425 0.6939 -0.038559
v 0.425 0.74319 -0.051764
v 0.425 3.6741e-20 -0.2
v 0.425 0.72321 -0.1
v 0.425 0.62449 -0.12902
v 0.425 0.55 -0.2
v 0.425 0.60176 -0.19319
v 0.425 0.65 -0.17321
v 0.425 0.69142 -0.14142
v 0.475 3.6741e-20 0.2
v 0.475 3.6741e-20 -0.2
v 0.475 0.55 0.2
v 0.475 0.60176 0.19318
v 0.475 0.60176 -0.19319
v 0.475 0.65 -0.17321
v 0.475 0.55 -0.2
v 0.475 0.69142 -0.14142
v 0.475 0.62449 -0.12902
v 0.475 0.72321 -0.1
v 0.475 0.74319 -0.051764
v 0.475 0.6939 -0.038559
v 0.475 0.75 -1.9372e-07
v 0.475 0.74319 0.051764
v 0.475 0.6939 0.038558
v 0.475 0.72321 0.1
v 0.475 0.69142 0.14142
v 0.475 0.62449 0.12902
v 0.475 0.65 0.1732
v 0.475 0.49115 -0.09952
v 0.475 0.57553 -0.095291
v 0.475 0.49115 0.09952
v 0.475 0.59933 -0.085436
v 0.475 0.61976 -0.069758
v 0.475 0.61976 0.069758
v 0.475 0.59933 0.085436
v 0.475 0.57553 0.095291
v 0.425 0.49115 -0.09952
v 0.425 0.49115 0.09952
v 0.425 0.57553 -0.095291
v 0.425 0.59933 -0.085436
v 0.425 0.61976 -0.069758
v 0.425 0.61976 0.069758
v 0.425 0.59933 0.085436
v 0.425 0.57553 0.095291
vt 0.71875 0.17802
vt 0.71875 0.025
vt 0.71875 0.19094
vt 0.71875 0.04039
vt 0.71875 0.20202
vt 0.71875 0.21154
vt 0.71875 0.1455
vt 0.71875 0.17702
vt 0.71875 0.18692
vt 0.71875 0.1609
vt 0.71875 0.21884
vt 0.71875 0.19426
vt 0.71875 0.20056
vt 0.71875 0.22343
vt 0.71875 0.2054
vt 0.71875 0.20844
vt 0.71875 0.225
vt 0.71875 0.20948
vt 0.21875 0.375
vt 0.21875 0.475
vt 0.21875 0.275
vt 0.59375 0.15572
vt 0.59375 0.19207
vt 0.59375 0.17389
vt 0.59375 0.20367
vt 0.59375 0.145
vt 0.59375 0.20919
vt 0.59375 0.21433
vt 0.59375 0.20331
vt 0.59375 0.20778
vt 0.59375 0.1504
vt 0.59375 0.21875
vt 0.59375 0.21161
vt 0.59375 0.2149
vt 0.59375 0.22214
vt 0.59375 0.21743
vt 0.59375 0.22427
vt 0.59375 0.21902
vt 0.59375 0.225
vt 0.59375 0.21956
vt 0.59375 0.20296
vt 0.59375 0.19739
vt 0.59375 0.20639
vt 0.59375 0.20893
vt 0.59375 0.21111
vt 0.59375 0.21278
vt 0.59375 0.21383
vt 0.59375 0.21419
usemtl colormap
f 117/26/6 116/25/6 115/24/6
f 116/25/6 117/26/6 118/27/6
f 118/27/6 117/26/6 119/28/6
f 116/25/6 118/27/6 120/25/6
f 118/27/6 119/28/6 121/29/6
f 120/25/6 118/27/6 122/27/6
f 120/25/6 122/27/6 123/30/6
f 118/27/6 121/29/6 124/31/6
f 121/29/6 125/32/6 124/31/6
f 118/27/6 124/31/6 126/33/6
f 118/27/6 126/33/6 127/30/6
f 125/32/6 121/29/6 128/34/6
f 125/32/6 128/34/6 129/35/6
f 129/35/6 128/34/6 130/36/6
f 131/33/6 127/30/6 126/33/6
f 127/30/6 131/33/6 123/30/6
f 130/36/6 128/34/6 132/37/6
f 130/36/6 132/37/6 133/38/6
f 133/38/6 132/37/6 134/39/6
f 134/39/6 132/37/6 135/40/6
f 134/39/6 135/40/6 136/41/6
f 136/41/6 135/40/6 137/37/6
f 136/41/6 137/37/6 138/39/6
f 138/39/6 137/37/6 139/38/6
f 139/38/6 137/37/6 140/34/6
f 139/38/6 140/34/6 141/36/6
f 141/36/6 140/34/6 142/35/6
f 142/35/6 140/34/6 143/29/6
f 142/35/6 143/29/6 144/32/6
f 144/32/6 143/29/6 145/31/6
f 145/31/6 143/29/6 131/33/6
f 131/33/6 143/29/6 123/30/6
f 120/25/6 123/30/6 143/29/6
f 120/25/6 143/29/6 146/28/6
f 120/25/6 146/28/6 147/26/6
f 120/25/6 147/26/6 148/24/6
f 151/26/4 150/25/4 149/24/4
f 152/28/4 150/25/4 151/26/4
f 153/29/4 150/25/4 152/28/4
f 154/31/4 150/25/4 153/29/4
f 153/29/4 155/32/4 154/31/4
f 153/29/4 156/35/4 155/32/4
f 157/34/4 156/35/4 153/29/4
f 157/34/4 158/36/4 156/35/4
f 157/34/4 159/38/4 158/36/4
f 160/37/4 159/38/4 157/34/4
f 160/37/4 161/39/4 159/38/4
f 162/40/4 161/39/4 160/37/4
f 162/40/4 163/41/4 161/39/4
f 162/40/4 164/39/4 163/41/4
f 165/37/4 164/39/4 162/40/4
f 165/37/4 166/38/4 164/39/4
f 165/37/4 167/36/4 166/38/4
f 168/34/4 167/36/4 165/37/4
f 168/34/4 169/35/4 167/36/4
f 168/34/4 170/32/4 169/35/4
f 171/29/4 170/32/4 168/34/4
f 170/32/4 171/29/4 172/31/4
f 172/31/4 171/29/4 173/27/4
f 174/28/4 173/27/4 171/29/4
f 175/26/4 173/27/4 174/28/4
f 176/24/4 173/27/4 175/26/4
f 177/25/4 173/27/4 176/24/4
f 173/27/4 177/25/4 150/25/4
f 172/31/4 173/27/4 178/30/4
f 172/31/4 178/30/4 179/33/4
f 173/27/4 150/25/4 180/27/4
f 181/30/4 179/33/4 178/30/4
f 180/27/4 150/25/4 181/30/4
f 179/33/4 181/30/4 182/33/4
f 181/30/4 150/25/4 182/33/4
f 182/33/4 150/25/4 154/31/4
f 181/43/4 178/43/4 183/42/4
f 180/44/4 183/42/4 173/44/4
f 122/44/6 118/44/6 184/42/6
f 123/43/6 184/42/6 127/43/6
f 183/47/4 178/46/4 173/45/4
f 181/46/4 183/47/4 180/45/4
f 184/47/6 118/45/6 127/46/6
f 123/46/6 122/45/6 184/47/6
f 187/50/4 186/49/4 185/48/4
f 188/51/4 186/49/4 187/50/4
f 149/52/4 186/49/4 188/51/4
f 188/51/4 151/53/4 149/52/4
f 150/54/4 186/49/4 149/52/4
f 189/55/4 151/53/4 188/51/4
f 189/55/4 190/56/4 151/53/4
f 189/55/4 153/57/4 190/56/4
f 191/58/4 153/57/4 189/55/4
f 191/58/4 157/59/4 153/57/4
f 192/60/4 157/59/4 191/58/4
f 192/60/4 193/61/4 157/59/4
f 177/54/4 186/49/4 150/54/4
f 194/62/4 193/61/4 192/60/4
f 194/62/4 162/63/4 193/61/4
f 194/62/4 195/61/4 162/63/4
f 196/60/4 195/61/4 194/62/4
f 196/60/4 168/59/4 195/61/4
f 177/54/4 197/49/4 186/49/4
f 198/58/4 168/59/4 196/60/4
f 198/58/4 171/57/4 168/59/4
f 198/58/4 199/56/4 171/57/4
f 197/49/4 177/54/4 200/48/4
f 200/48/4 177/54/4 201/50/4
f 201/50/4 177/54/4 202/51/4
f 176/52/4 202/51/4 177/54/4
f 203/55/4 199/56/4 198/58/4
f 202/51/4 176/52/4 203/55/4
f 203/55/4 175/53/4 199/56/4
f 203/55/4 176/52/4 175/53/4
f 186/49/2 205/49/2 204/49/2
f 205/49/2 186/49/2 197/49/2
f 206/48/9 186/49/5 204/49/5
f 186/49/5 206/48/9 185/48/9
f 207/50/10 185/48/9 206/48/9
f 185/48/9 207/50/10 187/50/10
f 202/51/11 208/50/12 201/50/12
f 208/50/12 202/51/11 209/51/11
f 208/50/6 205/49/6 210/48/6
f 205/49/6 208/50/6 116/54/6
f 116/54/6 208/50/6 209/51/6
f 205/49/6 116/54/6 204/49/6
f 116/54/6 209/51/6 115/52/6
f 211/55/6 115/52/6 209/51/6
f 115/52/6 211/55/6 117/53/6
f 117/53/6 211/55/6 212/56/6
f 212/56/6 211/55/6 213/58/6
f 212/56/6 213/58/6 121/57/6
f 121/57/6 213/58/6 128/59/6
f 128/59/6 213/58/6 214/60/6
f 128/59/6 214/60/6 215/61/6
f 215/61/6 214/60/6 216/62/6
f 215/61/6 216/62/6 135/63/6
f 135/63/6 216/62/6 217/60/6
f 135/63/6 217/60/6 218/61/6
f 218/61/6 217/60/6 140/59/6
f 140/59/6 217/60/6 219/58/6
f 140/59/6 219/58/6 143/57/6
f 143/57/6 219/58/6 220/55/6
f 143/57/6 220/55/6 221/56/6
f 221/56/6 220/55/6 147/53/6
f 147/53/6 220/55/6 222/51/6
f 147/53/6 222/51/6 148/52/6
f 148/52/6 222/51/6 120/54/6
f 204/49/6 120/54/6 222/51/6
f 204/49/6 116/54/6 120/54/6
f 204/49/6 222/51/6 207/50/6
f 204/49/6 207/50/6 206/48/6
f 201/50/12 210/48/13 200/48/13
f 210/48/13 201/50/12 208/50/12
f 203/55/7 209/51/11 202/51/11
f 209/51/11 203/55/7 211/55/7
f 200/48/13 205/49/3 197/49/3
f 205/49/3 200/48/13 210/48/13
f 224/66/6 223/65/6 124/64/6
f 223/65/6 224/66/6 225/65/6
f 225/65/6 224/66/6 226/67/6
f 225/65/6 226/67/6 227/68/6
f 225/65/6 227/68/6 133/69/6
f 225/65/6 133/69/6 134/70/6
f 225/65/6 134/70/6 136/71/6
f 225/65/6 136/71/6 138/70/6
f 225/65/6 138/70/6 139/69/6
f 225/65/6 139/69/6 228/68/6
f 225/65/6 228/68/6 229/67/6
f 225/65/6 229/67/6 230/66/6
f 225/65/6 230/66/6 145/64/6
f 194/62/1 217/60/14 216/62/1
f 217/60/14 194/62/1 192/60/14
f 220/55/17 188/51/16 222/51/16
f 188/51/16 220/55/17 189/55/17
f 196/60/15 216/62/1 214/60/15
f 216/62/1 196/60/15 194/62/1
f 203/55/7 213/58/8 211/55/7
f 213/58/8 203/55/7 198/58/8
f 222/51/16 187/50/10 207/50/10
f 187/50/10 222/51/16 188/51/16
f 232/65/4 172/64/4 231/65/4
f 172/64/4 232/65/4 233/66/4
f 233/66/4 232/65/4 234/67/4
f 234/67/4 232/65/4 235/68/4
f 235/68/4 232/65/4 166/69/4
f 166/69/4 232/65/4 164/70/4
f 164/70/4 232/65/4 163/71/4
f 163/71/4 232/65/4 161/70/4
f 161/70/4 232/65/4 159/69/4
f 159/69/4 232/65/4 236/68/4
f 236/68/4 232/65/4 237/67/4
f 237/67/4 232/65/4 238/66/4
f 238/66/4 232/65/4 154/64/4
f 191/58/18 220/55/17 219/58/18
f 220/55/17 191/58/18 189/55/17
f 198/58/8 214/60/15 213/58/8
f 214/60/15 198/58/8 196/60/15
f 192/60/14 219/58/18 217/60/14
f 219/58/18 192/60/14 191/58/18
