mtllib town_hedge-large-curved.mtl
g hedge-large-curved
v -0.5 0 -0.5
v -0.5 0.15 -0.5
v -0.5 0 -0.1
v -0.5 0.2 -0.45
v -0.5 0.2 -0.15
v -0.5 0.15 -0.1
v 8.6629e-15 0.2 -0.45
v 1.4438e-15 0.15 -0.5
v 1.4438e-15 0 -0.5
v 5.6309e-14 0.15 -0.1
v 5.1978e-14 0.2 -0.15
v 5.9197e-14 0 -0.1
v 0.13858 0.2 -0.057403
v 0.092388 0.15 -0.038268
v 0.10607 0.2 -0.10607
v 0.070711 0.15 -0.070711
v 0.19134 0.15 -0.46194
v 0.17221 0.2 -0.41575
v 0.46194 0.15 -0.19134
v 0.41575 0.2 -0.17221
v 0.35355 0.15 -0.35355
v 0.3182 0.2 -0.3182
v 0.15 0.2 3.4652e-14
v 0.1 0.15 3.4652e-14
v 0.5 0 3.4652e-14
v 0.5 0 0.5
v 0.5 0.15 3.7539e-14
v 0.5 0.15 0.5
v 0.1 0 0.5
v 0.46194 0 -0.19134
v 0.35355 0 -0.35355
v 0.19134 0 -0.46194
v 0.1 0 3.4652e-14
v 0.092388 0 -0.038268
v 0.070711 0 -0.070711
v 0.038268 0 -0.092388
v 0.15 0.2 0.5
v 0.1 0.15 0.5
v 0.45 0.2 0.5
v 0.45 0.2 3.4652e-14
v 0.057403 0.2 -0.13858
v 0.038268 0.15 -0.092388
v 0.425 0.575 0
v 0.45 0.5 0
v 0.425 0.575 0.1
v 0.45 0.475 0.1
v 0.425 0.55 0.3
v 0.45 0.475 0.3
v 0.3182 0.5 -0.3182
v 0.3182 0.25 -0.3182
v 0.41575 0.5 -0.17221
v 0.41575 0.25 -0.17221
v 0.30052 0.575 -0.30052
v 0.39265 0.575 -0.16264
v 0.32336 0.6 -0.13394
v 0.24749 0.6 -0.24749
v 0.17221 0.25 -0.41575
v 0.17221 0.5 -0.41575
v 0.45 0.25 0
v 0.35 0.6 0.1
v 0.25 0.6 0.1
v 0.35 0.6 0
v 0.25 0.6 0
v 0.23097 0.6 -0.095671
v 0.13394 0.6 -0.32336
v 0.17678 0.6 -0.17678
v 0.095671 0.6 -0.23097
v 0 0.6 -0.35
v 0 0.6 -0.25
v -0.1 0.6 -0.25
v -0.1 0.6 -0.35
v 0.12374 0.575 -0.12374
v 0.06697 0.575 -0.16168
v 0 0.25 -0.45
v 0 0.5 -0.45
v 0.10607 0.25 -0.10607
v 0.057403 0.25 -0.13858
v 0.10607 0.5 -0.10607
v 0.057403 0.5 -0.13858
v 0.15 0.5 0
v 0.175 0.575 0
v 0.15 0.5 0.1
v 0.175 0.575 0.1
v 0.13858 0.25 -0.057403
v 0.13858 0.5 -0.057403
v 0.16264 0.575 -0.39265
v 0.16168 0.575 -0.06697
v 0 0.25 -0.15
v 0 0.5 -0.15
v -0.1 0.5 -0.45
v -0.1 0.575 -0.425
v 0 0.575 -0.425
v 0 0.575 -0.175
v 0.15 0.25 0
v -0.1 0.5 -0.15
v -0.1 0.575 -0.175
v -0.3 0.55 -0.175
v -0.5 0.575 -0.175
v -0.3 0.575 -0.25
v -0.5 0.6 -0.25
v -0.5 0.25 -0.15
v -0.3 0.475 -0.15
v -0.5 0.5 -0.15
v -0.3 0.575 -0.35
v -0.5 0.6 -0.35
v -0.3 0.475 -0.45
v -0.3 0.55 -0.425
v -0.5 0.5 -0.45
v -0.5 0.575 -0.425
v 0.425 0.575 0.5
v 0.35 0.575 0.3
v 0.35 0.6 0.5
v 0.45 0.25 0.5
v 0.45 0.5 0.5
v 0.15 0.475 0.3
v 0.175 0.55 0.3
v 0.25 0.575 0.3
v 0.25 0.6 0.5
v 0.175 0.575 0.5
v 0.15 0.5 0.5
v -0.5 0.25 -0.45
v 0.15 0.25 0.5
v 0.076912 0.2 -0.18568
v 0.0049246 0.2 -0.2
v 0.18568 0.2 -0.076912
v 0.14211 0.2 -0.14211
v -0.5 0.2 -0.4
v -0.0049246 0.2 -0.4
v 0.2 0.2 0.5
v 0.2 0.2 -0.0049246
v 0.36865 0.2 -0.1527
v 0.28215 0.2 -0.28215
v 0.1527 0.2 -0.36865
v 0.4 0.2 0.0049246
v -0.5 0.2 -0.2
v 0.4 0.2 0.5
vn -1 0 0
vn 0.072756 0.70523 -0.70523
vn 0 0.70711 -0.70711
vn 0.089405 0.37351 -0.92331
vn 0 0.38268 -0.92388
vn 0 0 -1
vn 0.098017 0 -0.99518
vn -0.092057 0.39012 0.91615
vn 0 0.38268 0.92388
vn -0.066594 0.70554 0.70554
vn 0 0.70711 0.70711
vn -0.098017 0 0.99518
vn 0 0 1
vn -0.65328 0.70711 0.2706
vn -0.84651 0.40059 0.35064
vn -0.5 0.70711 0.5
vn -0.64789 0.40059 0.64789
vn 0.35601 0.36683 -0.85947
vn 0.2706 0.70711 -0.65328
vn 0.85947 0.36683 -0.35601
vn 0.65328 0.70711 -0.2706
vn 0.65781 0.36683 -0.65781
vn 0.5 0.70711 -0.5
vn -0.70554 0.70554 0.066594
vn -0.91615 0.39012 0.092057
vn 0.99518 0 -0.098017
vn 1 0 0
vn 0.92331 0.37351 -0.089405
vn 0.92388 0.38268 0
vn 0 -1 0
vn -0.70711 0.70711 0
vn -0.92388 0.38268 0
vn -0.99518 0 0.098017
vn 0.70523 0.70523 -0.072756
vn 0.70711 0.70711 0
vn -0.2706 0.70711 0.65328
vn -0.35064 0.40059 0.84651
vn -0.92388 0 0.38268
vn -0.70711 0 0.70711
vn -0.38268 0 0.92388
vn 0.38268 0 -0.92388
vn 0.70711 0 -0.70711
vn 0.92388 0 -0.38268
vn 0 1 0
vn 0.718 0.69242 -0.070903
vn 0.9529 0.29548 -0.068359
vn 0.71791 0.69413 0.05281
vn 0.9669 0.25197 0.040267
vn 0.72937 0.68406 -0.0090238
vn 0.94851 0.31617 -0.018982
vn 0.65665 -0.37097 -0.65665
vn 0.85795 -0.37097 -0.35538
vn 0.67082 0.31623 -0.67082
vn 0.87647 0.31623 -0.36305
vn 0.51825 0.68032 -0.51825
vn 0.67713 0.68032 -0.28048
vn 0.16589 0.98375 -0.068714
vn 0.12697 0.98375 -0.12697
vn 0.35538 -0.37097 -0.85795
vn 0.99433 0 -0.1063
vn 0.92234 -0.37556 -0.090842
vn 0.15891 0.98541 0.060984
vn -0.15891 0.98541 0.060984
vn 0.16983 0.98531 -0.017819
vn -0.15035 0.98853 0.013997
vn -0.12986 0.99007 0.05379
vn 0.068714 0.98375 -0.16589
vn -0.09939 0.99007 0.09939
vn -0.05379 0.99007 0.12986
vn 0.017819 0.98531 -0.16983
vn -0.013997 0.98853 0.15035
vn -0.060984 0.98541 0.15891
vn -0.060984 0.98541 -0.15891
vn -0.47868 0.73602 0.47868
vn -0.25906 0.73602 0.62543
vn 0.090842 -0.37556 -0.92234
vn -0.64638 -0.40546 0.64638
vn -0.34982 -0.40546 0.84453
vn -0.9444 0.3148 0.094915
vn -0.69034 0.72026 0.068213
vn -0.94848 0.31616 0.020467
vn -0.69796 0.71475 0.044547
vn -0.84453 -0.40546 0.34982
vn 0.36305 0.31623 -0.87647
vn 0.28048 0.68032 -0.67713
vn -0.62543 0.73602 0.25906
vn -0.67082 0.31623 0.67082
vn -0.87647 0.31623 0.36305
vn -0.090149 -0.39255 0.9153
vn -0.020467 0.31616 -0.94848
vn 0.091254 0.31491 -0.94473
vn -0.044547 0.71475 -0.69796
vn 0.070903 0.69242 -0.718
vn -0.068213 0.72026 0.69034
vn -0.36305 0.31623 0.87647
vn -0.9153 -0.39255 0.090149
vn -0.094915 0.3148 0.9444
vn -0.020467 0.31616 0.94848
vn -0.044547 0.71475 0.69796
vn 0 0.68853 0.72521
vn 0.090125 0.721 0.68705
vn 0 0.98675 0.16222
vn 0.1225 0.97997 0.15703
vn 0 -0.38268 0.92388
vn 0 0.98675 -0.16222
vn 0.1225 0.97997 -0.15703
vn 0 0.31623 -0.94868
vn 0 0.68853 -0.72521
vn 0.039498 0.31598 -0.94794
vn 0.090125 0.721 -0.68705
vn 0 0.31623 0.94868
vn 0.039498 0.31598 0.94794
vn 0.68705 0.721 -0.090125
vn 0.16222 0.98675 0
vn 0.15703 0.97997 -0.1225
vn 0.92388 -0.38268 0
vn -0.94868 0.31623 0
vn -0.72521 0.68853 0
vn -0.16222 0.98675 0
vn -0.15703 0.97997 -0.1225
vn -0.68705 0.721 -0.090125
vn 0.94794 0.31598 -0.039498
vn -0.94794 0.31598 -0.039498
vn 0 -0.38268 -0.92388
vn -0.92388 -0.38268 0
vn -0.26796 -0.71393 0.64691
vn -0.069141 -0.70881 0.702
vn -0.64691 -0.71393 0.26796
vn -0.49513 -0.71393 0.49513
vn 0 -0.70711 -0.70711
vn 0.069141 -0.70881 -0.702
vn -0.70711 -0.70711 0
vn -0.702 -0.70881 0.069141
vn 0.64691 -0.71393 -0.26796
vn 0.49513 -0.71393 -0.49513
vn 0.26796 -0.71393 -0.64691
vn 0.702 -0.70881 -0.069141
vn 0 -0.70711 0.70711
vn 0.70711 -0.70711 0
vt 0.21875 0.275
vt 0.21875 0.425
vt 0.21875 0.475
vt 0.46875 0.2125
vt 0.46875 0.175
vt 0.46875 0.1625
vt 0.46875 0.2
vt 0.46875 0.05
vt 0.46875 0.225
vt 0.46875 0.025
usemtl colormap
f 3/1/1 2/2/1 1/1/1
f 2/2/1 3/1/1 4/3/1
f 4/3/1 3/1/1 5/3/1
f 5/3/1 3/1/1 6/2/1
f 8/2/4 4/3/3 7/3/2
f 4/3/3 8/2/4 2/2/5
f 2/2/5 9/1/7 1/1/6
f 9/1/7 2/2/5 8/2/4
f 11/3/10 6/2/9 10/2/8
f 6/2/9 11/3/10 5/3/11
f 10/2/8 3/1/13 12/1/12
f 3/1/13 10/2/8 6/2/9
f 15/3/16 14/2/15 13/3/14
f 14/2/15 15/3/16 16/2/17
f 8/2/4 18/3/19 17/2/18
f 18/3/19 8/2/4 7/3/2
f 21/2/22 20/3/21 19/2/20
f 20/3/21 21/2/22 22/3/23
f 13/3/14 24/2/25 23/3/24
f 24/2/25 13/3/14 14/2/15
f 17/2/18 22/3/23 21/2/22
f 22/3/23 17/2/18 18/3/19
f 27/2/28 26/1/27 25/1/26
f 26/1/27 27/2/28 28/2/29
f 29/1/30 25/1/30 26/1/30
f 25/1/30 29/1/30 30/1/30
f 30/1/30 29/1/30 31/1/30
f 31/1/30 29/1/30 32/1/30
f 32/1/30 29/1/30 33/1/30
f 32/1/30 33/1/30 34/1/30
f 32/1/30 34/1/30 9/1/30
f 9/1/30 34/1/30 35/1/30
f 9/1/30 35/1/30 36/1/30
f 9/1/30 36/1/30 12/1/30
f 9/1/30 12/1/30 3/1/30
f 9/1/30 3/1/30 1/1/30
f 24/2/25 37/3/31 23/3/24
f 37/3/31 24/2/25 38/2/32
f 28/2/13 29/1/13 26/1/13
f 29/1/13 28/2/13 38/2/13
f 38/2/13 28/2/13 39/3/13
f 38/2/13 39/3/13 37/3/13
f 29/1/1 24/2/25 33/1/33
f 24/2/25 29/1/1 38/2/32
f 39/3/35 27/2/28 40/3/34
f 27/2/28 39/3/35 28/2/29
f 11/3/10 42/2/37 41/3/36
f 42/2/37 11/3/10 10/2/8
f 41/3/36 16/2/17 15/3/16
f 16/2/17 41/3/36 42/2/37
f 20/3/21 27/2/28 19/2/20
f 27/2/28 20/3/21 40/3/34
f 33/1/33 14/2/15 34/1/38
f 14/2/15 33/1/33 24/2/25
f 16/2/17 36/1/40 35/1/39
f 36/1/40 16/2/17 42/2/37
f 42/2/37 12/1/12 36/1/40
f 12/1/12 42/2/37 10/2/8
f 17/2/18 31/1/42 32/1/41
f 31/1/42 17/2/18 21/2/22
f 34/1/38 16/2/17 35/1/39
f 16/2/17 34/1/38 14/2/15
f 8/2/4 32/1/41 9/1/7
f 32/1/41 8/2/4 17/2/18
f 19/2/20 31/1/42 21/2/22
f 31/1/42 19/2/20 30/1/43
f 27/2/28 30/1/43 19/2/20
f 30/1/43 27/2/28 25/1/26
f 5/3/44 7/3/44 4/3/44
f 11/3/44 7/3/44 5/3/44
f 41/3/44 7/3/44 11/3/44
f 15/3/44 7/3/44 41/3/44
f 13/3/44 7/3/44 15/3/44
f 13/3/44 18/3/44 7/3/44
f 18/3/44 13/3/44 23/3/44
f 37/3/44 18/3/44 23/3/44
f 37/3/44 22/3/44 18/3/44
f 37/3/44 20/3/44 22/3/44
f 39/3/44 20/3/44 37/3/44
f 20/3/44 39/3/44 40/3/44
f 45/4/47 44/5/46 43/4/45
f 46/6/48 44/5/46 45/4/47
f 47/7/49 46/6/48 45/4/47
f 48/6/50 46/6/48 47/7/49
f 51/5/43 50/8/51 49/5/42
f 50/8/51 51/5/43 52/8/52
f 53/4/55 51/5/54 49/5/53
f 51/5/54 53/4/55 54/4/56
f 54/4/56 44/5/46 51/5/54
f 44/5/46 54/4/56 43/4/45
f 53/4/55 55/9/57 54/4/56
f 55/9/57 53/4/55 56/9/58
f 58/5/41 50/8/51 57/8/59
f 50/8/51 58/5/41 49/5/42
f 44/5/60 52/8/52 51/5/43
f 52/8/52 44/5/60 59/8/61
f 62/9/64 61/9/63 60/9/62
f 61/9/63 62/9/64 63/9/65
f 55/9/57 63/9/65 62/9/64
f 63/9/65 55/9/57 56/9/58
f 63/9/65 56/9/58 64/9/66
f 64/9/66 56/9/58 65/9/67
f 64/9/66 65/9/67 66/9/68
f 66/9/68 65/9/67 67/9/69
f 67/9/69 65/9/67 68/9/70
f 67/9/69 68/9/70 69/9/71
f 68/9/70 70/9/72 69/9/71
f 70/9/72 68/9/70 71/9/73
f 67/9/69 72/4/74 66/9/68
f 72/4/74 67/9/69 73/4/75
f 75/5/7 57/8/59 74/8/76
f 57/8/59 75/5/7 58/5/41
f 78/5/39 77/8/78 76/8/77
f 77/8/78 78/5/39 79/5/40
f 82/5/81 81/4/80 80/5/79
f 81/4/80 82/5/81 83/4/82
f 84/8/83 78/5/39 76/8/77
f 78/5/39 84/8/83 85/5/38
f 86/4/85 49/5/53 58/5/84
f 49/5/53 86/4/85 53/4/55
f 63/9/65 83/4/82 61/9/63
f 83/4/82 63/9/65 81/4/80
f 78/5/87 87/4/86 72/4/74
f 87/4/86 78/5/87 85/5/88
f 79/5/40 88/8/89 77/8/78
f 88/8/89 79/5/40 89/5/12
f 91/4/92 75/5/91 90/5/90
f 75/5/91 91/4/92 92/4/93
f 86/4/85 56/9/58 53/4/55
f 56/9/58 86/4/85 65/9/67
f 92/4/93 71/9/73 68/9/70
f 71/9/73 92/4/93 91/4/92
f 54/4/56 62/9/64 43/4/45
f 62/9/64 54/4/56 55/9/57
f 69/9/71 73/4/75 67/9/69
f 73/4/75 69/9/71 93/4/94
f 66/9/68 87/4/86 64/9/66
f 87/4/86 66/9/68 72/4/74
f 92/4/93 65/9/67 86/4/85
f 65/9/67 92/4/93 68/9/70
f 72/4/74 79/5/95 78/5/87
f 79/5/95 72/4/74 73/4/75
f 92/4/93 58/5/84 75/5/91
f 58/5/84 92/4/93 86/4/85
f 94/8/96 85/5/38 84/8/83
f 85/5/38 94/8/96 80/5/33
f 64/9/66 81/4/80 63/9/65
f 81/4/80 64/9/66 87/4/86
f 93/4/94 95/5/98 89/5/97
f 95/5/98 93/4/94 96/4/99
f 73/4/75 89/5/97 79/5/95
f 89/5/97 73/4/75 93/4/94
f 99/4/102 98/4/101 97/7/100
f 98/4/101 99/4/102 100/9/103
f 89/5/12 101/8/104 88/8/89
f 101/8/104 89/5/12 102/6/13
f 102/6/13 89/5/12 95/5/13
f 103/5/13 101/8/104 102/6/13
f 85/5/88 81/4/80 87/4/86
f 81/4/80 85/5/88 80/5/79
f 104/4/105 100/9/103 99/4/102
f 100/9/103 104/4/105 105/9/106
f 108/5/109 107/7/108 106/6/107
f 107/7/108 108/5/109 109/4/110
f 107/7/108 105/9/106 104/4/105
f 105/9/106 107/7/108 109/4/110
f 97/7/100 103/5/112 102/6/111
f 103/5/112 97/7/100 98/4/101
f 70/9/72 97/7/100 96/4/99
f 97/7/100 70/9/72 99/4/102
f 107/7/108 90/5/90 106/6/107
f 90/5/90 107/7/108 91/4/92
f 91/4/92 104/4/105 71/9/73
f 104/4/105 91/4/92 107/7/108
f 69/9/71 96/4/99 93/4/94
f 96/4/99 69/9/71 70/9/72
f 95/5/98 97/7/100 102/6/111
f 97/7/100 95/5/98 96/4/99
f 71/9/73 99/4/102 70/9/72
f 99/4/102 71/9/73 104/4/105
f 43/4/45 60/9/62 45/4/47
f 60/9/62 43/4/45 62/9/64
f 111/4/114 110/4/113 47/7/49
f 110/4/113 111/4/114 112/9/115
f 44/5/60 113/8/116 59/8/61
f 113/8/116 44/5/60 46/6/27
f 113/8/116 46/6/27 48/6/27
f 113/8/116 48/6/27 114/5/27
f 115/6/117 83/4/82 82/5/81
f 83/4/82 115/6/117 116/7/118
f 60/9/62 117/4/119 111/4/114
f 117/4/119 60/9/62 61/9/63
f 61/9/63 116/7/118 117/4/119
f 116/7/118 61/9/63 83/4/82
f 116/7/118 118/9/120 117/4/119
f 118/9/120 116/7/118 119/4/121
f 45/4/47 111/4/114 47/7/49
f 111/4/114 45/4/47 60/9/62
f 110/4/113 48/6/50 47/7/49
f 48/6/50 110/4/113 114/5/122
f 120/5/123 116/7/118 115/6/117
f 116/7/118 120/5/123 119/4/121
f 117/4/119 112/9/115 111/4/114
f 112/9/115 117/4/119 118/9/120
f 108/5/6 74/8/76 121/8/124
f 74/8/76 108/5/6 106/6/6
f 106/6/6 75/5/7 74/8/76
f 75/5/7 106/6/6 90/5/6
f 94/8/96 82/5/1 80/5/33
f 82/5/1 94/8/96 122/8/125
f 82/5/1 122/8/125 115/6/1
f 115/6/1 122/8/125 120/5/1
f 77/8/78 124/10/127 123/10/126
f 124/10/127 77/8/78 88/8/89
f 84/8/83 126/10/129 125/10/128
f 126/10/129 84/8/83 76/8/77
f 121/8/124 128/10/131 127/10/130
f 128/10/131 121/8/124 74/8/76
f 122/8/125 130/10/133 129/10/132
f 130/10/133 122/8/125 94/8/96
f 131/10/134 50/8/51 52/8/52
f 50/8/51 131/10/134 132/10/135
f 94/8/96 125/10/128 130/10/133
f 125/10/128 94/8/96 84/8/83
f 132/10/135 57/8/59 50/8/51
f 57/8/59 132/10/135 133/10/136
f 76/8/77 123/10/126 126/10/129
f 123/10/126 76/8/77 77/8/78
f 133/10/136 74/8/76 57/8/59
f 74/8/76 133/10/136 128/10/131
f 134/10/137 52/8/52 59/8/61
f 52/8/52 134/10/137 131/10/134
f 88/8/89 135/10/138 124/10/127
f 135/10/138 88/8/89 101/8/104
f 136/10/139 59/8/61 113/8/116
f 59/8/61 136/10/139 134/10/137
f 127/10/1 108/5/1 121/8/1
f 108/5/1 127/10/1 109/4/1
f 109/4/1 127/10/1 105/9/1
f 105/9/1 127/10/1 135/10/1
f 105/9/1 135/10/1 100/9/1
f 100/9/1 135/10/1 98/4/1
f 98/4/1 135/10/1 101/8/1
f 98/4/1 101/8/1 103/5/1
f 113/8/13 129/10/13 136/10/13
f 129/10/13 113/8/13 122/8/13
f 122/8/13 113/8/13 114/5/13
f 122/8/13 114/5/13 120/5/13
f 120/5/13 114/5/13 110/4/13
f 120/5/13 110/4/13 119/4/13
f 119/4/13 110/4/13 112/9/13
f 119/4/13 112/9/13 118/9/13
g hedge-large-curved
usemtl colormap
f 3/1/1 2/2/1 1/1/1
f 2/2/1 3/1/1 4/3/1
f 4/3/1 3/1/1 5/3/1
f 5/3/1 3/1/1 6/2/1
f 8/2/4 4/3/3 7/3/2
f 4/3/3 8/2/4 2/2/5
f 2/2/5 9/1/7 1/1/6
f 9/1/7 2/2/5 8/2/4
f 11/3/10 6/2/9 10/2/8
f 6/2/9 11/3/10 5/3/11
f 10/2/8 3/1/13 12/1/12
f 3/1/13 10/2/8 6/2/9
f 15/3/16 14/2/15 13/3/14
f 14/2/15 15/3/16 16/2/17
f 8/2/4 18/3/19 17/2/18
f 18/3/19 8/2/4 7/3/2
f 21/2/22 20/3/21 19/2/20
f 20/3/21 21/2/22 22/3/23
f 13/3/14 24/2/25 23/3/24
f 24/2/25 13/3/14 14/2/15
f 17/2/18 22/3/23 21/2/22
f 22/3/23 17/2/18 18/3/19
f 27/2/28 26/1/27 25/1/26
f 26/1/27 27/2/28 28/2/29
f 29/1/30 25/1/30 26/1/30
f 25/1/30 29/1/30 30/1/30
f 30/1/30 29/1/30 31/1/30
f 31/1/30 29/1/30 32/1/30
f 32/1/30 29/1/30 33/1/30
f 32/1/30 33/1/30 34/1/30
f 32/1/30 34/1/30 9/1/30
f 9/1/30 34/1/30 35/1/30
f 9/1/30 35/1/30 36/1/30
f 9/1/30 36/1/30 12/1/30
f 9/1/30 12/1/30 3/1/30
f 9/1/30 3/1/30 1/1/30
f 24/2/25 37/3/31 23/3/24
f 37/3/31 24/2/25 38/2/32
f 28/2/13 29/1/13 26/1/13
f 29/1/13 28/2/13 38/2/13
f 38/2/13 28/2/13 39/3/13
f 38/2/13 39/3/13 37/3/13
f 29/1/1 24/2/25 33/1/33
f 24/2/25 29/1/1 38/2/32
f 39/3/35 27/2/28 40/3/34
f 27/2/28 39/3/35 28/2/29
f 11/3/10 42/2/37 41/3/36
f 42/2/37 11/3/10 10/2/8
f 41/3/36 16/2/17 15/3/16
f 16/2/17 41/3/36 42/2/37
f 20/3/21 27/2/28 19/2/20
f 27/2/28 20/3/21 40/3/34
f 33/1/33 14/2/15 34/1/38
f 14/2/15 33/1/33 24/2/25
f 16/2/17 36/1/40 35/1/39
f 36/1/40 16/2/17 42/2/37
f 42/2/37 12/1/12 36/1/40
f 12/1/12 42/2/37 10/2/8
f 17/2/18 31/1/42 32/1/41
f 31/1/42 17/2/18 21/2/22
f 34/1/38 16/2/17 35/1/39
f 16/2/17 34/1/38 14/2/15
f 8/2/4 32/1/41 9/1/7
f 32/1/41 8/2/4 17/2/18
f 19/2/20 31/1/42 21/2/22
f 31/1/42 19/2/20 30/1/43
f 27/2/28 30/1/43 19/2/20
f 30/1/43 27/2/28 25/1/26
f 5/3/44 7/3/44 4/3/44
f 11/3/44 7/3/44 5/3/44
f 41/3/44 7/3/44 11/3/44
f 15/3/44 7/3/44 41/3/44
f 13/3/44 7/3/44 15/3/44
f 13/3/44 18/3/44 7/3/44
f 18/3/44 13/3/44 23/3/44
f 37/3/44 18/3/44 23/3/44
f 37/3/44 22/3/44 18/3/44
f 37/3/44 20/3/44 22/3/44
f 39/3/44 20/3/44 37/3/44
f 20/3/44 39/3/44 40/3/44
f 45/4/47 44/5/46 43/4/45
f 46/6/48 44/5/46 45/4/47
f 47/7/49 46/6/48 45/4/47
f 48/6/50 46/6/48 47/7/49
f 51/5/43 50/8/51 49/5/42
f 50/8/51 51/5/43 52/8/52
f 53/4/55 51/5/54 49/5/53
f 51/5/54 53/4/55 54/4/56
f 54/4/56 44/5/46 51/5/54
f 44/5/46 54/4/56 43/4/45
f 53/4/55 55/9/57 54/4/56
f 55/9/57 53/4/55 56/9/58
f 58/5/41 50/8/51 57/8/59
f 50/8/51 58/5/41 49/5/42
f 44/5/60 52/8/52 51/5/43
f 52/8/52 44/5/60 59/8/61
f 62/9/64 61/9/63 60/9/62
f 61/9/63 62/9/64 63/9/65
f 55/9/57 63/9/65 62/9/64
f 63/9/65 55/9/57 56/9/58
f 63/9/65 56/9/58 64/9/66
f 64/9/66 56/9/58 65/9/67
f 64/9/66 65/9/67 66/9/68
f 66/9/68 65/9/67 67/9/69
f 67/9/69 65/9/67 68/9/70
f 67/9/69 68/9/70 69/9/71
f 68/9/70 70/9/72 69/9/71
f 70/9/72 68/9/70 71/9/73
f 67/9/69 72/4/74 66/9/68
f 72/4/74 67/9/69 73/4/75
f 75/5/7 57/8/59 74/8/76
f 57/8/59 75/5/7 58/5/41
f 78/5/39 77/8/78 76/8/77
f 77/8/78 78/5/39 79/5/40
f 82/5/81 81/4/80 80/5/79
f 81/4/80 82/5/81 83/4/82
f 84/8/83 78/5/39 76/8/77
f 78/5/39 84/8/83 85/5/38
f 86/4/85 49/5/53 58/5/84
f 49/5/53 86/4/85 53/4/55
f 63/9/65 83/4/82 61/9/63
f 83/4/82 63/9/65 81/4/80
f 78/5/87 87/4/86 72/4/74
f 87/4/86 78/5/87 85/5/88
f 79/5/40 88/8/89 77/8/78
f 88/8/89 79/5/40 89/5/12
f 91/4/92 75/5/91 90/5/90
f 75/5/91 91/4/92 92/4/93
f 86/4/85 56/9/58 53/4/55
f 56/9/58 86/4/85 65/9/67
f 92/4/93 71/9/73 68/9/70
f 71/9/73 92/4/93 91/4/92
f 54/4/56 62/9/64 43/4/45
f 62/9/64 54/4/56 55/9/57
f 69/9/71 73/4/75 67/9/69
f 73/4/75 69/9/71 93/4/94
f 66/9/68 87/4/86 64/9/66
f 87/4/86 66/9/68 72/4/74
f 92/4/93 65/9/67 86/4/85
f 65/9/67 92/4/93 68/9/70
f 72/4/74 79/5/95 78/5/87
f 79/5/95 72/4/74 73/4/75
f 92/4/93 58/5/84 75/5/91
f 58/5/84 92/4/93 86/4/85
f 94/8/96 85/5/38 84/8/83
f 85/5/38 94/8/96 80/5/33
f 64/9/66 81/4/80 63/9/65
f 81/4/80 64/9/66 87/4/86
f 93/4/94 95/5/98 89/5/97
f 95/5/98 93/4/94 96/4/99
f 73/4/75 89/5/97 79/5/95
f 89/5/97 73/4/75 93/4/94
f 99/4/102 98/4/101 97/7/100
f 98/4/101 99/4/102 100/9/103
f 89/5/12 101/8/104 88/8/89
f 101/8/104 89/5/12 102/6/13
f 102/6/13 89/5/12 95/5/13
f 103/5/13 101/8/104 102/6/13
f 85/5/88 81/4/80 87/4/86
f 81/4/80 85/5/88 80/5/79
f 104/4/105 100/9/103 99/4/102
f 100/9/103 104/4/105 105/9/106
f 108/5/109 107/7/108 106/6/107
f 107/7/108 108/5/109 109/4/110
f 107/7/108 105/9/106 104/4/105
f 105/9/106 107/7/108 109/4/110
f 97/7/100 103/5/112 102/6/111
f 103/5/112 97/7/100 98/4/101
f 70/9/72 97/7/100 96/4/99
f 97/7/100 70/9/72 99/4/102
f 107/7/108 90/5/90 106/6/107
f 90/5/90 107/7/108 91/4/92
f 91/4/92 104/4/105 71/9/73
f 104/4/105 91/4/92 107/7/108
f 69/9/71 96/4/99 93/4/94
f 96/4/99 69/9/71 70/9/72
f 95/5/98 97/7/100 102/6/111
f 97/7/100 95/5/98 96/4/99
f 71/9/73 99/4/102 70/9/72
f 99/4/102 71/9/73 104/4/105
f 43/4/45 60/9/62 45/4/47
f 60/9/62 43/4/45 62/9/64
f 111/4/114 110/4/113 47/7/49
f 110/4/113 111/4/114 112/9/115
f 44/5/60 113/8/116 59/8/61
f 113/8/116 44/5/60 46/6/27
f 113/8/116 46/6/27 48/6/27
f 113/8/116 48/6/27 114/5/27
f 115/6/117 83/4/82 82/5/81
f 83/4/82 115/6/117 116/7/118
f 60/9/62 117/4/119 111/4/114
f 117/4/119 60/9/62 61/9/63
f 61/9/63 116/7/118 117/4/119
f 116/7/118 61/9/63 83/4/82
f 116/7/118 118/9/120 117/4/119
f 118/9/120 116/7/118 119/4/121
f 45/4/47 111/4/114 47/7/49
f 111/4/114 45/4/47 60/9/62
f 110/4/113 48/6/50 47/7/49
f 48/6/50 110/4/113 114/5/122
f 120/5/123 116/7/118 115/6/117
f 116/7/118 120/5/123 119/4/121
f 117/4/119 112/9/115 111/4/114
f 112/9/115 117/4/119 118/9/120
f 108/5/6 74/8/76 121/8/124
f 74/8/76 108/5/6 106/6/6
f 106/6/6 75/5/7 74/8/76
f 75/5/7 106/6/6 90/5/6
f 94/8/96 82/5/1 80/5/33
f 82/5/1 94/8/96 122/8/125
f 82/5/1 122/8/125 115/6/1
f 115/6/1 122/8/125 120/5/1
f 77/8/78 124/10/127 123/10/126
f 124/10/127 77/8/78 88/8/89
f 84/8/83 126/10/129 125/10/128
f 126/10/129 84/8/83 76/8/77
f 121/8/124 128/10/131 127/10/130
f 128/10/131 121/8/124 74/8/76
f 122/8/125 130/10/133 129/10/132
f 130/10/133 122/8/125 94/8/96
f 131/10/134 50/8/51 52/8/52
f 50/8/51 131/10/134 132/10/135
f 94/8/96 125/10/128 130/10/133
f 125/10/128 94/8/96 84/8/83
f 132/10/135 57/8/59 50/8/51
f 57/8/59 132/10/135 133/10/136
f 76/8/77 123/10/126 126/10/129
f 123/10/126 76/8/77 77/8/78
f 133/10/136 74/8/76 57/8/59
f 74/8/76 133/10/136 128/10/131
f 134/10/137 52/8/52 59/8/61
f 52/8/52 134/10/137 131/10/134
f 88/8/89 135/10/138 124/10/127
f 135/10/138 88/8/89 101/8/104
f 136/10/139 59/8/61 113/8/116
f 59/8/61 136/10/139 134/10/137
f 127/10/1 108/5/1 121/8/1
f 108/5/1 127/10/1 109/4/1
f 109/4/1 127/10/1 105/9/1
f 105/9/1 127/10/1 135/10/1
f 105/9/1 135/10/1 100/9/1
f 100/9/1 135/10/1 98/4/1
f 98/4/1 135/10/1 101/8/1
f 98/4/1 101/8/1 103/5/1
f 113/8/13 129/10/13 136/10/13
f 129/10/13 113/8/13 122/8/13
f 122/8/13 113/8/13 114/5/13
f 122/8/13 114/5/13 120/5/13
f 120/5/13 114/5/13 110/4/13
f 120/5/13 110/4/13 119/4/13
f 119/4/13 110/4/13 112/9/13
f 119/4/13 112/9/13 118/9/13
