mtllib town_wheel.mtl
g wheel
v 0.3273 0.21872 0.16282
v 0.33753 0.25688 0.16282
v 0.3273 0.21872 0.01975
v 0.33753 0.25688 0.01975
v 0.29027 0.080525 0.01975
v 0.37456 0.39508 0.01975
v 0.29027 0.080525 -0.01975
v 0.3273 0.21872 -0.01975
v 0.33753 0.25688 -0.01975
v 0.37456 0.39508 -0.01975
v 0.3273 0.21872 -0.16282
v 0.33753 0.25688 -0.16282
v 0.26166 0.088193 0.01975
v 0.29869 0.22639 0.01975
v 0.30891 0.26455 0.16282
v 0.29869 0.22639 0.16282
v 0.30891 0.26455 0.01975
v 0.34594 0.40275 0.01975
v 0.34594 0.40275 -0.01975
v 0.30891 0.26455 -0.01975
v 0.29869 0.22639 -0.01975
v 0.26166 0.088193 -0.01975
v 0.29869 0.22639 -0.16282
v 0.30891 0.26455 -0.16282
v 0.32542 0.1501 -0.086521
v 0.26601 0.16602 -0.086521
v 0.34781 0.23368 -0.12236
v 0.2884 0.2496 -0.12236
v 0.32542 0.1501 0.086521
v 0.26601 0.16602 0.086521
v 0.31615 0.11549 1.0829e-15
v 0.25673 0.13141 1.0829e-15
v 0.37021 0.31725 -0.086521
v 0.31079 0.33317 -0.086521
v 0.34781 0.23368 0.12236
v 0.37021 0.31725 0.086521
v 0.2884 0.2496 0.12236
v 0.31079 0.33317 0.086521
v 0.37948 0.35187 3.9705e-15
v 0.32007 0.36779 3.9705e-15
v 0.37679 0.22591 -0.0395
v 0.36956 0.19893 -0.027931
v 0.38402 0.25289 -0.027931
v 0.38702 0.26406 -6.4521e-15
v 0.36657 0.18776 1.3987e-15
v 0.38402 0.25289 0.027931
v 0.36956 0.19893 0.027931
v 0.37679 0.22591 0.0395
v 0.25942 0.25736 -0.0395
v 0.26665 0.28434 -0.027931
v 0.25219 0.23038 -0.027931
v 0.26964 0.29551 -6.4521e-15
v 0.2492 0.21921 1.3987e-15
v 0.26665 0.28434 0.027931
v 0.25219 0.23038 0.027931
v 0.25942 0.25736 0.0395
v 0.37679 0.22591 0.18715
v 0.41104 0.35374 0.13234
v 0.34781 0.23368 0.16282
v 0.37761 0.34489 0.11513
v 0.37679 0.22591 -0.18715
v 0.34781 0.23368 -0.16282
v 0.41104 0.35374 -0.13234
v 0.37761 0.34489 -0.11513
v 0.32835 0.045133 3.6096e-16
v 0.34254 0.098082 0.13234
v 0.30567 0.076399 7.2191e-16
v 0.31802 0.12246 0.11513
v 0.42523 0.40669 4.6924e-15
v 0.38996 0.39095 4.3315e-15
v 0.34254 0.098082 -0.13234
v 0.31802 0.12246 -0.11513
v 0.2586 0.13838 -0.11513
v 0.24626 0.092319 7.2191e-16
v 0.22517 0.12953 -0.13234
v 0.21098 0.076583 3.6096e-16
v 0.2884 0.2496 0.16282
v 0.3182 0.36081 0.11513
v 0.25942 0.25736 0.18715
v 0.29367 0.38519 0.13234
v 0.2884 0.2496 -0.16282
v 0.25942 0.25736 -0.18715
v 0.3182 0.36081 -0.11513
v 0.29367 0.38519 -0.13234
v 0.33054 0.40687 4.3315e-15
v 0.30786 0.43814 4.6924e-15
v 0.2586 0.13838 0.11513
v 0.22517 0.12953 0.13234
v 0.43733 0.45182 5.0534e-15
v 0.31995 0.48327 5.0534e-15
v 0.4196 0.38565 -0.16538
v 0.30222 0.4171 -0.16538
v 0.33399 0.066168 -0.16538
v 0.21662 0.097617 -0.16538
v 0.31626 2.0392e-15 0
v 0.19889 0.03145 0
v 0.37679 0.22591 0.23388
v 0.25942 0.25736 0.23388
v 0.4196 0.38565 0.16538
v 0.30222 0.4171 0.16538
v 0.37679 0.22591 -0.23388
v 0.25942 0.25736 -0.23388
v 0.33399 0.066168 0.16538
v 0.21662 0.097617 0.16538
vn 0.96593 -0.25882 0
vn 0 0 1
vn -0.96593 0.25882 0
vn 0.25882 0.96593 0
vn -0.25882 -0.96593 0
vn 0 0 -1
vn 0.18301 0.68301 0.70711
vn 0.18301 0.68301 -0.70711
vn 0.25882 0.96593 0
vn -0.18301 -0.68301 0.70711
vn -0.18301 -0.68301 -0.70711
vn -0.25882 -0.96593 0
vn -0.18301 -0.68301 -0.70711
vn 0.18301 0.68301 -0.70711
vn 0.18301 0.68301 0.70711
vn -0.18301 -0.68301 0.70711
vn 0.60843 -0.16303 -0.77668
vn 0.46629 -0.69351 -0.5492
vn 0.60843 -0.16303 0.77668
vn 0.46629 -0.69351 0.5492
vn 0.80945 0.58719 0
vn 0.75057 0.36746 -0.5492
vn 0.40741 -0.91325 0
vn 0.75057 0.36746 0.5492
vn -0.46629 0.69351 0.5492
vn -0.40741 0.91325 0
vn -0.60843 0.16303 -0.77668
vn -0.75057 -0.36746 -0.5492
vn -0.60843 0.16303 0.77668
vn -0.75057 -0.36746 0.5492
vn -0.80945 -0.58719 0
vn -0.46629 0.69351 -0.5492
vn -0.96593 0.25882 0
vn 0.96593 -0.25882 0
vt 0.71875 0.11287
vt 0.71875 0.13713
vt 0.71875 0.025
vt 0.71875 0.225
vt 0.71875 0.087119
vt 0.71875 0.093708
vt 0.71875 0.12171
vt 0.71875 0.12829
vt 0.71875 0.072793
vt 0.71875 0.079382
vt 0.71875 0.15629
vt 0.71875 0.16288
vt 0.71875 0.17062
vt 0.71875 0.17721
vt 0.59375 0.125
vt 0.59375 0.054289
vt 0.59375 0.19571
vt 0.59375 0.225
vt 0.59375 0.025
vt 0.59375 0.11849
vt 0.59375 0.17139
vt 0.59375 0.12171
vt 0.59375 0.16773
vt 0.59375 0.043678
vt 0.59375 0.065591
vt 0.59375 0.056617
vt 0.59375 0.075681
vt 0.59375 0.19331
vt 0.59375 0.18679
vt 0.59375 0.08227
vt 0.59375 0.063206
vt 0.59375 0.078606
vt 0.59375 0.056693
vt 0.59375 0.12829
vt 0.59375 0.17432
vt 0.59375 0.13151
vt 0.59375 0.18441
vt 0.59375 0.19338
vt 0.59375 0.20632
vt 0.59375 0.17721
vt 0.59375 0.16288
vt 0.59375 0.093708
vt 0.59375 0.079382
vt 0.59375 0.087119
vt 0.59375 0.072793
vt 0.59375 0.15629
vt 0.59375 0.17062
vt 0.21875 0.46198
vt 0.21875 0.475
vt 0.21875 0.4346
vt 0.21875 0.44762
vt 0.21875 0.30238
vt 0.21875 0.3154
vt 0.21875 0.275
vt 0.21875 0.28802
vt 0.21875 0.36849
vt 0.21875 0.38151
vt 0.21875 0.31559
vt 0.21875 0.29368
vt 0.21875 0.42139
vt 0.21875 0.44331
vt 0.21875 0.45632
vt 0.21875 0.43441
vt 0.21875 0.32861
vt 0.21875 0.30669
usemtl colormap
f 3/1/1 2/2/1 1/1/1
f 2/2/1 3/1/1 4/2/1
f 5/3/1 4/2/1 3/1/1
f 5/3/1 6/4/1 4/2/1
f 7/3/1 6/4/1 5/3/1
f 8/1/1 6/4/1 7/3/1
f 9/2/1 6/4/1 8/1/1
f 6/4/1 9/2/1 10/4/1
f 11/1/1 9/2/1 8/1/1
f 9/2/1 11/1/1 12/2/1
f 3/1/2 13/3/2 5/3/2
f 13/3/2 3/1/2 14/1/2
f 17/2/3 16/1/3 15/2/3
f 16/1/3 17/2/3 14/1/3
f 18/4/3 14/1/3 17/2/3
f 18/4/3 13/3/3 14/1/3
f 19/4/3 13/3/3 18/4/3
f 20/2/3 13/3/3 19/4/3
f 21/1/3 13/3/3 20/2/3
f 13/3/3 21/1/3 22/3/3
f 20/2/3 23/1/3 21/1/3
f 23/1/3 20/2/3 24/2/3
f 17/2/4 2/2/4 4/2/4
f 2/2/4 17/2/4 15/2/4
f 16/1/5 3/1/5 1/1/5
f 3/1/5 16/1/5 14/1/5
f 21/1/5 11/1/5 8/1/5
f 11/1/5 21/1/5 23/1/5
f 6/4/2 17/2/2 4/2/2
f 17/2/2 6/4/2 18/4/2
f 21/1/6 7/3/6 22/3/6
f 7/3/6 21/1/6 8/1/6
f 24/2/4 9/2/4 12/2/4
f 9/2/4 24/2/4 20/2/4
f 19/4/6 9/2/6 20/2/6
f 9/2/6 19/4/6 10/4/6
f 27/7/2 26/6/7 25/5/7
f 26/6/7 27/7/2 28/8/2
f 31/9/9 30/6/8 29/5/8
f 30/6/8 31/9/9 32/10/9
f 33/11/10 28/8/2 27/7/2
f 28/8/2 33/11/10 34/12/10
f 37/8/6 36/11/11 35/7/6
f 36/11/11 37/8/6 38/12/11
f 40/14/12 33/11/10 39/13/12
f 33/11/10 40/14/12 34/12/10
f 36/11/11 40/14/12 39/13/12
f 40/14/12 36/11/11 38/12/11
f 26/6/7 31/9/9 25/5/7
f 31/9/9 26/6/7 32/10/9
f 30/6/8 35/7/6 29/5/8
f 35/7/6 30/6/8 37/8/6
f 43/17/1 42/16/1 41/15/1
f 42/16/1 43/17/1 44/18/1
f 42/16/1 44/18/1 45/19/1
f 45/19/1 44/18/1 46/17/1
f 45/19/1 46/17/1 47/16/1
f 47/16/1 46/17/1 48/15/1
f 51/16/3 50/17/3 49/15/3
f 50/17/3 51/16/3 52/18/3
f 52/18/3 51/16/3 53/19/3
f 52/18/3 53/19/3 54/17/3
f 54/17/3 53/19/3 55/16/3
f 54/17/3 55/16/3 56/15/3
f 53/19/5 42/16/13 45/19/5
f 42/16/13 53/19/5 51/16/13
f 49/15/6 42/16/13 51/16/13
f 42/16/13 49/15/6 41/15/6
f 50/17/14 41/15/6 49/15/6
f 41/15/6 50/17/14 43/17/14
f 50/17/14 44/18/4 43/17/14
f 44/18/4 50/17/14 52/18/4
f 52/18/4 46/17/15 44/18/4
f 46/17/15 52/18/4 54/17/15
f 46/17/15 56/15/2 48/15/2
f 56/15/2 46/17/15 54/17/15
f 48/15/2 55/16/16 47/16/16
f 55/16/16 48/15/2 56/15/2
f 55/16/16 45/19/5 47/16/16
f 45/19/5 55/16/16 53/19/5
f 59/22/17 58/21/18 57/20/17
f 58/21/18 59/22/17 60/23/18
f 63/21/20 62/22/19 61/20/19
f 62/22/19 63/21/20 64/23/20
f 67/26/21 66/25/22 65/24/21
f 66/25/22 67/26/21 68/27/22
f 70/29/23 63/21/20 69/28/23
f 63/21/20 70/29/23 64/23/20
f 72/27/24 65/24/21 71/25/24
f 65/24/21 72/27/24 67/26/21
f 68/27/22 57/20/17 66/25/22
f 57/20/17 68/27/22 59/22/17
f 61/20/19 72/27/24 71/25/24
f 72/27/24 61/20/19 62/22/19
f 58/21/18 70/29/23 69/28/23
f 70/29/23 58/21/18 60/23/18
f 75/32/25 74/31/26 73/30/25
f 74/31/26 75/32/25 76/33/26
f 79/36/27 78/35/28 77/34/27
f 78/35/28 79/36/27 80/37/28
f 83/35/30 82/36/29 81/34/29
f 82/36/29 83/35/30 84/37/30
f 78/35/28 86/39/31 85/38/31
f 86/39/31 78/35/28 80/37/28
f 74/31/26 88/32/32 87/30/32
f 88/32/32 74/31/26 76/33/26
f 83/35/30 86/39/31 84/37/30
f 86/39/31 83/35/30 85/38/31
f 73/30/25 82/36/29 75/32/25
f 82/36/29 73/30/25 81/34/29
f 79/36/27 87/30/32 88/32/32
f 87/30/32 79/36/27 77/34/27
f 85/38/33 34/41/33 40/40/33
f 85/38/33 40/40/33 38/41/33
f 83/35/33 34/41/33 85/38/33
f 85/38/33 38/41/33 78/35/33
f 83/35/33 28/34/33 34/41/33
f 28/34/33 83/35/33 81/34/33
f 73/30/33 28/34/33 81/34/33
f 28/34/33 73/30/33 26/42/33
f 26/42/33 73/30/33 74/31/33
f 26/42/33 74/31/33 32/43/33
f 78/35/33 38/41/33 37/34/33
f 78/35/33 37/34/33 77/34/33
f 32/43/33 74/31/33 87/30/33
f 37/34/33 87/30/33 77/34/33
f 32/43/33 87/30/33 30/42/33
f 30/42/33 87/30/33 37/34/33
f 68/27/34 31/45/34 29/44/34
f 68/27/34 29/44/34 35/22/34
f 67/26/34 31/45/34 68/27/34
f 68/27/34 35/22/34 59/22/34
f 67/26/34 25/44/34 31/45/34
f 35/22/34 60/23/34 59/22/34
f 72/27/34 25/44/34 67/26/34
f 36/46/34 60/23/34 35/22/34
f 72/27/34 27/22/34 25/44/34
f 27/22/34 72/27/34 62/22/34
f 64/23/34 27/22/34 62/22/34
f 27/22/34 64/23/34 33/46/34
f 36/46/34 70/29/34 60/23/34
f 33/46/34 64/23/34 70/29/34
f 39/47/34 70/29/34 36/46/34
f 33/46/34 70/29/34 39/47/34
f 91/50/8 90/49/9 89/48/9
f 90/49/9 91/50/8 92/51/8
f 95/54/12 94/53/11 93/52/11
f 94/53/11 95/54/12 96/55/12
f 99/50/7 98/57/2 97/56/2
f 98/57/2 99/50/7 100/51/7
f 102/57/6 91/50/8 101/56/6
f 91/50/8 102/57/6 92/51/8
f 94/53/11 101/56/6 93/52/11
f 101/56/6 94/53/11 102/57/6
f 97/56/2 104/53/10 103/52/10
f 104/53/10 97/56/2 98/57/2
f 104/53/10 95/54/12 103/52/10
f 95/54/12 104/53/10 96/55/12
f 90/49/9 99/50/7 89/48/9
f 99/50/7 90/49/9 100/51/7
f 103/52/34 65/59/34 66/58/34
f 103/52/34 66/58/34 57/56/34
f 95/54/34 65/59/34 103/52/34
f 103/52/34 57/56/34 97/56/34
f 95/54/34 71/58/34 65/59/34
f 57/56/34 99/50/34 97/56/34
f 93/52/34 71/58/34 95/54/34
f 58/60/34 99/50/34 57/56/34
f 93/52/34 61/56/34 71/58/34
f 61/56/34 93/52/34 101/56/34
f 91/50/34 61/56/34 101/56/34
f 61/56/34 91/50/34 63/60/34
f 58/60/34 89/48/34 99/50/34
f 63/60/34 91/50/34 89/48/34
f 69/61/34 89/48/34 58/60/34
f 63/60/34 89/48/34 69/61/34
f 90/49/33 84/63/33 86/62/33
f 90/49/33 86/62/33 80/63/33
f 92/51/33 84/63/33 90/49/33
f 90/49/33 80/63/33 100/51/33
f 92/51/33 82/57/33 84/63/33
f 82/57/33 92/51/33 102/57/33
f 94/53/33 82/57/33 102/57/33
f 82/57/33 94/53/33 75/64/33
f 75/64/33 94/53/33 96/55/33
f 75/64/33 96/55/33 76/65/33
f 100/51/33 80/63/33 79/57/33
f 100/51/33 79/57/33 98/57/33
f 76/65/33 96/55/33 104/53/33
f 79/57/33 104/53/33 98/57/33
f 76/65/33 104/53/33 88/64/33
f 88/64/33 104/53/33 79/57/33
g wheel
usemtl colormap
f 3/1/1 2/2/1 1/1/1
f 2/2/1 3/1/1 4/2/1
f 5/3/1 4/2/1 3/1/1
f 5/3/1 6/4/1 4/2/1
f 7/3/1 6/4/1 5/3/1
f 8/1/1 6/4/1 7/3/1
f 9/2/1 6/4/1 8/1/1
f 6/4/1 9/2/1 10/4/1
f 11/1/1 9/2/1 8/1/1
f 9/2/1 11/1/1 12/2/1
f 3/1/2 13/3/2 5/3/2
f 13/3/2 3/1/2 14/1/2
f 17/2/3 16/1/3 15/2/3
f 16/1/3 17/2/3 14/1/3
f 18/4/3 14/1/3 17/2/3
f 18/4/3 13/3/3 14/1/3
f 19/4/3 13/3/3 18/4/3
f 20/2/3 13/3/3 19/4/3
f 21/1/3 13/3/3 20/2/3
f 13/3/3 21/1/3 22/3/3
f 20/2/3 23/1/3 21/1/3
f 23/1/3 20/2/3 24/2/3
f 17/2/4 2/2/4 4/2/4
f 2/2/4 17/2/4 15/2/4
f 16/1/5 3/1/5 1/1/5
f 3/1/5 16/1/5 14/1/5
f 21/1/5 11/1/5 8/1/5
f 11/1/5 21/1/5 23/1/5
f 6/4/2 17/2/2 4/2/2
f 17/2/2 6/4/2 18/4/2
f 21/1/6 7/3/6 22/3/6
f 7/3/6 21/1/6 8/1/6
f 24/2/4 9/2/4 12/2/4
f 9/2/4 24/2/4 20/2/4
f 19/4/6 9/2/6 20/2/6
f 9/2/6 19/4/6 10/4/6
f 27/7/2 26/6/7 25/5/7
f 26/6/7 27/7/2 28/8/2
f 31/9/9 30/6/8 29/5/8
f 30/6/8 31/9/9 32/10/9
f 33/11/10 28/8/2 27/7/2
f 28/8/2 33/11/10 34/12/10
f 37/8/6 36/11/11 35/7/6
f 36/11/11 37/8/6 38/12/11
f 40/14/12 33/11/10 39/13/12
f 33/11/10 40/14/12 34/12/10
f 36/11/11 40/14/12 39/13/12
f 40/14/12 36/11/11 38/12/11
f 26/6/7 31/9/9 25/5/7
f 31/9/9 26/6/7 32/10/9
f 30/6/8 35/7/6 29/5/8
f 35/7/6 30/6/8 37/8/6
f 43/17/1 42/16/1 41/15/1
f 42/16/1 43/17/1 44/18/1
f 42/16/1 44/18/1 45/19/1
f 45/19/1 44/18/1 46/17/1
f 45/19/1 46/17/1 47/16/1
f 47/16/1 46/17/1 48/15/1
f 51/16/3 50/17/3 49/15/3
f 50/17/3 51/16/3 52/18/3
f 52/18/3 51/16/3 53/19/3
f 52/18/3 53/19/3 54/17/3
f 54/17/3 53/19/3 55/16/3
f 54/17/3 55/16/3 56/15/3
f 53/19/5 42/16/13 45/19/5
f 42/16/13 53/19/5 51/16/13
f 49/15/6 42/16/13 51/16/13
f 42/16/13 49/15/6 41/15/6
f 50/17/14 41/15/6 49/15/6
f 41/15/6 50/17/14 43/17/14
f 50/17/14 44/18/4 43/17/14
f 44/18/4 50/17/14 52/18/4
f 52/18/4 46/17/15 44/18/4
f 46/17/15 52/18/4 54/17/15
f 46/17/15 56/15/2 48/15/2
f 56/15/2 46/17/15 54/17/15
f 48/15/2 55/16/16 47/16/16
f 55/16/16 48/15/2 56/15/2
f 55/16/16 45/19/5 47/16/16
f 45/19/5 55/16/16 53/19/5
f 59/22/17 58/21/18 57/20/17
f 58/21/18 59/22/17 60/23/18
f 63/21/20 62/22/19 61/20/19
f 62/22/19 63/21/20 64/23/20
f 67/26/21 66/25/22 65/24/21
f 66/25/22 67/26/21 68/27/22
f 70/29/23 63/21/20 69/28/23
f 63/21/20 70/29/23 64/23/20
f 72/27/24 65/24/21 71/25/24
f 65/24/21 72/27/24 67/26/21
f 68/27/22 57/20/17 66/25/22
f 57/20/17 68/27/22 59/22/17
f 61/20/19 72/27/24 71/25/24
f 72/27/24 61/20/19 62/22/19
f 58/21/18 70/29/23 69/28/23
f 70/29/23 58/21/18 60/23/18
f 75/32/25 74/31/26 73/30/25
f 74/31/26 75/32/25 76/33/26
f 79/36/27 78/35/28 77/34/27
f 78/35/28 79/36/27 80/37/28
f 83/35/30 82/36/29 81/34/29
f 82/36/29 83/35/30 84/37/30
f 78/35/28 86/39/31 85/38/31
f 86/39/31 78/35/28 80/37/28
f 74/31/26 88/32/32 87/30/32
f 88/32/32 74/31/26 76/33/26
f 83/35/30 86/39/31 84/37/30
f 86/39/31 83/35/30 85/38/31
f 73/30/25 82/36/29 75/32/25
f 82/36/29 73/30/25 81/34/29
f 79/36/27 87/30/32 88/32/32
f 87/30/32 79/36/27 77/34/27
f 85/38/33 34/41/33 40/40/33
f 85/38/33 40/40/33 38/41/33
f 83/35/33 34/41/33 85/38/33
f 85/38/33 38/41/33 78/35/33
f 83/35/33 28/34/33 34/41/33
f 28/34/33 83/35/33 81/34/33
f 73/30/33 28/34/33 81/34/33
f 28/34/33 73/30/33 26/42/33
f 26/42/33 73/30/33 74/31/33
f 26/42/33 74/31/33 32/43/33
f 78/35/33 38/41/33 37/34/33
f 78/35/33 37/34/33 77/34/33
f 32/43/33 74/31/33 87/30/33
f 37/34/33 87/30/33 77/34/33
f 32/43/33 87/30/33 30/42/33
f 30/42/33 87/30/33 37/34/33
f 68/27/34 31/45/34 29/44/34
f 68/27/34 29/44/34 35/22/34
f 67/26/34 31/45/34 68/27/34
f 68/27/34 35/22/34 59/22/34
f 67/26/34 25/44/34 31/45/34
f 35/22/34 60/23/34 59/22/34
f 72/27/34 25/44/34 67/26/34
f 36/46/34 60/23/34 35/22/34
f 72/27/34 27/22/34 25/44/34
f 27/22/34 72/27/34 62/22/34
f 64/23/34 27/22/34 62/22/34
f 27/22/34 64/23/34 33/46/34
f 36/46/34 70/29/34 60/23/34
f 33/46/34 64/23/34 70/29/34
f 39/47/34 70/29/34 36/46/34
f 33/46/34 70/29/34 39/47/34
f 91/50/8 90/49/9 89/48/9
f 90/49/9 91/50/8 92/51/8
f 95/54/12 94/53/11 93/52/11
f 94/53/11 95/54/12 96/55/12
f 99/50/7 98/57/2 97/56/2
f 98/57/2 99/50/7 100/51/7
f 102/57/6 91/50/8 101/56/6
f 91/50/8 102/57/6 92/51/8
f 94/53/11 101/56/6 93/52/11
f 101/56/6 94/53/11 102/57/6
f 97/56/2 104/53/10 103/52/10
f 104/53/10 97/56/2 98/57/2
f 104/53/10 95/54/12 103/52/10
f 95/54/12 104/53/10 96/55/12
f 90/49/9 99/50/7 89/48/9
f 99/50/7 90/49/9 100/51/7
f 103/52/34 65/59/34 66/58/34
f 103/52/34 66/58/34 57/56/34
f 95/54/34 65/59/34 103/52/34
f 103/52/34 57/56/34 97/56/34
f 95/54/34 71/58/34 65/59/34
f 57/56/34 99/50/34 97/56/34
f 93/52/34 71/58/34 95/54/34
f 58/60/34 99/50/34 57/56/34
f 93/52/34 61/56/34 71/58/34
f 61/56/34 93/52/34 101/56/34
f 91/50/34 61/56/34 101/56/34
f 61/56/34 91/50/34 63/60/34
f 58/60/34 89/48/34 99/50/34
f 63/60/34 91/50/34 89/48/34
f 69/61/34 89/48/34 58/60/34
f 63/60/34 89/48/34 69/61/34
f 90/49/33 84/63/33 86/62/33
f 90/49/33 86/62/33 80/63/33
f 92/51/33 84/63/33 90/49/33
f 90/49/33 80/63/33 100/51/33
f 92/51/33 82/57/33 84/63/33
f 82/57/33 92/51/33 102/57/33
f 94/53/33 82/57/33 102/57/33
f 82/57/33 94/53/33 75/64/33
f 75/64/33 94/53/33 96/55/33
f 75/64/33 96/55/33 76/65/33
f 100/51/33 80/63/33 79/57/33
f 100/51/33 79/57/33 98/57/33
f 76/65/33 96/55/33 104/53/33
f 79/57/33 104/53/33 98/57/33
f 76/65/33 104/53/33 88/64/33
f 88/64/33 104/53/33 79/57/33
