mtllib town_rock-wide.mtl
g rock-wide
v 0.18563 0.32385 0.56414
v 0.099859 0.1096 0.73049
v -0.10166 0.32385 0.48004
v 0.43147 1.8065e-16 0.10419
v 0.54676 0 0.45902
v 0.28678 0.32385 0.13068
v 0.38141 0.32385 0.4219
v 0.097951 0.32385 0.26788
v -0.087795 0.32385 0.13292
v -0.18169 0.32385 0.4219
v 0.099859 0 0.78371
v -0.23248 1.8065e-16 0.10643
v -0.34704 0 0.45902
v -0.28054 0.26795 0.0064543
v -0.1523 0.6477 -0.11163
v -0.10166 0.6477 0.044216
v 0.3482 0.6477 -0.11163
v 0.51687 0.1096 0.015531
v 0.29757 0.6477 0.044216
v 0.43147 1.8065e-16 0.10419
v 0.28678 0.32385 0.13068
v 0.54485 3.6131e-16 0.021813
v 0.097951 0.6477 0.18924
v 0.27953 3.6131e-16 -0.50355
v 0.37415 3.6131e-16 -0.50355
v 0.26013 0.49183 -0.38414
v 0.27196 0.6477 -0.34629
v 0.182 0.6477 -0.34629
v -0.087795 0.32385 0.13292
v -0.34895 3.6131e-16 0.021813
v -0.23248 1.8065e-16 0.10643
v -0.16107 0.40724 -0.25979
v -0.10736 0.6477 -0.24995
v -0.17966 0.40724 -0.20257
v -0.26521 0.20023 -0.090056
v -0.31636 3.6131e-16 -0.0785
v -0.028979 0.6477 -0.19301
v -0.20616 1.02 -0.53627
v -0.20623 0.51 -0.7218
v -0.03601 1.02 -0.65989
v -0.24646 3.6131e-16 -0.78371
v 0.1885 3.6131e-16 -0.78371
v 0.10803 1.02 -0.65989
v 0.19271 1.02 -0.39927
v -0.028979 1.02 -0.23821
v -0.25067 1.02 -0.39927
v -0.028979 0.6477 -0.19301
v -0.10736 0.6477 -0.24995
v -0.32889 0.40724 -0.38171
v -0.16107 0.40724 -0.25979
v -0.31366 3.6131e-16 -0.57688
v -0.29767 0.40724 -0.4778
v 0.27953 3.6131e-16 -0.50355
v -0.17966 0.40724 -0.20257
v -0.26521 0.20023 -0.090056
v -0.26521 0.40724 -0.14042
v -0.43922 3.6131e-16 -0.57688
v -0.31366 3.6131e-16 -0.57688
v -0.37484 0.40724 -0.4778
v -0.29767 0.40724 -0.4778
v -0.44259 0.40724 -0.26929
v -0.16107 0.40724 -0.25979
v -0.54676 3.6131e-16 -0.2459
v -0.31636 3.6131e-16 -0.0785
v 0.099859 0 0.78371
v -0.34704 0 0.45902
v -0.24646 3.6131e-16 -0.78371
v -0.31636 3.6131e-16 -0.0785
v -0.43922 3.6131e-16 -0.57688
v -0.54676 3.6131e-16 -0.2459
v 0.1885 3.6131e-16 -0.78371
v 0.43147 1.8065e-16 0.10419
v 0.54676 0 0.45902
v -0.35381 3.6096e-16 0.2411
v -0.35381 3.6096e-16 0.1411
v -0.44041 3.6096e-16 0.2911
v -0.44041 3.6096e-16 0.091095
v -0.52702 3.6096e-16 0.2411
v -0.52702 3.6096e-16 0.1411
v -0.38672 0.1 0.1601
v -0.38672 0.1 0.2221
v -0.44041 0.1 0.1291
v -0.44041 0.1 0.2531
v -0.49411 0.1 0.1601
v -0.49411 0.1 0.2221
v 0.21292 0.32385 0.3526
v 0.21292 0.32385 0.2526
v 0.12632 0.32385 0.4026
v 0.12632 0.32385 0.2026
v 0.039717 0.32385 0.3526
v 0.039717 0.32385 0.2526
v 0.18001 0.42385 0.2716
v 0.18001 0.42385 0.3336
v 0.12632 0.42385 0.2406
v 0.12632 0.42385 0.3646
v 0.072626 0.42385 0.2716
v 0.072626 0.42385 0.3336
v 0.23631 0.6477 -0.1242
v 0.23631 0.6477 -0.2242
v 0.14971 0.6477 -0.074203
v 0.14971 0.6477 -0.2742
v 0.063108 0.6477 -0.1242
v 0.063108 0.6477 -0.2242
v 0.2034 0.7477 -0.2052
v 0.2034 0.7477 -0.1432
v 0.14971 0.7477 -0.2362
v 0.14971 0.7477 -0.1122
v 0.096017 0.7477 -0.2052
v 0.096017 0.7477 -0.1432
vn -0.21325 0.65102 0.72849
vn 0.86723 0.4105 -0.28178
vn 0 1 0
vn 0.54708 0.36565 0.75299
vn -0.86723 0.4105 -0.28178
vn -0.54708 0.36565 0.75299
vn -0.87771 0.38509 0.28519
vn 0.89163 0.34795 0.28971
vn 0.57676 0.19274 0.79385
vn 0 0.23594 -0.97177
vn -0.57676 0.19274 0.79385
vn -0.92784 0.21959 -0.30147
vn 0.92784 0.21959 -0.30147
vn -0.56386 0.28241 -0.77609
vn 0 0.12051 -0.99271
vn -0.58497 0.097744 0.80514
vn -0.94509 0.11184 -0.30708
vn 0.58497 0.097744 0.80514
vn 0.94509 0.11184 -0.30708
vn 0.57672 0.19311 0.79379
vn 0 0.23639 -0.97166
vn -0.92775 0.22001 -0.30145
vn -0.57672 0.19311 0.79379
vn 0 -1 0
vn 0.80955 0.35522 -0.46739
vn 0.80955 0.35522 0.46739
vn 0 0.35522 -0.93478
vn 0 0.35522 0.93478
vn -0.80955 0.35522 0.46739
vn -0.80955 0.35522 -0.46739
vt 0.21875 0.33607
vt 0.21875 0.32296
vt 0.21875 0.31626
vt 0.21875 0.36389
vt 0.21875 0.37449
vt 0.21875 0.35947
vt 0.21875 0.35641
vt 0.21875 0.36545
vt 0.21875 0.37014
vt 0.21875 0.36778
vt 0.21875 0.362
vt 0.21875 0.36017
vt 0.21875 0.34559
vt 0.21875 0.33102
vt 0.21875 0.34953
vt 0.21875 0.34266
vt 0.21875 0.34508
vt 0.21875 0.47331
vt 0.21875 0.3972
vt 0.21875 0.32358
vt 0.21875 0.28424
vt 0.21875 0.31765
vt 0.21875 0.35106
vt 0.21875 0.325
vt 0.21875 0.425
usemtl colormap
f 3/1/1 2/2/1 1/1/1
f 6/1/2 5/3/2 4/3/2
f 5/3/2 6/1/2 7/1/2
f 6/1/3 1/1/3 7/1/3
f 1/1/3 6/1/3 8/1/3
f 1/1/3 8/1/3 3/1/3
f 3/1/3 8/1/3 9/1/3
f 3/1/3 9/1/3 10/1/3
f 7/1/4 11/3/4 5/3/4
f 11/3/4 7/1/4 2/2/4
f 2/2/4 7/1/4 1/1/4
f 13/3/5 9/1/5 12/3/5
f 9/1/5 13/3/5 10/1/5
f 2/2/6 13/3/6 11/3/6
f 13/3/6 2/2/6 10/1/6
f 10/1/6 2/2/6 3/1/6
f 16/5/7 15/5/7 14/4/7
f 19/5/8 18/6/8 17/5/8
f 22/7/9 21/8/9 20/7/9
f 21/8/9 22/7/9 18/6/9
f 21/8/9 18/6/9 19/5/9
f 21/8/9 19/5/9 8/8/9
f 8/8/9 19/5/9 23/5/9
f 26/9/10 25/7/10 24/7/10
f 25/7/10 26/9/10 27/5/10
f 27/5/10 26/9/10 28/5/10
f 23/5/11 29/8/11 8/8/11
f 16/5/11 29/8/11 23/5/11
f 14/4/11 29/8/11 16/5/11
f 30/7/11 29/8/11 14/4/11
f 29/8/11 30/7/11 31/7/11
f 34/10/12 33/5/12 32/10/12
f 33/5/12 34/10/12 15/5/12
f 15/5/12 34/10/12 35/11/12
f 15/5/12 35/11/12 14/4/12
f 14/4/12 35/11/12 36/7/12
f 14/4/12 36/7/12 30/7/12
f 27/5/3 19/5/3 17/5/3
f 19/5/3 27/5/3 23/5/3
f 23/5/3 27/5/3 28/5/3
f 23/5/3 28/5/3 37/5/3
f 23/5/3 37/5/3 16/5/3
f 16/5/3 37/5/3 33/5/3
f 16/5/3 33/5/3 15/5/3
f 27/5/13 22/7/13 25/7/13
f 22/7/13 27/5/13 17/5/13
f 22/7/13 17/5/13 18/6/13
f 40/12/14 39/13/14 38/12/14
f 39/13/15 42/14/15 41/14/15
f 42/14/15 39/13/15 43/12/15
f 43/12/15 39/13/15 40/12/15
f 43/12/3 45/12/3 44/12/3
f 45/12/3 43/12/3 40/12/3
f 45/12/3 40/12/3 46/12/3
f 46/12/3 40/12/3 38/12/3
f 45/12/16 48/15/16 47/15/16
f 46/12/16 48/15/16 45/12/16
f 49/16/16 48/15/16 46/12/16
f 48/15/16 49/16/16 50/16/16
f 51/14/17 39/13/17 41/14/17
f 39/13/17 51/14/17 38/12/17
f 38/12/17 51/14/17 52/16/17
f 38/12/17 52/16/17 46/12/17
f 46/12/17 52/16/17 49/16/17
f 44/12/18 28/15/18 26/17/18
f 28/15/18 44/12/18 47/15/18
f 47/15/18 44/12/18 45/12/18
f 43/12/19 53/14/19 42/14/19
f 53/14/19 43/12/19 44/12/19
f 53/14/19 44/12/19 26/17/19
f 56/18/20 55/19/20 54/18/20
f 59/18/21 58/20/21 57/20/21
f 58/20/21 59/18/21 60/18/21
f 59/18/3 49/18/3 60/18/3
f 61/18/3 49/18/3 59/18/3
f 56/18/3 49/18/3 61/18/3
f 54/18/3 49/18/3 56/18/3
f 49/18/3 54/18/3 62/18/3
f 63/20/22 59/18/22 57/20/22
f 59/18/22 63/20/22 61/18/22
f 55/19/23 63/20/23 64/20/23
f 63/20/23 55/19/23 61/18/23
f 61/18/23 55/19/23 56/18/23
f 66/21/24 12/22/24 65/21/24
f 67/23/24 65/21/24 12/22/24
f 67/23/24 12/22/24 68/23/24
f 68/23/24 12/22/24 30/23/24
f 67/23/24 68/23/24 51/23/24
f 68/23/24 69/23/24 51/23/24
f 69/23/24 68/23/24 70/23/24
f 71/23/24 65/21/24 67/23/24
f 24/23/24 65/21/24 71/23/24
f 25/23/24 65/21/24 24/23/24
f 72/22/24 65/21/24 25/23/24
f 25/23/24 22/23/24 72/22/24
f 65/21/24 72/22/24 73/21/24
f 76/24/24 75/24/24 74/24/24
f 75/24/24 76/24/24 77/24/24
f 77/24/24 76/24/24 78/24/24
f 77/24/24 78/24/24 79/24/24
f 82/25/3 81/25/3 80/25/3
f 81/25/3 82/25/3 83/25/3
f 83/25/3 82/25/3 84/25/3
f 83/25/3 84/25/3 85/25/3
f 80/25/25 74/24/26 75/24/25
f 74/24/26 80/25/25 81/25/26
f 82/25/27 75/24/25 77/24/27
f 75/24/25 82/25/27 80/25/25
f 83/25/28 78/24/29 76/24/28
f 78/24/29 83/25/28 85/25/29
f 78/24/29 84/25/30 79/24/30
f 84/25/30 78/24/29 85/25/29
f 81/25/26 76/24/28 74/24/26
f 76/24/28 81/25/26 83/25/28
f 84/25/30 77/24/27 79/24/30
f 77/24/27 84/25/30 82/25/27
f 88/24/24 87/24/24 86/24/24
f 87/24/24 88/24/24 89/24/24
f 89/24/24 88/24/24 90/24/24
f 89/24/24 90/24/24 91/24/24
f 94/25/3 93/25/3 92/25/3
f 93/25/3 94/25/3 95/25/3
f 95/25/3 94/25/3 96/25/3
f 95/25/3 96/25/3 97/25/3
f 92/25/25 86/24/26 87/24/25
f 86/24/26 92/25/25 93/25/26
f 94/25/27 87/24/25 89/24/27
f 87/24/25 94/25/27 92/25/25
f 95/25/28 90/24/29 88/24/28
f 90/24/29 95/25/28 97/25/29
f 90/24/29 96/25/30 91/24/30
f 96/25/30 90/24/29 97/25/29
f 93/25/26 88/24/28 86/24/26
f 88/24/28 93/25/26 95/25/28
f 96/25/30 89/24/27 91/24/30
f 89/24/27 96/25/30 94/25/27
f 100/24/24 99/24/24 98/24/24
f 99/24/24 100/24/24 101/24/24
f 101/24/24 100/24/24 102/24/24
f 101/24/24 102/24/24 103/24/24
f 106/25/3 105/25/3 104/25/3
f 105/25/3 106/25/3 107/25/3
f 107/25/3 106/25/3 108/25/3
f 107/25/3 108/25/3 109/25/3
f 104/25/25 98/24/26 99/24/25
f 98/24/26 104/25/25 105/25/26
f 106/25/27 99/24/25 101/24/27
f 99/24/25 106/25/27 104/25/25
f 107/25/28 102/24/29 100/24/28
f 102/24/29 107/25/28 109/25/29
f 102/24/29 108/25/30 103/24/30
f 108/25/30 102/24/29 109/25/29
f 105/25/26 100/24/28 98/24/26
f 100/24/28 105/25/26 107/25/28
f 108/25/30 101/24/27 103/24/30
f 101/24/27 108/25/30 106/25/27
g rock-wide
usemtl colormap
f 3/1/1 2/2/1 1/1/1
f 6/1/2 5/3/2 4/3/2
f 5/3/2 6/1/2 7/1/2
f 6/1/3 1/1/3 7/1/3
f 1/1/3 6/1/3 8/1/3
f 1/1/3 8/1/3 3/1/3
f 3/1/3 8/1/3 9/1/3
f 3/1/3 9/1/3 10/1/3
f 7/1/4 11/3/4 5/3/4
f 11/3/4 7/1/4 2/2/4
f 2/2/4 7/1/4 1/1/4
f 13/3/5 9/1/5 12/3/5
f 9/1/5 13/3/5 10/1/5
f 2/2/6 13/3/6 11/3/6
f 13/3/6 2/2/6 10/1/6
f 10/1/6 2/2/6 3/1/6
f 16/5/7 15/5/7 14/4/7
f 19/5/8 18/6/8 17/5/8
f 22/7/9 21/8/9 20/7/9
f 21/8/9 22/7/9 18/6/9
f 21/8/9 18/6/9 19/5/9
f 21/8/9 19/5/9 8/8/9
f 8/8/9 19/5/9 23/5/9
f 26/9/10 25/7/10 24/7/10
f 25/7/10 26/9/10 27/5/10
f 27/5/10 26/9/10 28/5/10
f 23/5/11 29/8/11 8/8/11
f 16/5/11 29/8/11 23/5/11
f 14/4/11 29/8/11 16/5/11
f 30/7/11 29/8/11 14/4/11
f 29/8/11 30/7/11 31/7/11
f 34/10/12 33/5/12 32/10/12
f 33/5/12 34/10/12 15/5/12
f 15/5/12 34/10/12 35/11/12
f 15/5/12 35/11/12 14/4/12
f 14/4/12 35/11/12 36/7/12
f 14/4/12 36/7/12 30/7/12
f 27/5/3 19/5/3 17/5/3
f 19/5/3 27/5/3 23/5/3
f 23/5/3 27/5/3 28/5/3
f 23/5/3 28/5/3 37/5/3
f 23/5/3 37/5/3 16/5/3
f 16/5/3 37/5/3 33/5/3
f 16/5/3 33/5/3 15/5/3
f 27/5/13 22/7/13 25/7/13
f 22/7/13 27/5/13 17/5/13
f 22/7/13 17/5/13 18/6/13
f 40/12/14 39/13/14 38/12/14
f 39/13/15 42/14/15 41/14/15
f 42/14/15 39/13/15 43/12/15
f 43/12/15 39/13/15 40/12/15
f 43/12/3 45/12/3 44/12/3
f 45/12/3 43/12/3 40/12/3
f 45/12/3 40/12/3 46/12/3
f 46/12/3 40/12/3 38/12/3
f 45/12/16 48/15/16 47/15/16
f 46/12/16 48/15/16 45/12/16
f 49/16/16 48/15/16 46/12/16
f 48/15/16 49/16/16 50/16/16
f 51/14/17 39/13/17 41/14/17
f 39/13/17 51/14/17 38/12/17
f 38/12/17 51/14/17 52/16/17
f 38/12/17 52/16/17 46/12/17
f 46/12/17 52/16/17 49/16/17
f 44/12/18 28/15/18 26/17/18
f 28/15/18 44/12/18 47/15/18
f 47/15/18 44/12/18 45/12/18
f 43/12/19 53/14/19 42/14/19
f 53/14/19 43/12/19 44/12/19
f 53/14/19 44/12/19 26/17/19
f 56/18/20 55/19/20 54/18/20
f 59/18/21 58/20/21 57/20/21
f 58/20/21 59/18/21 60/18/21
f 59/18/3 49/18/3 60/18/3
f 61/18/3 49/18/3 59/18/3
f 56/18/3 49/18/3 61/18/3
f 54/18/3 49/18/3 56/18/3
f 49/18/3 54/18/3 62/18/3
f 63/20/22 59/18/22 57/20/22
f 59/18/22 63/20/22 61/18/22
f 55/19/23 63/20/23 64/20/23
f 63/20/23 55/19/23 61/18/23
f 61/18/23 55/19/23 56/18/23
f 66/21/24 12/22/24 65/21/24
f 67/23/24 65/21/24 12/22/24
f 67/23/24 12/22/24 68/23/24
f 68/23/24 12/22/24 30/23/24
f 67/23/24 68/23/24 51/23/24
f 68/23/24 69/23/24 51/23/24
f 69/23/24 68/23/24 70/23/24
f 71/23/24 65/21/24 67/23/24
f 24/23/24 65/21/24 71/23/24
f 25/23/24 65/21/24 24/23/24
f 72/22/24 65/21/24 25/23/24
f 25/23/24 22/23/24 72/22/24
f 65/21/24 72/22/24 73/21/24
f 76/24/24 75/24/24 74/24/24
f 75/24/24 76/24/24 77/24/24
f 77/24/24 76/24/24 78/24/24
f 77/24/24 78/24/24 79/24/24
f 82/25/3 81/25/3 80/25/3
f 81/25/3 82/25/3 83/25/3
f 83/25/3 82/25/3 84/25/3
f 83/25/3 84/25/3 85/25/3
f 80/25/25 74/24/26 75/24/25
f 74/24/26 80/25/25 81/25/26
f 82/25/27 75/24/25 77/24/27
f 75/24/25 82/25/27 80/25/25
f 83/25/28 78/24/29 76/24/28
f 78/24/29 83/25/28 85/25/29
f 78/24/29 84/25/30 79/24/30
f 84/25/30 78/24/29 85/25/29
f 81/25/26 76/24/28 74/24/26
f 76/24/28 81/25/26 83/25/28
f 84/25/30 77/24/27 79/24/30
f 77/24/27 84/25/30 82/25/27
f 88/24/24 87/24/24 86/24/24
f 87/24/24 88/24/24 89/24/24
f 89/24/24 88/24/24 90/24/24
f 89/24/24 90/24/24 91/24/24
f 94/25/3 93/25/3 92/25/3
f 93/25/3 94/25/3 95/25/3
f 95/25/3 94/25/3 96/25/3
f 95/25/3 96/25/3 97/25/3
f 92/25/25 86/24/26 87/24/25
f 86/24/26 92/25/25 93/25/26
f 94/25/27 87/24/25 89/24/27
f 87/24/25 94/25/27 92/25/25
f 95/25/28 90/24/29 88/24/28
f 90/24/29 95/25/28 97/25/29
f 90/24/29 96/25/30 91/24/30
f 96/25/30 90/24/29 97/25/29
f 93/25/26 88/24/28 86/24/26
f 88/24/28 93/25/26 95/25/28
f 96/25/30 89/24/27 91/24/30
f 89/24/27 96/25/30 94/25/27
f 100/24/24 99/24/24 98/24/24
f 99/24/24 100/24/24 101/24/24
f 101/24/24 100/24/24 102/24/24
f 101/24/24 102/24/24 103/24/24
f 106/25/3 105/25/3 104/25/3
f 105/25/3 106/25/3 107/25/3
f 107/25/3 106/25/3 108/25/3
f 107/25/3 108/25/3 109/25/3
f 104/25/25 98/24/26 99/24/25
f 98/24/26 104/25/25 105/25/26
f 106/25/27 99/24/25 101/24/27
f 99/24/25 106/25/27 104/25/25
f 107/25/28 102/24/29 100/24/28
f 102/24/29 107/25/28 109/25/29
f 102/24/29 108/25/30 103/24/30
f 108/25/30 102/24/29 109/25/29
f 105/25/26 100/24/28 98/24/26
f 100/24/28 105/25/26 107/25/28
f 108/25/30 101/24/27 103/24/30
f 101/24/27 108/25/30 106/25/27
