mtllib town_fountain-corner-inner-square.mtl
g fountain-corner-inner-square
v -0.47 0.112 -0.47
v -0.5 0.14 -0.5
v -0.5 0.112 -0.47
v -0.47 0.112 -0.5
v -0.5 5.2039e-18 -0.5
v -0.5 0.056 -0.5
v -0.5 5.2039e-18 -0.2
v -0.5 0.056 -0.47
v -0.5 0.28 -0.425
v -0.5 0.28 -0.2
v -0.5 0.23 -0.5
v -0.47 0.056 -0.5
v -0.47 0.056 -0.47
v -0.425 0.28 -0.5
v -0.425 0.28 -0.425
v -0.2 5.2039e-18 -0.2
v -0.2 0.28 -0.2
v -0.2 0.28 -0.5
v -0.2 5.2039e-18 -0.5
v 0.5 5.2039e-18 -0.5
v 0.5 5.2039e-18 0.5
v -0.5 5.2039e-18 0.5
vn 0 -0.29656 -0.95501
vn 0 -0.73106 -0.68232
vn 0 -0.39855 -0.91715
vn -0.95501 -0.29656 0
vn -0.91715 -0.39855 0
vn -0.68232 -0.73106 0
vn -1 0 0
vn -0.70711 0.70711 0
vn -0.57735 0.57735 -0.57735
vn 0 1 0
vn 0 0.70711 -0.70711
vn -0.5547 0.83205 0
vn 0 0.83205 -0.5547
vn 0 0 1
vn 1 0 0
vn 0 0 -1
vn 0 -1 0
vt 0.96875 0.105
vt 0.96875 0.125
vt 0.96875 0.025
vt 0.96875 0.065
vt 0.96875 0.225
vt 0.96875 0.18929
vt 0.21875 0.475
vt 0.21875 0.43929
vt 0.21875 0.275
vt 0.21875 0.315
vt 0.21875 0.355
vt 0.21875 0.375
usemtl colormap
f 3/1/3 2/2/2 1/1/1
f 2/2/6 4/1/5 1/1/4
f 7/3/7 6/4/7 5/3/7
f 6/4/7 7/3/7 8/4/7
f 8/4/7 7/3/7 3/1/7
f 3/1/7 7/3/7 9/5/7
f 9/5/7 7/3/7 10/5/7
f 9/5/7 2/2/7 3/1/7
f 2/2/7 9/5/7 11/6/7
f 6/4/10 13/4/9 12/4/8
f 13/4/9 6/4/10 8/4/11
f 3/1/3 13/4/9 8/4/11
f 13/4/9 3/1/3 1/1/1
f 13/4/9 4/1/5 12/4/8
f 4/1/5 13/4/9 1/1/4
f 11/8/12 15/7/12 14/7/12
f 9/7/13 15/7/13 11/8/13
f 17/7/14 7/9/14 16/9/14
f 7/9/14 17/7/14 10/7/14
f 17/7/15 19/9/15 18/7/15
f 19/9/15 17/7/15 16/9/15
f 6/10/16 19/9/16 5/9/16
f 19/9/16 6/10/16 12/10/16
f 12/10/16 18/7/16 19/9/16
f 18/7/16 12/10/16 4/11/16
f 18/7/16 4/11/16 2/12/16
f 18/7/16 2/12/16 11/8/16
f 18/7/16 11/8/16 14/7/16
f 14/7/10 17/7/10 18/7/10
f 17/7/10 14/7/10 15/7/10
f 17/7/10 15/7/10 10/7/10
f 10/7/10 15/7/10 9/7/10
f 19/9/10 21/9/10 20/9/10
f 21/9/10 19/9/10 16/9/10
f 21/9/10 16/9/10 22/9/10
f 22/9/10 16/9/10 7/9/10
f 7/9/17 19/9/17 16/9/17
f 19/9/17 7/9/17 5/9/17
g fountain-corner-inner-square
usemtl colormap
f 3/1/3 2/2/2 1/1/1
f 2/2/6 4/1/5 1/1/4
f 7/3/7 6/4/7 5/3/7
f 6/4/7 7/3/7 8/4/7
f 8/4/7 7/3/7 3/1/7
f 3/1/7 7/3/7 9/5/7
f 9/5/7 7/3/7 10/5/7
f 9/5/7 2/2/7 3/1/7
f 2/2/7 9/5/7 11/6/7
f 6/4/10 13/4/9 12/4/8
f 13/4/9 6/4/10 8/4/11
f 3/1/3 13/4/9 8/4/11
f 13/4/9 3/1/3 1/1/1
f 13/4/9 4/1/5 12/4/8
f 4/1/5 13/4/9 1/1/4
f 11/8/12 15/7/12 14/7/12
f 9/7/13 15/7/13 11/8/13
f 17/7/14 7/9/14 16/9/14
f 7/9/14 17/7/14 10/7/14
f 17/7/15 19/9/15 18/7/15
f 19/9/15 17/7/15 16/9/15
f 6/10/16 19/9/16 5/9/16
f 19/9/16 6/10/16 12/10/16
f 12/10/16 18/7/16 19/9/16
f 18/7/16 12/10/16 4/11/16
f 18/7/16 4/11/16 2/12/16
f 18/7/16 2/12/16 11/8/16
f 18/7/16 11/8/16 14/7/16
f 14/7/10 17/7/10 18/7/10
f 17/7/10 14/7/10 15/7/10
f 17/7/10 15/7/10 10/7/10
f 10/7/10 15/7/10 9/7/10
f 19/9/10 21/9/10 20/9/10
f 21/9/10 19/9/10 16/9/10
f 21/9/10 16/9/10 22/9/10
f 22/9/10 16/9/10 7/9/10
f 7/9/17 19/9/17 16/9/17
f 19/9/17 7/9/17 5/9/17
g (%ignore)
v 0.5 0.14 -0.5
v 0.5 0.14 0.5
v -0.2 0.14 -0.5
v -0.2 0.14 -0.2
v -0.5 0.14 0.5
v -0.5 0.14 -0.2
vt -19.685 -19.685
vt -19.685 19.685
vt 7.874 -19.685
vt 7.874 -7.874
vt 19.685 19.685
vt 19.685 -7.874
usemtl Water
f 25/15/10 24/14/10 23/13/10
f 24/14/10 25/15/10 26/16/10
f 24/14/10 26/16/10 27/17/10
f 27/17/10 26/16/10 28/18/10
f 23/13/17 24/14/17 25/15/17
f 26/16/17 25/15/17 24/14/17
f 27/17/17 26/16/17 24/14/17
f 28/18/17 26/16/17 27/17/17
