mtllib town_wall-doorway-square-wide-curved.mtl
g wall-doorway-square-wide-curved
v 0.5 1 -0.5
v 0.5 1 -0.4
v 0.4 1 -0.5
v 0.4 1 -0.4
v 0.5 0 -0.4
v 0.5 0 -0.5
v 0.4 0 -0.4
v 0.4 0 -0.5
v 0.425 0 -0.4
v 0.425 1 -0.4
v 0.425 0 -0.3
v 0.425 0.65 -0.3
v 0.425 0.67611 -0.29829
v 0.425 0.70176 -0.29319
v 0.425 0.72654 -0.28478
v 0.425 0.75 -0.27321
v 0.425 0.77175 -0.25867
v 0.425 0.79142 -0.24142
v 0.425 0.80867 -0.22175
v 0.425 0.82321 -0.2
v 0.425 0.83478 -0.17654
v 0.425 0.84319 -0.15176
v 0.425 1 0.5
v 0.425 0.84829 -0.12611
v 0.425 0.85 -0.1
v 0.425 0.85 0.5
v 0.475 0.65 -0.3
v 0.475 6.4934e-18 -0.4
v 0.475 6.4934e-18 -0.3
v 0.475 0.67611 -0.29829
v 0.475 1 -0.4
v 0.475 0.70176 -0.29319
v 0.475 0.72654 -0.28478
v 0.475 0.75 -0.27321
v 0.475 0.77175 -0.25867
v 0.475 0.79142 -0.24142
v 0.475 0.80867 -0.22175
v 0.475 0.82321 -0.2
v 0.475 0.83478 -0.17654
v 0.475 0.84319 -0.15176
v 0.475 1 0.5
v 0.475 0.84829 -0.12611
v 0.475 0.85 -0.1
v 0.475 0.85 0.5
v 0.4 0 -0.3
v 0.4 0.65 -0.3
v 0.4 0 -0.2
v 0.4 0.67611 -0.29829
v 0.4 0.70176 -0.29319
v 0.4 0.72654 -0.28478
v 0.4 0.75 -0.27321
v 0.4 0.77175 -0.25867
v 0.4 0.79142 -0.24142
v 0.4 0.80867 -0.22175
v 0.4 0.82321 -0.2
v 0.4 0.65 -0.2
v 0.4 0.66305 -0.19914
v 0.4 0.83478 -0.17654
v 0.4 0.67588 -0.19659
v 0.4 0.68827 -0.19239
v 0.4 0.7 -0.1866
v 0.4 0.71088 -0.17934
v 0.4 0.72071 -0.17071
v 0.4 0.84319 -0.15176
v 0.4 0.72934 -0.16088
v 0.4 0.7366 -0.15
v 0.4 0.84829 -0.12611
v 0.4 0.74239 -0.13827
v 0.4 0.74659 -0.12588
v 0.4 0.85 -0.1
v 0.4 0.74914 -0.11305
v 0.4 0.75 -0.1
v 0.4 0.75 0.5
v 0.4 0.85 0.5
v 0.5 0.75 0.5
v 0.5 0.85 0.5
v 0.5 0.75 -0.1
v 0.5 0.85 -0.1
v 0.5 0.74914 -0.11305
v 0.5 0.74659 -0.12588
v 0.5 0.84829 -0.12611
v 0.5 0.74239 -0.13827
v 0.5 0.7366 -0.15
v 0.5 0.84319 -0.15176
v 0.5 0.72934 -0.16088
v 0.5 0.72071 -0.17071
v 0.5 0.83478 -0.17654
v 0.5 0.71088 -0.17934
v 0.5 0.7 -0.1866
v 0.5 0.68827 -0.19239
v 0.5 0.67588 -0.19659
v 0.5 0.66305 -0.19914
v 0.5 0.82321 -0.2
v 0.5 0.65 -0.2
v 0.5 1.8234e-17 -0.2
v 0.5 0.80867 -0.22175
v 0.5 0.79142 -0.24142
v 0.5 0.77175 -0.25867
v 0.5 0.75 -0.27321
v 0.5 0.72654 -0.28478
v 0.5 0.70176 -0.29319
v 0.5 0.67611 -0.29829
v 0.5 1.8234e-17 -0.3
v 0.5 0.65 -0.3
vn 0 1 0
vn 0 -1 0
vn 0 0 -1
vn -1 0 0
vn 0 0 1
vn 1 0 0
vn 0 -0.032719 0.99946
vn 0 -0.13053 0.99144
vn 0 -0.25882 0.96593
vn 0 -0.38268 0.92388
vn 0 -0.5 0.86603
vn 0 -0.60876 0.79335
vn 0 -0.70711 0.70711
vn 0 -0.79335 0.60876
vn 0 -0.86603 0.5
vn 0 -0.92388 0.38268
vn 0 -0.96593 0.25882
vn 0 -0.99144 0.13053
vn 0 -0.99946 0.032719
vn 0 0.99946 -0.032719
vn 0 0.99144 -0.13053
vn 0 0.96593 -0.25882
vn 0 0.92388 -0.38268
vn 0 0.86603 -0.5
vn 0 0.79335 -0.60876
vn 0 0.70711 -0.70711
vn 0 0.60876 -0.79335
vn 0 0.5 -0.86603
vn 0 0.38268 -0.92388
vn 0 0.25882 -0.96593
vn 0 0.13053 -0.99144
vn 0 0.032719 -0.99946
vt 0.59375 0.175
vt 0.59375 0.075
vt 0.21875 0.325
vt 0.21875 0.425
vt 0.21875 0.39
vt 0.21875 0.39261
vt 0.21875 0.39518
vt 0.21875 0.39765
vt 0.21875 0.4
vt 0.21875 0.40218
vt 0.21875 0.40414
vt 0.21875 0.40587
vt 0.21875 0.40732
vt 0.21875 0.40848
vt 0.21875 0.40932
vt 0.21875 0.40983
vt 0.21875 0.41
vt 0.96875 0.075
vt 0.96875 0.15147
vt 0.96875 0.15454
vt 0.96875 0.15756
vt 0.96875 0.16047
vt 0.96875 0.16324
vt 0.96875 0.16579
vt 0.96875 0.16811
vt 0.96875 0.17014
vt 0.96875 0.17185
vt 0.96875 0.15301
vt 0.96875 0.17321
vt 0.96875 0.15452
vt 0.96875 0.15597
vt 0.96875 0.15735
vt 0.96875 0.15863
vt 0.96875 0.15979
vt 0.96875 0.1742
vt 0.96875 0.1608
vt 0.96875 0.16166
vt 0.96875 0.1748
vt 0.96875 0.16234
vt 0.96875 0.16283
vt 0.96875 0.175
vt 0.96875 0.16313
usemtl colormap
f 3/1/1 2/1/1 1/1/1
f 2/1/1 3/1/1 4/1/1
f 7/2/2 6/2/2 5/2/2
f 6/2/2 7/2/2 8/2/2
f 3/1/3 6/2/3 8/2/3
f 6/2/3 3/1/3 1/1/3
f 7/2/4 3/1/4 8/2/4
f 3/1/4 7/2/4 4/1/4
f 2/1/5 7/2/5 5/2/5
f 7/2/5 2/1/5 4/1/5
f 2/1/6 6/2/6 1/1/6
f 6/2/6 2/1/6 5/2/6
f 11/3/4 10/4/4 9/3/4
f 10/4/4 11/3/4 12/5/4
f 10/4/4 12/5/4 13/6/4
f 10/4/4 13/6/4 14/7/4
f 10/4/4 14/7/4 15/8/4
f 10/4/4 15/8/4 16/9/4
f 10/4/4 16/9/4 17/10/4
f 10/4/4 17/10/4 18/11/4
f 10/4/4 18/11/4 19/12/4
f 10/4/4 19/12/4 20/13/4
f 10/4/4 20/13/4 21/14/4
f 10/4/4 21/14/4 22/15/4
f 10/4/4 22/15/4 23/4/4
f 23/4/4 22/15/4 24/16/4
f 23/4/4 24/16/4 25/17/4
f 23/4/4 25/17/4 26/17/4
f 29/3/6 28/3/6 27/5/6
f 28/3/6 30/6/6 27/5/6
f 31/4/6 30/6/6 28/3/6
f 30/6/6 31/4/6 32/7/6
f 32/7/6 31/4/6 33/8/6
f 33/8/6 31/4/6 34/9/6
f 34/9/6 31/4/6 35/10/6
f 35/10/6 31/4/6 36/11/6
f 36/11/6 31/4/6 37/12/6
f 37/12/6 31/4/6 38/13/6
f 38/13/6 31/4/6 39/14/6
f 39/14/6 31/4/6 40/15/6
f 40/15/6 31/4/6 41/4/6
f 40/15/6 41/4/6 42/16/6
f 42/16/6 41/4/6 43/17/6
f 43/17/6 41/4/6 44/17/6
f 41/4/5 26/17/5 44/17/5
f 26/17/5 41/4/5 23/4/5
f 10/4/1 41/4/1 31/4/1
f 41/4/1 10/4/1 23/4/1
f 11/3/2 28/3/2 29/3/2
f 28/3/2 11/3/2 9/3/2
f 47/18/4 46/19/4 45/18/4
f 46/19/4 47/18/4 48/20/4
f 48/20/4 47/18/4 49/21/4
f 49/21/4 47/18/4 50/22/4
f 50/22/4 47/18/4 51/23/4
f 51/23/4 47/18/4 52/24/4
f 52/24/4 47/18/4 53/25/4
f 53/25/4 47/18/4 54/26/4
f 54/26/4 47/18/4 55/27/4
f 55/27/4 47/18/4 56/19/4
f 55/27/4 56/19/4 57/28/4
f 55/27/4 57/28/4 58/29/4
f 58/29/4 57/28/4 59/30/4
f 58/29/4 59/30/4 60/31/4
f 58/29/4 60/31/4 61/32/4
f 58/29/4 61/32/4 62/33/4
f 58/29/4 62/33/4 63/34/4
f 58/29/4 63/34/4 64/35/4
f 64/35/4 63/34/4 65/36/4
f 64/35/4 65/36/4 66/37/4
f 64/35/4 66/37/4 67/38/4
f 67/38/4 66/37/4 68/39/4
f 67/38/4 68/39/4 69/40/4
f 67/38/4 69/40/4 70/41/4
f 70/41/4 69/40/4 71/42/4
f 70/41/4 71/42/4 72/23/4
f 70/41/4 72/23/4 73/23/4
f 70/41/4 73/23/4 74/41/4
f 77/23/6 76/41/6 75/23/6
f 77/23/6 78/41/6 76/41/6
f 79/42/6 78/41/6 77/23/6
f 80/40/6 78/41/6 79/42/6
f 80/40/6 81/38/6 78/41/6
f 82/39/6 81/38/6 80/40/6
f 83/37/6 81/38/6 82/39/6
f 83/37/6 84/35/6 81/38/6
f 85/36/6 84/35/6 83/37/6
f 86/34/6 84/35/6 85/36/6
f 86/34/6 87/29/6 84/35/6
f 88/33/6 87/29/6 86/34/6
f 89/32/6 87/29/6 88/33/6
f 90/31/6 87/29/6 89/32/6
f 91/30/6 87/29/6 90/31/6
f 92/28/6 87/29/6 91/30/6
f 92/28/6 93/27/6 87/29/6
f 93/27/6 92/28/6 94/19/6
f 95/18/6 93/27/6 94/19/6
f 95/18/6 96/26/6 93/27/6
f 95/18/6 97/25/6 96/26/6
f 95/18/6 98/24/6 97/25/6
f 95/18/6 99/23/6 98/24/6
f 95/18/6 100/22/6 99/23/6
f 95/18/6 101/21/6 100/22/6
f 95/18/6 102/20/6 101/21/6
f 103/18/6 102/20/6 95/18/6
f 102/20/6 103/18/6 104/19/6
f 95/18/5 56/19/7 47/18/5
f 56/19/7 95/18/5 94/19/7
f 92/28/8 56/19/7 94/19/7
f 56/19/7 92/28/8 57/28/8
f 91/30/9 57/28/8 92/28/8
f 57/28/8 91/30/9 59/30/9
f 90/31/10 59/30/9 91/30/9
f 59/30/9 90/31/10 60/31/10
f 89/32/11 60/31/10 90/31/10
f 60/31/10 89/32/11 61/32/11
f 88/33/12 61/32/11 89/32/11
f 61/32/11 88/33/12 62/33/12
f 86/34/13 62/33/12 88/33/12
f 62/33/12 86/34/13 63/34/13
f 65/36/14 86/34/13 85/36/14
f 86/34/13 65/36/14 63/34/13
f 66/37/15 85/36/14 83/37/15
f 85/36/14 66/37/15 65/36/14
f 68/39/16 83/37/15 82/39/16
f 83/37/15 68/39/16 66/37/15
f 69/40/17 82/39/16 80/40/17
f 82/39/16 69/40/17 68/39/16
f 71/42/18 80/40/17 79/42/18
f 80/40/17 71/42/18 69/40/17
f 72/23/19 79/42/18 77/23/19
f 79/42/18 72/23/19 71/42/18
f 73/23/2 77/23/19 75/23/2
f 77/23/19 73/23/2 72/23/19
f 76/41/5 73/23/5 75/23/5
f 73/23/5 76/41/5 74/41/5
f 78/41/20 74/41/1 76/41/1
f 74/41/1 78/41/20 70/41/20
f 67/38/21 78/41/20 81/38/21
f 78/41/20 67/38/21 70/41/20
f 64/35/22 81/38/21 84/35/22
f 81/38/21 64/35/22 67/38/21
f 58/29/23 84/35/22 87/29/23
f 84/35/22 58/29/23 64/35/22
f 55/27/24 87/29/23 93/27/24
f 87/29/23 55/27/24 58/29/23
f 54/26/25 93/27/24 96/26/25
f 93/27/24 54/26/25 55/27/24
f 53/25/26 96/26/25 97/25/26
f 96/26/25 53/25/26 54/26/25
f 53/25/26 98/24/27 52/24/27
f 98/24/27 53/25/26 97/25/26
f 52/24/27 99/23/28 51/23/28
f 99/23/28 52/24/27 98/24/27
f 51/23/28 100/22/29 50/22/29
f 100/22/29 51/23/28 99/23/28
f 50/22/29 101/21/30 49/21/30
f 101/21/30 50/22/29 100/22/29
f 49/21/30 102/20/31 48/20/31
f 102/20/31 49/21/30 101/21/30
f 48/20/31 104/19/32 46/19/32
f 104/19/32 48/20/31 102/20/31
f 46/19/32 103/18/3 45/18/3
f 103/18/3 46/19/32 104/19/32
f 47/18/2 103/18/2 95/18/2
f 103/18/2 47/18/2 45/18/2
g wall-doorway-square-wide-curved
usemtl colormap
f 3/1/1 2/1/1 1/1/1
f 2/1/1 3/1/1 4/1/1
f 7/2/2 6/2/2 5/2/2
f 6/2/2 7/2/2 8/2/2
f 3/1/3 6/2/3 8/2/3
f 6/2/3 3/1/3 1/1/3
f 7/2/4 3/1/4 8/2/4
f 3/1/4 7/2/4 4/1/4
f 2/1/5 7/2/5 5/2/5
f 7/2/5 2/1/5 4/1/5
f 2/1/6 6/2/6 1/1/6
f 6/2/6 2/1/6 5/2/6
f 11/3/4 10/4/4 9/3/4
f 10/4/4 11/3/4 12/5/4
f 10/4/4 12/5/4 13/6/4
f 10/4/4 13/6/4 14/7/4
f 10/4/4 14/7/4 15/8/4
f 10/4/4 15/8/4 16/9/4
f 10/4/4 16/9/4 17/10/4
f 10/4/4 17/10/4 18/11/4
f 10/4/4 18/11/4 19/12/4
f 10/4/4 19/12/4 20/13/4
f 10/4/4 20/13/4 21/14/4
f 10/4/4 21/14/4 22/15/4
f 10/4/4 22/15/4 23/4/4
f 23/4/4 22/15/4 24/16/4
f 23/4/4 24/16/4 25/17/4
f 23/4/4 25/17/4 26/17/4
f 29/3/6 28/3/6 27/5/6
f 28/3/6 30/6/6 27/5/6
f 31/4/6 30/6/6 28/3/6
f 30/6/6 31/4/6 32/7/6
f 32/7/6 31/4/6 33/8/6
f 33/8/6 31/4/6 34/9/6
f 34/9/6 31/4/6 35/10/6
f 35/10/6 31/4/6 36/11/6
f 36/11/6 31/4/6 37/12/6
f 37/12/6 31/4/6 38/13/6
f 38/13/6 31/4/6 39/14/6
f 39/14/6 31/4/6 40/15/6
f 40/15/6 31/4/6 41/4/6
f 40/15/6 41/4/6 42/16/6
f 42/16/6 41/4/6 43/17/6
f 43/17/6 41/4/6 44/17/6
f 41/4/5 26/17/5 44/17/5
f 26/17/5 41/4/5 23/4/5
f 10/4/1 41/4/1 31/4/1
f 41/4/1 10/4/1 23/4/1
f 11/3/2 28/3/2 29/3/2
f 28/3/2 11/3/2 9/3/2
f 47/18/4 46/19/4 45/18/4
f 46/19/4 47/18/4 48/20/4
f 48/20/4 47/18/4 49/21/4
f 49/21/4 47/18/4 50/22/4
f 50/22/4 47/18/4 51/23/4
f 51/23/4 47/18/4 52/24/4
f 52/24/4 47/18/4 53/25/4
f 53/25/4 47/18/4 54/26/4
f 54/26/4 47/18/4 55/27/4
f 55/27/4 47/18/4 56/19/4
f 55/27/4 56/19/4 57/28/4
f 55/27/4 57/28/4 58/29/4
f 58/29/4 57/28/4 59/30/4
f 58/29/4 59/30/4 60/31/4
f 58/29/4 60/31/4 61/32/4
f 58/29/4 61/32/4 62/33/4
f 58/29/4 62/33/4 63/34/4
f 58/29/4 63/34/4 64/35/4
f 64/35/4 63/34/4 65/36/4
f 64/35/4 65/36/4 66/37/4
f 64/35/4 66/37/4 67/38/4
f 67/38/4 66/37/4 68/39/4
f 67/38/4 68/39/4 69/40/4
f 67/38/4 69/40/4 70/41/4
f 70/41/4 69/40/4 71/42/4
f 70/41/4 71/42/4 72/23/4
f 70/41/4 72/23/4 73/23/4
f 70/41/4 73/23/4 74/41/4
f 77/23/6 76/41/6 75/23/6
f 77/23/6 78/41/6 76/41/6
f 79/42/6 78/41/6 77/23/6
f 80/40/6 78/41/6 79/42/6
f 80/40/6 81/38/6 78/41/6
f 82/39/6 81/38/6 80/40/6
f 83/37/6 81/38/6 82/39/6
f 83/37/6 84/35/6 81/38/6
f 85/36/6 84/35/6 83/37/6
f 86/34/6 84/35/6 85/36/6
f 86/34/6 87/29/6 84/35/6
f 88/33/6 87/29/6 86/34/6
f 89/32/6 87/29/6 88/33/6
f 90/31/6 87/29/6 89/32/6
f 91/30/6 87/29/6 90/31/6
f 92/28/6 87/29/6 91/30/6
f 92/28/6 93/27/6 87/29/6
f 93/27/6 92/28/6 94/19/6
f 95/18/6 93/27/6 94/19/6
f 95/18/6 96/26/6 93/27/6
f 95/18/6 97/25/6 96/26/6
f 95/18/6 98/24/6 97/25/6
f 95/18/6 99/23/6 98/24/6
f 95/18/6 100/22/6 99/23/6
f 95/18/6 101/21/6 100/22/6
f 95/18/6 102/20/6 101/21/6
f 103/18/6 102/20/6 95/18/6
f 102/20/6 103/18/6 104/19/6
f 95/18/5 56/19/7 47/18/5
f 56/19/7 95/18/5 94/19/7
f 92/28/8 56/19/7 94/19/7
f 56/19/7 92/28/8 57/28/8
f 91/30/9 57/28/8 92/28/8
f 57/28/8 91/30/9 59/30/9
f 90/31/10 59/30/9 91/30/9
f 59/30/9 90/31/10 60/31/10
f 89/32/11 60/31/10 90/31/10
f 60/31/10 89/32/11 61/32/11
f 88/33/12 61/32/11 89/32/11
f 61/32/11 88/33/12 62/33/12
f 86/34/13 62/33/12 88/33/12
f 62/33/12 86/34/13 63/34/13
f 65/36/14 86/34/13 85/36/14
f 86/34/13 65/36/14 63/34/13
f 66/37/15 85/36/14 83/37/15
f 85/36/14 66/37/15 65/36/14
f 68/39/16 83/37/15 82/39/16
f 83/37/15 68/39/16 66/37/15
f 69/40/17 82/39/16 80/40/17
f 82/39/16 69/40/17 68/39/16
f 71/42/18 80/40/17 79/42/18
f 80/40/17 71/42/18 69/40/17
f 72/23/19 79/42/18 77/23/19
f 79/42/18 72/23/19 71/42/18
f 73/23/2 77/23/19 75/23/2
f 77/23/19 73/23/2 72/23/19
f 76/41/5 73/23/5 75/23/5
f 73/23/5 76/41/5 74/41/5
f 78/41/20 74/41/1 76/41/1
f 74/41/1 78/41/20 70/41/20
f 67/38/21 78/41/20 81/38/21
f 78/41/20 67/38/21 70/41/20
f 64/35/22 81/38/21 84/35/22
f 81/38/21 64/35/22 67/38/21
f 58/29/23 84/35/22 87/29/23
f 84/35/22 58/29/23 64/35/22
f 55/27/24 87/29/23 93/27/24
f 87/29/23 55/27/24 58/29/23
f 54/26/25 93/27/24 96/26/25
f 93/27/24 54/26/25 55/27/24
f 53/25/26 96/26/25 97/25/26
f 96/26/25 53/25/26 54/26/25
f 53/25/26 98/24/27 52/24/27
f 98/24/27 53/25/26 97/25/26
f 52/24/27 99/23/28 51/23/28
f 99/23/28 52/24/27 98/24/27
f 51/23/28 100/22/29 50/22/29
f 100/22/29 51/23/28 99/23/28
f 50/22/29 101/21/30 49/21/30
f 101/21/30 50/22/29 100/22/29
f 49/21/30 102/20/31 48/20/31
f 102/20/31 49/21/30 101/21/30
f 48/20/31 104/19/32 46/19/32
f 104/19/32 48/20/31 102/20/31
f 46/19/32 103/18/3 45/18/3
f 103/18/3 46/19/32 104/19/32
f 47/18/2 103/18/2 95/18/2
f 103/18/2 47/18/2 45/18/2
