mtllib town_roof-high-point.mtl
g roof-high-point
v 0.1375 1 0.1375
v 0.49844 0.125 0.45469
v 0.45469 0.125 0.49844
v -0.49844 0.125 -0.45469
v -0.45469 0.125 -0.49844
v -0.1375 1 -0.1375
v -0.45469 0.125 0.49844
v -0.49844 0.125 0.45469
v -0.1375 1 0.1375
v 0.45469 0.125 -0.49844
v 0.49844 0.125 -0.45469
v 0.1375 1 -0.1375
v 0.06875 0.95 -0.06875
v 0.06875 0.95 0.06875
v -0.06875 0.95 -0.06875
v -0.06875 0.95 0.06875
v 0.55 0 0.5
v 0.5 0 0.55
v -0.55 0 -0.5
v -0.5 0 -0.55
v 0.55 0 -0.5
v 0.5 0 -0.55
v -0.5 0 0.55
v -0.55 0 0.5
vn 0.61098 0.5034 0.61098
vn 0.80641 0.46505 0.36527
vn 0.36527 0.46505 0.80641
vn -0.80641 0.46505 -0.36527
vn -0.36527 0.46505 -0.80641
vn -0.61098 0.5034 -0.61098
vn -0.36527 0.46505 0.80641
vn -0.80641 0.46505 0.36527
vn -0.61098 0.5034 0.61098
vn 0.36527 0.46505 -0.80641
vn 0.80641 0.46505 -0.36527
vn 0.61098 0.5034 -0.61098
vn 0 1 0
vn -0.32338 0.8893 -0.32338
vn 0.32338 0.8893 -0.32338
vn -0.32338 0.8893 0.32338
vn 0.32338 0.8893 0.32338
vn 0.83723 0.45521 0.30303
vn 0.30303 0.45521 0.83723
vn -0.83723 0.45521 -0.30303
vn -0.30303 0.45521 -0.83723
vn 0 -1 0
vn 0.83723 0.45521 -0.30303
vn -0.30303 0.45521 0.83723
vn -0.83723 0.45521 0.30303
vn 0.30303 0.45521 -0.83723
vt 0.09375 0.225
vt 0.09375 0.025
vt 0.09375 0.21357
vt 0.09375 0.175
vt 0.09375 0.075
usemtl colormap
f 3/2/3 2/2/2 1/1/1
f 6/1/6 5/2/5 4/2/4
f 9/1/9 8/2/8 7/2/7
f 12/1/12 11/2/11 10/2/10
f 5/2/5 12/1/12 10/2/10
f 12/1/12 5/2/5 6/1/6
f 8/2/8 6/1/6 4/2/4
f 6/1/6 8/2/8 9/1/9
f 15/3/13 14/3/13 13/3/13
f 14/3/13 15/3/13 16/3/13
f 14/3/14 9/1/15 1/1/14
f 9/1/15 14/3/14 16/3/15
f 13/3/16 1/1/14 12/1/16
f 1/1/14 13/3/16 14/3/14
f 3/2/3 9/1/9 7/2/7
f 9/1/9 3/2/3 1/1/1
f 12/1/12 2/2/2 11/2/11
f 2/2/2 12/1/12 1/1/1
f 6/1/17 13/3/16 12/1/16
f 13/3/16 6/1/17 15/3/17
f 6/1/17 16/3/15 15/3/17
f 16/3/15 6/1/17 9/1/15
f 3/4/19 17/5/2 2/4/18
f 17/5/2 3/4/19 18/5/3
f 4/4/20 20/5/5 19/5/4
f 20/5/5 4/4/20 5/4/21
f 18/5/22 21/5/22 17/5/22
f 21/5/22 18/5/22 22/5/22
f 22/5/22 18/5/22 23/5/22
f 22/5/22 23/5/22 20/5/22
f 20/5/22 23/5/22 24/5/22
f 20/5/22 24/5/22 19/5/22
f 11/4/23 17/5/2 21/5/11
f 17/5/2 11/4/23 2/4/18
f 7/4/24 24/5/8 23/5/7
f 24/5/8 7/4/24 8/4/25
f 5/4/21 22/5/10 20/5/5
f 22/5/10 5/4/21 10/4/26
f 10/4/26 21/5/11 22/5/10
f 21/5/11 10/4/26 11/4/23
f 24/5/8 4/4/20 19/5/4
f 4/4/20 24/5/8 8/4/25
f 3/4/19 23/5/7 18/5/3
f 23/5/7 3/4/19 7/4/24
g roof-high-point
usemtl colormap
f 3/2/3 2/2/2 1/1/1
f 6/1/6 5/2/5 4/2/4
f 9/1/9 8/2/8 7/2/7
f 12/1/12 11/2/11 10/2/10
f 5/2/5 12/1/12 10/2/10
f 12/1/12 5/2/5 6/1/6
f 8/2/8 6/1/6 4/2/4
f 6/1/6 8/2/8 9/1/9
f 15/3/13 14/3/13 13/3/13
f 14/3/13 15/3/13 16/3/13
f 14/3/14 9/1/15 1/1/14
f 9/1/15 14/3/14 16/3/15
f 13/3/16 1/1/14 12/1/16
f 1/1/14 13/3/16 14/3/14
f 3/2/3 9/1/9 7/2/7
f 9/1/9 3/2/3 1/1/1
f 12/1/12 2/2/2 11/2/11
f 2/2/2 12/1/12 1/1/1
f 6/1/17 13/3/16 12/1/16
f 13/3/16 6/1/17 15/3/17
f 6/1/17 16/3/15 15/3/17
f 16/3/15 6/1/17 9/1/15
f 3/4/19 17/5/2 2/4/18
f 17/5/2 3/4/19 18/5/3
f 4/4/20 20/5/5 19/5/4
f 20/5/5 4/4/20 5/4/21
f 18/5/22 21/5/22 17/5/22
f 21/5/22 18/5/22 22/5/22
f 22/5/22 18/5/22 23/5/22
f 22/5/22 23/5/22 20/5/22
f 20/5/22 23/5/22 24/5/22
f 20/5/22 24/5/22 19/5/22
f 11/4/23 17/5/2 21/5/11
f 17/5/2 11/4/23 2/4/18
f 7/4/24 24/5/8 23/5/7
f 24/5/8 7/4/24 8/4/25
f 5/4/21 22/5/10 20/5/5
f 22/5/10 5/4/21 10/4/26
f 10/4/26 21/5/11 22/5/10
f 21/5/11 10/4/26 11/4/23
f 24/5/8 4/4/20 19/5/4
f 4/4/20 24/5/8 8/4/25
f 3/4/19 23/5/7 18/5/3
f 23/5/7 3/4/19 7/4/24
