mtllib town_stairs-stone-round.mtl
g stairs-stone-round
v 0.055433 1 -0.055433
v 0.055433 1 0.022961
v -0.055433 1 -0.055433
v 0.022961 1 0.055433
v -0.022961 1 0.055433
v -0.055433 1 0.022961
v 0.055433 0 0.022961
v 0.055433 0 -0.055433
v 0.022961 3.6096e-16 0.055433
v -0.055433 3.6096e-16 -0.055433
v -0.022961 3.6096e-16 0.055433
v -0.055433 3.6096e-16 0.022961
v 0.39417 0.84615 0.19955
v 0.4308 0.84615 0.095435
v 0.055433 0.84615 0.022961
v -0.19115 0.30769 0.38577
v -0.022961 0.30769 0.055433
v -0.28609 0.30769 0.32696
v 0.4308 0.92308 0.095435
v 0.39417 0.92308 0.19955
v 0.055433 0.92308 0.022961
v 0.33536 0.84615 0.29449
v -0.35777 0.15385 0.2312
v -0.055433 0.15385 0.022961
v -0.40549 0.15385 0.13167
v 0.2396 0.69231 0.36617
v 0.14007 0.69231 0.41389
v 0.022961 0.69231 0.055433
v 0.14007 0.61538 0.41389
v 0.031361 0.61538 0.43943
v 0.022961 0.61538 0.055433
v -0.055433 0.23077 0.022961
v -0.35777 0.23077 0.2312
v -0.40549 0.23077 0.13167
v 0.33536 0.76923 0.29449
v 0.39417 0.76923 0.19955
v 0.055433 0.76923 0.022961
v 0.031361 0.53846 0.43943
v 0.14007 0.53846 0.41389
v 0.022961 0.53846 0.055433
v 0.2396 0.61538 0.36617
v -0.022961 0.38462 0.055433
v -0.19115 0.38462 0.38577
v -0.28609 0.38462 0.32696
v -0.40549 0.076923 0.13167
v -0.055433 0.076923 0.022961
v -0.43103 0.076923 0.022961
v -0.43103 0.15385 0.022961
v -0.022961 0.46154 0.055433
v -0.087035 0.46154 0.4224
v -0.19115 0.46154 0.38577
v -0.087035 0.38462 0.4224
v 0.031361 0.46154 0.43943
v 0.022961 0.46154 0.055433
v 0.4308 1 -0.055433
v 0.4308 1 0.095435
v 0.055433 1 -0.055433
v 0.055433 1 0.022961
v -0.087035 0.53846 0.4224
v -0.022961 0.53846 0.055433
v -0.43103 0 -0.055433
v -0.055433 0 -0.055433
v -0.43103 0.076923 -0.055433
v -0.055433 0.076923 -0.055433
v 0.055433 0.92308 -0.055433
v 0.4308 0.92308 -0.055433
v 0.33536 0.69231 0.29449
v 0.055433 0.69231 0.022961
v 0.2396 0.76923 0.36617
v -0.055433 0 0.022961
v -0.43103 0 0.022961
v 0.022961 0.76923 0.055433
v -0.35777 0.30769 0.2312
v -0.055433 0.30769 0.022961
v -0.022961 0.23077 0.055433
v -0.28609 0.23077 0.32696
vn 0 1 0
vn 0 -1 0
vn -1 0 0
vn -0.92388 0 0.38268
vn 0.92388 0 -0.38268
vn 1 0 0
vn -0.38268 0 0.92388
vn 0.38268 0 -0.92388
vn 0.38268 0 0.92388
vn -0.38268 0 -0.92388
vn 0.92388 0 0.38268
vn -0.92388 0 -0.38268
vn 0 0 -1
vn 0 0 1
vn -0.342 0.67281 0.65602
vn -0.45461 0.18145 0.87201
vn -0.52717 0.65324 0.54348
vn -0.68472 0.18131 0.7059
vn -0.70079 0.67562 0.22896
vn -0.93443 0.1834 0.30529
vn -0.75539 0.65507 0.016524
vn -0.98271 0.18392 0.021497
vn -0.29125 0.18882 -0.93783
vn -0.21968 0.67185 -0.70736
vn -0.70548 0.18683 -0.68366
vn -0.54365 0.65337 -0.52683
vn 0 0.18827 -0.98212
vn 0 0.649 -0.76079
vn -0.87551 0.18644 -0.44578
vn -0.65727 0.67528 -0.33466
vn 0.94332 0 0.3319
vn -0.14242 0.66003 0.73762
vn -0.12617 0.74636 0.65348
vn -0.70325 0.70026 -0.12279
vn -0.65934 0.74298 -0.11512
vn 0 0.70711 -0.70711
vn 0.18957 0 -0.98187
vn 0.59922 0 0.80058
vn 0.29658 0 0.95501
vn 0.69626 0 -0.71779
vn -0.69626 0 0.71779
vn -0.95055 0 0.31056
vn 0.95055 0 -0.31056
vn -0.46228 0 0.88673
vn 0.99976 0 -0.02187
vn -0.82031 0 0.57191
vn -0.54841 0.74368 0.38234
vn -0.5863 0.6994 0.40876
vn -0.99976 0 0.02187
vn -0.14238 0 0.98981
vn -0.52659 0 0.85012
vn -0.89114 0 -0.45373
vn -0.9851 0 -0.172
vn -0.56724 0 -0.82355
vn -0.40616 0.69807 -0.58968
vn -0.37854 0.74476 -0.54958
vn 0.22876 0 0.97348
vn -0.97348 0 0.22876
vn 0.9851 0 0.172
vn 0.85012 0 0.52659
vn -0.18957 0 0.98187
vn 0.43234 0 0.90171
vn -0.90171 0 0.43234
vn 0.82031 0 -0.57191
vn 0.89114 0 0.45373
vn -0.80058 0 0.59922
vn -0.29658 0 -0.95501
vn -0.3319 0 0.94332
vn 0.46228 0 -0.88673
vn 0.56724 0 0.82355
vn 0.71813 0 0.69591
vn -0.71813 0 -0.69591
vt 0.96875 0.175
vt 0.96875 0.075
vt 0.21875 0.40962
vt 0.21875 0.35577
vt 0.21875 0.41731
vt 0.21875 0.34038
vt 0.21875 0.39423
vt 0.21875 0.38654
vt 0.21875 0.34808
vt 0.21875 0.40192
vt 0.21875 0.37885
vt 0.21875 0.36346
vt 0.21875 0.33269
vt 0.21875 0.37115
vt 0.21875 0.425
vt 0.21875 0.325
usemtl colormap
f 3/1/1 2/1/1 1/1/1
f 2/1/1 3/1/1 4/1/1
f 4/1/1 3/1/1 5/1/1
f 5/1/1 3/1/1 6/1/1
f 1/1/2 2/1/2 3/1/2
f 4/1/2 3/1/2 2/1/2
f 5/1/2 3/1/2 4/1/2
f 6/1/2 3/1/2 5/1/2
f 9/2/2 8/2/2 7/2/2
f 8/2/2 9/2/2 10/2/2
f 10/2/2 9/2/2 11/2/2
f 10/2/2 11/2/2 12/2/2
f 7/2/1 8/2/1 9/2/1
f 10/2/1 9/2/1 8/2/1
f 11/2/1 9/2/1 10/2/1
f 12/2/1 11/2/1 10/2/1
f 12/2/4 3/1/3 10/2/3
f 3/1/3 12/2/4 6/1/4
f 10/2/6 3/1/6 12/2/5
f 6/1/5 12/2/5 3/1/6
f 11/2/7 6/1/4 12/2/4
f 6/1/4 11/2/7 5/1/7
f 12/2/5 6/1/5 11/2/8
f 5/1/8 11/2/8 6/1/5
f 4/1/9 11/2/7 9/2/9
f 11/2/7 4/1/9 5/1/7
f 9/2/10 11/2/8 4/1/10
f 5/1/8 4/1/10 11/2/8
f 2/1/11 9/2/9 7/2/11
f 9/2/9 2/1/11 4/1/9
f 7/2/12 9/2/10 2/1/12
f 4/1/10 2/1/12 9/2/10
f 1/1/6 7/2/11 8/2/6
f 7/2/11 1/1/6 2/1/11
f 8/2/3 7/2/12 1/1/3
f 2/1/12 1/1/3 7/2/12
f 10/2/13 1/1/13 8/2/13
f 1/1/13 10/2/13 3/1/13
f 8/2/14 1/1/14 10/2/14
f 3/1/14 10/2/14 1/1/14
f 15/3/2 14/3/2 13/3/2
f 18/4/2 17/4/2 16/4/2
f 21/5/16 20/5/15 19/5/1
f 15/3/18 22/3/17 13/3/1
f 25/6/2 24/6/2 23/6/2
f 28/7/20 27/7/19 26/7/1
f 31/8/22 30/8/21 29/8/1
f 34/9/24 33/9/1 32/9/23
f 37/10/2 36/10/2 35/10/2
f 40/11/2 39/11/2 38/11/2
f 31/8/2 41/8/2 29/8/2
f 44/12/26 43/12/1 42/12/25
f 47/13/2 46/13/2 45/13/2
f 48/6/28 25/6/1 24/6/27
f 51/14/30 50/14/1 49/14/29
f 43/12/2 42/12/2 52/12/2
f 20/5/31 14/3/31 19/5/31
f 14/3/31 20/5/31 13/3/31
f 50/14/2 54/14/2 53/14/2
f 54/14/2 50/14/2 49/14/2
f 57/15/1 56/15/32 55/15/1
f 56/15/32 57/15/1 58/15/33
f 40/11/1 59/11/34 38/11/1
f 59/11/34 40/11/1 60/11/35
f 63/13/36 62/16/13 61/16/13
f 62/16/13 63/13/36 64/13/36
f 21/5/37 14/3/37 15/3/37
f 14/3/37 21/5/37 19/5/37
f 57/15/13 66/5/13 65/5/13
f 66/5/13 57/15/13 55/15/13
f 26/7/2 68/7/2 67/7/2
f 68/7/2 26/7/2 28/7/2
f 67/7/38 69/10/38 26/7/38
f 69/10/38 67/7/38 35/10/38
f 46/13/39 25/6/39 45/13/39
f 25/6/39 46/13/39 24/6/39
f 46/13/14 71/16/14 70/16/14
f 71/16/14 46/13/14 47/13/14
f 48/6/28 46/13/13 47/13/13
f 46/13/13 48/6/28 24/6/27
f 37/10/40 67/7/40 68/7/40
f 67/7/40 37/10/40 35/10/40
f 22/3/17 37/10/41 35/10/41
f 37/10/41 22/3/17 15/3/18
f 29/8/42 28/7/20 31/8/42
f 28/7/20 29/8/42 27/7/19
f 29/8/43 40/11/43 31/8/43
f 40/11/43 29/8/43 39/11/43
f 20/5/15 15/3/44 13/3/44
f 15/3/44 20/5/15 21/5/16
f 38/11/45 54/14/45 40/11/45
f 54/14/45 38/11/45 53/14/45
f 26/7/46 72/10/47 28/7/46
f 72/10/47 26/7/46 69/10/48
f 56/15/6 66/5/6 55/15/6
f 66/5/6 56/15/6 19/5/6
f 38/11/49 31/8/22 40/11/49
f 31/8/22 38/11/49 30/8/21
f 38/11/50 50/14/50 53/14/50
f 50/14/50 38/11/50 59/11/50
f 43/12/51 18/4/51 16/4/51
f 18/4/51 43/12/51 44/12/51
f 43/12/52 49/14/29 42/12/52
f 49/14/29 43/12/52 51/14/30
f 50/14/53 60/11/35 49/14/53
f 60/11/35 50/14/53 59/11/34
f 73/4/55 32/9/54 33/9/54
f 32/9/54 73/4/55 74/4/56
f 74/4/56 18/4/1 17/4/1
f 18/4/1 74/4/56 73/4/55
f 29/8/57 38/11/57 39/11/57
f 38/11/57 29/8/57 30/8/57
f 45/13/58 48/6/58 47/13/58
f 48/6/58 45/13/58 25/6/58
f 50/14/59 42/12/59 49/14/59
f 42/12/59 50/14/59 52/12/59
f 22/3/60 36/10/60 13/3/60
f 36/10/60 22/3/60 35/10/60
f 56/15/32 21/5/61 19/5/61
f 21/5/61 56/15/32 58/15/33
f 76/9/2 32/9/2 75/9/2
f 32/9/2 76/9/2 33/9/2
f 64/13/36 47/13/1 46/13/1
f 47/13/1 64/13/36 63/13/36
f 37/10/1 69/10/48 35/10/1
f 69/10/48 37/10/1 72/10/47
f 26/7/62 29/8/62 41/8/62
f 29/8/62 26/7/62 27/7/62
f 23/6/63 34/9/63 25/6/63
f 34/9/63 23/6/63 33/9/63
f 19/5/2 65/5/2 66/5/2
f 65/5/2 19/5/2 21/5/2
f 71/16/3 63/13/3 61/16/3
f 63/13/3 71/16/3 47/13/3
f 26/7/64 31/8/64 28/7/64
f 31/8/64 26/7/64 41/8/64
f 43/12/65 17/4/65 42/12/65
f 17/4/65 43/12/65 16/4/65
f 33/9/66 18/4/66 73/4/66
f 18/4/66 33/9/66 76/9/66
f 34/9/24 24/6/67 25/6/67
f 24/6/67 34/9/24 32/9/23
f 50/14/68 43/12/68 52/12/68
f 43/12/68 50/14/68 51/14/68
f 15/3/69 36/10/69 37/10/69
f 36/10/69 15/3/69 13/3/69
f 32/9/70 23/6/70 24/6/70
f 23/6/70 32/9/70 33/9/70
f 18/4/71 75/9/71 17/4/71
f 75/9/71 18/4/71 76/9/71
f 18/4/72 42/12/25 17/4/72
f 42/12/25 18/4/72 44/12/26
f 71/16/2 62/16/2 70/16/2
f 62/16/2 71/16/2 61/16/2
g stairs-stone-round
usemtl colormap
f 3/1/1 2/1/1 1/1/1
f 2/1/1 3/1/1 4/1/1
f 4/1/1 3/1/1 5/1/1
f 5/1/1 3/1/1 6/1/1
f 1/1/2 2/1/2 3/1/2
f 4/1/2 3/1/2 2/1/2
f 5/1/2 3/1/2 4/1/2
f 6/1/2 3/1/2 5/1/2
f 9/2/2 8/2/2 7/2/2
f 8/2/2 9/2/2 10/2/2
f 10/2/2 9/2/2 11/2/2
f 10/2/2 11/2/2 12/2/2
f 7/2/1 8/2/1 9/2/1
f 10/2/1 9/2/1 8/2/1
f 11/2/1 9/2/1 10/2/1
f 12/2/1 11/2/1 10/2/1
f 12/2/4 3/1/3 10/2/3
f 3/1/3 12/2/4 6/1/4
f 10/2/6 3/1/6 12/2/5
f 6/1/5 12/2/5 3/1/6
f 11/2/7 6/1/4 12/2/4
f 6/1/4 11/2/7 5/1/7
f 12/2/5 6/1/5 11/2/8
f 5/1/8 11/2/8 6/1/5
f 4/1/9 11/2/7 9/2/9
f 11/2/7 4/1/9 5/1/7
f 9/2/10 11/2/8 4/1/10
f 5/1/8 4/1/10 11/2/8
f 2/1/11 9/2/9 7/2/11
f 9/2/9 2/1/11 4/1/9
f 7/2/12 9/2/10 2/1/12
f 4/1/10 2/1/12 9/2/10
f 1/1/6 7/2/11 8/2/6
f 7/2/11 1/1/6 2/1/11
f 8/2/3 7/2/12 1/1/3
f 2/1/12 1/1/3 7/2/12
f 10/2/13 1/1/13 8/2/13
f 1/1/13 10/2/13 3/1/13
f 8/2/14 1/1/14 10/2/14
f 3/1/14 10/2/14 1/1/14
f 15/3/2 14/3/2 13/3/2
f 18/4/2 17/4/2 16/4/2
f 21/5/16 20/5/15 19/5/1
f 15/3/18 22/3/17 13/3/1
f 25/6/2 24/6/2 23/6/2
f 28/7/20 27/7/19 26/7/1
f 31/8/22 30/8/21 29/8/1
f 34/9/24 33/9/1 32/9/23
f 37/10/2 36/10/2 35/10/2
f 40/11/2 39/11/2 38/11/2
f 31/8/2 41/8/2 29/8/2
f 44/12/26 43/12/1 42/12/25
f 47/13/2 46/13/2 45/13/2
f 48/6/28 25/6/1 24/6/27
f 51/14/30 50/14/1 49/14/29
f 43/12/2 42/12/2 52/12/2
f 20/5/31 14/3/31 19/5/31
f 14/3/31 20/5/31 13/3/31
f 50/14/2 54/14/2 53/14/2
f 54/14/2 50/14/2 49/14/2
f 57/15/1 56/15/32 55/15/1
f 56/15/32 57/15/1 58/15/33
f 40/11/1 59/11/34 38/11/1
f 59/11/34 40/11/1 60/11/35
f 63/13/36 62/16/13 61/16/13
f 62/16/13 63/13/36 64/13/36
f 21/5/37 14/3/37 15/3/37
f 14/3/37 21/5/37 19/5/37
f 57/15/13 66/5/13 65/5/13
f 66/5/13 57/15/13 55/15/13
f 26/7/2 68/7/2 67/7/2
f 68/7/2 26/7/2 28/7/2
f 67/7/38 69/10/38 26/7/38
f 69/10/38 67/7/38 35/10/38
f 46/13/39 25/6/39 45/13/39
f 25/6/39 46/13/39 24/6/39
f 46/13/14 71/16/14 70/16/14
f 71/16/14 46/13/14 47/13/14
f 48/6/28 46/13/13 47/13/13
f 46/13/13 48/6/28 24/6/27
f 37/10/40 67/7/40 68/7/40
f 67/7/40 37/10/40 35/10/40
f 22/3/17 37/10/41 35/10/41
f 37/10/41 22/3/17 15/3/18
f 29/8/42 28/7/20 31/8/42
f 28/7/20 29/8/42 27/7/19
f 29/8/43 40/11/43 31/8/43
f 40/11/43 29/8/43 39/11/43
f 20/5/15 15/3/44 13/3/44
f 15/3/44 20/5/15 21/5/16
f 38/11/45 54/14/45 40/11/45
f 54/14/45 38/11/45 53/14/45
f 26/7/46 72/10/47 28/7/46
f 72/10/47 26/7/46 69/10/48
f 56/15/6 66/5/6 55/15/6
f 66/5/6 56/15/6 19/5/6
f 38/11/49 31/8/22 40/11/49
f 31/8/22 38/11/49 30/8/21
f 38/11/50 50/14/50 53/14/50
f 50/14/50 38/11/50 59/11/50
f 43/12/51 18/4/51 16/4/51
f 18/4/51 43/12/51 44/12/51
f 43/12/52 49/14/29 42/12/52
f 49/14/29 43/12/52 51/14/30
f 50/14/53 60/11/35 49/14/53
f 60/11/35 50/14/53 59/11/34
f 73/4/55 32/9/54 33/9/54
f 32/9/54 73/4/55 74/4/56
f 74/4/56 18/4/1 17/4/1
f 18/4/1 74/4/56 73/4/55
f 29/8/57 38/11/57 39/11/57
f 38/11/57 29/8/57 30/8/57
f 45/13/58 48/6/58 47/13/58
f 48/6/58 45/13/58 25/6/58
f 50/14/59 42/12/59 49/14/59
f 42/12/59 50/14/59 52/12/59
f 22/3/60 36/10/60 13/3/60
f 36/10/60 22/3/60 35/10/60
f 56/15/32 21/5/61 19/5/61
f 21/5/61 56/15/32 58/15/33
f 76/9/2 32/9/2 75/9/2
f 32/9/2 76/9/2 33/9/2
f 64/13/36 47/13/1 46/13/1
f 47/13/1 64/13/36 63/13/36
f 37/10/1 69/10/48 35/10/1
f 69/10/48 37/10/1 72/10/47
f 26/7/62 29/8/62 41/8/62
f 29/8/62 26/7/62 27/7/62
f 23/6/63 34/9/63 25/6/63
f 34/9/63 23/6/63 33/9/63
f 19/5/2 65/5/2 66/5/2
f 65/5/2 19/5/2 21/5/2
f 71/16/3 63/13/3 61/16/3
f 63/13/3 71/16/3 47/13/3
f 26/7/64 31/8/64 28/7/64
f 31/8/64 26/7/64 41/8/64
f 43/12/65 17/4/65 42/12/65
f 17/4/65 43/12/65 16/4/65
f 33/9/66 18/4/66 73/4/66
f 18/4/66 33/9/66 76/9/66
f 34/9/24 24/6/67 25/6/67
f 24/6/67 34/9/24 32/9/23
f 50/14/68 43/12/68 52/12/68
f 43/12/68 50/14/68 51/14/68
f 15/3/69 36/10/69 37/10/69
f 36/10/69 15/3/69 13/3/69
f 32/9/70 23/6/70 24/6/70
f 23/6/70 32/9/70 33/9/70
f 18/4/71 75/9/71 17/4/71
f 75/9/71 18/4/71 76/9/71
f 18/4/72 42/12/25 17/4/72
f 42/12/25 18/4/72 44/12/26
f 71/16/2 62/16/2 70/16/2
f 62/16/2 71/16/2 61/16/2
