mtllib town_fountain-corner.mtl
g fountain-corner
v -0.4625 0.23 -0.5
v -0.425 0.28 -0.425
v -0.5 0.23 -0.4625
v -0.2 0.28 -0.2
v -0.2 0 -0.2
v -0.2 0.28 0.5
v -0.2 0 0.5
v 0.5 0 -0.2
v 0.5 0.28 -0.2
v -0.5 0 0.5
v -0.5 0 -0.5
v 0.5 0 -0.5
v 0.5 0.28 -0.425
v -0.425 0.28 0.5
v -0.5 0.056 -0.5
v -0.5 0.056 0.5
v 0.5 0 0.5
v 0.5 0.056 -0.5
v -0.4625 0.14 -0.5
v 0.5 0.14 -0.5
v 0.5 0.23 -0.5
v -0.5 0.14 -0.4625
v -0.5 0.14 0.5
v -0.5 0.23 0.5
v -0.47 0.056 0.5
v -0.47 0.112 0.5
v 0.5 0.112 -0.47
v 0.5 0.056 -0.47
v -0.47 0.112 -0.47
v -0.47 0.056 -0.47
vn -0.37629 0.84665 -0.37629
vn 1 0 0
vn 0 0 1
vn 0 -1 0
vn 0 1 0
vn -1 0 0
vn 0 0 -1
vn -0.70711 0 -0.70711
vn 0 0.83205 -0.5547
vn -0.5547 0.83205 0
vn -0.61479 -0.49403 -0.61479
vn -0.91715 -0.39855 0
vn -0.92739 -0.37408 0
vn -0.68232 -0.73106 0
vn 0 -0.39855 -0.91715
vn 0 -0.73106 -0.68232
vn 0 -0.37408 -0.92739
vn -0.30151 0.90453 -0.30151
vn 0 0.70711 -0.70711
vn -0.70711 0.70711 0
vt 0.21875 0.43929
vt 0.21875 0.475
vt 0.21875 0.275
vt 0.21875 0.315
vt 0.21875 0.375
vt 0.21875 0.355
vt 0.96875 0.105
vt 0.96875 0.125
vt 0.96875 0.065
usemtl colormap
f 3/1/1 2/2/1 1/1/1
f 6/2/2 5/3/2 4/2/2
f 5/3/2 6/2/2 7/3/2
f 9/2/3 5/3/3 8/3/3
f 5/3/3 9/2/3 4/2/3
f 10/3/4 5/3/4 7/3/4
f 11/3/4 5/3/4 10/3/4
f 12/3/4 5/3/4 11/3/4
f 5/3/4 12/3/4 8/3/4
f 13/2/5 4/2/5 9/2/5
f 4/2/5 13/2/5 2/2/5
f 4/2/5 2/2/5 6/2/5
f 6/2/5 2/2/5 14/2/5
f 10/3/6 15/4/6 11/3/6
f 15/4/6 10/3/6 16/4/6
f 5/3/5 17/3/5 8/3/5
f 17/3/5 5/3/5 7/3/5
f 15/4/7 12/3/7 11/3/7
f 12/3/7 15/4/7 18/4/7
f 1/1/7 20/5/7 19/5/7
f 20/5/7 1/1/7 21/1/7
f 22/5/8 1/1/8 19/5/8
f 1/1/8 22/5/8 3/1/8
f 23/5/6 3/1/6 22/5/6
f 3/1/6 23/5/6 24/1/6
f 6/2/3 10/3/3 7/3/3
f 10/3/3 6/2/3 25/4/3
f 16/4/3 10/3/3 25/4/3
f 25/4/3 6/2/3 26/6/3
f 26/6/3 6/2/3 23/5/3
f 23/5/3 6/2/3 24/1/3
f 24/1/3 6/2/3 14/2/3
f 13/2/2 20/5/2 21/1/2
f 20/5/2 13/2/2 27/6/2
f 27/6/2 13/2/2 28/4/2
f 8/3/2 28/4/2 13/2/2
f 8/3/2 13/2/2 9/2/2
f 12/3/2 28/4/2 8/3/2
f 28/4/2 12/3/2 18/4/2
f 1/1/9 13/2/9 21/1/9
f 13/2/9 1/1/9 2/2/9
f 3/1/10 14/2/10 2/2/10
f 14/2/10 3/1/10 24/1/10
f 22/8/11 19/8/11 29/7/11
f 23/8/14 29/7/13 26/7/12
f 29/7/13 23/8/14 22/8/14
f 29/7/17 20/8/16 27/7/15
f 20/8/16 29/7/17 19/8/16
f 29/7/17 28/9/19 30/9/18
f 28/9/19 29/7/17 27/7/15
f 15/9/5 28/9/19 18/9/5
f 28/9/19 15/9/5 30/9/18
f 30/9/18 15/9/5 25/9/20
f 25/9/20 15/9/5 16/9/5
f 25/9/20 29/7/13 30/9/18
f 29/7/13 25/9/20 26/7/12
g fountain-corner
usemtl colormap
f 3/1/1 2/2/1 1/1/1
f 6/2/2 5/3/2 4/2/2
f 5/3/2 6/2/2 7/3/2
f 9/2/3 5/3/3 8/3/3
f 5/3/3 9/2/3 4/2/3
f 10/3/4 5/3/4 7/3/4
f 11/3/4 5/3/4 10/3/4
f 12/3/4 5/3/4 11/3/4
f 5/3/4 12/3/4 8/3/4
f 13/2/5 4/2/5 9/2/5
f 4/2/5 13/2/5 2/2/5
f 4/2/5 2/2/5 6/2/5
f 6/2/5 2/2/5 14/2/5
f 10/3/6 15/4/6 11/3/6
f 15/4/6 10/3/6 16/4/6
f 5/3/5 17/3/5 8/3/5
f 17/3/5 5/3/5 7/3/5
f 15/4/7 12/3/7 11/3/7
f 12/3/7 15/4/7 18/4/7
f 1/1/7 20/5/7 19/5/7
f 20/5/7 1/1/7 21/1/7
f 22/5/8 1/1/8 19/5/8
f 1/1/8 22/5/8 3/1/8
f 23/5/6 3/1/6 22/5/6
f 3/1/6 23/5/6 24/1/6
f 6/2/3 10/3/3 7/3/3
f 10/3/3 6/2/3 25/4/3
f 16/4/3 10/3/3 25/4/3
f 25/4/3 6/2/3 26/6/3
f 26/6/3 6/2/3 23/5/3
f 23/5/3 6/2/3 24/1/3
f 24/1/3 6/2/3 14/2/3
f 13/2/2 20/5/2 21/1/2
f 20/5/2 13/2/2 27/6/2
f 27/6/2 13/2/2 28/4/2
f 8/3/2 28/4/2 13/2/2
f 8/3/2 13/2/2 9/2/2
f 12/3/2 28/4/2 8/3/2
f 28/4/2 12/3/2 18/4/2
f 1/1/9 13/2/9 21/1/9
f 13/2/9 1/1/9 2/2/9
f 3/1/10 14/2/10 2/2/10
f 14/2/10 3/1/10 24/1/10
f 22/8/11 19/8/11 29/7/11
f 23/8/14 29/7/13 26/7/12
f 29/7/13 23/8/14 22/8/14
f 29/7/17 20/8/16 27/7/15
f 20/8/16 29/7/17 19/8/16
f 29/7/17 28/9/19 30/9/18
f 28/9/19 29/7/17 27/7/15
f 15/9/5 28/9/19 18/9/5
f 28/9/19 15/9/5 30/9/18
f 30/9/18 15/9/5 25/9/20
f 25/9/20 15/9/5 16/9/5
f 25/9/20 29/7/13 30/9/18
f 29/7/13 25/9/20 26/7/12
g (%ignore)
v 0.5 0.14 -0.2
v 0.5 0.14 0.5
v -0.2 0.14 -0.2
v -0.2 0.14 0.5
vt -13.78 -13.78
vt -13.78 13.78
vt 13.78 -13.78
vt 13.78 13.78
usemtl Water
f 33/12/5 32/11/5 31/10/5
f 32/11/5 33/12/5 34/13/5
f 31/10/4 32/11/4 33/12/4
f 34/13/4 33/12/4 32/11/4
