mtllib town_fountain-corner-inner.mtl
g fountain-corner-inner
v -0.47102 0.112 -0.49224
v -0.47026 0.112 -0.49608
v -0.5 0.14 -0.5
v -0.49224 0.112 -0.47102
v -0.48852 0.112 -0.47228
v -0.485 0.112 -0.47402
v -0.48174 0.112 -0.4762
v -0.47228 0.112 -0.48852
v -0.47402 0.112 -0.485
v -0.47879 0.112 -0.47879
v -0.47 0.112 -0.5
v -0.4762 0.112 -0.48174
v -0.5 0.112 -0.47
v -0.49608 0.112 -0.47026
v -0.47402 0.056 -0.485
v -0.4762 0.056 -0.48174
v -0.48174 0.056 -0.4762
v -0.47879 0.056 -0.47879
v -0.49608 0.056 -0.47026
v -0.49224 0.056 -0.47102
v -0.47228 0.056 -0.48852
v -0.485 0.056 -0.47402
v -0.5 0.056 -0.47
v -0.47026 0.056 -0.49608
v -0.47102 0.056 -0.49224
v -0.47 0.056 -0.5
v -0.5 0.056 -0.5
v -0.48852 0.056 -0.47228
v -0.425 0.28 -0.5
v -0.43071 0.28 -0.4713
v -0.5 0.23 -0.5
v -0.4713 0.28 -0.43071
v -0.5 0.28 -0.425
v -0.44697 0.28 -0.44697
v -0.2 0 -0.5
v -0.5 0 -0.5
v -0.20257 0 -0.46084
v -0.21022 0 -0.42235
v -0.22284 0 -0.3852
v -0.24019 0 -0.35
v -0.26199 0 -0.31737
v -0.28787 0 -0.28787
v -0.31737 0 -0.26199
v -0.35 0 -0.24019
v -0.3852 0 -0.22284
v -0.42235 0 -0.21022
v -0.46084 0 -0.20257
v -0.5 0 -0.2
v -0.2 0.28 -0.5
v -0.20257 0.28 -0.46084
v -0.42235 0.28 -0.21022
v -0.46084 0.28 -0.20257
v -0.3852 0.28 -0.22284
v -0.21022 0.28 -0.42235
v -0.22284 0.28 -0.3852
v -0.24019 0.28 -0.35
v -0.26199 0.28 -0.31737
v -0.28787 0.28 -0.28787
v -0.31737 0.28 -0.26199
v -0.5 0.28 -0.2
v -0.35 0.28 -0.24019
v 0.5 0 -0.5
v 0.5 0 0.5
v -0.5 0 0.5
vn -0.88837 -0.39261 -0.23804
vn -0.91184 -0.39261 -0.12005
vn -0.45566 -0.76469 -0.45566
vn -0.23804 -0.39261 -0.88837
vn -0.35196 -0.39261 -0.8497
vn -0.45985 -0.39261 -0.79649
vn -0.55988 -0.39261 -0.72965
vn -0.8497 -0.39261 -0.35196
vn -0.79649 -0.39261 -0.45985
vn -0.65033 -0.39261 -0.65033
vn -0.91804 -0.39189 -0.060172
vn -0.72965 -0.39261 -0.55988
vn -0.060171 -0.39189 -0.91804
vn -0.12005 -0.39261 -0.91184
vn -0.62462 0.69268 -0.36062
vn -0.5722 0.69268 -0.43907
vn -0.43907 0.69268 -0.5722
vn -0.51 0.69268 -0.51
vn -0.094141 0.69268 -0.71508
vn -0.18667 0.69268 -0.69667
vn -0.66635 0.69268 -0.27601
vn -0.36062 0.69268 -0.62462
vn -0.04722 0.69191 -0.72044
vn -0.71508 0.69268 -0.094142
vn -0.69667 0.69268 -0.18667
vn -0.72044 0.69191 -0.04722
vn 0 1 0
vn -0.27601 0.69268 -0.66635
vn -0.55135 0.82703 -0.10967
vn -0.51248 0.83205 -0.21227
vn -0.37083 0.85145 -0.37083
vn -0.21227 0.83205 -0.51248
vn -0.10967 0.82703 -0.55135
vn -0.39223 0.83205 -0.39223
vn 0 -1 0
vn 0.99786 0 0.065403
vn 0.99144 0 0.13053
vn 0.25882 0 0.96593
vn 0.13053 0 0.99144
vn 0.38268 0 0.92388
vn 0.96593 0 0.25882
vn 0.92388 0 0.38268
vn 0.86603 0 0.5
vn 0.79335 0 0.60876
vn 0.70711 0 0.70711
vn 0.60876 0 0.79335
vn 0.065403 0 0.99786
vn 0.5 0 0.86603
vn 0 0 -1
vn -1 0 0
vt 0.96875 0.105
vt 0.96875 0.125
vt 0.96875 0.065
vt 0.21875 0.475
vt 0.21875 0.43929
vt 0.21875 0.275
vt 0.21875 0.315
vt 0.21875 0.355
vt 0.21875 0.375
usemtl colormap
f 3/2/3 2/1/2 1/1/1
f 3/2/3 5/1/5 4/1/4
f 3/2/3 6/1/6 5/1/5
f 3/2/3 7/1/7 6/1/6
f 3/2/3 1/1/1 8/1/8
f 3/2/3 8/1/8 9/1/9
f 3/2/3 10/1/10 7/1/7
f 3/2/3 11/1/11 2/1/2
f 3/2/3 9/1/9 12/1/12
f 3/2/3 14/1/14 13/1/13
f 3/2/3 4/1/4 14/1/14
f 3/2/3 12/1/12 10/1/10
f 16/3/16 9/1/9 15/3/15
f 9/1/9 16/3/16 12/1/12
f 7/1/7 18/3/18 17/3/17
f 18/3/18 7/1/7 10/1/10
f 14/1/14 20/3/20 19/3/19
f 20/3/20 14/1/14 4/1/4
f 18/3/18 12/1/12 16/3/16
f 12/1/12 18/3/18 10/1/10
f 15/3/15 8/1/8 21/3/21
f 8/1/8 15/3/15 9/1/9
f 6/1/6 17/3/17 22/3/22
f 17/3/17 6/1/6 7/1/7
f 13/1/13 19/3/19 23/3/23
f 19/3/19 13/1/13 14/1/14
f 25/3/25 2/1/2 24/3/24
f 2/1/2 25/3/25 1/1/1
f 27/3/27 24/3/24 26/3/26
f 24/3/24 27/3/27 25/3/25
f 25/3/25 27/3/27 21/3/21
f 21/3/21 27/3/27 15/3/15
f 15/3/15 27/3/27 16/3/16
f 16/3/16 27/3/27 18/3/18
f 18/3/18 27/3/27 17/3/17
f 17/3/17 27/3/27 22/3/22
f 22/3/22 27/3/27 28/3/28
f 28/3/28 27/3/27 20/3/20
f 20/3/20 27/3/27 19/3/19
f 19/3/19 27/3/27 23/3/23
f 24/3/24 11/1/11 26/3/26
f 11/1/11 24/3/24 2/1/2
f 21/3/21 1/1/1 25/3/25
f 1/1/1 21/3/21 8/1/8
f 5/1/5 22/3/22 28/3/28
f 22/3/22 5/1/5 6/1/6
f 4/1/4 28/3/28 20/3/20
f 28/3/28 4/1/4 5/1/5
f 31/5/31 30/4/30 29/4/29
f 31/5/31 33/4/33 32/4/32
f 31/5/31 34/4/34 30/4/30
f 31/5/31 32/4/32 34/4/34
f 37/6/35 36/6/35 35/6/35
f 36/6/35 37/6/35 38/6/35
f 36/6/35 38/6/35 39/6/35
f 36/6/35 39/6/35 40/6/35
f 36/6/35 40/6/35 41/6/35
f 36/6/35 41/6/35 42/6/35
f 36/6/35 42/6/35 43/6/35
f 36/6/35 43/6/35 44/6/35
f 36/6/35 44/6/35 45/6/35
f 36/6/35 45/6/35 46/6/35
f 36/6/35 46/6/35 47/6/35
f 36/6/35 47/6/35 48/6/35
f 50/4/37 35/6/36 49/4/36
f 35/6/36 50/4/37 37/6/37
f 51/4/38 47/6/39 46/6/38
f 47/6/39 51/4/38 52/4/39
f 53/4/40 46/6/38 45/6/40
f 46/6/38 53/4/40 51/4/38
f 54/4/41 37/6/37 50/4/37
f 37/6/37 54/4/41 38/6/41
f 55/4/42 38/6/41 54/4/41
f 38/6/41 55/4/42 39/6/42
f 57/4/44 40/6/43 56/4/43
f 40/6/43 57/4/44 41/6/44
f 58/4/45 43/6/46 42/6/45
f 43/6/46 58/4/45 59/4/46
f 58/4/45 41/6/44 57/4/44
f 41/6/44 58/4/45 42/6/45
f 56/4/43 39/6/42 55/4/42
f 39/6/42 56/4/43 40/6/43
f 52/4/39 48/6/47 47/6/39
f 48/6/47 52/4/39 60/4/47
f 59/4/46 44/6/48 43/6/46
f 44/6/48 59/4/46 61/4/48
f 61/4/48 45/6/40 44/6/48
f 45/6/40 61/4/48 53/4/40
f 35/6/27 63/6/27 62/6/27
f 63/6/27 35/6/27 37/6/27
f 63/6/27 37/6/27 38/6/27
f 63/6/27 38/6/27 64/6/27
f 64/6/27 38/6/27 39/6/27
f 64/6/27 39/6/27 40/6/27
f 64/6/27 40/6/27 41/6/27
f 64/6/27 41/6/27 42/6/27
f 64/6/27 42/6/27 43/6/27
f 64/6/27 43/6/27 44/6/27
f 64/6/27 44/6/27 45/6/27
f 64/6/27 45/6/27 46/6/27
f 64/6/27 46/6/27 47/6/27
f 64/6/27 47/6/27 48/6/27
f 27/7/49 35/6/49 36/6/49
f 35/6/49 27/7/49 26/7/49
f 35/6/49 26/7/49 49/4/49
f 49/4/49 26/7/49 11/8/49
f 49/4/49 11/8/49 3/9/49
f 49/4/49 3/9/49 31/5/49
f 49/4/49 31/5/49 29/4/49
f 48/6/50 27/7/50 36/6/50
f 27/7/50 48/6/50 23/7/50
f 23/7/50 48/6/50 13/8/50
f 13/8/50 48/6/50 33/4/50
f 33/4/50 48/6/50 60/4/50
f 33/4/50 3/9/50 13/8/50
f 3/9/50 33/4/50 31/5/50
f 29/4/27 50/4/27 49/4/27
f 50/4/27 29/4/27 54/4/27
f 54/4/27 29/4/27 55/4/27
f 55/4/27 29/4/27 56/4/27
f 56/4/27 29/4/27 57/4/27
f 57/4/27 29/4/27 58/4/27
f 58/4/27 29/4/27 59/4/27
f 59/4/27 29/4/27 61/4/27
f 61/4/27 29/4/27 53/4/27
f 53/4/27 29/4/27 51/4/27
f 51/4/27 29/4/27 52/4/27
f 52/4/27 29/4/27 30/4/27
f 52/4/27 30/4/27 34/4/27
f 52/4/27 34/4/27 32/4/27
f 52/4/27 32/4/27 60/4/27
f 60/4/27 32/4/27 33/4/27
g fountain-corner-inner
usemtl colormap
f 3/2/3 2/1/2 1/1/1
f 3/2/3 5/1/5 4/1/4
f 3/2/3 6/1/6 5/1/5
f 3/2/3 7/1/7 6/1/6
f 3/2/3 1/1/1 8/1/8
f 3/2/3 8/1/8 9/1/9
f 3/2/3 10/1/10 7/1/7
f 3/2/3 11/1/11 2/1/2
f 3/2/3 9/1/9 12/1/12
f 3/2/3 14/1/14 13/1/13
f 3/2/3 4/1/4 14/1/14
f 3/2/3 12/1/12 10/1/10
f 16/3/16 9/1/9 15/3/15
f 9/1/9 16/3/16 12/1/12
f 7/1/7 18/3/18 17/3/17
f 18/3/18 7/1/7 10/1/10
f 14/1/14 20/3/20 19/3/19
f 20/3/20 14/1/14 4/1/4
f 18/3/18 12/1/12 16/3/16
f 12/1/12 18/3/18 10/1/10
f 15/3/15 8/1/8 21/3/21
f 8/1/8 15/3/15 9/1/9
f 6/1/6 17/3/17 22/3/22
f 17/3/17 6/1/6 7/1/7
f 13/1/13 19/3/19 23/3/23
f 19/3/19 13/1/13 14/1/14
f 25/3/25 2/1/2 24/3/24
f 2/1/2 25/3/25 1/1/1
f 27/3/27 24/3/24 26/3/26
f 24/3/24 27/3/27 25/3/25
f 25/3/25 27/3/27 21/3/21
f 21/3/21 27/3/27 15/3/15
f 15/3/15 27/3/27 16/3/16
f 16/3/16 27/3/27 18/3/18
f 18/3/18 27/3/27 17/3/17
f 17/3/17 27/3/27 22/3/22
f 22/3/22 27/3/27 28/3/28
f 28/3/28 27/3/27 20/3/20
f 20/3/20 27/3/27 19/3/19
f 19/3/19 27/3/27 23/3/23
f 24/3/24 11/1/11 26/3/26
f 11/1/11 24/3/24 2/1/2
f 21/3/21 1/1/1 25/3/25
f 1/1/1 21/3/21 8/1/8
f 5/1/5 22/3/22 28/3/28
f 22/3/22 5/1/5 6/1/6
f 4/1/4 28/3/28 20/3/20
f 28/3/28 4/1/4 5/1/5
f 31/5/31 30/4/30 29/4/29
f 31/5/31 33/4/33 32/4/32
f 31/5/31 34/4/34 30/4/30
f 31/5/31 32/4/32 34/4/34
f 37/6/35 36/6/35 35/6/35
f 36/6/35 37/6/35 38/6/35
f 36/6/35 38/6/35 39/6/35
f 36/6/35 39/6/35 40/6/35
f 36/6/35 40/6/35 41/6/35
f 36/6/35 41/6/35 42/6/35
f 36/6/35 42/6/35 43/6/35
f 36/6/35 43/6/35 44/6/35
f 36/6/35 44/6/35 45/6/35
f 36/6/35 45/6/35 46/6/35
f 36/6/35 46/6/35 47/6/35
f 36/6/35 47/6/35 48/6/35
f 50/4/37 35/6/36 49/4/36
f 35/6/36 50/4/37 37/6/37
f 51/4/38 47/6/39 46/6/38
f 47/6/39 51/4/38 52/4/39
f 53/4/40 46/6/38 45/6/40
f 46/6/38 53/4/40 51/4/38
f 54/4/41 37/6/37 50/4/37
f 37/6/37 54/4/41 38/6/41
f 55/4/42 38/6/41 54/4/41
f 38/6/41 55/4/42 39/6/42
f 57/4/44 40/6/43 56/4/43
f 40/6/43 57/4/44 41/6/44
f 58/4/45 43/6/46 42/6/45
f 43/6/46 58/4/45 59/4/46
f 58/4/45 41/6/44 57/4/44
f 41/6/44 58/4/45 42/6/45
f 56/4/43 39/6/42 55/4/42
f 39/6/42 56/4/43 40/6/43
f 52/4/39 48/6/47 47/6/39
f 48/6/47 52/4/39 60/4/47
f 59/4/46 44/6/48 43/6/46
f 44/6/48 59/4/46 61/4/48
f 61/4/48 45/6/40 44/6/48
f 45/6/40 61/4/48 53/4/40
f 35/6/27 63/6/27 62/6/27
f 63/6/27 35/6/27 37/6/27
f 63/6/27 37/6/27 38/6/27
f 63/6/27 38/6/27 64/6/27
f 64/6/27 38/6/27 39/6/27
f 64/6/27 39/6/27 40/6/27
f 64/6/27 40/6/27 41/6/27
f 64/6/27 41/6/27 42/6/27
f 64/6/27 42/6/27 43/6/27
f 64/6/27 43/6/27 44/6/27
f 64/6/27 44/6/27 45/6/27
f 64/6/27 45/6/27 46/6/27
f 64/6/27 46/6/27 47/6/27
f 64/6/27 47/6/27 48/6/27
f 27/7/49 35/6/49 36/6/49
f 35/6/49 27/7/49 26/7/49
f 35/6/49 26/7/49 49/4/49
f 49/4/49 26/7/49 11/8/49
f 49/4/49 11/8/49 3/9/49
f 49/4/49 3/9/49 31/5/49
f 49/4/49 31/5/49 29/4/49
f 48/6/50 27/7/50 36/6/50
f 27/7/50 48/6/50 23/7/50
f 23/7/50 48/6/50 13/8/50
f 13/8/50 48/6/50 33/4/50
f 33/4/50 48/6/50 60/4/50
f 33/4/50 3/9/50 13/8/50
f 3/9/50 33/4/50 31/5/50
f 29/4/27 50/4/27 49/4/27
f 50/4/27 29/4/27 54/4/27
f 54/4/27 29/4/27 55/4/27
f 55/4/27 29/4/27 56/4/27
f 56/4/27 29/4/27 57/4/27
f 57/4/27 29/4/27 58/4/27
f 58/4/27 29/4/27 59/4/27
f 59/4/27 29/4/27 61/4/27
f 61/4/27 29/4/27 53/4/27
f 53/4/27 29/4/27 51/4/27
f 51/4/27 29/4/27 52/4/27
f 52/4/27 29/4/27 30/4/27
f 52/4/27 30/4/27 34/4/27
f 52/4/27 34/4/27 32/4/27
f 52/4/27 32/4/27 60/4/27
f 60/4/27 32/4/27 33/4/27
g (%ignore)
v 0.5 0.14 -0.5
v 0.5 0.14 0.5
v -0.2 0.14 -0.5
v -0.20257 0.14 -0.46084
v -0.21022 0.14 -0.42235
v -0.5 0.14 0.5
v -0.22284 0.14 -0.3852
v -0.24019 0.14 -0.35
v -0.26199 0.14 -0.31737
v -0.28787 0.14 -0.28787
v -0.31737 0.14 -0.26199
v -0.35 0.14 -0.24019
v -0.3852 0.14 -0.22284
v -0.42235 0.14 -0.21022
v -0.46084 0.14 -0.20257
v -0.5 0.14 -0.2
vt -19.685 -19.685
vt -19.685 19.685
vt 7.874 -19.685
vt 7.9751 -18.143
vt 8.2765 -16.628
vt 19.685 19.685
vt 8.7731 -15.165
vt 9.4564 -13.78
vt 10.315 -12.495
vt 11.333 -11.333
vt 12.495 -10.315
vt 13.78 -9.4564
vt 15.165 -8.7731
vt 16.628 -8.2765
vt 18.143 -7.9751
vt 19.685 -7.874
usemtl Water
f 67/12/27 66/11/27 65/10/27
f 66/11/27 67/12/27 68/13/27
f 66/11/27 68/13/27 69/14/27
f 66/11/27 69/14/27 70/15/27
f 70/15/27 69/14/27 71/16/27
f 70/15/27 71/16/27 72/17/27
f 70/15/27 72/17/27 73/18/27
f 70/15/27 73/18/27 74/19/27
f 70/15/27 74/19/27 75/20/27
f 70/15/27 75/20/27 76/21/27
f 70/15/27 76/21/27 77/22/27
f 70/15/27 77/22/27 78/23/27
f 70/15/27 78/23/27 79/24/27
f 70/15/27 79/24/27 80/25/27
