mtllib town_roof-left.mtl
g roof-left
v -0.4 7.2191e-16 0.5
v -0.5 0 0.5
v -0.4 0.05 0.5
v 0.5 0 0.5
v 0.4 7.2191e-16 0.5
v 0.5 0.5 0.5
v 0.4 0.45 0.5
v 0.4 0.5618 -0.5
v 0.4 0.5618 -0.4
v -0.63416 0.044721 -0.5
v -0.63416 0.044721 -0.4
v 0.5 0.6759 -0.5
v 0.5 0.6759 -0.4
v 0.4 0.6259 -0.5
v 0.4 0.6259 -0.4
v 0.4 7.2191e-16 -0.5
v 0.4 0.45 -0.5
v 0.4 7.2191e-16 -0.475
v 0.4 0.45 -0.475
v 0.4 7.2191e-16 0.475
v 0.4 0.45 0.475
v 0.4 0.5759 -0.4
v 0.5 0.6259 -0.4
v -0.58944 -0.044721 -0.4
v -0.54472 -0.022361 -0.4
v -0.56708 0.022361 -0.4
v -0.4462 0.082803 -0.4
v 0.4 0.5059 -0.4
v -0.54472 -0.022361 -0.5
v -0.58944 -0.044721 -0.5
v -0.4 0.05 0.475
v -0.4 7.2191e-16 0.475
v -0.4 0.05 -0.5
v -0.4 7.2191e-16 -0.5
v -0.4 0.05 -0.475
v -0.4 7.2191e-16 -0.475
v -0.5 0 -0.5
v 0.5 0 -0.5
v 0.5 0.6259 0.5
v 0.4 0.5059 0.5
v 0.4 0.5759 0.5
v -0.54472 -0.022361 0.5
v -0.56708 0.022361 0.5
v -0.4462 0.082803 0.5
v -0.4462 0.082803 -0.4
v -0.56708 0.022361 -0.4
vn 0 0 1
vn -0.44721 0.89443 0
vn -1 0 0
vn 0.44721 -0.89443 0
vn 1 0 0
vn -0.89443 -0.44721 0
vn 0 0 -1
vn 0 -1 0
vn -0.85065 0.52573 0
vt 0.59375 0.025
vt 0.21875 0.025
vt 0.21875 0.039795
vt 0.21875 0.17295
vt 0.21875 0.15816
vt 0.59375 0.19124
vt 0.59375 0.038233
vt 0.59375 0.225
vt 0.59375 0.2102
vt 0.59375 0.15816
vt 0.21875 0.19124
vt 0.59375 0.19541
vt 0.59375 0.031617
vt 0.59375 0.049502
vt 0.59375 0.1747
vt 0.59375 0.039795
vt 0.21875 0.275
vt 0.21875 0.2898
vt 0.21875 0.40816
vt 0.21875 0.4602
vt 0.21875 0.42295
vt 0.21875 0.475
vt 0.21875 0.1747
vt 0.21875 0.19541
vt 0.21875 0.031617
vt 0.21875 0.2102
vt 0.21875 0.049502
vt 0.21875 0.175
vt 0.21875 0.075
usemtl colormap
f 3/3/1 2/2/1 1/1/1
f 6/4/1 5/1/1 4/1/1
f 5/1/1 6/4/1 7/5/1
f 10/7/2 9/6/2 8/6/2
f 9/6/2 10/7/2 11/7/2
f 14/9/2 13/8/2 12/8/2
f 13/8/2 14/9/2 15/9/2
f 18/1/3 17/10/3 16/1/3
f 17/10/3 18/1/3 19/10/3
f 5/1/3 21/10/3 20/1/3
f 21/10/3 5/1/3 7/10/3
f 8/6/3 15/9/3 14/9/3
f 15/9/3 8/6/3 9/11/3
f 15/9/3 9/11/3 22/12/3
f 23/9/1 15/9/1 22/12/1
f 15/9/1 23/9/1 13/8/1
f 25/1/1 11/7/1 24/1/1
f 11/7/1 25/1/1 26/13/1
f 11/7/1 26/13/1 27/14/1
f 11/7/1 27/14/1 9/6/1
f 9/6/1 27/14/1 28/15/1
f 24/1/4 29/2/4 25/2/4
f 29/2/4 24/1/4 30/1/4
f 3/16/5 32/1/5 31/16/5
f 32/1/5 3/16/5 1/1/5
f 24/1/6 10/7/6 30/1/6
f 10/7/6 24/1/6 11/7/6
f 35/16/5 34/1/5 33/16/5
f 34/1/5 35/16/5 36/1/5
f 35/16/4 17/10/4 19/10/4
f 17/10/4 35/16/4 33/16/4
f 10/7/7 29/1/7 30/1/7
f 29/1/7 10/7/7 37/1/7
f 37/1/7 10/7/7 34/1/7
f 34/1/7 10/7/7 33/16/7
f 33/16/7 10/7/7 8/6/7
f 33/16/7 8/6/7 17/10/7
f 12/8/7 17/10/7 8/6/7
f 12/8/7 8/6/7 14/9/7
f 12/8/7 16/1/7 17/10/7
f 16/1/7 12/8/7 38/1/7
f 35/18/7 18/17/7 36/17/7
f 18/17/7 35/18/7 19/19/7
f 39/20/5 6/21/5 23/20/5
f 4/17/5 23/20/5 6/21/5
f 38/17/5 23/20/5 4/17/5
f 38/17/5 13/22/5 23/20/5
f 13/22/5 38/17/5 12/22/5
f 21/19/1 32/17/1 20/17/1
f 32/17/1 21/19/1 31/18/1
f 2/17/8 32/17/8 1/17/8
f 32/17/8 2/17/8 36/17/8
f 36/17/8 2/17/8 34/17/8
f 34/17/8 2/17/8 37/17/8
f 18/17/8 32/17/8 36/17/8
f 32/17/8 18/17/8 20/17/8
f 16/17/8 20/17/8 18/17/8
f 16/17/8 5/17/8 20/17/8
f 38/17/8 5/17/8 16/17/8
f 5/17/8 38/17/8 4/17/8
f 40/23/3 9/11/3 28/23/3
f 9/11/3 40/23/3 22/24/9
f 22/24/9 40/23/3 41/24/9
f 42/2/6 26/25/6 25/2/6
f 26/25/6 42/2/6 43/25/6
f 3/3/4 21/5/4 7/5/4
f 21/5/4 3/3/4 31/3/4
f 42/2/4 37/2/4 2/2/4
f 37/2/4 42/2/4 25/2/4
f 37/2/4 25/2/4 29/2/4
f 23/26/2 41/24/9 39/26/2
f 41/24/9 23/26/2 22/24/9
f 27/27/2 40/23/2 28/23/2
f 40/23/2 27/27/2 44/27/2
f 2/2/1 43/25/1 42/2/1
f 43/25/1 2/2/1 3/3/1
f 43/25/1 3/3/1 44/27/1
f 44/27/1 3/3/1 7/5/1
f 44/27/1 7/5/1 40/23/1
f 40/23/1 7/5/1 6/4/1
f 40/23/1 6/4/1 39/26/1
f 40/23/1 39/26/1 41/24/1
f 43/29/2 44/28/2 46/29/2
f 45/28/2 46/29/2 44/28/2
g roof-left
usemtl colormap
f 3/3/1 2/2/1 1/1/1
f 6/4/1 5/1/1 4/1/1
f 5/1/1 6/4/1 7/5/1
f 10/7/2 9/6/2 8/6/2
f 9/6/2 10/7/2 11/7/2
f 14/9/2 13/8/2 12/8/2
f 13/8/2 14/9/2 15/9/2
f 18/1/3 17/10/3 16/1/3
f 17/10/3 18/1/3 19/10/3
f 5/1/3 21/10/3 20/1/3
f 21/10/3 5/1/3 7/10/3
f 8/6/3 15/9/3 14/9/3
f 15/9/3 8/6/3 9/11/3
f 15/9/3 9/11/3 22/12/3
f 23/9/1 15/9/1 22/12/1
f 15/9/1 23/9/1 13/8/1
f 25/1/1 11/7/1 24/1/1
f 11/7/1 25/1/1 26/13/1
f 11/7/1 26/13/1 27/14/1
f 11/7/1 27/14/1 9/6/1
f 9/6/1 27/14/1 28/15/1
f 24/1/4 29/2/4 25/2/4
f 29/2/4 24/1/4 30/1/4
f 3/16/5 32/1/5 31/16/5
f 32/1/5 3/16/5 1/1/5
f 24/1/6 10/7/6 30/1/6
f 10/7/6 24/1/6 11/7/6
f 35/16/5 34/1/5 33/16/5
f 34/1/5 35/16/5 36/1/5
f 35/16/4 17/10/4 19/10/4
f 17/10/4 35/16/4 33/16/4
f 10/7/7 29/1/7 30/1/7
f 29/1/7 10/7/7 37/1/7
f 37/1/7 10/7/7 34/1/7
f 34/1/7 10/7/7 33/16/7
f 33/16/7 10/7/7 8/6/7
f 33/16/7 8/6/7 17/10/7
f 12/8/7 17/10/7 8/6/7
f 12/8/7 8/6/7 14/9/7
f 12/8/7 16/1/7 17/10/7
f 16/1/7 12/8/7 38/1/7
f 35/18/7 18/17/7 36/17/7
f 18/17/7 35/18/7 19/19/7
f 39/20/5 6/21/5 23/20/5
f 4/17/5 23/20/5 6/21/5
f 38/17/5 23/20/5 4/17/5
f 38/17/5 13/22/5 23/20/5
f 13/22/5 38/17/5 12/22/5
f 21/19/1 32/17/1 20/17/1
f 32/17/1 21/19/1 31/18/1
f 2/17/8 32/17/8 1/17/8
f 32/17/8 2/17/8 36/17/8
f 36/17/8 2/17/8 34/17/8
f 34/17/8 2/17/8 37/17/8
f 18/17/8 32/17/8 36/17/8
f 32/17/8 18/17/8 20/17/8
f 16/17/8 20/17/8 18/17/8
f 16/17/8 5/17/8 20/17/8
f 38/17/8 5/17/8 16/17/8
f 5/17/8 38/17/8 4/17/8
f 40/23/3 9/11/3 28/23/3
f 9/11/3 40/23/3 22/24/9
f 22/24/9 40/23/3 41/24/9
f 42/2/6 26/25/6 25/2/6
f 26/25/6 42/2/6 43/25/6
f 3/3/4 21/5/4 7/5/4
f 21/5/4 3/3/4 31/3/4
f 42/2/4 37/2/4 2/2/4
f 37/2/4 42/2/4 25/2/4
f 37/2/4 25/2/4 29/2/4
f 23/26/2 41/24/9 39/26/2
f 41/24/9 23/26/2 22/24/9
f 27/27/2 40/23/2 28/23/2
f 40/23/2 27/27/2 44/27/2
f 2/2/1 43/25/1 42/2/1
f 43/25/1 2/2/1 3/3/1
f 43/25/1 3/3/1 44/27/1
f 44/27/1 3/3/1 7/5/1
f 44/27/1 7/5/1 40/23/1
f 40/23/1 7/5/1 6/4/1
f 40/23/1 6/4/1 39/26/1
f 40/23/1 39/26/1 41/24/1
f 43/29/2 44/28/2 46/29/2
f 45/28/2 46/29/2 44/28/2
