mtllib town_tree-crooked.mtl
g tree-crooked
v -0.14432 -2.256e-17 -0.14432
v 0.14432 -2.256e-17 -0.14432
v -0.093808 0.13648 -0.093808
v 0.093808 0.13648 -0.093808
v 0.093808 0.13648 0.093808
v 0.074108 0.48544 -0.074108
v 0.074108 0.48544 0.074108
v -0.074108 0.48544 -0.074108
v 0.14432 -2.256e-17 0.14432
v -0.14432 -2.256e-17 0.14432
v -0.093808 0.13648 0.093808
v -0.074108 0.48544 0.074108
v 0.030574 0.2909 0.08509
v 0.030574 0.20304 0.09005
v 0.013414 0.28053 0.20587
v 0.013414 0.22694 0.20889
v -0.057426 0.2909 0.08509
v -0.040266 0.28053 0.20587
v -0.057426 0.20304 0.09005
v -0.040266 0.22694 0.20889
v 4.6924e-15 1.8878 -0.13592
v 0.10064 1.8892 -0.094256
v 3.2486e-15 2.4126 -0.010919
v -0.10064 1.8892 -0.094256
v -0.14233 1.8925 0.0063328
v 4.6924e-15 1.8972 0.14859
v -0.10064 1.8959 0.10692
v 0.14233 1.8925 0.0063328
v 0.10064 1.8959 0.10692
v 0.20047 1.7543 0.010919
v 0.14175 1.759 0.15259
v 0.14175 1.7496 -0.13075
v 3.2486e-15 1.7609 0.21128
v 3.2486e-15 1.7476 -0.18944
v -0.14175 1.759 0.15259
v -0.14175 1.7496 -0.13075
v -0.20047 1.7543 0.010919
v -0.14021 1.5345 0.14175
v -0.11361 1.7571 0.096235
v 0.0010269 1.5466 0.20047
v -0.017138 1.7585 0.13811
v 0.0010269 1.5466 -0.20047
v 0.14226 1.5587 -0.14175
v -0.016345 1.7492 -0.14083
v 0.085018 1.7505 -0.1011
v 0.14226 1.5587 0.14175
v 0.08303 1.7572 0.099693
v 0.30014 1.3631 -7.2191e-16
v 0.21775 1.356 -0.19965
v 0.21775 1.356 0.19965
v 0.018827 1.339 0.28235
v 0.018827 1.339 -0.28235
v -0.18009 1.3219 0.19965
v -0.18009 1.3219 -0.19965
v -0.26249 1.3148 -7.2191e-16
v 0.20076 1.5637 -3.6096e-15
v 0.12683 1.7539 -2.1657e-15
v -0.14021 1.5345 -0.14175
v -0.11437 1.7507 -0.097549
v -0.19871 1.5295 -3.6096e-15
v -0.15328 1.7539 -2.1657e-15
v 0.26152 0.95814 -0.31365
v 0.20281 1.1857 -0.20785
v -0.026136 1.0005 -0.43002
v -0.0014256 1.2158 -0.29048
v 0.38067 0.91803 -0.0268
v 0.26152 0.90368 0.26248
v 0.28741 1.1572 -0.0041878
v 0.20281 1.1471 0.2012
v -0.026136 0.92351 0.38474
v -0.0014256 1.1611 0.28801
v -0.31379 1.0204 -0.30776
v -0.20566 1.2299 -0.20367
v -0.43294 1.006 -0.018482
v -0.29026 1.2197 0.0017179
v 0.17528 1.3524 -0.14597
v 0.012464 1.3384 -0.22889
v 0.17063 1.352 0.16666
v 0.017276 1.3388 0.23748
v -0.20566 1.1912 0.20538
v -0.15444 1.3241 0.18089
v -0.31379 0.9659 0.26836
v -0.16781 1.323 -0.1675
v -0.2398 1.3168 0.010895
v 0.23369 1.3574 0.014732
v 0.2568 0.77144 0.2568
v 4.3315e-15 0.77144 0.36317
v 0.21816 0.9126 0.21816
v 5.7753e-15 0.92845 0.30239
v -0.36317 0.77144 -6.4972e-15
v -0.2568 0.77144 0.2568
v -0.5115 0.48544 -7.2191e-16
v -0.36169 0.48544 0.36169
v -1.4438e-15 0.48544 0.5115
v -0.36169 0.48544 -0.36169
v -0.2568 0.77144 -0.2568
v -1.4438e-15 0.48544 -0.5115
v 4.3315e-15 0.77144 -0.36317
v 0.36169 0.48544 -0.36169
v 0.2568 0.77144 -0.2568
v 0.36169 0.48544 0.36169
v -0.20518 0.96002 0.20518
v 0.5115 0.48544 -7.2191e-16
v 0.36317 0.77144 -6.4972e-15
v 0.30418 0.92384 -5.0534e-15
v -0.19512 0.99677 -0.19512
v 7.2191e-15 0.9836 -0.28104
v 0.20683 0.95401 -0.20683
v -0.27952 0.98753 -2.1657e-15
vn 0 0.3471 -0.93783
vn 0 0.22074 -0.97533
vn 0.97533 0.22074 0
vn 0.99841 0.056363 0
vn 0 0.056363 -0.99841
vn 0 0.3471 0.93783
vn 0 0.22074 0.97533
vn -0.97533 0.22074 0
vn -0.99841 0.056363 0
vn 0.98993 0.0079787 0.14133
vn -0.98993 0.0079787 0.14133
vn 0 0.99633 0.08554
vn 0 -0.98038 0.19713
vn 0 0.056363 0.99841
vn 0 -1 0
vn 0.93783 0.3471 0
vn -0.93783 0.3471 0
vn 0 0.2999 -0.95397
vn 0.66716 0.30906 -0.67778
vn 0.37102 0.21518 -0.90335
vn -0.66716 0.30906 -0.67778
vn -0.89572 0.23257 -0.37894
vn -0.9435 0.33118 -0.010986
vn 0 0.36246 0.932
vn -0.66716 0.3533 0.6558
vn -0.37102 0.27457 0.8871
vn -0.37102 0.21518 -0.90335
vn 0.89572 0.23257 -0.37894
vn 0.9435 0.33118 -0.010986
vn 0.89572 0.25718 0.36269
vn 0.66716 0.3533 0.6558
vn 0.37102 0.27457 0.8871
vn -0.89572 0.25718 0.36269
vn 0.9219 0.38721 -0.012845
vn 0.65188 0.40883 0.63868
vn 0 -0.99945 0.033155
vn 0 0.41778 0.90855
vn 0 0.35665 -0.93424
vn -0.65188 0.3656 -0.66437
vn -0.65188 0.40883 0.63868
vn 0.65188 0.3656 -0.66437
vn -0.9219 0.38721 -0.012845
vn -0.69368 0.26898 0.66817
vn -0.70599 0.22189 0.67256
vn -0.027953 0.32606 0.94494
vn -0.043367 0.27865 0.95941
vn -0.027953 0.32606 -0.94494
vn 0.63778 0.38313 -0.66817
vn -0.043331 0.27865 -0.95941
vn 0.6461 0.3378 -0.68443
vn 0.63778 0.38313 0.66817
vn 0.63851 0.33711 0.69186
vn 0.085417 -0.99635 0
vn -0.031237 0.36437 0.93073
vn 0.62448 0.42058 0.65813
vn 0.91353 0.40677 0
vn 0.93203 0.36232 0.0075157
vn -0.69368 0.26898 -0.66817
vn -0.71339 0.22121 -0.66494
vn -0.96944 0.24534 0
vn -0.98009 0.19839 0.0075533
vn -0.68696 0.30815 -0.65813
vn -0.95857 0.28487 0
vn 0.89609 0.44387 0
vn -0.68696 0.30815 0.65813
vn -0.031237 0.36437 -0.93073
vn 0.62448 0.42058 -0.65813
vn 0.67376 0.44727 -0.58822
vn 0.6841 0.4035 -0.60761
vn 0.049724 0.53923 -0.84069
vn 0.04497 0.49768 -0.86619
vn 0.93224 0.36024 0.034053
vn 0.67376 0.32912 0.66161
vn 0.94884 0.31436 0.029716
vn 0.6841 0.2825 0.67246
vn 0.049724 0.37215 0.92684
vn 0.04497 0.32656 0.94411
vn -0.57431 0.58225 -0.57546
vn -0.59416 0.54175 -0.59455
vn -0.83279 0.55113 0.052097
vn -0.8589 0.50988 0.048197
vn 0.72563 0.34162 -0.59729
vn 0.081981 0.43996 -0.89427
vn 0.70539 0.22414 0.67245
vn 0.081632 0.26464 0.96089
vn -0.59416 0.42074 0.68553
vn -0.58397 0.35925 0.72796
vn -0.57431 0.46411 0.67437
vn -0.60545 0.49002 -0.62715
vn -0.88794 0.45544 0.064375
vn 0.96589 0.25497 0.045143
vn -0.108 -0.98974 -0.093558
vn 0.64289 0.41639 0.64289
vn 0 0.41639 0.90918
vn 0.65781 0.36097 0.66105
vn -0.024171 0.36087 0.9323
vn -0.90918 0.41639 0
vn -0.64289 0.41639 0.64289
vn -0.88771 0.46041 0
vn -0.6277 0.46041 0.6277
vn 0 0.46041 0.88771
vn -0.6277 0.46041 -0.6277
vn -0.64289 0.41639 -0.64289
vn 0 0.46041 -0.88771
vn 0 0.41639 -0.90918
vn 0.6277 0.46041 -0.6277
vn 0.64289 0.41639 -0.64289
vn 0.6277 0.46041 0.6277
vn -0.68155 0.36079 0.63665
vn 0.90918 0.41639 0
vn 0.88771 0.46041 0
vn 0.93237 0.3609 -0.020952
vn -0.66103 0.36097 -0.65783
vn -0.024 0.36087 -0.93231
vn 0.63663 0.36079 -0.68157
vn -0.93237 0.3609 -0.020786
vt 0.59375 0.225
vt 0.59375 0.16877
vt 0.59375 0.025
vt 0.59375 0.10515
vt 0.59375 0.14135
vt 0.59375 0.10942
vt 0.59375 0.1315
vt 0.46875 0.096082
vt 0.46875 0.09629
vt 0.46875 0.175
vt 0.46875 0.096792
vt 0.46875 0.097501
vt 0.46875 0.097293
vt 0.46875 0.076
vt 0.46875 0.076706
vt 0.46875 0.075293
vt 0.46875 0.076999
vt 0.46875 0.075
vt 0.46875 0.12451
vt 0.46875 0.17469
vt 0.46875 0.12724
vt 0.46875 0.12997
vt 0.46875 0.17291
vt 0.46875 0.17321
vt 0.46875 0.17471
vt 0.46875 0.085873
vt 0.46875 0.08428
vt 0.46875 0.080436
vt 0.46875 0.076592
vt 0.46875 0.1311
vt 0.46875 0.17397
vt 0.46875 0.17324
vt 0.46875 0.12338
vt 0.46875 0.087003
vt 0.46875 0.13716
vt 0.46875 0.096347
vt 0.46875 0.1438
vt 0.46875 0.078161
vt 0.46875 0.13089
vt 0.46875 0.12864
vt 0.46875 0.079371
vt 0.46875 0.13174
vt 0.46875 0.10072
vt 0.46875 0.1469
vt 0.46875 0.097556
vt 0.46875 0.14466
vt 0.46875 0.1739
vt 0.46875 0.17082
vt 0.46875 0.17381
vt 0.46875 0.17091
vt 0.46875 0.13838
vt 0.46875 0.16767
vt 0.46875 0.088714
vt 0.46875 0.16741
vt 0.46875 0.16605
vt 0.46875 0.13093
vt 0.46875 0.15854
vt 0.46875 0.16164
vt 0.46875 0.16781
vt 0.46875 0.16074
vt 0.46875 0.17242
vt 0.46875 0.16664
vt 0.46875 0.17319
usemtl colormap
f 3/2/2 2/1/1 1/1/1
f 2/1/1 3/2/2 4/2/2
f 6/3/4 5/2/3 4/2/3
f 5/2/3 6/3/4 7/3/4
f 8/3/5 4/2/2 3/2/2
f 4/2/2 8/3/5 6/3/5
f 5/2/7 10/1/6 9/1/6
f 10/1/6 5/2/7 11/2/7
f 11/2/8 8/3/9 3/2/8
f 8/3/9 11/2/8 12/3/9
f 15/6/10 14/5/10 13/4/10
f 14/5/10 15/6/10 16/7/10
f 19/5/11 18/6/11 17/4/11
f 18/6/11 19/5/11 20/7/11
f 17/4/12 15/6/12 13/4/12
f 15/6/12 17/4/12 18/6/12
f 16/7/13 19/5/13 14/5/13
f 19/5/13 16/7/13 20/7/13
f 15/6/14 20/7/14 16/7/14
f 20/7/14 15/6/14 18/6/14
f 10/1/15 2/1/15 9/1/15
f 2/1/15 10/1/15 1/1/15
f 4/2/3 9/1/16 2/1/16
f 9/1/16 4/2/3 5/2/3
f 10/1/17 3/2/8 1/1/17
f 3/2/8 10/1/17 11/2/8
f 14/5/14 7/3/14 13/4/14
f 13/4/14 7/3/14 17/4/14
f 14/5/14 5/2/7 7/3/14
f 12/3/14 17/4/14 7/3/14
f 5/2/7 14/5/14 11/2/7
f 12/3/14 19/5/14 17/4/14
f 11/2/7 19/5/14 12/3/14
f 19/5/14 11/2/7 14/5/14
f 23/10/20 22/9/19 21/8/18
f 25/11/23 23/10/22 24/9/21
f 23/10/26 27/13/25 26/12/24
f 23/10/27 21/8/18 24/9/21
f 28/11/29 22/9/19 23/10/28
f 29/13/31 28/11/29 23/10/30
f 23/10/32 26/12/24 29/13/31
f 27/13/25 23/10/33 25/11/23
f 29/13/31 30/14/34 28/11/29
f 30/14/34 29/13/31 31/15/35
f 31/15/36 32/16/36 30/14/36
f 32/16/36 31/15/36 33/17/36
f 32/16/36 33/17/36 34/18/36
f 34/18/36 33/17/36 35/15/36
f 34/18/36 35/15/36 36/16/36
f 36/16/36 35/15/36 37/14/36
f 29/13/31 33/17/37 31/15/35
f 33/17/37 29/13/31 26/12/24
f 36/16/39 21/8/18 34/18/38
f 21/8/18 36/16/39 24/9/21
f 33/17/37 27/13/25 35/15/40
f 27/13/25 33/17/37 26/12/24
f 22/9/19 30/14/34 32/16/41
f 30/14/34 22/9/19 28/11/29
f 37/14/42 27/13/25 25/11/23
f 27/13/25 37/14/42 35/15/40
f 21/8/18 32/16/41 34/18/38
f 32/16/41 21/8/18 22/9/19
f 37/14/42 24/9/21 36/16/39
f 24/9/21 37/14/42 25/11/23
f 40/21/45 39/20/44 38/19/43
f 39/20/44 40/21/45 41/10/46
f 44/23/49 43/22/48 42/21/47
f 43/22/48 44/23/49 45/24/50
f 46/22/51 41/10/46 40/21/45
f 41/10/46 46/22/51 47/25/52
f 50/27/53 49/27/53 48/26/53
f 49/27/53 50/27/53 51/28/53
f 49/27/53 51/28/53 52/28/53
f 52/28/53 51/28/53 53/29/53
f 52/28/53 53/29/53 54/29/53
f 54/29/53 53/29/53 55/18/53
f 50/27/55 40/21/45 51/28/54
f 40/21/45 50/27/55 46/22/51
f 57/31/57 46/22/51 56/30/56
f 46/22/51 57/31/57 47/25/52
f 60/33/60 59/32/59 58/19/58
f 59/32/59 60/33/60 61/31/61
f 55/18/63 58/19/58 54/29/62
f 58/19/58 55/18/63 60/33/60
f 46/22/51 48/26/64 56/30/56
f 48/26/64 46/22/51 50/27/55
f 38/19/43 61/31/61 60/33/60
f 61/31/61 38/19/43 39/20/44
f 51/28/54 38/19/43 53/29/65
f 38/19/43 51/28/54 40/21/45
f 58/19/58 52/28/66 54/29/62
f 52/28/66 58/19/58 42/21/47
f 42/21/47 49/27/67 52/28/66
f 49/27/67 42/21/47 43/22/48
f 43/22/48 48/26/64 49/27/67
f 48/26/64 43/22/48 56/30/56
f 45/24/50 56/30/56 43/22/48
f 56/30/56 45/24/50 57/31/57
f 55/18/63 38/19/43 60/33/60
f 38/19/43 55/18/63 53/29/65
f 59/32/59 42/21/47 58/19/58
f 42/21/47 59/32/59 44/23/49
f 64/36/70 63/35/69 62/34/68
f 63/35/69 64/36/70 65/37/71
f 68/39/74 67/18/73 66/38/72
f 67/18/73 68/39/74 69/40/75
f 69/40/75 70/41/76 67/18/73
f 70/41/76 69/40/75 71/42/77
f 74/45/80 73/44/79 72/43/78
f 73/44/79 74/45/80 75/46/81
f 65/37/71 76/47/82 63/35/69
f 76/47/82 65/37/71 77/48/83
f 78/49/84 71/42/77 69/40/75
f 71/42/77 78/49/84 79/50/85
f 79/50/85 80/51/86 71/42/77
f 80/51/86 79/50/85 81/52/87
f 72/43/78 65/37/71 64/36/70
f 65/37/71 72/43/78 73/44/79
f 63/35/69 66/38/72 62/34/68
f 66/38/72 63/35/69 68/39/74
f 71/42/77 82/53/88 70/41/76
f 82/53/88 71/42/77 80/51/86
f 73/44/79 77/48/83 65/37/71
f 77/48/83 73/44/79 83/54/89
f 75/46/81 83/54/89 73/44/79
f 83/54/89 75/46/81 84/55/90
f 85/10/91 69/40/75 68/39/74
f 69/40/75 85/10/91 78/49/84
f 67/18/92 62/34/92 66/38/92
f 62/34/92 67/18/92 70/41/92
f 62/34/92 70/41/92 64/36/92
f 64/36/92 70/41/92 82/53/92
f 64/36/92 82/53/92 72/43/92
f 72/43/92 82/53/92 74/45/92
f 80/51/86 84/55/90 75/46/81
f 84/55/90 80/51/86 81/52/87
f 82/53/88 75/46/81 74/45/80
f 75/46/81 82/53/88 80/51/86
f 76/47/82 68/39/74 63/35/69
f 68/39/74 76/47/82 85/10/91
f 88/57/95 87/56/94 86/56/93
f 87/56/94 88/57/95 89/58/96
f 92/18/99 91/56/98 90/56/97
f 91/56/98 92/18/99 93/18/100
f 87/56/94 93/18/100 94/18/101
f 93/18/100 87/56/94 91/56/98
f 92/18/99 96/56/103 95/18/102
f 96/56/103 92/18/99 90/56/97
f 96/56/103 97/18/104 95/18/102
f 97/18/104 96/56/103 98/56/105
f 98/56/105 99/18/106 97/18/104
f 99/18/106 98/56/105 100/56/107
f 86/56/93 94/18/101 101/18/108
f 94/18/101 86/56/93 87/56/94
f 89/58/96 91/56/98 87/56/94
f 91/56/98 89/58/96 102/59/109
f 101/18/15 99/18/15 103/18/15
f 99/18/15 101/18/15 94/18/15
f 99/18/15 94/18/15 97/18/15
f 97/18/15 94/18/15 93/18/15
f 97/18/15 93/18/15 95/18/15
f 95/18/15 93/18/15 92/18/15
f 86/56/93 103/18/111 104/56/110
f 103/18/111 86/56/93 101/18/108
f 105/60/112 86/56/93 104/56/110
f 86/56/93 105/60/112 88/57/95
f 106/10/113 98/56/105 96/56/103
f 98/56/105 106/10/113 107/61/114
f 107/61/114 100/56/107 98/56/105
f 100/56/107 107/61/114 108/62/115
f 108/62/115 104/56/110 100/56/107
f 104/56/110 108/62/115 105/60/112
f 100/56/107 103/18/111 99/18/106
f 103/18/111 100/56/107 104/56/110
f 90/56/97 106/10/113 96/56/103
f 106/10/113 90/56/97 109/63/116
f 91/56/98 109/63/116 90/56/97
f 109/63/116 91/56/98 102/59/109
g tree-crooked
usemtl colormap
f 3/2/2 2/1/1 1/1/1
f 2/1/1 3/2/2 4/2/2
f 6/3/4 5/2/3 4/2/3
f 5/2/3 6/3/4 7/3/4
f 8/3/5 4/2/2 3/2/2
f 4/2/2 8/3/5 6/3/5
f 5/2/7 10/1/6 9/1/6
f 10/1/6 5/2/7 11/2/7
f 11/2/8 8/3/9 3/2/8
f 8/3/9 11/2/8 12/3/9
f 15/6/10 14/5/10 13/4/10
f 14/5/10 15/6/10 16/7/10
f 19/5/11 18/6/11 17/4/11
f 18/6/11 19/5/11 20/7/11
f 17/4/12 15/6/12 13/4/12
f 15/6/12 17/4/12 18/6/12
f 16/7/13 19/5/13 14/5/13
f 19/5/13 16/7/13 20/7/13
f 15/6/14 20/7/14 16/7/14
f 20/7/14 15/6/14 18/6/14
f 10/1/15 2/1/15 9/1/15
f 2/1/15 10/1/15 1/1/15
f 4/2/3 9/1/16 2/1/16
f 9/1/16 4/2/3 5/2/3
f 10/1/17 3/2/8 1/1/17
f 3/2/8 10/1/17 11/2/8
f 14/5/14 7/3/14 13/4/14
f 13/4/14 7/3/14 17/4/14
f 14/5/14 5/2/7 7/3/14
f 12/3/14 17/4/14 7/3/14
f 5/2/7 14/5/14 11/2/7
f 12/3/14 19/5/14 17/4/14
f 11/2/7 19/5/14 12/3/14
f 19/5/14 11/2/7 14/5/14
f 23/10/20 22/9/19 21/8/18
f 25/11/23 23/10/22 24/9/21
f 23/10/26 27/13/25 26/12/24
f 23/10/27 21/8/18 24/9/21
f 28/11/29 22/9/19 23/10/28
f 29/13/31 28/11/29 23/10/30
f 23/10/32 26/12/24 29/13/31
f 27/13/25 23/10/33 25/11/23
f 29/13/31 30/14/34 28/11/29
f 30/14/34 29/13/31 31/15/35
f 31/15/36 32/16/36 30/14/36
f 32/16/36 31/15/36 33/17/36
f 32/16/36 33/17/36 34/18/36
f 34/18/36 33/17/36 35/15/36
f 34/18/36 35/15/36 36/16/36
f 36/16/36 35/15/36 37/14/36
f 29/13/31 33/17/37 31/15/35
f 33/17/37 29/13/31 26/12/24
f 36/16/39 21/8/18 34/18/38
f 21/8/18 36/16/39 24/9/21
f 33/17/37 27/13/25 35/15/40
f 27/13/25 33/17/37 26/12/24
f 22/9/19 30/14/34 32/16/41
f 30/14/34 22/9/19 28/11/29
f 37/14/42 27/13/25 25/11/23
f 27/13/25 37/14/42 35/15/40
f 21/8/18 32/16/41 34/18/38
f 32/16/41 21/8/18 22/9/19
f 37/14/42 24/9/21 36/16/39
f 24/9/21 37/14/42 25/11/23
f 40/21/45 39/20/44 38/19/43
f 39/20/44 40/21/45 41/10/46
f 44/23/49 43/22/48 42/21/47
f 43/22/48 44/23/49 45/24/50
f 46/22/51 41/10/46 40/21/45
f 41/10/46 46/22/51 47/25/52
f 50/27/53 49/27/53 48/26/53
f 49/27/53 50/27/53 51/28/53
f 49/27/53 51/28/53 52/28/53
f 52/28/53 51/28/53 53/29/53
f 52/28/53 53/29/53 54/29/53
f 54/29/53 53/29/53 55/18/53
f 50/27/55 40/21/45 51/28/54
f 40/21/45 50/27/55 46/22/51
f 57/31/57 46/22/51 56/30/56
f 46/22/51 57/31/57 47/25/52
f 60/33/60 59/32/59 58/19/58
f 59/32/59 60/33/60 61/31/61
f 55/18/63 58/19/58 54/29/62
f 58/19/58 55/18/63 60/33/60
f 46/22/51 48/26/64 56/30/56
f 48/26/64 46/22/51 50/27/55
f 38/19/43 61/31/61 60/33/60
f 61/31/61 38/19/43 39/20/44
f 51/28/54 38/19/43 53/29/65
f 38/19/43 51/28/54 40/21/45
f 58/19/58 52/28/66 54/29/62
f 52/28/66 58/19/58 42/21/47
f 42/21/47 49/27/67 52/28/66
f 49/27/67 42/21/47 43/22/48
f 43/22/48 48/26/64 49/27/67
f 48/26/64 43/22/48 56/30/56
f 45/24/50 56/30/56 43/22/48
f 56/30/56 45/24/50 57/31/57
f 55/18/63 38/19/43 60/33/60
f 38/19/43 55/18/63 53/29/65
f 59/32/59 42/21/47 58/19/58
f 42/21/47 59/32/59 44/23/49
f 64/36/70 63/35/69 62/34/68
f 63/35/69 64/36/70 65/37/71
f 68/39/74 67/18/73 66/38/72
f 67/18/73 68/39/74 69/40/75
f 69/40/75 70/41/76 67/18/73
f 70/41/76 69/40/75 71/42/77
f 74/45/80 73/44/79 72/43/78
f 73/44/79 74/45/80 75/46/81
f 65/37/71 76/47/82 63/35/69
f 76/47/82 65/37/71 77/48/83
f 78/49/84 71/42/77 69/40/75
f 71/42/77 78/49/84 79/50/85
f 79/50/85 80/51/86 71/42/77
f 80/51/86 79/50/85 81/52/87
f 72/43/78 65/37/71 64/36/70
f 65/37/71 72/43/78 73/44/79
f 63/35/69 66/38/72 62/34/68
f 66/38/72 63/35/69 68/39/74
f 71/42/77 82/53/88 70/41/76
f 82/53/88 71/42/77 80/51/86
f 73/44/79 77/48/83 65/37/71
f 77/48/83 73/44/79 83/54/89
f 75/46/81 83/54/89 73/44/79
f 83/54/89 75/46/81 84/55/90
f 85/10/91 69/40/75 68/39/74
f 69/40/75 85/10/91 78/49/84
f 67/18/92 62/34/92 66/38/92
f 62/34/92 67/18/92 70/41/92
f 62/34/92 70/41/92 64/36/92
f 64/36/92 70/41/92 82/53/92
f 64/36/92 82/53/92 72/43/92
f 72/43/92 82/53/92 74/45/92
f 80/51/86 84/55/90 75/46/81
f 84/55/90 80/51/86 81/52/87
f 82/53/88 75/46/81 74/45/80
f 75/46/81 82/53/88 80/51/86
f 76/47/82 68/39/74 63/35/69
f 68/39/74 76/47/82 85/10/91
f 88/57/95 87/56/94 86/56/93
f 87/56/94 88/57/95 89/58/96
f 92/18/99 91/56/98 90/56/97
f 91/56/98 92/18/99 93/18/100
f 87/56/94 93/18/100 94/18/101
f 93/18/100 87/56/94 91/56/98
f 92/18/99 96/56/103 95/18/102
f 96/56/103 92/18/99 90/56/97
f 96/56/103 97/18/104 95/18/102
f 97/18/104 96/56/103 98/56/105
f 98/56/105 99/18/106 97/18/104
f 99/18/106 98/56/105 100/56/107
f 86/56/93 94/18/101 101/18/108
f 94/18/101 86/56/93 87/56/94
f 89/58/96 91/56/98 87/56/94
f 91/56/98 89/58/96 102/59/109
f 101/18/15 99/18/15 103/18/15
f 99/18/15 101/18/15 94/18/15
f 99/18/15 94/18/15 97/18/15
f 97/18/15 94/18/15 93/18/15
f 97/18/15 93/18/15 95/18/15
f 95/18/15 93/18/15 92/18/15
f 86/56/93 103/18/111 104/56/110
f 103/18/111 86/56/93 101/18/108
f 105/60/112 86/56/93 104/56/110
f 86/56/93 105/60/112 88/57/95
f 106/10/113 98/56/105 96/56/103
f 98/56/105 106/10/113 107/61/114
f 107/61/114 100/56/107 98/56/105
f 100/56/107 107/61/114 108/62/115
f 108/62/115 104/56/110 100/56/107
f 104/56/110 108/62/115 105/60/112
f 100/56/107 103/18/111 99/18/106
f 103/18/111 100/56/107 104/56/110
f 90/56/97 106/10/113 96/56/103
f 106/10/113 90/56/97 109/63/116
f 91/56/98 109/63/116 90/56/97
f 109/63/116 91/56/98 102/59/109
