mtllib town_roof-flat.mtl
g roof-flat
v 0.5 0.1259 -0.5
v 0.5 0 -0.5
v 0.5 0.075902 -0.4
v 0.5 0 0.5
v 0.5 0.075902 0.4
v 0.5 0.1259 0.5
v -0.5 0.075902 -0.4
v -0.5 0.075902 0.4
v -0.5 0.1259 -0.5
v -0.5 0 -0.5
v -0.5 0 0.5
v -0.5 0.1259 0.5
vn 1 0 0
vn 0 0.97325 0.22975
vn 0 0.97325 -0.22975
vn -1 0 0
vn 0 0 -1
vn 0 0.89443 0.44721
vn 0 -1 0
vn 0 0.89443 -0.44721
vn 0 0 1
vt 0.21875 0.225
vt 0.21875 0.025
vt 0.21875 0.14557
usemtl colormap
f 3/3/1 2/2/1 1/1/1
f 2/2/1 3/3/1 4/2/1
f 4/2/1 3/3/1 5/3/1
f 4/2/1 5/3/1 6/1/1
f 7/3/2 5/3/3 3/3/2
f 5/3/3 7/3/2 8/3/3
f 10/2/4 7/3/4 9/1/4
f 7/3/4 10/2/4 11/2/4
f 7/3/4 11/2/4 8/3/4
f 8/3/4 11/2/4 12/1/4
f 9/1/5 2/2/5 10/2/5
f 2/2/5 9/1/5 1/1/5
f 9/1/6 3/3/2 1/1/6
f 3/3/2 9/1/6 7/3/2
f 4/2/7 10/2/7 2/2/7
f 10/2/7 4/2/7 11/2/7
f 5/3/3 12/1/8 6/1/8
f 12/1/8 5/3/3 8/3/3
f 6/1/9 11/2/9 4/2/9
f 11/2/9 6/1/9 12/1/9
g roof-flat
usemtl colormap
f 3/3/1 2/2/1 1/1/1
f 2/2/1 3/3/1 4/2/1
f 4/2/1 3/3/1 5/3/1
f 4/2/1 5/3/1 6/1/1
f 7/3/2 5/3/3 3/3/2
f 5/3/3 7/3/2 8/3/3
f 10/2/4 7/3/4 9/1/4
f 7/3/4 10/2/4 11/2/4
f 7/3/4 11/2/4 8/3/4
f 8/3/4 11/2/4 12/1/4
f 9/1/5 2/2/5 10/2/5
f 2/2/5 9/1/5 1/1/5
f 9/1/6 3/3/2 1/1/6
f 3/3/2 9/1/6 7/3/2
f 4/2/7 10/2/7 2/2/7
f 10/2/7 4/2/7 11/2/7
f 5/3/3 12/1/8 6/1/8
f 12/1/8 5/3/3 8/3/3
f 6/1/9 11/2/9 4/2/9
f 11/2/9 6/1/9 12/1/9
