mtllib town_tree-high-crooked.mtl
g tree-high-crooked
v 0.15847 0.8909 -0.019373
v 0.16043 0.84631 -0.019373
v 0.15847 0.8909 0.025267
v 0.16043 0.84631 0.025267
v -0.14432 0 -0.14432
v -0.093808 0.17648 -0.093808
v -0.14432 0 0.14432
v -0.093808 0.17648 0.093808
v 0.065128 0.82842 0.038947
v 0.061964 0.90035 0.038947
v 0.065128 0.82842 -0.033053
v 0.061964 0.90035 -0.033053
v 0.052932 0.37963 -0.084871
v -0.027068 0.37963 -0.084871
v 0.038132 0.36792 -0.15545
v -0.012268 0.36792 -0.15545
v -0.012268 0.31757 -0.15767
v -0.027068 0.29971 -0.088387
v 0.14432 0 -0.14432
v 0.14432 0 0.14432
v 0.093808 0.17648 -0.093808
v 0.093808 0.17648 0.093808
v -0.055581 1.0454 -0.055581
v -0.055581 1.0454 0.055581
v -0.0242 0.64608 0.07315
v -0.0061998 0.62902 0.18601
v -0.0242 0.55816 0.077017
v -0.0061998 0.58506 0.18794
v 0.0298 0.58506 0.18794
v 0.0298 0.62902 0.18601
v 0.0478 0.55816 0.077017
v 0.0478 0.64608 0.07315
v 0.038132 0.31757 -0.15767
v 0.052932 0.29971 -0.088387
v 0.055581 1.0454 -0.055581
v 0.055581 1.0454 0.055581
v 1.0468e-14 2.4478 -0.13592
v 0.10064 2.4492 -0.094256
v 9.0239e-15 2.9726 -0.010919
v -0.10064 2.4492 -0.094256
v -0.14233 2.4525 0.0063328
v 1.0468e-14 2.4572 0.14859
v -0.10064 2.4559 0.10692
v 0.14233 2.4525 0.0063328
v 0.10064 2.4559 0.10692
v 0.20047 2.3143 0.010919
v 0.14175 2.319 0.15259
v 0.14175 2.3096 -0.13075
v 9.0239e-15 2.3209 0.21128
v 9.0239e-15 2.3076 -0.18944
v -0.14175 2.319 0.15259
v -0.14175 2.3096 -0.13075
v -0.20047 2.3143 0.010919
v -0.14021 2.0945 0.14175
v -0.11361 2.3171 0.096235
v 0.0010269 2.1066 0.20047
v -0.017138 2.3185 0.13811
v 0.0010269 2.1066 -0.20047
v 0.14226 2.1187 -0.14175
v -0.016345 2.3092 -0.14083
v 0.085018 2.3105 -0.1011
v 0.14226 2.1187 0.14175
v 0.08303 2.3172 0.099693
v 0.30014 1.9231 -7.2191e-16
v 0.21775 1.916 -0.19965
v 0.21775 1.916 0.19965
v 0.018827 1.899 0.28235
v 0.018827 1.899 -0.28235
v -0.18009 1.8819 0.19965
v -0.18009 1.8819 -0.19965
v -0.26249 1.8748 -7.2191e-16
v 0.20076 2.1237 -3.6096e-15
v 0.12683 2.3139 -2.1657e-15
v -0.14021 2.0945 -0.14175
v -0.11437 2.3107 -0.097549
v -0.19871 2.0895 -3.6096e-15
v -0.15328 2.3139 -2.1657e-15
v 0.26152 1.5181 -0.31365
v 0.20281 1.7457 -0.20785
v -0.026136 1.5605 -0.43002
v -0.0014256 1.7758 -0.29048
v 0.38067 1.478 -0.0268
v 0.26152 1.4637 0.26248
v 0.28741 1.7172 -0.0041878
v 0.20281 1.7071 0.2012
v -0.026136 1.4835 0.38474
v -0.0014256 1.7211 0.28801
v -0.31379 1.5804 -0.30776
v -0.20566 1.7899 -0.20367
v -0.43294 1.566 -0.018482
v -0.29026 1.7797 0.0017179
v 0.17528 1.9124 -0.14597
v 0.012464 1.8984 -0.22889
v 0.17063 1.912 0.16666
v 0.017276 1.8988 0.23748
v -0.20566 1.7512 0.20538
v -0.15444 1.8841 0.18089
v -0.31379 1.5259 0.26836
v -0.16781 1.883 -0.1675
v -0.2398 1.8768 0.010895
v 0.23369 1.9174 0.014732
v 0.2568 1.3314 0.2568
v 1.0829e-14 1.3314 0.36317
v 0.21816 1.4726 0.21816
v 1.2272e-14 1.4884 0.30239
v -0.36317 1.3314 -6.4972e-15
v -0.2568 1.3314 0.2568
v -0.5115 1.0454 -7.2191e-16
v -0.36169 1.0454 0.36169
v 5.0534e-15 1.0454 0.5115
v -0.36169 1.0454 -0.36169
v -0.2568 1.3314 -0.2568
v 5.0534e-15 1.0454 -0.5115
v 1.0829e-14 1.3314 -0.36317
v 0.36169 1.0454 -0.36169
v 0.2568 1.3314 -0.2568
v 0.36169 1.0454 0.36169
v -0.20518 1.52 0.20518
v 0.5115 1.0454 -7.2191e-16
v 0.36317 1.3314 -6.4972e-15
v 0.30418 1.4838 -5.0534e-15
v -0.19512 1.5568 -0.19512
v 1.3716e-14 1.5436 -0.28104
v 0.20683 1.514 -0.20683
v -0.27952 1.5475 -2.1657e-15
vn 0.99903 0.043949 0
vn -0.9614 0.27517 0
vn -0.98519 0.17146 0
vn 0.14094 0.0062001 0.99
vn 0.14094 0.0062001 -0.99
vn 0 0.98652 -0.16366
vn -0.97837 0.0090911 -0.20666
vn 0.9614 0.27517 0
vn 0.98519 0.17146 0
vn 0 -1 0
vn -0.99903 0.043949 0
vn -0.98733 0.0069737 0.15852
vn 0 0.27517 0.9614
vn 0 0.17146 0.98519
vn 0 0.043949 0.99903
vn 0 -0.97183 0.23568
vn 0.18445 -0.98284 0
vn 0.98733 0.0069737 0.15852
vn 0.97837 0.0090911 -0.20666
vn 0 -0.96834 -0.24965
vn 0 0.98877 0.14943
vn 0 0.043949 -0.99903
vn 0.097429 0.99524 0
vn 0 0.27517 -0.9614
vn 0 0.17146 -0.98519
vn 0 0.2999 -0.95397
vn 0.66716 0.30906 -0.67778
vn 0.37102 0.21518 -0.90335
vn -0.66716 0.30906 -0.67778
vn -0.89572 0.23257 -0.37894
vn -0.9435 0.33118 -0.010986
vn 0 0.36246 0.932
vn -0.66716 0.3533 0.6558
vn -0.37102 0.27457 0.8871
vn -0.37102 0.21518 -0.90335
vn 0.89572 0.23257 -0.37894
vn 0.9435 0.33118 -0.010986
vn 0.89572 0.25718 0.36269
vn 0.66716 0.3533 0.6558
vn 0.37102 0.27457 0.8871
vn -0.89572 0.25718 0.36269
vn 0.9219 0.38721 -0.012845
vn 0.65188 0.40883 0.63868
vn 0 -0.99945 0.033155
vn 0 0.41778 0.90855
vn 0 0.35665 -0.93424
vn -0.65188 0.3656 -0.66437
vn -0.65188 0.40883 0.63868
vn 0.65188 0.3656 -0.66437
vn -0.9219 0.38721 -0.012845
vn -0.69368 0.26898 0.66817
vn -0.70599 0.22189 0.67256
vn -0.027953 0.32606 0.94494
vn -0.043367 0.27865 0.95941
vn -0.027953 0.32606 -0.94494
vn 0.63778 0.38313 -0.66817
vn -0.043331 0.27865 -0.95941
vn 0.6461 0.3378 -0.68443
vn 0.63778 0.38313 0.66817
vn 0.63851 0.33711 0.69186
vn 0.085417 -0.99635 0
vn -0.031237 0.36437 0.93073
vn 0.62448 0.42058 0.65813
vn 0.91353 0.40677 0
vn 0.93203 0.36232 0.0075157
vn -0.69368 0.26898 -0.66817
vn -0.71339 0.22121 -0.66494
vn -0.96944 0.24534 0
vn -0.98009 0.19839 0.0075533
vn -0.68696 0.30815 -0.65813
vn -0.95857 0.28487 0
vn 0.89609 0.44387 0
vn -0.68696 0.30815 0.65813
vn -0.031237 0.36437 -0.93073
vn 0.62448 0.42058 -0.65813
vn 0.67376 0.44727 -0.58822
vn 0.6841 0.4035 -0.60761
vn 0.049724 0.53923 -0.84069
vn 0.04497 0.49768 -0.86619
vn 0.93224 0.36024 0.034053
vn 0.67376 0.32912 0.66161
vn 0.94884 0.31436 0.029716
vn 0.6841 0.2825 0.67246
vn 0.049724 0.37215 0.92684
vn 0.04497 0.32656 0.94411
vn -0.57431 0.58225 -0.57546
vn -0.59416 0.54175 -0.59455
vn -0.83279 0.55113 0.052097
vn -0.8589 0.50988 0.048197
vn 0.72563 0.34162 -0.59729
vn 0.081981 0.43996 -0.89427
vn 0.70539 0.22414 0.67245
vn 0.081632 0.26464 0.96089
vn -0.59416 0.42074 0.68553
vn -0.58397 0.35925 0.72796
vn -0.57431 0.46411 0.67437
vn -0.60545 0.49002 -0.62715
vn -0.88794 0.45544 0.064375
vn 0.96589 0.25497 0.045143
vn -0.108 -0.98974 -0.093558
vn 0.64289 0.41639 0.64289
vn 0 0.41639 0.90918
vn 0.65781 0.36097 0.66105
vn -0.024171 0.36087 0.9323
vn -0.90918 0.41639 0
vn -0.64289 0.41639 0.64289
vn -0.88771 0.46041 0
vn -0.6277 0.46041 0.6277
vn 0 0.46041 0.88771
vn -0.6277 0.46041 -0.6277
vn -0.64289 0.41639 -0.64289
vn 0 0.46041 -0.88771
vn 0 0.41639 -0.90918
vn 0.6277 0.46041 -0.6277
vn 0.64289 0.41639 -0.64289
vn 0.6277 0.46041 0.6277
vn -0.68155 0.36079 0.63665
vn 0.90918 0.41639 0
vn 0.88771 0.46041 0
vn 0.93237 0.3609 -0.020952
vn -0.66103 0.36097 -0.65783
vn -0.024 0.36087 -0.93231
vn 0.63663 0.36079 -0.68157
vn -0.93237 0.3609 -0.020786
vt 0.59375 0.054564
vt 0.59375 0.063096
vt 0.59375 0.225
vt 0.59375 0.19124
vt 0.59375 0.066517
vt 0.59375 0.052757
vt 0.59375 0.15237
vt 0.59375 0.15461
vt 0.59375 0.16425
vt 0.59375 0.16766
vt 0.59375 0.025
vt 0.59375 0.1014
vt 0.59375 0.10466
vt 0.59375 0.11822
vt 0.59375 0.11307
vt 0.46875 0.096082
vt 0.46875 0.09629
vt 0.46875 0.175
vt 0.46875 0.096792
vt 0.46875 0.097501
vt 0.46875 0.097293
vt 0.46875 0.076
vt 0.46875 0.076706
vt 0.46875 0.075293
vt 0.46875 0.076999
vt 0.46875 0.075
vt 0.46875 0.12451
vt 0.46875 0.17469
vt 0.46875 0.12724
vt 0.46875 0.12997
vt 0.46875 0.17291
vt 0.46875 0.17321
vt 0.46875 0.17471
vt 0.46875 0.085873
vt 0.46875 0.08428
vt 0.46875 0.080436
vt 0.46875 0.076592
vt 0.46875 0.1311
vt 0.46875 0.17397
vt 0.46875 0.17324
vt 0.46875 0.12338
vt 0.46875 0.087003
vt 0.46875 0.13716
vt 0.46875 0.096347
vt 0.46875 0.1438
vt 0.46875 0.078161
vt 0.46875 0.13089
vt 0.46875 0.12864
vt 0.46875 0.079371
vt 0.46875 0.13174
vt 0.46875 0.10072
vt 0.46875 0.1469
vt 0.46875 0.097556
vt 0.46875 0.14466
vt 0.46875 0.1739
vt 0.46875 0.17082
vt 0.46875 0.17381
vt 0.46875 0.17091
vt 0.46875 0.13838
vt 0.46875 0.16767
vt 0.46875 0.088714
vt 0.46875 0.16741
vt 0.46875 0.16605
vt 0.46875 0.13093
vt 0.46875 0.15854
vt 0.46875 0.16164
vt 0.46875 0.16781
vt 0.46875 0.16074
vt 0.46875 0.17242
vt 0.46875 0.16664
vt 0.46875 0.17319
usemtl colormap
f 3/1/1 2/2/1 1/1/1
f 2/2/1 3/1/1 4/2/1
f 7/3/2 6/4/3 5/3/2
f 6/4/3 7/3/2 8/4/3
f 4/2/4 10/6/4 9/5/4
f 10/6/4 4/2/4 3/1/4
f 12/6/5 2/2/5 11/5/5
f 2/2/5 12/6/5 1/1/5
f 15/8/6 14/7/6 13/7/6
f 14/7/6 15/8/6 16/8/6
f 18/10/7 16/8/7 17/9/7
f 16/8/7 18/10/7 14/7/7
f 21/4/9 20/3/8 19/3/8
f 20/3/8 21/4/9 22/4/9
f 7/3/10 19/3/10 20/3/10
f 19/3/10 7/3/10 5/3/10
f 8/4/3 23/11/11 6/4/3
f 23/11/11 8/4/3 24/11/11
f 27/14/12 26/13/12 25/12/12
f 26/13/12 27/14/12 28/15/12
f 22/4/14 7/3/13 20/3/13
f 7/3/13 22/4/14 8/4/14
f 30/13/15 28/15/15 29/15/15
f 28/15/15 30/13/15 26/13/15
f 29/15/16 27/14/16 31/14/16
f 27/14/16 29/15/16 28/15/16
f 9/5/17 2/2/17 4/2/17
f 2/2/17 9/5/17 11/5/17
f 30/13/18 31/14/18 32/12/18
f 31/14/18 30/13/18 29/15/18
f 15/8/19 34/10/19 33/9/19
f 34/10/19 15/8/19 13/7/19
f 18/10/20 33/9/20 34/10/20
f 33/9/20 18/10/20 17/9/20
f 25/12/21 30/13/21 32/12/21
f 30/13/21 25/12/21 26/13/21
f 16/8/22 33/9/22 17/9/22
f 33/9/22 16/8/22 15/8/22
f 12/6/23 3/1/23 1/1/23
f 3/1/23 12/6/23 10/6/23
f 6/4/25 19/3/24 5/3/24
f 19/3/24 6/4/25 21/4/25
f 18/10/22 23/11/22 14/7/22
f 14/7/22 23/11/22 13/7/22
f 18/10/22 6/4/25 23/11/22
f 35/11/22 13/7/22 23/11/22
f 6/4/25 18/10/22 21/4/25
f 35/11/22 34/10/22 13/7/22
f 21/4/25 34/10/22 35/11/22
f 34/10/22 21/4/25 18/10/22
f 22/4/14 31/14/15 8/4/14
f 31/14/15 22/4/14 36/11/15
f 27/14/15 8/4/14 31/14/15
f 31/14/15 36/11/15 32/12/15
f 8/4/14 27/14/15 24/11/15
f 32/12/15 36/11/15 25/12/15
f 24/11/15 27/14/15 25/12/15
f 24/11/15 25/12/15 36/11/15
f 12/6/1 36/11/1 10/6/1
f 10/6/1 36/11/1 9/5/1
f 36/11/1 12/6/1 35/11/1
f 22/4/9 9/5/1 36/11/1
f 11/5/1 35/11/1 12/6/1
f 22/4/9 11/5/1 9/5/1
f 11/5/1 21/4/9 35/11/1
f 21/4/9 11/5/1 22/4/9
f 39/18/28 38/17/27 37/16/26
f 41/19/31 39/18/30 40/17/29
f 39/18/34 43/21/33 42/20/32
f 39/18/35 37/16/26 40/17/29
f 44/19/37 38/17/27 39/18/36
f 45/21/39 44/19/37 39/18/38
f 39/18/40 42/20/32 45/21/39
f 43/21/33 39/18/41 41/19/31
f 45/21/39 46/22/42 44/19/37
f 46/22/42 45/21/39 47/23/43
f 47/23/44 48/24/44 46/22/44
f 48/24/44 47/23/44 49/25/44
f 48/24/44 49/25/44 50/26/44
f 50/26/44 49/25/44 51/23/44
f 50/26/44 51/23/44 52/24/44
f 52/24/44 51/23/44 53/22/44
f 45/21/39 49/25/45 47/23/43
f 49/25/45 45/21/39 42/20/32
f 52/24/47 37/16/26 50/26/46
f 37/16/26 52/24/47 40/17/29
f 49/25/45 43/21/33 51/23/48
f 43/21/33 49/25/45 42/20/32
f 38/17/27 46/22/42 48/24/49
f 46/22/42 38/17/27 44/19/37
f 53/22/50 43/21/33 41/19/31
f 43/21/33 53/22/50 51/23/48
f 37/16/26 48/24/49 50/26/46
f 48/24/49 37/16/26 38/17/27
f 53/22/50 40/17/29 52/24/47
f 40/17/29 53/22/50 41/19/31
f 56/29/53 55/28/52 54/27/51
f 55/28/52 56/29/53 57/18/54
f 60/31/57 59/30/56 58/29/55
f 59/30/56 60/31/57 61/32/58
f 62/30/59 57/18/54 56/29/53
f 57/18/54 62/30/59 63/33/60
f 66/35/61 65/35/61 64/34/61
f 65/35/61 66/35/61 67/36/61
f 65/35/61 67/36/61 68/36/61
f 68/36/61 67/36/61 69/37/61
f 68/36/61 69/37/61 70/37/61
f 70/37/61 69/37/61 71/26/61
f 66/35/63 56/29/53 67/36/62
f 56/29/53 66/35/63 62/30/59
f 73/39/65 62/30/59 72/38/64
f 62/30/59 73/39/65 63/33/60
f 76/41/68 75/40/67 74/27/66
f 75/40/67 76/41/68 77/39/69
f 71/26/71 74/27/66 70/37/70
f 74/27/66 71/26/71 76/41/68
f 62/30/59 64/34/72 72/38/64
f 64/34/72 62/30/59 66/35/63
f 54/27/51 77/39/69 76/41/68
f 77/39/69 54/27/51 55/28/52
f 67/36/62 54/27/51 69/37/73
f 54/27/51 67/36/62 56/29/53
f 74/27/66 68/36/74 70/37/70
f 68/36/74 74/27/66 58/29/55
f 58/29/55 65/35/75 68/36/74
f 65/35/75 58/29/55 59/30/56
f 59/30/56 64/34/72 65/35/75
f 64/34/72 59/30/56 72/38/64
f 61/32/58 72/38/64 59/30/56
f 72/38/64 61/32/58 73/39/65
f 71/26/71 54/27/51 76/41/68
f 54/27/51 71/26/71 69/37/73
f 75/40/67 58/29/55 74/27/66
f 58/29/55 75/40/67 60/31/57
f 80/44/78 79/43/77 78/42/76
f 79/43/77 80/44/78 81/45/79
f 84/47/82 83/26/81 82/46/80
f 83/26/81 84/47/82 85/48/83
f 85/48/83 86/49/84 83/26/81
f 86/49/84 85/48/83 87/50/85
f 90/53/88 89/52/87 88/51/86
f 89/52/87 90/53/88 91/54/89
f 81/45/79 92/55/90 79/43/77
f 92/55/90 81/45/79 93/56/91
f 94/57/92 87/50/85 85/48/83
f 87/50/85 94/57/92 95/58/93
f 95/58/93 96/59/94 87/50/85
f 96/59/94 95/58/93 97/60/95
f 88/51/86 81/45/79 80/44/78
f 81/45/79 88/51/86 89/52/87
f 79/43/77 82/46/80 78/42/76
f 82/46/80 79/43/77 84/47/82
f 87/50/85 98/61/96 86/49/84
f 98/61/96 87/50/85 96/59/94
f 89/52/87 93/56/91 81/45/79
f 93/56/91 89/52/87 99/62/97
f 91/54/89 99/62/97 89/52/87
f 99/62/97 91/54/89 100/63/98
f 101/18/99 85/48/83 84/47/82
f 85/48/83 101/18/99 94/57/92
f 83/26/100 78/42/100 82/46/100
f 78/42/100 83/26/100 86/49/100
f 78/42/100 86/49/100 80/44/100
f 80/44/100 86/49/100 98/61/100
f 80/44/100 98/61/100 88/51/100
f 88/51/100 98/61/100 90/53/100
f 96/59/94 100/63/98 91/54/89
f 100/63/98 96/59/94 97/60/95
f 98/61/96 91/54/89 90/53/88
f 91/54/89 98/61/96 96/59/94
f 92/55/90 84/47/82 79/43/77
f 84/47/82 92/55/90 101/18/99
f 104/65/103 103/64/102 102/64/101
f 103/64/102 104/65/103 105/66/104
f 108/26/107 107/64/106 106/64/105
f 107/64/106 108/26/107 109/26/108
f 103/64/102 109/26/108 110/26/109
f 109/26/108 103/64/102 107/64/106
f 108/26/107 112/64/111 111/26/110
f 112/64/111 108/26/107 106/64/105
f 112/64/111 113/26/112 111/26/110
f 113/26/112 112/64/111 114/64/113
f 114/64/113 115/26/114 113/26/112
f 115/26/114 114/64/113 116/64/115
f 102/64/101 110/26/109 117/26/116
f 110/26/109 102/64/101 103/64/102
f 105/66/104 107/64/106 103/64/102
f 107/64/106 105/66/104 118/67/117
f 117/26/10 115/26/10 119/26/10
f 115/26/10 117/26/10 110/26/10
f 115/26/10 110/26/10 113/26/10
f 113/26/10 110/26/10 109/26/10
f 113/26/10 109/26/10 111/26/10
f 111/26/10 109/26/10 108/26/10
f 102/64/101 119/26/119 120/64/118
f 119/26/119 102/64/101 117/26/116
f 121/68/120 102/64/101 120/64/118
f 102/64/101 121/68/120 104/65/103
f 122/18/121 114/64/113 112/64/111
f 114/64/113 122/18/121 123/69/122
f 123/69/122 116/64/115 114/64/113
f 116/64/115 123/69/122 124/70/123
f 124/70/123 120/64/118 116/64/115
f 120/64/118 124/70/123 121/68/120
f 116/64/115 119/26/119 115/26/114
f 119/26/119 116/64/115 120/64/118
f 106/64/105 122/18/121 112/64/111
f 122/18/121 106/64/105 125/71/124
f 107/64/106 125/71/124 106/64/105
f 125/71/124 107/64/106 118/67/117
g tree-high-crooked
usemtl colormap
f 3/1/1 2/2/1 1/1/1
f 2/2/1 3/1/1 4/2/1
f 7/3/2 6/4/3 5/3/2
f 6/4/3 7/3/2 8/4/3
f 4/2/4 10/6/4 9/5/4
f 10/6/4 4/2/4 3/1/4
f 12/6/5 2/2/5 11/5/5
f 2/2/5 12/6/5 1/1/5
f 15/8/6 14/7/6 13/7/6
f 14/7/6 15/8/6 16/8/6
f 18/10/7 16/8/7 17/9/7
f 16/8/7 18/10/7 14/7/7
f 21/4/9 20/3/8 19/3/8
f 20/3/8 21/4/9 22/4/9
f 7/3/10 19/3/10 20/3/10
f 19/3/10 7/3/10 5/3/10
f 8/4/3 23/11/11 6/4/3
f 23/11/11 8/4/3 24/11/11
f 27/14/12 26/13/12 25/12/12
f 26/13/12 27/14/12 28/15/12
f 22/4/14 7/3/13 20/3/13
f 7/3/13 22/4/14 8/4/14
f 30/13/15 28/15/15 29/15/15
f 28/15/15 30/13/15 26/13/15
f 29/15/16 27/14/16 31/14/16
f 27/14/16 29/15/16 28/15/16
f 9/5/17 2/2/17 4/2/17
f 2/2/17 9/5/17 11/5/17
f 30/13/18 31/14/18 32/12/18
f 31/14/18 30/13/18 29/15/18
f 15/8/19 34/10/19 33/9/19
f 34/10/19 15/8/19 13/7/19
f 18/10/20 33/9/20 34/10/20
f 33/9/20 18/10/20 17/9/20
f 25/12/21 30/13/21 32/12/21
f 30/13/21 25/12/21 26/13/21
f 16/8/22 33/9/22 17/9/22
f 33/9/22 16/8/22 15/8/22
f 12/6/23 3/1/23 1/1/23
f 3/1/23 12/6/23 10/6/23
f 6/4/25 19/3/24 5/3/24
f 19/3/24 6/4/25 21/4/25
f 18/10/22 23/11/22 14/7/22
f 14/7/22 23/11/22 13/7/22
f 18/10/22 6/4/25 23/11/22
f 35/11/22 13/7/22 23/11/22
f 6/4/25 18/10/22 21/4/25
f 35/11/22 34/10/22 13/7/22
f 21/4/25 34/10/22 35/11/22
f 34/10/22 21/4/25 18/10/22
f 22/4/14 31/14/15 8/4/14
f 31/14/15 22/4/14 36/11/15
f 27/14/15 8/4/14 31/14/15
f 31/14/15 36/11/15 32/12/15
f 8/4/14 27/14/15 24/11/15
f 32/12/15 36/11/15 25/12/15
f 24/11/15 27/14/15 25/12/15
f 24/11/15 25/12/15 36/11/15
f 12/6/1 36/11/1 10/6/1
f 10/6/1 36/11/1 9/5/1
f 36/11/1 12/6/1 35/11/1
f 22/4/9 9/5/1 36/11/1
f 11/5/1 35/11/1 12/6/1
f 22/4/9 11/5/1 9/5/1
f 11/5/1 21/4/9 35/11/1
f 21/4/9 11/5/1 22/4/9
f 39/18/28 38/17/27 37/16/26
f 41/19/31 39/18/30 40/17/29
f 39/18/34 43/21/33 42/20/32
f 39/18/35 37/16/26 40/17/29
f 44/19/37 38/17/27 39/18/36
f 45/21/39 44/19/37 39/18/38
f 39/18/40 42/20/32 45/21/39
f 43/21/33 39/18/41 41/19/31
f 45/21/39 46/22/42 44/19/37
f 46/22/42 45/21/39 47/23/43
f 47/23/44 48/24/44 46/22/44
f 48/24/44 47/23/44 49/25/44
f 48/24/44 49/25/44 50/26/44
f 50/26/44 49/25/44 51/23/44
f 50/26/44 51/23/44 52/24/44
f 52/24/44 51/23/44 53/22/44
f 45/21/39 49/25/45 47/23/43
f 49/25/45 45/21/39 42/20/32
f 52/24/47 37/16/26 50/26/46
f 37/16/26 52/24/47 40/17/29
f 49/25/45 43/21/33 51/23/48
f 43/21/33 49/25/45 42/20/32
f 38/17/27 46/22/42 48/24/49
f 46/22/42 38/17/27 44/19/37
f 53/22/50 43/21/33 41/19/31
f 43/21/33 53/22/50 51/23/48
f 37/16/26 48/24/49 50/26/46
f 48/24/49 37/16/26 38/17/27
f 53/22/50 40/17/29 52/24/47
f 40/17/29 53/22/50 41/19/31
f 56/29/53 55/28/52 54/27/51
f 55/28/52 56/29/53 57/18/54
f 60/31/57 59/30/56 58/29/55
f 59/30/56 60/31/57 61/32/58
f 62/30/59 57/18/54 56/29/53
f 57/18/54 62/30/59 63/33/60
f 66/35/61 65/35/61 64/34/61
f 65/35/61 66/35/61 67/36/61
f 65/35/61 67/36/61 68/36/61
f 68/36/61 67/36/61 69/37/61
f 68/36/61 69/37/61 70/37/61
f 70/37/61 69/37/61 71/26/61
f 66/35/63 56/29/53 67/36/62
f 56/29/53 66/35/63 62/30/59
f 73/39/65 62/30/59 72/38/64
f 62/30/59 73/39/65 63/33/60
f 76/41/68 75/40/67 74/27/66
f 75/40/67 76/41/68 77/39/69
f 71/26/71 74/27/66 70/37/70
f 74/27/66 71/26/71 76/41/68
f 62/30/59 64/34/72 72/38/64
f 64/34/72 62/30/59 66/35/63
f 54/27/51 77/39/69 76/41/68
f 77/39/69 54/27/51 55/28/52
f 67/36/62 54/27/51 69/37/73
f 54/27/51 67/36/62 56/29/53
f 74/27/66 68/36/74 70/37/70
f 68/36/74 74/27/66 58/29/55
f 58/29/55 65/35/75 68/36/74
f 65/35/75 58/29/55 59/30/56
f 59/30/56 64/34/72 65/35/75
f 64/34/72 59/30/56 72/38/64
f 61/32/58 72/38/64 59/30/56
f 72/38/64 61/32/58 73/39/65
f 71/26/71 54/27/51 76/41/68
f 54/27/51 71/26/71 69/37/73
f 75/40/67 58/29/55 74/27/66
f 58/29/55 75/40/67 60/31/57
f 80/44/78 79/43/77 78/42/76
f 79/43/77 80/44/78 81/45/79
f 84/47/82 83/26/81 82/46/80
f 83/26/81 84/47/82 85/48/83
f 85/48/83 86/49/84 83/26/81
f 86/49/84 85/48/83 87/50/85
f 90/53/88 89/52/87 88/51/86
f 89/52/87 90/53/88 91/54/89
f 81/45/79 92/55/90 79/43/77
f 92/55/90 81/45/79 93/56/91
f 94/57/92 87/50/85 85/48/83
f 87/50/85 94/57/92 95/58/93
f 95/58/93 96/59/94 87/50/85
f 96/59/94 95/58/93 97/60/95
f 88/51/86 81/45/79 80/44/78
f 81/45/79 88/51/86 89/52/87
f 79/43/77 82/46/80 78/42/76
f 82/46/80 79/43/77 84/47/82
f 87/50/85 98/61/96 86/49/84
f 98/61/96 87/50/85 96/59/94
f 89/52/87 93/56/91 81/45/79
f 93/56/91 89/52/87 99/62/97
f 91/54/89 99/62/97 89/52/87
f 99/62/97 91/54/89 100/63/98
f 101/18/99 85/48/83 84/47/82
f 85/48/83 101/18/99 94/57/92
f 83/26/100 78/42/100 82/46/100
f 78/42/100 83/26/100 86/49/100
f 78/42/100 86/49/100 80/44/100
f 80/44/100 86/49/100 98/61/100
f 80/44/100 98/61/100 88/51/100
f 88/51/100 98/61/100 90/53/100
f 96/59/94 100/63/98 91/54/89
f 100/63/98 96/59/94 97/60/95
f 98/61/96 91/54/89 90/53/88
f 91/54/89 98/61/96 96/59/94
f 92/55/90 84/47/82 79/43/77
f 84/47/82 92/55/90 101/18/99
f 104/65/103 103/64/102 102/64/101
f 103/64/102 104/65/103 105/66/104
f 108/26/107 107/64/106 106/64/105
f 107/64/106 108/26/107 109/26/108
f 103/64/102 109/26/108 110/26/109
f 109/26/108 103/64/102 107/64/106
f 108/26/107 112/64/111 111/26/110
f 112/64/111 108/26/107 106/64/105
f 112/64/111 113/26/112 111/26/110
f 113/26/112 112/64/111 114/64/113
f 114/64/113 115/26/114 113/26/112
f 115/26/114 114/64/113 116/64/115
f 102/64/101 110/26/109 117/26/116
f 110/26/109 102/64/101 103/64/102
f 105/66/104 107/64/106 103/64/102
f 107/64/106 105/66/104 118/67/117
f 117/26/10 115/26/10 119/26/10
f 115/26/10 117/26/10 110/26/10
f 115/26/10 110/26/10 113/26/10
f 113/26/10 110/26/10 109/26/10
f 113/26/10 109/26/10 111/26/10
f 111/26/10 109/26/10 108/26/10
f 102/64/101 119/26/119 120/64/118
f 119/26/119 102/64/101 117/26/116
f 121/68/120 102/64/101 120/64/118
f 102/64/101 121/68/120 104/65/103
f 122/18/121 114/64/113 112/64/111
f 114/64/113 122/18/121 123/69/122
f 123/69/122 116/64/115 114/64/113
f 116/64/115 123/69/122 124/70/123
f 124/70/123 120/64/118 116/64/115
f 120/64/118 124/70/123 121/68/120
f 116/64/115 119/26/119 115/26/114
f 119/26/119 116/64/115 120/64/118
f 106/64/105 122/18/121 112/64/111
f 122/18/121 106/64/105 125/71/124
f 107/64/106 125/71/124 106/64/105
f 125/71/124 107/64/106 118/67/117
