mtllib town_roof-high-gable-end.mtl
g roof-high-gable-end
v -0.49656 0.11941 -0.4962
v 4.3315e-15 1.1118 -2.5989e-14
v -0.49656 0.11941 0.4962
v 0.55 -0.044721 0.52236
v -0.52278 -0.044721 0.52236
v 0.55 -0.022361 0.56708
v -0.5675 -0.022361 0.56708
v 0.55 -0.022361 -0.56708
v 0.55 -0.044721 -0.52236
v 0.55 0.11941 -0.4962
v 0.55 1 0
v 0.55 1.1118 -5.7753e-15
v 0.55 0.11941 0.4962
v 0.475 1 -2.8876e-15
v 0.475 0.2 -0.4
v 0.5 0.2 -0.4
v 0.5 0 -0.5
v -0.52278 -0.044721 -0.52236
v -0.50042 0 -0.5
v -0.5675 -0.022361 -0.56708
v 0.475 0.2 0.4
v 0.5 0.2 0.4
v 0.5 0 0.5
v -0.50042 0 0.5
v -0.49656 0.11941 -0.4962
v -0.49656 0.11941 0.4962
v 0.55 0.11941 0.4962
v 0.55 0.11941 -0.4962
v 0.5 0 0.4
v 0.5 0 -0.4
v 0.475 0 0.4
v 0.475 0 -0.4
vn -0.89429 0.44748 0
vn 0 -0.89443 0.44721
vn 1 0 0
vn 0 -0.44721 0.89443
vn 0 -0.89443 -0.44721
vn 0 -0.44721 -0.89443
vn 0 0.44721 -0.89443
vn 0 0.44721 0.89443
vn -0.44721 -0.89443 0
vn 0.89443 -0.44721 0
vn 0 0 -1
vn 0 0 1
vn 0 -1 0
vt 0.09375 0.04648
vt 0.09375 0.225
vt 0.09375 0.025
vt 0.09375 0.20489
vt 0.09375 0.060978
vt 0.09375 0.075
vt 0.09375 0.175
vt 0.59375 0.060978
vt 0.59375 0.025
vt 0.71875 0.025
vt 0.71875 0.060978
vt 0.71875 0.20489
usemtl colormap
f 3/1/1 2/2/1 1/1/1
f 6/3/2 5/3/2 4/3/2
f 5/3/2 6/3/2 7/3/2
f 10/1/3 9/3/3 8/3/3
f 9/3/3 10/1/3 11/4/3
f 11/4/3 10/1/3 12/2/3
f 11/4/3 12/2/3 13/1/3
f 11/4/3 13/1/3 4/3/3
f 4/3/3 13/1/3 6/3/3
f 15/5/4 11/4/4 14/4/4
f 16/5/4 11/4/4 15/5/4
f 17/3/4 11/4/4 16/5/4
f 17/3/4 9/3/4 11/4/4
f 9/3/4 17/3/4 18/3/4
f 19/3/4 18/3/4 17/3/4
f 9/3/5 20/3/5 8/3/5
f 20/3/5 9/3/5 18/3/5
f 14/4/6 22/5/6 21/5/6
f 11/4/6 22/5/6 14/4/6
f 11/4/6 23/3/6 22/5/6
f 4/3/6 23/3/6 11/4/6
f 4/3/6 24/3/6 23/3/6
f 24/3/6 4/3/6 5/3/6
f 2/2/7 10/1/7 1/1/7
f 10/1/7 2/2/7 12/2/7
f 13/1/8 2/2/8 3/1/8
f 2/2/8 13/1/8 12/2/8
f 5/3/9 20/3/9 18/3/9
f 20/3/9 5/3/9 7/3/9
f 19/3/10 5/3/10 18/3/10
f 5/3/10 19/3/10 24/3/10
f 7/6/1 25/7/1 20/6/1
f 25/7/1 7/6/1 26/7/1
f 6/6/8 26/7/8 7/6/8
f 26/7/8 6/6/8 27/7/8
f 20/6/7 28/7/7 8/6/7
f 28/7/7 20/6/7 25/7/7
f 23/9/3 29/9/3 22/8/3
f 30/9/3 17/9/3 16/8/3
f 21/8/11 29/9/11 31/9/11
f 29/9/11 21/8/11 22/8/11
f 16/8/12 32/9/12 30/9/12
f 32/9/12 16/8/12 15/8/12
f 23/10/13 31/10/13 29/10/13
f 31/10/13 23/10/13 24/10/13
f 31/10/13 24/10/13 19/10/13
f 19/10/13 32/10/13 31/10/13
f 19/10/13 30/10/13 32/10/13
f 30/10/13 19/10/13 17/10/13
f 14/12/3 32/10/3 15/11/3
f 32/10/3 14/12/3 31/10/3
f 31/10/3 14/12/3 21/11/3
g roof-high-gable-end
usemtl colormap
f 3/1/1 2/2/1 1/1/1
f 6/3/2 5/3/2 4/3/2
f 5/3/2 6/3/2 7/3/2
f 10/1/3 9/3/3 8/3/3
f 9/3/3 10/1/3 11/4/3
f 11/4/3 10/1/3 12/2/3
f 11/4/3 12/2/3 13/1/3
f 11/4/3 13/1/3 4/3/3
f 4/3/3 13/1/3 6/3/3
f 15/5/4 11/4/4 14/4/4
f 16/5/4 11/4/4 15/5/4
f 17/3/4 11/4/4 16/5/4
f 17/3/4 9/3/4 11/4/4
f 9/3/4 17/3/4 18/3/4
f 19/3/4 18/3/4 17/3/4
f 9/3/5 20/3/5 8/3/5
f 20/3/5 9/3/5 18/3/5
f 14/4/6 22/5/6 21/5/6
f 11/4/6 22/5/6 14/4/6
f 11/4/6 23/3/6 22/5/6
f 4/3/6 23/3/6 11/4/6
f 4/3/6 24/3/6 23/3/6
f 24/3/6 4/3/6 5/3/6
f 2/2/7 10/1/7 1/1/7
f 10/1/7 2/2/7 12/2/7
f 13/1/8 2/2/8 3/1/8
f 2/2/8 13/1/8 12/2/8
f 5/3/9 20/3/9 18/3/9
f 20/3/9 5/3/9 7/3/9
f 19/3/10 5/3/10 18/3/10
f 5/3/10 19/3/10 24/3/10
f 7/6/1 25/7/1 20/6/1
f 25/7/1 7/6/1 26/7/1
f 6/6/8 26/7/8 7/6/8
f 26/7/8 6/6/8 27/7/8
f 20/6/7 28/7/7 8/6/7
f 28/7/7 20/6/7 25/7/7
f 23/9/3 29/9/3 22/8/3
f 30/9/3 17/9/3 16/8/3
f 21/8/11 29/9/11 31/9/11
f 29/9/11 21/8/11 22/8/11
f 16/8/12 32/9/12 30/9/12
f 32/9/12 16/8/12 15/8/12
f 23/10/13 31/10/13 29/10/13
f 31/10/13 23/10/13 24/10/13
f 31/10/13 24/10/13 19/10/13
f 19/10/13 32/10/13 31/10/13
f 19/10/13 30/10/13 32/10/13
f 30/10/13 19/10/13 17/10/13
f 14/12/3 32/10/3 15/11/3
f 32/10/3 14/12/3 31/10/3
f 31/10/3 14/12/3 21/11/3
