mtllib town_roof-high-corner.mtl
g roof-high-corner
v -0.53536 -0.035355 -0.5
v -0.5 0 -0.5
v -0.57071 -3.6096e-16 -0.5
v -0.47071 0.1 -0.5
v 0.5 0 -0.5
v 0.4 0.97071 -0.5
v 0.5 1.1407 -0.5
v 0.4 1.0407 -0.5
v 0.5 0 0.5
v -0.5 0 0.5
v 0.5 1.0407 -0.4
v 0.5 0.97071 -0.4
v 0.5 0.1 0.47071
v 0.5 -3.6096e-16 0.57071
v 0.5 -0.035355 0.53536
v -0.53536 -0.035355 0.53536
v -0.57071 -3.6096e-16 0.57071
v 0.4 1.0407 -0.5
v 0.4 1.0407 -0.4
v 0.5 1.0407 -0.4
v 0.5 0.97071 -0.4
v 0.5 0.1 0.47071
v 0.4 0.97071 -0.4
v -0.47071 0.1 0.47071
v 0.4 0.97071 -0.5
v -0.47071 0.1 -0.5
v -0.47071 0.1 0.47071
vn 0 0 -1
vn 0 -1 0
vn 1 0 0
vn 0 -0.70711 0.70711
vn 0.70711 -0.70711 0
vn -0.70711 -0.70711 0
vn 0 -0.70711 -0.70711
vn -0.92388 0.38268 0
vn -0.70711 0.70711 0
vn -0.95764 0.28798 0
vn 0 0.38268 0.92388
vn 0 0.28798 0.95764
vn 0 0.70711 0.70711
vn -1 0 0
vn 0 0 1
vt 0.71875 0.025
vt 0.71875 0.042533
vt 0.71875 0.19519
vt 0.71875 0.225
vt 0.71875 0.20747
vt 0.09375 0.025
vt 0.09375 0.20578
vt 0.09375 0.225
vt 0.09375 0.19233
vt 0.09375 0.075
vt 0.09375 0.175
usemtl colormap
f 3/1/1 2/1/1 1/1/1
f 2/1/1 3/1/1 4/2/1
f 2/1/1 4/2/1 5/1/1
f 5/1/1 4/2/1 6/3/1
f 5/1/1 6/3/1 7/4/1
f 7/4/1 6/3/1 8/5/1
f 10/1/2 5/1/2 9/1/2
f 5/1/2 10/1/2 2/1/2
f 11/5/3 5/1/3 7/4/3
f 5/1/3 11/5/3 12/3/3
f 5/1/3 12/3/3 9/1/3
f 9/1/3 12/3/3 13/2/3
f 9/1/3 13/2/3 14/1/3
f 9/1/3 14/1/3 15/1/3
f 14/6/4 16/6/4 15/6/4
f 16/6/4 14/6/4 17/6/4
f 10/6/5 1/6/5 2/6/5
f 1/6/5 10/6/5 16/6/5
f 17/6/6 1/6/6 16/6/6
f 1/6/6 17/6/6 3/6/6
f 15/6/7 10/6/7 9/6/7
f 10/6/7 15/6/7 16/6/7
f 19/7/10 7/8/9 18/7/8
f 7/8/13 19/7/12 20/7/11
f 23/9/13 22/6/13 21/9/13
f 22/6/13 23/9/13 24/6/13
f 26/6/9 23/9/9 25/9/9
f 23/9/9 26/6/9 24/6/9
f 23/9/14 18/7/8 25/9/14
f 18/7/8 23/9/14 19/7/10
f 20/7/11 23/9/15 21/9/15
f 23/9/15 20/7/11 19/7/12
f 17/10/9 4/11/9 3/10/9
f 4/11/9 17/10/9 27/11/9
f 13/11/13 17/10/13 14/10/13
f 17/10/13 13/11/13 27/11/13
g roof-high-corner
usemtl colormap
f 3/1/1 2/1/1 1/1/1
f 2/1/1 3/1/1 4/2/1
f 2/1/1 4/2/1 5/1/1
f 5/1/1 4/2/1 6/3/1
f 5/1/1 6/3/1 7/4/1
f 7/4/1 6/3/1 8/5/1
f 10/1/2 5/1/2 9/1/2
f 5/1/2 10/1/2 2/1/2
f 11/5/3 5/1/3 7/4/3
f 5/1/3 11/5/3 12/3/3
f 5/1/3 12/3/3 9/1/3
f 9/1/3 12/3/3 13/2/3
f 9/1/3 13/2/3 14/1/3
f 9/1/3 14/1/3 15/1/3
f 14/6/4 16/6/4 15/6/4
f 16/6/4 14/6/4 17/6/4
f 10/6/5 1/6/5 2/6/5
f 1/6/5 10/6/5 16/6/5
f 17/6/6 1/6/6 16/6/6
f 1/6/6 17/6/6 3/6/6
f 15/6/7 10/6/7 9/6/7
f 10/6/7 15/6/7 16/6/7
f 19/7/10 7/8/9 18/7/8
f 7/8/13 19/7/12 20/7/11
f 23/9/13 22/6/13 21/9/13
f 22/6/13 23/9/13 24/6/13
f 26/6/9 23/9/9 25/9/9
f 23/9/9 26/6/9 24/6/9
f 23/9/14 18/7/8 25/9/14
f 18/7/8 23/9/14 19/7/10
f 20/7/11 23/9/15 21/9/15
f 23/9/15 20/7/11 19/7/12
f 17/10/9 4/11/9 3/10/9
f 4/11/9 17/10/9 27/11/9
f 13/11/13 17/10/13 14/10/13
f 17/10/13 13/11/13 27/11/13
