mtllib town_hedge-curved.mtl
g hedge-curved
v 0.5 0 0.5
v 0.5 0 2.0214e-14
v 0.25 0 0.5
v 0.49572 0 -0.065263
v 0.48296 0 -0.12941
v 0.46194 0 -0.19134
v 0.43301 0 -0.25
v 0.39668 0 -0.30438
v 0.35355 0 -0.35355
v 0.30438 0 -0.39668
v 0.25 0 -0.43301
v 0.25 0 2.0214e-14
v 0.24786 0 -0.032632
v 0.19134 0 -0.46194
v 0.24148 0 -0.064705
v 0.23097 0 -0.095671
v 0.21651 0 -0.125
v 0.19834 0 -0.15219
v 0.17678 0 -0.17678
v 0.12941 0 -0.48296
v 0.15219 0 -0.19834
v 0.125 0 -0.21651
v 0.065263 0 -0.49572
v 0.095671 0 -0.23097
v 0.064705 0 -0.24148
v 3.4652e-14 0 -0.5
v 0.032632 0 -0.24786
v 1.4438e-14 0 -0.25
v -0.5 0 -0.5
v -0.5 0 -0.25
v 0.25 0.1 -0.43301
v 0.30438 0.1 -0.39668
v 0.19134 0.1 -0.46194
v 0.12941 0.1 -0.48296
v 3.4652e-14 0.1 -0.5
v 0.065263 0.1 -0.49572
v 0.064705 0.1 -0.24148
v 0.032632 0.1 -0.24786
v 0.095671 0.1 -0.23097
v 0.125 0.1 -0.21651
v 1.4438e-14 0.1 -0.25
v 0.17678 0.1 -0.17678
v 0.19834 0.1 -0.15219
v 0.15219 0.1 -0.19834
v 0.21651 0.1 -0.125
v 0.23097 0.1 -0.095671
v -0.5 0.1 -0.25
v -0.5 0.1 -0.5
v 0.24148 0.1 -0.064705
v 0.24786 0.1 -0.032632
v 0.25 0.1 2.0214e-14
v 0.25 0.1 0.5
v 0.35355 0.1 -0.35355
v 0.39668 0.1 -0.30438
v 0.43301 0.1 -0.25
v 0.46194 0.1 -0.19134
v 0.48296 0.1 -0.12941
v 0.49572 0.1 -0.065263
v 0.5 0.1 0.5
v 0.5 0.1 2.0214e-14
v -0.25 0.195 -0.3125
v -0.25 0.225 -0.3425
v 0 0.22 -0.3125
v 0 0.25 -0.3425
v 0.4375 0.22 0
v 0.4375 0.1 0
v 0.4375 0.195 0.25
v 0.4375 0.1 0.5
v 0.4375 0.22 0.5
v -0.25 0.195 -0.4375
v 0 0.22 -0.4375
v -0.25 0.225 -0.4075
v 0 0.25 -0.4075
v 0.3125 0.195 0.25
v 0.3425 0.225 0.25
v 0.3125 0.22 0.5
v 0.3425 0.25 0.5
v 0 0.1 -0.3125
v -0.5 0.1 -0.3125
v -0.5 0.22 -0.3125
v 0.3125 0.1 0.5
v 0.4075 0.25 0.5
v 0.4042 0.22 -0.16742
v 0.37648 0.25 -0.15594
v 0.37889 0.22 -0.21875
v 0.35291 0.25 -0.20375
v 0.4075 0.225 0.25
v 0.42259 0.22 -0.11323
v 0.42259 0.1 -0.11323
v 0.43376 0.22 -0.057105
v 0.43376 0.1 -0.057105
v 0.30185 0.1 -0.080881
v 0.30185 0.22 -0.080881
v 0.30983 0.1 -0.040789
v 0.30983 0.22 -0.040789
v 0.22097 0.1 -0.22097
v 0.19024 0.1 -0.24792
v 0.22097 0.22 -0.22097
v 0.19024 0.22 -0.24792
v 0.34709 0.22 -0.26633
v 0.34709 0.1 -0.26633
v 0.37889 0.1 -0.21875
v 0.080881 0.1 -0.30185
v 0.040789 0.1 -0.30983
v 0.080881 0.22 -0.30185
v 0.040789 0.22 -0.30983
v 0.4042 0.1 -0.16742
v 0.30936 0.22 -0.30936
v 0.30936 0.1 -0.30936
v 0.16742 0.1 -0.4042
v 0.21875 0.1 -0.37889
v 0.16742 0.22 -0.4042
v 0.21875 0.22 -0.37889
v 0.26633 0.1 -0.34709
v 0.26633 0.22 -0.34709
v 0.11959 0.1 -0.28871
v 0.11959 0.22 -0.28871
v 0.24792 0.1 -0.19024
v 0.24792 0.22 -0.19024
v 0.27063 0.1 -0.15625
v 0.27063 0.22 -0.15625
v 0.15594 0.25 -0.37648
v 0.11323 0.22 -0.42259
v 0.10547 0.25 -0.39361
v 0.13107 0.25 -0.31643
v 0.088646 0.25 -0.33083
v 0.40401 0.25 -0.053189
v 0.4075 0.25 0
v 0.2085 0.25 -0.27172
v 0.17125 0.25 -0.29661
v 0.15625 0.22 -0.27063
v 0.24807 0.25 -0.32329
v 0.20375 0.25 -0.35291
v 0.24218 0.25 -0.24218
v 0.27172 0.25 -0.2085
v 0.33083 0.25 -0.088646
v 0.31643 0.25 -0.13107
v 0.28871 0.22 -0.11959
v 0.28871 0.1 -0.11959
v 0.33957 0.25 -0.044705
v 0.3125 0.1 0
v 0.3125 0.22 0
v -0.5 0.1 -0.4375
v 0 0.1 -0.4375
v -0.5 0.22 -0.4375
v 0.15625 0.1 -0.27063
v 0.057105 0.1 -0.43376
v 0.11323 0.1 -0.42259
v 0.057105 0.22 -0.43376
v 0.32329 0.25 -0.24807
v 0.39361 0.25 -0.10547
v 0.3425 0.25 0
v 0.28815 0.25 -0.28815
v 0.29661 0.25 -0.17125
v 0.053189 0.25 -0.40401
v 0.044705 0.25 -0.33957
v -0.5 0.25 -0.4075
v -0.5 0.25 -0.3425
vn 0 -1 0
vn 0.5 0 -0.86603
vn 0.60876 0 -0.79335
vn 0.38268 0 -0.92388
vn 0.25882 0 -0.96593
vn 0.032719 0 -0.99946
vn 0.13053 0 -0.99144
vn -0.25882 0 0.96593
vn -0.13053 0 0.99144
vn -0.38268 0 0.92388
vn -0.5 0 0.86603
vn -0.032719 0 0.99946
vn -0.70711 0 0.70711
vn -0.79335 0 0.60876
vn -0.60876 0 0.79335
vn -0.86603 0 0.5
vn -0.92388 0 0.38268
vn 0 1 0
vn -0.96593 0 0.25882
vn -0.99144 0 0.13053
vn -0.99946 0 0.032719
vn 0.99144 0 -0.13053
vn 0.99946 0 -0.032719
vn 0.92388 0 -0.38268
vn 0.96593 0 -0.25882
vn 0.79335 0 -0.60876
vn 0.86603 0 -0.5
vn 0.70711 0 -0.70711
vn -1 0 0
vn 1 0 0
vn 0 0 1
vn 0 0 -1
vn 0 0.36159 0.93234
vn 0 0.92017 0.39153
vn -0.050405 0.39515 0.91723
vn -0.057808 0.92684 0.37098
vn 0.9207 0.39015 -0.010049
vn 0.93234 0.36159 0
vn 0.91445 0.4027 -0.04027
vn 0 0.36159 -0.93234
vn 0.010049 0.39015 -0.9207
vn 0 0.92017 -0.39153
vn -0.032779 0.92226 -0.38518
vn -0.93234 0.36159 0
vn -0.39153 0.92017 0
vn -0.91445 0.4027 -0.04027
vn -0.37277 0.92332 -0.092332
vn 0.04027 0.4027 0.91445
vn 0.85565 0.37716 -0.35442
vn 0.36597 0.9182 -0.15159
vn 0.80207 0.37716 -0.46307
vn 0.34306 0.9182 -0.19806
vn 0.39153 0.92017 0
vn 0.37277 0.92332 -0.092332
vn 0.89459 0.37716 -0.2397
vn 0.91822 0.37716 -0.12089
vn -0.89008 0.38843 0.2385
vn -0.91359 0.38843 0.12028
vn -0.65158 0.38843 0.65158
vn -0.56096 0.38843 0.73106
vn 0.73476 0.37716 -0.5638
vn -0.2385 0.38843 0.89008
vn -0.12028 0.38843 0.91359
vn 0.65489 0.37716 -0.65489
vn 0.35442 0.37716 -0.85565
vn 0.46307 0.37716 -0.80207
vn 0.5638 0.37716 -0.73476
vn -0.35263 0.38843 0.85133
vn -0.73106 0.38843 0.56096
vn -0.79802 0.38843 0.46074
vn 0.15159 0.9182 -0.36597
vn 0.2397 0.37716 -0.89459
vn 0.10253 0.9182 -0.38263
vn -0.14118 0.92946 0.34083
vn -0.095482 0.92946 0.35634
vn 0.39274 0.9182 -0.051705
vn 0.38518 0.92226 0.032779
vn -0.22458 0.92946 0.29268
vn -0.18446 0.92946 0.31949
vn -0.46074 0.38843 0.79802
vn 0.24115 0.9182 -0.31427
vn 0.19806 0.9182 -0.34306
vn -0.26086 0.92946 0.26086
vn -0.29268 0.92946 0.22458
vn -0.35634 0.92946 0.095482
vn -0.34083 0.92946 0.14118
vn -0.85133 0.38843 0.35263
vn -0.36576 0.92946 0.048153
vn -0.91723 0.39515 0.050405
vn 0.04027 0.4027 -0.91445
vn 0.12089 0.37716 -0.91822
vn 0.31427 0.9182 -0.24115
vn 0.38263 0.9182 -0.10253
vn -0.37098 0.92684 0.057808
vn 0.2801 0.9182 -0.2801
vn -0.31949 0.92946 0.18446
vn 0.051705 0.9182 -0.39274
vn -0.048153 0.92946 0.36576
vn 0.092332 0.92332 0.37277
vn 0.092332 0.92332 -0.37277
vt 0.21875 0.275
vt 0.21875 0.475
vt 0.46875 0.15167
vt 0.46875 0.19167
vt 0.46875 0.185
vt 0.46875 0.225
vt 0.46875 0.025
usemtl colormap
f 3/1/1 2/1/1 1/1/1
f 2/1/1 3/1/1 4/1/1
f 4/1/1 3/1/1 5/1/1
f 5/1/1 3/1/1 6/1/1
f 6/1/1 3/1/1 7/1/1
f 7/1/1 3/1/1 8/1/1
f 8/1/1 3/1/1 9/1/1
f 9/1/1 3/1/1 10/1/1
f 10/1/1 3/1/1 11/1/1
f 11/1/1 3/1/1 12/1/1
f 11/1/1 12/1/1 13/1/1
f 11/1/1 13/1/1 14/1/1
f 14/1/1 13/1/1 15/1/1
f 14/1/1 15/1/1 16/1/1
f 14/1/1 16/1/1 17/1/1
f 14/1/1 17/1/1 18/1/1
f 14/1/1 18/1/1 19/1/1
f 14/1/1 19/1/1 20/1/1
f 20/1/1 19/1/1 21/1/1
f 20/1/1 21/1/1 22/1/1
f 20/1/1 22/1/1 23/1/1
f 23/1/1 22/1/1 24/1/1
f 23/1/1 24/1/1 25/1/1
f 23/1/1 25/1/1 26/1/1
f 26/1/1 25/1/1 27/1/1
f 26/1/1 27/1/1 28/1/1
f 26/1/1 28/1/1 29/1/1
f 29/1/1 28/1/1 30/1/1
f 31/2/2 10/1/3 11/1/2
f 10/1/3 31/2/2 32/2/3
f 33/2/4 11/1/2 14/1/4
f 11/1/2 33/2/4 31/2/2
f 34/2/5 14/1/4 20/1/5
f 14/1/4 34/2/5 33/2/4
f 35/2/6 23/1/7 26/1/6
f 23/1/7 35/2/6 36/2/7
f 36/2/7 20/1/5 23/1/7
f 20/1/5 36/2/7 34/2/5
f 37/2/8 27/1/9 25/1/8
f 27/1/9 37/2/8 38/2/9
f 39/2/10 25/1/8 24/1/10
f 25/1/8 39/2/10 37/2/8
f 40/2/11 24/1/10 22/1/11
f 24/1/10 40/2/11 39/2/10
f 38/2/9 28/1/12 27/1/9
f 28/1/12 38/2/9 41/2/12
f 18/1/14 42/2/13 19/1/13
f 42/2/13 18/1/14 43/2/14
f 42/2/13 21/1/15 19/1/13
f 21/1/15 42/2/13 44/2/15
f 17/1/16 43/2/14 18/1/14
f 43/2/14 17/1/16 45/2/16
f 44/2/15 22/1/11 21/1/15
f 22/1/11 44/2/15 40/2/11
f 16/1/17 45/2/16 17/1/16
f 45/2/16 16/1/17 46/2/17
f 41/2/18 48/2/18 47/2/18
f 41/2/18 35/2/18 48/2/18
f 38/2/18 35/2/18 41/2/18
f 37/2/18 35/2/18 38/2/18
f 37/2/18 36/2/18 35/2/18
f 39/2/18 36/2/18 37/2/18
f 40/2/18 36/2/18 39/2/18
f 40/2/18 34/2/18 36/2/18
f 44/2/18 34/2/18 40/2/18
f 42/2/18 34/2/18 44/2/18
f 42/2/18 33/2/18 34/2/18
f 43/2/18 33/2/18 42/2/18
f 45/2/18 33/2/18 43/2/18
f 46/2/18 33/2/18 45/2/18
f 49/2/18 33/2/18 46/2/18
f 50/2/18 33/2/18 49/2/18
f 50/2/18 31/2/18 33/2/18
f 31/2/18 50/2/18 51/2/18
f 52/2/18 31/2/18 51/2/18
f 52/2/18 32/2/18 31/2/18
f 52/2/18 53/2/18 32/2/18
f 52/2/18 54/2/18 53/2/18
f 52/2/18 55/2/18 54/2/18
f 52/2/18 56/2/18 55/2/18
f 52/2/18 57/2/18 56/2/18
f 52/2/18 58/2/18 57/2/18
f 59/2/18 58/2/18 52/2/18
f 58/2/18 59/2/18 60/2/18
f 15/1/19 46/2/17 16/1/17
f 46/2/17 15/1/19 49/2/19
f 12/1/21 50/2/20 13/1/20
f 50/2/20 12/1/21 51/2/21
f 13/1/20 49/2/19 15/1/19
f 49/2/19 13/1/20 50/2/20
f 60/2/23 4/1/22 58/2/22
f 4/1/22 60/2/23 2/1/23
f 57/2/25 6/1/24 56/2/24
f 6/1/24 57/2/25 5/1/25
f 55/2/27 8/1/26 54/2/26
f 8/1/26 55/2/27 7/1/27
f 56/2/24 7/1/27 55/2/27
f 7/1/27 56/2/24 6/1/24
f 58/2/22 5/1/25 57/2/25
f 5/1/25 58/2/22 4/1/22
f 54/2/26 9/1/28 53/2/28
f 9/1/28 54/2/26 8/1/26
f 32/2/3 9/1/28 10/1/3
f 9/1/28 32/2/3 53/2/28
f 3/1/29 51/2/21 12/1/21
f 51/2/21 3/1/29 52/2/29
f 59/2/30 2/1/23 60/2/23
f 2/1/23 59/2/30 1/1/30
f 59/2/31 3/1/31 1/1/31
f 3/1/31 59/2/31 52/2/31
f 41/2/12 30/1/31 28/1/12
f 30/1/31 41/2/12 47/2/31
f 48/2/32 26/1/6 29/1/32
f 26/1/6 48/2/32 35/2/6
f 30/1/29 48/2/29 29/1/29
f 48/2/29 30/1/29 47/2/29
f 63/5/35 62/4/34 61/3/33
f 62/4/34 63/5/35 64/6/36
f 67/3/38 66/7/23 65/5/37
f 66/7/23 67/3/38 68/7/30
f 68/7/30 67/3/38 69/5/39
f 72/4/42 71/5/41 70/3/40
f 71/5/41 72/4/42 73/6/43
f 76/5/46 75/4/45 74/3/44
f 75/4/45 76/5/46 77/6/47
f 63/5/35 79/7/31 78/7/12
f 79/7/31 63/5/35 61/3/33
f 80/5/48 79/7/31 61/3/33
f 69/5/31 81/7/31 68/7/31
f 81/7/31 69/5/31 76/5/31
f 76/5/31 69/5/31 82/6/31
f 76/5/31 82/6/31 77/6/31
f 85/5/51 84/6/50 83/5/49
f 84/6/50 85/5/51 86/6/52
f 87/4/53 69/5/39 67/3/38
f 69/5/39 87/4/53 82/6/54
f 90/5/56 89/7/25 88/5/55
f 89/7/25 90/5/56 91/7/22
f 94/7/20 93/5/57 92/7/19
f 93/5/57 94/7/20 95/5/58
f 98/5/59 97/7/15 96/7/13
f 97/7/15 98/5/59 99/5/60
f 85/5/51 101/7/26 100/5/61
f 101/7/26 85/5/51 102/7/27
f 105/5/62 104/7/9 103/7/8
f 104/7/9 105/5/62 106/5/63
f 88/5/55 107/7/24 83/5/49
f 107/7/24 88/5/55 89/7/25
f 100/5/61 109/7/28 108/5/64
f 109/7/28 100/5/61 101/7/26
f 112/5/65 111/7/2 110/7/4
f 111/7/2 112/5/65 113/5/66
f 115/5/67 109/7/28 114/7/3
f 109/7/28 115/5/67 108/5/64
f 117/5/68 103/7/8 116/7/10
f 103/7/8 117/5/68 105/5/62
f 120/7/16 119/5/69 118/7/14
f 119/5/69 120/7/16 121/5/70
f 123/5/72 122/6/71 112/5/65
f 122/6/71 123/5/72 124/6/73
f 126/6/75 117/5/68 125/6/74
f 117/5/68 126/6/75 105/5/62
f 127/6/76 65/5/37 90/5/56
f 65/5/37 127/6/76 128/6/77
f 130/6/79 99/5/60 129/6/78
f 99/5/60 130/6/79 131/5/80
f 118/7/14 98/5/59 96/7/13
f 98/5/59 118/7/14 119/5/69
f 113/5/66 132/6/81 115/5/67
f 132/6/81 113/5/66 133/6/82
f 129/6/78 98/5/59 134/6/83
f 98/5/59 129/6/78 99/5/60
f 134/6/83 119/5/69 135/6/84
f 119/5/69 134/6/83 98/5/59
f 137/6/86 93/5/57 136/6/85
f 93/5/57 137/6/86 138/5/87
f 92/7/19 138/5/87 139/7/17
f 138/5/87 92/7/19 93/5/57
f 136/6/85 95/5/58 140/6/88
f 95/5/58 136/6/85 93/5/57
f 141/7/21 95/5/58 94/7/20
f 95/5/58 141/7/21 142/5/89
f 145/5/90 144/7/6 143/7/32
f 144/7/6 145/5/90 70/3/40
f 71/5/41 144/7/6 70/3/40
f 131/5/80 116/7/10 146/7/11
f 116/7/10 131/5/80 117/5/68
f 149/5/91 148/7/5 147/7/7
f 148/7/5 149/5/91 123/5/72
f 83/5/49 102/7/27 85/5/51
f 102/7/27 83/5/49 107/7/24
f 100/5/61 86/6/52 85/5/51
f 86/6/52 100/5/61 150/6/92
f 71/5/41 147/7/7 144/7/6
f 147/7/7 71/5/41 149/5/91
f 83/5/49 151/6/93 88/5/55
f 151/6/93 83/5/49 84/6/50
f 127/6/76 152/6/94 128/6/77
f 152/6/94 127/6/76 151/6/93
f 152/6/94 151/6/93 84/6/50
f 152/6/94 84/6/50 86/6/52
f 152/6/94 86/6/52 140/6/88
f 140/6/88 86/6/52 150/6/92
f 140/6/88 150/6/92 136/6/85
f 136/6/85 150/6/92 137/6/86
f 137/6/86 150/6/92 153/6/95
f 137/6/86 153/6/95 154/6/96
f 154/6/96 153/6/95 135/6/84
f 135/6/84 153/6/95 132/6/81
f 135/6/84 132/6/81 134/6/83
f 134/6/83 132/6/81 133/6/82
f 134/6/83 133/6/82 129/6/78
f 129/6/78 133/6/82 130/6/79
f 130/6/79 133/6/82 122/6/71
f 130/6/79 122/6/71 125/6/74
f 125/6/74 122/6/71 124/6/73
f 125/6/74 124/6/73 126/6/75
f 126/6/75 124/6/73 155/6/97
f 126/6/75 155/6/97 156/6/98
f 156/6/98 155/6/97 73/6/43
f 156/6/98 73/6/43 64/6/36
f 112/5/65 133/6/82 113/5/66
f 133/6/82 112/5/65 122/6/71
f 149/5/91 124/6/73 123/5/72
f 124/6/73 149/5/91 155/6/97
f 73/6/43 149/5/91 71/5/41
f 149/5/91 73/6/43 155/6/97
f 64/6/36 106/5/63 156/6/98
f 106/5/63 64/6/36 63/5/35
f 99/5/60 146/7/11 97/7/15
f 146/7/11 99/5/60 131/5/80
f 79/7/29 145/5/29 143/7/29
f 145/5/29 79/7/29 157/6/29
f 157/6/29 79/7/29 158/6/29
f 158/6/29 79/7/29 80/5/29
f 115/5/67 153/6/95 108/5/64
f 153/6/95 115/5/67 132/6/81
f 108/5/64 150/6/92 100/5/61
f 150/6/92 108/5/64 153/6/95
f 125/6/74 131/5/80 130/6/79
f 131/5/80 125/6/74 117/5/68
f 81/7/29 142/5/89 141/7/21
f 142/5/89 81/7/29 74/3/44
f 74/3/44 81/7/29 76/5/46
f 106/5/63 78/7/12 104/7/9
f 78/7/12 106/5/63 63/5/35
f 65/5/37 91/7/22 90/5/56
f 91/7/22 65/5/37 66/7/23
f 113/5/66 114/7/3 111/7/2
f 114/7/3 113/5/66 115/5/67
f 88/5/55 127/6/76 90/5/56
f 127/6/76 88/5/55 151/6/93
f 156/6/98 105/5/62 126/6/75
f 105/5/62 156/6/98 106/5/63
f 135/6/84 121/5/70 154/6/96
f 121/5/70 135/6/84 119/5/69
f 154/6/96 138/5/87 137/6/86
f 138/5/87 154/6/96 121/5/70
f 140/6/88 142/5/89 152/6/94
f 142/5/89 140/6/88 95/5/58
f 123/5/72 110/7/4 148/7/5
f 110/7/4 123/5/72 112/5/65
f 139/7/17 121/5/70 120/7/16
f 121/5/70 139/7/17 138/5/87
f 152/6/94 87/4/53 128/6/77
f 87/4/53 152/6/94 75/4/45
f 75/4/45 82/6/54 87/4/53
f 82/6/54 75/4/45 77/6/47
f 74/3/44 152/6/94 142/5/89
f 152/6/94 74/3/44 75/4/45
f 128/6/77 67/3/38 65/5/37
f 67/3/38 128/6/77 87/4/53
f 72/4/42 64/6/36 73/6/43
f 64/6/36 72/4/42 62/4/34
f 62/4/34 80/5/48 61/3/33
f 80/5/48 62/4/34 158/6/99
f 157/6/100 62/4/34 72/4/42
f 62/4/34 157/6/100 158/6/99
f 145/5/90 72/4/42 70/3/40
f 72/4/42 145/5/90 157/6/100
g hedge-curved
usemtl colormap
f 3/1/1 2/1/1 1/1/1
f 2/1/1 3/1/1 4/1/1
f 4/1/1 3/1/1 5/1/1
f 5/1/1 3/1/1 6/1/1
f 6/1/1 3/1/1 7/1/1
f 7/1/1 3/1/1 8/1/1
f 8/1/1 3/1/1 9/1/1
f 9/1/1 3/1/1 10/1/1
f 10/1/1 3/1/1 11/1/1
f 11/1/1 3/1/1 12/1/1
f 11/1/1 12/1/1 13/1/1
f 11/1/1 13/1/1 14/1/1
f 14/1/1 13/1/1 15/1/1
f 14/1/1 15/1/1 16/1/1
f 14/1/1 16/1/1 17/1/1
f 14/1/1 17/1/1 18/1/1
f 14/1/1 18/1/1 19/1/1
f 14/1/1 19/1/1 20/1/1
f 20/1/1 19/1/1 21/1/1
f 20/1/1 21/1/1 22/1/1
f 20/1/1 22/1/1 23/1/1
f 23/1/1 22/1/1 24/1/1
f 23/1/1 24/1/1 25/1/1
f 23/1/1 25/1/1 26/1/1
f 26/1/1 25/1/1 27/1/1
f 26/1/1 27/1/1 28/1/1
f 26/1/1 28/1/1 29/1/1
f 29/1/1 28/1/1 30/1/1
f 31/2/2 10/1/3 11/1/2
f 10/1/3 31/2/2 32/2/3
f 33/2/4 11/1/2 14/1/4
f 11/1/2 33/2/4 31/2/2
f 34/2/5 14/1/4 20/1/5
f 14/1/4 34/2/5 33/2/4
f 35/2/6 23/1/7 26/1/6
f 23/1/7 35/2/6 36/2/7
f 36/2/7 20/1/5 23/1/7
f 20/1/5 36/2/7 34/2/5
f 37/2/8 27/1/9 25/1/8
f 27/1/9 37/2/8 38/2/9
f 39/2/10 25/1/8 24/1/10
f 25/1/8 39/2/10 37/2/8
f 40/2/11 24/1/10 22/1/11
f 24/1/10 40/2/11 39/2/10
f 38/2/9 28/1/12 27/1/9
f 28/1/12 38/2/9 41/2/12
f 18/1/14 42/2/13 19/1/13
f 42/2/13 18/1/14 43/2/14
f 42/2/13 21/1/15 19/1/13
f 21/1/15 42/2/13 44/2/15
f 17/1/16 43/2/14 18/1/14
f 43/2/14 17/1/16 45/2/16
f 44/2/15 22/1/11 21/1/15
f 22/1/11 44/2/15 40/2/11
f 16/1/17 45/2/16 17/1/16
f 45/2/16 16/1/17 46/2/17
f 41/2/18 48/2/18 47/2/18
f 41/2/18 35/2/18 48/2/18
f 38/2/18 35/2/18 41/2/18
f 37/2/18 35/2/18 38/2/18
f 37/2/18 36/2/18 35/2/18
f 39/2/18 36/2/18 37/2/18
f 40/2/18 36/2/18 39/2/18
f 40/2/18 34/2/18 36/2/18
f 44/2/18 34/2/18 40/2/18
f 42/2/18 34/2/18 44/2/18
f 42/2/18 33/2/18 34/2/18
f 43/2/18 33/2/18 42/2/18
f 45/2/18 33/2/18 43/2/18
f 46/2/18 33/2/18 45/2/18
f 49/2/18 33/2/18 46/2/18
f 50/2/18 33/2/18 49/2/18
f 50/2/18 31/2/18 33/2/18
f 31/2/18 50/2/18 51/2/18
f 52/2/18 31/2/18 51/2/18
f 52/2/18 32/2/18 31/2/18
f 52/2/18 53/2/18 32/2/18
f 52/2/18 54/2/18 53/2/18
f 52/2/18 55/2/18 54/2/18
f 52/2/18 56/2/18 55/2/18
f 52/2/18 57/2/18 56/2/18
f 52/2/18 58/2/18 57/2/18
f 59/2/18 58/2/18 52/2/18
f 58/2/18 59/2/18 60/2/18
f 15/1/19 46/2/17 16/1/17
f 46/2/17 15/1/19 49/2/19
f 12/1/21 50/2/20 13/1/20
f 50/2/20 12/1/21 51/2/21
f 13/1/20 49/2/19 15/1/19
f 49/2/19 13/1/20 50/2/20
f 60/2/23 4/1/22 58/2/22
f 4/1/22 60/2/23 2/1/23
f 57/2/25 6/1/24 56/2/24
f 6/1/24 57/2/25 5/1/25
f 55/2/27 8/1/26 54/2/26
f 8/1/26 55/2/27 7/1/27
f 56/2/24 7/1/27 55/2/27
f 7/1/27 56/2/24 6/1/24
f 58/2/22 5/1/25 57/2/25
f 5/1/25 58/2/22 4/1/22
f 54/2/26 9/1/28 53/2/28
f 9/1/28 54/2/26 8/1/26
f 32/2/3 9/1/28 10/1/3
f 9/1/28 32/2/3 53/2/28
f 3/1/29 51/2/21 12/1/21
f 51/2/21 3/1/29 52/2/29
f 59/2/30 2/1/23 60/2/23
f 2/1/23 59/2/30 1/1/30
f 59/2/31 3/1/31 1/1/31
f 3/1/31 59/2/31 52/2/31
f 41/2/12 30/1/31 28/1/12
f 30/1/31 41/2/12 47/2/31
f 48/2/32 26/1/6 29/1/32
f 26/1/6 48/2/32 35/2/6
f 30/1/29 48/2/29 29/1/29
f 48/2/29 30/1/29 47/2/29
f 63/5/35 62/4/34 61/3/33
f 62/4/34 63/5/35 64/6/36
f 67/3/38 66/7/23 65/5/37
f 66/7/23 67/3/38 68/7/30
f 68/7/30 67/3/38 69/5/39
f 72/4/42 71/5/41 70/3/40
f 71/5/41 72/4/42 73/6/43
f 76/5/46 75/4/45 74/3/44
f 75/4/45 76/5/46 77/6/47
f 63/5/35 79/7/31 78/7/12
f 79/7/31 63/5/35 61/3/33
f 80/5/48 79/7/31 61/3/33
f 69/5/31 81/7/31 68/7/31
f 81/7/31 69/5/31 76/5/31
f 76/5/31 69/5/31 82/6/31
f 76/5/31 82/6/31 77/6/31
f 85/5/51 84/6/50 83/5/49
f 84/6/50 85/5/51 86/6/52
f 87/4/53 69/5/39 67/3/38
f 69/5/39 87/4/53 82/6/54
f 90/5/56 89/7/25 88/5/55
f 89/7/25 90/5/56 91/7/22
f 94/7/20 93/5/57 92/7/19
f 93/5/57 94/7/20 95/5/58
f 98/5/59 97/7/15 96/7/13
f 97/7/15 98/5/59 99/5/60
f 85/5/51 101/7/26 100/5/61
f 101/7/26 85/5/51 102/7/27
f 105/5/62 104/7/9 103/7/8
f 104/7/9 105/5/62 106/5/63
f 88/5/55 107/7/24 83/5/49
f 107/7/24 88/5/55 89/7/25
f 100/5/61 109/7/28 108/5/64
f 109/7/28 100/5/61 101/7/26
f 112/5/65 111/7/2 110/7/4
f 111/7/2 112/5/65 113/5/66
f 115/5/67 109/7/28 114/7/3
f 109/7/28 115/5/67 108/5/64
f 117/5/68 103/7/8 116/7/10
f 103/7/8 117/5/68 105/5/62
f 120/7/16 119/5/69 118/7/14
f 119/5/69 120/7/16 121/5/70
f 123/5/72 122/6/71 112/5/65
f 122/6/71 123/5/72 124/6/73
f 126/6/75 117/5/68 125/6/74
f 117/5/68 126/6/75 105/5/62
f 127/6/76 65/5/37 90/5/56
f 65/5/37 127/6/76 128/6/77
f 130/6/79 99/5/60 129/6/78
f 99/5/60 130/6/79 131/5/80
f 118/7/14 98/5/59 96/7/13
f 98/5/59 118/7/14 119/5/69
f 113/5/66 132/6/81 115/5/67
f 132/6/81 113/5/66 133/6/82
f 129/6/78 98/5/59 134/6/83
f 98/5/59 129/6/78 99/5/60
f 134/6/83 119/5/69 135/6/84
f 119/5/69 134/6/83 98/5/59
f 137/6/86 93/5/57 136/6/85
f 93/5/57 137/6/86 138/5/87
f 92/7/19 138/5/87 139/7/17
f 138/5/87 92/7/19 93/5/57
f 136/6/85 95/5/58 140/6/88
f 95/5/58 136/6/85 93/5/57
f 141/7/21 95/5/58 94/7/20
f 95/5/58 141/7/21 142/5/89
f 145/5/90 144/7/6 143/7/32
f 144/7/6 145/5/90 70/3/40
f 71/5/41 144/7/6 70/3/40
f 131/5/80 116/7/10 146/7/11
f 116/7/10 131/5/80 117/5/68
f 149/5/91 148/7/5 147/7/7
f 148/7/5 149/5/91 123/5/72
f 83/5/49 102/7/27 85/5/51
f 102/7/27 83/5/49 107/7/24
f 100/5/61 86/6/52 85/5/51
f 86/6/52 100/5/61 150/6/92
f 71/5/41 147/7/7 144/7/6
f 147/7/7 71/5/41 149/5/91
f 83/5/49 151/6/93 88/5/55
f 151/6/93 83/5/49 84/6/50
f 127/6/76 152/6/94 128/6/77
f 152/6/94 127/6/76 151/6/93
f 152/6/94 151/6/93 84/6/50
f 152/6/94 84/6/50 86/6/52
f 152/6/94 86/6/52 140/6/88
f 140/6/88 86/6/52 150/6/92
f 140/6/88 150/6/92 136/6/85
f 136/6/85 150/6/92 137/6/86
f 137/6/86 150/6/92 153/6/95
f 137/6/86 153/6/95 154/6/96
f 154/6/96 153/6/95 135/6/84
f 135/6/84 153/6/95 132/6/81
f 135/6/84 132/6/81 134/6/83
f 134/6/83 132/6/81 133/6/82
f 134/6/83 133/6/82 129/6/78
f 129/6/78 133/6/82 130/6/79
f 130/6/79 133/6/82 122/6/71
f 130/6/79 122/6/71 125/6/74
f 125/6/74 122/6/71 124/6/73
f 125/6/74 124/6/73 126/6/75
f 126/6/75 124/6/73 155/6/97
f 126/6/75 155/6/97 156/6/98
f 156/6/98 155/6/97 73/6/43
f 156/6/98 73/6/43 64/6/36
f 112/5/65 133/6/82 113/5/66
f 133/6/82 112/5/65 122/6/71
f 149/5/91 124/6/73 123/5/72
f 124/6/73 149/5/91 155/6/97
f 73/6/43 149/5/91 71/5/41
f 149/5/91 73/6/43 155/6/97
f 64/6/36 106/5/63 156/6/98
f 106/5/63 64/6/36 63/5/35
f 99/5/60 146/7/11 97/7/15
f 146/7/11 99/5/60 131/5/80
f 79/7/29 145/5/29 143/7/29
f 145/5/29 79/7/29 157/6/29
f 157/6/29 79/7/29 158/6/29
f 158/6/29 79/7/29 80/5/29
f 115/5/67 153/6/95 108/5/64
f 153/6/95 115/5/67 132/6/81
f 108/5/64 150/6/92 100/5/61
f 150/6/92 108/5/64 153/6/95
f 125/6/74 131/5/80 130/6/79
f 131/5/80 125/6/74 117/5/68
f 81/7/29 142/5/89 141/7/21
f 142/5/89 81/7/29 74/3/44
f 74/3/44 81/7/29 76/5/46
f 106/5/63 78/7/12 104/7/9
f 78/7/12 106/5/63 63/5/35
f 65/5/37 91/7/22 90/5/56
f 91/7/22 65/5/37 66/7/23
f 113/5/66 114/7/3 111/7/2
f 114/7/3 113/5/66 115/5/67
f 88/5/55 127/6/76 90/5/56
f 127/6/76 88/5/55 151/6/93
f 156/6/98 105/5/62 126/6/75
f 105/5/62 156/6/98 106/5/63
f 135/6/84 121/5/70 154/6/96
f 121/5/70 135/6/84 119/5/69
f 154/6/96 138/5/87 137/6/86
f 138/5/87 154/6/96 121/5/70
f 140/6/88 142/5/89 152/6/94
f 142/5/89 140/6/88 95/5/58
f 123/5/72 110/7/4 148/7/5
f 110/7/4 123/5/72 112/5/65
f 139/7/17 121/5/70 120/7/16
f 121/5/70 139/7/17 138/5/87
f 152/6/94 87/4/53 128/6/77
f 87/4/53 152/6/94 75/4/45
f 75/4/45 82/6/54 87/4/53
f 82/6/54 75/4/45 77/6/47
f 74/3/44 152/6/94 142/5/89
f 152/6/94 74/3/44 75/4/45
f 128/6/77 67/3/38 65/5/37
f 67/3/38 128/6/77 87/4/53
f 72/4/42 64/6/36 73/6/43
f 64/6/36 72/4/42 62/4/34
f 62/4/34 80/5/48 61/3/33
f 80/5/48 62/4/34 158/6/99
f 157/6/100 62/4/34 72/4/42
f 62/4/34 157/6/100 158/6/99
f 145/5/90 72/4/42 70/3/40
f 72/4/42 145/5/90 157/6/100
