mtllib town_road-bend.mtl
g road-bend
v 1.0057 0.05 -1.2953
v 0.92258 0.025 -1.2608
v 0.98323 0.05 -1.3615
v 0.8963 0.025 -1.3382
v -0.875 0 -1.5
v -0.875 0.0125 -1.5
v -1.5 9.2762e-20 -1.5
v -1.5 0.05 -1.5
v -0.875 0.025 -1.5
v -0.965 0.05 -1.5
v 1.2608 0.0125 -0.92258
v 1.1875 0.0125 -0.95873
v 1.2608 0.025 -0.92258
v 1.1875 0.025 -0.95873
v 1.1195 0.0125 -1.0042
v 1.0581 0.0125 -1.0581
v 1.1195 0.025 -1.0042
v 1.0581 0.025 -1.0581
v 0.95873 0.0125 -1.1875
v 0.95873 0.025 -1.1875
v 1.0042 0.0125 -1.1195
v 1.0042 0.025 -1.1195
v -1.5 6.8299e-19 1.5
v -1.5 0.05 1.5
v 0.96958 0.05 -1.4302
v 0.88035 0.025 -1.4184
v 0.965 0.05 -1.5
v 0.875 0.025 -1.5
v 1.3615 0.05 -0.98323
v 1.3382 0.025 -0.8963
v 1.2953 0.05 -1.0057
v 1.1743 0.05 -1.0756
v 1.1217 0.05 -1.1217
v 1.5 0.05 -1.5
v 1.5 9.2762e-20 -1.5
v 1.5 0.05 -0.965
v 1.5 7.8282e-17 -0.875
v 1.5 0.025 -0.875
v 1.5 0.0125 -0.875
v 1.2325 0.05 -1.0367
v 1.4302 0.05 -0.96958
v 1.4184 0.025 -0.88035
v 0.8963 0.0125 -1.3382
v 0.92258 0.0125 -1.2608
v 1.5 3.7249e-16 1.5
v 1.5 0.05 1.5
v 1.0756 0.05 -1.1743
v 1.0367 0.05 -1.2325
v 1.5 0.025 0.875
v 1.5 0.0125 0.875
v 1.5 0.05 0.965
v 1.5 2.9555e-16 0.875
v 1.4184 0.0125 -0.88035
v 1.3382 0.0125 -0.8963
v -0.85468 0.025 -1.19
v -0.85468 0.0125 -1.19
v 0.875 0.0125 -1.5
v 0.88035 0.0125 -1.4184
v 0.875 1.0786e-20 -1.5
v 0.8853 0.025 0.79407
v 0.86201 0.05 0.88101
v 0.59113 0.025 0.69421
v 0.55669 0.05 0.77736
v 0.8853 0.0125 0.79407
v 0.59113 0.0125 0.69421
v -0.79407 0.025 -0.8853
v -0.79407 0.0125 -0.8853
v 0.054192 0.0125 0.38421
v 0.054192 0.025 0.38421
v -0.17938 0.0125 0.17938
v -0.17938 0.025 0.17938
v -0.69421 0.025 -0.59113
v -0.77736 0.05 -0.55669
v -0.88101 0.05 -0.86201
v 1.1783 0.05 0.94391
v 1.19 0.025 0.85468
v 1.19 0.0125 0.85468
v 0.3125 0.025 0.55681
v 0.2675 0.05 0.63475
v -0.94391 0.05 -1.1783
v -0.38421 0.025 -0.054192
v -0.45562 0.05 0.00059692
v -0.55681 0.025 -0.3125
v -0.63475 0.05 -0.2675
v -0.69421 0.0125 -0.59113
v -0.55681 0.0125 -0.3125
v -0.00059692 0.05 0.45562
v -0.38421 0.0125 -0.054192
v 0.3125 0.0125 0.55681
v -0.24302 0.05 0.24302
v 0.79112 0.025 -1.4067
v 0.79112 0.0125 -1.4067
v 0.80936 0.025 -1.3149
v 0.80936 0.0125 -1.3149
v 1.0647 0.0125 -0.93275
v 1.0647 0.025 -0.93275
v 0.99442 0.0125 -0.99442
v 0.99442 0.025 -0.99442
v 1.5 0.0125 0.785
v 1.2017 0.0125 0.76545
v 1.5 0.025 0.785
v 1.2017 0.025 0.76545
v -0.61106 0.0125 -0.62557
v -0.61106 0.025 -0.62557
v -0.47887 0.0125 -0.3575
v -0.47887 0.025 -0.3575
v 1.5 0.025 -0.785
v 1.4067 0.025 -0.79112
v 1.3149 0.025 -0.80936
v 1.2264 0.025 -0.83943
v 1.1425 0.025 -0.88079
v 0.9086 0.025 0.70714
v 0.93275 0.025 -1.0647
v 0.88079 0.025 -1.1425
v 0.62557 0.025 0.61106
v 0.83943 0.025 -1.2264
v 0.785 0.025 -1.5
v -0.785 0.025 -1.5
v 0.3575 0.025 0.47887
v 0.10898 0.025 0.31281
v -0.11574 0.025 0.11574
v -0.31281 0.025 -0.10898
v -0.70714 0.025 -0.9086
v -0.76545 0.025 -1.2017
v -0.31281 0.0125 -0.10898
v -0.11574 0.0125 0.11574
v 0.62557 0.0125 0.61106
v 0.3575 0.0125 0.47887
v 0.88079 0.0125 -1.1425
v 0.93275 0.0125 -1.0647
v 1.3149 0.0125 -0.80936
v 1.2264 0.0125 -0.83943
v 1.5 0.0125 -0.785
v 1.4067 0.0125 -0.79112
v 1.1425 0.0125 -0.88079
v 0.83943 0.0125 -1.2264
v 0.785 0.0125 -1.5
v 0.9086 0.0125 0.70714
v 0.10898 0.0125 0.31281
v -0.70714 0.0125 -0.9086
v -0.76545 0.0125 -1.2017
v -0.785 0.0125 -1.5
v 1.5 0.025 -0.785
v 1.5 0.0125 -0.785
v 0.785 0.0125 -1.5
v 0.785 0.025 -1.5
vn -0.12988 0.99007 0.053796
vn -0.24727 0.96352 0.10242
vn -0.13579 0.99007 0.036384
vn -0.25852 0.96352 0.069271
vn 0 0 -1
vn -0.38268 0 0.92388
vn -0.5 0 0.86603
vn -0.60876 0 0.79335
vn -0.70711 0 0.70711
vn -0.86603 0 0.5
vn -0.79335 0 0.60876
vn -1 0 0
vn -0.13937 0.99007 0.018349
vn -0.26535 0.96352 0.034935
vn -0.14057 0.99003 0.0092134
vn -0.2676 0.96337 0.01754
vn -0.036384 0.99007 0.13579
vn -0.069271 0.96352 0.25852
vn -0.053796 0.99007 0.12988
vn -0.10242 0.96352 0.24727
vn -0.085577 0.99007 0.11153
vn -0.16293 0.96352 0.21234
vn -0.099402 0.99007 0.099402
vn -0.18925 0.96352 0.18925
vn 1 0 0
vn -0.070288 0.99007 0.12174
vn -0.13382 0.96352 0.23179
vn -0.0092134 0.99003 0.14057
vn -0.01754 0.96337 0.2676
vn -0.018349 0.99007 0.13937
vn -0.034935 0.96352 0.26535
vn -0.96593 0 0.25882
vn -0.92388 0 0.38268
vn 0 0 1
vn -0.11153 0.99007 0.085577
vn -0.21234 0.96352 0.16293
vn -0.12174 0.99007 0.070288
vn -0.23179 0.96352 0.13382
vn -0.065403 0 0.99786
vn -0.13053 0 0.99144
vn -0.25882 0 0.96593
vn 0 1 0
vn 0.99786 0 -0.065403
vn 0.99144 0 -0.13053
vn -0.99786 0 0.065403
vn -0.99144 0 0.13053
vn 0.069271 0.96352 -0.25852
vn 0.033524 0.99158 -0.12511
vn 0.10242 0.96352 -0.24727
vn 0.049568 0.99158 -0.11967
vn 0.25882 0 -0.96593
vn 0.38268 0 -0.92388
vn 0.96593 0 -0.25882
vn 0.60876 0 -0.79335
vn 0.70711 0 -0.70711
vn 0.24727 0.96352 -0.10242
vn 0.11967 0.99158 -0.049568
vn 0.25852 0.96352 -0.069271
vn 0.12511 0.99158 -0.033524
vn 0.0084893 0.99154 -0.12952
vn 0.016907 0.99158 -0.12842
vn 0.01754 0.96337 -0.2676
vn 0.034935 0.96352 -0.26535
vn 0.13053 0 -0.99144
vn 0.13382 0.96352 -0.23179
vn 0.064763 0.99158 -0.11217
vn 0.26535 0.96352 -0.034935
vn 0.12842 0.99158 -0.016907
vn 0.2676 0.96337 -0.01754
vn 0.12952 0.99154 -0.0084893
vn 0.21234 0.96352 -0.16293
vn 0.10276 0.99158 -0.078851
vn 0.23179 0.96352 -0.13382
vn 0.11217 0.99158 -0.064763
vn 0.92388 0 -0.38268
vn 0.86603 0 -0.5
vn 0.16293 0.96352 -0.21234
vn 0.078851 0.99158 -0.10276
vn 0.79335 0 -0.60876
vn 0.5 0 -0.86603
vn 0.091589 0.99158 -0.091589
vn 0.065403 0 -0.99786
vn 0.18925 0.96352 -0.18925
vn 0 -1 0
vt 0.90625 0.125
vt 0.15625 0.375
usemtl colormap
f 3/1/3 2/1/2 1/1/1
f 2/1/2 3/1/3 4/1/4
f 7/1/5 6/1/5 5/1/5
f 6/1/5 7/1/5 8/1/5
f 6/1/5 8/1/5 9/1/5
f 9/1/5 8/1/5 10/1/5
f 13/1/6 12/1/7 11/1/6
f 12/1/7 13/1/6 14/1/7
f 17/1/8 16/1/9 15/1/8
f 16/1/9 17/1/8 18/1/9
f 21/1/11 20/1/10 19/1/10
f 20/1/10 21/1/11 22/1/11
f 23/1/12 8/1/12 7/1/12
f 8/1/12 23/1/12 24/1/12
f 27/1/15 26/1/14 25/1/13
f 26/1/14 27/1/15 28/1/16
f 31/1/19 30/1/18 29/1/17
f 30/1/18 31/1/19 13/1/20
f 33/1/23 17/1/22 32/1/21
f 17/1/22 33/1/23 18/1/24
f 36/1/25 35/1/25 34/1/25
f 35/1/25 36/1/25 37/1/25
f 37/1/25 36/1/25 38/1/25
f 37/1/25 38/1/25 39/1/25
f 32/1/21 14/1/27 40/1/26
f 14/1/27 32/1/21 17/1/22
f 41/1/30 38/1/29 36/1/28
f 38/1/29 41/1/30 42/1/31
f 29/1/17 42/1/31 41/1/30
f 42/1/31 29/1/17 30/1/18
f 16/1/9 22/1/11 21/1/11
f 22/1/11 16/1/9 18/1/9
f 44/1/33 4/1/32 43/1/32
f 4/1/32 44/1/33 2/1/33
f 45/1/34 24/1/34 23/1/34
f 24/1/34 45/1/34 46/1/34
f 48/1/37 22/1/36 47/1/35
f 22/1/36 48/1/37 20/1/38
f 51/1/25 50/1/25 49/1/25
f 50/1/25 51/1/25 52/1/25
f 52/1/25 51/1/25 45/1/25
f 45/1/25 51/1/25 46/1/25
f 38/1/39 53/1/40 39/1/39
f 53/1/40 38/1/39 42/1/40
f 30/1/41 11/1/6 54/1/41
f 11/1/6 30/1/41 13/1/6
f 40/1/26 13/1/20 31/1/19
f 13/1/20 40/1/26 14/1/27
f 27/1/15 36/1/28 34/1/42
f 36/1/28 27/1/15 41/1/30
f 41/1/30 27/1/15 29/1/17
f 29/1/17 27/1/15 31/1/19
f 31/1/19 27/1/15 40/1/26
f 40/1/26 27/1/15 32/1/21
f 32/1/21 27/1/15 33/1/23
f 33/1/23 27/1/15 47/1/35
f 47/1/35 27/1/15 48/1/37
f 48/1/37 27/1/15 1/1/1
f 1/1/1 27/1/15 3/1/3
f 3/1/3 27/1/15 25/1/13
f 19/1/10 2/1/33 44/1/33
f 2/1/33 19/1/10 20/1/10
f 1/1/1 20/1/38 48/1/37
f 20/1/38 1/1/1 2/1/2
f 14/1/7 15/1/8 12/1/7
f 15/1/8 14/1/7 17/1/8
f 55/1/44 6/1/43 9/1/43
f 6/1/43 55/1/44 56/1/44
f 58/1/46 28/1/45 57/1/45
f 28/1/45 58/1/46 26/1/46
f 25/1/13 4/1/4 3/1/3
f 4/1/4 25/1/13 26/1/14
f 47/1/35 18/1/24 33/1/23
f 18/1/24 47/1/35 22/1/36
f 42/1/40 54/1/41 53/1/40
f 54/1/41 42/1/40 30/1/41
f 57/1/5 35/1/5 59/1/5
f 35/1/5 57/1/5 34/1/5
f 34/1/5 57/1/5 28/1/5
f 34/1/5 28/1/5 27/1/5
f 43/1/32 26/1/46 58/1/46
f 26/1/46 43/1/32 4/1/32
f 62/1/49 61/1/48 60/1/47
f 61/1/48 62/1/49 63/1/50
f 65/1/52 60/1/51 64/1/51
f 60/1/51 65/1/52 62/1/52
f 66/1/53 56/1/44 55/1/44
f 56/1/44 66/1/53 67/1/53
f 70/1/55 69/1/54 68/1/54
f 69/1/54 70/1/55 71/1/55
f 66/1/58 73/1/57 72/1/56
f 73/1/57 66/1/58 74/1/59
f 49/1/62 75/1/61 51/1/60
f 75/1/61 49/1/62 76/1/63
f 64/1/51 76/1/64 77/1/64
f 76/1/64 64/1/51 60/1/51
f 78/1/65 63/1/50 62/1/49
f 63/1/50 78/1/65 79/1/66
f 55/1/67 74/1/59 66/1/58
f 74/1/59 55/1/67 80/1/68
f 9/1/69 80/1/68 55/1/67
f 80/1/68 9/1/69 10/1/70
f 83/1/73 82/1/72 81/1/71
f 82/1/72 83/1/73 84/1/74
f 83/1/76 85/1/75 72/1/75
f 85/1/75 83/1/76 86/1/76
f 69/1/77 79/1/66 78/1/65
f 79/1/66 69/1/77 87/1/78
f 71/1/55 88/1/79 81/1/79
f 88/1/79 71/1/55 70/1/55
f 89/1/80 62/1/52 65/1/52
f 62/1/52 89/1/80 78/1/80
f 72/1/56 84/1/74 83/1/73
f 84/1/74 72/1/56 73/1/57
f 68/1/54 78/1/80 89/1/80
f 78/1/80 68/1/54 69/1/54
f 51/1/60 24/1/42 46/1/42
f 24/1/42 51/1/60 75/1/61
f 24/1/42 75/1/61 61/1/48
f 24/1/42 61/1/48 63/1/50
f 24/1/42 63/1/50 79/1/66
f 24/1/42 79/1/66 87/1/78
f 24/1/42 87/1/78 90/1/81
f 24/1/42 90/1/81 82/1/72
f 24/1/42 82/1/72 84/1/74
f 24/1/42 84/1/74 73/1/57
f 24/1/42 73/1/57 74/1/59
f 24/1/42 74/1/59 80/1/68
f 24/1/42 80/1/68 10/1/70
f 24/1/42 10/1/70 8/1/42
f 81/1/79 86/1/76 83/1/76
f 86/1/76 81/1/79 88/1/79
f 77/1/64 49/1/82 50/1/82
f 49/1/82 77/1/64 76/1/64
f 81/1/71 90/1/81 71/1/83
f 90/1/81 81/1/71 82/1/72
f 71/1/83 87/1/78 69/1/77
f 87/1/78 71/1/83 90/1/81
f 72/1/75 67/1/53 66/1/53
f 67/1/53 72/1/75 85/1/75
f 60/1/47 75/1/61 76/1/63
f 75/1/61 60/1/47 61/1/48
f 93/2/53 92/2/44 91/2/44
f 92/2/44 93/2/53 94/2/53
f 97/2/55 96/2/54 95/2/54
f 96/2/54 97/2/55 98/2/55
f 101/2/39 100/2/40 99/2/39
f 100/2/40 101/2/39 102/2/40
f 105/2/10 104/2/33 103/2/33
f 104/2/33 105/2/10 106/2/10
f 108/2/42 101/2/42 107/2/42
f 101/2/42 108/2/42 102/2/42
f 102/2/42 108/2/42 109/2/42
f 102/2/42 109/2/42 110/2/42
f 102/2/42 110/2/42 111/2/42
f 102/2/42 111/2/42 112/2/42
f 112/2/42 111/2/42 96/2/42
f 112/2/42 96/2/42 98/2/42
f 112/2/42 98/2/42 113/2/42
f 112/2/42 113/2/42 114/2/42
f 112/2/42 114/2/42 115/2/42
f 115/2/42 114/2/42 116/2/42
f 115/2/42 116/2/42 93/2/42
f 115/2/42 93/2/42 91/2/42
f 115/2/42 91/2/42 117/2/42
f 115/2/42 117/2/42 118/2/42
f 115/2/42 118/2/42 119/2/42
f 119/2/42 118/2/42 120/2/42
f 120/2/42 118/2/42 121/2/42
f 121/2/42 118/2/42 122/2/42
f 122/2/42 118/2/42 106/2/42
f 106/2/42 118/2/42 104/2/42
f 104/2/42 118/2/42 123/2/42
f 123/2/42 118/2/42 124/2/42
f 126/2/9 122/2/11 125/2/11
f 122/2/11 126/2/9 121/2/9
f 115/2/6 128/2/7 127/2/6
f 128/2/7 115/2/6 119/2/7
f 113/2/79 129/2/76 114/2/76
f 129/2/76 113/2/79 130/2/79
f 132/2/52 109/2/51 131/2/51
f 109/2/51 132/2/52 110/2/52
f 39/2/42 134/2/42 133/2/42
f 134/2/42 39/2/42 53/2/42
f 134/2/42 53/2/42 54/2/42
f 134/2/42 54/2/42 131/2/42
f 131/2/42 54/2/42 11/2/42
f 131/2/42 11/2/42 132/2/42
f 132/2/42 11/2/42 12/2/42
f 132/2/42 12/2/42 135/2/42
f 135/2/42 12/2/42 15/2/42
f 135/2/42 15/2/42 95/2/42
f 95/2/42 15/2/42 16/2/42
f 95/2/42 16/2/42 97/2/42
f 97/2/42 16/2/42 21/2/42
f 97/2/42 21/2/42 19/2/42
f 97/2/42 19/2/42 130/2/42
f 130/2/42 19/2/42 44/2/42
f 130/2/42 44/2/42 129/2/42
f 129/2/42 44/2/42 43/2/42
f 129/2/42 43/2/42 58/2/42
f 129/2/42 58/2/42 136/2/42
f 136/2/42 58/2/42 57/2/42
f 136/2/42 57/2/42 137/2/42
f 136/2/42 137/2/42 94/2/42
f 94/2/42 137/2/42 92/2/42
f 134/2/64 107/2/82 133/2/82
f 107/2/82 134/2/64 108/2/64
f 131/2/51 108/2/64 134/2/64
f 108/2/64 131/2/51 109/2/51
f 98/2/55 130/2/79 113/2/79
f 130/2/79 98/2/55 97/2/55
f 100/2/42 50/2/42 99/2/42
f 50/2/42 100/2/42 77/2/42
f 77/2/42 100/2/42 138/2/42
f 77/2/42 138/2/42 64/2/42
f 64/2/42 138/2/42 127/2/42
f 64/2/42 127/2/42 65/2/42
f 65/2/42 127/2/42 128/2/42
f 65/2/42 128/2/42 89/2/42
f 89/2/42 128/2/42 139/2/42
f 89/2/42 139/2/42 68/2/42
f 68/2/42 139/2/42 126/2/42
f 68/2/42 126/2/42 70/2/42
f 70/2/42 126/2/42 125/2/42
f 70/2/42 125/2/42 88/2/42
f 88/2/42 125/2/42 105/2/42
f 88/2/42 105/2/42 86/2/42
f 86/2/42 105/2/42 103/2/42
f 86/2/42 103/2/42 85/2/42
f 85/2/42 103/2/42 140/2/42
f 85/2/42 140/2/42 67/2/42
f 67/2/42 140/2/42 141/2/42
f 67/2/42 141/2/42 142/2/42
f 67/2/42 142/2/42 6/2/42
f 67/2/42 6/2/42 56/2/42
f 102/2/40 138/2/41 100/2/40
f 138/2/41 102/2/40 112/2/41
f 116/2/75 94/2/53 93/2/53
f 94/2/53 116/2/75 136/2/75
f 112/2/41 127/2/6 138/2/41
f 127/2/6 112/2/41 115/2/6
f 125/2/11 106/2/10 105/2/10
f 106/2/10 125/2/11 122/2/11
f 103/2/33 123/2/32 140/2/32
f 123/2/32 103/2/33 104/2/33
f 120/2/8 126/2/9 139/2/8
f 126/2/9 120/2/8 121/2/9
f 140/2/32 124/2/46 141/2/46
f 124/2/46 140/2/32 123/2/32
f 141/2/46 118/2/45 142/2/45
f 118/2/45 141/2/46 124/2/46
f 23/2/84 52/2/84 45/2/84
f 52/2/84 23/2/84 59/2/84
f 59/2/84 37/2/84 52/2/84
f 37/2/84 59/2/84 35/2/84
f 59/2/84 23/2/84 5/2/84
f 5/2/84 23/2/84 7/2/84
f 135/2/80 110/2/52 132/2/52
f 110/2/52 135/2/80 111/2/80
f 119/2/7 139/2/8 128/2/7
f 139/2/8 119/2/7 120/2/8
f 91/2/44 137/2/43 117/2/43
f 137/2/43 91/2/44 92/2/44
f 114/2/76 136/2/75 116/2/75
f 136/2/75 114/2/76 129/2/76
f 95/2/54 111/2/80 135/2/80
f 111/2/80 95/2/54 96/2/54
f 101/2/25 144/2/25 143/2/25
f 99/2/25 144/2/25 101/2/25
f 52/2/25 144/2/25 99/2/25
f 52/2/25 99/2/25 50/2/25
f 37/2/25 144/2/25 52/2/25
f 144/2/25 37/2/25 39/2/25
f 6/2/5 59/2/5 5/2/5
f 59/2/5 6/2/5 57/2/5
f 57/2/5 6/2/5 142/2/5
f 57/2/5 142/2/5 145/2/5
f 145/2/5 142/2/5 118/2/5
f 145/2/5 118/2/5 146/2/5
g road-bend
usemtl colormap
f 3/1/3 2/1/2 1/1/1
f 2/1/2 3/1/3 4/1/4
f 7/1/5 6/1/5 5/1/5
f 6/1/5 7/1/5 8/1/5
f 6/1/5 8/1/5 9/1/5
f 9/1/5 8/1/5 10/1/5
f 13/1/6 12/1/7 11/1/6
f 12/1/7 13/1/6 14/1/7
f 17/1/8 16/1/9 15/1/8
f 16/1/9 17/1/8 18/1/9
f 21/1/11 20/1/10 19/1/10
f 20/1/10 21/1/11 22/1/11
f 23/1/12 8/1/12 7/1/12
f 8/1/12 23/1/12 24/1/12
f 27/1/15 26/1/14 25/1/13
f 26/1/14 27/1/15 28/1/16
f 31/1/19 30/1/18 29/1/17
f 30/1/18 31/1/19 13/1/20
f 33/1/23 17/1/22 32/1/21
f 17/1/22 33/1/23 18/1/24
f 36/1/25 35/1/25 34/1/25
f 35/1/25 36/1/25 37/1/25
f 37/1/25 36/1/25 38/1/25
f 37/1/25 38/1/25 39/1/25
f 32/1/21 14/1/27 40/1/26
f 14/1/27 32/1/21 17/1/22
f 41/1/30 38/1/29 36/1/28
f 38/1/29 41/1/30 42/1/31
f 29/1/17 42/1/31 41/1/30
f 42/1/31 29/1/17 30/1/18
f 16/1/9 22/1/11 21/1/11
f 22/1/11 16/1/9 18/1/9
f 44/1/33 4/1/32 43/1/32
f 4/1/32 44/1/33 2/1/33
f 45/1/34 24/1/34 23/1/34
f 24/1/34 45/1/34 46/1/34
f 48/1/37 22/1/36 47/1/35
f 22/1/36 48/1/37 20/1/38
f 51/1/25 50/1/25 49/1/25
f 50/1/25 51/1/25 52/1/25
f 52/1/25 51/1/25 45/1/25
f 45/1/25 51/1/25 46/1/25
f 38/1/39 53/1/40 39/1/39
f 53/1/40 38/1/39 42/1/40
f 30/1/41 11/1/6 54/1/41
f 11/1/6 30/1/41 13/1/6
f 40/1/26 13/1/20 31/1/19
f 13/1/20 40/1/26 14/1/27
f 27/1/15 36/1/28 34/1/42
f 36/1/28 27/1/15 41/1/30
f 41/1/30 27/1/15 29/1/17
f 29/1/17 27/1/15 31/1/19
f 31/1/19 27/1/15 40/1/26
f 40/1/26 27/1/15 32/1/21
f 32/1/21 27/1/15 33/1/23
f 33/1/23 27/1/15 47/1/35
f 47/1/35 27/1/15 48/1/37
f 48/1/37 27/1/15 1/1/1
f 1/1/1 27/1/15 3/1/3
f 3/1/3 27/1/15 25/1/13
f 19/1/10 2/1/33 44/1/33
f 2/1/33 19/1/10 20/1/10
f 1/1/1 20/1/38 48/1/37
f 20/1/38 1/1/1 2/1/2
f 14/1/7 15/1/8 12/1/7
f 15/1/8 14/1/7 17/1/8
f 55/1/44 6/1/43 9/1/43
f 6/1/43 55/1/44 56/1/44
f 58/1/46 28/1/45 57/1/45
f 28/1/45 58/1/46 26/1/46
f 25/1/13 4/1/4 3/1/3
f 4/1/4 25/1/13 26/1/14
f 47/1/35 18/1/24 33/1/23
f 18/1/24 47/1/35 22/1/36
f 42/1/40 54/1/41 53/1/40
f 54/1/41 42/1/40 30/1/41
f 57/1/5 35/1/5 59/1/5
f 35/1/5 57/1/5 34/1/5
f 34/1/5 57/1/5 28/1/5
f 34/1/5 28/1/5 27/1/5
f 43/1/32 26/1/46 58/1/46
f 26/1/46 43/1/32 4/1/32
f 62/1/49 61/1/48 60/1/47
f 61/1/48 62/1/49 63/1/50
f 65/1/52 60/1/51 64/1/51
f 60/1/51 65/1/52 62/1/52
f 66/1/53 56/1/44 55/1/44
f 56/1/44 66/1/53 67/1/53
f 70/1/55 69/1/54 68/1/54
f 69/1/54 70/1/55 71/1/55
f 66/1/58 73/1/57 72/1/56
f 73/1/57 66/1/58 74/1/59
f 49/1/62 75/1/61 51/1/60
f 75/1/61 49/1/62 76/1/63
f 64/1/51 76/1/64 77/1/64
f 76/1/64 64/1/51 60/1/51
f 78/1/65 63/1/50 62/1/49
f 63/1/50 78/1/65 79/1/66
f 55/1/67 74/1/59 66/1/58
f 74/1/59 55/1/67 80/1/68
f 9/1/69 80/1/68 55/1/67
f 80/1/68 9/1/69 10/1/70
f 83/1/73 82/1/72 81/1/71
f 82/1/72 83/1/73 84/1/74
f 83/1/76 85/1/75 72/1/75
f 85/1/75 83/1/76 86/1/76
f 69/1/77 79/1/66 78/1/65
f 79/1/66 69/1/77 87/1/78
f 71/1/55 88/1/79 81/1/79
f 88/1/79 71/1/55 70/1/55
f 89/1/80 62/1/52 65/1/52
f 62/1/52 89/1/80 78/1/80
f 72/1/56 84/1/74 83/1/73
f 84/1/74 72/1/56 73/1/57
f 68/1/54 78/1/80 89/1/80
f 78/1/80 68/1/54 69/1/54
f 51/1/60 24/1/42 46/1/42
f 24/1/42 51/1/60 75/1/61
f 24/1/42 75/1/61 61/1/48
f 24/1/42 61/1/48 63/1/50
f 24/1/42 63/1/50 79/1/66
f 24/1/42 79/1/66 87/1/78
f 24/1/42 87/1/78 90/1/81
f 24/1/42 90/1/81 82/1/72
f 24/1/42 82/1/72 84/1/74
f 24/1/42 84/1/74 73/1/57
f 24/1/42 73/1/57 74/1/59
f 24/1/42 74/1/59 80/1/68
f 24/1/42 80/1/68 10/1/70
f 24/1/42 10/1/70 8/1/42
f 81/1/79 86/1/76 83/1/76
f 86/1/76 81/1/79 88/1/79
f 77/1/64 49/1/82 50/1/82
f 49/1/82 77/1/64 76/1/64
f 81/1/71 90/1/81 71/1/83
f 90/1/81 81/1/71 82/1/72
f 71/1/83 87/1/78 69/1/77
f 87/1/78 71/1/83 90/1/81
f 72/1/75 67/1/53 66/1/53
f 67/1/53 72/1/75 85/1/75
f 60/1/47 75/1/61 76/1/63
f 75/1/61 60/1/47 61/1/48
f 93/2/53 92/2/44 91/2/44
f 92/2/44 93/2/53 94/2/53
f 97/2/55 96/2/54 95/2/54
f 96/2/54 97/2/55 98/2/55
f 101/2/39 100/2/40 99/2/39
f 100/2/40 101/2/39 102/2/40
f 105/2/10 104/2/33 103/2/33
f 104/2/33 105/2/10 106/2/10
f 108/2/42 101/2/42 107/2/42
f 101/2/42 108/2/42 102/2/42
f 102/2/42 108/2/42 109/2/42
f 102/2/42 109/2/42 110/2/42
f 102/2/42 110/2/42 111/2/42
f 102/2/42 111/2/42 112/2/42
f 112/2/42 111/2/42 96/2/42
f 112/2/42 96/2/42 98/2/42
f 112/2/42 98/2/42 113/2/42
f 112/2/42 113/2/42 114/2/42
f 112/2/42 114/2/42 115/2/42
f 115/2/42 114/2/42 116/2/42
f 115/2/42 116/2/42 93/2/42
f 115/2/42 93/2/42 91/2/42
f 115/2/42 91/2/42 117/2/42
f 115/2/42 117/2/42 118/2/42
f 115/2/42 118/2/42 119/2/42
f 119/2/42 118/2/42 120/2/42
f 120/2/42 118/2/42 121/2/42
f 121/2/42 118/2/42 122/2/42
f 122/2/42 118/2/42 106/2/42
f 106/2/42 118/2/42 104/2/42
f 104/2/42 118/2/42 123/2/42
f 123/2/42 118/2/42 124/2/42
f 126/2/9 122/2/11 125/2/11
f 122/2/11 126/2/9 121/2/9
f 115/2/6 128/2/7 127/2/6
f 128/2/7 115/2/6 119/2/7
f 113/2/79 129/2/76 114/2/76
f 129/2/76 113/2/79 130/2/79
f 132/2/52 109/2/51 131/2/51
f 109/2/51 132/2/52 110/2/52
f 39/2/42 134/2/42 133/2/42
f 134/2/42 39/2/42 53/2/42
f 134/2/42 53/2/42 54/2/42
f 134/2/42 54/2/42 131/2/42
f 131/2/42 54/2/42 11/2/42
f 131/2/42 11/2/42 132/2/42
f 132/2/42 11/2/42 12/2/42
f 132/2/42 12/2/42 135/2/42
f 135/2/42 12/2/42 15/2/42
f 135/2/42 15/2/42 95/2/42
f 95/2/42 15/2/42 16/2/42
f 95/2/42 16/2/42 97/2/42
f 97/2/42 16/2/42 21/2/42
f 97/2/42 21/2/42 19/2/42
f 97/2/42 19/2/42 130/2/42
f 130/2/42 19/2/42 44/2/42
f 130/2/42 44/2/42 129/2/42
f 129/2/42 44/2/42 43/2/42
f 129/2/42 43/2/42 58/2/42
f 129/2/42 58/2/42 136/2/42
f 136/2/42 58/2/42 57/2/42
f 136/2/42 57/2/42 137/2/42
f 136/2/42 137/2/42 94/2/42
f 94/2/42 137/2/42 92/2/42
f 134/2/64 107/2/82 133/2/82
f 107/2/82 134/2/64 108/2/64
f 131/2/51 108/2/64 134/2/64
f 108/2/64 131/2/51 109/2/51
f 98/2/55 130/2/79 113/2/79
f 130/2/79 98/2/55 97/2/55
f 100/2/42 50/2/42 99/2/42
f 50/2/42 100/2/42 77/2/42
f 77/2/42 100/2/42 138/2/42
f 77/2/42 138/2/42 64/2/42
f 64/2/42 138/2/42 127/2/42
f 64/2/42 127/2/42 65/2/42
f 65/2/42 127/2/42 128/2/42
f 65/2/42 128/2/42 89/2/42
f 89/2/42 128/2/42 139/2/42
f 89/2/42 139/2/42 68/2/42
f 68/2/42 139/2/42 126/2/42
f 68/2/42 126/2/42 70/2/42
f 70/2/42 126/2/42 125/2/42
f 70/2/42 125/2/42 88/2/42
f 88/2/42 125/2/42 105/2/42
f 88/2/42 105/2/42 86/2/42
f 86/2/42 105/2/42 103/2/42
f 86/2/42 103/2/42 85/2/42
f 85/2/42 103/2/42 140/2/42
f 85/2/42 140/2/42 67/2/42
f 67/2/42 140/2/42 141/2/42
f 67/2/42 141/2/42 142/2/42
f 67/2/42 142/2/42 6/2/42
f 67/2/42 6/2/42 56/2/42
f 102/2/40 138/2/41 100/2/40
f 138/2/41 102/2/40 112/2/41
f 116/2/75 94/2/53 93/2/53
f 94/2/53 116/2/75 136/2/75
f 112/2/41 127/2/6 138/2/41
f 127/2/6 112/2/41 115/2/6
f 125/2/11 106/2/10 105/2/10
f 106/2/10 125/2/11 122/2/11
f 103/2/33 123/2/32 140/2/32
f 123/2/32 103/2/33 104/2/33
f 120/2/8 126/2/9 139/2/8
f 126/2/9 120/2/8 121/2/9
f 140/2/32 124/2/46 141/2/46
f 124/2/46 140/2/32 123/2/32
f 141/2/46 118/2/45 142/2/45
f 118/2/45 141/2/46 124/2/46
f 23/2/84 52/2/84 45/2/84
f 52/2/84 23/2/84 59/2/84
f 59/2/84 37/2/84 52/2/84
f 37/2/84 59/2/84 35/2/84
f 59/2/84 23/2/84 5/2/84
f 5/2/84 23/2/84 7/2/84
f 135/2/80 110/2/52 132/2/52
f 110/2/52 135/2/80 111/2/80
f 119/2/7 139/2/8 128/2/7
f 139/2/8 119/2/7 120/2/8
f 91/2/44 137/2/43 117/2/43
f 137/2/43 91/2/44 92/2/44
f 114/2/76 136/2/75 116/2/75
f 136/2/75 114/2/76 129/2/76
f 95/2/54 111/2/80 135/2/80
f 111/2/80 95/2/54 96/2/54
f 101/2/25 144/2/25 143/2/25
f 99/2/25 144/2/25 101/2/25
f 52/2/25 144/2/25 99/2/25
f 52/2/25 99/2/25 50/2/25
f 37/2/25 144/2/25 52/2/25
f 144/2/25 37/2/25 39/2/25
f 6/2/5 59/2/5 5/2/5
f 59/2/5 6/2/5 57/2/5
f 57/2/5 6/2/5 142/2/5
f 57/2/5 142/2/5 145/2/5
f 145/2/5 142/2/5 118/2/5
f 145/2/5 118/2/5 146/2/5
