mtllib vehicles_wheel-tractor-back.mtl
g wheel-tractor-back
v 0.19586 0.093456 0.16187
v 0.26879 0.10346 0.1792
v 0.19586 0.13217 0.13217
v 0.26879 0.14632 0.14632
v 0.26879 -0.20692 8.6939e-09
v 0.26879 -0.19987 0.053556
v 0.19586 -0.18691 6.5205e-09
v 0.19586 -0.18054 0.048376
v 0.26879 -0.10346 -0.1792
v 0.19586 -0.093456 -0.16187
v 0.26879 -0.053556 -0.19987
v 0.19586 -0.048376 -0.18054
v 0.19586 0.093456 -0.16187
v 0.19586 0.13217 -0.13217
v 0.26879 0.10346 -0.1792
v 0.26879 0.14632 -0.14632
v 0.19586 0.048376 -0.18054
v 0.26879 0.053556 -0.19987
v 0.26879 -0.14632 0.14632
v 0.26879 -0.10346 0.1792
v 0.19586 -0.13217 0.13217
v 0.19586 -0.093456 0.16187
v 0.26879 0.19987 -0.053556
v 0.19586 0.18054 -0.048376
v 0.26879 0.20692 8.6939e-09
v 0.19586 0.18691 6.5205e-09
v 0.26879 -0.1792 0.10346
v 0.19586 -0.16187 0.093456
v 0.26879 0.1792 0.10346
v 0.19586 0.16187 0.093456
v 0.19586 1.895e-15 -0.18691
v 0.26879 1.9853e-15 -0.20692
v 0.26879 1.3536e-15 0.20692
v 0.26879 0.053556 0.19987
v 0.19586 1.8048e-15 0.18691
v 0.19586 0.048376 0.18054
v 0.26879 -0.19987 -0.053556
v 0.19586 -0.18054 -0.048376
v 0.26879 -0.1792 -0.10346
v 0.19586 -0.16187 -0.093456
v 0.26879 0.1792 -0.10346
v 0.19586 0.16187 -0.093456
v 0.26879 -0.14632 -0.14632
v 0.19586 -0.13217 -0.13217
v 0.26879 0.19987 0.053556
v 0.19586 0.18054 0.048376
v 0.26879 -0.053556 0.19987
v 0.19586 -0.048376 0.18054
v 0.19586 5.1436e-15 -0.11423
v 0.19586 0.029566 -0.11034
v 0.19586 0.057117 -0.09893
v 0.19586 0.080776 -0.080776
v 0.19586 -0.029566 -0.11034
v 0.19586 -0.057117 -0.09893
v 0.19586 -0.080776 -0.080776
v 0.19586 0.09893 -0.057117
v 0.19586 0.11034 -0.029566
v 0.19586 0.11423 6.5205e-09
v 0.19586 -0.09893 -0.057117
v 0.19586 -0.11034 -0.029566
v 0.19586 -0.11423 6.5205e-09
v 0.19586 0.11034 0.029566
v 0.19586 0.09893 0.057117
v 0.19586 -0.11034 0.029566
v 0.19586 -0.09893 0.057117
v 0.19586 0.080776 0.080776
v 0.19586 0.057117 0.09893
v 0.19586 -0.080776 0.080776
v 0.19586 -0.057117 0.09893
v 0.19586 0.029566 0.11034
v 0.19586 -0.029566 0.11034
v 0.19586 9.9263e-16 0.11423
v 0.26879 0 0.29263
v 0.26879 0.075739 0.28266
v 0.26879 -0.075739 0.28266
v 0.26879 -0.14632 0.25343
v 0.26879 0.14632 0.25343
v 0.26879 -0.20692 0.20692
v 0.26879 0 0.20692
v 0.26879 0.20692 0.20692
v 0.26879 -0.053556 0.19987
v 0.26879 -0.10346 0.1792
v 0.26879 0.053556 0.19987
v 0.26879 0.10346 0.1792
v 0.26879 0.14632 0.14632
v 0.26879 0.25343 0.14632
v 0.26879 0.1792 0.10346
v 0.26879 -0.25343 0.14632
v 0.26879 -0.14632 0.14632
v 0.26879 -0.1792 0.10346
v 0.26879 0.28266 0.075739
v 0.26879 0.19987 0.053556
v 0.26879 0.20692 8.6939e-09
v 0.26879 0.29263 8.6939e-09
v 0.26879 0.19987 -0.053556
v 0.26879 -0.28266 0.075739
v 0.26879 -0.19987 0.053556
v 0.26879 -0.29263 8.6939e-09
v 0.26879 -0.19987 -0.053556
v 0.26879 0.28266 -0.075739
v 0.26879 0.1792 -0.10346
v 0.26879 0.14632 -0.14632
v 0.26879 -0.28266 -0.075739
v 0.26879 -0.1792 -0.10346
v 0.26879 -0.14632 -0.14632
v 0.26879 0.25343 -0.14632
v 0.26879 0.10346 -0.1792
v 0.26879 0.053556 -0.19987
v 0.26879 -0.25343 -0.14632
v 0.26879 -0.10346 -0.1792
v 0.26879 -0.053556 -0.19987
v 0.26879 0.20692 -0.20692
v 0.26879 -0.20692 -0.20692
v 0.26879 0 -0.20692
v 0.26879 -0.14632 -0.25343
v 0.26879 0.14632 -0.25343
v 0.26879 -0.075739 -0.28266
v 0.26879 0.075739 -0.28266
v 0.26879 0 -0.29263
v 0.26879 -0.04398 0.076176
v 0.26879 -0.022766 0.084963
v 0.26879 -0.062197 -0.062197
v 0.26879 -0.04398 -0.076176
v 0.26879 8.1215e-16 0.08796
v 0.26879 0.022766 0.084963
v 0.26879 -0.062197 0.062197
v 0.26879 0.04398 0.076176
v 0.26879 0.062197 0.062197
v 0.26879 -0.08796 8.6939e-09
v 0.26879 -0.084963 0.022766
v 0.26879 0.062197 -0.062197
v 0.26879 0.076176 -0.04398
v 0.26879 0.084963 0.022766
v 0.26879 0.076176 0.04398
v 0.26879 0.08796 8.6939e-09
v 0.26879 0.084963 -0.022766
v 0.26879 4.0608e-15 -0.08796
v 0.26879 0.022766 -0.084963
v 0.26879 0.04398 -0.076176
v 0.26879 -0.084963 -0.022766
v 0.26879 -0.076176 0.04398
v 0.26879 -0.022766 -0.084963
v 0.26879 -0.076176 -0.04398
v 0.26879 9.0239e-17 -0.37194
v 0.26879 -0.096266 -0.35927
v 0.26879 0.096266 -0.35927
v 0.26879 0.18597 -0.32211
v 0.26879 -0.18597 -0.32211
v 0.26879 0.263 -0.263
v 0.26879 2.3462e-15 -0.29263
v 0.26879 -0.263 -0.263
v 0.26879 0.075739 -0.28266
v 0.26879 -0.075739 -0.28266
v 0.26879 0.14632 -0.25343
v 0.26879 0.32211 -0.18597
v 0.26879 0.20692 -0.20692
v 0.26879 0.25343 -0.14632
v 0.26879 0.35927 -0.096266
v 0.26879 0.28266 -0.075739
v 0.26879 -0.32211 -0.18597
v 0.26879 -0.20692 -0.20692
v 0.26879 -0.25343 -0.14632
v 0.26879 -0.35927 -0.096266
v 0.26879 0.37194 8.6939e-09
v 0.26879 0.28266 0.075739
v 0.26879 0.35927 0.096266
v 0.26879 0.25343 0.14632
v 0.26879 0.32211 0.18597
v 0.26879 0.20692 0.20692
v 0.26879 -0.37194 8.6939e-09
v 0.26879 -0.28266 0.075739
v 0.26879 -0.35927 0.096266
v 0.26879 -0.25343 0.14632
v 0.26879 -0.32211 0.18597
v 0.26879 -0.20692 0.20692
v 0.26879 0.263 0.263
v 0.26879 0.14632 0.25343
v 0.26879 0.075739 0.28266
v 0.26879 -0.263 0.263
v 0.26879 -0.14632 0.25343
v 0.26879 -0.075739 0.28266
v 0.26879 0.18597 0.32211
v 0.26879 -0.18597 0.32211
v 0.26879 2.6169e-15 0.29263
v 0.26879 0.096266 0.35927
v 0.26879 -0.096266 0.35927
v 0.26879 1.8048e-16 0.37194
v -0.16879 0.21879 -0.37896
v 0.12293 0.21879 -0.37896
v -0.16879 0.30942 -0.30942
v 0.12293 0.30942 -0.30942
v 0.12293 -0.11325 -0.42267
v 0.12293 9.0239e-17 -0.43758
v 0.12293 0.11325 -0.42267
v 0.12293 0.37896 -0.21879
v -0.16879 0.37896 -0.21879
v 0.12293 -0.37896 -0.21879
v -0.16879 -0.37896 -0.21879
v 0.12293 -0.42267 -0.11325
v -0.16879 -0.42267 -0.11325
v 0.12293 -0.30942 -0.30942
v 0.12293 -0.21879 -0.37896
v 0.12293 0.37896 0.21879
v 0.12293 0.30942 0.30942
v -0.16879 0.11325 -0.42267
v 0.12293 -0.21879 0.37896
v 0.12293 -0.11325 0.42267
v 0.12293 0.11325 0.42267
v -0.16879 0.11325 0.42267
v 0.12293 0.21879 0.37896
v -0.16879 0.21879 0.37896
v -0.16879 -0.30942 -0.30942
v -0.16879 -0.21879 0.37896
v -0.16879 -0.11325 0.42267
v 0.12293 0.42267 0.11325
v 0.12293 -0.43758 4.347e-09
v 0.12293 -0.42267 0.11325
v -0.16879 9.0239e-17 -0.43758
v -0.16879 -0.43758 -4.347e-09
v -0.16879 -0.42267 0.11325
v 0.12293 0.42267 -0.11325
v 0.12293 0.43758 4.347e-09
v 0.12293 1.8048e-16 0.43758
v -0.16879 0.42267 -0.11325
v 0.12293 -0.30942 0.30942
v -0.16879 1.8048e-16 0.43758
v -0.16879 0.42267 0.11325
v -0.16879 0.37896 0.21879
v 0.12293 -0.37896 0.21879
v -0.16879 -0.37896 0.21879
v -0.16879 -0.11325 -0.42267
v -0.16879 0.30942 0.30942
v -0.16879 -0.21879 -0.37896
v -0.16879 -0.30942 0.30942
v -0.16879 0.43758 -4.347e-09
v -0.26879 9.0239e-17 -0.37194
v -0.26879 0.096266 -0.35927
v -0.26879 -0.096266 -0.35927
v -0.26879 0.18597 -0.32211
v -0.26879 -0.18597 -0.32211
v -0.26879 -0.263 -0.263
v -0.26879 0.263 -0.263
v -0.26879 -0.32211 -0.18597
v -0.26879 0.32211 -0.18597
v -0.26879 -0.35927 -0.096266
v -0.26879 0.35927 -0.096266
v -0.26879 -0.37194 -7.3272e-09
v -0.26879 0.37194 -7.3272e-09
v -0.26879 -0.35927 0.096266
v -0.26879 0.35927 0.096266
v -0.26879 -0.32211 0.18597
v -0.26879 0.32211 0.18597
v -0.26879 -0.263 0.263
v -0.26879 0.263 0.263
v -0.26879 -0.18597 0.32211
v -0.26879 0.18597 0.32211
v -0.26879 -0.096266 0.35927
v -0.26879 0.096266 0.35927
v -0.26879 1.8048e-16 0.37194
vn 0.26461 -0.48218 -0.83516
vn 0.26461 -0.6819 -0.6819
vn 0.26461 0.96436 0
vn 0.26461 0.9315 -0.24959
vn 0.26461 0.48218 0.83516
vn 0.26461 0.24959 0.9315
vn 0.26461 -0.48218 0.83516
vn 0.26461 -0.6819 0.6819
vn 0.26461 -0.24959 0.9315
vn 0.26461 0.6819 -0.6819
vn 0.26461 0.48218 -0.83516
vn 0.26461 -0.9315 0.24959
vn 0.26461 -0.96436 0
vn 0.26461 0.83516 -0.48218
vn 0.26461 -0.83516 -0.48218
vn 0.26461 0 0.96436
vn 0.26461 0 -0.96436
vn 0.26461 -0.24959 -0.9315
vn 0.26461 0.9315 0.24959
vn 0.26461 0.83516 0.48218
vn 0.26461 -0.83516 0.48218
vn 0.26461 0.6819 0.6819
vn 0.26461 -0.9315 -0.24959
vn 0.26461 0.24959 -0.9315
vn 1 0 0
vn 0.33894 -0.4704 0.81476
vn 0.33894 -0.2435 0.90875
vn 0.33894 -0.66525 -0.66525
vn 0.33894 -0.4704 -0.81476
vn 0.33894 0 0.94081
vn 0.33894 0.2435 0.90875
vn 0.33894 -0.66525 0.66525
vn 0.33894 0.4704 0.81476
vn 0.33894 0.66525 0.66525
vn 0.33894 -0.94081 0
vn 0.33894 -0.90875 0.2435
vn 0.33894 0.66525 -0.66525
vn 0.33894 0.81476 -0.4704
vn 0.33894 0.90875 0.2435
vn 0.33894 0.81476 0.4704
vn 0.33894 0.94081 0
vn 0.33894 0.90875 -0.2435
vn 0.33894 0 -0.94081
vn 0.33894 0.2435 -0.90875
vn 0.33894 0.4704 -0.81476
vn 0.33894 -0.90875 -0.2435
vn 0.33894 -0.81476 0.4704
vn 0.33894 -0.2435 -0.90875
vn 0.33894 -0.81476 -0.4704
vn 0 0.5 -0.86603
vn 0 0.70711 -0.70711
vn 0.41036 -0.23602 -0.88085
vn 0.41036 0 -0.91192
vn 0.41036 0.23602 -0.88085
vn 0 0.86603 -0.5
vn 0 -0.86603 -0.5
vn 0 -0.96593 -0.25882
vn 0.41036 -0.64483 -0.64483
vn 0.41036 -0.45596 -0.78975
vn 0.41036 0.78975 0.45596
vn 0.41036 0.64483 0.64483
vn 0 0.25882 -0.96593
vn 0.41036 -0.45596 0.78975
vn 0.41036 -0.23602 0.88085
vn 0 0.25882 0.96593
vn 0 0.5 0.86603
vn 0.41036 0.45596 -0.78975
vn 0 -0.70711 -0.70711
vn 0 -0.5 0.86603
vn 0 -0.25882 0.96593
vn 0.41036 0.88085 0.23602
vn 0.41036 -0.88085 -0.23602
vn 0.41036 -0.91192 0
vn 0.41036 0.23602 0.88085
vn 0.41036 0.45596 0.78975
vn 0.41036 -0.88085 0.23602
vn 0 0 -1
vn 0 -1 0
vn 0 -0.96593 0.25882
vn 0.41036 0.78975 -0.45596
vn 0.41036 0.88085 -0.23602
vn 0.41036 0.91192 0
vn 0.41036 -0.78975 -0.45596
vn 0.41036 0 0.91192
vn 0 0.96593 -0.25882
vn 0.41036 -0.64483 0.64483
vn 0 0 1
vn 0 0.96593 0.25882
vn 0 0.86603 0.5
vn 0 -0.86603 0.5
vn 0 -0.25882 -0.96593
vn 0 0.70711 0.70711
vn 0 -0.5 -0.86603
vn 0.41036 -0.78975 0.45596
vn 0 -0.70711 0.70711
vn 0 1 0
vn 0.41036 0.64483 -0.64483
vn -1 0 0
vn -0.54873 -0.724 0.418
vn -0.54873 -0.59114 0.59114
vn -0.54873 -0.418 0.724
vn -0.54873 -0.21637 0.80752
vn -0.54873 0 -0.836
vn -0.54873 0.21637 -0.80752
vn -0.54873 -0.59114 -0.59114
vn -0.54873 -0.724 -0.418
vn -0.54873 -0.80752 -0.21637
vn -0.54873 -0.418 -0.724
vn -0.54873 -0.836 0
vn -0.54873 -0.21637 -0.80752
vn -0.54873 -0.80752 0.21637
vn -0.54873 0 0.836
vn -0.54873 0.724 0.418
vn -0.54873 0.59114 0.59114
vn -0.54873 0.21637 0.80752
vn -0.54873 0.836 0
vn -0.54873 0.80752 0.21637
vn -0.54873 0.418 -0.724
vn -0.54873 0.59114 -0.59114
vn -0.54873 0.80752 -0.21637
vn -0.54873 0.418 0.724
vn -0.54873 0.724 -0.418
vt 0.59375 0.56771
vt 0.59375 0.57229
vt 0.59375 0.58541
vt 0.59375 0.59188
vt 0.59375 0.525
vt 0.59375 0.54711
vt 0.59375 0.54948
vt 0.59375 0.61635
vt 0.59375 0.60752
vt 0.59375 0.61958
vt 0.59375 0.61043
vt 0.59375 0.60691
vt 0.59375 0.59898
vt 0.59375 0.53851
vt 0.59375 0.55111
vt 0.59375 0.56192
vt 0.59375 0.57022
vt 0.59375 0.57543
vt 0.59375 0.57721
vt 0.59375 0.625
vt 0.59375 0.65088
vt 0.59375 0.59912
vt 0.59375 0.575
vt 0.59375 0.675
vt 0.59375 0.55429
vt 0.59375 0.69571
vt 0.59375 0.6067
vt 0.59375 0.58964
vt 0.59375 0.6433
vt 0.59375 0.66036
vt 0.59375 0.7116
vt 0.59375 0.68624
vt 0.59375 0.5384
vt 0.59375 0.56376
vt 0.59375 0.72159
vt 0.59375 0.6933
vt 0.59375 0.725
vt 0.59375 0.52841
vt 0.59375 0.5567
vt 0.46875 0.275
vt 0.46875 0.28541
vt 0.46875 0.28851
vt 0.46875 0.2951
vt 0.46875 0.30111
vt 0.46875 0.30343
vt 0.46875 0.31192
vt 0.46875 0.30982
vt 0.46875 0.32022
vt 0.46875 0.31383
vt 0.46875 0.32543
vt 0.46875 0.3152
vt 0.46875 0.32721
vt 0.34375 0.275
vt 0.34375 0.319
vt 0.34375 0.36
vt 0.34375 0.39521
vt 0.34375 0.30962
vt 0.34375 0.34188
vt 0.34375 0.42222
vt 0.34375 0.36958
vt 0.34375 0.39083
vt 0.34375 0.43921
vt 0.34375 0.40419
vt 0.34375 0.445
vt 0.34375 0.40875
vt 0.34375 0.375
vt 0.34375 0.41642
vt 0.34375 0.32676
vt 0.34375 0.44821
vt 0.34375 0.46819
vt 0.34375 0.475
usemtl colormap
f 3/3/2 2/2/1 1/1/1
f 2/2/1 3/3/2 4/4/2
f 7/5/3 6/5/4 5/5/3
f 6/5/4 7/5/3 8/5/4
f 11/5/6 10/5/5 9/5/5
f 10/5/5 11/5/6 12/5/6
f 15/2/7 14/3/8 13/1/7
f 14/3/8 15/2/7 16/4/8
f 18/7/9 13/1/7 17/6/9
f 13/1/7 18/7/9 15/2/7
f 21/5/10 20/5/11 19/5/10
f 20/5/11 21/5/10 22/5/11
f 25/10/13 24/9/12 23/8/12
f 24/9/12 25/10/13 26/11/13
f 8/5/4 27/5/14 6/5/4
f 27/5/14 8/5/4 28/5/14
f 4/4/2 30/13/15 29/12/15
f 30/13/15 4/4/2 3/3/2
f 32/5/16 17/6/9 31/5/16
f 17/6/9 32/5/16 18/7/9
f 35/5/17 34/7/18 33/5/17
f 34/7/18 35/5/17 36/6/18
f 38/5/19 5/5/3 37/5/19
f 5/5/3 38/5/19 7/5/3
f 40/5/20 37/5/19 39/5/20
f 37/5/19 40/5/20 38/5/19
f 41/12/21 14/3/8 16/4/8
f 14/3/8 41/12/21 42/13/21
f 44/5/22 39/5/20 43/5/22
f 39/5/20 44/5/22 40/5/20
f 28/5/14 19/5/10 27/5/14
f 19/5/10 28/5/14 21/5/10
f 23/8/12 42/13/21 41/12/21
f 42/13/21 23/8/12 24/9/12
f 45/8/23 26/11/13 25/10/13
f 26/11/13 45/8/23 46/9/23
f 1/1/1 34/7/18 36/6/18
f 34/7/18 1/1/1 2/2/1
f 48/5/24 33/5/17 47/5/24
f 33/5/17 48/5/24 35/5/17
f 17/6/25 12/5/25 31/5/25
f 12/5/25 17/6/25 13/1/25
f 12/5/25 13/1/25 10/5/25
f 10/5/25 13/1/25 14/3/25
f 10/5/25 14/3/25 44/5/25
f 44/5/25 14/3/25 42/13/25
f 44/5/25 42/13/25 49/5/25
f 49/5/25 40/5/25 44/5/25
f 49/5/25 42/13/25 50/14/25
f 50/14/25 42/13/25 51/15/25
f 51/15/25 42/13/25 52/16/25
f 40/5/25 49/5/25 53/5/25
f 40/5/25 53/5/25 54/5/25
f 40/5/25 54/5/25 55/5/25
f 52/16/25 42/13/25 24/9/25
f 52/16/25 24/9/25 56/17/25
f 56/17/25 24/9/25 57/18/25
f 57/18/25 24/9/25 26/11/25
f 57/18/25 26/11/25 58/19/25
f 40/5/25 55/5/25 38/5/25
f 38/5/25 55/5/25 59/5/25
f 38/5/25 59/5/25 60/5/25
f 38/5/25 60/5/25 7/5/25
f 7/5/25 60/5/25 61/5/25
f 58/19/25 26/11/25 46/9/25
f 58/19/25 46/9/25 62/18/25
f 62/18/25 46/9/25 63/17/25
f 7/5/25 61/5/25 8/5/25
f 8/5/25 61/5/25 64/5/25
f 8/5/25 64/5/25 65/5/25
f 63/17/25 46/9/25 30/13/25
f 63/17/25 30/13/25 66/16/25
f 66/16/25 30/13/25 67/15/25
f 8/5/25 65/5/25 28/5/25
f 28/5/25 65/5/25 68/5/25
f 28/5/25 68/5/25 69/5/25
f 67/15/25 30/13/25 3/3/25
f 28/5/25 69/5/25 21/5/25
f 67/15/25 3/3/25 70/14/25
f 21/5/25 69/5/25 71/5/25
f 70/14/25 3/3/25 72/5/25
f 21/5/25 71/5/25 72/5/25
f 21/5/25 72/5/25 3/3/25
f 21/5/25 3/3/25 1/1/25
f 21/5/25 1/1/25 22/5/25
f 22/5/25 1/1/25 36/6/25
f 22/5/25 36/6/25 48/5/25
f 48/5/25 36/6/25 35/5/25
f 32/5/16 12/5/6 11/5/6
f 12/5/6 32/5/16 31/5/16
f 9/5/5 44/5/22 43/5/22
f 44/5/22 9/5/5 10/5/5
f 22/5/11 47/5/24 20/5/11
f 47/5/24 22/5/11 48/5/24
f 29/12/15 46/9/23 45/8/23
f 46/9/23 29/12/15 30/13/15
f 75/22/25 74/21/25 73/20/25
f 76/23/25 74/21/25 75/22/25
f 76/23/25 77/24/25 74/21/25
f 78/25/25 77/24/25 76/23/25
f 79/20/25 77/24/25 78/25/25
f 79/20/25 80/26/25 77/24/25
f 78/25/25 81/27/25 79/20/25
f 78/25/25 82/28/25 81/27/25
f 83/29/25 80/26/25 79/20/25
f 84/30/25 80/26/25 83/29/25
f 85/24/25 80/26/25 84/30/25
f 85/24/25 86/31/25 80/26/25
f 87/32/25 86/31/25 85/24/25
f 88/33/25 82/28/25 78/25/25
f 88/33/25 89/23/25 82/28/25
f 88/33/25 90/34/25 89/23/25
f 87/32/25 91/35/25 86/31/25
f 92/36/25 91/35/25 87/32/25
f 93/26/25 91/35/25 92/36/25
f 93/26/25 94/37/25 91/35/25
f 95/36/25 94/37/25 93/26/25
f 96/38/25 90/34/25 88/33/25
f 96/38/25 97/39/25 90/34/25
f 96/38/25 5/25/25 97/39/25
f 98/5/25 5/25/25 96/38/25
f 98/5/25 99/39/25 5/25/25
f 95/36/25 100/35/25 94/37/25
f 101/32/25 100/35/25 95/36/25
f 102/24/25 100/35/25 101/32/25
f 103/38/25 99/39/25 98/5/25
f 103/38/25 104/34/25 99/39/25
f 103/38/25 105/23/25 104/34/25
f 102/24/25 106/31/25 100/35/25
f 107/30/25 106/31/25 102/24/25
f 108/29/25 106/31/25 107/30/25
f 109/33/25 105/23/25 103/38/25
f 109/33/25 110/28/25 105/23/25
f 109/33/25 111/27/25 110/28/25
f 108/29/25 112/26/25 106/31/25
f 113/25/25 111/27/25 109/33/25
f 113/25/25 114/20/25 111/27/25
f 112/26/25 108/29/25 114/20/25
f 113/25/25 112/26/25 114/20/25
f 115/23/25 112/26/25 113/25/25
f 115/23/25 116/24/25 112/26/25
f 117/22/25 116/24/25 115/23/25
f 117/22/25 118/21/25 116/24/25
f 118/21/25 117/22/25 119/20/25
f 120/40/26 71/40/27 69/40/26
f 71/40/27 120/40/26 121/40/27
f 54/40/29 122/40/28 55/40/28
f 122/40/28 54/40/29 123/40/29
f 125/41/31 72/40/30 124/40/30
f 72/40/30 125/41/31 70/42/31
f 126/40/32 69/40/26 68/40/32
f 69/40/26 126/40/32 120/40/26
f 128/45/34 67/44/33 127/43/33
f 67/44/33 128/45/34 66/46/34
f 130/40/36 61/40/35 129/40/35
f 61/40/35 130/40/36 64/40/36
f 52/46/37 132/47/38 131/45/37
f 132/47/38 52/46/37 56/48/38
f 62/50/39 134/47/40 133/49/39
f 134/47/40 62/50/39 63/48/40
f 58/52/41 133/49/39 135/51/41
f 133/49/39 58/52/41 62/50/39
f 57/50/42 135/51/41 136/49/42
f 135/51/41 57/50/42 58/52/41
f 49/40/43 138/41/44 137/40/43
f 138/41/44 49/40/43 50/42/44
f 51/44/45 131/45/37 139/43/45
f 131/45/37 51/44/45 52/46/37
f 129/40/35 60/40/46 140/40/46
f 60/40/46 129/40/35 61/40/35
f 126/40/32 65/40/47 141/40/47
f 65/40/47 126/40/32 68/40/32
f 53/40/48 123/40/29 54/40/29
f 123/40/29 53/40/48 142/40/48
f 138/41/25 142/40/25 137/40/25
f 142/40/25 138/41/25 139/43/25
f 142/40/25 139/43/25 123/40/25
f 123/40/25 139/43/25 122/40/25
f 122/40/25 139/43/25 131/45/25
f 122/40/25 131/45/25 132/47/25
f 122/40/25 132/47/25 143/40/25
f 143/40/25 132/47/25 136/49/25
f 143/40/25 136/49/25 140/40/25
f 140/40/25 136/49/25 135/51/25
f 140/40/25 135/51/25 129/40/25
f 129/40/25 135/51/25 133/49/25
f 129/40/25 133/49/25 130/40/25
f 130/40/25 133/49/25 141/40/25
f 141/40/25 133/49/25 134/47/25
f 141/40/25 134/47/25 126/40/25
f 126/40/25 134/47/25 128/45/25
f 126/40/25 128/45/25 127/43/25
f 126/40/25 127/43/25 120/40/25
f 120/40/25 127/43/25 125/41/25
f 120/40/25 125/41/25 121/40/25
f 121/40/25 125/41/25 124/40/25
f 140/40/46 59/40/49 143/40/49
f 59/40/49 140/40/46 60/40/46
f 127/43/33 70/42/31 125/41/31
f 70/42/31 127/43/33 67/44/33
f 50/42/44 139/43/45 138/41/44
f 139/43/45 50/42/44 51/44/45
f 143/40/49 55/40/28 122/40/28
f 55/40/28 143/40/49 59/40/49
f 63/48/40 128/45/34 134/47/40
f 128/45/34 63/48/40 66/46/34
f 56/48/38 136/49/42 132/47/38
f 136/49/42 56/48/38 57/50/42
f 49/40/43 142/40/48 53/40/48
f 142/40/48 49/40/43 137/40/43
f 141/40/47 64/40/36 130/40/36
f 64/40/36 141/40/47 65/40/47
f 121/40/27 72/40/30 71/40/27
f 72/40/30 121/40/27 124/40/30
f 146/54/25 145/53/25 144/53/25
f 145/53/25 146/54/25 147/55/25
f 145/53/25 147/55/25 148/53/25
f 148/53/25 147/55/25 149/56/25
f 148/53/25 149/56/25 150/53/25
f 150/53/25 151/53/25 148/53/25
f 150/53/25 149/56/25 152/57/25
f 151/53/25 150/53/25 153/53/25
f 152/57/25 149/56/25 154/58/25
f 151/53/25 153/53/25 115/53/25
f 154/58/25 149/56/25 155/59/25
f 154/58/25 155/59/25 156/60/25
f 156/60/25 155/59/25 157/61/25
f 157/61/25 155/59/25 158/62/25
f 157/61/25 158/62/25 159/63/25
f 151/53/25 115/53/25 160/53/25
f 160/53/25 115/53/25 161/53/25
f 160/53/25 161/53/25 162/53/25
f 160/53/25 162/53/25 163/53/25
f 163/53/25 162/53/25 103/53/25
f 159/63/25 158/62/25 164/64/25
f 159/63/25 164/64/25 94/65/25
f 94/65/25 164/64/25 165/63/25
f 165/63/25 164/64/25 166/62/25
f 165/63/25 166/62/25 167/61/25
f 167/61/25 166/62/25 168/59/25
f 167/61/25 168/59/25 169/60/25
f 163/53/25 103/53/25 170/53/25
f 170/53/25 103/53/25 98/53/25
f 170/53/25 98/53/25 171/53/25
f 170/53/25 171/53/25 172/53/25
f 172/53/25 171/53/25 173/53/25
f 172/53/25 173/53/25 174/53/25
f 174/53/25 173/53/25 175/53/25
f 169/60/25 168/59/25 176/56/25
f 169/60/25 176/56/25 177/58/25
f 177/58/25 176/56/25 178/57/25
f 174/53/25 175/53/25 179/53/25
f 179/53/25 175/53/25 180/53/25
f 179/53/25 180/53/25 181/53/25
f 178/57/25 176/56/25 182/55/25
f 179/53/25 181/53/25 183/53/25
f 178/57/25 182/55/25 184/53/25
f 183/53/25 181/53/25 184/53/25
f 183/53/25 184/53/25 182/55/25
f 183/53/25 182/55/25 185/54/25
f 183/53/25 185/54/25 186/53/25
f 186/53/25 185/54/25 187/53/25
f 190/67/51 189/66/50 188/66/50
f 189/66/50 190/67/51 191/67/51
f 193/53/53 145/53/52 192/53/52
f 145/53/52 193/53/53 144/53/53
f 194/68/54 144/53/53 193/53/53
f 144/53/53 194/68/54 146/54/54
f 190/67/51 195/69/55 191/67/51
f 195/69/55 190/67/51 196/69/55
f 199/53/57 198/53/56 197/53/56
f 198/53/56 199/53/57 200/53/57
f 202/53/59 151/53/58 201/53/58
f 151/53/58 202/53/59 148/53/59
f 203/69/60 176/56/61 168/59/60
f 176/56/61 203/69/60 204/67/61
f 188/66/50 194/68/62 205/68/62
f 194/68/62 188/66/50 189/66/50
f 183/53/63 207/53/64 206/53/63
f 207/53/64 183/53/63 186/53/64
f 210/66/66 209/68/65 208/68/65
f 209/68/65 210/66/66 211/66/66
f 194/68/54 147/55/67 146/54/54
f 147/55/67 194/68/54 189/66/67
f 197/53/56 212/53/68 201/53/68
f 212/53/68 197/53/56 198/53/56
f 207/53/70 213/53/69 206/53/69
f 213/53/69 207/53/70 214/53/70
f 215/70/71 168/59/60 166/62/71
f 168/59/60 215/70/71 203/69/60
f 170/53/73 199/53/72 163/53/72
f 199/53/72 170/53/73 216/53/73
f 182/55/75 208/68/74 185/54/74
f 208/68/74 182/55/75 210/66/75
f 172/53/76 216/53/73 170/53/73
f 216/53/73 172/53/76 217/53/76
f 205/68/62 193/53/77 218/53/77
f 193/53/77 205/68/62 194/68/62
f 192/53/52 148/53/59 202/53/59
f 148/53/59 192/53/52 145/53/52
f 217/53/79 219/53/78 216/53/78
f 219/53/78 217/53/79 220/53/79
f 195/69/80 158/62/81 155/59/80
f 158/62/81 195/69/80 221/70/81
f 222/71/82 166/62/71 164/64/82
f 166/62/71 222/71/82 215/70/71
f 160/53/83 201/53/58 151/53/58
f 201/53/58 160/53/83 197/53/83
f 185/54/74 223/53/84 187/53/84
f 223/53/84 185/54/74 208/68/74
f 196/69/55 221/70/85 195/69/55
f 221/70/85 196/69/55 224/70/85
f 179/53/86 206/53/63 225/53/86
f 206/53/63 179/53/86 183/53/63
f 208/68/65 226/53/87 223/53/87
f 226/53/87 208/68/65 209/68/65
f 227/70/88 203/69/89 215/70/88
f 203/69/89 227/70/88 228/69/89
f 229/53/90 220/53/79 217/53/79
f 220/53/79 229/53/90 230/53/90
f 218/53/77 192/53/91 231/53/91
f 192/53/91 218/53/77 193/53/77
f 204/67/92 211/66/66 210/66/66
f 211/66/66 204/67/92 232/67/92
f 228/69/89 204/67/92 203/69/89
f 204/67/92 228/69/89 232/67/92
f 186/53/64 223/53/84 207/53/64
f 223/53/84 186/53/64 187/53/84
f 216/53/78 200/53/57 199/53/57
f 200/53/57 216/53/78 219/53/78
f 233/53/93 201/53/68 212/53/68
f 201/53/68 233/53/93 202/53/93
f 231/53/91 202/53/93 233/53/93
f 202/53/93 231/53/91 192/53/91
f 179/53/86 229/53/94 174/53/94
f 229/53/94 179/53/86 225/53/86
f 221/70/81 164/64/82 158/62/81
f 164/64/82 221/70/81 222/71/82
f 174/53/94 217/53/76 172/53/76
f 217/53/76 174/53/94 229/53/94
f 225/53/95 230/53/90 229/53/90
f 230/53/90 225/53/95 234/53/95
f 235/71/96 215/70/88 222/71/96
f 215/70/88 235/71/96 227/70/88
f 189/66/67 149/56/97 147/55/67
f 149/56/97 189/66/67 191/67/97
f 163/53/72 197/53/83 160/53/83
f 197/53/83 163/53/72 199/53/72
f 223/53/87 214/53/70 207/53/70
f 214/53/70 223/53/87 226/53/87
f 176/56/61 210/66/75 182/55/75
f 210/66/75 176/56/61 204/67/61
f 224/70/85 222/71/96 221/70/85
f 222/71/96 224/70/85 235/71/96
f 206/53/69 234/53/95 225/53/95
f 234/53/95 206/53/69 213/53/69
f 191/67/97 155/59/80 149/56/97
f 155/59/80 191/67/97 195/69/80
f 238/53/98 237/54/98 236/53/98
f 237/54/98 238/53/98 239/55/98
f 239/55/98 238/53/98 240/53/98
f 239/55/98 240/53/98 241/53/98
f 239/55/98 241/53/98 242/56/98
f 242/56/98 241/53/98 243/53/98
f 242/56/98 243/53/98 244/59/98
f 244/59/98 243/53/98 245/53/98
f 244/59/98 245/53/98 246/62/98
f 246/62/98 245/53/98 247/53/98
f 246/62/98 247/53/98 248/64/98
f 248/64/98 247/53/98 249/53/98
f 248/64/98 249/53/98 250/62/98
f 250/62/98 249/53/98 251/53/98
f 250/62/98 251/53/98 252/59/98
f 252/59/98 251/53/98 253/53/98
f 252/59/98 253/53/98 254/56/98
f 254/56/98 253/53/98 255/53/98
f 254/56/98 255/53/98 256/55/98
f 256/55/98 255/53/98 257/53/98
f 256/55/98 257/53/98 258/54/98
f 258/54/98 257/53/98 259/53/98
f 234/53/100 251/53/99 230/53/99
f 251/53/99 234/53/100 253/53/100
f 213/53/101 253/53/100 234/53/100
f 253/53/100 213/53/101 255/53/101
f 214/53/102 255/53/101 213/53/101
f 255/53/101 214/53/102 257/53/102
f 237/54/104 218/53/103 236/53/103
f 218/53/103 237/54/104 205/68/104
f 198/53/106 241/53/105 212/53/105
f 241/53/105 198/53/106 243/53/106
f 200/53/107 243/53/106 198/53/106
f 243/53/106 200/53/107 245/53/107
f 241/53/105 233/53/108 212/53/105
f 233/53/108 241/53/105 240/53/108
f 219/53/109 245/53/107 200/53/107
f 245/53/107 219/53/109 247/53/109
f 240/53/108 231/53/110 233/53/108
f 231/53/110 240/53/108 238/53/110
f 238/53/110 218/53/103 231/53/110
f 218/53/103 238/53/110 236/53/103
f 220/53/111 247/53/109 219/53/109
f 247/53/109 220/53/111 249/53/111
f 230/53/99 249/53/111 220/53/111
f 249/53/111 230/53/99 251/53/99
f 226/53/112 257/53/102 214/53/102
f 257/53/102 226/53/112 259/53/112
f 252/59/113 232/67/114 228/69/113
f 232/67/114 252/59/113 254/56/114
f 209/68/115 259/53/112 226/53/112
f 259/53/112 209/68/115 258/54/115
f 248/64/116 227/70/117 235/71/116
f 227/70/117 248/64/116 250/62/117
f 242/56/119 188/66/118 239/55/118
f 188/66/118 242/56/119 190/67/119
f 246/62/120 235/71/116 224/70/120
f 235/71/116 246/62/120 248/64/116
f 239/55/118 205/68/104 237/54/104
f 205/68/104 239/55/118 188/66/118
f 209/68/115 256/55/121 258/54/115
f 256/55/121 209/68/115 211/66/121
f 244/59/122 224/70/120 196/69/122
f 224/70/120 244/59/122 246/62/120
f 211/66/121 254/56/114 256/55/121
f 254/56/114 211/66/121 232/67/114
f 250/62/117 228/69/113 227/70/117
f 228/69/113 250/62/117 252/59/113
f 242/56/119 196/69/122 190/67/119
f 196/69/122 242/56/119 244/59/122
g wheel-tractor-back
usemtl colormap
f 3/3/2 2/2/1 1/1/1
f 2/2/1 3/3/2 4/4/2
f 7/5/3 6/5/4 5/5/3
f 6/5/4 7/5/3 8/5/4
f 11/5/6 10/5/5 9/5/5
f 10/5/5 11/5/6 12/5/6
f 15/2/7 14/3/8 13/1/7
f 14/3/8 15/2/7 16/4/8
f 18/7/9 13/1/7 17/6/9
f 13/1/7 18/7/9 15/2/7
f 21/5/10 20/5/11 19/5/10
f 20/5/11 21/5/10 22/5/11
f 25/10/13 24/9/12 23/8/12
f 24/9/12 25/10/13 26/11/13
f 8/5/4 27/5/14 6/5/4
f 27/5/14 8/5/4 28/5/14
f 4/4/2 30/13/15 29/12/15
f 30/13/15 4/4/2 3/3/2
f 32/5/16 17/6/9 31/5/16
f 17/6/9 32/5/16 18/7/9
f 35/5/17 34/7/18 33/5/17
f 34/7/18 35/5/17 36/6/18
f 38/5/19 5/5/3 37/5/19
f 5/5/3 38/5/19 7/5/3
f 40/5/20 37/5/19 39/5/20
f 37/5/19 40/5/20 38/5/19
f 41/12/21 14/3/8 16/4/8
f 14/3/8 41/12/21 42/13/21
f 44/5/22 39/5/20 43/5/22
f 39/5/20 44/5/22 40/5/20
f 28/5/14 19/5/10 27/5/14
f 19/5/10 28/5/14 21/5/10
f 23/8/12 42/13/21 41/12/21
f 42/13/21 23/8/12 24/9/12
f 45/8/23 26/11/13 25/10/13
f 26/11/13 45/8/23 46/9/23
f 1/1/1 34/7/18 36/6/18
f 34/7/18 1/1/1 2/2/1
f 48/5/24 33/5/17 47/5/24
f 33/5/17 48/5/24 35/5/17
f 17/6/25 12/5/25 31/5/25
f 12/5/25 17/6/25 13/1/25
f 12/5/25 13/1/25 10/5/25
f 10/5/25 13/1/25 14/3/25
f 10/5/25 14/3/25 44/5/25
f 44/5/25 14/3/25 42/13/25
f 44/5/25 42/13/25 49/5/25
f 49/5/25 40/5/25 44/5/25
f 49/5/25 42/13/25 50/14/25
f 50/14/25 42/13/25 51/15/25
f 51/15/25 42/13/25 52/16/25
f 40/5/25 49/5/25 53/5/25
f 40/5/25 53/5/25 54/5/25
f 40/5/25 54/5/25 55/5/25
f 52/16/25 42/13/25 24/9/25
f 52/16/25 24/9/25 56/17/25
f 56/17/25 24/9/25 57/18/25
f 57/18/25 24/9/25 26/11/25
f 57/18/25 26/11/25 58/19/25
f 40/5/25 55/5/25 38/5/25
f 38/5/25 55/5/25 59/5/25
f 38/5/25 59/5/25 60/5/25
f 38/5/25 60/5/25 7/5/25
f 7/5/25 60/5/25 61/5/25
f 58/19/25 26/11/25 46/9/25
f 58/19/25 46/9/25 62/18/25
f 62/18/25 46/9/25 63/17/25
f 7/5/25 61/5/25 8/5/25
f 8/5/25 61/5/25 64/5/25
f 8/5/25 64/5/25 65/5/25
f 63/17/25 46/9/25 30/13/25
f 63/17/25 30/13/25 66/16/25
f 66/16/25 30/13/25 67/15/25
f 8/5/25 65/5/25 28/5/25
f 28/5/25 65/5/25 68/5/25
f 28/5/25 68/5/25 69/5/25
f 67/15/25 30/13/25 3/3/25
f 28/5/25 69/5/25 21/5/25
f 67/15/25 3/3/25 70/14/25
f 21/5/25 69/5/25 71/5/25
f 70/14/25 3/3/25 72/5/25
f 21/5/25 71/5/25 72/5/25
f 21/5/25 72/5/25 3/3/25
f 21/5/25 3/3/25 1/1/25
f 21/5/25 1/1/25 22/5/25
f 22/5/25 1/1/25 36/6/25
f 22/5/25 36/6/25 48/5/25
f 48/5/25 36/6/25 35/5/25
f 32/5/16 12/5/6 11/5/6
f 12/5/6 32/5/16 31/5/16
f 9/5/5 44/5/22 43/5/22
f 44/5/22 9/5/5 10/5/5
f 22/5/11 47/5/24 20/5/11
f 47/5/24 22/5/11 48/5/24
f 29/12/15 46/9/23 45/8/23
f 46/9/23 29/12/15 30/13/15
f 75/22/25 74/21/25 73/20/25
f 76/23/25 74/21/25 75/22/25
f 76/23/25 77/24/25 74/21/25
f 78/25/25 77/24/25 76/23/25
f 79/20/25 77/24/25 78/25/25
f 79/20/25 80/26/25 77/24/25
f 78/25/25 81/27/25 79/20/25
f 78/25/25 82/28/25 81/27/25
f 83/29/25 80/26/25 79/20/25
f 84/30/25 80/26/25 83/29/25
f 85/24/25 80/26/25 84/30/25
f 85/24/25 86/31/25 80/26/25
f 87/32/25 86/31/25 85/24/25
f 88/33/25 82/28/25 78/25/25
f 88/33/25 89/23/25 82/28/25
f 88/33/25 90/34/25 89/23/25
f 87/32/25 91/35/25 86/31/25
f 92/36/25 91/35/25 87/32/25
f 93/26/25 91/35/25 92/36/25
f 93/26/25 94/37/25 91/35/25
f 95/36/25 94/37/25 93/26/25
f 96/38/25 90/34/25 88/33/25
f 96/38/25 97/39/25 90/34/25
f 96/38/25 5/25/25 97/39/25
f 98/5/25 5/25/25 96/38/25
f 98/5/25 99/39/25 5/25/25
f 95/36/25 100/35/25 94/37/25
f 101/32/25 100/35/25 95/36/25
f 102/24/25 100/35/25 101/32/25
f 103/38/25 99/39/25 98/5/25
f 103/38/25 104/34/25 99/39/25
f 103/38/25 105/23/25 104/34/25
f 102/24/25 106/31/25 100/35/25
f 107/30/25 106/31/25 102/24/25
f 108/29/25 106/31/25 107/30/25
f 109/33/25 105/23/25 103/38/25
f 109/33/25 110/28/25 105/23/25
f 109/33/25 111/27/25 110/28/25
f 108/29/25 112/26/25 106/31/25
f 113/25/25 111/27/25 109/33/25
f 113/25/25 114/20/25 111/27/25
f 112/26/25 108/29/25 114/20/25
f 113/25/25 112/26/25 114/20/25
f 115/23/25 112/26/25 113/25/25
f 115/23/25 116/24/25 112/26/25
f 117/22/25 116/24/25 115/23/25
f 117/22/25 118/21/25 116/24/25
f 118/21/25 117/22/25 119/20/25
f 120/40/26 71/40/27 69/40/26
f 71/40/27 120/40/26 121/40/27
f 54/40/29 122/40/28 55/40/28
f 122/40/28 54/40/29 123/40/29
f 125/41/31 72/40/30 124/40/30
f 72/40/30 125/41/31 70/42/31
f 126/40/32 69/40/26 68/40/32
f 69/40/26 126/40/32 120/40/26
f 128/45/34 67/44/33 127/43/33
f 67/44/33 128/45/34 66/46/34
f 130/40/36 61/40/35 129/40/35
f 61/40/35 130/40/36 64/40/36
f 52/46/37 132/47/38 131/45/37
f 132/47/38 52/46/37 56/48/38
f 62/50/39 134/47/40 133/49/39
f 134/47/40 62/50/39 63/48/40
f 58/52/41 133/49/39 135/51/41
f 133/49/39 58/52/41 62/50/39
f 57/50/42 135/51/41 136/49/42
f 135/51/41 57/50/42 58/52/41
f 49/40/43 138/41/44 137/40/43
f 138/41/44 49/40/43 50/42/44
f 51/44/45 131/45/37 139/43/45
f 131/45/37 51/44/45 52/46/37
f 129/40/35 60/40/46 140/40/46
f 60/40/46 129/40/35 61/40/35
f 126/40/32 65/40/47 141/40/47
f 65/40/47 126/40/32 68/40/32
f 53/40/48 123/40/29 54/40/29
f 123/40/29 53/40/48 142/40/48
f 138/41/25 142/40/25 137/40/25
f 142/40/25 138/41/25 139/43/25
f 142/40/25 139/43/25 123/40/25
f 123/40/25 139/43/25 122/40/25
f 122/40/25 139/43/25 131/45/25
f 122/40/25 131/45/25 132/47/25
f 122/40/25 132/47/25 143/40/25
f 143/40/25 132/47/25 136/49/25
f 143/40/25 136/49/25 140/40/25
f 140/40/25 136/49/25 135/51/25
f 140/40/25 135/51/25 129/40/25
f 129/40/25 135/51/25 133/49/25
f 129/40/25 133/49/25 130/40/25
f 130/40/25 133/49/25 141/40/25
f 141/40/25 133/49/25 134/47/25
f 141/40/25 134/47/25 126/40/25
f 126/40/25 134/47/25 128/45/25
f 126/40/25 128/45/25 127/43/25
f 126/40/25 127/43/25 120/40/25
f 120/40/25 127/43/25 125/41/25
f 120/40/25 125/41/25 121/40/25
f 121/40/25 125/41/25 124/40/25
f 140/40/46 59/40/49 143/40/49
f 59/40/49 140/40/46 60/40/46
f 127/43/33 70/42/31 125/41/31
f 70/42/31 127/43/33 67/44/33
f 50/42/44 139/43/45 138/41/44
f 139/43/45 50/42/44 51/44/45
f 143/40/49 55/40/28 122/40/28
f 55/40/28 143/40/49 59/40/49
f 63/48/40 128/45/34 134/47/40
f 128/45/34 63/48/40 66/46/34
f 56/48/38 136/49/42 132/47/38
f 136/49/42 56/48/38 57/50/42
f 49/40/43 142/40/48 53/40/48
f 142/40/48 49/40/43 137/40/43
f 141/40/47 64/40/36 130/40/36
f 64/40/36 141/40/47 65/40/47
f 121/40/27 72/40/30 71/40/27
f 72/40/30 121/40/27 124/40/30
f 146/54/25 145/53/25 144/53/25
f 145/53/25 146/54/25 147/55/25
f 145/53/25 147/55/25 148/53/25
f 148/53/25 147/55/25 149/56/25
f 148/53/25 149/56/25 150/53/25
f 150/53/25 151/53/25 148/53/25
f 150/53/25 149/56/25 152/57/25
f 151/53/25 150/53/25 153/53/25
f 152/57/25 149/56/25 154/58/25
f 151/53/25 153/53/25 115/53/25
f 154/58/25 149/56/25 155/59/25
f 154/58/25 155/59/25 156/60/25
f 156/60/25 155/59/25 157/61/25
f 157/61/25 155/59/25 158/62/25
f 157/61/25 158/62/25 159/63/25
f 151/53/25 115/53/25 160/53/25
f 160/53/25 115/53/25 161/53/25
f 160/53/25 161/53/25 162/53/25
f 160/53/25 162/53/25 163/53/25
f 163/53/25 162/53/25 103/53/25
f 159/63/25 158/62/25 164/64/25
f 159/63/25 164/64/25 94/65/25
f 94/65/25 164/64/25 165/63/25
f 165/63/25 164/64/25 166/62/25
f 165/63/25 166/62/25 167/61/25
f 167/61/25 166/62/25 168/59/25
f 167/61/25 168/59/25 169/60/25
f 163/53/25 103/53/25 170/53/25
f 170/53/25 103/53/25 98/53/25
f 170/53/25 98/53/25 171/53/25
f 170/53/25 171/53/25 172/53/25
f 172/53/25 171/53/25 173/53/25
f 172/53/25 173/53/25 174/53/25
f 174/53/25 173/53/25 175/53/25
f 169/60/25 168/59/25 176/56/25
f 169/60/25 176/56/25 177/58/25
f 177/58/25 176/56/25 178/57/25
f 174/53/25 175/53/25 179/53/25
f 179/53/25 175/53/25 180/53/25
f 179/53/25 180/53/25 181/53/25
f 178/57/25 176/56/25 182/55/25
f 179/53/25 181/53/25 183/53/25
f 178/57/25 182/55/25 184/53/25
f 183/53/25 181/53/25 184/53/25
f 183/53/25 184/53/25 182/55/25
f 183/53/25 182/55/25 185/54/25
f 183/53/25 185/54/25 186/53/25
f 186/53/25 185/54/25 187/53/25
f 190/67/51 189/66/50 188/66/50
f 189/66/50 190/67/51 191/67/51
f 193/53/53 145/53/52 192/53/52
f 145/53/52 193/53/53 144/53/53
f 194/68/54 144/53/53 193/53/53
f 144/53/53 194/68/54 146/54/54
f 190/67/51 195/69/55 191/67/51
f 195/69/55 190/67/51 196/69/55
f 199/53/57 198/53/56 197/53/56
f 198/53/56 199/53/57 200/53/57
f 202/53/59 151/53/58 201/53/58
f 151/53/58 202/53/59 148/53/59
f 203/69/60 176/56/61 168/59/60
f 176/56/61 203/69/60 204/67/61
f 188/66/50 194/68/62 205/68/62
f 194/68/62 188/66/50 189/66/50
f 183/53/63 207/53/64 206/53/63
f 207/53/64 183/53/63 186/53/64
f 210/66/66 209/68/65 208/68/65
f 209/68/65 210/66/66 211/66/66
f 194/68/54 147/55/67 146/54/54
f 147/55/67 194/68/54 189/66/67
f 197/53/56 212/53/68 201/53/68
f 212/53/68 197/53/56 198/53/56
f 207/53/70 213/53/69 206/53/69
f 213/53/69 207/53/70 214/53/70
f 215/70/71 168/59/60 166/62/71
f 168/59/60 215/70/71 203/69/60
f 170/53/73 199/53/72 163/53/72
f 199/53/72 170/53/73 216/53/73
f 182/55/75 208/68/74 185/54/74
f 208/68/74 182/55/75 210/66/75
f 172/53/76 216/53/73 170/53/73
f 216/53/73 172/53/76 217/53/76
f 205/68/62 193/53/77 218/53/77
f 193/53/77 205/68/62 194/68/62
f 192/53/52 148/53/59 202/53/59
f 148/53/59 192/53/52 145/53/52
f 217/53/79 219/53/78 216/53/78
f 219/53/78 217/53/79 220/53/79
f 195/69/80 158/62/81 155/59/80
f 158/62/81 195/69/80 221/70/81
f 222/71/82 166/62/71 164/64/82
f 166/62/71 222/71/82 215/70/71
f 160/53/83 201/53/58 151/53/58
f 201/53/58 160/53/83 197/53/83
f 185/54/74 223/53/84 187/53/84
f 223/53/84 185/54/74 208/68/74
f 196/69/55 221/70/85 195/69/55
f 221/70/85 196/69/55 224/70/85
f 179/53/86 206/53/63 225/53/86
f 206/53/63 179/53/86 183/53/63
f 208/68/65 226/53/87 223/53/87
f 226/53/87 208/68/65 209/68/65
f 227/70/88 203/69/89 215/70/88
f 203/69/89 227/70/88 228/69/89
f 229/53/90 220/53/79 217/53/79
f 220/53/79 229/53/90 230/53/90
f 218/53/77 192/53/91 231/53/91
f 192/53/91 218/53/77 193/53/77
f 204/67/92 211/66/66 210/66/66
f 211/66/66 204/67/92 232/67/92
f 228/69/89 204/67/92 203/69/89
f 204/67/92 228/69/89 232/67/92
f 186/53/64 223/53/84 207/53/64
f 223/53/84 186/53/64 187/53/84
f 216/53/78 200/53/57 199/53/57
f 200/53/57 216/53/78 219/53/78
f 233/53/93 201/53/68 212/53/68
f 201/53/68 233/53/93 202/53/93
f 231/53/91 202/53/93 233/53/93
f 202/53/93 231/53/91 192/53/91
f 179/53/86 229/53/94 174/53/94
f 229/53/94 179/53/86 225/53/86
f 221/70/81 164/64/82 158/62/81
f 164/64/82 221/70/81 222/71/82
f 174/53/94 217/53/76 172/53/76
f 217/53/76 174/53/94 229/53/94
f 225/53/95 230/53/90 229/53/90
f 230/53/90 225/53/95 234/53/95
f 235/71/96 215/70/88 222/71/96
f 215/70/88 235/71/96 227/70/88
f 189/66/67 149/56/97 147/55/67
f 149/56/97 189/66/67 191/67/97
f 163/53/72 197/53/83 160/53/83
f 197/53/83 163/53/72 199/53/72
f 223/53/87 214/53/70 207/53/70
f 214/53/70 223/53/87 226/53/87
f 176/56/61 210/66/75 182/55/75
f 210/66/75 176/56/61 204/67/61
f 224/70/85 222/71/96 221/70/85
f 222/71/96 224/70/85 235/71/96
f 206/53/69 234/53/95 225/53/95
f 234/53/95 206/53/69 213/53/69
f 191/67/97 155/59/80 149/56/97
f 155/59/80 191/67/97 195/69/80
f 238/53/98 237/54/98 236/53/98
f 237/54/98 238/53/98 239/55/98
f 239/55/98 238/53/98 240/53/98
f 239/55/98 240/53/98 241/53/98
f 239/55/98 241/53/98 242/56/98
f 242/56/98 241/53/98 243/53/98
f 242/56/98 243/53/98 244/59/98
f 244/59/98 243/53/98 245/53/98
f 244/59/98 245/53/98 246/62/98
f 246/62/98 245/53/98 247/53/98
f 246/62/98 247/53/98 248/64/98
f 248/64/98 247/53/98 249/53/98
f 248/64/98 249/53/98 250/62/98
f 250/62/98 249/53/98 251/53/98
f 250/62/98 251/53/98 252/59/98
f 252/59/98 251/53/98 253/53/98
f 252/59/98 253/53/98 254/56/98
f 254/56/98 253/53/98 255/53/98
f 254/56/98 255/53/98 256/55/98
f 256/55/98 255/53/98 257/53/98
f 256/55/98 257/53/98 258/54/98
f 258/54/98 257/53/98 259/53/98
f 234/53/100 251/53/99 230/53/99
f 251/53/99 234/53/100 253/53/100
f 213/53/101 253/53/100 234/53/100
f 253/53/100 213/53/101 255/53/101
f 214/53/102 255/53/101 213/53/101
f 255/53/101 214/53/102 257/53/102
f 237/54/104 218/53/103 236/53/103
f 218/53/103 237/54/104 205/68/104
f 198/53/106 241/53/105 212/53/105
f 241/53/105 198/53/106 243/53/106
f 200/53/107 243/53/106 198/53/106
f 243/53/106 200/53/107 245/53/107
f 241/53/105 233/53/108 212/53/105
f 233/53/108 241/53/105 240/53/108
f 219/53/109 245/53/107 200/53/107
f 245/53/107 219/53/109 247/53/109
f 240/53/108 231/53/110 233/53/108
f 231/53/110 240/53/108 238/53/110
f 238/53/110 218/53/103 231/53/110
f 218/53/103 238/53/110 236/53/103
f 220/53/111 247/53/109 219/53/109
f 247/53/109 220/53/111 249/53/111
f 230/53/99 249/53/111 220/53/111
f 249/53/111 230/53/99 251/53/99
f 226/53/112 257/53/102 214/53/102
f 257/53/102 226/53/112 259/53/112
f 252/59/113 232/67/114 228/69/113
f 232/67/114 252/59/113 254/56/114
f 209/68/115 259/53/112 226/53/112
f 259/53/112 209/68/115 258/54/115
f 248/64/116 227/70/117 235/71/116
f 227/70/117 248/64/116 250/62/117
f 242/56/119 188/66/118 239/55/118
f 188/66/118 242/56/119 190/67/119
f 246/62/120 235/71/116 224/70/120
f 235/71/116 246/62/120 248/64/116
f 239/55/118 205/68/104 237/54/104
f 205/68/104 239/55/118 188/66/118
f 209/68/115 256/55/121 258/54/115
f 256/55/121 209/68/115 211/66/121
f 244/59/122 224/70/120 196/69/122
f 224/70/120 244/59/122 246/62/120
f 211/66/121 254/56/114 256/55/121
f 254/56/114 211/66/121 232/67/114
f 250/62/117 228/69/113 227/70/117
f 228/69/113 250/62/117 252/59/113
f 242/56/119 196/69/122 190/67/119
f 196/69/122 242/56/119 244/59/122
