mtllib works_machine-bed.mtl
g machine-bed
v 0.5 3.3669e-13 1.5
v 0.45 -2.3824e-10 1.5
v 0.5 1.9329e-10 1.6
v 0.45 1.933e-10 1.6
v 0.45 1.0955 1.5
v 1 1.1505 1.5
v 0.45 1.0955 1.6
v 1 1.1505 1.6
v 0.5 1 1.5
v 0.5 1 1.6
v 1 1.05 1.5
v 1 1.05 1.6
v 1.5 1 1.5
v 1.5 1 1.6
v 1.5 1.6737e-13 1.5
v 1.5 1.9312e-10 1.6
v 1.55 3.4487e-10 1.5
v 1.55 1.9311e-10 1.6
v 1.55 1.0955 1.5
v 1.55 1.0955 1.6
v 1.6 1.0402 1.5
v 1.6 1.0402 1.6
v 0.4 1.0402 1.5
v 0.4 1.0402 1.6
v 0.25876 0.96754 0.74124
v 0.26461 0.99189 0.73539
v 0.070925 0.96754 0.61573
v 0.0023982 0.96754 0.56995
v 0.0055641 0.99189 0.5623
v 0.075433 0.99189 0.60899
v -0.25155 0.99189 -0.49189
v -0.5 0.99189 -0.49189
v -0.2549 1.0032 -0.45791
v -0.5 1.0032 -0.45791
v 0.018821 1.0032 0.5303
v -0.3451 1.0032 0.45791
v -0.34845 0.99189 0.49189
v 0.2891 1.0032 0.7109
v 0.094309 1.0032 0.58074
v 1.3324 1.0032 0.62384
v 1.1807 1.0032 0.39689
v 0.90104 1.049 0.80251
v 0.94937 1.0032 0.050626
v 0.8 1.049 0.65129
v 0.61924 1.049 0.38076
v 0.97972 0.96754 0.020281
v 0.6265 0.96754 -0.21573
v 0.97387 0.99189 0.026131
v 0.39258 0.96754 -0.37203
v 0.38941 0.99189 -0.36439
v 0.62199 0.99189 -0.20899
v 0.39101 0.99189 0.92457
v 0.38427 0.96754 0.92907
v 0.4377 0.99189 0.99444
v 0.43005 0.96754 0.9976
v 0.37616 1.0032 -0.33239
v 0.19749 1.049 0.098957
v -0.3 1.049 0
v -0.5 1.049 0
v 0.60311 1.0032 -0.18074
v 0.34871 1.049 0.2
v 0.4697 1.0032 0.98118
v 0.41926 1.0032 0.90569
v 1.2157 0.96754 0.3735
v 1.209 0.99189 0.37801
v 1.372 0.96754 0.60742
v 1.3644 0.99189 0.61059
v -0.5 1.0032 0.45791
v -0.5 0.99189 0.49189
v 0.97972 0.25 0.020281
v 1.372 0.25 0.60742
v 1.4919 0.99189 1.5
v 1.4919 0.99189 1.2516
v 1.4579 1.0032 1.5
v 1.4579 1.0032 1.2549
v 1 1.049 1.3
v 0.54209 1.0032 1.5
v 0.54209 1.0032 1.3451
v 0.50811 0.99189 1.5
v 0.50811 0.99189 1.3484
v 1.5 0.96754 1.2508
v 1.5 0.96754 1.5
v 0.5 0.96754 1.3492
v 0.5 0.96754 1.5
v 1 1.049 1.5
v -0.5 0.96754 -0.5
v -0.25075 0.96754 -0.5
v -0.5 0.96754 0.5
v -0.34925 0.96754 0.5
v -0.34925 0.25 0.5
v -0.5 0.25 0.5
v 0.25876 0.25 0.74124
v 0.43005 0.25 0.9976
v -0.25075 0.25 -0.5
v 0.39258 0.25 -0.37203
v 1.5 0.25 1.2508
v -0.5 0.25 -0.5
v 0.0023982 0.25 0.56995
v 1.5 0.25 1.5
v 0.5 0.25 1.3492
v 0.5 0.25 1.5
v -0.5 3.394e-13 -0.5
v -0.5 -2.3824e-10 -0.55
v -0.6 1.9329e-10 -0.5
v -0.6 1.933e-10 -0.55
v -0.5 1.0955 -0.55
v -0.5 1.1505 -4.3316e-15
v -0.6 1.0955 -0.55
v -0.6 1.1505 -5.7142e-11
v -0.5 1 -0.5
v -0.6 1 -0.5
v -0.5 1.05 -1.4433e-15
v -0.6 1.05 -5.7142e-11
v -0.5 1 0.5
v -0.6 1 0.5
v -0.5 1.7008e-13 0.5
v -0.6 1.9312e-10 0.5
v -0.5 3.4488e-10 0.55
v -0.6 1.9312e-10 0.55
v -0.5 1.0955 0.55
v -0.6 1.0955 0.55
v -0.5 1.0402 0.6
v -0.6 1.0402 0.6
v -0.5 1.0402 -0.6
v -0.6 1.0402 -0.6
v -0.46464 0.76036 -0.5
v -0.45 0.725 -0.5
v -0.46464 0.76036 0.5
v -0.45 0.725 0.5
v -0.5 0.775 0.5
v -0.5 0.775 -0.5
v -0.53536 0.76036 0.5
v -0.53536 0.76036 -0.5
v -0.55 0.725 -0.5
v -0.55 0.725 0.5
v -0.53536 0.68964 -0.5
v -0.53536 0.68964 0.5
v -0.5 0.675 0.5
v -0.5 0.675 -0.5
v -0.46464 0.68964 0.5
v -0.46464 0.68964 -0.5
v 0.5 0.76036 1.4646
v 0.5 0.725 1.45
v 1.5 0.76036 1.4646
v 1.5 0.725 1.45
v 1.5 0.775 1.5
v 0.5 0.775 1.5
v 1.5 0.76036 1.5354
v 0.5 0.76036 1.5354
v 0.5 0.725 1.55
v 1.5 0.725 1.55
v 0.5 0.68964 1.5354
v 1.5 0.68964 1.5354
v 1.5 0.675 1.5
v 0.5 0.675 1.5
v 1.5 0.68964 1.4646
v 0.5 0.68964 1.4646
v -0.5 1.0176 -0.5
v -0.5 1.05 -1.4438e-15
v -0.5 1.0176 0.5
v 0.5 1.0176 1.5
v 1.5 0.775 1.5
v 1.5 1.0176 1.5
v 0.39258 -2.3821e-10 -0.37203
v 0.39258 0.25 -0.37203
v 0.97972 -2.3821e-10 0.020281
v 0.97972 0.25 0.020281
v -0.25075 -2.3822e-10 -0.5
v -0.25075 0.25 -0.5
v 1.372 -2.3821e-10 0.60742
v 1.372 0.25 0.60742
v 1.5 -2.3821e-10 1.2508
v 1.5 0.25 1.2508
v 1.5 -2.3821e-10 1.5
v -0.5 -2.3822e-10 -0.5
v -0.5 0.25 -0.5
v -0.34925 3.3526e-13 0.5
v 0.0023982 3.3772e-13 0.56995
v 0.0023982 0.25 0.56995
v 0.25876 0.25 0.74124
v 0.25876 3.3889e-13 0.74124
v 0.43005 0.25 0.9976
v 0.43005 3.3889e-13 0.9976
v -0.5 3.3404e-13 0.5
v 0.5 3.3751e-13 1.3492
v 0.5 3.3668e-13 1.5
v -0.5 0.25 -0.7
v -0.5 1 -0.7
v -0.5 1.15 -0.65
v -0.5 1.2 -0.5
v -0.5 1.25 0
v -0.5 1.2 0.5
v -0.5 1.15 0.65
v -0.5 0.25 0.7
v -0.5 1 0.7
v 1.7 0.25 1.5
v 1.7 1 1.5
v 1.65 1.15 1.5
v 0.35 1.15 1.5
v 0.5 1.2 1.5
v 1.5 1.2 1.5
v 1 1.25 1.5
v 0.3 1 1.5
v 0.3 0.25 1.5
v 1 1.25 1.3
v 0.5 1.2 1.3492
v 1.7 1 1.2311
v 1.65 1.15 1.236
v 1.5 1.2 1.2508
v 0.3 1 1.3689
v 0.3 0.25 1.3689
v 1.372 1.2 0.60742
v 0.90104 1.25 0.80251
v 0.35 1.15 1.364
v 0.28876 1.15 1.0561
v 0.24166 1 1.0756
v 0.24166 0.25 1.0756
v 1.5133 1.15 0.54889
v 1.5604 1 0.52939
v 0.43005 1.2 0.9976
v 1.5604 0.25 0.52939
v 1.7 0.25 1.2311
v 0.19749 1.25 0.098957
v 0.0023982 1.2 0.56995
v -0.3 1.25 0
v -0.34925 1.2 0.5
v -0.36894 1 0.7
v -0.36402 1.15 0.65
v -0.23106 1 -0.7
v -0.23598 1.15 -0.65
v -0.075638 1 0.75834
v -0.056129 1.15 0.71124
v 0.45111 1.15 -0.51333
v 0.39258 1.2 -0.37203
v -0.25075 1.2 -0.5
v -0.23106 0.25 -0.7
v 0.47061 1 -0.56043
v 1.3405 1.15 0.29017
v 1.2157 1.2 0.3735
v 1.0879 1.15 -0.087863
v 0.97972 1.2 0.020281
v 0.70983 1.15 -0.34046
v 0.6265 1.2 -0.21573
v 0.61924 1.25 0.38076
v 0.25876 1.2 0.74124
v 0.34871 1.25 0.2
v 0.070925 1.2 0.61573
v -0.075638 0.25 0.75834
v -0.36894 0.25 0.7
v 1.1239 1 -0.12391
v 1.1239 0.25 -0.12391
v 1.382 1 0.26239
v 1.382 0.25 0.26239
v 0.15061 1.15 0.84939
v -0.01241 1.15 0.74046
v 0.73761 1 -0.38203
v 0.11457 1 0.88543
v 0.21797 1 1.0402
v 0.11457 0.25 0.88543
v 0.21797 0.25 1.0402
v 0.25954 1.15 1.0124
v 0.8 1.25 0.65129
v 0.38427 1.2 0.92907
v 0.47061 0.25 -0.56043
v 0.73761 0.25 -0.38203
v -0.040189 1 0.78203
v -0.040189 0.25 0.78203
v 0.41273 0.67982 -0.57194
v 0.37805 0.74105 -0.57884
v 0.42248 0.67982 -0.62098
v 0.38781 0.74105 -0.62788
v -0.016986 0.59016 -0.65742
v -0.0072311 0.59016 -0.70646
v 0.033784 0.78334 -0.64732
v 0.043538 0.78334 -0.69636
v 0.3019 0.45128 -0.59399
v 0.36196 0.48663 -0.58204
v 0.31165 0.45128 -0.64303
v 0.37172 0.48663 -0.63108
v 0.027445 0.52892 -0.69956
v 0.1036 0.8187 -0.68441
v 0.093844 0.8187 -0.63537
v 0.01769 0.52892 -0.65052
v 0.81142 1.2821 0.93094
v 0.84678 1.2882 0.99187
v 0.81142 1.2324 0.93592
v 0.84678 1.2384 0.99685
v 0.88907 1.2035 0.64758
v 0.88907 1.2533 0.6426
v 1.372 1.2661 0.77137
v 1.372 1.2164 0.77634
v 1.2944 1.295 1.0597
v 1.2944 1.2452 1.0647
v 0.95031 1.2 0.6124
v 0.95031 1.2498 0.60742
v 1.3367 1.2103 0.71541
v 1.3367 1.2601 0.71044
v 1.2331 1.2487 1.0999
v 1.2331 1.2985 1.0949
v -0.5 0.2 -0.75
v -0.5 0.25 -0.7
v -0.5 -2.3824e-10 -0.7
v 1.6075 0.2 0.50988
v 1.5604 -2.3822e-10 0.52939
v 1.75 0.2 1.2261
v 1.7 -2.3822e-10 1.2311
v 1.75 0.2 1.5
v 1.7 -2.3822e-10 1.5
v 1.7 0.25 1.2311
v 0.49012 0.2 -0.60753
v 0.47061 0.25 -0.56043
v -0.22613 0.2 -0.75
v -0.23106 0.25 -0.7
v 0.47061 -2.3822e-10 -0.56043
v 0.73761 -2.3822e-10 -0.38203
v 1.1239 -2.3822e-10 -0.12391
v 1.16 0.2 -0.15996
v 0.76539 0.2 -0.4236
v 1.4236 0.2 0.23461
v 1.382 -2.3822e-10 0.26239
v 1.1239 0.25 -0.12391
v -0.23106 -2.3822e-10 -0.7
v 1.382 0.25 0.26239
v 0.3 3.1971e-13 1.5
v 0.25 0.2 1.5
v 0.25 0.2 1.3739
v 0.3 3.1971e-13 1.3689
v -0.075638 0.25 0.75834
v -0.095147 0.2 0.80544
v -0.36894 0.25 0.7
v -0.37387 0.2 0.75
v -0.5 0.25 0.7
v -0.5 0.2 0.75
v 0.24166 3.1971e-13 1.0756
v 0.19456 0.2 1.0951
v 0.24166 0.25 1.0756
v 0.11457 3.1971e-13 0.88543
v 0.078519 0.2 0.92148
v 0.21797 3.1971e-13 1.0402
v 0.1764 0.2 1.068
v 0.21797 0.25 1.0402
v -0.075638 3.1971e-13 0.75834
v -0.36894 3.1971e-13 0.7
v -0.040189 3.1971e-13 0.78203
v -0.067967 0.2 0.8236
v -0.5 3.3642e-13 0.7
v -0.040189 0.25 0.78203
vn 0 -1 0
vn -0.45061 0.89272 5.3717e-08
vn 0 1 0
vn 1 0 -1.1921e-07
vn 0.099504 -0.99504 -1.1862e-08
vn -0.099504 -0.99504 1.1862e-08
vn -1 0 1.1921e-07
vn 0.45061 0.89272 -5.3717e-08
vn 0.94149 0.33704 -1.1223e-07
vn -0.94149 0.33704 1.1223e-07
vn -0.99885 -0.04801 1.1907e-07
vn 1.1921e-07 0 1
vn 0.99885 -0.04801 -1.1907e-07
vn 0.6695 -0.32179 -0.6695
vn 0.47552 -0.7401 -0.47552
vn 0.52706 -0.31623 -0.7888
vn 0.36233 -0.32179 -0.87474
vn 0.25735 -0.7401 -0.6213
vn 0.39285 -0.70711 -0.58794
vn -0.070529 -0.69443 0.71609
vn 0 -0.70711 0.70711
vn -0.021053 -0.97666 0.21376
vn 0 -0.97788 0.20915
vn 0.073588 -0.98134 -0.17766
vn 0.01976 -0.97947 -0.20063
vn 0.067781 -0.72236 -0.68819
vn 0.13597 -0.98134 -0.13597
vn 0.1162 -0.97788 -0.17391
vn -0.20174 -0.97587 0.083562
vn -0.17391 -0.97788 0.1162
vn -0.011271 -0.99993 0.0046686
vn -0.1544 -0.97587 0.1544
vn -0.0086264 -0.99993 0.0086264
vn -0.6695 -0.32179 0.6695
vn -0.52706 -0.31623 0.7888
vn -0.51555 -0.68441 0.51555
vn -0.36233 -0.32179 0.87474
vn -0.27902 -0.68441 0.6736
vn -0.39285 -0.70711 0.58794
vn 0.58794 -0.70711 -0.39285
vn 0.7888 -0.31623 -0.52706
vn 0.6213 -0.7401 -0.25735
vn 0.87474 -0.32179 -0.36233
vn -0.083562 -0.97587 0.20174
vn -0.0046686 -0.99993 0.011271
vn -0.00060664 -0.99998 0.0061593
vn -0.1162 -0.97788 0.17391
vn 0.17766 -0.98134 -0.073588
vn 0.17391 -0.97788 -0.1162
vn -0.7888 -0.31623 0.52706
vn -0.58794 -0.70711 0.39285
vn -0.87474 -0.32179 0.36233
vn -0.6736 -0.68441 0.27902
vn 0 -0.97788 -0.20915
vn 0 -0.70711 -0.70711
vn -0.70711 0 0.70711
vn -0.92388 0 0.38268
vn -0.83147 0 0.55557
vn -0.70711 -0.70711 0
vn -0.71609 -0.69443 0.070529
vn -0.20915 -0.97788 0
vn -0.21376 -0.97666 0.021053
vn -0.0061593 -0.99998 0.00060664
vn 0.20915 -0.97788 0
vn 0.20063 -0.97947 -0.01976
vn 0.70711 -0.70711 0
vn 0.68819 -0.72236 -0.067781
vn -0.94366 -0.3176 0.092942
vn -0.94868 -0.31623 0
vn 0.94366 -0.3176 -0.092942
vn 0.94868 -0.31623 0
vn 0 -0.31623 0.94868
vn -0.092942 -0.3176 0.94366
vn 0 -0.31623 -0.94868
vn 0.092942 -0.3176 -0.94366
vn 0.098017 0 -0.99518
vn 0 0 -1
vn 0.70711 0 -0.70711
vn 0.83147 0 -0.55557
vn 0.92388 0 -0.38268
vn -0.098017 0 0.99518
vn -0.38268 0 0.92388
vn -0.99518 0 0.098017
vn 0 0 1
vn 0.38268 0 -0.92388
vn 0.55557 0 -0.83147
vn -0.55557 0 0.83147
vn -1 0 0
vn 0.99518 0 -0.098017
vn 1 0 0
vn 0 0.89272 -0.45061
vn 0 -0.99504 0.099504
vn 0 -0.99504 -0.099504
vn 0 0.89272 0.45061
vn 0 0.33704 0.94149
vn 0 0.33704 -0.94149
vn 0 -0.04801 -0.99885
vn 0 -0.04801 0.99885
vn 0.70711 0.70711 0
vn -0.70711 0.70711 0
vn -8.4294e-08 0.70711 -0.70711
vn -1.1921e-07 0 -1
vn 8.4294e-08 0.70711 0.70711
vn 8.4294e-08 -0.70711 0.70711
vn -8.4294e-08 -0.70711 -0.70711
vn 0.0061593 0.99998 -0.00060664
vn -0.20063 0.97947 0.01976
vn -0.20915 0.97788 0
vn 0.94366 0.3176 -0.092942
vn 0.94868 0.31623 0
vn 0.71609 0.69443 -0.070529
vn 0.21376 0.97666 -0.021053
vn 0.20915 0.97788 0
vn 0.20174 0.97587 -0.083562
vn 0.011271 0.99993 -0.0046686
vn -0.68819 0.72236 0.067781
vn -0.6213 0.7401 0.25735
vn -0.87474 0.32179 0.36233
vn -0.94366 0.3176 0.092942
vn 0.6736 0.68441 -0.27902
vn -0.94868 0.31623 0
vn 0.87474 0.32179 -0.36233
vn -0.17766 0.98134 0.073588
vn 0.0046686 0.99993 -0.011271
vn -0.073588 0.98134 0.17766
vn 0.00060664 0.99998 -0.0061593
vn -0.01976 0.97947 0.20063
vn -0.092942 0.3176 0.94366
vn 0 0.31623 0.94868
vn -0.067781 0.72236 0.68819
vn 0 0.70711 0.70711
vn 0 0.97788 0.20915
vn 0 0.31623 -0.94868
vn 0.092942 0.3176 -0.94366
vn 0 0.70711 -0.70711
vn 0.070529 0.69443 -0.71609
vn -0.36233 0.32179 0.87474
vn -0.25735 0.7401 0.6213
vn 0.27902 0.68441 -0.6736
vn 0.083562 0.97587 -0.20174
vn 0.021053 0.97666 -0.21376
vn 0.098017 0 -0.99518
vn 0.36233 0.32179 -0.87474
vn 0.58794 0.70711 -0.39285
vn 0.17391 0.97788 -0.1162
vn 0.51555 0.68441 -0.51555
vn 0.1544 0.97587 -0.1544
vn 0.39285 0.70711 -0.58794
vn 0.1162 0.97788 -0.17391
vn 0.0086264 0.99993 -0.0086264
vn -0.13597 0.98134 0.13597
vn -0.1162 0.97788 0.17391
vn -0.098017 0 0.99518
vn -0.47552 0.7401 0.47552
vn -0.39285 0.70711 0.58794
vn 0.52706 0.31623 -0.7888
vn 0.6695 0.32179 -0.6695
vn -0.58794 0.70711 0.39285
vn -0.6695 0.32179 0.6695
vn -0.7888 0.31623 0.52706
vn -0.17391 0.97788 0.1162
vn 0 0.97788 -0.20915
vn -0.52706 0.31623 0.7888
vn 0.7888 0.31623 -0.52706
vn 0.97239 0.13053 0.19342
vn 0.59706 0.79335 0.11876
vn -0.97239 -0.13053 -0.19342
vn -0.77811 0.60876 -0.15478
vn 0.12802 -0.99144 0.025464
vn 0.77811 -0.60876 0.15478
vn 0.19509 -1.1921e-07 -0.98079
vn -0.12802 0.99144 -0.025464
vn -0.59706 -0.79335 -0.11876
vn -0.99144 0.012988 0.12988
vn -0.60876 0.078942 0.78942
vn -0.79335 -0.060574 -0.60574
vn 0.99144 -0.012988 -0.12988
vn 0.79335 0.060574 0.60574
vn -0.13053 -0.098652 -0.98652
vn 0.60876 -0.078942 -0.78942
vn 0.13053 0.098652 0.98652
vn 2.794e-09 0.99504 -0.099504
vn 0.89344 0.25457 -0.37008
vn 0.89525 -0.247 -0.37083
vn 0.96098 0.25992 -0.094648
vn 0.9652 -0.24364 -0.095063
vn 0.96371 0.26693 0
vn 0.97014 -0.24254 0
vn 0.702 0.70881 -0.069141
vn 0.37008 0.25457 -0.89344
vn 0.26796 0.71393 -0.64691
vn 0.094648 0.25992 -0.96098
vn 0.069141 0.70881 -0.702
vn 0.64691 0.71393 -0.26796
vn 0 0.26693 -0.96371
vn 0.37083 -0.247 -0.89525
vn 0.53898 -0.24254 -0.80664
vn 0.6852 -0.247 -0.6852
vn 0.68381 0.25457 -0.68381
vn 0.53541 0.26693 -0.8013
vn 0.8013 0.26693 -0.53541
vn 0.80664 -0.24254 -0.53898
vn 0.49513 0.71393 -0.49513
vn 0 -0.24254 -0.97014
vn 0.095063 -0.24364 -0.9652
vn 0.58794 0.70711 -0.39285
vn -0.702 0.70881 0.069141
vn -0.95657 0.27585 0.094214
vn -0.96371 0.26693 0
vn -0.9652 -0.24364 0.095063
vn -0.97014 -0.24254 0
vn -0.26796 0.71393 0.64691
vn -0.36659 0.28697 0.88502
vn -0.069141 0.70881 0.702
vn -0.094214 0.27585 0.95657
vn 0 0.26693 0.96371
vn -0.89525 -0.247 0.37083
vn -0.88502 0.28697 0.36659
vn -0.64691 0.71393 0.26796
vn -0.6852 -0.247 0.6852
vn -0.67737 0.28697 0.67737
vn -0.80664 -0.24254 0.53898
vn -0.8013 0.26693 0.53541
vn -0.49513 0.71393 0.49513
vn -0.37083 -0.247 0.89525
vn -0.095063 -0.24364 0.9652
vn -0.53898 -0.24254 0.80664
vn -0.53541 0.26693 0.8013
vn 0 -0.24254 0.97014
vt 0.09375 0.025
vt 0.09375 0.21544
vt 0.09375 0.225
vt 0.09375 0.19884
vt 0.09375 0.20753
vt 0.09375 0.20583
vt 0.09375 0.16851
vt 0.09375 0.17338
vt 0.09375 0.17564
vt 0.09375 0.1848
vt 0.09375 0.093284
vt 0.09375 0.065
vt 0.09375 0.105
vt 0.09375 0.036716
vt 0.09375 0.15441
vt 0.09375 0.040225
vt 0.09375 0.075
vt 0.09375 0.175
vt 0.59375 0.025
vt 0.59375 0.175
vt 0.59375 0.205
vt 0.59375 0.16851
vt 0.59375 0.215
vt 0.59375 0.17338
vt 0.59375 0.225
vt 0.59375 0.17564
vt 0.59375 0.1848
vt 0.59375 0.075
vt 0.84375 0.155
vt 0.84375 0.175
vt 0.84375 0.075
usemtl colormap
f 3/1/1 2/1/1 1/1/1
f 2/1/1 3/1/1 4/1/1
f 7/2/2 6/3/3 5/2/2
f 6/3/3 7/2/2 8/3/3
f 9/4/4 3/1/4 1/1/4
f 3/1/4 9/4/4 10/4/4
f 12/5/5 9/4/5 11/5/5
f 9/4/5 12/5/5 10/4/5
f 13/4/6 12/5/6 11/5/6
f 12/5/6 13/4/6 14/4/6
f 16/1/7 13/4/7 15/1/7
f 13/4/7 16/1/7 14/4/7
f 18/1/1 15/1/1 17/1/1
f 15/1/1 18/1/1 16/1/1
f 8/3/3 19/2/8 6/3/3
f 19/2/8 8/3/3 20/2/8
f 19/2/8 22/6/9 21/6/9
f 22/6/9 19/2/8 20/2/8
f 24/6/10 5/2/2 23/6/10
f 5/2/2 24/6/10 7/2/2
f 4/1/11 23/6/10 2/1/11
f 23/6/10 4/1/11 24/6/10
f 3/1/12 10/4/12 4/1/12
f 7/2/12 4/1/12 10/4/12
f 4/1/12 7/2/12 24/6/12
f 7/2/12 10/4/12 8/3/12
f 8/3/12 10/4/12 12/5/12
f 8/3/12 12/5/12 14/4/12
f 8/3/12 14/4/12 20/2/12
f 20/2/12 14/4/12 18/1/12
f 18/1/12 14/4/12 16/1/12
f 20/2/12 18/1/12 22/6/12
f 17/1/13 22/6/9 18/1/13
f 22/6/9 17/1/13 21/6/9
f 27/7/16 26/8/15 25/7/14
f 26/8/15 27/7/16 28/7/17
f 26/8/15 28/7/17 29/8/18
f 26/8/15 29/8/18 30/8/19
f 33/9/22 32/8/21 31/8/20
f 32/8/21 33/9/22 34/9/23
f 29/8/18 36/9/25 35/9/24
f 36/9/25 29/8/18 37/8/26
f 26/8/15 39/9/28 38/9/27
f 39/9/28 26/8/15 30/8/19
f 39/9/28 30/8/19 35/9/24
f 35/9/24 30/8/19 29/8/18
f 42/10/31 41/9/30 40/9/29
f 41/9/30 42/10/31 43/9/32
f 43/9/32 42/10/31 44/10/1
f 43/9/32 44/10/1 45/10/33
f 48/8/36 47/7/35 46/7/34
f 47/7/35 48/8/36 49/7/37
f 49/7/37 48/8/36 50/8/38
f 50/8/38 48/8/36 51/8/39
f 52/8/40 25/7/14 26/8/15
f 25/7/14 52/8/40 53/7/41
f 53/7/41 52/8/40 54/8/42
f 53/7/41 54/8/42 55/7/43
f 57/10/45 33/9/22 56/9/44
f 33/9/22 57/10/45 58/10/46
f 58/10/46 34/9/23 33/9/22
f 34/9/23 58/10/46 59/10/1
f 45/10/33 60/9/47 43/9/32
f 60/9/47 45/10/33 61/10/1
f 60/9/47 61/10/1 56/9/44
f 56/9/44 61/10/1 57/10/45
f 54/8/42 63/9/49 62/9/48
f 63/9/49 54/8/42 52/8/40
f 63/9/49 52/8/40 38/9/27
f 38/9/27 52/8/40 26/8/15
f 62/9/48 44/10/1 42/10/31
f 44/10/1 62/9/48 45/10/33
f 45/10/33 62/9/48 38/9/27
f 38/9/27 62/9/48 63/9/49
f 64/7/50 48/8/36 46/7/34
f 48/8/36 64/7/50 65/8/51
f 65/8/51 64/7/50 66/7/52
f 65/8/51 66/7/52 67/8/53
f 37/8/26 68/9/54 36/9/25
f 68/9/54 37/8/26 69/8/55
f 71/1/57 46/7/56 70/1/56
f 46/7/56 71/1/57 64/7/58
f 64/7/58 71/1/57 66/7/57
f 38/9/27 61/10/1 45/10/33
f 61/10/1 38/9/27 57/10/45
f 57/10/45 38/9/27 39/9/28
f 57/10/45 39/9/28 35/9/24
f 74/9/61 73/8/60 72/8/59
f 73/8/60 74/9/61 75/9/62
f 76/10/63 40/9/29 75/9/62
f 40/9/29 76/10/63 42/10/31
f 79/8/66 78/9/65 77/9/64
f 78/9/65 79/8/66 80/8/67
f 82/7/69 73/8/60 81/7/68
f 73/8/60 82/7/69 72/8/59
f 80/8/67 55/7/43 54/8/42
f 55/7/43 80/8/67 83/7/70
f 75/9/62 67/8/53 73/8/60
f 67/8/53 75/9/62 40/9/29
f 79/8/66 83/7/70 80/8/67
f 83/7/70 79/8/66 84/7/71
f 77/9/64 76/10/63 85/10/1
f 76/10/63 77/9/64 78/9/65
f 81/7/68 67/8/53 66/7/52
f 67/8/53 81/7/68 73/8/60
f 78/9/65 42/10/31 76/10/63
f 42/10/31 78/9/65 62/9/48
f 87/7/73 32/8/21 86/7/72
f 32/8/21 87/7/73 31/8/20
f 69/8/55 89/7/75 88/7/74
f 89/7/75 69/8/55 37/8/26
f 36/9/25 59/10/1 58/10/46
f 59/10/1 36/9/25 68/9/54
f 35/9/24 58/10/46 57/10/45
f 58/10/46 35/9/24 36/9/25
f 37/8/26 28/7/17 89/7/75
f 28/7/17 37/8/26 29/8/18
f 50/8/38 87/7/73 49/7/37
f 87/7/73 50/8/38 31/8/20
f 80/8/67 62/9/48 78/9/65
f 62/9/48 80/8/67 54/8/42
f 56/9/44 31/8/20 50/8/38
f 31/8/20 56/9/44 33/9/22
f 43/9/32 51/8/39 48/8/36
f 51/8/39 43/9/32 60/9/47
f 51/8/39 60/9/47 50/8/38
f 50/8/38 60/9/47 56/9/44
f 85/10/1 75/9/62 74/9/61
f 75/9/62 85/10/1 76/10/63
f 40/9/29 65/8/51 67/8/53
f 65/8/51 40/9/29 41/9/30
f 65/8/51 41/9/30 48/8/36
f 48/8/36 41/9/30 43/9/32
f 91/1/77 89/7/76 90/1/76
f 89/7/76 91/1/77 88/7/77
f 53/7/79 92/1/78 25/7/78
f 92/1/78 53/7/79 93/1/80
f 93/1/80 53/7/79 55/7/80
f 95/1/82 87/7/81 94/1/81
f 87/7/81 95/1/82 49/7/82
f 96/1/83 66/7/57 71/1/57
f 66/7/57 96/1/83 81/7/83
f 94/1/81 86/7/84 97/1/84
f 86/7/84 94/1/81 87/7/81
f 28/7/85 92/1/78 98/1/85
f 92/1/78 28/7/85 27/7/86
f 92/1/78 27/7/86 25/7/78
f 70/1/56 49/7/82 95/1/82
f 49/7/82 70/1/56 47/7/87
f 47/7/87 70/1/56 46/7/56
f 99/1/88 81/7/83 96/1/83
f 81/7/83 99/1/88 82/7/88
f 89/7/76 98/1/85 90/1/76
f 98/1/85 89/7/76 28/7/85
f 84/7/90 100/1/89 83/7/89
f 100/1/89 84/7/90 101/1/90
f 83/7/89 93/1/80 55/7/80
f 93/1/80 83/7/89 100/1/89
f 104/1/1 103/1/1 102/1/1
f 103/1/1 104/1/1 105/1/1
f 108/2/91 107/3/3 106/2/91
f 107/3/3 108/2/91 109/3/3
f 110/4/84 104/1/84 102/1/84
f 104/1/84 110/4/84 111/4/84
f 113/5/92 110/4/92 112/5/92
f 110/4/92 113/5/92 111/4/92
f 114/4/93 113/5/93 112/5/93
f 113/5/93 114/4/93 115/4/93
f 117/1/77 114/4/77 116/1/77
f 114/4/77 117/1/77 115/4/77
f 119/1/1 116/1/1 118/1/1
f 116/1/1 119/1/1 117/1/1
f 109/3/3 120/2/94 107/3/3
f 120/2/94 109/3/3 121/2/94
f 120/2/94 123/6/95 122/6/95
f 123/6/95 120/2/94 121/2/94
f 125/6/96 106/2/91 124/6/96
f 106/2/91 125/6/96 108/2/91
f 105/1/97 124/6/96 103/1/97
f 124/6/96 105/1/97 125/6/96
f 104/1/88 111/4/88 105/1/88
f 108/2/88 105/1/88 111/4/88
f 105/1/88 108/2/88 125/6/88
f 108/2/88 111/4/88 109/3/88
f 109/3/88 111/4/88 113/5/88
f 109/3/88 113/5/88 115/4/88
f 109/3/88 115/4/88 121/2/88
f 121/2/88 115/4/88 119/1/88
f 119/1/88 115/4/88 117/1/88
f 121/2/88 119/1/88 123/6/88
f 118/1/98 123/6/95 119/1/98
f 123/6/95 118/1/98 122/6/95
f 128/11/99 127/12/90 126/11/99
f 127/12/90 128/11/99 129/12/90
f 126/11/99 130/13/3 128/11/99
f 130/13/3 126/11/99 131/13/3
f 131/13/3 132/11/100 130/13/3
f 132/11/100 131/13/3 133/11/100
f 135/12/88 133/11/100 134/12/88
f 133/11/100 135/12/88 132/11/100
f 137/14/59 134/12/88 136/14/59
f 134/12/88 137/14/59 135/12/88
f 137/14/59 139/1/1 138/1/1
f 139/1/1 137/14/59 136/14/59
f 138/1/1 141/14/66 140/14/66
f 141/14/66 138/1/1 139/1/1
f 129/12/90 141/14/66 127/12/90
f 141/14/66 129/12/90 140/14/66
f 144/11/101 143/12/102 142/11/101
f 143/12/102 144/11/101 145/12/102
f 142/11/101 146/13/3 144/11/101
f 146/13/3 142/11/101 147/13/3
f 147/13/3 148/11/103 146/13/3
f 148/11/103 147/13/3 149/11/103
f 151/12/12 149/11/103 150/12/12
f 149/11/103 151/12/12 148/11/103
f 153/14/104 150/12/12 152/14/104
f 150/12/12 153/14/104 151/12/12
f 153/14/104 155/1/1 154/1/1
f 155/1/1 153/14/104 152/14/104
f 154/1/1 157/14/105 156/14/105
f 157/14/105 154/1/1 155/1/1
f 145/12/102 157/14/105 143/12/102
f 157/14/105 145/12/102 156/14/105
f 130/15/88 158/16/88 131/15/88
f 158/16/88 130/15/88 159/1/88
f 159/1/88 130/15/88 160/16/88
f 131/15/90 158/16/90 130/15/90
f 159/1/90 130/15/90 158/16/90
f 160/16/90 130/15/90 159/1/90
f 162/15/12 161/16/12 147/15/12
f 161/16/12 162/15/12 11/1/12
f 11/1/12 162/15/12 163/16/12
f 147/15/102 161/16/102 162/15/102
f 11/1/102 162/15/102 161/16/102
f 163/16/102 162/15/102 11/1/102
f 166/17/56 165/18/82 164/17/82
f 165/18/82 166/17/56 167/18/56
f 164/17/82 169/18/81 168/17/81
f 169/18/81 164/17/82 165/18/82
f 172/17/83 171/18/57 170/17/57
f 171/18/57 172/17/83 173/18/83
f 174/17/88 173/18/83 172/17/83
f 173/18/83 174/17/88 99/18/88
f 168/17/81 176/18/84 175/17/84
f 176/18/84 168/17/81 169/18/81
f 170/17/57 167/18/56 166/17/56
f 167/18/56 170/17/57 171/18/57
f 90/18/76 178/17/85 177/17/76
f 178/17/85 90/18/76 179/18/85
f 182/18/80 181/17/78 180/18/78
f 181/17/78 182/18/80 183/17/80
f 91/18/77 177/17/76 184/17/77
f 177/17/76 91/18/77 90/18/76
f 179/18/85 181/17/78 178/17/85
f 181/17/78 179/18/85 180/18/78
f 100/18/89 183/17/80 182/18/80
f 183/17/80 100/18/89 185/17/89
f 101/18/90 185/17/89 100/18/89
f 185/17/89 101/18/90 186/17/90
f 97/19/88 188/20/88 187/19/88
f 188/20/88 97/19/88 189/21/88
f 189/21/88 97/19/88 86/22/88
f 189/21/88 86/22/88 190/23/88
f 190/23/88 86/22/88 32/24/88
f 190/23/88 32/24/88 191/25/88
f 191/25/88 32/24/88 34/26/88
f 191/25/88 34/26/88 59/27/88
f 191/25/88 59/27/88 68/26/88
f 191/25/88 68/26/88 192/23/88
f 192/23/88 68/26/88 69/24/88
f 192/23/88 69/24/88 88/22/88
f 192/23/88 88/22/88 91/19/88
f 192/23/88 91/19/88 193/21/88
f 193/21/88 91/19/88 194/19/88
f 193/21/88 194/19/88 195/20/88
f 196/19/84 82/22/84 99/19/84
f 82/22/84 196/19/84 197/20/84
f 82/22/84 197/20/84 72/24/84
f 72/24/84 197/20/84 74/26/84
f 74/26/84 197/20/84 198/21/84
f 74/26/84 198/21/84 85/27/84
f 85/27/84 198/21/84 199/21/84
f 199/21/84 77/26/84 85/27/84
f 199/21/84 198/21/84 200/23/84
f 200/23/84 198/21/84 201/23/84
f 200/23/84 201/23/84 202/25/84
f 203/20/84 77/26/84 199/21/84
f 203/20/84 79/24/84 77/26/84
f 203/20/84 84/22/84 79/24/84
f 204/19/84 84/22/84 203/20/84
f 84/22/84 204/19/84 101/19/84
f 206/23/107 202/25/3 205/25/106
f 202/25/3 206/23/107 200/23/108
f 208/21/111 197/20/110 207/20/109
f 197/20/110 208/21/111 198/21/99
f 209/23/112 198/21/99 208/21/111
f 198/21/99 209/23/112 201/23/113
f 211/19/83 203/20/88 210/20/83
f 203/20/88 211/19/83 204/19/88
f 212/23/114 205/25/106 209/23/112
f 205/25/106 212/23/114 213/25/115
f 214/21/116 200/23/108 206/23/107
f 200/23/108 214/21/116 199/21/100
f 216/20/118 214/21/116 215/21/117
f 214/21/116 216/20/118 210/20/119
f 217/19/57 210/20/83 216/20/57
f 210/20/83 217/19/57 211/19/83
f 218/21/120 209/23/112 208/21/111
f 209/23/112 218/21/120 212/23/114
f 210/20/119 199/21/100 214/21/116
f 199/21/100 210/20/119 203/20/121
f 218/21/120 207/20/109 219/20/122
f 207/20/109 218/21/120 208/21/111
f 213/25/115 206/23/107 205/25/106
f 206/23/107 213/25/115 220/23/123
f 207/20/89 221/19/80 219/20/80
f 221/19/80 207/20/89 222/19/89
f 225/25/126 224/23/125 223/25/124
f 224/23/125 225/25/126 226/23/127
f 228/21/130 195/20/129 227/20/128
f 195/20/129 228/21/130 193/21/131
f 191/25/3 226/23/127 225/25/126
f 226/23/127 191/25/3 192/23/132
f 189/21/135 229/20/134 188/20/133
f 229/20/134 189/21/135 230/21/136
f 232/21/138 227/20/128 231/20/137
f 227/20/128 232/21/138 228/21/130
f 205/25/106 201/23/113 209/23/112
f 201/23/113 205/25/106 202/25/3
f 197/20/90 222/19/89 207/20/89
f 222/19/89 197/20/90 196/19/90
f 220/23/123 214/21/116 206/23/107
f 214/21/116 220/23/123 215/21/117
f 230/21/136 234/23/140 233/21/139
f 234/23/140 230/21/136 235/23/141
f 188/20/77 236/19/142 187/19/77
f 236/19/142 188/20/77 229/20/142
f 230/21/136 237/20/143 229/20/134
f 237/20/143 230/21/136 233/21/139
f 238/21/144 212/23/114 218/21/120
f 212/23/114 238/21/144 239/23/145
f 239/23/145 238/21/144 240/21/146
f 239/23/145 240/21/146 241/23/147
f 242/21/148 241/23/147 240/21/146
f 241/23/147 242/21/148 243/23/149
f 243/23/149 242/21/148 233/21/139
f 243/23/149 233/21/139 234/23/140
f 246/25/3 245/23/151 244/25/150
f 245/23/151 246/25/3 223/25/124
f 245/23/151 223/25/124 247/23/152
f 247/23/152 223/25/124 224/23/125
f 231/20/82 249/19/153 248/19/82
f 249/19/153 231/20/82 227/20/153
f 235/23/141 223/25/124 234/23/140
f 223/25/124 235/23/141 225/25/126
f 252/20/79 251/19/78 250/20/78
f 251/19/78 252/20/79 253/19/79
f 253/19/79 252/20/79 219/20/80
f 253/19/79 219/20/80 221/19/80
f 247/23/152 254/21/154 245/23/151
f 254/21/154 247/23/152 255/21/155
f 255/21/155 247/23/152 224/23/125
f 255/21/155 224/23/125 232/21/138
f 227/20/153 194/19/84 249/19/153
f 194/19/84 227/20/153 195/20/84
f 233/21/139 256/20/156 237/20/143
f 256/20/156 233/21/139 250/20/157
f 250/20/157 233/21/139 240/21/146
f 240/21/146 233/21/139 242/21/148
f 259/19/56 258/20/58 257/20/56
f 258/20/58 259/19/56 260/19/58
f 258/20/58 260/19/58 216/20/57
f 216/20/57 260/19/58 217/19/57
f 257/20/159 261/21/158 254/21/154
f 261/21/158 257/20/159 258/20/160
f 261/21/158 258/20/160 215/21/117
f 215/21/117 258/20/160 216/20/118
f 262/25/3 220/23/123 213/25/115
f 220/23/123 262/25/3 244/25/150
f 220/23/123 244/25/150 263/23/161
f 263/23/161 244/25/150 245/23/151
f 189/21/135 235/23/141 230/21/136
f 235/23/141 189/21/135 190/23/162
f 239/23/145 213/25/115 212/23/114
f 213/25/115 239/23/145 241/23/147
f 213/25/115 241/23/147 262/25/3
f 262/25/3 241/23/147 244/25/150
f 243/23/149 244/25/150 241/23/147
f 244/25/150 243/23/149 234/23/140
f 244/25/150 234/23/140 246/25/3
f 246/25/3 234/23/140 223/25/124
f 237/20/85 265/19/86 264/19/85
f 265/19/86 237/20/85 251/19/78
f 251/19/78 237/20/85 250/20/78
f 250/20/78 237/20/85 256/20/86
f 254/21/154 266/20/163 257/20/159
f 266/20/163 254/21/154 231/20/137
f 231/20/137 254/21/154 232/21/138
f 232/21/138 254/21/154 255/21/155
f 190/23/162 225/25/126 235/23/141
f 225/25/126 190/23/162 191/25/3
f 257/20/56 267/19/87 259/19/56
f 267/19/87 257/20/56 248/19/82
f 248/19/82 257/20/56 231/20/82
f 231/20/82 257/20/56 266/20/87
f 229/20/142 264/19/85 236/19/142
f 264/19/85 229/20/142 237/20/85
f 240/21/146 252/20/164 250/20/157
f 252/20/164 240/21/146 238/21/144
f 252/20/164 238/21/144 219/20/122
f 219/20/122 238/21/144 218/21/120
f 263/23/161 215/21/117 220/23/123
f 215/21/117 263/23/161 245/23/151
f 215/21/117 245/23/151 261/21/158
f 261/21/158 245/23/151 254/21/154
f 192/23/132 228/21/130 226/23/127
f 228/21/130 192/23/132 193/21/131
f 226/23/127 232/21/138 224/23/125
f 232/21/138 226/23/127 228/21/130
f 270/20/165 269/28/166 268/28/165
f 269/28/166 270/20/165 271/20/166
f 274/28/168 273/20/167 272/28/167
f 273/20/167 274/28/168 275/20/168
f 278/20/169 277/28/170 276/28/169
f 277/28/170 278/20/169 279/20/170
f 279/20/170 268/28/165 277/28/170
f 268/28/165 279/20/170 270/20/165
f 278/20/171 270/20/171 279/20/171
f 270/20/171 278/20/171 271/20/171
f 271/20/171 278/20/171 280/20/171
f 271/20/171 280/20/171 281/20/171
f 281/20/171 280/20/171 273/20/171
f 281/20/171 273/20/171 275/20/171
f 282/28/172 275/20/168 274/28/168
f 275/20/168 282/28/172 281/20/172
f 283/28/173 273/20/167 280/20/173
f 273/20/167 283/28/173 272/28/167
f 269/28/166 281/20/172 282/28/172
f 281/20/172 269/28/166 271/20/166
f 283/28/173 278/20/169 276/28/169
f 278/20/169 283/28/173 280/20/173
f 286/28/174 285/20/175 284/20/174
f 285/20/175 286/28/174 287/28/175
f 286/28/174 289/20/176 288/28/176
f 289/20/176 286/28/174 284/20/174
f 292/20/178 291/28/177 290/20/177
f 291/28/177 292/20/178 293/28/178
f 289/20/176 294/28/179 288/28/176
f 294/28/179 289/20/176 295/20/179
f 294/28/179 297/20/180 296/28/180
f 297/20/180 294/28/179 295/20/179
f 299/20/181 287/28/175 298/28/181
f 287/28/175 299/20/181 285/20/175
f 293/28/178 299/20/181 298/28/181
f 299/20/181 293/28/178 292/20/178
f 290/20/177 296/28/180 297/20/180
f 296/28/180 290/20/177 291/28/177
f 297/20/182 292/20/182 290/20/182
f 292/20/182 297/20/182 295/20/182
f 292/20/182 295/20/182 299/20/182
f 299/20/182 295/20/182 285/20/182
f 285/20/182 295/20/182 289/20/182
f 285/20/182 289/20/182 284/20/182
f 302/31/88 301/30/88 300/29/88
f 301/30/88 302/31/88 175/31/88
f 301/30/88 175/31/88 176/30/88
f 305/29/185 304/31/184 303/29/183
f 304/31/184 305/29/185 306/31/186
f 307/29/187 306/31/186 305/29/185
f 306/31/186 307/29/187 308/31/188
f 309/30/189 307/29/187 305/29/185
f 307/29/187 309/30/189 196/30/99
f 312/29/192 311/30/191 310/29/190
f 311/30/191 312/29/192 313/30/193
f 303/29/183 309/30/189 305/29/185
f 309/30/189 303/29/183 221/30/194
f 300/29/195 313/30/193 312/29/192
f 313/30/193 300/29/195 301/30/135
f 310/29/190 315/31/197 314/31/196
f 315/31/197 310/29/190 316/31/198
f 316/31/198 310/29/190 317/29/199
f 317/29/199 310/29/190 318/29/200
f 319/29/201 316/31/198 317/29/199
f 316/31/198 319/29/201 320/31/202
f 320/31/202 319/29/201 303/29/183
f 320/31/202 303/29/183 304/31/184
f 318/29/200 321/30/203 317/29/199
f 321/30/203 318/29/200 265/30/148
f 265/30/148 318/29/200 310/29/190
f 265/30/148 310/29/190 311/30/191
f 300/29/195 322/31/205 302/31/204
f 322/31/205 300/29/195 312/29/192
f 319/29/201 221/30/194 303/29/183
f 221/30/194 319/29/201 323/30/206
f 323/30/206 319/29/201 317/29/199
f 323/30/206 317/29/199 321/30/203
f 312/29/192 314/31/196 322/31/205
f 314/31/196 312/29/192 310/29/190
f 174/31/1 306/31/1 308/31/1
f 306/31/1 174/31/1 304/31/1
f 304/31/1 174/31/1 172/31/1
f 304/31/1 172/31/1 320/31/1
f 320/31/1 172/31/1 170/31/1
f 320/31/1 170/31/1 316/31/1
f 316/31/1 170/31/1 166/31/1
f 316/31/1 166/31/1 315/31/1
f 315/31/1 166/31/1 164/31/1
f 315/31/1 164/31/1 314/31/1
f 314/31/1 164/31/1 322/31/1
f 322/31/1 164/31/1 168/31/1
f 322/31/1 168/31/1 302/31/1
f 302/31/1 168/31/1 175/31/1
f 307/29/84 174/31/84 308/31/84
f 174/31/84 307/29/84 99/30/84
f 99/30/84 307/29/84 196/30/84
f 186/31/84 325/29/84 324/31/84
f 325/29/84 186/31/84 101/30/84
f 325/29/84 101/30/84 204/30/84
f 326/29/208 204/30/100 211/30/207
f 204/30/100 326/29/208 325/29/209
f 324/31/211 326/29/208 327/31/210
f 326/29/208 324/31/211 325/29/209
f 330/30/214 329/29/213 328/30/212
f 329/29/213 330/30/214 331/29/215
f 332/30/131 331/29/215 330/30/214
f 331/29/215 332/30/131 333/29/216
f 327/31/210 335/29/218 334/31/217
f 335/29/218 327/31/210 326/29/208
f 336/30/219 326/29/208 211/30/207
f 326/29/208 336/30/219 335/29/218
f 339/31/222 338/29/221 337/31/220
f 338/29/221 339/31/222 340/29/223
f 340/29/223 339/31/222 334/31/217
f 340/29/223 334/31/217 335/29/218
f 341/30/158 335/29/218 336/30/219
f 335/29/218 341/30/158 259/30/224
f 335/29/218 259/30/224 340/29/223
f 340/29/223 259/30/224 338/29/221
f 329/29/213 343/31/226 342/31/225
f 343/31/226 329/29/213 331/29/215
f 338/29/221 344/31/227 337/31/220
f 344/31/227 338/29/221 342/31/225
f 342/31/225 338/29/221 329/29/213
f 329/29/213 338/29/221 345/29/228
f 331/29/215 346/31/229 343/31/226
f 346/31/229 331/29/215 333/29/216
f 347/30/155 338/29/221 259/30/224
f 338/29/221 347/30/155 345/29/228
f 345/29/228 347/30/155 328/30/212
f 345/29/228 328/30/212 329/29/213
f 324/31/1 185/31/1 186/31/1
f 185/31/1 324/31/1 183/31/1
f 183/31/1 324/31/1 327/31/1
f 183/31/1 327/31/1 181/31/1
f 181/31/1 327/31/1 334/31/1
f 181/31/1 334/31/1 178/31/1
f 178/31/1 334/31/1 339/31/1
f 178/31/1 339/31/1 337/31/1
f 178/31/1 337/31/1 344/31/1
f 178/31/1 344/31/1 177/31/1
f 177/31/1 344/31/1 342/31/1
f 177/31/1 342/31/1 343/31/1
f 177/31/1 343/31/1 184/31/1
f 184/31/1 343/31/1 346/31/1
f 346/31/88 91/30/88 184/31/88
f 91/30/88 346/31/88 332/30/88
f 332/30/88 346/31/88 333/29/88
g machine-bed
usemtl colormap
f 3/1/1 2/1/1 1/1/1
f 2/1/1 3/1/1 4/1/1
f 7/2/2 6/3/3 5/2/2
f 6/3/3 7/2/2 8/3/3
f 9/4/4 3/1/4 1/1/4
f 3/1/4 9/4/4 10/4/4
f 12/5/5 9/4/5 11/5/5
f 9/4/5 12/5/5 10/4/5
f 13/4/6 12/5/6 11/5/6
f 12/5/6 13/4/6 14/4/6
f 16/1/7 13/4/7 15/1/7
f 13/4/7 16/1/7 14/4/7
f 18/1/1 15/1/1 17/1/1
f 15/1/1 18/1/1 16/1/1
f 8/3/3 19/2/8 6/3/3
f 19/2/8 8/3/3 20/2/8
f 19/2/8 22/6/9 21/6/9
f 22/6/9 19/2/8 20/2/8
f 24/6/10 5/2/2 23/6/10
f 5/2/2 24/6/10 7/2/2
f 4/1/11 23/6/10 2/1/11
f 23/6/10 4/1/11 24/6/10
f 3/1/12 10/4/12 4/1/12
f 7/2/12 4/1/12 10/4/12
f 4/1/12 7/2/12 24/6/12
f 7/2/12 10/4/12 8/3/12
f 8/3/12 10/4/12 12/5/12
f 8/3/12 12/5/12 14/4/12
f 8/3/12 14/4/12 20/2/12
f 20/2/12 14/4/12 18/1/12
f 18/1/12 14/4/12 16/1/12
f 20/2/12 18/1/12 22/6/12
f 17/1/13 22/6/9 18/1/13
f 22/6/9 17/1/13 21/6/9
f 27/7/16 26/8/15 25/7/14
f 26/8/15 27/7/16 28/7/17
f 26/8/15 28/7/17 29/8/18
f 26/8/15 29/8/18 30/8/19
f 33/9/22 32/8/21 31/8/20
f 32/8/21 33/9/22 34/9/23
f 29/8/18 36/9/25 35/9/24
f 36/9/25 29/8/18 37/8/26
f 26/8/15 39/9/28 38/9/27
f 39/9/28 26/8/15 30/8/19
f 39/9/28 30/8/19 35/9/24
f 35/9/24 30/8/19 29/8/18
f 42/10/31 41/9/30 40/9/29
f 41/9/30 42/10/31 43/9/32
f 43/9/32 42/10/31 44/10/1
f 43/9/32 44/10/1 45/10/33
f 48/8/36 47/7/35 46/7/34
f 47/7/35 48/8/36 49/7/37
f 49/7/37 48/8/36 50/8/38
f 50/8/38 48/8/36 51/8/39
f 52/8/40 25/7/14 26/8/15
f 25/7/14 52/8/40 53/7/41
f 53/7/41 52/8/40 54/8/42
f 53/7/41 54/8/42 55/7/43
f 57/10/45 33/9/22 56/9/44
f 33/9/22 57/10/45 58/10/46
f 58/10/46 34/9/23 33/9/22
f 34/9/23 58/10/46 59/10/1
f 45/10/33 60/9/47 43/9/32
f 60/9/47 45/10/33 61/10/1
f 60/9/47 61/10/1 56/9/44
f 56/9/44 61/10/1 57/10/45
f 54/8/42 63/9/49 62/9/48
f 63/9/49 54/8/42 52/8/40
f 63/9/49 52/8/40 38/9/27
f 38/9/27 52/8/40 26/8/15
f 62/9/48 44/10/1 42/10/31
f 44/10/1 62/9/48 45/10/33
f 45/10/33 62/9/48 38/9/27
f 38/9/27 62/9/48 63/9/49
f 64/7/50 48/8/36 46/7/34
f 48/8/36 64/7/50 65/8/51
f 65/8/51 64/7/50 66/7/52
f 65/8/51 66/7/52 67/8/53
f 37/8/26 68/9/54 36/9/25
f 68/9/54 37/8/26 69/8/55
f 71/1/57 46/7/56 70/1/56
f 46/7/56 71/1/57 64/7/58
f 64/7/58 71/1/57 66/7/57
f 38/9/27 61/10/1 45/10/33
f 61/10/1 38/9/27 57/10/45
f 57/10/45 38/9/27 39/9/28
f 57/10/45 39/9/28 35/9/24
f 74/9/61 73/8/60 72/8/59
f 73/8/60 74/9/61 75/9/62
f 76/10/63 40/9/29 75/9/62
f 40/9/29 76/10/63 42/10/31
f 79/8/66 78/9/65 77/9/64
f 78/9/65 79/8/66 80/8/67
f 82/7/69 73/8/60 81/7/68
f 73/8/60 82/7/69 72/8/59
f 80/8/67 55/7/43 54/8/42
f 55/7/43 80/8/67 83/7/70
f 75/9/62 67/8/53 73/8/60
f 67/8/53 75/9/62 40/9/29
f 79/8/66 83/7/70 80/8/67
f 83/7/70 79/8/66 84/7/71
f 77/9/64 76/10/63 85/10/1
f 76/10/63 77/9/64 78/9/65
f 81/7/68 67/8/53 66/7/52
f 67/8/53 81/7/68 73/8/60
f 78/9/65 42/10/31 76/10/63
f 42/10/31 78/9/65 62/9/48
f 87/7/73 32/8/21 86/7/72
f 32/8/21 87/7/73 31/8/20
f 69/8/55 89/7/75 88/7/74
f 89/7/75 69/8/55 37/8/26
f 36/9/25 59/10/1 58/10/46
f 59/10/1 36/9/25 68/9/54
f 35/9/24 58/10/46 57/10/45
f 58/10/46 35/9/24 36/9/25
f 37/8/26 28/7/17 89/7/75
f 28/7/17 37/8/26 29/8/18
f 50/8/38 87/7/73 49/7/37
f 87/7/73 50/8/38 31/8/20
f 80/8/67 62/9/48 78/9/65
f 62/9/48 80/8/67 54/8/42
f 56/9/44 31/8/20 50/8/38
f 31/8/20 56/9/44 33/9/22
f 43/9/32 51/8/39 48/8/36
f 51/8/39 43/9/32 60/9/47
f 51/8/39 60/9/47 50/8/38
f 50/8/38 60/9/47 56/9/44
f 85/10/1 75/9/62 74/9/61
f 75/9/62 85/10/1 76/10/63
f 40/9/29 65/8/51 67/8/53
f 65/8/51 40/9/29 41/9/30
f 65/8/51 41/9/30 48/8/36
f 48/8/36 41/9/30 43/9/32
f 91/1/77 89/7/76 90/1/76
f 89/7/76 91/1/77 88/7/77
f 53/7/79 92/1/78 25/7/78
f 92/1/78 53/7/79 93/1/80
f 93/1/80 53/7/79 55/7/80
f 95/1/82 87/7/81 94/1/81
f 87/7/81 95/1/82 49/7/82
f 96/1/83 66/7/57 71/1/57
f 66/7/57 96/1/83 81/7/83
f 94/1/81 86/7/84 97/1/84
f 86/7/84 94/1/81 87/7/81
f 28/7/85 92/1/78 98/1/85
f 92/1/78 28/7/85 27/7/86
f 92/1/78 27/7/86 25/7/78
f 70/1/56 49/7/82 95/1/82
f 49/7/82 70/1/56 47/7/87
f 47/7/87 70/1/56 46/7/56
f 99/1/88 81/7/83 96/1/83
f 81/7/83 99/1/88 82/7/88
f 89/7/76 98/1/85 90/1/76
f 98/1/85 89/7/76 28/7/85
f 84/7/90 100/1/89 83/7/89
f 100/1/89 84/7/90 101/1/90
f 83/7/89 93/1/80 55/7/80
f 93/1/80 83/7/89 100/1/89
f 104/1/1 103/1/1 102/1/1
f 103/1/1 104/1/1 105/1/1
f 108/2/91 107/3/3 106/2/91
f 107/3/3 108/2/91 109/3/3
f 110/4/84 104/1/84 102/1/84
f 104/1/84 110/4/84 111/4/84
f 113/5/92 110/4/92 112/5/92
f 110/4/92 113/5/92 111/4/92
f 114/4/93 113/5/93 112/5/93
f 113/5/93 114/4/93 115/4/93
f 117/1/77 114/4/77 116/1/77
f 114/4/77 117/1/77 115/4/77
f 119/1/1 116/1/1 118/1/1
f 116/1/1 119/1/1 117/1/1
f 109/3/3 120/2/94 107/3/3
f 120/2/94 109/3/3 121/2/94
f 120/2/94 123/6/95 122/6/95
f 123/6/95 120/2/94 121/2/94
f 125/6/96 106/2/91 124/6/96
f 106/2/91 125/6/96 108/2/91
f 105/1/97 124/6/96 103/1/97
f 124/6/96 105/1/97 125/6/96
f 104/1/88 111/4/88 105/1/88
f 108/2/88 105/1/88 111/4/88
f 105/1/88 108/2/88 125/6/88
f 108/2/88 111/4/88 109/3/88
f 109/3/88 111/4/88 113/5/88
f 109/3/88 113/5/88 115/4/88
f 109/3/88 115/4/88 121/2/88
f 121/2/88 115/4/88 119/1/88
f 119/1/88 115/4/88 117/1/88
f 121/2/88 119/1/88 123/6/88
f 118/1/98 123/6/95 119/1/98
f 123/6/95 118/1/98 122/6/95
f 128/11/99 127/12/90 126/11/99
f 127/12/90 128/11/99 129/12/90
f 126/11/99 130/13/3 128/11/99
f 130/13/3 126/11/99 131/13/3
f 131/13/3 132/11/100 130/13/3
f 132/11/100 131/13/3 133/11/100
f 135/12/88 133/11/100 134/12/88
f 133/11/100 135/12/88 132/11/100
f 137/14/59 134/12/88 136/14/59
f 134/12/88 137/14/59 135/12/88
f 137/14/59 139/1/1 138/1/1
f 139/1/1 137/14/59 136/14/59
f 138/1/1 141/14/66 140/14/66
f 141/14/66 138/1/1 139/1/1
f 129/12/90 141/14/66 127/12/90
f 141/14/66 129/12/90 140/14/66
f 144/11/101 143/12/102 142/11/101
f 143/12/102 144/11/101 145/12/102
f 142/11/101 146/13/3 144/11/101
f 146/13/3 142/11/101 147/13/3
f 147/13/3 148/11/103 146/13/3
f 148/11/103 147/13/3 149/11/103
f 151/12/12 149/11/103 150/12/12
f 149/11/103 151/12/12 148/11/103
f 153/14/104 150/12/12 152/14/104
f 150/12/12 153/14/104 151/12/12
f 153/14/104 155/1/1 154/1/1
f 155/1/1 153/14/104 152/14/104
f 154/1/1 157/14/105 156/14/105
f 157/14/105 154/1/1 155/1/1
f 145/12/102 157/14/105 143/12/102
f 157/14/105 145/12/102 156/14/105
f 130/15/88 158/16/88 131/15/88
f 158/16/88 130/15/88 159/1/88
f 159/1/88 130/15/88 160/16/88
f 131/15/90 158/16/90 130/15/90
f 159/1/90 130/15/90 158/16/90
f 160/16/90 130/15/90 159/1/90
f 162/15/12 161/16/12 147/15/12
f 161/16/12 162/15/12 11/1/12
f 11/1/12 162/15/12 163/16/12
f 147/15/102 161/16/102 162/15/102
f 11/1/102 162/15/102 161/16/102
f 163/16/102 162/15/102 11/1/102
f 166/17/56 165/18/82 164/17/82
f 165/18/82 166/17/56 167/18/56
f 164/17/82 169/18/81 168/17/81
f 169/18/81 164/17/82 165/18/82
f 172/17/83 171/18/57 170/17/57
f 171/18/57 172/17/83 173/18/83
f 174/17/88 173/18/83 172/17/83
f 173/18/83 174/17/88 99/18/88
f 168/17/81 176/18/84 175/17/84
f 176/18/84 168/17/81 169/18/81
f 170/17/57 167/18/56 166/17/56
f 167/18/56 170/17/57 171/18/57
f 90/18/76 178/17/85 177/17/76
f 178/17/85 90/18/76 179/18/85
f 182/18/80 181/17/78 180/18/78
f 181/17/78 182/18/80 183/17/80
f 91/18/77 177/17/76 184/17/77
f 177/17/76 91/18/77 90/18/76
f 179/18/85 181/17/78 178/17/85
f 181/17/78 179/18/85 180/18/78
f 100/18/89 183/17/80 182/18/80
f 183/17/80 100/18/89 185/17/89
f 101/18/90 185/17/89 100/18/89
f 185/17/89 101/18/90 186/17/90
f 97/19/88 188/20/88 187/19/88
f 188/20/88 97/19/88 189/21/88
f 189/21/88 97/19/88 86/22/88
f 189/21/88 86/22/88 190/23/88
f 190/23/88 86/22/88 32/24/88
f 190/23/88 32/24/88 191/25/88
f 191/25/88 32/24/88 34/26/88
f 191/25/88 34/26/88 59/27/88
f 191/25/88 59/27/88 68/26/88
f 191/25/88 68/26/88 192/23/88
f 192/23/88 68/26/88 69/24/88
f 192/23/88 69/24/88 88/22/88
f 192/23/88 88/22/88 91/19/88
f 192/23/88 91/19/88 193/21/88
f 193/21/88 91/19/88 194/19/88
f 193/21/88 194/19/88 195/20/88
f 196/19/84 82/22/84 99/19/84
f 82/22/84 196/19/84 197/20/84
f 82/22/84 197/20/84 72/24/84
f 72/24/84 197/20/84 74/26/84
f 74/26/84 197/20/84 198/21/84
f 74/26/84 198/21/84 85/27/84
f 85/27/84 198/21/84 199/21/84
f 199/21/84 77/26/84 85/27/84
f 199/21/84 198/21/84 200/23/84
f 200/23/84 198/21/84 201/23/84
f 200/23/84 201/23/84 202/25/84
f 203/20/84 77/26/84 199/21/84
f 203/20/84 79/24/84 77/26/84
f 203/20/84 84/22/84 79/24/84
f 204/19/84 84/22/84 203/20/84
f 84/22/84 204/19/84 101/19/84
f 206/23/107 202/25/3 205/25/106
f 202/25/3 206/23/107 200/23/108
f 208/21/111 197/20/110 207/20/109
f 197/20/110 208/21/111 198/21/99
f 209/23/112 198/21/99 208/21/111
f 198/21/99 209/23/112 201/23/113
f 211/19/83 203/20/88 210/20/83
f 203/20/88 211/19/83 204/19/88
f 212/23/114 205/25/106 209/23/112
f 205/25/106 212/23/114 213/25/115
f 214/21/116 200/23/108 206/23/107
f 200/23/108 214/21/116 199/21/100
f 216/20/118 214/21/116 215/21/117
f 214/21/116 216/20/118 210/20/119
f 217/19/57 210/20/83 216/20/57
f 210/20/83 217/19/57 211/19/83
f 218/21/120 209/23/112 208/21/111
f 209/23/112 218/21/120 212/23/114
f 210/20/119 199/21/100 214/21/116
f 199/21/100 210/20/119 203/20/121
f 218/21/120 207/20/109 219/20/122
f 207/20/109 218/21/120 208/21/111
f 213/25/115 206/23/107 205/25/106
f 206/23/107 213/25/115 220/23/123
f 207/20/89 221/19/80 219/20/80
f 221/19/80 207/20/89 222/19/89
f 225/25/126 224/23/125 223/25/124
f 224/23/125 225/25/126 226/23/127
f 228/21/130 195/20/129 227/20/128
f 195/20/129 228/21/130 193/21/131
f 191/25/3 226/23/127 225/25/126
f 226/23/127 191/25/3 192/23/132
f 189/21/135 229/20/134 188/20/133
f 229/20/134 189/21/135 230/21/136
f 232/21/138 227/20/128 231/20/137
f 227/20/128 232/21/138 228/21/130
f 205/25/106 201/23/113 209/23/112
f 201/23/113 205/25/106 202/25/3
f 197/20/90 222/19/89 207/20/89
f 222/19/89 197/20/90 196/19/90
f 220/23/123 214/21/116 206/23/107
f 214/21/116 220/23/123 215/21/117
f 230/21/136 234/23/140 233/21/139
f 234/23/140 230/21/136 235/23/141
f 188/20/77 236/19/142 187/19/77
f 236/19/142 188/20/77 229/20/142
f 230/21/136 237/20/143 229/20/134
f 237/20/143 230/21/136 233/21/139
f 238/21/144 212/23/114 218/21/120
f 212/23/114 238/21/144 239/23/145
f 239/23/145 238/21/144 240/21/146
f 239/23/145 240/21/146 241/23/147
f 242/21/148 241/23/147 240/21/146
f 241/23/147 242/21/148 243/23/149
f 243/23/149 242/21/148 233/21/139
f 243/23/149 233/21/139 234/23/140
f 246/25/3 245/23/151 244/25/150
f 245/23/151 246/25/3 223/25/124
f 245/23/151 223/25/124 247/23/152
f 247/23/152 223/25/124 224/23/125
f 231/20/82 249/19/153 248/19/82
f 249/19/153 231/20/82 227/20/153
f 235/23/141 223/25/124 234/23/140
f 223/25/124 235/23/141 225/25/126
f 252/20/79 251/19/78 250/20/78
f 251/19/78 252/20/79 253/19/79
f 253/19/79 252/20/79 219/20/80
f 253/19/79 219/20/80 221/19/80
f 247/23/152 254/21/154 245/23/151
f 254/21/154 247/23/152 255/21/155
f 255/21/155 247/23/152 224/23/125
f 255/21/155 224/23/125 232/21/138
f 227/20/153 194/19/84 249/19/153
f 194/19/84 227/20/153 195/20/84
f 233/21/139 256/20/156 237/20/143
f 256/20/156 233/21/139 250/20/157
f 250/20/157 233/21/139 240/21/146
f 240/21/146 233/21/139 242/21/148
f 259/19/56 258/20/58 257/20/56
f 258/20/58 259/19/56 260/19/58
f 258/20/58 260/19/58 216/20/57
f 216/20/57 260/19/58 217/19/57
f 257/20/159 261/21/158 254/21/154
f 261/21/158 257/20/159 258/20/160
f 261/21/158 258/20/160 215/21/117
f 215/21/117 258/20/160 216/20/118
f 262/25/3 220/23/123 213/25/115
f 220/23/123 262/25/3 244/25/150
f 220/23/123 244/25/150 263/23/161
f 263/23/161 244/25/150 245/23/151
f 189/21/135 235/23/141 230/21/136
f 235/23/141 189/21/135 190/23/162
f 239/23/145 213/25/115 212/23/114
f 213/25/115 239/23/145 241/23/147
f 213/25/115 241/23/147 262/25/3
f 262/25/3 241/23/147 244/25/150
f 243/23/149 244/25/150 241/23/147
f 244/25/150 243/23/149 234/23/140
f 244/25/150 234/23/140 246/25/3
f 246/25/3 234/23/140 223/25/124
f 237/20/85 265/19/86 264/19/85
f 265/19/86 237/20/85 251/19/78
f 251/19/78 237/20/85 250/20/78
f 250/20/78 237/20/85 256/20/86
f 254/21/154 266/20/163 257/20/159
f 266/20/163 254/21/154 231/20/137
f 231/20/137 254/21/154 232/21/138
f 232/21/138 254/21/154 255/21/155
f 190/23/162 225/25/126 235/23/141
f 225/25/126 190/23/162 191/25/3
f 257/20/56 267/19/87 259/19/56
f 267/19/87 257/20/56 248/19/82
f 248/19/82 257/20/56 231/20/82
f 231/20/82 257/20/56 266/20/87
f 229/20/142 264/19/85 236/19/142
f 264/19/85 229/20/142 237/20/85
f 240/21/146 252/20/164 250/20/157
f 252/20/164 240/21/146 238/21/144
f 252/20/164 238/21/144 219/20/122
f 219/20/122 238/21/144 218/21/120
f 263/23/161 215/21/117 220/23/123
f 215/21/117 263/23/161 245/23/151
f 215/21/117 245/23/151 261/21/158
f 261/21/158 245/23/151 254/21/154
f 192/23/132 228/21/130 226/23/127
f 228/21/130 192/23/132 193/21/131
f 226/23/127 232/21/138 224/23/125
f 232/21/138 226/23/127 228/21/130
f 270/20/165 269/28/166 268/28/165
f 269/28/166 270/20/165 271/20/166
f 274/28/168 273/20/167 272/28/167
f 273/20/167 274/28/168 275/20/168
f 278/20/169 277/28/170 276/28/169
f 277/28/170 278/20/169 279/20/170
f 279/20/170 268/28/165 277/28/170
f 268/28/165 279/20/170 270/20/165
f 278/20/171 270/20/171 279/20/171
f 270/20/171 278/20/171 271/20/171
f 271/20/171 278/20/171 280/20/171
f 271/20/171 280/20/171 281/20/171
f 281/20/171 280/20/171 273/20/171
f 281/20/171 273/20/171 275/20/171
f 282/28/172 275/20/168 274/28/168
f 275/20/168 282/28/172 281/20/172
f 283/28/173 273/20/167 280/20/173
f 273/20/167 283/28/173 272/28/167
f 269/28/166 281/20/172 282/28/172
f 281/20/172 269/28/166 271/20/166
f 283/28/173 278/20/169 276/28/169
f 278/20/169 283/28/173 280/20/173
f 286/28/174 285/20/175 284/20/174
f 285/20/175 286/28/174 287/28/175
f 286/28/174 289/20/176 288/28/176
f 289/20/176 286/28/174 284/20/174
f 292/20/178 291/28/177 290/20/177
f 291/28/177 292/20/178 293/28/178
f 289/20/176 294/28/179 288/28/176
f 294/28/179 289/20/176 295/20/179
f 294/28/179 297/20/180 296/28/180
f 297/20/180 294/28/179 295/20/179
f 299/20/181 287/28/175 298/28/181
f 287/28/175 299/20/181 285/20/175
f 293/28/178 299/20/181 298/28/181
f 299/20/181 293/28/178 292/20/178
f 290/20/177 296/28/180 297/20/180
f 296/28/180 290/20/177 291/28/177
f 297/20/182 292/20/182 290/20/182
f 292/20/182 297/20/182 295/20/182
f 292/20/182 295/20/182 299/20/182
f 299/20/182 295/20/182 285/20/182
f 285/20/182 295/20/182 289/20/182
f 285/20/182 289/20/182 284/20/182
f 302/31/88 301/30/88 300/29/88
f 301/30/88 302/31/88 175/31/88
f 301/30/88 175/31/88 176/30/88
f 305/29/185 304/31/184 303/29/183
f 304/31/184 305/29/185 306/31/186
f 307/29/187 306/31/186 305/29/185
f 306/31/186 307/29/187 308/31/188
f 309/30/189 307/29/187 305/29/185
f 307/29/187 309/30/189 196/30/99
f 312/29/192 311/30/191 310/29/190
f 311/30/191 312/29/192 313/30/193
f 303/29/183 309/30/189 305/29/185
f 309/30/189 303/29/183 221/30/194
f 300/29/195 313/30/193 312/29/192
f 313/30/193 300/29/195 301/30/135
f 310/29/190 315/31/197 314/31/196
f 315/31/197 310/29/190 316/31/198
f 316/31/198 310/29/190 317/29/199
f 317/29/199 310/29/190 318/29/200
f 319/29/201 316/31/198 317/29/199
f 316/31/198 319/29/201 320/31/202
f 320/31/202 319/29/201 303/29/183
f 320/31/202 303/29/183 304/31/184
f 318/29/200 321/30/203 317/29/199
f 321/30/203 318/29/200 265/30/148
f 265/30/148 318/29/200 310/29/190
f 265/30/148 310/29/190 311/30/191
f 300/29/195 322/31/205 302/31/204
f 322/31/205 300/29/195 312/29/192
f 319/29/201 221/30/194 303/29/183
f 221/30/194 319/29/201 323/30/206
f 323/30/206 319/29/201 317/29/199
f 323/30/206 317/29/199 321/30/203
f 312/29/192 314/31/196 322/31/205
f 314/31/196 312/29/192 310/29/190
f 174/31/1 306/31/1 308/31/1
f 306/31/1 174/31/1 304/31/1
f 304/31/1 174/31/1 172/31/1
f 304/31/1 172/31/1 320/31/1
f 320/31/1 172/31/1 170/31/1
f 320/31/1 170/31/1 316/31/1
f 316/31/1 170/31/1 166/31/1
f 316/31/1 166/31/1 315/31/1
f 315/31/1 166/31/1 164/31/1
f 315/31/1 164/31/1 314/31/1
f 314/31/1 164/31/1 322/31/1
f 322/31/1 164/31/1 168/31/1
f 322/31/1 168/31/1 302/31/1
f 302/31/1 168/31/1 175/31/1
f 307/29/84 174/31/84 308/31/84
f 174/31/84 307/29/84 99/30/84
f 99/30/84 307/29/84 196/30/84
f 186/31/84 325/29/84 324/31/84
f 325/29/84 186/31/84 101/30/84
f 325/29/84 101/30/84 204/30/84
f 326/29/208 204/30/100 211/30/207
f 204/30/100 326/29/208 325/29/209
f 324/31/211 326/29/208 327/31/210
f 326/29/208 324/31/211 325/29/209
f 330/30/214 329/29/213 328/30/212
f 329/29/213 330/30/214 331/29/215
f 332/30/131 331/29/215 330/30/214
f 331/29/215 332/30/131 333/29/216
f 327/31/210 335/29/218 334/31/217
f 335/29/218 327/31/210 326/29/208
f 336/30/219 326/29/208 211/30/207
f 326/29/208 336/30/219 335/29/218
f 339/31/222 338/29/221 337/31/220
f 338/29/221 339/31/222 340/29/223
f 340/29/223 339/31/222 334/31/217
f 340/29/223 334/31/217 335/29/218
f 341/30/158 335/29/218 336/30/219
f 335/29/218 341/30/158 259/30/224
f 335/29/218 259/30/224 340/29/223
f 340/29/223 259/30/224 338/29/221
f 329/29/213 343/31/226 342/31/225
f 343/31/226 329/29/213 331/29/215
f 338/29/221 344/31/227 337/31/220
f 344/31/227 338/29/221 342/31/225
f 342/31/225 338/29/221 329/29/213
f 329/29/213 338/29/221 345/29/228
f 331/29/215 346/31/229 343/31/226
f 346/31/229 331/29/215 333/29/216
f 347/30/155 338/29/221 259/30/224
f 338/29/221 347/30/155 345/29/228
f 345/29/228 347/30/155 328/30/212
f 345/29/228 328/30/212 329/29/213
f 324/31/1 185/31/1 186/31/1
f 185/31/1 324/31/1 183/31/1
f 183/31/1 324/31/1 327/31/1
f 183/31/1 327/31/1 181/31/1
f 181/31/1 327/31/1 334/31/1
f 181/31/1 334/31/1 178/31/1
f 178/31/1 334/31/1 339/31/1
f 178/31/1 339/31/1 337/31/1
f 178/31/1 337/31/1 344/31/1
f 178/31/1 344/31/1 177/31/1
f 177/31/1 344/31/1 342/31/1
f 177/31/1 342/31/1 343/31/1
f 177/31/1 343/31/1 184/31/1
f 184/31/1 343/31/1 346/31/1
f 346/31/88 91/30/88 184/31/88
f 91/30/88 346/31/88 332/30/88
f 332/30/88 346/31/88 333/29/88
