mtllib works_pipe-large-bend.mtl
g pipe-large-bend
v 0.7 0.89176 0
v 0.68638 0.77695 0.27719
v 0.4854 0.89176 -0.021136
v 0.43106 0.77695 0.25204
v 0.27905 0.89176 -0.083733
v 0.17246 0.77695 0.17359
v 0.56225 0.49976 -0.40746
v 0.53974 0.77695 -0.29431
v 0.42979 0.49976 -0.44765
v 0.38564 0.77695 -0.34106
v 0.24361 0.77695 -0.41697
v 0.088873 0.89176 -0.18538
v 0.12831 0.49976 0.28018
v -0.12996 0.49976 0.14213
v -0.065869 0.77695 0.046203
v 0.40856 0.49976 0.36519
v -0.077817 0.89176 -0.32218
v -0.27477 0.77695 -0.12523
v 0.11913 0.77695 -0.51913
v 0.30771 0.49976 -0.5129
v 0.20071 0.49976 -0.60071
v 0.53974 0.22257 -0.29431
v 0.38564 0.22257 -0.34106
v 0.24361 0.22257 -0.41697
v 0.43106 0.22257 0.25204
v 0.17246 0.22257 0.17359
v 0.11913 0.22257 -0.51913
v 0.088873 0.10776 -0.18538
v -0.077817 0.10776 -0.32218
v 0.27905 0.10776 -0.083733
v 0.01697 0.77695 -0.64361
v -0.21462 0.89176 -0.48887
v 0.4854 0.10776 -0.021136
v -0.065869 0.22257 0.046203
v -0.27477 0.22257 -0.12523
v -0.35634 0.49976 -0.043656
v 0.01697 0.22257 -0.64361
v -0.21462 0.10776 -0.48887
v -0.058942 0.22257 -0.78564
v -0.31627 0.10776 -0.67905
v -0.4462 0.22257 -0.33413
v -0.54213 0.49976 -0.27004
v -0.4462 0.77695 -0.33413
v -0.57359 0.22257 -0.57246
v -0.68018 0.49976 -0.52831
v 0.1129 0.49976 -0.70771
v -0.058942 0.77695 -0.78564
v -0.31627 0.89176 -0.67905
v 0.047646 0.49976 -0.82979
v 0.71362 0.77695 -0.27719
v 0.68638 0.22257 0.27719
v 0.68074 0.49976 0.392
v 0.71362 0.22257 -0.27719
v 0.71926 0.49976 -0.392
v 0.7 0.10776 -5.9605e-08
v -0.37886 0.89176 -0.8854
v -0.65204 0.77695 -0.83106
v -0.4 0.89176 -1.1
v -0.67719 0.77695 -1.0864
v -0.57359 0.77695 -0.57246
v -0.0079999 0.49976 -1.1193
v 0.0074643 0.49976 -0.96225
v -0.12281 0.77695 -1.1136
v -0.10569 0.77695 -0.93974
v -0.10569 0.22257 -0.93974
v -0.67719 0.22257 -1.0864
v -0.792 0.49976 -1.0807
v -0.65204 0.22257 -0.83106
v -0.76519 0.49976 -0.80856
v -0.37886 0.10776 -0.8854
v -0.4 0.10776 -1.1
v -0.12281 0.22257 -1.1136
v 0.9 0.22257 -0.27719
v 0.9 0.10776 0
v 0.9 0.22257 0.27719
v 0.9 0.77695 -0.27719
v 0.9 0.89176 0
v 0.9 0.49976 -0.392
v 0.9 0.49976 0.392
v 0.9 0.77695 0.27719
v -0.12281 0.77695 -1.3
v -0.4 0.89176 -1.3
v -0.12281 0.22257 -1.3
v -0.0079999 0.49976 -1.3
v -0.4 0.10776 -1.3
v -0.67719 0.22257 -1.3
v -0.792 0.49976 -1.3
v -0.67719 0.77695 -1.3
v 0.22225 0.73868 -0.385
v 0.09194 0.73868 -0.49194
v 0.088873 0.83764 -0.18538
v -0.077817 0.83764 -0.32218
v 0.41916 0.49976 0.31186
v 0.43856 0.73868 0.21432
v 0.14912 0.49976 0.22994
v 0.18718 0.73868 0.13807
v 0.22225 0.26084 -0.385
v 0.088873 0.16188 -0.18538
v 0.09194 0.26084 -0.49194
v -0.077817 0.16188 -0.32218
v 0.53224 0.26084 -0.2566
v 0.4854 0.16188 -0.021136
v 0.37092 0.26084 -0.30553
v 0.27905 0.16188 -0.083733
v -0.044505 0.26084 0.01423
v -0.099752 0.49976 0.096913
v -0.24758 0.26084 -0.15243
v -0.31789 0.49976 -0.082109
v 0.37092 0.73868 -0.30553
v 0.27905 0.83764 -0.083733
v 0.40898 0.49976 -0.3974
v 0.2775 0.49976 -0.46768
v 0.18718 0.26084 0.13807
v -0.044505 0.73868 0.01423
v -0.24758 0.73868 -0.15243
v 0.43856 0.26084 0.21432
v 0.53224 0.73868 -0.2566
v 0.4854 0.83764 -0.021136
v 0.7 0.83764 0
v 0.68826 0.73868 0.23892
v -0.015003 0.73868 -0.62225
v -0.21462 0.83764 -0.48887
v 0.55164 0.49976 -0.35413
v -0.21462 0.16188 -0.48887
v -0.41423 0.26084 -0.3555
v 0.16226 0.49976 -0.56226
v -0.015003 0.26084 -0.62225
v -0.094468 0.26084 -0.77092
v -0.31627 0.16188 -0.67905
v -0.49691 0.49976 -0.30025
v -0.41423 0.73868 -0.3555
v -0.53807 0.26084 -0.58718
v -0.62994 0.49976 -0.54912
v 0.06768 0.49976 -0.6775
v -0.094468 0.73868 -0.77092
v -0.31627 0.83764 -0.67905
v -0.0025963 0.49976 -0.80898
v 0.71174 0.73868 -0.23892
v -0.53807 0.73868 -0.58718
v 0.9 0.26084 0.23892
v 0.9 0.49976 0.33788
v 0.68826 0.26084 0.23892
v 0.6834 0.49976 0.33788
v 0.9 0.73868 0.23892
v -0.63892 0.26084 -1.0883
v -0.61432 0.26084 -0.83856
v -0.73788 0.49976 -1.0834
v -0.71186 0.49976 -0.81916
v -0.045872 0.49976 -0.95164
v -0.1434 0.73868 -0.93224
v 0.9 0.83764 0
v 0.71174 0.26084 -0.23892
v 0.7 0.16188 -5.9605e-08
v -0.16108 0.73868 -1.1117
v -0.37886 0.83764 -0.8854
v -0.4 0.83764 -1.1
v -0.63892 0.73868 -1.0883
v -0.61432 0.73868 -0.83856
v 0.9 0.26084 -0.23892
v 0.9 0.16188 0
v 0.9 0.49976 -0.33788
v 0.7166 0.49976 -0.33788
v 0.9 0.73868 -0.23892
v -0.37886 0.16188 -0.8854
v -0.4 0.16188 -1.1
v -0.1434 0.26084 -0.93224
v -0.16108 0.26084 -1.1117
v -0.06212 0.49976 -1.1166
v -0.16108 0.73868 -1.3
v -0.4 0.83764 -1.3
v -0.16108 0.26084 -1.3
v -0.4 0.16188 -1.3
v -0.63892 0.26084 -1.3
v -0.73788 0.49976 -1.3
v -0.06212 0.49976 -1.3
v -0.63892 0.73868 -1.3
v 0.9 0.5 -0.5
v 0.9 0.85355 -0.35355
v 0.9 0.14645 -0.35355
v 0.9 0.5 -0.33764
v 0.9 0.26125 -0.23875
v 0.9 0.73875 -0.23875
v 0.9 1.5431e-14 1.4438e-15
v 0.9 0.16236 1.4438e-15
v 0.9 1 1.4438e-15
v 0.9 0.83764 1.4438e-15
v 0.9 0.73875 0.23875
v 0.9 0.14645 0.35355
v 0.9 0.85355 0.35355
v 0.9 0.26125 0.23875
v 0.9 0.5 0.33764
v 0.9 0.5 0.5
v 1 0.5 -0.5
v 1 0.85355 -0.35355
v 1 0.14645 0.35355
v 1 0.5 0.5
v 1 0.14645 -0.35355
v 1 0.5 -0.33764
v 1 0.73875 -0.23875
v 1 0.26125 -0.23875
v 1 1 1.4438e-15
v 1 0.83764 1.4438e-15
v 1 0 1.4438e-15
v 1 0.16236 1.4438e-15
v 1 0.26125 0.23875
v 1 0.85355 0.35355
v 1 0.73875 0.23875
v 1 0.5 0.33764
v -0.9 0.49976 -1.3
v -0.75355 0.85331 -1.3
v -0.75355 0.14621 -1.3
v -0.73764 0.49976 -1.3
v -0.63875 0.26101 -1.3
v -0.63875 0.73851 -1.3
v -0.4 -0.0002392 -1.3
v -0.4 0.16212 -1.3
v -0.4 0.99976 -1.3
v -0.4 0.8374 -1.3
v -0.16125 0.73851 -1.3
v -0.046447 0.14621 -1.3
v -0.046447 0.85331 -1.3
v -0.16125 0.26101 -1.3
v -0.062359 0.49976 -1.3
v 0.1 0.49976 -1.3
v -0.9 0.49976 -1.4
v -0.75355 0.85331 -1.4
v -0.046447 0.14621 -1.4
v 0.1 0.49976 -1.4
v -0.75355 0.14621 -1.4
v -0.73764 0.49976 -1.4
v -0.63875 0.73851 -1.4
v -0.63875 0.26101 -1.4
v -0.4 0.99976 -1.4
v -0.4 0.8374 -1.4
v -0.4 -0.0002392 -1.4
v -0.4 0.16212 -1.4
v -0.16125 0.26101 -1.4
v -0.046447 0.85331 -1.4
v -0.16125 0.73851 -1.4
v -0.062359 0.49976 -1.4
vn -0.00058611 0.99993 0.011931
vn -0.03497 0.70148 0.71183
vn -0.0046445 0.99972 0.02335
vn -0.13998 0.69656 0.70371
vn -0.0091105 0.99972 0.021995
vn -0.27458 0.69656 0.66288
vn 0.19509 0 -0.98079
vn 0.1353 0.72046 -0.68018
vn 0.38268 0 -0.92388
vn 0.26539 0.72046 -0.64071
vn 0.38529 0.72046 -0.57663
vn -0.013226 0.99972 0.019795
vn -0.38268 0 0.92388
vn -0.55557 0 0.83147
vn -0.39862 0.69656 0.59658
vn -0.19509 0 0.98079
vn -0.016834 0.99972 0.016834
vn -0.50735 0.69656 0.50735
vn 0.49038 0.72046 -0.49038
vn 0.55557 0 -0.83147
vn 0.70711 0 -0.70711
vn 0.1353 -0.72046 -0.68018
vn 0.26539 -0.72046 -0.64071
vn 0.38529 -0.72046 -0.57663
vn -0.13998 -0.69656 0.70371
vn -0.27458 -0.69656 0.66288
vn 0.49038 -0.72046 -0.49038
vn -0.013226 -0.99972 0.019795
vn -0.016834 -0.99972 0.016834
vn -0.0091105 -0.99972 0.021995
vn 0.57663 0.72046 -0.38529
vn -0.019795 0.99972 0.013226
vn -0.0046445 -0.99972 0.02335
vn -0.39862 -0.69656 0.59658
vn -0.50735 -0.69656 0.50735
vn -0.70711 0 0.70711
vn 0.57663 -0.72046 -0.38529
vn -0.019795 -0.99972 0.013226
vn 0.64071 -0.72046 -0.26539
vn -0.021995 -0.99972 0.0091105
vn -0.59658 -0.69656 0.39862
vn -0.83147 0 0.55557
vn -0.59658 0.69656 0.39862
vn -0.66288 -0.69656 0.27458
vn -0.92388 0 0.38268
vn 0.83147 0 -0.55557
vn 0.64071 0.72046 -0.26539
vn -0.021995 0.99972 0.0091106
vn 0.92388 0 -0.38268
vn 0.034383 0.71344 -0.69988
vn -0.03497 -0.70148 0.71183
vn -0.049068 0 0.9988
vn 0.034383 -0.71344 -0.69988
vn 0.049068 0 -0.9988
vn -0.00058611 -0.99993 0.011931
vn -0.02335 0.99972 0.0046445
vn -0.70371 0.69656 0.13998
vn -0.011931 0.99993 0.00058613
vn -0.71183 0.70148 0.03497
vn -0.66288 0.69656 0.27458
vn 0.9988 0 -0.049068
vn 0.98079 0 -0.19509
vn 0.69988 0.71344 -0.034383
vn 0.68018 0.72046 -0.1353
vn 0.68018 -0.72046 -0.1353
vn -0.71183 -0.70148 0.03497
vn -0.9988 0 0.049068
vn -0.70371 -0.69656 0.13998
vn -0.98079 0 0.19509
vn -0.02335 -0.99972 0.0046445
vn -0.011931 -0.99993 0.0005861
vn 0.69988 -0.71344 -0.034383
vn 0 -0.70711 -0.70711
vn 0 -1 0
vn 0 -0.70711 0.70711
vn 0 0.70711 -0.70711
vn 0 1 0
vn 0 0 -1
vn 0 0 1
vn 0 0.70711 0.70711
vn 0.70711 0.70711 0
vn 0.70711 -0.70711 0
vn 1 0 0
vn -0.70711 -0.70711 0
vn -1 0 0
vn -0.70711 0.70711 0
vn -0.38529 -0.72046 0.57663
vn -0.49038 -0.72046 0.49038
vn 0.013226 -0.99972 -0.019795
vn 0.016834 -0.99972 -0.016834
vn 0.13998 -0.69656 -0.70371
vn 0.27458 -0.69656 -0.66288
vn -0.38529 0.72046 0.57663
vn 0.013226 0.99972 -0.019795
vn -0.49038 0.72046 0.49038
vn 0.016834 0.99972 -0.016834
vn -0.1353 0.72046 0.68018
vn 0.0046445 0.99972 -0.02335
vn -0.26539 0.72046 0.64071
vn 0.0091105 0.99972 -0.021995
vn 0.39862 0.69656 -0.59658
vn 0.50735 0.69656 -0.50735
vn -0.26539 -0.72046 0.64071
vn 0.0091105 -0.99972 -0.021995
vn 0.27458 0.69656 -0.66288
vn 0.39862 -0.69656 -0.59658
vn 0.50735 -0.69656 -0.50735
vn 0.13998 0.69656 -0.70371
vn -0.1353 -0.72046 0.68018
vn 0.0046445 -0.99972 -0.02335
vn 0.00058611 -0.99993 -0.011931
vn 0.03497 -0.70148 -0.71183
vn -0.57663 -0.72046 0.38529
vn 0.019795 -0.99972 -0.013226
vn 0.019795 0.99972 -0.013226
vn 0.59658 0.69656 -0.39862
vn -0.57663 0.72046 0.38529
vn -0.64071 0.72046 0.26539
vn 0.021995 0.99972 -0.0091105
vn 0.59658 -0.69656 -0.39862
vn 0.66288 0.69656 -0.27458
vn -0.64071 -0.72046 0.26539
vn 0.021995 -0.99972 -0.0091106
vn -0.034383 -0.71344 0.69988
vn 0.66288 -0.69656 -0.27458
vn 0.03497 0.70148 -0.71183
vn 0.71183 0.70148 -0.03497
vn 0.70371 0.69656 -0.13998
vn -0.68018 -0.72046 0.1353
vn -0.034383 0.71344 0.69988
vn 0.00058611 0.99993 -0.011931
vn -0.69988 -0.71344 0.034383
vn 0.02335 -0.99972 -0.0046445
vn 0.011931 -0.99993 -0.00058613
vn 0.71183 -0.70148 -0.03497
vn 0.70371 -0.69656 -0.13998
vn 0.02335 0.99972 -0.0046445
vn 0.011931 0.99993 -0.0005861
vn -0.68018 0.72046 0.1353
vn -0.69988 0.71344 0.034383
vn 1.1921e-07 0 1
vn -1 0 1.1921e-07
vn -0.70711 0.70711 8.4294e-08
vn 0.70711 -0.70711 -8.4294e-08
vn 1 0 -1.1921e-07
vn -1.1921e-07 0 -1
vn 0.70711 0.70711 -8.4294e-08
vn -0.70711 -0.70711 8.4294e-08
vt 0.21875 0.225
vt 0.21875 0.19571
vt 0.21875 0.125
vt 0.21875 0.054289
vt 0.21875 0.025
vt 0.21875 0.025
vt 0.21875 0.19571
vt 0.21875 0.025
vt 0.21875 0.054289
vt 0.21875 0.125
vt 0.21875 0.025
vt 0.21875 0.18595
vt 0.21875 0.18595
vt 0.21875 0.21119
vt 0.21875 0.064052
vt 0.21875 0.038806
vt 0.21875 0.038806
vt 0.21875 0.064052
vt 0.21875 0.038806
vt 0.09375 0.125
vt 0.09375 0.16036
vt 0.09375 0.089645
vt 0.09375 0.10113
vt 0.09375 0.14887
vt 0.09375 0.075
vt 0.09375 0.091236
vt 0.09375 0.175
vt 0.09375 0.15876
usemtl colormap
f 3/1/3 2/2/2 1/1/1
f 2/2/2 3/1/3 4/2/4
f 5/1/5 4/2/4 3/1/3
f 4/2/4 5/1/5 6/2/6
f 9/3/9 8/2/8 7/3/7
f 8/2/8 9/3/9 10/2/10
f 10/2/10 3/1/3 8/2/8
f 3/1/3 10/2/10 5/1/5
f 11/2/11 5/1/5 10/2/10
f 5/1/5 11/2/11 12/1/12
f 6/2/6 14/3/14 13/3/13
f 14/3/14 6/2/6 15/2/15
f 4/2/4 13/3/13 16/3/16
f 13/3/13 4/2/4 6/2/6
f 12/1/12 6/2/6 5/1/5
f 6/2/6 12/1/12 15/2/15
f 17/1/17 15/2/15 12/1/12
f 15/2/15 17/1/17 18/2/18
f 19/2/19 12/1/12 11/2/11
f 12/1/12 19/2/19 17/1/17
f 21/3/21 11/2/11 20/3/20
f 11/2/11 21/3/21 19/2/19
f 20/3/20 10/2/10 9/3/9
f 10/2/10 20/3/20 11/2/11
f 23/4/23 7/3/7 22/4/22
f 7/3/7 23/4/23 9/3/9
f 24/4/24 9/3/9 23/4/23
f 9/3/9 24/4/24 20/3/20
f 16/3/16 26/4/26 25/4/25
f 26/4/26 16/3/16 13/3/13
f 28/5/28 27/4/27 24/4/24
f 27/4/27 28/5/28 29/6/29
f 30/5/30 24/4/24 23/4/23
f 24/4/24 30/5/30 28/5/28
f 31/2/31 17/1/17 19/2/19
f 17/1/17 31/2/31 32/1/32
f 25/4/25 30/5/30 33/5/33
f 30/5/30 25/4/25 26/4/26
f 26/4/26 28/5/28 30/5/30
f 28/5/28 26/4/26 34/4/34
f 13/3/13 34/4/34 26/4/26
f 34/4/34 13/3/13 14/3/14
f 34/4/34 29/6/29 28/5/28
f 29/6/29 34/4/34 35/4/35
f 27/4/27 20/3/20 24/4/24
f 20/3/20 27/4/27 21/3/21
f 33/5/33 23/4/23 22/4/22
f 23/4/23 33/5/33 30/5/30
f 14/3/14 35/4/35 34/4/34
f 35/4/35 14/3/14 36/3/36
f 15/2/15 36/3/36 14/3/14
f 36/3/36 15/2/15 18/2/18
f 29/6/29 37/4/37 27/4/27
f 37/4/37 29/6/29 38/6/38
f 38/6/38 39/4/39 37/4/37
f 39/4/39 38/6/38 40/6/40
f 35/4/35 42/3/42 41/4/41
f 42/3/42 35/4/35 36/3/36
f 35/4/35 38/6/38 29/6/29
f 38/6/38 35/4/35 41/4/41
f 42/3/42 18/2/18 43/2/43
f 18/2/18 42/3/42 36/3/36
f 41/4/41 40/6/40 38/6/38
f 40/6/40 41/4/41 44/4/44
f 41/4/41 45/3/45 44/4/44
f 45/3/45 41/4/41 42/3/42
f 21/3/21 37/4/37 46/3/46
f 37/4/37 21/3/21 27/4/27
f 31/2/31 21/3/21 46/3/46
f 21/3/21 31/2/31 19/2/19
f 47/2/47 32/1/32 31/2/31
f 32/1/32 47/2/47 48/1/48
f 32/1/32 18/2/18 17/1/17
f 18/2/18 32/1/32 43/2/43
f 47/2/47 46/3/46 49/3/49
f 46/3/46 47/2/47 31/2/31
f 46/3/46 39/4/39 49/3/49
f 39/4/39 46/3/46 37/4/37
f 8/2/8 1/1/1 50/2/50
f 1/1/1 8/2/8 3/1/3
f 52/3/52 25/4/25 51/4/51
f 25/4/25 52/3/52 16/3/16
f 22/4/22 54/3/54 53/4/53
f 54/3/54 22/4/22 7/3/7
f 2/2/2 16/3/16 52/3/52
f 16/3/16 2/2/2 4/2/4
f 7/3/7 50/2/50 54/3/54
f 50/2/50 7/3/7 8/2/8
f 55/5/55 22/4/22 53/4/53
f 22/4/22 55/5/55 33/5/33
f 51/4/51 33/5/33 55/5/55
f 33/5/33 51/4/51 25/4/25
f 58/1/58 57/2/57 56/1/56
f 57/2/57 58/1/58 59/7/59
f 56/1/56 60/2/60 48/1/48
f 60/2/60 56/1/56 57/2/57
f 63/7/63 62/3/62 61/3/61
f 62/3/62 63/7/63 64/2/64
f 49/3/49 65/4/65 62/3/62
f 65/4/65 49/3/49 39/4/39
f 68/4/68 67/3/67 66/4/66
f 67/3/67 68/4/68 69/3/69
f 68/4/68 71/8/71 70/8/70
f 71/8/71 68/4/68 66/4/66
f 64/2/64 49/3/49 62/3/62
f 49/3/49 64/2/64 47/2/47
f 63/7/63 56/1/56 64/2/64
f 56/1/56 63/7/63 58/1/58
f 67/3/67 57/2/57 59/7/59
f 57/2/57 67/3/67 69/3/69
f 62/3/62 72/9/72 61/3/61
f 72/9/72 62/3/62 65/4/65
f 48/1/48 43/2/43 32/1/32
f 43/2/43 48/1/48 60/2/60
f 64/2/64 48/1/48 47/2/47
f 48/1/48 64/2/64 56/1/56
f 44/4/44 69/3/69 68/4/68
f 69/3/69 44/4/44 45/3/45
f 69/3/69 60/2/60 57/2/57
f 60/2/60 69/3/69 45/3/45
f 70/8/70 72/9/72 65/4/65
f 72/9/72 70/8/70 71/8/71
f 44/4/44 70/8/70 40/6/40
f 70/8/70 44/4/44 68/4/68
f 40/6/40 65/4/65 39/4/39
f 65/4/65 40/6/40 70/8/70
f 45/3/45 43/2/43 60/2/60
f 43/2/43 45/3/45 42/3/42
f 74/5/74 53/4/53 73/4/73
f 53/4/53 74/5/74 55/5/55
f 75/4/75 55/5/55 74/5/74
f 55/5/55 75/4/75 51/4/51
f 50/2/50 77/1/77 76/2/76
f 77/1/77 50/2/50 1/1/1
f 54/3/54 73/4/73 53/4/53
f 73/4/73 54/3/54 78/3/78
f 50/2/50 78/3/78 54/3/54
f 78/3/78 50/2/50 76/2/76
f 79/3/79 51/4/51 75/4/75
f 51/4/51 79/3/79 52/3/52
f 80/2/80 52/3/52 79/3/79
f 52/3/52 80/2/80 2/2/2
f 1/1/1 80/2/80 77/1/77
f 80/2/80 1/1/1 2/2/2
f 82/1/77 63/7/63 81/7/81
f 63/7/63 82/1/77 58/1/58
f 84/10/83 72/9/72 83/9/82
f 72/9/72 84/10/83 61/3/61
f 72/9/72 85/11/74 83/9/82
f 85/11/74 72/9/72 71/8/71
f 71/8/71 86/9/84 85/11/74
f 86/9/84 71/8/71 66/4/66
f 86/9/84 67/3/67 87/10/85
f 67/3/67 86/9/84 66/4/66
f 67/3/67 88/7/86 87/10/85
f 88/7/86 67/3/67 59/7/59
f 88/7/86 58/1/58 82/1/77
f 58/1/58 88/7/86 59/7/59
f 63/7/63 84/10/83 81/7/81
f 84/10/83 63/7/63 61/3/61
f 91/14/89 90/13/88 89/12/87
f 90/13/88 91/14/89 92/14/90
f 95/3/9 94/12/91 93/3/7
f 94/12/91 95/3/9 96/12/92
f 99/15/95 98/16/94 97/15/93
f 98/16/94 99/15/95 100/16/96
f 103/15/99 102/16/98 101/15/97
f 102/16/98 103/15/99 104/16/100
f 107/15/102 106/3/20 105/15/101
f 106/3/20 107/15/102 108/3/21
f 110/14/104 89/12/87 109/12/103
f 89/12/87 110/14/104 91/14/89
f 109/12/103 112/3/14 111/3/13
f 112/3/14 109/12/103 89/12/87
f 105/15/101 95/3/9 113/15/105
f 95/3/9 105/15/101 106/3/20
f 96/12/92 91/14/89 110/14/104
f 91/14/89 96/12/92 114/12/106
f 114/12/106 92/14/90 91/14/89
f 92/14/90 114/12/106 115/12/107
f 113/15/105 93/3/7 116/15/108
f 93/3/7 113/15/105 95/3/9
f 118/14/110 109/12/103 117/12/109
f 109/12/103 118/14/110 110/14/104
f 120/12/112 118/14/110 119/14/111
f 118/14/110 120/12/112 94/12/91
f 106/3/20 96/12/92 95/3/9
f 96/12/92 106/3/20 114/12/106
f 92/14/90 121/13/113 90/13/88
f 121/13/113 92/14/90 122/14/114
f 123/3/16 103/15/99 101/15/97
f 103/15/99 123/3/16 111/3/13
f 104/16/100 116/15/108 102/16/98
f 116/15/108 104/16/100 113/15/105
f 108/3/21 114/12/106 106/3/20
f 114/12/106 108/3/21 115/12/107
f 124/17/115 107/15/102 100/16/96
f 107/15/102 124/17/115 125/15/116
f 98/16/94 113/15/105 104/16/100
f 113/15/105 98/16/94 105/15/101
f 94/12/91 110/14/104 118/14/110
f 110/14/104 94/12/91 96/12/92
f 117/12/109 111/3/13 123/3/16
f 111/3/13 117/12/109 109/12/103
f 111/3/13 97/15/93 103/15/99
f 97/15/93 111/3/13 112/3/14
f 112/3/14 99/15/95 97/15/93
f 99/15/95 112/3/14 126/3/36
f 128/15/118 124/17/115 127/15/117
f 124/17/115 128/15/118 129/17/119
f 130/3/46 107/15/102 125/15/116
f 107/15/102 130/3/46 108/3/21
f 115/12/107 130/3/46 131/12/120
f 130/3/46 115/12/107 108/3/21
f 129/17/119 125/15/116 124/17/115
f 125/15/116 129/17/119 132/15/121
f 89/12/87 126/3/36 112/3/14
f 126/3/36 89/12/87 90/13/88
f 133/3/49 125/15/116 132/15/121
f 125/15/116 133/3/49 130/3/46
f 127/15/117 126/3/36 134/3/42
f 126/3/36 127/15/117 99/15/95
f 97/15/93 104/16/100 103/15/99
f 104/16/100 97/15/93 98/16/94
f 127/15/117 100/16/96 99/15/95
f 100/16/96 127/15/117 124/17/115
f 126/3/36 121/13/113 134/3/42
f 121/13/113 126/3/36 90/13/88
f 122/14/114 135/13/122 121/13/113
f 135/13/122 122/14/114 136/14/123
f 115/12/107 122/14/114 92/14/90
f 122/14/114 115/12/107 131/12/120
f 134/3/42 135/13/122 137/3/45
f 135/13/122 134/3/42 121/13/113
f 128/15/118 134/3/42 137/3/45
f 134/3/42 128/15/118 127/15/117
f 100/16/96 105/15/101 98/16/94
f 105/15/101 100/16/96 107/15/102
f 119/14/111 117/12/109 138/12/124
f 117/12/109 119/14/111 118/14/110
f 131/12/120 133/3/49 139/13/125
f 133/3/49 131/12/120 130/3/46
f 142/15/126 141/3/78 140/15/76
f 141/3/78 142/15/126 143/3/54
f 143/3/54 144/12/73 141/3/78
f 144/12/73 143/3/54 120/12/112
f 147/3/61 146/15/128 145/18/127
f 146/15/128 147/3/61 148/3/62
f 137/3/45 150/13/129 149/3/69
f 150/13/129 137/3/45 135/13/122
f 144/12/73 119/14/111 151/14/74
f 119/14/111 144/12/73 120/12/112
f 101/15/97 153/19/131 152/15/130
f 153/19/131 101/15/97 102/16/98
f 155/14/133 154/13/132 150/13/129
f 154/13/132 155/14/133 156/14/134
f 158/13/136 147/3/61 157/13/135
f 147/3/61 158/13/136 148/3/62
f 152/15/130 160/19/77 159/15/80
f 160/19/77 152/15/130 153/19/131
f 93/3/7 120/12/112 143/3/54
f 120/12/112 93/3/7 94/12/91
f 102/16/98 142/15/126 153/19/131
f 142/15/126 102/16/98 116/15/108
f 163/12/75 162/3/52 161/3/79
f 162/3/52 163/12/75 138/12/124
f 136/14/123 150/13/129 135/13/122
f 150/13/129 136/14/123 155/14/133
f 116/15/108 143/3/54 142/15/126
f 143/3/54 116/15/108 93/3/7
f 139/13/125 148/3/62 158/13/136
f 148/3/62 139/13/125 133/3/49
f 165/17/138 146/15/128 164/17/137
f 146/15/128 165/17/138 145/18/127
f 139/13/125 155/14/133 136/14/123
f 155/14/133 139/13/125 158/13/136
f 159/15/80 162/3/52 152/15/130
f 162/3/52 159/15/80 161/3/79
f 166/18/139 129/17/119 128/15/118
f 129/17/119 166/18/139 164/17/137
f 166/18/139 137/3/45 149/3/69
f 137/3/45 166/18/139 128/15/118
f 131/12/120 136/14/123 122/14/114
f 136/14/123 131/12/120 139/13/125
f 167/18/140 164/17/137 166/18/139
f 164/17/137 167/18/140 165/17/138
f 167/18/140 149/3/69 168/3/67
f 149/3/69 167/18/140 166/18/139
f 138/12/124 123/3/16 162/3/52
f 123/3/16 138/12/124 117/12/109
f 158/13/136 156/14/134 155/14/133
f 156/14/134 158/13/136 157/13/135
f 149/3/69 154/13/132 168/3/67
f 154/13/132 149/3/69 150/13/129
f 154/13/132 170/14/74 169/13/84
f 170/14/74 154/13/132 156/14/134
f 151/14/74 138/12/124 163/12/75
f 138/12/124 151/14/74 119/14/111
f 148/3/62 132/15/121 146/15/128
f 132/15/121 148/3/62 133/3/49
f 153/19/131 140/15/76 160/19/77
f 140/15/76 153/19/131 142/15/126
f 162/3/52 101/15/97 152/15/130
f 101/15/97 162/3/52 123/3/16
f 164/17/137 132/15/121 129/17/119
f 132/15/121 164/17/137 146/15/128
f 172/17/77 167/18/140 171/18/86
f 167/18/140 172/17/77 165/17/138
f 173/18/81 165/17/138 172/17/77
f 165/17/138 173/18/81 145/18/127
f 147/3/61 173/18/81 174/10/83
f 173/18/81 147/3/61 145/18/127
f 167/18/140 175/10/85 171/18/86
f 175/10/85 167/18/140 168/3/67
f 156/14/134 176/13/82 170/14/74
f 176/13/82 156/14/134 157/13/135
f 175/10/85 154/13/132 169/13/84
f 154/13/132 175/10/85 168/3/67
f 176/13/82 147/3/61 174/10/83
f 147/3/61 176/13/82 157/13/135
f 179/22/85 178/21/85 177/20/85
f 178/21/85 179/22/85 180/20/85
f 180/20/85 179/22/85 181/23/85
f 182/24/85 178/21/85 180/20/85
f 181/23/85 179/22/85 183/25/85
f 181/23/85 183/25/85 184/26/85
f 178/21/85 182/24/85 185/27/85
f 185/27/85 182/24/85 186/28/85
f 185/27/85 186/28/85 187/24/85
f 184/26/85 183/25/85 188/22/85
f 185/27/85 187/24/85 189/21/85
f 184/26/85 188/22/85 190/23/85
f 189/21/85 187/24/85 191/20/85
f 190/23/85 188/22/85 191/20/85
f 189/21/85 191/20/85 188/22/85
f 189/21/85 188/22/85 192/20/85
f 177/20/78 194/21/76 193/20/78
f 194/21/76 177/20/78 178/21/76
f 196/20/79 188/22/75 195/22/75
f 188/22/75 196/20/79 192/20/79
f 194/21/83 197/22/83 193/20/83
f 197/22/83 194/21/83 198/20/83
f 198/20/83 194/21/83 199/24/83
f 200/23/83 197/22/83 198/20/83
f 199/24/83 194/21/83 201/27/83
f 199/24/83 201/27/83 202/28/83
f 197/22/83 200/23/83 203/25/83
f 203/25/83 200/23/83 204/26/83
f 203/25/83 204/26/83 205/23/83
f 202/28/83 201/27/83 206/21/83
f 203/25/83 205/23/83 195/22/83
f 202/28/83 206/21/83 207/24/83
f 195/22/83 205/23/83 208/20/83
f 207/24/83 206/21/83 208/20/83
f 195/22/83 208/20/83 206/21/83
f 195/22/83 206/21/83 196/20/83
f 194/21/76 185/27/77 201/27/77
f 185/27/77 194/21/76 178/21/76
f 188/22/75 203/25/74 195/22/75
f 203/25/74 188/22/75 183/25/74
f 185/27/77 206/21/80 201/27/77
f 206/21/80 185/27/77 189/21/80
f 203/25/74 179/22/73 197/22/73
f 179/22/73 203/25/74 183/25/74
f 206/21/80 192/20/79 196/20/79
f 192/20/79 206/21/80 189/21/80
f 179/22/73 193/20/78 197/22/73
f 193/20/78 179/22/73 177/20/78
f 186/28/74 199/24/75 202/28/74
f 199/24/75 186/28/74 182/24/75
f 199/24/75 180/20/79 198/20/79
f 180/20/79 199/24/75 182/24/75
f 198/20/79 181/23/80 200/23/80
f 181/23/80 198/20/79 180/20/79
f 181/23/80 204/26/77 200/23/80
f 204/26/77 181/23/80 184/26/77
f 204/26/77 190/23/76 205/23/76
f 190/23/76 204/26/77 184/26/77
f 190/23/76 208/20/78 205/23/76
f 208/20/78 190/23/76 191/20/78
f 191/20/78 207/24/73 208/20/78
f 207/24/73 191/20/78 187/24/73
f 207/24/73 186/28/74 202/28/74
f 186/28/74 207/24/73 187/24/73
f 211/22/141 210/21/141 209/20/141
f 210/21/141 211/22/141 212/20/141
f 212/20/141 211/22/141 213/23/141
f 214/24/141 210/21/141 212/20/141
f 213/23/141 211/22/141 215/25/141
f 213/23/141 215/25/141 216/26/141
f 210/21/141 214/24/141 217/27/141
f 217/27/141 214/24/141 218/28/141
f 217/27/141 218/28/141 219/24/141
f 216/26/141 215/25/141 220/22/141
f 217/27/141 219/24/141 221/21/141
f 216/26/141 220/22/141 222/23/141
f 221/21/141 219/24/141 223/20/141
f 222/23/141 220/22/141 223/20/141
f 221/21/141 223/20/141 220/22/141
f 221/21/141 220/22/141 224/20/141
f 209/20/142 226/21/143 225/20/142
f 226/21/143 209/20/142 210/21/143
f 228/20/145 220/22/144 227/22/144
f 220/22/144 228/20/145 224/20/145
f 226/21/146 229/22/146 225/20/146
f 229/22/146 226/21/146 230/20/146
f 230/20/146 226/21/146 231/24/146
f 232/23/146 229/22/146 230/20/146
f 231/24/146 226/21/146 233/27/146
f 231/24/146 233/27/146 234/28/146
f 229/22/146 232/23/146 235/25/146
f 235/25/146 232/23/146 236/26/146
f 235/25/146 236/26/146 237/23/146
f 234/28/146 233/27/146 238/21/146
f 235/25/146 237/23/146 227/22/146
f 234/28/146 238/21/146 239/24/146
f 227/22/146 237/23/146 240/20/146
f 239/24/146 238/21/146 240/20/146
f 227/22/146 240/20/146 238/21/146
f 227/22/146 238/21/146 228/20/146
f 226/21/143 217/27/77 233/27/77
f 217/27/77 226/21/143 210/21/143
f 220/22/144 235/25/74 227/22/144
f 235/25/74 220/22/144 215/25/74
f 217/27/77 238/21/147 233/27/77
f 238/21/147 217/27/77 221/21/147
f 235/25/74 211/22/148 229/22/148
f 211/22/148 235/25/74 215/25/74
f 238/21/147 224/20/145 228/20/145
f 224/20/145 238/21/147 221/21/147
f 211/22/148 225/20/142 229/22/148
f 225/20/142 211/22/148 209/20/142
f 218/28/74 231/24/144 234/28/74
f 231/24/144 218/28/74 214/24/144
f 231/24/144 212/20/145 230/20/145
f 212/20/145 231/24/144 214/24/144
f 230/20/145 213/23/147 232/23/147
f 213/23/147 230/20/145 212/20/145
f 213/23/147 236/26/77 232/23/147
f 236/26/77 213/23/147 216/26/77
f 236/26/77 222/23/143 237/23/143
f 222/23/143 236/26/77 216/26/77
f 222/23/143 240/20/142 237/23/143
f 240/20/142 222/23/143 223/20/142
f 223/20/142 239/24/148 240/20/142
f 239/24/148 223/20/142 219/24/148
f 239/24/148 218/28/74 234/28/74
f 218/28/74 239/24/148 219/24/148
g pipe-large-bend
usemtl colormap
f 3/1/3 2/2/2 1/1/1
f 2/2/2 3/1/3 4/2/4
f 5/1/5 4/2/4 3/1/3
f 4/2/4 5/1/5 6/2/6
f 9/3/9 8/2/8 7/3/7
f 8/2/8 9/3/9 10/2/10
f 10/2/10 3/1/3 8/2/8
f 3/1/3 10/2/10 5/1/5
f 11/2/11 5/1/5 10/2/10
f 5/1/5 11/2/11 12/1/12
f 6/2/6 14/3/14 13/3/13
f 14/3/14 6/2/6 15/2/15
f 4/2/4 13/3/13 16/3/16
f 13/3/13 4/2/4 6/2/6
f 12/1/12 6/2/6 5/1/5
f 6/2/6 12/1/12 15/2/15
f 17/1/17 15/2/15 12/1/12
f 15/2/15 17/1/17 18/2/18
f 19/2/19 12/1/12 11/2/11
f 12/1/12 19/2/19 17/1/17
f 21/3/21 11/2/11 20/3/20
f 11/2/11 21/3/21 19/2/19
f 20/3/20 10/2/10 9/3/9
f 10/2/10 20/3/20 11/2/11
f 23/4/23 7/3/7 22/4/22
f 7/3/7 23/4/23 9/3/9
f 24/4/24 9/3/9 23/4/23
f 9/3/9 24/4/24 20/3/20
f 16/3/16 26/4/26 25/4/25
f 26/4/26 16/3/16 13/3/13
f 28/5/28 27/4/27 24/4/24
f 27/4/27 28/5/28 29/6/29
f 30/5/30 24/4/24 23/4/23
f 24/4/24 30/5/30 28/5/28
f 31/2/31 17/1/17 19/2/19
f 17/1/17 31/2/31 32/1/32
f 25/4/25 30/5/30 33/5/33
f 30/5/30 25/4/25 26/4/26
f 26/4/26 28/5/28 30/5/30
f 28/5/28 26/4/26 34/4/34
f 13/3/13 34/4/34 26/4/26
f 34/4/34 13/3/13 14/3/14
f 34/4/34 29/6/29 28/5/28
f 29/6/29 34/4/34 35/4/35
f 27/4/27 20/3/20 24/4/24
f 20/3/20 27/4/27 21/3/21
f 33/5/33 23/4/23 22/4/22
f 23/4/23 33/5/33 30/5/30
f 14/3/14 35/4/35 34/4/34
f 35/4/35 14/3/14 36/3/36
f 15/2/15 36/3/36 14/3/14
f 36/3/36 15/2/15 18/2/18
f 29/6/29 37/4/37 27/4/27
f 37/4/37 29/6/29 38/6/38
f 38/6/38 39/4/39 37/4/37
f 39/4/39 38/6/38 40/6/40
f 35/4/35 42/3/42 41/4/41
f 42/3/42 35/4/35 36/3/36
f 35/4/35 38/6/38 29/6/29
f 38/6/38 35/4/35 41/4/41
f 42/3/42 18/2/18 43/2/43
f 18/2/18 42/3/42 36/3/36
f 41/4/41 40/6/40 38/6/38
f 40/6/40 41/4/41 44/4/44
f 41/4/41 45/3/45 44/4/44
f 45/3/45 41/4/41 42/3/42
f 21/3/21 37/4/37 46/3/46
f 37/4/37 21/3/21 27/4/27
f 31/2/31 21/3/21 46/3/46
f 21/3/21 31/2/31 19/2/19
f 47/2/47 32/1/32 31/2/31
f 32/1/32 47/2/47 48/1/48
f 32/1/32 18/2/18 17/1/17
f 18/2/18 32/1/32 43/2/43
f 47/2/47 46/3/46 49/3/49
f 46/3/46 47/2/47 31/2/31
f 46/3/46 39/4/39 49/3/49
f 39/4/39 46/3/46 37/4/37
f 8/2/8 1/1/1 50/2/50
f 1/1/1 8/2/8 3/1/3
f 52/3/52 25/4/25 51/4/51
f 25/4/25 52/3/52 16/3/16
f 22/4/22 54/3/54 53/4/53
f 54/3/54 22/4/22 7/3/7
f 2/2/2 16/3/16 52/3/52
f 16/3/16 2/2/2 4/2/4
f 7/3/7 50/2/50 54/3/54
f 50/2/50 7/3/7 8/2/8
f 55/5/55 22/4/22 53/4/53
f 22/4/22 55/5/55 33/5/33
f 51/4/51 33/5/33 55/5/55
f 33/5/33 51/4/51 25/4/25
f 58/1/58 57/2/57 56/1/56
f 57/2/57 58/1/58 59/7/59
f 56/1/56 60/2/60 48/1/48
f 60/2/60 56/1/56 57/2/57
f 63/7/63 62/3/62 61/3/61
f 62/3/62 63/7/63 64/2/64
f 49/3/49 65/4/65 62/3/62
f 65/4/65 49/3/49 39/4/39
f 68/4/68 67/3/67 66/4/66
f 67/3/67 68/4/68 69/3/69
f 68/4/68 71/8/71 70/8/70
f 71/8/71 68/4/68 66/4/66
f 64/2/64 49/3/49 62/3/62
f 49/3/49 64/2/64 47/2/47
f 63/7/63 56/1/56 64/2/64
f 56/1/56 63/7/63 58/1/58
f 67/3/67 57/2/57 59/7/59
f 57/2/57 67/3/67 69/3/69
f 62/3/62 72/9/72 61/3/61
f 72/9/72 62/3/62 65/4/65
f 48/1/48 43/2/43 32/1/32
f 43/2/43 48/1/48 60/2/60
f 64/2/64 48/1/48 47/2/47
f 48/1/48 64/2/64 56/1/56
f 44/4/44 69/3/69 68/4/68
f 69/3/69 44/4/44 45/3/45
f 69/3/69 60/2/60 57/2/57
f 60/2/60 69/3/69 45/3/45
f 70/8/70 72/9/72 65/4/65
f 72/9/72 70/8/70 71/8/71
f 44/4/44 70/8/70 40/6/40
f 70/8/70 44/4/44 68/4/68
f 40/6/40 65/4/65 39/4/39
f 65/4/65 40/6/40 70/8/70
f 45/3/45 43/2/43 60/2/60
f 43/2/43 45/3/45 42/3/42
f 74/5/74 53/4/53 73/4/73
f 53/4/53 74/5/74 55/5/55
f 75/4/75 55/5/55 74/5/74
f 55/5/55 75/4/75 51/4/51
f 50/2/50 77/1/77 76/2/76
f 77/1/77 50/2/50 1/1/1
f 54/3/54 73/4/73 53/4/53
f 73/4/73 54/3/54 78/3/78
f 50/2/50 78/3/78 54/3/54
f 78/3/78 50/2/50 76/2/76
f 79/3/79 51/4/51 75/4/75
f 51/4/51 79/3/79 52/3/52
f 80/2/80 52/3/52 79/3/79
f 52/3/52 80/2/80 2/2/2
f 1/1/1 80/2/80 77/1/77
f 80/2/80 1/1/1 2/2/2
f 82/1/77 63/7/63 81/7/81
f 63/7/63 82/1/77 58/1/58
f 84/10/83 72/9/72 83/9/82
f 72/9/72 84/10/83 61/3/61
f 72/9/72 85/11/74 83/9/82
f 85/11/74 72/9/72 71/8/71
f 71/8/71 86/9/84 85/11/74
f 86/9/84 71/8/71 66/4/66
f 86/9/84 67/3/67 87/10/85
f 67/3/67 86/9/84 66/4/66
f 67/3/67 88/7/86 87/10/85
f 88/7/86 67/3/67 59/7/59
f 88/7/86 58/1/58 82/1/77
f 58/1/58 88/7/86 59/7/59
f 63/7/63 84/10/83 81/7/81
f 84/10/83 63/7/63 61/3/61
f 91/14/89 90/13/88 89/12/87
f 90/13/88 91/14/89 92/14/90
f 95/3/9 94/12/91 93/3/7
f 94/12/91 95/3/9 96/12/92
f 99/15/95 98/16/94 97/15/93
f 98/16/94 99/15/95 100/16/96
f 103/15/99 102/16/98 101/15/97
f 102/16/98 103/15/99 104/16/100
f 107/15/102 106/3/20 105/15/101
f 106/3/20 107/15/102 108/3/21
f 110/14/104 89/12/87 109/12/103
f 89/12/87 110/14/104 91/14/89
f 109/12/103 112/3/14 111/3/13
f 112/3/14 109/12/103 89/12/87
f 105/15/101 95/3/9 113/15/105
f 95/3/9 105/15/101 106/3/20
f 96/12/92 91/14/89 110/14/104
f 91/14/89 96/12/92 114/12/106
f 114/12/106 92/14/90 91/14/89
f 92/14/90 114/12/106 115/12/107
f 113/15/105 93/3/7 116/15/108
f 93/3/7 113/15/105 95/3/9
f 118/14/110 109/12/103 117/12/109
f 109/12/103 118/14/110 110/14/104
f 120/12/112 118/14/110 119/14/111
f 118/14/110 120/12/112 94/12/91
f 106/3/20 96/12/92 95/3/9
f 96/12/92 106/3/20 114/12/106
f 92/14/90 121/13/113 90/13/88
f 121/13/113 92/14/90 122/14/114
f 123/3/16 103/15/99 101/15/97
f 103/15/99 123/3/16 111/3/13
f 104/16/100 116/15/108 102/16/98
f 116/15/108 104/16/100 113/15/105
f 108/3/21 114/12/106 106/3/20
f 114/12/106 108/3/21 115/12/107
f 124/17/115 107/15/102 100/16/96
f 107/15/102 124/17/115 125/15/116
f 98/16/94 113/15/105 104/16/100
f 113/15/105 98/16/94 105/15/101
f 94/12/91 110/14/104 118/14/110
f 110/14/104 94/12/91 96/12/92
f 117/12/109 111/3/13 123/3/16
f 111/3/13 117/12/109 109/12/103
f 111/3/13 97/15/93 103/15/99
f 97/15/93 111/3/13 112/3/14
f 112/3/14 99/15/95 97/15/93
f 99/15/95 112/3/14 126/3/36
f 128/15/118 124/17/115 127/15/117
f 124/17/115 128/15/118 129/17/119
f 130/3/46 107/15/102 125/15/116
f 107/15/102 130/3/46 108/3/21
f 115/12/107 130/3/46 131/12/120
f 130/3/46 115/12/107 108/3/21
f 129/17/119 125/15/116 124/17/115
f 125/15/116 129/17/119 132/15/121
f 89/12/87 126/3/36 112/3/14
f 126/3/36 89/12/87 90/13/88
f 133/3/49 125/15/116 132/15/121
f 125/15/116 133/3/49 130/3/46
f 127/15/117 126/3/36 134/3/42
f 126/3/36 127/15/117 99/15/95
f 97/15/93 104/16/100 103/15/99
f 104/16/100 97/15/93 98/16/94
f 127/15/117 100/16/96 99/15/95
f 100/16/96 127/15/117 124/17/115
f 126/3/36 121/13/113 134/3/42
f 121/13/113 126/3/36 90/13/88
f 122/14/114 135/13/122 121/13/113
f 135/13/122 122/14/114 136/14/123
f 115/12/107 122/14/114 92/14/90
f 122/14/114 115/12/107 131/12/120
f 134/3/42 135/13/122 137/3/45
f 135/13/122 134/3/42 121/13/113
f 128/15/118 134/3/42 137/3/45
f 134/3/42 128/15/118 127/15/117
f 100/16/96 105/15/101 98/16/94
f 105/15/101 100/16/96 107/15/102
f 119/14/111 117/12/109 138/12/124
f 117/12/109 119/14/111 118/14/110
f 131/12/120 133/3/49 139/13/125
f 133/3/49 131/12/120 130/3/46
f 142/15/126 141/3/78 140/15/76
f 141/3/78 142/15/126 143/3/54
f 143/3/54 144/12/73 141/3/78
f 144/12/73 143/3/54 120/12/112
f 147/3/61 146/15/128 145/18/127
f 146/15/128 147/3/61 148/3/62
f 137/3/45 150/13/129 149/3/69
f 150/13/129 137/3/45 135/13/122
f 144/12/73 119/14/111 151/14/74
f 119/14/111 144/12/73 120/12/112
f 101/15/97 153/19/131 152/15/130
f 153/19/131 101/15/97 102/16/98
f 155/14/133 154/13/132 150/13/129
f 154/13/132 155/14/133 156/14/134
f 158/13/136 147/3/61 157/13/135
f 147/3/61 158/13/136 148/3/62
f 152/15/130 160/19/77 159/15/80
f 160/19/77 152/15/130 153/19/131
f 93/3/7 120/12/112 143/3/54
f 120/12/112 93/3/7 94/12/91
f 102/16/98 142/15/126 153/19/131
f 142/15/126 102/16/98 116/15/108
f 163/12/75 162/3/52 161/3/79
f 162/3/52 163/12/75 138/12/124
f 136/14/123 150/13/129 135/13/122
f 150/13/129 136/14/123 155/14/133
f 116/15/108 143/3/54 142/15/126
f 143/3/54 116/15/108 93/3/7
f 139/13/125 148/3/62 158/13/136
f 148/3/62 139/13/125 133/3/49
f 165/17/138 146/15/128 164/17/137
f 146/15/128 165/17/138 145/18/127
f 139/13/125 155/14/133 136/14/123
f 155/14/133 139/13/125 158/13/136
f 159/15/80 162/3/52 152/15/130
f 162/3/52 159/15/80 161/3/79
f 166/18/139 129/17/119 128/15/118
f 129/17/119 166/18/139 164/17/137
f 166/18/139 137/3/45 149/3/69
f 137/3/45 166/18/139 128/15/118
f 131/12/120 136/14/123 122/14/114
f 136/14/123 131/12/120 139/13/125
f 167/18/140 164/17/137 166/18/139
f 164/17/137 167/18/140 165/17/138
f 167/18/140 149/3/69 168/3/67
f 149/3/69 167/18/140 166/18/139
f 138/12/124 123/3/16 162/3/52
f 123/3/16 138/12/124 117/12/109
f 158/13/136 156/14/134 155/14/133
f 156/14/134 158/13/136 157/13/135
f 149/3/69 154/13/132 168/3/67
f 154/13/132 149/3/69 150/13/129
f 154/13/132 170/14/74 169/13/84
f 170/14/74 154/13/132 156/14/134
f 151/14/74 138/12/124 163/12/75
f 138/12/124 151/14/74 119/14/111
f 148/3/62 132/15/121 146/15/128
f 132/15/121 148/3/62 133/3/49
f 153/19/131 140/15/76 160/19/77
f 140/15/76 153/19/131 142/15/126
f 162/3/52 101/15/97 152/15/130
f 101/15/97 162/3/52 123/3/16
f 164/17/137 132/15/121 129/17/119
f 132/15/121 164/17/137 146/15/128
f 172/17/77 167/18/140 171/18/86
f 167/18/140 172/17/77 165/17/138
f 173/18/81 165/17/138 172/17/77
f 165/17/138 173/18/81 145/18/127
f 147/3/61 173/18/81 174/10/83
f 173/18/81 147/3/61 145/18/127
f 167/18/140 175/10/85 171/18/86
f 175/10/85 167/18/140 168/3/67
f 156/14/134 176/13/82 170/14/74
f 176/13/82 156/14/134 157/13/135
f 175/10/85 154/13/132 169/13/84
f 154/13/132 175/10/85 168/3/67
f 176/13/82 147/3/61 174/10/83
f 147/3/61 176/13/82 157/13/135
f 179/22/85 178/21/85 177/20/85
f 178/21/85 179/22/85 180/20/85
f 180/20/85 179/22/85 181/23/85
f 182/24/85 178/21/85 180/20/85
f 181/23/85 179/22/85 183/25/85
f 181/23/85 183/25/85 184/26/85
f 178/21/85 182/24/85 185/27/85
f 185/27/85 182/24/85 186/28/85
f 185/27/85 186/28/85 187/24/85
f 184/26/85 183/25/85 188/22/85
f 185/27/85 187/24/85 189/21/85
f 184/26/85 188/22/85 190/23/85
f 189/21/85 187/24/85 191/20/85
f 190/23/85 188/22/85 191/20/85
f 189/21/85 191/20/85 188/22/85
f 189/21/85 188/22/85 192/20/85
f 177/20/78 194/21/76 193/20/78
f 194/21/76 177/20/78 178/21/76
f 196/20/79 188/22/75 195/22/75
f 188/22/75 196/20/79 192/20/79
f 194/21/83 197/22/83 193/20/83
f 197/22/83 194/21/83 198/20/83
f 198/20/83 194/21/83 199/24/83
f 200/23/83 197/22/83 198/20/83
f 199/24/83 194/21/83 201/27/83
f 199/24/83 201/27/83 202/28/83
f 197/22/83 200/23/83 203/25/83
f 203/25/83 200/23/83 204/26/83
f 203/25/83 204/26/83 205/23/83
f 202/28/83 201/27/83 206/21/83
f 203/25/83 205/23/83 195/22/83
f 202/28/83 206/21/83 207/24/83
f 195/22/83 205/23/83 208/20/83
f 207/24/83 206/21/83 208/20/83
f 195/22/83 208/20/83 206/21/83
f 195/22/83 206/21/83 196/20/83
f 194/21/76 185/27/77 201/27/77
f 185/27/77 194/21/76 178/21/76
f 188/22/75 203/25/74 195/22/75
f 203/25/74 188/22/75 183/25/74
f 185/27/77 206/21/80 201/27/77
f 206/21/80 185/27/77 189/21/80
f 203/25/74 179/22/73 197/22/73
f 179/22/73 203/25/74 183/25/74
f 206/21/80 192/20/79 196/20/79
f 192/20/79 206/21/80 189/21/80
f 179/22/73 193/20/78 197/22/73
f 193/20/78 179/22/73 177/20/78
f 186/28/74 199/24/75 202/28/74
f 199/24/75 186/28/74 182/24/75
f 199/24/75 180/20/79 198/20/79
f 180/20/79 199/24/75 182/24/75
f 198/20/79 181/23/80 200/23/80
f 181/23/80 198/20/79 180/20/79
f 181/23/80 204/26/77 200/23/80
f 204/26/77 181/23/80 184/26/77
f 204/26/77 190/23/76 205/23/76
f 190/23/76 204/26/77 184/26/77
f 190/23/76 208/20/78 205/23/76
f 208/20/78 190/23/76 191/20/78
f 191/20/78 207/24/73 208/20/78
f 207/24/73 191/20/78 187/24/73
f 207/24/73 186/28/74 202/28/74
f 186/28/74 207/24/73 187/24/73
f 211/22/141 210/21/141 209/20/141
f 210/21/141 211/22/141 212/20/141
f 212/20/141 211/22/141 213/23/141
f 214/24/141 210/21/141 212/20/141
f 213/23/141 211/22/141 215/25/141
f 213/23/141 215/25/141 216/26/141
f 210/21/141 214/24/141 217/27/141
f 217/27/141 214/24/141 218/28/141
f 217/27/141 218/28/141 219/24/141
f 216/26/141 215/25/141 220/22/141
f 217/27/141 219/24/141 221/21/141
f 216/26/141 220/22/141 222/23/141
f 221/21/141 219/24/141 223/20/141
f 222/23/141 220/22/141 223/20/141
f 221/21/141 223/20/141 220/22/141
f 221/21/141 220/22/141 224/20/141
f 209/20/142 226/21/143 225/20/142
f 226/21/143 209/20/142 210/21/143
f 228/20/145 220/22/144 227/22/144
f 220/22/144 228/20/145 224/20/145
f 226/21/146 229/22/146 225/20/146
f 229/22/146 226/21/146 230/20/146
f 230/20/146 226/21/146 231/24/146
f 232/23/146 229/22/146 230/20/146
f 231/24/146 226/21/146 233/27/146
f 231/24/146 233/27/146 234/28/146
f 229/22/146 232/23/146 235/25/146
f 235/25/146 232/23/146 236/26/146
f 235/25/146 236/26/146 237/23/146
f 234/28/146 233/27/146 238/21/146
f 235/25/146 237/23/146 227/22/146
f 234/28/146 238/21/146 239/24/146
f 227/22/146 237/23/146 240/20/146
f 239/24/146 238/21/146 240/20/146
f 227/22/146 240/20/146 238/21/146
f 227/22/146 238/21/146 228/20/146
f 226/21/143 217/27/77 233/27/77
f 217/27/77 226/21/143 210/21/143
f 220/22/144 235/25/74 227/22/144
f 235/25/74 220/22/144 215/25/74
f 217/27/77 238/21/147 233/27/77
f 238/21/147 217/27/77 221/21/147
f 235/25/74 211/22/148 229/22/148
f 211/22/148 235/25/74 215/25/74
f 238/21/147 224/20/145 228/20/145
f 224/20/145 238/21/147 221/21/147
f 211/22/148 225/20/142 229/22/148
f 225/20/142 211/22/148 209/20/142
f 218/28/74 231/24/144 234/28/74
f 231/24/144 218/28/74 214/24/144
f 231/24/144 212/20/145 230/20/145
f 212/20/145 231/24/144 214/24/144
f 230/20/145 213/23/147 232/23/147
f 213/23/147 230/20/145 212/20/145
f 213/23/147 236/26/77 232/23/147
f 236/26/77 213/23/147 216/26/77
f 236/26/77 222/23/143 237/23/143
f 222/23/143 236/26/77 216/26/77
f 222/23/143 240/20/142 237/23/143
f 240/20/142 222/23/143 223/20/142
f 223/20/142 239/24/148 240/20/142
f 239/24/148 223/20/142 219/24/148
f 239/24/148 218/28/74 234/28/74
f 218/28/74 239/24/148 219/24/148
