mtllib yard_iron-fence-curve.mtl
g iron-fence-curve
v -0.32179 0.7639 0.38073
v -0.35157 0.7639 0.34894
v -0.27937 0.7639 0.37084
v -0.26673 0.7639 0.32916
v -0.33893 0.7639 0.30726
v -0.2965 0.7639 0.29737
v -0.26835 0.7339 0.38261
v -0.32647 0.7339 0.39616
v -0.29182 0.7339 0.28194
v -0.34994 0.7339 0.29549
v -0.36727 0.7339 0.3526
v -0.25103 0.7339 0.3255
v -0.32179 0.7139 0.38073
v -0.27937 0.7139 0.37084
v -0.35157 0.7139 0.34894
v -0.33893 0.7139 0.30726
v -0.26673 0.7139 0.32916
v -0.2965 0.7139 0.29737
v -0.31231 0.8789 0.34947
v -0.31975 0.8789 0.34152
v -0.3017 0.8789 0.347
v -0.29854 0.8789 0.33658
v -0.31659 0.8789 0.3311
v -0.30599 0.8789 0.32863
v -0.26673 0.8039 0.32916
v -0.2965 0.8039 0.29737
v -0.28087 0.7664 0.33246
v -0.30072 0.7664 0.31126
v -0.2893 0.7664 0.36025
v -0.27937 0.8039 0.37084
v -0.31758 0.7664 0.36684
v -0.33743 0.7664 0.34564
v -0.32179 0.8039 0.38073
v -0.35157 0.8039 0.34894
v -0.329 0.7664 0.31786
v -0.33893 0.8039 0.30726
v -0.19273 0.8789 0.054307
v -0.19848 0.8789 0.045059
v -0.18184 0.8789 0.053951
v -0.17671 0.8789 0.044347
v -0.19334 0.8789 0.035455
v -0.18246 0.8789 0.035099
v -0.14406 0.8039 0.043278
v -0.16706 0.8039 0.0062865
v -0.15857 0.7664 0.043753
v -0.1739 0.7664 0.019092
v -0.17226 0.7664 0.069364
v -0.16459 0.8039 0.081694
v -0.20128 0.7664 0.070314
v -0.21662 0.7664 0.045653
v -0.20813 0.8039 0.083119
v -0.23113 0.8039 0.046128
v -0.20293 0.7664 0.020042
v -0.21059 0.8039 0.0077117
v -0.20813 0.7639 0.083119
v -0.23113 0.7639 0.046128
v -0.16459 0.7639 0.081694
v -0.14406 0.7639 0.043278
v -0.21059 0.7639 0.0077117
v -0.16706 0.7639 0.0062865
v -0.15608 0.7339 0.095381
v -0.21572 0.7339 0.097334
v -0.15946 0.7339 -0.0079276
v -0.21911 0.7339 -0.005975
v -0.24724 0.7339 0.046656
v -0.12795 0.7339 0.04275
v -0.20813 0.7139 0.083119
v -0.16459 0.7139 0.081694
v -0.23113 0.7139 0.046128
v -0.21059 0.7139 0.0077117
v -0.14406 0.7139 0.043278
v -0.16706 0.7139 0.0062865
v 0.027893 0.8789 -0.17467
v 0.026119 0.8789 -0.18541
v 0.038085 0.8789 -0.17083
v 0.046503 0.8789 -0.17774
v 0.034537 0.8789 -0.19232
v 0.044729 0.8789 -0.18849
v 0.077079 0.8039 -0.16623
v 0.069983 0.8039 -0.20921
v 0.063489 0.7664 -0.17135
v 0.058759 0.7664 -0.2
v 0.041041 0.7664 -0.15292
v 0.043406 0.8039 -0.1386
v 0.013862 0.7664 -0.16315
v 0.0091319 0.7664 -0.19181
v 0.0026383 0.8039 -0.15394
v -0.0044574 0.8039 -0.19692
v 0.03158 0.7664 -0.21023
v 0.029215 0.8039 -0.22456
v 0.28744 0.7639 -0.29349
v 0.29733 0.7639 -0.33592
v 0.31924 0.7639 -0.26372
v 0.36092 0.7639 -0.27636
v 0.33902 0.7639 -0.34856
v 0.37081 0.7639 -0.31878
v 0.31558 0.7339 -0.24802
v 0.27202 0.7339 -0.28881
v 0.38623 0.7339 -0.32346
v 0.34268 0.7339 -0.36426
v 0.28557 0.7339 -0.34693
v 0.37268 0.7339 -0.26534
v 0.28744 0.7139 -0.29349
v 0.31924 0.7139 -0.26372
v 0.29733 0.7139 -0.33592
v 0.33902 0.7139 -0.34856
v 0.36092 0.7139 -0.27636
v 0.37081 0.7139 -0.31878
v 0.0026383 0.7639 -0.15394
v -0.0044574 0.7639 -0.19692
v 0.043406 0.7639 -0.1386
v 0.077079 0.7639 -0.16623
v 0.029215 0.7639 -0.22456
v 0.069983 0.7639 -0.20921
v 0.046032 0.7339 -0.1227
v -0.0098205 0.7339 -0.14372
v 0.082442 0.7339 -0.21944
v 0.026589 0.7339 -0.24046
v -0.019542 0.7339 -0.2026
v 0.092163 0.7339 -0.16056
v 0.0026383 0.7139 -0.15394
v 0.043406 0.7139 -0.1386
v -0.0044574 0.7139 -0.19692
v 0.029215 0.7139 -0.22456
v 0.077079 0.7139 -0.16623
v 0.069983 0.7139 -0.20921
v 0.31871 0.8789 -0.30298
v 0.32118 0.8789 -0.31358
v 0.32665 0.8789 -0.29553
v 0.33708 0.8789 -0.29869
v 0.3316 0.8789 -0.31674
v 0.33955 0.8789 -0.3093
v 0.36092 0.8039 -0.27636
v 0.37081 0.8039 -0.31878
v 0.35032 0.7664 -0.28629
v 0.35692 0.7664 -0.31457
v 0.32253 0.7664 -0.27786
v 0.31924 0.8039 -0.26372
v 0.30134 0.7664 -0.29771
v 0.30793 0.7664 -0.32599
v 0.28744 0.8039 -0.29349
v 0.29733 0.8039 -0.33592
v 0.33572 0.7664 -0.33442
v 0.33902 0.8039 -0.34856
v -0.29861 -9.5879e-16 0.30431
v -0.29545 0.35695 0.29389
v -0.33396 -9.5879e-16 0.31256
v -0.34141 0.35695 0.30461
v -0.31969 -9.5879e-16 0.37379
v -0.3445 -9.5879e-16 0.34729
v -0.32285 0.35695 0.38421
v -0.35511 0.35695 0.34977
v -0.2738 -9.5879e-16 0.33081
v -0.28433 -9.5879e-16 0.36554
v -0.26319 0.35695 0.32833
v -0.27689 0.35695 0.37349
v -0.28433 0.7139 0.36554
v -0.31969 0.7139 0.37379
v -0.29861 0.7139 0.30431
v -0.33396 0.7139 0.31256
v -0.3445 0.7139 0.34729
v -0.2738 0.7139 0.33081
v 0.064371 -4.4414e-16 -0.20461
v 0.072789 0.35695 -0.21151
v 0.030398 -4.4414e-16 -0.21739
v 0.028624 0.35695 -0.22814
v 0.0082504 -4.4414e-16 -0.15855
v 0.0023373 -4.4414e-16 -0.19436
v -0.00016773 0.35695 -0.15164
v -0.0078548 0.35695 -0.1982
v 0.070284 -4.4414e-16 -0.16879
v 0.042224 -4.4414e-16 -0.14576
v 0.080476 0.35695 -0.16495
v 0.043998 0.35695 -0.13502
v 0.042224 0.7139 -0.14576
v 0.0082504 0.7139 -0.15855
v 0.064371 0.7139 -0.20461
v 0.030398 0.7139 -0.21739
v 0.0023373 0.7139 -0.19436
v 0.070284 0.7139 -0.16879
v 0.36386 -1.1245e-16 -0.31667
v 0.37429 0.35695 -0.31984
v 0.33737 -1.1245e-16 -0.34149
v 0.33984 0.35695 -0.35209
v 0.29439 -1.1245e-16 -0.2956
v 0.30263 -1.1245e-16 -0.33095
v 0.28397 0.35695 -0.29244
v 0.29468 0.35695 -0.3384
v 0.35562 -1.1245e-16 -0.28132
v 0.32088 -1.1245e-16 -0.27079
v 0.36357 0.35695 -0.27388
v 0.31841 0.35695 -0.26018
v 0.32088 0.7139 -0.27079
v 0.29439 0.7139 -0.2956
v 0.36386 0.7139 -0.31667
v 0.33737 0.7139 -0.34149
v 0.30263 0.7139 -0.33095
v 0.35562 0.7139 -0.28132
v -0.17048 -7.1063e-16 0.012689
v -0.16535 0.35695 0.0030851
v -0.20676 -7.1063e-16 0.013877
v -0.21251 0.35695 0.0046291
v -0.2047 -7.1063e-16 0.076717
v -0.22387 -7.1063e-16 0.045891
v -0.20984 0.35695 0.086321
v -0.23476 0.35695 0.046247
v -0.15131 -7.1063e-16 0.043515
v -0.16842 -7.1063e-16 0.075529
v -0.14043 0.35695 0.043159
v -0.16267 0.35695 0.084777
v -0.16842 0.7139 0.075529
v -0.2047 0.7139 0.076717
v -0.17048 0.7139 0.012689
v -0.20676 0.7139 0.013877
v -0.22387 0.7139 0.045891
v -0.15131 0.7139 0.043515
v 0.5 0.5539 -0.27
v 0.5 0.5539 -0.38
v 0.34978 0.5539 -0.2552
v 0.32832 0.5539 -0.36309
v 0.20533 0.5539 -0.21139
v 0.16324 0.5539 -0.31301
v 0.072211 0.5539 -0.14023
v 0.011098 0.5539 -0.23169
v -0.044472 0.5539 -0.044472
v -0.12225 0.5539 -0.12225
v -0.14023 0.5539 0.072211
v -0.23169 0.5539 0.011098
v -0.21139 0.5539 0.20533
v -0.2552 0.5539 0.34978
v -0.31301 0.5539 0.16324
v -0.27 0.5539 0.5
v -0.38 0.5539 0.5
v -0.36309 0.5539 0.32832
v 0.5 0.5939 -0.38
v 0.5 0.5939 -0.27
v 0.32832 0.5939 -0.36309
v 0.34978 0.5939 -0.2552
v 0.20533 0.5939 -0.21139
v 0.16324 0.5939 -0.31301
v 0.072211 0.5939 -0.14023
v 0.011098 0.5939 -0.23169
v -0.044472 0.5939 -0.044472
v -0.12225 0.5939 -0.12225
v -0.14023 0.5939 0.072211
v -0.23169 0.5939 0.011098
v -0.21139 0.5939 0.20533
v -0.2552 0.5939 0.34978
v -0.31301 0.5939 0.16324
v -0.27 0.5939 0.5
v -0.38 0.5939 0.5
v -0.36309 0.5939 0.32832
v 0.5 0.12 -0.27
v 0.5 0.12 -0.38
v 0.34978 0.12 -0.2552
v 0.32832 0.12 -0.36309
v 0.20533 0.12 -0.21139
v 0.16324 0.12 -0.31301
v 0.072211 0.12 -0.14023
v 0.011098 0.12 -0.23169
v -0.044472 0.12 -0.044472
v -0.12225 0.12 -0.12225
v -0.14023 0.12 0.072211
v -0.23169 0.12 0.011098
v -0.21139 0.12 0.20533
v -0.2552 0.12 0.34978
v -0.31301 0.12 0.16324
v -0.27 0.12 0.5
v -0.38 0.12 0.5
v -0.36309 0.12 0.32832
v 0.5 0.16 -0.38
v 0.5 0.16 -0.27
v 0.32832 0.16 -0.36309
v 0.34978 0.16 -0.2552
v 0.20533 0.16 -0.21139
v 0.16324 0.16 -0.31301
v 0.072211 0.16 -0.14023
v 0.011098 0.16 -0.23169
v -0.044472 0.16 -0.044472
v -0.12225 0.16 -0.12225
v -0.14023 0.16 0.072211
v -0.23169 0.16 0.011098
v -0.21139 0.16 0.20533
v -0.2552 0.16 0.34978
v -0.31301 0.16 0.16324
v -0.27 0.16 0.5
v -0.38 0.16 0.5
v -0.36309 0.16 0.32832
vn 0 1 0
vn 0.60219 0.47327 0.64295
vn -0.25572 0.47327 0.84299
vn 0.25572 0.47327 -0.84299
vn -0.60219 0.47327 -0.64295
vn -0.85791 0.47327 0.20004
vn 0.85791 0.47327 -0.20004
vn 0 -1 0
vn -0.22603 -0.62747 0.74511
vn -0.7583 -0.62747 0.17681
vn -0.53227 -0.62747 -0.5683
vn 0.7583 -0.62747 -0.17681
vn 0.53227 -0.62747 0.5683
vn 0.22603 -0.62747 -0.74511
vn -0.18907 0.7588 0.62328
vn -0.63431 0.7588 0.1479
vn 0.44524 0.7588 0.47538
vn 0.63431 0.7588 -0.1479
vn -0.44524 0.7588 -0.47538
vn 0.18907 0.7588 -0.62328
vn 0.97371 0.018565 -0.22704
vn 0.29023 0.018565 -0.95678
vn 0.90818 -0.36108 -0.21176
vn 0.2707 -0.36108 -0.89238
vn 0.63747 -0.36108 0.68062
vn 0.68347 0.018565 0.72974
vn -0.2707 -0.36108 0.89238
vn -0.90818 -0.36108 0.21176
vn -0.29023 0.018565 0.95678
vn -0.97371 0.018565 0.22704
vn -0.63747 -0.36108 -0.68062
vn -0.68347 0.018565 -0.72974
vn -0.30703 0.7588 0.57442
vn -0.65098 0.7588 0.021311
vn 0.34394 0.7588 0.55311
vn 0.65098 0.7588 -0.021311
vn -0.34394 0.7588 -0.55311
vn 0.30703 0.7588 -0.57442
vn 0.99929 0.018565 -0.032713
vn 0.47132 0.018565 -0.88177
vn 0.93204 -0.36108 -0.030512
vn 0.43959 -0.36108 -0.82242
vn 0.49244 -0.36108 0.79191
vn 0.52798 0.018565 0.84906
vn -0.43959 -0.36108 0.82242
vn -0.93204 -0.36108 0.030512
vn -0.47132 0.018565 0.88177
vn -0.99929 0.018565 0.032713
vn -0.49244 -0.36108 -0.79191
vn -0.52798 0.018565 -0.84906
vn 0.46519 0.47327 0.74808
vn -0.41526 0.47327 0.7769
vn 0.41526 0.47327 -0.7769
vn -0.46519 0.47327 -0.74808
vn -0.88045 0.47327 0.028823
vn 0.88045 0.47327 -0.028823
vn -0.36705 -0.62747 0.6867
vn -0.77822 -0.62747 0.025476
vn -0.41117 -0.62747 -0.66122
vn 0.77822 -0.62747 -0.025476
vn 0.41117 -0.62747 0.66122
vn 0.36705 -0.62747 -0.6867
vn -0.50348 0.7588 0.4132
vn -0.60958 0.7588 -0.22943
vn 0.1061 0.7588 0.64263
vn 0.60958 0.7588 0.22943
vn -0.1061 0.7588 -0.64263
vn 0.50348 0.7588 -0.4132
vn 0.93574 0.018565 0.35219
vn 0.77288 0.018565 -0.63428
vn 0.87277 -0.36108 0.32849
vn 0.72086 -0.36108 -0.59159
vn 0.15191 -0.36108 0.92008
vn 0.16287 0.018565 0.98647
vn -0.72086 -0.36108 0.59159
vn -0.87277 -0.36108 -0.32849
vn -0.77288 0.018565 0.63428
vn -0.93574 0.018565 -0.35219
vn -0.15191 -0.36108 -0.92008
vn -0.16287 0.018565 -0.98647
vn -0.20004 0.47327 0.85791
vn -0.84299 0.47327 0.25572
vn 0.84299 0.47327 -0.25572
vn 0.20004 0.47327 -0.85791
vn -0.64295 0.47327 -0.60219
vn 0.64295 0.47327 0.60219
vn -0.74511 -0.62747 0.22603
vn -0.5683 -0.62747 -0.53227
vn 0.17681 -0.62747 -0.7583
vn 0.5683 -0.62747 0.53227
vn -0.17681 -0.62747 0.7583
vn 0.74511 -0.62747 -0.22603
vn 0.1435 0.47327 0.86915
vn -0.68096 0.47327 0.55885
vn 0.68096 0.47327 -0.55885
vn -0.1435 0.47327 -0.86915
vn -0.82446 0.47327 -0.3103
vn 0.82446 0.47327 0.3103
vn -0.6019 -0.62747 0.49396
vn -0.72873 -0.62747 -0.27428
vn -0.12684 -0.62747 -0.76824
vn 0.72873 -0.62747 0.27428
vn 0.12684 -0.62747 0.76824
vn 0.6019 -0.62747 -0.49396
vn -0.62328 0.7588 0.18907
vn -0.47538 0.7588 -0.44524
vn -0.1479 0.7588 0.63431
vn 0.47538 0.7588 0.44524
vn 0.1479 0.7588 -0.63431
vn 0.62328 0.7588 -0.18907
vn 0.72974 0.018565 0.68347
vn 0.95678 0.018565 -0.29023
vn 0.68062 -0.36108 0.63747
vn 0.89238 -0.36108 -0.2707
vn -0.21176 -0.36108 0.90817
vn -0.22704 0.018565 0.97371
vn -0.89238 -0.36108 0.2707
vn -0.68062 -0.36108 -0.63747
vn -0.95678 0.018565 0.29023
vn -0.72974 0.018565 -0.68347
vn 0.21176 -0.36108 -0.90817
vn 0.22704 0.018565 -0.97371
vn 0.29015 -0.030494 -0.9565
vn 0.29028 0 -0.95694
vn -0.68327 -0.030494 -0.72952
vn -0.68359 0 -0.72986
vn -0.29015 -0.030494 0.9565
vn -0.97342 -0.030494 0.22697
vn -0.29028 0 0.95694
vn -0.97388 0 0.22708
vn 0.97342 -0.030494 -0.22697
vn 0.68327 -0.030494 0.72952
vn 0.97388 0 -0.22708
vn 0.68359 0 0.72986
vn 0.68327 0.030494 0.72952
vn -0.29015 0.030494 0.9565
vn 0.29015 0.030494 -0.9565
vn -0.68327 0.030494 -0.72952
vn -0.97342 0.030494 0.22697
vn 0.97342 0.030494 -0.22697
vn 0.77265 -0.030494 -0.6341
vn 0.77301 0 -0.63439
vn -0.16282 -0.030494 -0.98618
vn -0.1629 0 -0.98664
vn -0.77265 -0.030494 0.6341
vn -0.93547 -0.030494 -0.35209
vn -0.77301 0 0.63439
vn -0.93591 0 -0.35225
vn 0.93547 -0.030494 0.35209
vn 0.16282 -0.030494 0.98618
vn 0.93591 0 0.35225
vn 0.1629 0 0.98664
vn 0.16282 0.030494 0.98618
vn -0.77265 0.030494 0.6341
vn 0.77265 0.030494 -0.6341
vn -0.16282 0.030494 -0.98618
vn -0.93547 0.030494 -0.35209
vn 0.93547 0.030494 0.35209
vn 0.9565 -0.030494 -0.29015
vn 0.95694 0 -0.29028
vn 0.22697 -0.030494 -0.97342
vn 0.22708 0 -0.97388
vn -0.9565 -0.030494 0.29015
vn -0.72952 -0.030494 -0.68327
vn -0.95694 0 0.29028
vn -0.72986 0 -0.68359
vn 0.72952 -0.030494 0.68327
vn -0.22697 -0.030494 0.97342
vn 0.72986 0 0.68359
vn -0.22708 0 0.97388
vn -0.22697 0.030494 0.97342
vn -0.9565 0.030494 0.29015
vn 0.9565 0.030494 -0.29015
vn 0.22697 0.030494 -0.97342
vn -0.72952 0.030494 -0.68327
vn 0.72952 0.030494 0.68327
vn 0.47118 -0.030494 -0.88151
vn 0.4714 0 -0.88192
vn -0.52782 -0.030494 -0.84881
vn -0.52807 0 -0.8492
vn -0.47118 -0.030494 0.88151
vn -0.999 -0.030494 0.032704
vn -0.4714 0 0.88192
vn -0.99946 0 0.032719
vn 0.999 -0.030494 -0.032704
vn 0.52782 -0.030494 0.84881
vn 0.99946 0 -0.032719
vn 0.52807 0 0.8492
vn 0.52782 0.030494 0.84881
vn -0.47118 0.030494 0.88151
vn 0.47118 0.030494 -0.88151
vn -0.52782 0.030494 -0.84881
vn -0.999 0.030494 0.032704
vn 0.999 0.030494 -0.032704
vn 0.067177 -0.7282 0.68206
vn -0.071507 -0.68394 -0.72602
vn 0.13337 -0.72985 0.67047
vn -0.142 -0.6857 -0.7139
vn 0.26161 -0.72985 0.63157
vn -0.27855 -0.6857 -0.67248
vn 0.37979 -0.72985 0.5684
vn -0.40439 -0.6857 -0.60522
vn 0.48338 -0.72985 0.48338
vn -0.51469 -0.6857 -0.51469
vn 0.5684 -0.72985 0.37979
vn -0.60522 -0.6857 -0.40439
vn 0.63157 -0.72985 0.26161
vn 0.67047 -0.72985 0.13337
vn -0.67248 -0.6857 -0.27855
vn 0.68206 -0.7282 0.067177
vn -0.72602 -0.68394 -0.071507
vn -0.7139 -0.6857 -0.142
vn -0.071507 0.68394 -0.72602
vn 0.067177 0.7282 0.68206
vn -0.142 0.6857 -0.7139
vn 0.13337 0.72985 0.67047
vn 0.26161 0.72985 0.63157
vn -0.27855 0.6857 -0.67248
vn 0.37979 0.72985 0.5684
vn -0.40439 0.6857 -0.60522
vn 0.48338 0.72985 0.48338
vn -0.51469 0.6857 -0.51469
vn 0.5684 0.72985 0.37979
vn -0.60522 0.6857 -0.40439
vn 0.63157 0.72985 0.26161
vn 0.67047 0.72985 0.13337
vn -0.67248 0.6857 -0.27855
vn 0.68206 0.7282 0.067177
vn -0.72602 0.68394 -0.071507
vn -0.7139 0.6857 -0.142
vn 1 0 0
vn 0 0 1
vt 0.96875 0.225
vt 0.96875 0.105
vt 0.96875 0.025
vt 0.96875 0.091667
vt 0.71875 0.475
vt 0.71875 0.375
vt 0.71875 0.275
vt 0.71875 0.325
vt 0.71875 0.425
usemtl colormap
f 3/1/1 2/1/1 1/1/1
f 2/1/1 3/1/1 4/1/1
f 2/1/1 4/1/1 5/1/1
f 5/1/1 4/1/1 6/1/1
f 3/1/2 8/2/3 7/2/2
f 8/2/3 3/1/2 1/1/3
f 9/2/4 5/1/5 6/1/4
f 5/1/5 9/2/4 10/2/5
f 2/1/6 8/2/3 1/1/3
f 8/2/3 2/1/6 11/2/6
f 2/1/6 10/2/5 11/2/6
f 10/2/5 2/1/6 5/1/5
f 4/1/7 7/2/2 12/2/7
f 7/2/2 4/1/7 3/1/2
f 9/2/4 4/1/7 12/2/7
f 4/1/7 9/2/4 6/1/4
f 15/3/8 14/3/8 13/3/8
f 14/3/8 15/3/8 16/3/8
f 14/3/8 16/3/8 17/3/8
f 17/3/8 16/3/8 18/3/8
f 8/2/9 15/3/10 13/3/9
f 15/3/10 8/2/9 11/2/10
f 11/2/10 16/3/11 15/3/10
f 16/3/11 11/2/10 10/2/11
f 12/2/12 14/3/13 17/3/12
f 14/3/13 12/2/12 7/2/13
f 8/2/9 14/3/13 7/2/13
f 14/3/13 8/2/9 13/3/9
f 16/3/11 9/2/14 18/3/14
f 9/2/14 16/3/11 10/2/11
f 17/3/12 9/2/14 12/2/12
f 9/2/14 17/3/12 18/3/14
f 21/1/17 20/1/16 19/1/15
f 20/1/16 21/1/17 22/1/18
f 20/1/16 22/1/18 23/1/19
f 23/1/19 22/1/18 24/1/20
f 27/3/23 26/4/22 25/4/21
f 26/4/22 27/3/23 28/3/24
f 25/4/21 29/3/25 27/3/23
f 29/3/25 25/4/21 30/4/26
f 33/4/29 32/3/28 31/3/27
f 32/3/28 33/4/29 34/4/30
f 33/4/29 29/3/25 30/4/26
f 29/3/25 33/4/29 31/3/27
f 34/4/30 35/3/31 32/3/28
f 35/3/31 34/4/30 36/4/32
f 35/3/31 26/4/22 28/3/24
f 26/4/22 35/3/31 36/4/32
f 20/1/16 36/4/32 34/4/30
f 36/4/32 20/1/16 23/1/19
f 26/4/22 22/1/18 25/4/21
f 22/1/18 26/4/22 24/1/20
f 20/1/16 33/4/29 19/1/15
f 33/4/29 20/1/16 34/4/30
f 26/4/22 23/1/19 24/1/20
f 23/1/19 26/4/22 36/4/32
f 21/1/17 33/4/29 30/4/26
f 33/4/29 21/1/17 19/1/15
f 22/1/18 30/4/26 25/4/21
f 30/4/26 22/1/18 21/1/17
f 39/1/35 38/1/34 37/1/33
f 38/1/34 39/1/35 40/1/36
f 38/1/34 40/1/36 41/1/37
f 41/1/37 40/1/36 42/1/38
f 45/3/41 44/4/40 43/4/39
f 44/4/40 45/3/41 46/3/42
f 43/4/39 47/3/43 45/3/41
f 47/3/43 43/4/39 48/4/44
f 51/4/47 50/3/46 49/3/45
f 50/3/46 51/4/47 52/4/48
f 51/4/47 47/3/43 48/4/44
f 47/3/43 51/4/47 49/3/45
f 52/4/48 53/3/49 50/3/46
f 53/3/49 52/4/48 54/4/50
f 53/3/49 44/4/40 46/3/42
f 44/4/40 53/3/49 54/4/50
f 38/1/34 54/4/50 52/4/48
f 54/4/50 38/1/34 41/1/37
f 44/4/40 40/1/36 43/4/39
f 40/1/36 44/4/40 42/1/38
f 38/1/34 51/4/47 37/1/33
f 51/4/47 38/1/34 52/4/48
f 44/4/40 41/1/37 42/1/38
f 41/1/37 44/4/40 54/4/50
f 39/1/35 51/4/47 48/4/44
f 51/4/47 39/1/35 37/1/33
f 40/1/36 48/4/44 43/4/39
f 48/4/44 40/1/36 39/1/35
f 57/1/1 56/1/1 55/1/1
f 56/1/1 57/1/1 58/1/1
f 56/1/1 58/1/1 59/1/1
f 59/1/1 58/1/1 60/1/1
f 57/1/51 62/2/52 61/2/51
f 62/2/52 57/1/51 55/1/52
f 63/2/53 59/1/54 60/1/53
f 59/1/54 63/2/53 64/2/54
f 56/1/55 62/2/52 55/1/52
f 62/2/52 56/1/55 65/2/55
f 56/1/55 64/2/54 65/2/55
f 64/2/54 56/1/55 59/1/54
f 58/1/56 61/2/51 66/2/56
f 61/2/51 58/1/56 57/1/51
f 63/2/53 58/1/56 66/2/56
f 58/1/56 63/2/53 60/1/53
f 69/3/8 68/3/8 67/3/8
f 68/3/8 69/3/8 70/3/8
f 68/3/8 70/3/8 71/3/8
f 71/3/8 70/3/8 72/3/8
f 62/2/57 69/3/58 67/3/57
f 69/3/58 62/2/57 65/2/58
f 65/2/58 70/3/59 69/3/58
f 70/3/59 65/2/58 64/2/59
f 66/2/60 68/3/61 71/3/60
f 68/3/61 66/2/60 61/2/61
f 62/2/57 68/3/61 61/2/61
f 68/3/61 62/2/57 67/3/57
f 70/3/59 63/2/62 72/3/62
f 63/2/62 70/3/59 64/2/59
f 71/3/60 63/2/62 66/2/60
f 63/2/62 71/3/60 72/3/62
f 75/1/65 74/1/64 73/1/63
f 74/1/64 75/1/65 76/1/66
f 74/1/64 76/1/66 77/1/67
f 77/1/67 76/1/66 78/1/68
f 81/3/71 80/4/70 79/4/69
f 80/4/70 81/3/71 82/3/72
f 79/4/69 83/3/73 81/3/71
f 83/3/73 79/4/69 84/4/74
f 87/4/77 86/3/76 85/3/75
f 86/3/76 87/4/77 88/4/78
f 87/4/77 83/3/73 84/4/74
f 83/3/73 87/4/77 85/3/75
f 88/4/78 89/3/79 86/3/76
f 89/3/79 88/4/78 90/4/80
f 89/3/79 80/4/70 82/3/72
f 80/4/70 89/3/79 90/4/80
f 74/1/64 90/4/80 88/4/78
f 90/4/80 74/1/64 77/1/67
f 80/4/70 76/1/66 79/4/69
f 76/1/66 80/4/70 78/1/68
f 74/1/64 87/4/77 73/1/63
f 87/4/77 74/1/64 88/4/78
f 80/4/70 77/1/67 78/1/68
f 77/1/67 80/4/70 90/4/80
f 75/1/65 87/4/77 84/4/74
f 87/4/77 75/1/65 73/1/63
f 76/1/66 84/4/74 79/4/69
f 84/4/74 76/1/66 75/1/65
f 93/1/1 92/1/1 91/1/1
f 92/1/1 93/1/1 94/1/1
f 92/1/1 94/1/1 95/1/1
f 95/1/1 94/1/1 96/1/1
f 93/1/81 98/2/82 97/2/81
f 98/2/82 93/1/81 91/1/82
f 99/2/83 95/1/84 96/1/83
f 95/1/84 99/2/83 100/2/84
f 92/1/85 98/2/82 91/1/82
f 98/2/82 92/1/85 101/2/85
f 92/1/85 100/2/84 101/2/85
f 100/2/84 92/1/85 95/1/84
f 94/1/86 97/2/81 102/2/86
f 97/2/81 94/1/86 93/1/81
f 99/2/83 94/1/86 102/2/86
f 94/1/86 99/2/83 96/1/83
f 105/3/8 104/3/8 103/3/8
f 104/3/8 105/3/8 106/3/8
f 104/3/8 106/3/8 107/3/8
f 107/3/8 106/3/8 108/3/8
f 98/2/87 105/3/88 103/3/87
f 105/3/88 98/2/87 101/2/88
f 101/2/88 106/3/89 105/3/88
f 106/3/89 101/2/88 100/2/89
f 102/2/90 104/3/91 107/3/90
f 104/3/91 102/2/90 97/2/91
f 98/2/87 104/3/91 97/2/91
f 104/3/91 98/2/87 103/3/87
f 106/3/89 99/2/92 108/3/92
f 99/2/92 106/3/89 100/2/89
f 107/3/90 99/2/92 102/2/90
f 99/2/92 107/3/90 108/3/92
f 111/1/1 110/1/1 109/1/1
f 110/1/1 111/1/1 112/1/1
f 110/1/1 112/1/1 113/1/1
f 113/1/1 112/1/1 114/1/1
f 111/1/93 116/2/94 115/2/93
f 116/2/94 111/1/93 109/1/94
f 117/2/95 113/1/96 114/1/95
f 113/1/96 117/2/95 118/2/96
f 110/1/97 116/2/94 109/1/94
f 116/2/94 110/1/97 119/2/97
f 110/1/97 118/2/96 119/2/97
f 118/2/96 110/1/97 113/1/96
f 112/1/98 115/2/93 120/2/98
f 115/2/93 112/1/98 111/1/93
f 117/2/95 112/1/98 120/2/98
f 112/1/98 117/2/95 114/1/95
f 123/3/8 122/3/8 121/3/8
f 122/3/8 123/3/8 124/3/8
f 122/3/8 124/3/8 125/3/8
f 125/3/8 124/3/8 126/3/8
f 116/2/99 123/3/100 121/3/99
f 123/3/100 116/2/99 119/2/100
f 119/2/100 124/3/101 123/3/100
f 124/3/101 119/2/100 118/2/101
f 120/2/102 122/3/103 125/3/102
f 122/3/103 120/2/102 115/2/103
f 116/2/99 122/3/103 115/2/103
f 122/3/103 116/2/99 121/3/99
f 124/3/101 117/2/104 126/3/104
f 117/2/104 124/3/101 118/2/101
f 125/3/102 117/2/104 120/2/102
f 117/2/104 125/3/102 126/3/104
f 129/1/107 128/1/106 127/1/105
f 128/1/106 129/1/107 130/1/108
f 128/1/106 130/1/108 131/1/109
f 131/1/109 130/1/108 132/1/110
f 135/3/113 134/4/112 133/4/111
f 134/4/112 135/3/113 136/3/114
f 133/4/111 137/3/115 135/3/113
f 137/3/115 133/4/111 138/4/116
f 141/4/119 140/3/118 139/3/117
f 140/3/118 141/4/119 142/4/120
f 141/4/119 137/3/115 138/4/116
f 137/3/115 141/4/119 139/3/117
f 142/4/120 143/3/121 140/3/118
f 143/3/121 142/4/120 144/4/122
f 143/3/121 134/4/112 136/3/114
f 134/4/112 143/3/121 144/4/122
f 128/1/106 144/4/122 142/4/120
f 144/4/122 128/1/106 131/1/109
f 134/4/112 130/1/108 133/4/111
f 130/1/108 134/4/112 132/1/110
f 128/1/106 141/4/119 127/1/105
f 141/4/119 128/1/106 142/4/120
f 134/4/112 131/1/109 132/1/110
f 131/1/109 134/4/112 144/4/122
f 129/1/107 141/4/119 138/4/116
f 141/4/119 129/1/107 127/1/105
f 130/1/108 138/4/116 133/4/111
f 138/4/116 130/1/108 129/1/107
f 147/5/125 146/6/124 145/5/123
f 146/6/124 147/5/125 148/6/126
f 151/6/129 150/5/128 149/5/127
f 150/5/128 151/6/129 152/6/130
f 155/6/133 154/5/132 153/5/131
f 154/5/132 155/6/133 156/6/134
f 152/6/130 147/5/125 150/5/128
f 147/5/125 152/6/130 148/6/126
f 153/5/131 146/6/124 155/6/133
f 146/6/124 153/5/131 145/5/123
f 151/6/129 154/5/132 156/6/134
f 154/5/132 151/6/129 149/5/127
f 157/7/135 151/6/129 156/6/134
f 151/6/129 157/7/135 158/7/136
f 148/6/126 159/7/137 146/6/124
f 159/7/137 148/6/126 160/7/138
f 158/7/136 152/6/130 151/6/129
f 152/6/130 158/7/136 161/7/139
f 162/7/140 156/6/134 155/6/133
f 156/6/134 162/7/140 157/7/135
f 161/7/139 148/6/126 152/6/130
f 148/6/126 161/7/139 160/7/138
f 146/6/124 162/7/140 155/6/133
f 162/7/140 146/6/124 159/7/137
f 165/5/143 164/6/142 163/5/141
f 164/6/142 165/5/143 166/6/144
f 169/6/147 168/5/146 167/5/145
f 168/5/146 169/6/147 170/6/148
f 173/6/151 172/5/150 171/5/149
f 172/5/150 173/6/151 174/6/152
f 170/6/148 165/5/143 168/5/146
f 165/5/143 170/6/148 166/6/144
f 171/5/149 164/6/142 173/6/151
f 164/6/142 171/5/149 163/5/141
f 169/6/147 172/5/150 174/6/152
f 172/5/150 169/6/147 167/5/145
f 175/7/153 169/6/147 174/6/152
f 169/6/147 175/7/153 176/7/154
f 166/6/144 177/7/155 164/6/142
f 177/7/155 166/6/144 178/7/156
f 176/7/154 170/6/148 169/6/147
f 170/6/148 176/7/154 179/7/157
f 180/7/158 174/6/152 173/6/151
f 174/6/152 180/7/158 175/7/153
f 179/7/157 166/6/144 170/6/148
f 166/6/144 179/7/157 178/7/156
f 164/6/142 180/7/158 173/6/151
f 180/7/158 164/6/142 177/7/155
f 183/5/161 182/6/160 181/5/159
f 182/6/160 183/5/161 184/6/162
f 187/6/165 186/5/164 185/5/163
f 186/5/164 187/6/165 188/6/166
f 191/6/169 190/5/168 189/5/167
f 190/5/168 191/6/169 192/6/170
f 188/6/166 183/5/161 186/5/164
f 183/5/161 188/6/166 184/6/162
f 189/5/167 182/6/160 191/6/169
f 182/6/160 189/5/167 181/5/159
f 187/6/165 190/5/168 192/6/170
f 190/5/168 187/6/165 185/5/163
f 193/7/171 187/6/165 192/6/170
f 187/6/165 193/7/171 194/7/172
f 184/6/162 195/7/173 182/6/160
f 195/7/173 184/6/162 196/7/174
f 197/7/175 187/6/165 194/7/172
f 187/6/165 197/7/175 188/6/166
f 198/7/176 192/6/170 191/6/169
f 192/6/170 198/7/176 193/7/171
f 197/7/175 184/6/162 188/6/166
f 184/6/162 197/7/175 196/7/174
f 182/6/160 198/7/176 191/6/169
f 198/7/176 182/6/160 195/7/173
f 201/5/179 200/6/178 199/5/177
f 200/6/178 201/5/179 202/6/180
f 205/6/183 204/5/182 203/5/181
f 204/5/182 205/6/183 206/6/184
f 209/6/187 208/5/186 207/5/185
f 208/5/186 209/6/187 210/6/188
f 206/6/184 201/5/179 204/5/182
f 201/5/179 206/6/184 202/6/180
f 207/5/185 200/6/178 209/6/187
f 200/6/178 207/5/185 199/5/177
f 205/6/183 208/5/186 210/6/188
f 208/5/186 205/6/183 203/5/181
f 211/7/189 205/6/183 210/6/188
f 205/6/183 211/7/189 212/7/190
f 202/6/180 213/7/191 200/6/178
f 213/7/191 202/6/180 214/7/192
f 212/7/190 206/6/184 205/6/183
f 206/6/184 212/7/190 215/7/193
f 216/7/194 210/6/188 209/6/187
f 210/6/188 216/7/194 211/7/189
f 215/7/193 202/6/180 206/6/184
f 202/6/180 215/7/193 214/7/192
f 200/6/178 216/7/194 209/6/187
f 216/7/194 200/6/178 213/7/191
f 219/8/197 218/8/196 217/8/195
f 218/8/196 219/8/197 220/8/198
f 220/8/198 219/8/197 221/8/199
f 220/8/198 221/8/199 222/8/200
f 222/8/200 221/8/199 223/8/201
f 222/8/200 223/8/201 224/8/202
f 224/8/202 223/8/201 225/8/203
f 224/8/202 225/8/203 226/8/204
f 226/8/204 225/8/203 227/8/205
f 226/8/204 227/8/205 228/8/206
f 228/8/206 227/8/205 229/8/207
f 228/8/206 229/8/207 230/8/208
f 228/8/206 230/8/208 231/8/209
f 231/8/209 230/8/208 232/8/210
f 231/8/209 232/8/210 233/8/211
f 231/8/209 233/8/211 234/8/212
f 237/9/215 236/9/214 235/9/213
f 236/9/214 237/9/215 238/9/216
f 238/9/216 237/9/215 239/9/217
f 239/9/217 237/9/215 240/9/218
f 239/9/217 240/9/218 241/9/219
f 241/9/219 240/9/218 242/9/220
f 241/9/219 242/9/220 243/9/221
f 243/9/221 242/9/220 244/9/222
f 243/9/221 244/9/222 245/9/223
f 245/9/223 244/9/222 246/9/224
f 245/9/223 246/9/224 247/9/225
f 247/9/225 246/9/224 248/9/226
f 248/9/226 246/9/224 249/9/227
f 248/9/226 249/9/227 250/9/228
f 250/9/228 249/9/227 251/9/229
f 251/9/229 249/9/227 252/9/230
f 236/9/231 218/8/231 235/9/231
f 218/8/231 236/9/231 217/8/231
f 237/9/215 218/8/196 220/8/198
f 218/8/196 237/9/215 235/9/213
f 240/9/218 220/8/198 222/8/200
f 220/8/198 240/9/218 237/9/215
f 242/9/220 222/8/200 224/8/202
f 222/8/200 242/9/220 240/9/218
f 244/9/222 224/8/202 226/8/204
f 224/8/202 244/9/222 242/9/220
f 228/8/206 244/9/222 226/8/204
f 244/9/222 228/8/206 246/9/224
f 231/8/209 246/9/224 228/8/206
f 246/9/224 231/8/209 249/9/227
f 234/8/212 249/9/227 231/8/209
f 249/9/227 234/8/212 252/9/230
f 233/8/211 252/9/230 234/8/212
f 252/9/230 233/8/211 251/9/229
f 250/9/232 233/8/232 232/8/232
f 233/8/232 250/9/232 251/9/232
f 250/9/228 230/8/208 248/9/226
f 230/8/208 250/9/228 232/8/210
f 248/9/226 229/8/207 247/9/225
f 229/8/207 248/9/226 230/8/208
f 247/9/225 227/8/205 245/9/223
f 227/8/205 247/9/225 229/8/207
f 245/9/223 225/8/203 243/9/221
f 225/8/203 245/9/223 227/8/205
f 241/9/219 225/8/203 223/8/201
f 225/8/203 241/9/219 243/9/221
f 239/9/217 223/8/201 221/8/199
f 223/8/201 239/9/217 241/9/219
f 238/9/216 221/8/199 219/8/197
f 221/8/199 238/9/216 239/9/217
f 236/9/214 219/8/197 217/8/195
f 219/8/197 236/9/214 238/9/216
f 255/8/197 254/8/196 253/8/195
f 254/8/196 255/8/197 256/8/198
f 256/8/198 255/8/197 257/8/199
f 256/8/198 257/8/199 258/8/200
f 258/8/200 257/8/199 259/8/201
f 258/8/200 259/8/201 260/8/202
f 260/8/202 259/8/201 261/8/203
f 260/8/202 261/8/203 262/8/204
f 262/8/204 261/8/203 263/8/205
f 262/8/204 263/8/205 264/8/206
f 264/8/206 263/8/205 265/8/207
f 264/8/206 265/8/207 266/8/208
f 264/8/206 266/8/208 267/8/209
f 267/8/209 266/8/208 268/8/210
f 267/8/209 268/8/210 269/8/211
f 267/8/209 269/8/211 270/8/212
f 273/9/215 272/9/214 271/9/213
f 272/9/214 273/9/215 274/9/216
f 274/9/216 273/9/215 275/9/217
f 275/9/217 273/9/215 276/9/218
f 275/9/217 276/9/218 277/9/219
f 277/9/219 276/9/218 278/9/220
f 277/9/219 278/9/220 279/9/221
f 279/9/221 278/9/220 280/9/222
f 279/9/221 280/9/222 281/9/223
f 281/9/223 280/9/222 282/9/224
f 281/9/223 282/9/224 283/9/225
f 283/9/225 282/9/224 284/9/226
f 284/9/226 282/9/224 285/9/227
f 284/9/226 285/9/227 286/9/228
f 286/9/228 285/9/227 287/9/229
f 287/9/229 285/9/227 288/9/230
f 272/9/231 254/8/231 271/9/231
f 254/8/231 272/9/231 253/8/231
f 273/9/215 254/8/196 256/8/198
f 254/8/196 273/9/215 271/9/213
f 276/9/218 256/8/198 258/8/200
f 256/8/198 276/9/218 273/9/215
f 278/9/220 258/8/200 260/8/202
f 258/8/200 278/9/220 276/9/218
f 280/9/222 260/8/202 262/8/204
f 260/8/202 280/9/222 278/9/220
f 264/8/206 280/9/222 262/8/204
f 280/9/222 264/8/206 282/9/224
f 267/8/209 282/9/224 264/8/206
f 282/9/224 267/8/209 285/9/227
f 270/8/212 285/9/227 267/8/209
f 285/9/227 270/8/212 288/9/230
f 269/8/211 288/9/230 270/8/212
f 288/9/230 269/8/211 287/9/229
f 286/9/232 269/8/232 268/8/232
f 269/8/232 286/9/232 287/9/232
f 286/9/228 266/8/208 284/9/226
f 266/8/208 286/9/228 268/8/210
f 284/9/226 265/8/207 283/9/225
f 265/8/207 284/9/226 266/8/208
f 283/9/225 263/8/205 281/9/223
f 263/8/205 283/9/225 265/8/207
f 281/9/223 261/8/203 279/9/221
f 261/8/203 281/9/223 263/8/205
f 277/9/219 261/8/203 259/8/201
f 261/8/203 277/9/219 279/9/221
f 275/9/217 259/8/201 257/8/199
f 259/8/201 275/9/217 277/9/219
f 274/9/216 257/8/199 255/8/197
f 257/8/199 274/9/216 275/9/217
f 272/9/214 255/8/197 253/8/195
f 255/8/197 272/9/214 274/9/216
g iron-fence-curve
usemtl colormap
f 3/1/1 2/1/1 1/1/1
f 2/1/1 3/1/1 4/1/1
f 2/1/1 4/1/1 5/1/1
f 5/1/1 4/1/1 6/1/1
f 3/1/2 8/2/3 7/2/2
f 8/2/3 3/1/2 1/1/3
f 9/2/4 5/1/5 6/1/4
f 5/1/5 9/2/4 10/2/5
f 2/1/6 8/2/3 1/1/3
f 8/2/3 2/1/6 11/2/6
f 2/1/6 10/2/5 11/2/6
f 10/2/5 2/1/6 5/1/5
f 4/1/7 7/2/2 12/2/7
f 7/2/2 4/1/7 3/1/2
f 9/2/4 4/1/7 12/2/7
f 4/1/7 9/2/4 6/1/4
f 15/3/8 14/3/8 13/3/8
f 14/3/8 15/3/8 16/3/8
f 14/3/8 16/3/8 17/3/8
f 17/3/8 16/3/8 18/3/8
f 8/2/9 15/3/10 13/3/9
f 15/3/10 8/2/9 11/2/10
f 11/2/10 16/3/11 15/3/10
f 16/3/11 11/2/10 10/2/11
f 12/2/12 14/3/13 17/3/12
f 14/3/13 12/2/12 7/2/13
f 8/2/9 14/3/13 7/2/13
f 14/3/13 8/2/9 13/3/9
f 16/3/11 9/2/14 18/3/14
f 9/2/14 16/3/11 10/2/11
f 17/3/12 9/2/14 12/2/12
f 9/2/14 17/3/12 18/3/14
f 21/1/17 20/1/16 19/1/15
f 20/1/16 21/1/17 22/1/18
f 20/1/16 22/1/18 23/1/19
f 23/1/19 22/1/18 24/1/20
f 27/3/23 26/4/22 25/4/21
f 26/4/22 27/3/23 28/3/24
f 25/4/21 29/3/25 27/3/23
f 29/3/25 25/4/21 30/4/26
f 33/4/29 32/3/28 31/3/27
f 32/3/28 33/4/29 34/4/30
f 33/4/29 29/3/25 30/4/26
f 29/3/25 33/4/29 31/3/27
f 34/4/30 35/3/31 32/3/28
f 35/3/31 34/4/30 36/4/32
f 35/3/31 26/4/22 28/3/24
f 26/4/22 35/3/31 36/4/32
f 20/1/16 36/4/32 34/4/30
f 36/4/32 20/1/16 23/1/19
f 26/4/22 22/1/18 25/4/21
f 22/1/18 26/4/22 24/1/20
f 20/1/16 33/4/29 19/1/15
f 33/4/29 20/1/16 34/4/30
f 26/4/22 23/1/19 24/1/20
f 23/1/19 26/4/22 36/4/32
f 21/1/17 33/4/29 30/4/26
f 33/4/29 21/1/17 19/1/15
f 22/1/18 30/4/26 25/4/21
f 30/4/26 22/1/18 21/1/17
f 39/1/35 38/1/34 37/1/33
f 38/1/34 39/1/35 40/1/36
f 38/1/34 40/1/36 41/1/37
f 41/1/37 40/1/36 42/1/38
f 45/3/41 44/4/40 43/4/39
f 44/4/40 45/3/41 46/3/42
f 43/4/39 47/3/43 45/3/41
f 47/3/43 43/4/39 48/4/44
f 51/4/47 50/3/46 49/3/45
f 50/3/46 51/4/47 52/4/48
f 51/4/47 47/3/43 48/4/44
f 47/3/43 51/4/47 49/3/45
f 52/4/48 53/3/49 50/3/46
f 53/3/49 52/4/48 54/4/50
f 53/3/49 44/4/40 46/3/42
f 44/4/40 53/3/49 54/4/50
f 38/1/34 54/4/50 52/4/48
f 54/4/50 38/1/34 41/1/37
f 44/4/40 40/1/36 43/4/39
f 40/1/36 44/4/40 42/1/38
f 38/1/34 51/4/47 37/1/33
f 51/4/47 38/1/34 52/4/48
f 44/4/40 41/1/37 42/1/38
f 41/1/37 44/4/40 54/4/50
f 39/1/35 51/4/47 48/4/44
f 51/4/47 39/1/35 37/1/33
f 40/1/36 48/4/44 43/4/39
f 48/4/44 40/1/36 39/1/35
f 57/1/1 56/1/1 55/1/1
f 56/1/1 57/1/1 58/1/1
f 56/1/1 58/1/1 59/1/1
f 59/1/1 58/1/1 60/1/1
f 57/1/51 62/2/52 61/2/51
f 62/2/52 57/1/51 55/1/52
f 63/2/53 59/1/54 60/1/53
f 59/1/54 63/2/53 64/2/54
f 56/1/55 62/2/52 55/1/52
f 62/2/52 56/1/55 65/2/55
f 56/1/55 64/2/54 65/2/55
f 64/2/54 56/1/55 59/1/54
f 58/1/56 61/2/51 66/2/56
f 61/2/51 58/1/56 57/1/51
f 63/2/53 58/1/56 66/2/56
f 58/1/56 63/2/53 60/1/53
f 69/3/8 68/3/8 67/3/8
f 68/3/8 69/3/8 70/3/8
f 68/3/8 70/3/8 71/3/8
f 71/3/8 70/3/8 72/3/8
f 62/2/57 69/3/58 67/3/57
f 69/3/58 62/2/57 65/2/58
f 65/2/58 70/3/59 69/3/58
f 70/3/59 65/2/58 64/2/59
f 66/2/60 68/3/61 71/3/60
f 68/3/61 66/2/60 61/2/61
f 62/2/57 68/3/61 61/2/61
f 68/3/61 62/2/57 67/3/57
f 70/3/59 63/2/62 72/3/62
f 63/2/62 70/3/59 64/2/59
f 71/3/60 63/2/62 66/2/60
f 63/2/62 71/3/60 72/3/62
f 75/1/65 74/1/64 73/1/63
f 74/1/64 75/1/65 76/1/66
f 74/1/64 76/1/66 77/1/67
f 77/1/67 76/1/66 78/1/68
f 81/3/71 80/4/70 79/4/69
f 80/4/70 81/3/71 82/3/72
f 79/4/69 83/3/73 81/3/71
f 83/3/73 79/4/69 84/4/74
f 87/4/77 86/3/76 85/3/75
f 86/3/76 87/4/77 88/4/78
f 87/4/77 83/3/73 84/4/74
f 83/3/73 87/4/77 85/3/75
f 88/4/78 89/3/79 86/3/76
f 89/3/79 88/4/78 90/4/80
f 89/3/79 80/4/70 82/3/72
f 80/4/70 89/3/79 90/4/80
f 74/1/64 90/4/80 88/4/78
f 90/4/80 74/1/64 77/1/67
f 80/4/70 76/1/66 79/4/69
f 76/1/66 80/4/70 78/1/68
f 74/1/64 87/4/77 73/1/63
f 87/4/77 74/1/64 88/4/78
f 80/4/70 77/1/67 78/1/68
f 77/1/67 80/4/70 90/4/80
f 75/1/65 87/4/77 84/4/74
f 87/4/77 75/1/65 73/1/63
f 76/1/66 84/4/74 79/4/69
f 84/4/74 76/1/66 75/1/65
f 93/1/1 92/1/1 91/1/1
f 92/1/1 93/1/1 94/1/1
f 92/1/1 94/1/1 95/1/1
f 95/1/1 94/1/1 96/1/1
f 93/1/81 98/2/82 97/2/81
f 98/2/82 93/1/81 91/1/82
f 99/2/83 95/1/84 96/1/83
f 95/1/84 99/2/83 100/2/84
f 92/1/85 98/2/82 91/1/82
f 98/2/82 92/1/85 101/2/85
f 92/1/85 100/2/84 101/2/85
f 100/2/84 92/1/85 95/1/84
f 94/1/86 97/2/81 102/2/86
f 97/2/81 94/1/86 93/1/81
f 99/2/83 94/1/86 102/2/86
f 94/1/86 99/2/83 96/1/83
f 105/3/8 104/3/8 103/3/8
f 104/3/8 105/3/8 106/3/8
f 104/3/8 106/3/8 107/3/8
f 107/3/8 106/3/8 108/3/8
f 98/2/87 105/3/88 103/3/87
f 105/3/88 98/2/87 101/2/88
f 101/2/88 106/3/89 105/3/88
f 106/3/89 101/2/88 100/2/89
f 102/2/90 104/3/91 107/3/90
f 104/3/91 102/2/90 97/2/91
f 98/2/87 104/3/91 97/2/91
f 104/3/91 98/2/87 103/3/87
f 106/3/89 99/2/92 108/3/92
f 99/2/92 106/3/89 100/2/89
f 107/3/90 99/2/92 102/2/90
f 99/2/92 107/3/90 108/3/92
f 111/1/1 110/1/1 109/1/1
f 110/1/1 111/1/1 112/1/1
f 110/1/1 112/1/1 113/1/1
f 113/1/1 112/1/1 114/1/1
f 111/1/93 116/2/94 115/2/93
f 116/2/94 111/1/93 109/1/94
f 117/2/95 113/1/96 114/1/95
f 113/1/96 117/2/95 118/2/96
f 110/1/97 116/2/94 109/1/94
f 116/2/94 110/1/97 119/2/97
f 110/1/97 118/2/96 119/2/97
f 118/2/96 110/1/97 113/1/96
f 112/1/98 115/2/93 120/2/98
f 115/2/93 112/1/98 111/1/93
f 117/2/95 112/1/98 120/2/98
f 112/1/98 117/2/95 114/1/95
f 123/3/8 122/3/8 121/3/8
f 122/3/8 123/3/8 124/3/8
f 122/3/8 124/3/8 125/3/8
f 125/3/8 124/3/8 126/3/8
f 116/2/99 123/3/100 121/3/99
f 123/3/100 116/2/99 119/2/100
f 119/2/100 124/3/101 123/3/100
f 124/3/101 119/2/100 118/2/101
f 120/2/102 122/3/103 125/3/102
f 122/3/103 120/2/102 115/2/103
f 116/2/99 122/3/103 115/2/103
f 122/3/103 116/2/99 121/3/99
f 124/3/101 117/2/104 126/3/104
f 117/2/104 124/3/101 118/2/101
f 125/3/102 117/2/104 120/2/102
f 117/2/104 125/3/102 126/3/104
f 129/1/107 128/1/106 127/1/105
f 128/1/106 129/1/107 130/1/108
f 128/1/106 130/1/108 131/1/109
f 131/1/109 130/1/108 132/1/110
f 135/3/113 134/4/112 133/4/111
f 134/4/112 135/3/113 136/3/114
f 133/4/111 137/3/115 135/3/113
f 137/3/115 133/4/111 138/4/116
f 141/4/119 140/3/118 139/3/117
f 140/3/118 141/4/119 142/4/120
f 141/4/119 137/3/115 138/4/116
f 137/3/115 141/4/119 139/3/117
f 142/4/120 143/3/121 140/3/118
f 143/3/121 142/4/120 144/4/122
f 143/3/121 134/4/112 136/3/114
f 134/4/112 143/3/121 144/4/122
f 128/1/106 144/4/122 142/4/120
f 144/4/122 128/1/106 131/1/109
f 134/4/112 130/1/108 133/4/111
f 130/1/108 134/4/112 132/1/110
f 128/1/106 141/4/119 127/1/105
f 141/4/119 128/1/106 142/4/120
f 134/4/112 131/1/109 132/1/110
f 131/1/109 134/4/112 144/4/122
f 129/1/107 141/4/119 138/4/116
f 141/4/119 129/1/107 127/1/105
f 130/1/108 138/4/116 133/4/111
f 138/4/116 130/1/108 129/1/107
f 147/5/125 146/6/124 145/5/123
f 146/6/124 147/5/125 148/6/126
f 151/6/129 150/5/128 149/5/127
f 150/5/128 151/6/129 152/6/130
f 155/6/133 154/5/132 153/5/131
f 154/5/132 155/6/133 156/6/134
f 152/6/130 147/5/125 150/5/128
f 147/5/125 152/6/130 148/6/126
f 153/5/131 146/6/124 155/6/133
f 146/6/124 153/5/131 145/5/123
f 151/6/129 154/5/132 156/6/134
f 154/5/132 151/6/129 149/5/127
f 157/7/135 151/6/129 156/6/134
f 151/6/129 157/7/135 158/7/136
f 148/6/126 159/7/137 146/6/124
f 159/7/137 148/6/126 160/7/138
f 158/7/136 152/6/130 151/6/129
f 152/6/130 158/7/136 161/7/139
f 162/7/140 156/6/134 155/6/133
f 156/6/134 162/7/140 157/7/135
f 161/7/139 148/6/126 152/6/130
f 148/6/126 161/7/139 160/7/138
f 146/6/124 162/7/140 155/6/133
f 162/7/140 146/6/124 159/7/137
f 165/5/143 164/6/142 163/5/141
f 164/6/142 165/5/143 166/6/144
f 169/6/147 168/5/146 167/5/145
f 168/5/146 169/6/147 170/6/148
f 173/6/151 172/5/150 171/5/149
f 172/5/150 173/6/151 174/6/152
f 170/6/148 165/5/143 168/5/146
f 165/5/143 170/6/148 166/6/144
f 171/5/149 164/6/142 173/6/151
f 164/6/142 171/5/149 163/5/141
f 169/6/147 172/5/150 174/6/152
f 172/5/150 169/6/147 167/5/145
f 175/7/153 169/6/147 174/6/152
f 169/6/147 175/7/153 176/7/154
f 166/6/144 177/7/155 164/6/142
f 177/7/155 166/6/144 178/7/156
f 176/7/154 170/6/148 169/6/147
f 170/6/148 176/7/154 179/7/157
f 180/7/158 174/6/152 173/6/151
f 174/6/152 180/7/158 175/7/153
f 179/7/157 166/6/144 170/6/148
f 166/6/144 179/7/157 178/7/156
f 164/6/142 180/7/158 173/6/151
f 180/7/158 164/6/142 177/7/155
f 183/5/161 182/6/160 181/5/159
f 182/6/160 183/5/161 184/6/162
f 187/6/165 186/5/164 185/5/163
f 186/5/164 187/6/165 188/6/166
f 191/6/169 190/5/168 189/5/167
f 190/5/168 191/6/169 192/6/170
f 188/6/166 183/5/161 186/5/164
f 183/5/161 188/6/166 184/6/162
f 189/5/167 182/6/160 191/6/169
f 182/6/160 189/5/167 181/5/159
f 187/6/165 190/5/168 192/6/170
f 190/5/168 187/6/165 185/5/163
f 193/7/171 187/6/165 192/6/170
f 187/6/165 193/7/171 194/7/172
f 184/6/162 195/7/173 182/6/160
f 195/7/173 184/6/162 196/7/174
f 197/7/175 187/6/165 194/7/172
f 187/6/165 197/7/175 188/6/166
f 198/7/176 192/6/170 191/6/169
f 192/6/170 198/7/176 193/7/171
f 197/7/175 184/6/162 188/6/166
f 184/6/162 197/7/175 196/7/174
f 182/6/160 198/7/176 191/6/169
f 198/7/176 182/6/160 195/7/173
f 201/5/179 200/6/178 199/5/177
f 200/6/178 201/5/179 202/6/180
f 205/6/183 204/5/182 203/5/181
f 204/5/182 205/6/183 206/6/184
f 209/6/187 208/5/186 207/5/185
f 208/5/186 209/6/187 210/6/188
f 206/6/184 201/5/179 204/5/182
f 201/5/179 206/6/184 202/6/180
f 207/5/185 200/6/178 209/6/187
f 200/6/178 207/5/185 199/5/177
f 205/6/183 208/5/186 210/6/188
f 208/5/186 205/6/183 203/5/181
f 211/7/189 205/6/183 210/6/188
f 205/6/183 211/7/189 212/7/190
f 202/6/180 213/7/191 200/6/178
f 213/7/191 202/6/180 214/7/192
f 212/7/190 206/6/184 205/6/183
f 206/6/184 212/7/190 215/7/193
f 216/7/194 210/6/188 209/6/187
f 210/6/188 216/7/194 211/7/189
f 215/7/193 202/6/180 206/6/184
f 202/6/180 215/7/193 214/7/192
f 200/6/178 216/7/194 209/6/187
f 216/7/194 200/6/178 213/7/191
f 219/8/197 218/8/196 217/8/195
f 218/8/196 219/8/197 220/8/198
f 220/8/198 219/8/197 221/8/199
f 220/8/198 221/8/199 222/8/200
f 222/8/200 221/8/199 223/8/201
f 222/8/200 223/8/201 224/8/202
f 224/8/202 223/8/201 225/8/203
f 224/8/202 225/8/203 226/8/204
f 226/8/204 225/8/203 227/8/205
f 226/8/204 227/8/205 228/8/206
f 228/8/206 227/8/205 229/8/207
f 228/8/206 229/8/207 230/8/208
f 228/8/206 230/8/208 231/8/209
f 231/8/209 230/8/208 232/8/210
f 231/8/209 232/8/210 233/8/211
f 231/8/209 233/8/211 234/8/212
f 237/9/215 236/9/214 235/9/213
f 236/9/214 237/9/215 238/9/216
f 238/9/216 237/9/215 239/9/217
f 239/9/217 237/9/215 240/9/218
f 239/9/217 240/9/218 241/9/219
f 241/9/219 240/9/218 242/9/220
f 241/9/219 242/9/220 243/9/221
f 243/9/221 242/9/220 244/9/222
f 243/9/221 244/9/222 245/9/223
f 245/9/223 244/9/222 246/9/224
f 245/9/223 246/9/224 247/9/225
f 247/9/225 246/9/224 248/9/226
f 248/9/226 246/9/224 249/9/227
f 248/9/226 249/9/227 250/9/228
f 250/9/228 249/9/227 251/9/229
f 251/9/229 249/9/227 252/9/230
f 236/9/231 218/8/231 235/9/231
f 218/8/231 236/9/231 217/8/231
f 237/9/215 218/8/196 220/8/198
f 218/8/196 237/9/215 235/9/213
f 240/9/218 220/8/198 222/8/200
f 220/8/198 240/9/218 237/9/215
f 242/9/220 222/8/200 224/8/202
f 222/8/200 242/9/220 240/9/218
f 244/9/222 224/8/202 226/8/204
f 224/8/202 244/9/222 242/9/220
f 228/8/206 244/9/222 226/8/204
f 244/9/222 228/8/206 246/9/224
f 231/8/209 246/9/224 228/8/206
f 246/9/224 231/8/209 249/9/227
f 234/8/212 249/9/227 231/8/209
f 249/9/227 234/8/212 252/9/230
f 233/8/211 252/9/230 234/8/212
f 252/9/230 233/8/211 251/9/229
f 250/9/232 233/8/232 232/8/232
f 233/8/232 250/9/232 251/9/232
f 250/9/228 230/8/208 248/9/226
f 230/8/208 250/9/228 232/8/210
f 248/9/226 229/8/207 247/9/225
f 229/8/207 248/9/226 230/8/208
f 247/9/225 227/8/205 245/9/223
f 227/8/205 247/9/225 229/8/207
f 245/9/223 225/8/203 243/9/221
f 225/8/203 245/9/223 227/8/205
f 241/9/219 225/8/203 223/8/201
f 225/8/203 241/9/219 243/9/221
f 239/9/217 223/8/201 221/8/199
f 223/8/201 239/9/217 241/9/219
f 238/9/216 221/8/199 219/8/197
f 221/8/199 238/9/216 239/9/217
f 236/9/214 219/8/197 217/8/195
f 219/8/197 236/9/214 238/9/216
f 255/8/197 254/8/196 253/8/195
f 254/8/196 255/8/197 256/8/198
f 256/8/198 255/8/197 257/8/199
f 256/8/198 257/8/199 258/8/200
f 258/8/200 257/8/199 259/8/201
f 258/8/200 259/8/201 260/8/202
f 260/8/202 259/8/201 261/8/203
f 260/8/202 261/8/203 262/8/204
f 262/8/204 261/8/203 263/8/205
f 262/8/204 263/8/205 264/8/206
f 264/8/206 263/8/205 265/8/207
f 264/8/206 265/8/207 266/8/208
f 264/8/206 266/8/208 267/8/209
f 267/8/209 266/8/208 268/8/210
f 267/8/209 268/8/210 269/8/211
f 267/8/209 269/8/211 270/8/212
f 273/9/215 272/9/214 271/9/213
f 272/9/214 273/9/215 274/9/216
f 274/9/216 273/9/215 275/9/217
f 275/9/217 273/9/215 276/9/218
f 275/9/217 276/9/218 277/9/219
f 277/9/219 276/9/218 278/9/220
f 277/9/219 278/9/220 279/9/221
f 279/9/221 278/9/220 280/9/222
f 279/9/221 280/9/222 281/9/223
f 281/9/223 280/9/222 282/9/224
f 281/9/223 282/9/224 283/9/225
f 283/9/225 282/9/224 284/9/226
f 284/9/226 282/9/224 285/9/227
f 284/9/226 285/9/227 286/9/228
f 286/9/228 285/9/227 287/9/229
f 287/9/229 285/9/227 288/9/230
f 272/9/231 254/8/231 271/9/231
f 254/8/231 272/9/231 253/8/231
f 273/9/215 254/8/196 256/8/198
f 254/8/196 273/9/215 271/9/213
f 276/9/218 256/8/198 258/8/200
f 256/8/198 276/9/218 273/9/215
f 278/9/220 258/8/200 260/8/202
f 258/8/200 278/9/220 276/9/218
f 280/9/222 260/8/202 262/8/204
f 260/8/202 280/9/222 278/9/220
f 264/8/206 280/9/222 262/8/204
f 280/9/222 264/8/206 282/9/224
f 267/8/209 282/9/224 264/8/206
f 282/9/224 267/8/209 285/9/227
f 270/8/212 285/9/227 267/8/209
f 285/9/227 270/8/212 288/9/230
f 269/8/211 288/9/230 270/8/212
f 288/9/230 269/8/211 287/9/229
f 286/9/232 269/8/232 268/8/232
f 269/8/232 286/9/232 287/9/232
f 286/9/228 266/8/208 284/9/226
f 266/8/208 286/9/228 268/8/210
f 284/9/226 265/8/207 283/9/225
f 265/8/207 284/9/226 266/8/208
f 283/9/225 263/8/205 281/9/223
f 263/8/205 283/9/225 265/8/207
f 281/9/223 261/8/203 279/9/221
f 261/8/203 281/9/223 263/8/205
f 277/9/219 261/8/203 259/8/201
f 261/8/203 277/9/219 279/9/221
f 275/9/217 259/8/201 257/8/199
f 259/8/201 275/9/217 277/9/219
f 274/9/216 257/8/199 255/8/197
f 257/8/199 274/9/216 275/9/217
f 272/9/214 255/8/197 253/8/195
f 255/8/197 272/9/214 274/9/216
