mtllib yard_iron-fence-bar.mtl
g iron-fence-bar
v 0.04356 0.5539 -3.6096e-16
v 0.02178 0.5539 0.037724
v 0.02178 0.5539 -0.037724
v -0.02178 0.5539 -0.037724
v -0.02178 0.5539 0.037724
v -0.04356 0.5539 -3.6096e-16
v 0.029839 0.5239 -0.051682
v 0.059677 0.5239 5.4143e-16
v -0.059677 0.5239 5.4143e-16
v -0.029839 0.5239 0.051682
v 0.029839 0.5239 0.051682
v -0.029839 0.5239 -0.051682
v 0.04356 0.5039 3.6096e-16
v 0.02178 0.5039 -0.037724
v 0.02178 0.5039 0.037724
v -0.02178 0.5039 0.037724
v -0.02178 0.5039 -0.037724
v -0.04356 0.5039 3.6096e-16
v 0.01089 0.6689 3.6096e-16
v 0.005445 0.6689 0.009431
v 0.005445 0.6689 -0.009431
v -0.005445 0.6689 -0.009431
v -0.005445 0.6689 0.009431
v -0.01089 0.6689 3.6096e-16
v -0.02178 0.5939 -0.037724
v -0.04356 0.5939 1.0829e-15
v -0.01452 0.5564 -0.025149
v -0.02904 0.5564 -3.6096e-16
v 0.01452 0.5564 -0.025149
v 0.02178 0.5939 -0.037724
v 0.02904 0.5564 -3.6096e-16
v 0.01452 0.5564 0.025149
v 0.04356 0.5939 1.0829e-15
v 0.02178 0.5939 0.037724
v -0.01452 0.5564 0.025149
v -0.02178 0.5939 0.037724
v -0.0363 0 -1.6243e-15
v -0.04719 0.25195 -5.4143e-16
v -0.01815 0 0.031437
v -0.023595 0.25195 0.040868
v 0.0363 0 -1.6243e-15
v 0.01815 0 0.031437
v 0.04719 0.25195 -5.4143e-16
v 0.023595 0.25195 0.040868
v -0.01815 0 -0.031437
v 0.01815 0 -0.031437
v -0.023595 0.25195 -0.040868
v 0.023595 0.25195 -0.040868
v 0.01815 0.5039 -0.031437
v 0.0363 0.5039 1.8048e-16
v -0.0363 0.5039 1.8048e-16
v -0.01815 0.5039 0.031437
v 0.01815 0.5039 0.031437
v -0.01815 0.5039 -0.031437
vn 0 1 0
vn 0.44046 0.47327 -0.7629
vn 0.88092 0.47327 0
vn -0.88092 0.47327 0
vn -0.44046 0.47327 0.7629
vn 0.44046 0.47327 0.7629
vn -0.44046 0.47327 -0.7629
vn 0 -1 0
vn 0.77864 -0.62747 0
vn 0.38932 -0.62747 0.67432
vn -0.38932 -0.62747 0.67432
vn -0.38932 -0.62747 -0.67432
vn 0.38932 -0.62747 -0.67432
vn -0.77864 -0.62747 0
vn 0.65133 0.7588 0
vn 0.32566 0.7588 0.56406
vn 0.32566 0.7588 -0.56406
vn -0.32566 0.7588 -0.56406
vn -0.32566 0.7588 0.56406
vn -0.65133 0.7588 0
vn -0.49991 0.018565 -0.86588
vn -0.99983 0.018565 0
vn -0.46627 -0.36108 -0.8076
vn -0.93254 -0.36108 0
vn 0.46627 -0.36108 -0.8076
vn 0.49991 0.018565 -0.86588
vn 0.93254 -0.36108 0
vn 0.46627 -0.36108 0.8076
vn 0.99983 0.018565 0
vn 0.49991 0.018565 0.86588
vn -0.46627 -0.36108 0.8076
vn -0.49991 0.018565 0.86588
vn -0.99907 -0.043183 0
vn -1 0 0
vn -0.49953 -0.043183 0.86522
vn -0.5 0 0.86603
vn 0.99907 -0.043183 0
vn 0.49953 -0.043183 0.86522
vn 1 0 0
vn 0.5 0 0.86603
vn -0.49953 -0.043183 -0.86522
vn 0.49953 -0.043183 -0.86522
vn -0.5 0 -0.86603
vn 0.5 0 -0.86603
vn 0.49953 0.043183 -0.86522
vn 0.99907 0.043183 0
vn -0.99907 0.043183 0
vn -0.49953 0.043183 0.86522
vn 0.49953 0.043183 0.86522
vn -0.49953 0.043183 -0.86522
vt 0.96875 0.225
vt 0.96875 0.105
vt 0.96875 0.025
vt 0.96875 0.091667
vt 0.71875 0.475
vt 0.71875 0.375
vt 0.71875 0.275
usemtl colormap
f 3/1/1 2/1/1 1/1/1
f 2/1/1 3/1/1 4/1/1
f 2/1/1 4/1/1 5/1/1
f 5/1/1 4/1/1 6/1/1
f 3/1/2 8/2/3 7/2/2
f 8/2/3 3/1/2 1/1/3
f 9/2/4 5/1/5 6/1/4
f 5/1/5 9/2/4 10/2/5
f 2/1/6 8/2/3 1/1/3
f 8/2/3 2/1/6 11/2/6
f 2/1/6 10/2/5 11/2/6
f 10/2/5 2/1/6 5/1/5
f 4/1/7 7/2/2 12/2/7
f 7/2/2 4/1/7 3/1/2
f 9/2/4 4/1/7 12/2/7
f 4/1/7 9/2/4 6/1/4
f 15/3/8 14/3/8 13/3/8
f 14/3/8 15/3/8 16/3/8
f 14/3/8 16/3/8 17/3/8
f 17/3/8 16/3/8 18/3/8
f 8/2/9 15/3/10 13/3/9
f 15/3/10 8/2/9 11/2/10
f 11/2/10 16/3/11 15/3/10
f 16/3/11 11/2/10 10/2/11
f 12/2/12 14/3/13 17/3/12
f 14/3/13 12/2/12 7/2/13
f 8/2/9 14/3/13 7/2/13
f 14/3/13 8/2/9 13/3/9
f 16/3/11 9/2/14 18/3/14
f 9/2/14 16/3/11 10/2/11
f 17/3/12 9/2/14 12/2/12
f 9/2/14 17/3/12 18/3/14
f 21/1/17 20/1/16 19/1/15
f 20/1/16 21/1/17 22/1/18
f 20/1/16 22/1/18 23/1/19
f 23/1/19 22/1/18 24/1/20
f 27/3/23 26/4/22 25/4/21
f 26/4/22 27/3/23 28/3/24
f 25/4/21 29/3/25 27/3/23
f 29/3/25 25/4/21 30/4/26
f 33/4/29 32/3/28 31/3/27
f 32/3/28 33/4/29 34/4/30
f 33/4/29 29/3/25 30/4/26
f 29/3/25 33/4/29 31/3/27
f 34/4/30 35/3/31 32/3/28
f 35/3/31 34/4/30 36/4/32
f 35/3/31 26/4/22 28/3/24
f 26/4/22 35/3/31 36/4/32
f 20/1/16 36/4/32 34/4/30
f 36/4/32 20/1/16 23/1/19
f 26/4/22 22/1/18 25/4/21
f 22/1/18 26/4/22 24/1/20
f 20/1/16 33/4/29 19/1/15
f 33/4/29 20/1/16 34/4/30
f 26/4/22 23/1/19 24/1/20
f 23/1/19 26/4/22 36/4/32
f 21/1/17 33/4/29 30/4/26
f 33/4/29 21/1/17 19/1/15
f 22/1/18 30/4/26 25/4/21
f 30/4/26 22/1/18 21/1/17
f 39/5/35 38/6/34 37/5/33
f 38/6/34 39/5/35 40/6/36
f 43/6/39 42/5/38 41/5/37
f 42/5/38 43/6/39 44/6/40
f 47/6/43 46/5/42 45/5/41
f 46/5/42 47/6/43 48/6/44
f 44/6/40 39/5/35 42/5/38
f 39/5/35 44/6/40 40/6/36
f 45/5/41 38/6/34 47/6/43
f 38/6/34 45/5/41 37/5/33
f 43/6/39 46/5/42 48/6/44
f 46/5/42 43/6/39 41/5/37
f 49/7/45 43/6/39 48/6/44
f 43/6/39 49/7/45 50/7/46
f 40/6/36 51/7/47 38/6/34
f 51/7/47 40/6/36 52/7/48
f 50/7/46 44/6/40 43/6/39
f 44/6/40 50/7/46 53/7/49
f 54/7/50 48/6/44 47/6/43
f 48/6/44 54/7/50 49/7/45
f 53/7/49 40/6/36 44/6/40
f 40/6/36 53/7/49 52/7/48
f 38/6/34 54/7/50 47/6/43
f 54/7/50 38/6/34 51/7/47
f 42/5/8 46/5/8 41/5/8
f 46/5/8 42/5/8 39/5/8
f 46/5/8 39/5/8 45/5/8
f 45/5/8 39/5/8 37/5/8
g iron-fence-bar
usemtl colormap
f 3/1/1 2/1/1 1/1/1
f 2/1/1 3/1/1 4/1/1
f 2/1/1 4/1/1 5/1/1
f 5/1/1 4/1/1 6/1/1
f 3/1/2 8/2/3 7/2/2
f 8/2/3 3/1/2 1/1/3
f 9/2/4 5/1/5 6/1/4
f 5/1/5 9/2/4 10/2/5
f 2/1/6 8/2/3 1/1/3
f 8/2/3 2/1/6 11/2/6
f 2/1/6 10/2/5 11/2/6
f 10/2/5 2/1/6 5/1/5
f 4/1/7 7/2/2 12/2/7
f 7/2/2 4/1/7 3/1/2
f 9/2/4 4/1/7 12/2/7
f 4/1/7 9/2/4 6/1/4
f 15/3/8 14/3/8 13/3/8
f 14/3/8 15/3/8 16/3/8
f 14/3/8 16/3/8 17/3/8
f 17/3/8 16/3/8 18/3/8
f 8/2/9 15/3/10 13/3/9
f 15/3/10 8/2/9 11/2/10
f 11/2/10 16/3/11 15/3/10
f 16/3/11 11/2/10 10/2/11
f 12/2/12 14/3/13 17/3/12
f 14/3/13 12/2/12 7/2/13
f 8/2/9 14/3/13 7/2/13
f 14/3/13 8/2/9 13/3/9
f 16/3/11 9/2/14 18/3/14
f 9/2/14 16/3/11 10/2/11
f 17/3/12 9/2/14 12/2/12
f 9/2/14 17/3/12 18/3/14
f 21/1/17 20/1/16 19/1/15
f 20/1/16 21/1/17 22/1/18
f 20/1/16 22/1/18 23/1/19
f 23/1/19 22/1/18 24/1/20
f 27/3/23 26/4/22 25/4/21
f 26/4/22 27/3/23 28/3/24
f 25/4/21 29/3/25 27/3/23
f 29/3/25 25/4/21 30/4/26
f 33/4/29 32/3/28 31/3/27
f 32/3/28 33/4/29 34/4/30
f 33/4/29 29/3/25 30/4/26
f 29/3/25 33/4/29 31/3/27
f 34/4/30 35/3/31 32/3/28
f 35/3/31 34/4/30 36/4/32
f 35/3/31 26/4/22 28/3/24
f 26/4/22 35/3/31 36/4/32
f 20/1/16 36/4/32 34/4/30
f 36/4/32 20/1/16 23/1/19
f 26/4/22 22/1/18 25/4/21
f 22/1/18 26/4/22 24/1/20
f 20/1/16 33/4/29 19/1/15
f 33/4/29 20/1/16 34/4/30
f 26/4/22 23/1/19 24/1/20
f 23/1/19 26/4/22 36/4/32
f 21/1/17 33/4/29 30/4/26
f 33/4/29 21/1/17 19/1/15
f 22/1/18 30/4/26 25/4/21
f 30/4/26 22/1/18 21/1/17
f 39/5/35 38/6/34 37/5/33
f 38/6/34 39/5/35 40/6/36
f 43/6/39 42/5/38 41/5/37
f 42/5/38 43/6/39 44/6/40
f 47/6/43 46/5/42 45/5/41
f 46/5/42 47/6/43 48/6/44
f 44/6/40 39/5/35 42/5/38
f 39/5/35 44/6/40 40/6/36
f 45/5/41 38/6/34 47/6/43
f 38/6/34 45/5/41 37/5/33
f 43/6/39 46/5/42 48/6/44
f 46/5/42 43/6/39 41/5/37
f 49/7/45 43/6/39 48/6/44
f 43/6/39 49/7/45 50/7/46
f 40/6/36 51/7/47 38/6/34
f 51/7/47 40/6/36 52/7/48
f 50/7/46 44/6/40 43/6/39
f 44/6/40 50/7/46 53/7/49
f 54/7/50 48/6/44 47/6/43
f 48/6/44 54/7/50 49/7/45
f 53/7/49 40/6/36 44/6/40
f 40/6/36 53/7/49 52/7/48
f 38/6/34 54/7/50 47/6/43
f 54/7/50 38/6/34 51/7/47
f 42/5/8 46/5/8 41/5/8
f 46/5/8 42/5/8 39/5/8
f 46/5/8 39/5/8 45/5/8
f 45/5/8 39/5/8 37/5/8
