mtllib yard_pine-fall-crooked.mtl
g pine-fall-crooked
v -0.25283 1.5288 -0.16131
v 0.025468 1.504 -0.32262
v -0.11298 1.5545 -0.24662
v -0.2548 1.5671 -5.4143e-16
v -0.25283 1.5288 0.16131
v 0.025468 1.504 0.32262
v -0.11298 1.5545 0.24662
v 0.3125 1.5165 -5.4143e-16
v 0.30376 1.4791 -0.16131
v 0.30376 1.4791 0.16131
v 0.17067 1.5292 0.24662
v 0.17067 1.5292 -0.24662
v 0.22175 1.6673 -5.4143e-16
v 0.13162 1.6753 0.15674
v 0.13873 1.9959 2.8876e-15
v 0.10432 1.9989 0.059833
v 0.028846 1.5418 0.24662
v 0.24158 1.5228 -0.12331
v 0.13162 1.6753 -0.15674
v -0.18389 1.5608 0.12331
v -0.04866 1.6914 -0.15674
v 0.035507 2.0051 -0.059833
v -0.1388 1.6995 -5.4143e-16
v 0.0010995 2.0081 -3.6096e-16
v -0.18389 1.5608 -0.12331
v -0.04866 1.6914 0.15674
v 0.035507 2.0051 0.059833
v 0.24158 1.5228 0.12331
v 0.10432 1.9989 -0.059833
v 0.028846 1.5418 -0.24662
v 0.26704 1.382 0.14518
v 0.26704 1.382 -0.14518
v 0.016579 1.4044 0.29036
v 0.016579 1.4044 -0.29036
v -0.23389 1.4267 0.14518
v -0.23389 1.4267 -0.14518
v 0.024464 0.82991 -0.5405
v 0.48998 0.78098 -0.27025
v 0.26645 0.8501 -0.41317
v -0.44105 0.87884 -0.27025
v -0.44527 0.9249 1.8048e-16
v -0.44105 0.87884 0.27025
v 0.024464 0.82991 0.5405
v -0.20803 0.89997 0.41317
v 0.50368 0.82516 1.8048e-16
v 0.48998 0.78098 0.27025
v -0.20803 0.89997 -0.41317
v 0.26645 0.8501 0.41317
v 0.014011 0.73046 0.47564
v -0.39565 0.77351 0.23782
v 0.029207 0.87503 0.41317
v 0.42367 0.6874 0.23782
v 0.42367 0.6874 -0.23782
v 0.014011 0.73046 -0.47564
v -0.39565 0.77351 -0.23782
v -0.32665 0.91244 -0.20659
v 0.38506 0.83763 -0.20659
v 0.38506 0.83763 0.20659
v -0.32665 0.91244 0.20659
v 0.029207 0.87503 -0.41317
v -0.10304 1.0421 -0.25805
v -0.046962 1.2831 -0.20508
v -0.2512 1.0577 5.4143e-16
v -0.16472 1.2955 3.6096e-16
v 0.1933 1.011 -0.25805
v -0.10304 1.0421 0.25805
v 0.18855 1.2583 -0.20508
v -0.046962 1.2831 0.20508
v 0.34147 0.99541 5.4143e-16
v 0.3063 1.2459 -3.6096e-16
v 0.1933 1.011 0.25805
v 0.18855 1.2583 0.20508
v 0.10411 1.4059 -0.17424
v 0.084143 1.6273 -0.16673
v -0.10268 1.6145 -0.16673
v 0.23812 1.3995 -6.3167e-16
v -0.10871 1.3759 -0.20071
v 0.20752 1.1956 -0.32451
v 0.39444 1.2083 -9.0239e-16
v 0.39078 1.1579 -0.21225
v 0.39078 1.1579 0.21225
v 0.023998 1.1329 0.42451
v 0.20752 1.1956 0.32451
v -0.34278 1.1079 0.21225
v -0.16632 1.1701 0.32451
v 0.17756 1.6337 -0.0045544
v -0.34278 1.1079 -0.21225
v 0.023998 1.1329 -0.42451
v -0.16632 1.1701 -0.32451
v -0.35324 1.1573 -9.0239e-16
v 0.34623 1.0547 0.18254
v 0.030799 1.0332 0.36507
v -0.25978 1.1637 -0.16225
v 0.020597 1.1828 0.32451
v -0.28463 1.0117 0.18254
v 0.30098 1.2019 -0.16225
v 0.34623 1.0547 -0.18254
v 0.030799 1.0332 -0.36507
v -0.28463 1.0117 -0.18254
v 0.30098 1.2019 0.16225
v -0.25978 1.1637 0.16225
v 0.020597 1.1828 -0.32451
v -0.10871 1.3759 0.20071
v -0.10268 1.6145 0.15762
v 0.12251 1.3916 0.20071
v 0.084143 1.6273 0.15762
v -0.1961 1.6082 -0.0045544
v -0.22432 1.368 -6.3167e-16
v -0.55997 0.41797 -0.33364
v -0.57109 0.49656 -1.8048e-16
v -0.55997 0.41797 0.33364
v 0.017913 0.41797 -0.66728
v 0.59579 0.41797 -0.33364
v 0.31241 0.49656 -0.51009
v 0.59579 0.41797 0.33364
v 0.017913 0.41797 0.66728
v 0.31241 0.49656 0.51009
v -0.27659 0.49656 -0.51009
v 0.60691 0.49656 -1.8048e-16
v -0.27659 0.49656 0.51009
v -0.42384 0.49656 0.25504
v 0.017913 0.49656 -0.51009
v 0.45966 0.49656 -0.25504
v -0.42384 0.49656 -0.25504
v 0.45966 0.49656 0.25504
v 0.017913 0.49656 0.51009
v -0.49062 0.31797 -0.2936
v -0.49062 0.31797 0.2936
v 0.52645 0.31797 0.2936
v 0.52645 0.31797 -0.2936
v 0.017913 0.31797 0.58721
v 0.017913 0.31797 -0.58721
v 0.21116 0.68979 -0.33471
v 0.16857 0.95246 -0.26094
v -0.17533 0.68979 -0.33471
v -0.13274 0.95246 -0.26094
v 0.4044 0.68979 0
v 0.21116 0.68979 0.33471
v 0.31922 0.95246 9.0239e-17
v 0.16857 0.95246 0.26094
v -0.36858 0.68979 0
v -0.2834 0.95246 -5.4143e-16
v -0.17533 0.68979 0.33471
v -0.13274 0.95246 0.26094
v 0.15256 0.31797 -1.2633e-15
v 0.16934 0.16306 -9.0239e-16
v 0.076281 0.31797 0.13212
v 0.084671 0.16306 0.14666
v 0.084671 0.16306 -0.14666
v 0.076281 0.31797 -0.13212
v -0.15256 0.31797 -1.2633e-15
v -0.076281 0.31797 0.13212
v -0.16934 0.16306 -9.0239e-16
v -0.084671 0.16306 0.14666
v -0.084671 0.16306 -0.14666
v -0.076281 0.31797 -0.13212
v 0.12193 0 -0.2112
v 0.24387 0 -1.8048e-16
v 0.12193 0 0.2112
v -0.12193 0 -0.2112
v -0.24387 0 1.8048e-16
v -0.12193 0 0.2112
v 0.19509 -0.1 1.8048e-16
v 0.097548 -0.1 -0.16896
v 0.097548 -0.1 0.16896
v -0.097548 -0.1 -0.16896
v -0.097548 -0.1 0.16896
v -0.19509 -0.1 4.5119e-16
vn -0.50439 -0.20708 -0.83828
vn -0.50556 -0.095523 -0.85749
vn -0.98645 -0.16406 0
vn -0.99867 -0.051514 0
vn -0.50439 -0.20708 0.83828
vn -0.50556 -0.095523 0.85749
vn 0.97377 -0.22755 0
vn 0.94181 -0.33615 0
vn 0.45974 -0.29313 0.83828
vn 0.48066 -0.18354 0.85749
vn 0.45974 -0.29313 -0.83828
vn 0.48066 -0.18354 -0.85749
vn 0.81588 0.36238 0.45058
vn 0.74277 0.66955 0
vn 0.40396 0.69979 0.58916
vn 0.058827 0.65914 0.74971
vn 0.079509 0.89089 0.44721
vn 0.065931 0.73874 0.67076
vn 0.70553 0.60143 -0.37486
vn 0.64453 0.6871 -0.33538
vn 0.81588 0.36238 -0.45058
vn -0.58787 0.71686 0.37486
vn -0.30626 0.92531 0.22361
vn -0.51267 0.79038 0.33538
vn -0.73881 0.50113 -0.45058
vn -0.27365 0.76026 -0.58916
vn -0.61246 0.7905 0
vn -0.58787 0.71686 -0.37486
vn -0.51267 0.79038 -0.33538
vn 0.038533 0.43176 0.90117
vn -0.27365 0.76026 0.58916
vn 0.70553 0.60143 0.37486
vn 0.64453 0.6871 0.33538
vn 0.40396 0.69979 -0.58916
vn 0.46527 0.85646 -0.22361
vn -0.30626 0.92531 -0.22361
vn -0.73881 0.50113 0.45058
vn 0.058827 0.65914 -0.74971
vn 0.065931 0.73874 -0.67076
vn 0.038533 0.43176 -0.90117
vn 0.079509 0.89089 -0.44721
vn 0.46527 0.85646 0.22361
vn -0.088894 -0.99604 0
vn 0.45573 -0.31084 0.83408
vn 0.45573 -0.31084 -0.83408
vn 0.93538 -0.35364 0
vn -0.50357 -0.22522 0.83408
vn -0.98322 -0.18241 0
vn -0.50357 -0.22522 -0.83408
vn 0.3942 -0.50186 -0.7699
vn 0.46739 -0.2449 -0.84945
vn -0.93199 -0.36247 0
vn -0.99584 -0.09111 0
vn -0.48993 -0.40894 0.7699
vn -0.5081 -0.14237 0.84945
vn 0.95514 -0.29617 0
vn 0.83626 -0.54833 0
vn -0.48993 -0.40894 -0.7699
vn -0.5081 -0.14237 -0.84945
vn 0.3942 -0.50186 0.7699
vn 0.46739 -0.2449 0.84945
vn -0.48474 -0.44148 0.75506
vn 0.083492 0.79437 0.60167
vn 0.098463 0.93681 0.33569
vn 0.088597 0.84294 0.53066
vn -0.088597 -0.84294 -0.53066
vn -0.098463 -0.93681 -0.33569
vn -0.083492 -0.79437 -0.60167
vn -0.10453 -0.99452 0
vn -0.43471 0.84884 -0.30083
vn -0.36845 0.89098 -0.26533
vn -0.19066 0.9672 -0.16785
vn 0.19066 -0.9672 0.16785
vn 0.36845 -0.89098 0.26533
vn 0.43471 -0.84884 0.30083
vn 0.38236 -0.53262 0.75506
vn -0.91829 -0.39591 0
vn 0.6017 0.73991 -0.30083
vn 0.54564 0.79491 -0.26533
vn 0.38759 0.90642 -0.16785
vn -0.38759 -0.90642 0.16785
vn -0.54564 -0.79491 0.26533
vn -0.6017 -0.73991 0.30083
vn -0.48474 -0.44148 -0.75506
vn 0.6017 0.73991 0.30083
vn 0.38759 0.90642 0.16785
vn 0.54564 0.79491 0.26533
vn -0.54564 -0.79491 -0.26533
vn -0.38759 -0.90642 -0.16785
vn -0.6017 -0.73991 -0.30083
vn 0.38236 -0.53262 -0.75506
vn -0.43471 0.84884 0.30083
vn -0.19066 0.9672 0.16785
vn -0.36845 0.89098 0.26533
vn 0.36845 -0.89098 -0.26533
vn 0.19066 -0.9672 -0.16785
vn 0.43471 -0.84884 -0.30083
vn 0.083492 0.79437 -0.60167
vn 0.088597 0.84294 -0.53066
vn 0.098463 0.93681 -0.33569
vn -0.098463 -0.93681 0.33569
vn -0.088597 -0.84294 0.53066
vn -0.083492 -0.79437 0.60167
vn 0.81591 -0.57818 0
vn -0.68052 0.59568 -0.42669
vn -0.81986 0.29824 -0.48875
vn 0.054489 0.51842 -0.85339
vn -0.68052 0.59568 0.42669
vn 0.022046 0.20976 -0.9775
vn -0.81986 0.29824 0.48875
vn 0.78949 0.44117 -0.42669
vn 0.86395 0.12127 -0.48875
vn 0.78949 0.44117 0.42669
vn 0.86395 0.12127 0.48875
vn 0.054489 0.51842 0.85339
vn 0.022046 0.20976 0.9775
vn 0.03873 0.36346 -0.93081
vn -0.0022977 0.033704 -0.99943
vn 0.049048 0.084448 -0.99522
vn 0.8219 0.15424 -0.54835
vn 0.75714 0.36749 -0.54008
vn 0.7487 0.39313 -0.53376
vn 0.034774 0.38934 -0.92044
vn -0.026477 0.67474 -0.73758
vn 0.99737 -0.072418 0
vn 0.93686 -0.34969 0
vn 0.48246 -0.38067 0.78887
vn 0.50345 -0.10609 0.85749
vn -0.42634 -0.44263 0.78887
vn -0.4844 -0.17343 0.85749
vn 0.84388 0.20867 -0.49428
vn -0.42634 -0.44263 -0.78887
vn -0.4844 -0.17343 -0.85749
vn 0.48246 -0.38067 -0.78887
vn 0.50345 -0.10609 -0.85749
vn -0.88074 -0.4736 0
vn -0.97832 -0.20711 0
vn 0.5857 0.70939 -0.39206
vn 0.47467 -0.42633 0.77002
vn -0.69781 0.60839 -0.37806
vn -0.6338 0.69585 -0.33775
vn -0.44724 0.86601 -0.22361
vn 0.44724 -0.86601 0.22361
vn 0.6338 -0.69585 0.33775
vn 0.69781 -0.60839 0.37806
vn -0.044512 0.65293 0.75611
vn -0.060835 0.89236 0.44721
vn -0.050151 0.73564 0.67551
vn 0.050151 -0.73564 -0.67551
vn 0.060835 -0.89236 -0.44721
vn 0.044512 -0.65293 -0.75611
vn -0.41242 -0.48681 0.77002
vn 0.51265 0.79411 -0.32648
vn 0.32557 0.9187 -0.22361
vn 0.58055 0.72882 -0.36302
vn -0.32557 -0.9187 0.22361
vn -0.51265 -0.79411 0.32648
vn -0.5857 -0.70939 0.39206
vn -0.58055 -0.72882 0.36302
vn 0.068015 -0.99768 0
vn -0.41242 -0.48681 -0.77002
vn 0.60878 0.69746 0.37806
vn 0.32557 0.9187 0.22361
vn 0.5335 0.77543 0.33775
vn -0.5335 -0.77543 -0.33775
vn -0.32557 -0.9187 -0.22361
vn -0.60878 -0.69746 -0.37806
vn -0.69781 0.60839 0.37806
vn -0.44724 0.86601 0.22361
vn -0.6338 0.69585 0.33775
vn 0.6338 -0.69585 -0.33775
vn 0.44724 -0.86601 -0.22361
vn 0.69781 -0.60839 -0.37806
vn -0.85596 -0.51704 0
vn 0.91821 -0.39609 0
vn 0.47467 -0.42633 -0.77002
vn -0.050151 0.73564 -0.67551
vn -0.060835 0.89236 -0.44721
vn -0.044512 0.65293 -0.75611
vn 0.060835 -0.89236 0.44721
vn 0.050151 -0.73564 0.67551
vn 0.026477 -0.67474 0.73758
vn 0.044512 -0.65293 0.75611
vn -0.025664 0.37645 0.92608
vn -0.012132 0.17795 0.98396
vn -0.86307 0.11077 0.49279
vn -0.82715 0.31706 0.464
vn -0.82661 0.31903 0.46361
vn 0.77647 0.42638 0.464
vn 0.77566 0.42826 0.46361
vn -0.82926 0.30922 -0.46552
vn -0.8644 0.092212 -0.49428
vn -0.8287 0.31131 -0.46512
vn 0.84005 0.22688 0.49279
vn -0.86043 -0.50956 0
vn -0.99014 -0.14009 0
vn 0.43022 -0.50956 -0.74516
vn 0.49507 -0.14009 -0.85749
vn 0.43022 -0.50956 0.74516
vn 0.49507 -0.14009 0.85749
vn -0.43022 -0.50956 -0.74516
vn -0.49507 -0.14009 -0.85749
vn 0.99014 -0.14009 0
vn 0.86043 -0.50956 0
vn -0.43022 -0.50956 0.74516
vn -0.49507 -0.14009 0.85749
vn -0.57101 0.75184 0.32967
vn -0.3873 0.89443 0.22361
vn -0.52322 0.79686 0.30208
vn 0.52322 -0.79686 -0.30208
vn 0.3873 -0.89443 -0.22361
vn 0.57101 -0.75184 -0.32967
vn 0 0.75184 -0.65934
vn 0 0.79686 -0.60416
vn 0 0.89443 -0.44721
vn 0 -0.89443 0.44721
vn 0 -0.79686 0.60416
vn 0 -0.75184 0.65934
vn 0.57101 0.75184 -0.32967
vn 0.52322 0.79686 -0.30208
vn 0.3873 0.89443 -0.22361
vn -0.3873 -0.89443 0.22361
vn -0.52322 -0.79686 0.30208
vn -0.57101 -0.75184 0.32967
vn -0.57101 0.75184 -0.32967
vn -0.52322 0.79686 -0.30208
vn -0.3873 0.89443 -0.22361
vn 0.3873 -0.89443 0.22361
vn 0.52322 -0.79686 0.30208
vn 0.57101 -0.75184 0.32967
vn 0.57101 0.75184 0.32967
vn 0.3873 0.89443 0.22361
vn 0.52322 0.79686 0.30208
vn -0.52322 -0.79686 -0.30208
vn -0.3873 -0.89443 -0.22361
vn -0.57101 -0.75184 -0.32967
vn 0 0.75184 0.65934
vn 0 0.89443 0.44721
vn 0 0.79686 0.60416
vn 0 -0.79686 -0.60416
vn 0 -0.89443 -0.44721
vn 0 -0.75184 -0.65934
vn -0.82175 -0.56985 0
vn 0 -1 0
vn 0.82175 -0.56985 0
vn -0.41088 -0.56985 0.71166
vn 0.41088 -0.56985 0.71166
vn 0.41088 -0.56985 -0.71166
vn -0.41088 -0.56985 -0.71166
vn 0 0.51608 -0.85654
vn 0 0.27038 -0.96275
vn 0.74179 0.51608 0.42827
vn 0.83377 0.27038 0.48138
vn 0.74179 0.51608 -0.42827
vn 0.83377 0.27038 -0.48138
vn -0.74179 0.51608 -0.42827
vn -0.83377 0.27038 -0.48138
vn 0 0.51608 0.85654
vn 0 0.27038 0.96275
vn -0.83377 0.27038 0.48138
vn -0.74179 0.51608 0.42827
vn 0.99418 0.1077 0
vn 0.49709 0.1077 0.86099
vn 0.49709 0.1077 -0.86099
vn -0.99418 0.1077 0
vn -0.49709 0.1077 0.86099
vn -0.49709 0.1077 -0.86099
vn 0.49997 -0.011123 -0.86597
vn 0.99994 -0.011123 0
vn 0.45475 0.41568 -0.78766
vn 0.90951 0.41568 0
vn 0.45475 0.41568 0.78766
vn 0.49997 -0.011123 0.86597
vn -0.49997 -0.011123 -0.86597
vn -0.45475 0.41568 -0.78766
vn -0.99994 -0.011123 0
vn -0.90951 0.41568 0
vn -0.49997 -0.011123 0.86597
vn -0.45475 0.41568 0.78766
vn 0.4494 -0.43837 0.77838
vn -0.4494 -0.43837 0.77838
vn -0.89879 -0.43837 0
vn -0.4494 -0.43837 -0.77838
vn 0.4494 -0.43837 -0.77838
vn 0.89879 -0.43837 0
vt 0.46875 0.15833
vt 0.46875 0.1634
vt 0.46875 0.18235
vt 0.46875 0.225
vt 0.46875 0.145
vt 0.46875 0.15973
vt 0.46875 0.16641
vt 0.46875 0.18885
vt 0.46875 0.074825
vt 0.46875 0.105
vt 0.46875 0.072719
vt 0.46875 0.045369
vt 0.46875 0.03858
vt 0.46875 0.025
vt 0.46875 0.037609
vt 0.46875 0.047518
vt 0.46875 0.071882
vt 0.21875 0.275
vt 0.21875 0.37244
vt 0.21875 0.475
usemtl colormap
f 3/2/2 2/1/1 1/1/1
f 5/1/3 4/2/4 1/1/3
f 7/2/6 5/1/5 6/1/5
f 10/1/8 9/1/8 8/2/7
f 11/2/10 6/1/9 10/1/9
f 12/2/12 9/1/11 2/1/11
f 15/4/14 14/3/13 13/3/13
f 14/3/13 15/4/14 16/4/15
f 17/2/18 6/1/17 11/2/16
f 6/1/17 17/2/18 7/2/16
f 19/3/21 18/2/20 12/2/19
f 18/2/20 19/3/21 13/3/21
f 18/2/20 13/3/21 8/2/19
f 20/2/24 5/1/23 7/2/22
f 5/1/23 20/2/24 4/2/22
f 23/3/25 22/4/26 21/3/25
f 22/4/26 23/3/25 24/4/27
f 25/2/29 21/3/25 3/2/28
f 21/3/25 25/2/29 23/3/25
f 23/3/25 25/2/29 4/2/28
f 16/4/15 26/3/30 14/3/30
f 26/3/30 16/4/15 27/4/31
f 14/3/13 8/2/32 13/3/13
f 8/2/32 14/3/13 28/2/33
f 28/2/33 14/3/13 11/2/32
f 29/4/34 16/4/15 15/4/14
f 16/4/15 29/4/34 22/4/26
f 16/4/15 22/4/26 27/4/31
f 27/4/31 22/4/26 24/4/27
f 9/1/35 18/2/20 8/2/19
f 18/2/20 9/1/35 12/2/19
f 1/1/36 25/2/29 3/2/28
f 25/2/29 1/1/36 4/2/28
f 29/4/34 13/3/21 19/3/21
f 13/3/21 29/4/34 15/4/14
f 17/2/18 26/3/30 7/2/16
f 26/3/30 17/2/18 11/2/16
f 26/3/30 11/2/16 14/3/30
f 20/2/24 23/3/37 4/2/22
f 23/3/37 20/2/24 26/3/37
f 26/3/37 20/2/24 7/2/22
f 26/3/37 24/4/27 23/3/37
f 24/4/27 26/3/37 27/4/31
f 21/3/40 30/2/39 3/2/38
f 30/2/39 21/3/40 12/2/38
f 12/2/38 21/3/40 19/3/40
f 2/1/41 30/2/39 12/2/38
f 30/2/39 2/1/41 3/2/38
f 28/2/33 10/1/42 8/2/32
f 10/1/42 28/2/33 11/2/32
f 22/4/26 19/3/40 21/3/40
f 19/3/40 22/4/26 29/4/34
f 33/5/43 32/5/43 31/5/43
f 32/5/43 33/5/43 34/5/43
f 34/5/43 33/5/43 35/5/43
f 34/5/43 35/5/43 36/5/43
f 31/5/44 6/1/9 33/5/44
f 6/1/9 31/5/44 10/1/9
f 2/1/11 32/5/45 34/5/45
f 32/5/45 2/1/11 9/1/11
f 10/1/8 32/5/46 9/1/8
f 32/5/46 10/1/8 31/5/46
f 6/1/5 35/5/47 33/5/47
f 35/5/47 6/1/5 5/1/5
f 36/5/48 5/1/3 1/1/3
f 5/1/3 36/5/48 35/5/48
f 1/1/1 34/5/49 36/5/49
f 34/5/49 1/1/1 2/1/1
f 39/7/51 38/6/50 37/6/50
f 42/6/52 41/7/53 40/6/52
f 44/7/55 42/6/54 43/6/54
f 46/6/57 38/6/57 45/7/56
f 47/7/59 37/6/58 40/6/58
f 48/7/61 43/6/60 46/6/60
f 43/6/54 50/5/62 49/5/62
f 50/5/62 43/6/54 42/6/54
f 51/7/65 43/6/64 48/7/63
f 43/6/64 51/7/65 44/7/63
f 48/7/68 43/6/67 51/7/66
f 44/7/68 51/7/66 43/6/67
f 49/5/69 53/5/69 52/5/69
f 53/5/69 49/5/69 54/5/69
f 54/5/69 49/5/69 50/5/69
f 54/5/69 50/5/69 55/5/69
f 40/6/72 56/7/71 47/7/70
f 56/7/71 40/6/72 41/7/70
f 47/7/75 56/7/74 40/6/73
f 41/7/75 40/6/73 56/7/74
f 46/6/60 49/5/76 52/5/76
f 49/5/76 46/6/60 43/6/60
f 55/5/77 42/6/52 40/6/52
f 42/6/52 55/5/77 50/5/77
f 38/6/80 57/7/79 45/7/78
f 57/7/79 38/6/80 39/7/78
f 45/7/83 57/7/82 38/6/81
f 39/7/83 38/6/81 57/7/82
f 40/6/58 54/5/84 55/5/84
f 54/5/84 40/6/58 37/6/58
f 58/7/87 46/6/86 45/7/85
f 46/6/86 58/7/87 48/7/85
f 45/7/90 46/6/89 58/7/88
f 48/7/90 58/7/88 46/6/89
f 37/6/50 53/5/91 54/5/91
f 53/5/91 37/6/50 38/6/50
f 59/7/94 42/6/93 44/7/92
f 42/6/93 59/7/94 41/7/92
f 44/7/97 42/6/96 59/7/95
f 41/7/97 59/7/95 42/6/96
f 37/6/100 60/7/99 39/7/98
f 60/7/99 37/6/100 47/7/98
f 39/7/103 60/7/102 37/6/101
f 47/7/103 37/6/101 60/7/102
f 46/6/57 53/5/104 38/6/57
f 53/5/104 46/6/57 52/5/104
f 63/8/105 62/4/106 61/8/105
f 62/4/106 63/8/105 64/4/106
f 60/7/99 65/8/107 39/7/98
f 65/8/107 60/7/99 61/8/107
f 61/8/107 60/7/99 47/7/98
f 63/8/108 44/7/92 66/8/108
f 44/7/92 63/8/108 59/7/94
f 59/7/94 63/8/108 41/7/92
f 62/4/109 65/8/107 61/8/107
f 65/8/107 62/4/109 67/4/109
f 63/8/108 68/4/110 64/4/110
f 68/4/110 63/8/108 66/8/108
f 67/4/112 69/8/111 65/8/111
f 69/8/111 67/4/112 70/4/112
f 69/8/113 58/7/87 45/7/85
f 58/7/87 69/8/113 48/7/85
f 48/7/85 69/8/113 71/8/113
f 72/4/114 69/8/113 70/4/114
f 69/8/113 72/4/114 71/8/113
f 71/8/115 68/4/116 66/8/115
f 68/4/116 71/8/115 72/4/116
f 47/7/70 63/8/105 61/8/105
f 63/8/105 47/7/70 56/7/71
f 63/8/105 56/7/71 41/7/70
f 57/7/79 69/8/111 45/7/78
f 69/8/111 57/7/79 39/7/78
f 69/8/111 39/7/78 65/8/111
f 71/8/115 51/7/65 48/7/63
f 51/7/65 71/8/115 66/8/115
f 51/7/65 66/8/115 44/7/63
f 75/10/119 74/10/118 73/9/117
f 76/11/122 73/9/121 74/10/120
f 73/9/117 78/12/124 77/11/123
f 81/13/126 80/13/126 79/12/125
f 75/10/119 73/9/117 77/11/123
f 83/12/128 82/13/127 81/13/127
f 85/12/130 84/13/129 82/13/129
f 76/11/122 74/10/120 86/10/131
f 89/12/133 88/13/132 87/13/132
f 78/12/135 80/13/134 88/13/134
f 84/13/136 90/12/137 87/13/136
f 76/11/122 79/12/138 73/9/121
f 81/13/127 92/14/139 91/14/139
f 92/14/139 81/13/127 82/13/127
f 87/13/142 93/12/141 89/12/140
f 93/12/141 87/13/142 90/12/140
f 89/12/145 93/12/144 87/13/143
f 90/12/145 87/13/143 93/12/144
f 94/12/148 82/13/147 83/12/146
f 82/13/147 94/12/148 85/12/146
f 83/12/151 82/13/150 94/12/149
f 85/12/151 94/12/149 82/13/150
f 82/13/129 95/14/152 92/14/152
f 95/14/152 82/13/129 84/13/129
f 80/13/154 96/12/153 79/12/138
f 96/12/153 80/13/154 78/12/155
f 79/12/158 96/12/157 80/13/156
f 78/12/159 80/13/156 96/12/157
f 92/14/160 97/14/160 91/14/160
f 97/14/160 92/14/160 98/14/160
f 98/14/160 92/14/160 99/14/160
f 99/14/160 92/14/160 95/14/160
f 99/14/161 88/13/132 98/14/161
f 88/13/132 99/14/161 87/13/132
f 100/12/164 81/13/163 79/12/162
f 81/13/163 100/12/164 83/12/162
f 79/12/167 81/13/166 100/12/165
f 83/12/167 100/12/165 81/13/166
f 101/12/170 84/13/169 85/12/168
f 84/13/169 101/12/170 90/12/168
f 85/12/173 84/13/172 101/12/171
f 90/12/173 101/12/171 84/13/172
f 99/14/174 84/13/136 87/13/136
f 84/13/136 99/14/174 95/14/174
f 81/13/126 97/14/175 80/13/126
f 97/14/175 81/13/126 91/14/175
f 98/14/176 80/13/134 97/14/176
f 80/13/134 98/14/176 88/13/134
f 88/13/178 102/12/177 78/12/124
f 102/12/177 88/13/178 89/12/179
f 78/12/182 102/12/181 88/13/180
f 89/12/183 88/13/180 102/12/181
f 105/11/184 104/10/185 103/11/184
f 104/10/185 105/11/184 106/10/185
f 89/12/179 78/12/124 102/12/177
f 78/12/124 89/12/179 77/11/123
f 108/11/187 104/10/186 107/10/186
f 104/10/186 108/11/187 103/11/188
f 101/12/170 108/11/187 90/12/168
f 108/11/187 101/12/170 103/11/188
f 103/11/188 101/12/170 85/12/168
f 76/11/189 100/12/164 79/12/162
f 100/12/164 76/11/189 105/11/190
f 100/12/164 105/11/190 83/12/162
f 108/11/193 75/10/192 77/11/191
f 75/10/192 108/11/193 107/10/192
f 93/12/141 77/11/191 89/12/140
f 77/11/191 93/12/141 108/11/193
f 108/11/193 93/12/141 90/12/140
f 83/12/146 85/12/146 94/12/148
f 85/12/146 83/12/146 103/11/184
f 103/11/184 83/12/146 105/11/184
f 73/9/121 96/12/153 78/12/155
f 96/12/153 73/9/121 79/12/138
f 106/10/194 76/11/189 86/10/194
f 76/11/189 106/10/194 105/11/190
f 111/15/195 110/16/196 109/15/195
f 114/16/198 113/15/197 112/15/197
f 117/16/200 116/15/199 115/15/199
f 118/16/202 112/15/201 109/15/201
f 115/15/204 113/15/204 119/16/203
f 120/16/206 111/15/205 116/15/205
f 121/16/209 111/15/208 120/16/207
f 111/15/208 121/16/209 110/16/207
f 120/16/212 111/15/211 121/16/210
f 110/16/212 121/16/210 111/15/211
f 112/15/215 122/16/214 114/16/213
f 122/16/214 112/15/215 118/16/213
f 114/16/218 122/16/217 112/15/216
f 118/16/218 112/15/216 122/16/217
f 113/15/221 123/16/220 119/16/219
f 123/16/220 113/15/221 114/16/219
f 119/16/224 123/16/223 113/15/222
f 114/16/224 113/15/222 123/16/223
f 109/15/227 124/16/226 118/16/225
f 124/16/226 109/15/227 110/16/225
f 118/16/230 124/16/229 109/15/228
f 110/16/230 109/15/228 124/16/229
f 125/16/233 115/15/232 119/16/231
f 115/15/232 125/16/233 117/16/231
f 119/16/236 115/15/235 125/16/234
f 117/16/236 125/16/234 115/15/235
f 126/16/239 116/15/238 117/16/237
f 116/15/238 126/16/239 120/16/237
f 117/16/242 116/15/241 126/16/240
f 120/16/242 126/16/240 116/15/241
f 127/14/243 111/15/195 109/15/195
f 111/15/195 127/14/243 128/14/243
f 131/14/244 130/14/244 129/14/244
f 130/14/244 131/14/244 132/14/244
f 132/14/244 131/14/244 127/14/244
f 127/14/244 131/14/244 128/14/244
f 115/15/204 130/14/245 113/15/204
f 130/14/245 115/15/204 129/14/245
f 116/15/205 128/14/246 131/14/246
f 128/14/246 116/15/205 111/15/205
f 129/14/247 116/15/199 131/14/247
f 116/15/199 129/14/247 115/15/199
f 132/14/248 113/15/197 130/14/248
f 113/15/197 132/14/248 112/15/197
f 109/15/201 132/14/249 127/14/249
f 132/14/249 109/15/201 112/15/201
f 135/17/250 134/10/251 133/17/250
f 134/10/251 135/17/250 136/10/251
f 139/10/253 138/17/252 137/17/252
f 138/17/252 139/10/253 140/10/253
f 134/10/255 137/17/254 133/17/254
f 137/17/254 134/10/255 139/10/255
f 141/17/256 136/10/257 135/17/256
f 136/10/257 141/17/256 142/10/257
f 140/10/259 143/17/258 138/17/258
f 143/17/258 140/10/259 144/10/259
f 141/17/261 144/10/260 142/10/260
f 144/10/260 141/17/261 143/17/261
f 141/17/261 120/16/207 143/17/261
f 120/16/207 141/17/261 121/16/209
f 121/16/209 141/17/261 110/16/207
f 118/16/225 141/17/256 135/17/256
f 141/17/256 118/16/225 124/16/226
f 141/17/256 124/16/226 110/16/225
f 137/17/252 125/16/233 119/16/231
f 125/16/233 137/17/252 117/16/231
f 117/16/231 137/17/252 138/17/252
f 123/16/220 137/17/254 119/16/219
f 137/17/254 123/16/220 114/16/219
f 137/17/254 114/16/219 133/17/254
f 138/17/258 126/16/239 117/16/237
f 143/17/258 126/16/239 138/17/258
f 126/16/239 143/17/258 120/16/237
f 135/17/250 122/16/214 118/16/213
f 122/16/214 135/17/250 133/17/250
f 133/17/250 114/16/213 122/16/214
f 147/18/263 146/19/262 145/18/262
f 146/19/262 147/18/263 148/19/263
f 150/18/264 146/19/262 149/19/264
f 146/19/262 150/18/264 145/18/262
f 153/19/265 152/18/266 151/18/265
f 152/18/266 153/19/265 154/19/266
f 147/18/263 154/19/266 148/19/263
f 154/19/266 147/18/263 152/18/266
f 153/19/265 156/18/267 155/19/267
f 156/18/267 153/19/265 151/18/265
f 156/18/267 149/19/264 155/19/267
f 149/19/264 156/18/267 150/18/264
f 149/19/270 158/20/269 157/20/268
f 158/20/269 149/19/270 146/19/271
f 148/19/272 158/20/269 146/19/271
f 158/20/269 148/19/272 159/20/273
f 155/19/275 157/20/268 160/20/274
f 157/20/268 155/19/275 149/19/270
f 161/20/276 155/19/275 160/20/274
f 155/19/275 161/20/276 153/19/277
f 148/19/272 162/20/278 159/20/273
f 162/20/278 148/19/272 154/19/279
f 161/20/276 154/19/279 153/19/277
f 154/19/279 161/20/276 162/20/278
f 165/20/244 164/20/244 163/20/244
f 164/20/244 165/20/244 166/20/244
f 166/20/244 165/20/244 167/20/244
f 166/20/244 167/20/244 168/20/244
f 159/20/273 167/20/281 165/20/280
f 167/20/281 159/20/273 162/20/278
f 168/20/282 162/20/278 161/20/276
f 162/20/278 168/20/282 167/20/281
f 166/20/283 161/20/276 160/20/274
f 161/20/276 166/20/283 168/20/282
f 160/20/274 164/20/284 166/20/283
f 164/20/284 160/20/274 157/20/268
f 158/20/269 164/20/284 157/20/268
f 164/20/284 158/20/269 163/20/285
f 159/20/273 163/20/285 158/20/269
f 163/20/285 159/20/273 165/20/280
g pine-fall-crooked
usemtl colormap
f 3/2/2 2/1/1 1/1/1
f 5/1/3 4/2/4 1/1/3
f 7/2/6 5/1/5 6/1/5
f 10/1/8 9/1/8 8/2/7
f 11/2/10 6/1/9 10/1/9
f 12/2/12 9/1/11 2/1/11
f 15/4/14 14/3/13 13/3/13
f 14/3/13 15/4/14 16/4/15
f 17/2/18 6/1/17 11/2/16
f 6/1/17 17/2/18 7/2/16
f 19/3/21 18/2/20 12/2/19
f 18/2/20 19/3/21 13/3/21
f 18/2/20 13/3/21 8/2/19
f 20/2/24 5/1/23 7/2/22
f 5/1/23 20/2/24 4/2/22
f 23/3/25 22/4/26 21/3/25
f 22/4/26 23/3/25 24/4/27
f 25/2/29 21/3/25 3/2/28
f 21/3/25 25/2/29 23/3/25
f 23/3/25 25/2/29 4/2/28
f 16/4/15 26/3/30 14/3/30
f 26/3/30 16/4/15 27/4/31
f 14/3/13 8/2/32 13/3/13
f 8/2/32 14/3/13 28/2/33
f 28/2/33 14/3/13 11/2/32
f 29/4/34 16/4/15 15/4/14
f 16/4/15 29/4/34 22/4/26
f 16/4/15 22/4/26 27/4/31
f 27/4/31 22/4/26 24/4/27
f 9/1/35 18/2/20 8/2/19
f 18/2/20 9/1/35 12/2/19
f 1/1/36 25/2/29 3/2/28
f 25/2/29 1/1/36 4/2/28
f 29/4/34 13/3/21 19/3/21
f 13/3/21 29/4/34 15/4/14
f 17/2/18 26/3/30 7/2/16
f 26/3/30 17/2/18 11/2/16
f 26/3/30 11/2/16 14/3/30
f 20/2/24 23/3/37 4/2/22
f 23/3/37 20/2/24 26/3/37
f 26/3/37 20/2/24 7/2/22
f 26/3/37 24/4/27 23/3/37
f 24/4/27 26/3/37 27/4/31
f 21/3/40 30/2/39 3/2/38
f 30/2/39 21/3/40 12/2/38
f 12/2/38 21/3/40 19/3/40
f 2/1/41 30/2/39 12/2/38
f 30/2/39 2/1/41 3/2/38
f 28/2/33 10/1/42 8/2/32
f 10/1/42 28/2/33 11/2/32
f 22/4/26 19/3/40 21/3/40
f 19/3/40 22/4/26 29/4/34
f 33/5/43 32/5/43 31/5/43
f 32/5/43 33/5/43 34/5/43
f 34/5/43 33/5/43 35/5/43
f 34/5/43 35/5/43 36/5/43
f 31/5/44 6/1/9 33/5/44
f 6/1/9 31/5/44 10/1/9
f 2/1/11 32/5/45 34/5/45
f 32/5/45 2/1/11 9/1/11
f 10/1/8 32/5/46 9/1/8
f 32/5/46 10/1/8 31/5/46
f 6/1/5 35/5/47 33/5/47
f 35/5/47 6/1/5 5/1/5
f 36/5/48 5/1/3 1/1/3
f 5/1/3 36/5/48 35/5/48
f 1/1/1 34/5/49 36/5/49
f 34/5/49 1/1/1 2/1/1
f 39/7/51 38/6/50 37/6/50
f 42/6/52 41/7/53 40/6/52
f 44/7/55 42/6/54 43/6/54
f 46/6/57 38/6/57 45/7/56
f 47/7/59 37/6/58 40/6/58
f 48/7/61 43/6/60 46/6/60
f 43/6/54 50/5/62 49/5/62
f 50/5/62 43/6/54 42/6/54
f 51/7/65 43/6/64 48/7/63
f 43/6/64 51/7/65 44/7/63
f 48/7/68 43/6/67 51/7/66
f 44/7/68 51/7/66 43/6/67
f 49/5/69 53/5/69 52/5/69
f 53/5/69 49/5/69 54/5/69
f 54/5/69 49/5/69 50/5/69
f 54/5/69 50/5/69 55/5/69
f 40/6/72 56/7/71 47/7/70
f 56/7/71 40/6/72 41/7/70
f 47/7/75 56/7/74 40/6/73
f 41/7/75 40/6/73 56/7/74
f 46/6/60 49/5/76 52/5/76
f 49/5/76 46/6/60 43/6/60
f 55/5/77 42/6/52 40/6/52
f 42/6/52 55/5/77 50/5/77
f 38/6/80 57/7/79 45/7/78
f 57/7/79 38/6/80 39/7/78
f 45/7/83 57/7/82 38/6/81
f 39/7/83 38/6/81 57/7/82
f 40/6/58 54/5/84 55/5/84
f 54/5/84 40/6/58 37/6/58
f 58/7/87 46/6/86 45/7/85
f 46/6/86 58/7/87 48/7/85
f 45/7/90 46/6/89 58/7/88
f 48/7/90 58/7/88 46/6/89
f 37/6/50 53/5/91 54/5/91
f 53/5/91 37/6/50 38/6/50
f 59/7/94 42/6/93 44/7/92
f 42/6/93 59/7/94 41/7/92
f 44/7/97 42/6/96 59/7/95
f 41/7/97 59/7/95 42/6/96
f 37/6/100 60/7/99 39/7/98
f 60/7/99 37/6/100 47/7/98
f 39/7/103 60/7/102 37/6/101
f 47/7/103 37/6/101 60/7/102
f 46/6/57 53/5/104 38/6/57
f 53/5/104 46/6/57 52/5/104
f 63/8/105 62/4/106 61/8/105
f 62/4/106 63/8/105 64/4/106
f 60/7/99 65/8/107 39/7/98
f 65/8/107 60/7/99 61/8/107
f 61/8/107 60/7/99 47/7/98
f 63/8/108 44/7/92 66/8/108
f 44/7/92 63/8/108 59/7/94
f 59/7/94 63/8/108 41/7/92
f 62/4/109 65/8/107 61/8/107
f 65/8/107 62/4/109 67/4/109
f 63/8/108 68/4/110 64/4/110
f 68/4/110 63/8/108 66/8/108
f 67/4/112 69/8/111 65/8/111
f 69/8/111 67/4/112 70/4/112
f 69/8/113 58/7/87 45/7/85
f 58/7/87 69/8/113 48/7/85
f 48/7/85 69/8/113 71/8/113
f 72/4/114 69/8/113 70/4/114
f 69/8/113 72/4/114 71/8/113
f 71/8/115 68/4/116 66/8/115
f 68/4/116 71/8/115 72/4/116
f 47/7/70 63/8/105 61/8/105
f 63/8/105 47/7/70 56/7/71
f 63/8/105 56/7/71 41/7/70
f 57/7/79 69/8/111 45/7/78
f 69/8/111 57/7/79 39/7/78
f 69/8/111 39/7/78 65/8/111
f 71/8/115 51/7/65 48/7/63
f 51/7/65 71/8/115 66/8/115
f 51/7/65 66/8/115 44/7/63
f 75/10/119 74/10/118 73/9/117
f 76/11/122 73/9/121 74/10/120
f 73/9/117 78/12/124 77/11/123
f 81/13/126 80/13/126 79/12/125
f 75/10/119 73/9/117 77/11/123
f 83/12/128 82/13/127 81/13/127
f 85/12/130 84/13/129 82/13/129
f 76/11/122 74/10/120 86/10/131
f 89/12/133 88/13/132 87/13/132
f 78/12/135 80/13/134 88/13/134
f 84/13/136 90/12/137 87/13/136
f 76/11/122 79/12/138 73/9/121
f 81/13/127 92/14/139 91/14/139
f 92/14/139 81/13/127 82/13/127
f 87/13/142 93/12/141 89/12/140
f 93/12/141 87/13/142 90/12/140
f 89/12/145 93/12/144 87/13/143
f 90/12/145 87/13/143 93/12/144
f 94/12/148 82/13/147 83/12/146
f 82/13/147 94/12/148 85/12/146
f 83/12/151 82/13/150 94/12/149
f 85/12/151 94/12/149 82/13/150
f 82/13/129 95/14/152 92/14/152
f 95/14/152 82/13/129 84/13/129
f 80/13/154 96/12/153 79/12/138
f 96/12/153 80/13/154 78/12/155
f 79/12/158 96/12/157 80/13/156
f 78/12/159 80/13/156 96/12/157
f 92/14/160 97/14/160 91/14/160
f 97/14/160 92/14/160 98/14/160
f 98/14/160 92/14/160 99/14/160
f 99/14/160 92/14/160 95/14/160
f 99/14/161 88/13/132 98/14/161
f 88/13/132 99/14/161 87/13/132
f 100/12/164 81/13/163 79/12/162
f 81/13/163 100/12/164 83/12/162
f 79/12/167 81/13/166 100/12/165
f 83/12/167 100/12/165 81/13/166
f 101/12/170 84/13/169 85/12/168
f 84/13/169 101/12/170 90/12/168
f 85/12/173 84/13/172 101/12/171
f 90/12/173 101/12/171 84/13/172
f 99/14/174 84/13/136 87/13/136
f 84/13/136 99/14/174 95/14/174
f 81/13/126 97/14/175 80/13/126
f 97/14/175 81/13/126 91/14/175
f 98/14/176 80/13/134 97/14/176
f 80/13/134 98/14/176 88/13/134
f 88/13/178 102/12/177 78/12/124
f 102/12/177 88/13/178 89/12/179
f 78/12/182 102/12/181 88/13/180
f 89/12/183 88/13/180 102/12/181
f 105/11/184 104/10/185 103/11/184
f 104/10/185 105/11/184 106/10/185
f 89/12/179 78/12/124 102/12/177
f 78/12/124 89/12/179 77/11/123
f 108/11/187 104/10/186 107/10/186
f 104/10/186 108/11/187 103/11/188
f 101/12/170 108/11/187 90/12/168
f 108/11/187 101/12/170 103/11/188
f 103/11/188 101/12/170 85/12/168
f 76/11/189 100/12/164 79/12/162
f 100/12/164 76/11/189 105/11/190
f 100/12/164 105/11/190 83/12/162
f 108/11/193 75/10/192 77/11/191
f 75/10/192 108/11/193 107/10/192
f 93/12/141 77/11/191 89/12/140
f 77/11/191 93/12/141 108/11/193
f 108/11/193 93/12/141 90/12/140
f 83/12/146 85/12/146 94/12/148
f 85/12/146 83/12/146 103/11/184
f 103/11/184 83/12/146 105/11/184
f 73/9/121 96/12/153 78/12/155
f 96/12/153 73/9/121 79/12/138
f 106/10/194 76/11/189 86/10/194
f 76/11/189 106/10/194 105/11/190
f 111/15/195 110/16/196 109/15/195
f 114/16/198 113/15/197 112/15/197
f 117/16/200 116/15/199 115/15/199
f 118/16/202 112/15/201 109/15/201
f 115/15/204 113/15/204 119/16/203
f 120/16/206 111/15/205 116/15/205
f 121/16/209 111/15/208 120/16/207
f 111/15/208 121/16/209 110/16/207
f 120/16/212 111/15/211 121/16/210
f 110/16/212 121/16/210 111/15/211
f 112/15/215 122/16/214 114/16/213
f 122/16/214 112/15/215 118/16/213
f 114/16/218 122/16/217 112/15/216
f 118/16/218 112/15/216 122/16/217
f 113/15/221 123/16/220 119/16/219
f 123/16/220 113/15/221 114/16/219
f 119/16/224 123/16/223 113/15/222
f 114/16/224 113/15/222 123/16/223
f 109/15/227 124/16/226 118/16/225
f 124/16/226 109/15/227 110/16/225
f 118/16/230 124/16/229 109/15/228
f 110/16/230 109/15/228 124/16/229
f 125/16/233 115/15/232 119/16/231
f 115/15/232 125/16/233 117/16/231
f 119/16/236 115/15/235 125/16/234
f 117/16/236 125/16/234 115/15/235
f 126/16/239 116/15/238 117/16/237
f 116/15/238 126/16/239 120/16/237
f 117/16/242 116/15/241 126/16/240
f 120/16/242 126/16/240 116/15/241
f 127/14/243 111/15/195 109/15/195
f 111/15/195 127/14/243 128/14/243
f 131/14/244 130/14/244 129/14/244
f 130/14/244 131/14/244 132/14/244
f 132/14/244 131/14/244 127/14/244
f 127/14/244 131/14/244 128/14/244
f 115/15/204 130/14/245 113/15/204
f 130/14/245 115/15/204 129/14/245
f 116/15/205 128/14/246 131/14/246
f 128/14/246 116/15/205 111/15/205
f 129/14/247 116/15/199 131/14/247
f 116/15/199 129/14/247 115/15/199
f 132/14/248 113/15/197 130/14/248
f 113/15/197 132/14/248 112/15/197
f 109/15/201 132/14/249 127/14/249
f 132/14/249 109/15/201 112/15/201
f 135/17/250 134/10/251 133/17/250
f 134/10/251 135/17/250 136/10/251
f 139/10/253 138/17/252 137/17/252
f 138/17/252 139/10/253 140/10/253
f 134/10/255 137/17/254 133/17/254
f 137/17/254 134/10/255 139/10/255
f 141/17/256 136/10/257 135/17/256
f 136/10/257 141/17/256 142/10/257
f 140/10/259 143/17/258 138/17/258
f 143/17/258 140/10/259 144/10/259
f 141/17/261 144/10/260 142/10/260
f 144/10/260 141/17/261 143/17/261
f 141/17/261 120/16/207 143/17/261
f 120/16/207 141/17/261 121/16/209
f 121/16/209 141/17/261 110/16/207
f 118/16/225 141/17/256 135/17/256
f 141/17/256 118/16/225 124/16/226
f 141/17/256 124/16/226 110/16/225
f 137/17/252 125/16/233 119/16/231
f 125/16/233 137/17/252 117/16/231
f 117/16/231 137/17/252 138/17/252
f 123/16/220 137/17/254 119/16/219
f 137/17/254 123/16/220 114/16/219
f 137/17/254 114/16/219 133/17/254
f 138/17/258 126/16/239 117/16/237
f 143/17/258 126/16/239 138/17/258
f 126/16/239 143/17/258 120/16/237
f 135/17/250 122/16/214 118/16/213
f 122/16/214 135/17/250 133/17/250
f 133/17/250 114/16/213 122/16/214
f 147/18/263 146/19/262 145/18/262
f 146/19/262 147/18/263 148/19/263
f 150/18/264 146/19/262 149/19/264
f 146/19/262 150/18/264 145/18/262
f 153/19/265 152/18/266 151/18/265
f 152/18/266 153/19/265 154/19/266
f 147/18/263 154/19/266 148/19/263
f 154/19/266 147/18/263 152/18/266
f 153/19/265 156/18/267 155/19/267
f 156/18/267 153/19/265 151/18/265
f 156/18/267 149/19/264 155/19/267
f 149/19/264 156/18/267 150/18/264
f 149/19/270 158/20/269 157/20/268
f 158/20/269 149/19/270 146/19/271
f 148/19/272 158/20/269 146/19/271
f 158/20/269 148/19/272 159/20/273
f 155/19/275 157/20/268 160/20/274
f 157/20/268 155/19/275 149/19/270
f 161/20/276 155/19/275 160/20/274
f 155/19/275 161/20/276 153/19/277
f 148/19/272 162/20/278 159/20/273
f 162/20/278 148/19/272 154/19/279
f 161/20/276 154/19/279 153/19/277
f 154/19/279 161/20/276 162/20/278
f 165/20/244 164/20/244 163/20/244
f 164/20/244 165/20/244 166/20/244
f 166/20/244 165/20/244 167/20/244
f 166/20/244 167/20/244 168/20/244
f 159/20/273 167/20/281 165/20/280
f 167/20/281 159/20/273 162/20/278
f 168/20/282 162/20/278 161/20/276
f 162/20/278 168/20/282 167/20/281
f 166/20/283 161/20/276 160/20/274
f 161/20/276 166/20/283 168/20/282
f 160/20/274 164/20/284 166/20/283
f 164/20/284 160/20/274 157/20/268
f 158/20/269 164/20/284 157/20/268
f 164/20/284 158/20/269 163/20/285
f 159/20/273 163/20/285 158/20/269
f 163/20/285 159/20/273 165/20/280
