mtllib yard_rocks.mtl
g rocks
v 0.34035 0 0.14101
v 0.34035 0 -0.15899
v 0.080543 0 0.29101
v 0.080543 0 -0.30899
v -0.17926 0 0.14101
v -0.17926 0 -0.15899
v -0.14029 0.081691 -0.13649
v -0.14029 0.081691 0.11851
v 0.080543 0.081691 -0.26399
v 0.080543 0.081691 0.24601
v 0.30138 0.081691 -0.13649
v 0.30138 0.081691 0.11851
v 0.26856 0.203 -0.11755
v 0.26856 0.203 0.09956
v 0.080543 0.203 0.20811
v -0.10748 0.203 0.09956
v -0.10748 0.203 -0.11755
v 0.080543 0.203 -0.2261
v 0.19887 0.2655 -0.077309
v 0.19887 0.2655 0.059324
v 0.080543 0.2655 -0.14563
v 0.080543 0.2655 0.12764
v -0.037785 0.2655 -0.077309
v -0.037785 0.2655 0.059324
v 0.081579 3.6096e-16 0.073994
v 0.11242 3.6096e-16 -0.22442
v -0.19227 3.6096e-16 0.19649
v -0.1306 3.6096e-16 -0.40033
v -0.43528 3.6096e-16 0.020581
v -0.40445 3.6096e-16 -0.27783
v -0.36799 0.050302 -0.25144
v -0.39421 0.050302 0.0022063
v -0.13522 0.050302 -0.35557
v -0.18765 0.050302 0.15173
v 0.07134 0.050302 -0.20604
v 0.045128 0.050302 0.047607
v -0.34203 0.11348 -0.23265
v -0.13852 0.11348 -0.32368
v -0.36495 0.11348 -0.010882
v -0.18435 0.11348 0.11985
v 0.019163 0.11348 0.028812
v 0.04208 0.11348 -0.19295
v -0.03864 0.16348 -0.15685
v -0.052468 0.16348 -0.02304
v -0.14761 0.16348 -0.23572
v -0.17526 0.16348 0.031888
v -0.2704 0.16348 -0.1808
v -0.28423 0.16348 -0.04699
v 0.45703 0 0.21655
v 0.52126 0 -0.023151
v 0.21733 0 0.28078
v 0.34578 0 -0.19862
v 0.041855 0 0.1053
v 0.10608 0 -0.1344
v 0.1324 0.11614 -0.10808
v 0.077811 0.11614 0.095671
v 0.33615 0.11614 -0.16267
v 0.22696 0.11614 0.24482
v 0.4853 0.11614 -0.013517
v 0.43071 0.11614 0.19023
v 0.16072 0.33646 -0.079759
v 0.32579 0.33646 -0.12399
v 0.11649 0.33646 0.085306
v 0.23733 0.33646 0.20614
v 0.40239 0.33646 0.16191
v 0.44662 0.33646 -0.0031522
v 0.38319 0.37746 0.013843
v 0.35596 0.37746 0.11548
v 0.30879 0.37746 -0.06056
v 0.25432 0.37746 0.14271
v 0.17992 0.37746 0.06831
v 0.20715 0.37746 -0.033326
v 0.46183 0 -0.090348
v 0.25455 0 -0.0036017
v 0.6406 0 0.045789
v 0.22604 0 0.21928
v 0.61208 0 0.26867
v 0.4048 0 0.35542
v 0.40908 0.080652 0.32199
v 0.58527 0.080652 0.24825
v 0.25713 0.080652 0.20627
v 0.6095 0.080652 0.058801
v 0.28137 0.080652 0.016819
v 0.45755 0.080652 -0.056915
v 0.41303 0.21212 0.29108
v 0.56048 0.21212 0.22937
v 0.28587 0.21212 0.19424
v 0.4536 0.21212 -0.02601
v 0.58076 0.21212 0.07083
v 0.30615 0.21212 0.035696
v 0.36247 0.26212 0.078584
v 0.44462 0.26212 0.044207
v 0.35117 0.26212 0.16691
v 0.51546 0.26212 0.098158
v 0.42201 0.26212 0.22086
v 0.50416 0.26212 0.18649
v -0.088072 4.5119e-17 0.44464
v 0.13517 4.5119e-17 0.47019
v -0.17756 4.5119e-17 0.23853
v -0.04381 4.5119e-17 0.057969
v 0.17943 4.5119e-17 0.083524
v 0.26892 4.5119e-17 0.28963
v 0.23544 0.048391 0.2858
v 0.15937 0.048391 0.11061
v 0.12175 0.048391 0.43927
v -0.030387 0.048391 0.088886
v -0.068009 0.048391 0.41755
v -0.14408 0.048391 0.24236
v 0.21233 0.10727 0.28316
v 0.14553 0.10727 0.1293
v 0.11248 0.10727 0.41794
v -0.021124 0.10727 0.11022
v -0.054165 0.10727 0.39886
v -0.12097 0.10727 0.245
v -0.040723 0.15727 0.25419
v 0.011044 0.15727 0.18431
v -0.0060871 0.15727 0.33396
v 0.080317 0.15727 0.34385
v 0.097447 0.15727 0.1942
v 0.13208 0.15727 0.27397
v 0.2099 0 -0.43103
v -0.018107 0 -0.3356
v 0.40654 0 -0.28127
v -0.049474 0 -0.090433
v 0.37518 0 -0.036103
v 0.14717 0 0.059317
v 0.15187 0.068706 0.022542
v 0.34568 0.068706 -0.058566
v -0.015273 0.068706 -0.10475
v 0.37234 0.068706 -0.26696
v 0.011389 0.068706 -0.31314
v 0.2052 0.068706 -0.39425
v 0.15622 0.1807 -0.011455
v 0.31841 0.1807 -0.079331
v 0.016343 0.1807 -0.11798
v 0.20085 0.1807 -0.36025
v 0.34073 0.1807 -0.25373
v 0.038656 0.1807 -0.29238
v 0.10061 0.2233 -0.2452
v 0.19097 0.2233 -0.28302
v 0.088174 0.2233 -0.14804
v 0.26889 0.2233 -0.22367
v 0.1661 0.2233 -0.088692
v 0.25646 0.2233 -0.12651
v 0.46091 0.044261 -0.17357
v 0.48366 0.044261 -0.14578
v 0.44265 0 -0.17058
v 0.47711 0 -0.12847
v 0.46189 0 -0.22149
v 0.47361 0.044261 -0.20717
v 0.51559 0 -0.23028
v 0.55006 0 -0.18817
v 0.50905 0.044261 -0.21297
v 0.5318 0.044261 -0.18518
v 0.53082 0 -0.13726
v 0.5191 0.044261 -0.15158
v 0.46919 0 -0.37565
v 0.48487 0.044261 -0.36582
v 0.46719 0 -0.32127
v 0.48354 0.044261 -0.32992
v 0.54703 0.044261 -0.36353
v 0.54571 0.044261 -0.32763
v 0.51661 0.044261 -0.38262
v 0.51397 0.044261 -0.31083
v 0.51729 0 -0.40111
v 0.56339 0 -0.37218
v 0.56138 0 -0.3178
v 0.51328 0 -0.29234
v 0.40512 0 0.45047
v 0.3602 0 0.36243
v 0.35134 0 0.53339
v 0.26149 0 0.35732
v 0.25264 0 0.52828
v 0.20771 0 0.44025
v 0.27677 0.080388 0.38725
v 0.24127 0.080388 0.44198
v 0.27092 0.080388 0.50009
v 0.37156 0.080388 0.44873
v 0.33607 0.080388 0.50346
v 0.34191 0.080388 0.39063
v -0.25807 3.6096e-16 0.18419
v -0.26915 3.6096e-16 0.23747
v -0.27564 0.044261 0.18998
v -0.28295 0.044261 0.22515
v -0.29867 3.6096e-16 0.14795
v -0.30244 0.044261 0.16607
v -0.32083 3.6096e-16 0.25451
v -0.36143 3.6096e-16 0.21828
v -0.31706 0.044261 0.2364
v -0.34386 0.044261 0.21248
v -0.33655 0.044261 0.17732
v -0.35035 3.6096e-16 0.165
v -0.14879 0.20774 -0.13127
v -0.16629 0.20774 -0.099905
v -0.16721 0.20774 -0.16211
v -0.2022 0.20774 -0.099374
v -0.20312 0.20774 -0.16158
v -0.22062 0.20774 -0.13021
v -0.13029 0.16348 -0.13155
v -0.1582 0.16348 -0.17827
v -0.1568 0.16348 -0.08402
v -0.21122 0.16348 -0.083215
v -0.21261 0.16348 -0.17746
v -0.23912 0.16348 -0.12994
vn 0 -1 0
vn -0.90256 0.43057 0
vn -0.93388 0.3576 0
vn -0.45128 0.43057 -0.78164
vn -0.46694 0.3576 -0.80876
vn -0.45128 0.43057 0.78164
vn -0.46694 0.3576 0.80876
vn 0.90256 0.43057 0
vn 0.93388 0.3576 0
vn 0.45128 0.43057 -0.78164
vn 0.46694 0.3576 -0.80876
vn 0.45128 0.43057 0.78164
vn 0.46694 0.3576 0.80876
vn 0.87995 0.47507 0
vn -0.43997 0.47507 0.76206
vn -0.43997 0.47507 -0.76206
vn 0.43997 0.47507 0.76206
vn 0.43997 0.47507 -0.76206
vn 0.35786 0.91063 -0.20661
vn 0.35786 0.91063 0.20661
vn 0 0.91063 -0.41322
vn 0 0.91063 0.41322
vn -0.35786 0.91063 -0.20661
vn -0.35786 0.91063 0.20661
vn -0.87995 0.47507 0
vn -0.78633 0.61244 -0.081259
vn -0.84574 0.52639 -0.087398
vn -0.32279 0.61244 -0.72161
vn -0.34718 0.52639 -0.77613
vn -0.46354 0.61244 0.64035
vn -0.49856 0.52639 0.68873
vn 0.78633 0.61244 0.081259
vn 0.84574 0.52639 0.087398
vn 0.46354 0.61244 -0.64035
vn 0.49856 0.52639 -0.68873
vn 0.32279 0.61244 0.72161
vn 0.34718 0.52639 0.77613
vn -0.30873 0.65448 -0.69017
vn -0.75207 0.65448 -0.077719
vn -0.44334 0.65448 0.61245
vn 0.30873 0.65448 0.69017
vn 0.75207 0.65448 0.077719
vn 0.24678 0.96276 -0.11039
vn 0.21899 0.96276 0.15852
vn 0.027789 0.96276 -0.26891
vn -0.027789 0.96276 0.26891
vn -0.21899 0.96276 -0.15852
vn -0.24678 0.96276 0.11039
vn 0.44334 0.65448 -0.61245
vn -0.93074 0.26745 -0.24939
vn -0.94271 0.21793 -0.2526
vn -0.24939 0.26745 -0.93074
vn -0.2526 0.21793 -0.94271
vn -0.68135 0.26745 0.68135
vn -0.69011 0.21793 0.69011
vn 0.93074 0.26745 0.24939
vn 0.94271 0.21793 0.2526
vn 0.68135 0.26745 -0.68135
vn 0.69011 0.21793 -0.69011
vn 0.24939 0.26745 0.93074
vn 0.2526 0.21793 0.94271
vn -0.24301 0.34414 -0.90693
vn -0.90693 0.34414 -0.24301
vn -0.66392 0.34414 0.66392
vn 0.24301 0.34414 0.90693
vn 0.90693 0.34414 0.24301
vn 0.36431 0.92615 -0.097616
vn 0.26669 0.92615 0.26669
vn 0.097616 0.92615 -0.36431
vn -0.097616 0.92615 0.36431
vn -0.36431 0.92615 0.097616
vn -0.26669 0.92615 -0.26669
vn 0.66392 0.34414 -0.66392
vn 0.36301 0.34031 0.86742
vn 0.37066 0.27955 0.8857
vn -0.5697 0.34031 0.74808
vn -0.58171 0.27955 0.76385
vn 0.93271 0.34031 0.11933
vn 0.95237 0.27955 0.12185
vn -0.36301 0.34031 -0.86742
vn -0.37066 0.27955 -0.8857
vn -0.93271 0.34031 -0.11933
vn -0.95237 0.27955 -0.12185
vn 0.5697 0.34031 -0.74808
vn 0.58171 0.27955 -0.76385
vn 0.35389 0.39962 0.84562
vn -0.55538 0.39962 0.72928
vn 0.55538 0.39962 -0.72928
vn -0.35389 0.39962 -0.84562
vn 0.90927 0.39962 0.11633
vn -0.32633 0.912 -0.24851
vn 0.052055 0.912 -0.40687
vn -0.37838 0.912 0.15835
vn 0.37838 0.912 -0.15835
vn -0.052055 0.912 0.40687
vn 0.32633 0.912 0.24851
vn -0.90927 0.39962 -0.11633
vn 0.78544 0.51651 -0.34103
vn 0.82524 0.43657 -0.35831
vn 0.68806 0.51651 0.5097
vn 0.72292 0.43657 0.53553
vn 0.097382 0.51651 -0.85073
vn 0.10232 0.43657 -0.89383
vn -0.78544 0.51651 0.34103
vn -0.82524 0.43657 0.35831
vn -0.097382 0.51651 0.85073
vn -0.10232 0.43657 0.89383
vn -0.68806 0.51651 -0.5097
vn -0.72292 0.43657 -0.53553
vn 0.77123 0.54136 -0.33486
vn 0.67561 0.54136 0.50048
vn 0.09562 0.54136 -0.83533
vn -0.77123 0.54136 0.33486
vn -0.09562 0.54136 0.83533
vn -0.35021 0.93581 -0.040088
vn -0.14039 0.93581 -0.32334
vn -0.20982 0.93581 0.28325
vn 0.14039 0.93581 0.32334
vn 0.20982 0.93581 -0.28325
vn 0.35021 0.93581 0.040088
vn -0.67561 0.54136 -0.50048
vn 0.34975 0.42338 0.83572
vn 0.36136 0.3519 0.86347
vn -0.54888 0.42338 0.72075
vn -0.56711 0.3519 0.74468
vn 0.89863 0.42338 0.11497
vn 0.92847 0.3519 0.11879
vn -0.34975 0.42338 -0.83572
vn -0.36136 0.3519 -0.86347
vn -0.89863 0.42338 -0.11497
vn -0.92847 0.3519 -0.11879
vn 0.54888 0.42338 -0.72075
vn 0.56711 0.3519 -0.74468
vn 0.33642 0.49053 0.80387
vn -0.52796 0.49053 0.69328
vn 0.52796 0.49053 -0.69328
vn -0.33642 0.49053 -0.80387
vn 0.86438 0.49053 0.11059
vn -0.26169 0.94435 -0.19929
vn 0.041743 0.94435 -0.32627
vn -0.30343 0.94435 0.12698
vn 0.30343 0.94435 -0.12698
vn -0.041743 0.94435 0.32627
vn 0.26169 0.94435 0.19929
vn -0.86438 0.49053 -0.11059
vn -0.64862 0.75367 0.10618
vn -0.23235 0.75367 0.61481
vn -0.91051 0.38569 0.14906
vn -0.32617 0.38569 0.86305
vn -0.58434 0.38569 -0.714
vn -0.41626 0.75367 -0.50863
vn 0.32617 0.38569 -0.86305
vn 0.91051 0.38569 -0.14906
vn 0.23235 0.75367 -0.61481
vn 0.64862 0.75367 -0.10618
vn 0.58434 0.38569 0.714
vn 0.41626 0.75367 0.50863
vn -0.78149 0.38569 -0.49042
vn -0.55671 0.75367 -0.34936
vn -0.81546 0.38569 0.43158
vn -0.58091 0.75367 0.30744
vn 0.58091 0.75367 -0.30744
vn 0.55671 0.75367 0.34936
vn 0.024202 0.75367 -0.6568
vn -0.024202 0.75367 0.6568
vn 0.033973 0.38569 -0.922
vn 0.81546 0.38569 -0.43158
vn 0.78149 0.38569 0.49042
vn -0.033973 0.38569 0.922
vn -0.41938 0.38569 -0.82181
vn -0.29875 0.75367 -0.58543
vn -0.92139 0.38569 -0.047712
vn -0.65637 0.75367 -0.033988
vn -0.50202 0.38569 0.77409
vn -0.35762 0.75367 0.55144
vn 0.65637 0.75367 0.033988
vn 0.29875 0.75367 0.58543
vn 0.35762 0.75367 -0.55144
vn 0.50202 0.38569 -0.77409
vn 0.41938 0.38569 0.82181
vn 0.92139 0.38569 0.047712
vn 0.87619 0.38569 -0.28902
vn 0.68839 0.38569 0.61429
vn 0.62417 0.75367 -0.20589
vn 0.49039 0.75367 0.4376
vn 0.1878 0.38569 -0.90331
vn 0.13378 0.75367 -0.64349
vn -0.1878 0.38569 0.90331
vn -0.87619 0.38569 0.28902
vn -0.13378 0.75367 0.64349
vn -0.62417 0.75367 0.20589
vn -0.49039 0.75367 -0.4376
vn -0.68839 0.38569 -0.61429
vn 0.65718 0.75367 -0.0097221
vn 0.33701 0.75367 0.56427
vn 0.32017 0.75367 -0.57399
vn -0.32017 0.75367 0.57399
vn -0.33701 0.75367 -0.56427
vn -0.65718 0.75367 0.0097221
vn -0.92253 0.38569 0.013648
vn -0.44944 0.38569 0.80576
vn -0.47308 0.38569 -0.79211
vn 0.44944 0.38569 -0.80576
vn 0.92253 0.38569 -0.013648
vn 0.47308 0.38569 0.79211
vt 0.96875 0.025
vt 0.96875 0.086538
vt 0.96875 0.17792
vt 0.96875 0.225
vt 0.96875 0.16383
vt 0.96875 0.20328
vt 0.96875 0.18685
vt 0.96875 0.16142
vt 0.96875 0.175
vt 0.96875 0.075
usemtl colormap
f 3/1/1 2/1/1 1/1/1
f 2/1/1 3/1/1 4/1/1
f 4/1/1 3/1/1 5/1/1
f 4/1/1 5/1/1 6/1/1
f 5/1/2 7/2/3 6/1/2
f 7/2/3 5/1/2 8/2/3
f 7/2/5 4/1/4 6/1/4
f 4/1/4 7/2/5 9/2/5
f 10/2/7 5/1/6 3/1/6
f 5/1/6 10/2/7 8/2/7
f 11/2/9 1/1/8 2/1/8
f 1/1/8 11/2/9 12/2/9
f 9/2/11 2/1/10 4/1/10
f 2/1/10 9/2/11 11/2/11
f 12/2/13 3/1/12 1/1/12
f 3/1/12 12/2/13 10/2/13
f 13/3/14 12/2/9 11/2/9
f 12/2/9 13/3/14 14/3/14
f 15/3/15 8/2/7 10/2/7
f 8/2/7 15/3/15 16/3/15
f 17/3/16 9/2/5 7/2/5
f 9/2/5 17/3/16 18/3/16
f 14/3/17 10/2/13 12/2/13
f 10/2/13 14/3/17 15/3/17
f 18/3/18 11/2/11 9/2/11
f 11/2/11 18/3/18 13/3/18
f 21/4/21 20/4/20 19/4/19
f 20/4/20 21/4/21 22/4/22
f 22/4/22 21/4/21 23/4/23
f 22/4/22 23/4/23 24/4/24
f 8/2/3 17/3/25 7/2/3
f 17/3/25 8/2/3 16/3/25
f 19/4/19 14/3/14 13/3/14
f 14/3/14 19/4/19 20/4/20
f 22/4/22 16/3/15 15/3/15
f 16/3/15 22/4/22 24/4/24
f 17/3/16 21/4/21 18/3/16
f 21/4/21 17/3/16 23/4/23
f 18/3/18 19/4/19 13/3/18
f 19/4/19 18/3/18 21/4/21
f 20/4/20 15/3/17 14/3/17
f 15/3/17 20/4/20 22/4/22
f 17/3/25 24/4/24 23/4/23
f 24/4/24 17/3/25 16/3/25
f 27/1/1 26/1/1 25/1/1
f 26/1/1 27/1/1 28/1/1
f 28/1/1 27/1/1 29/1/1
f 28/1/1 29/1/1 30/1/1
f 29/1/26 31/2/27 30/1/26
f 31/2/27 29/1/26 32/2/27
f 31/2/29 28/1/28 30/1/28
f 28/1/28 31/2/29 33/2/29
f 34/2/31 29/1/30 27/1/30
f 29/1/30 34/2/31 32/2/31
f 35/2/33 25/1/32 26/1/32
f 25/1/32 35/2/33 36/2/33
f 33/2/35 26/1/34 28/1/34
f 26/1/34 33/2/35 35/2/35
f 36/2/37 27/1/36 25/1/36
f 27/1/36 36/2/37 34/2/37
f 37/5/38 33/2/29 31/2/29
f 33/2/29 37/5/38 38/5/38
f 32/2/27 37/5/39 31/2/27
f 37/5/39 32/2/27 39/5/39
f 40/5/40 32/2/31 34/2/31
f 32/2/31 40/5/40 39/5/40
f 41/5/41 34/2/37 36/2/37
f 34/2/37 41/5/41 40/5/41
f 42/5/42 36/2/33 35/2/33
f 36/2/33 42/5/42 41/5/42
f 45/4/45 44/4/44 43/4/43
f 44/4/44 45/4/45 46/4/46
f 46/4/46 45/4/45 47/4/47
f 46/4/46 47/4/47 48/4/48
f 38/5/49 35/2/35 33/2/35
f 35/2/35 38/5/49 42/5/49
f 39/5/39 47/4/47 37/5/39
f 47/4/47 39/5/39 48/4/48
f 46/4/46 39/5/40 40/5/40
f 39/5/40 46/4/46 48/4/48
f 44/4/44 40/5/41 41/5/41
f 40/5/41 44/4/44 46/4/46
f 47/4/47 38/5/38 37/5/38
f 38/5/38 47/4/47 45/4/45
f 38/5/49 43/4/43 42/5/49
f 43/4/43 38/5/49 45/4/45
f 43/4/43 41/5/42 42/5/42
f 41/5/42 43/4/43 44/4/44
f 51/1/1 50/1/1 49/1/1
f 50/1/1 51/1/1 52/1/1
f 52/1/1 51/1/1 53/1/1
f 52/1/1 53/1/1 54/1/1
f 53/1/50 55/2/51 54/1/50
f 55/2/51 53/1/50 56/2/51
f 55/2/53 52/1/52 54/1/52
f 52/1/52 55/2/53 57/2/53
f 58/2/55 53/1/54 51/1/54
f 53/1/54 58/2/55 56/2/55
f 59/2/57 49/1/56 50/1/56
f 49/1/56 59/2/57 60/2/57
f 57/2/59 50/1/58 52/1/58
f 50/1/58 57/2/59 59/2/59
f 60/2/61 51/1/60 49/1/60
f 51/1/60 60/2/61 58/2/61
f 61/6/62 57/2/53 55/2/53
f 57/2/53 61/6/62 62/6/62
f 56/2/51 61/6/63 55/2/51
f 61/6/63 56/2/51 63/6/63
f 64/6/64 56/2/55 58/2/55
f 56/2/55 64/6/64 63/6/64
f 65/6/65 58/2/61 60/2/61
f 58/2/61 65/6/65 64/6/65
f 66/6/66 60/2/57 59/2/57
f 60/2/57 66/6/66 65/6/66
f 69/4/69 68/4/68 67/4/67
f 68/4/68 69/4/69 70/4/70
f 70/4/70 69/4/69 71/4/71
f 71/4/71 69/4/69 72/4/72
f 62/6/73 59/2/59 57/2/59
f 59/2/59 62/6/73 66/6/73
f 61/6/62 69/4/69 62/6/62
f 69/4/69 61/6/62 72/4/72
f 61/6/63 71/4/71 72/4/72
f 71/4/71 61/6/63 63/6/63
f 68/4/68 64/6/65 65/6/65
f 64/6/65 68/4/68 70/4/70
f 66/6/66 68/4/68 65/6/66
f 68/4/68 66/6/66 67/4/67
f 62/6/73 67/4/67 66/6/73
f 67/4/67 62/6/73 69/4/69
f 71/4/71 64/6/64 70/4/70
f 64/6/64 71/4/71 63/6/64
f 75/1/1 74/1/1 73/1/1
f 74/1/1 75/1/1 76/1/1
f 76/1/1 75/1/1 77/1/1
f 76/1/1 77/1/1 78/1/1
f 77/1/74 79/2/75 78/1/74
f 79/2/75 77/1/74 80/2/75
f 79/2/77 76/1/76 78/1/76
f 76/1/76 79/2/77 81/2/77
f 82/2/79 77/1/78 75/1/78
f 77/1/78 82/2/79 80/2/79
f 83/2/81 73/1/80 74/1/80
f 73/1/80 83/2/81 84/2/81
f 81/2/83 74/1/82 76/1/82
f 74/1/82 81/2/83 83/2/83
f 84/2/85 75/1/84 73/1/84
f 75/1/84 84/2/85 82/2/85
f 80/2/75 85/7/86 79/2/75
f 85/7/86 80/2/75 86/7/86
f 85/7/87 81/2/77 79/2/77
f 81/2/77 85/7/87 87/7/87
f 88/7/88 82/2/85 84/2/85
f 82/2/85 88/7/88 89/7/88
f 90/7/89 84/2/81 83/2/81
f 84/2/81 90/7/89 88/7/89
f 89/7/90 80/2/79 82/2/79
f 80/2/79 89/7/90 86/7/90
f 93/4/93 92/4/92 91/4/91
f 92/4/92 93/4/93 94/4/94
f 94/4/94 93/4/93 95/4/95
f 94/4/94 95/4/95 96/4/96
f 87/7/97 83/2/83 81/2/83
f 83/2/83 87/7/97 90/7/97
f 85/7/86 96/4/96 95/4/95
f 96/4/96 85/7/86 86/7/86
f 85/7/87 93/4/93 87/7/87
f 93/4/93 85/7/87 95/4/95
f 92/4/92 89/7/88 88/7/88
f 89/7/88 92/4/92 94/4/94
f 91/4/91 88/7/89 90/7/89
f 88/7/89 91/4/91 92/4/92
f 87/7/97 91/4/91 90/7/97
f 91/4/91 87/7/97 93/4/93
f 96/4/96 89/7/90 94/4/94
f 89/7/90 96/4/96 86/7/90
f 99/1/1 98/1/1 97/1/1
f 98/1/1 99/1/1 100/1/1
f 98/1/1 100/1/1 101/1/1
f 98/1/1 101/1/1 102/1/1
f 101/1/98 103/2/99 102/1/98
f 103/2/99 101/1/98 104/2/99
f 103/2/101 98/1/100 102/1/100
f 98/1/100 103/2/101 105/2/101
f 106/2/103 101/1/102 100/1/102
f 101/1/102 106/2/103 104/2/103
f 107/2/105 99/1/104 97/1/104
f 99/1/104 107/2/105 108/2/105
f 105/2/107 97/1/106 98/1/106
f 97/1/106 105/2/107 107/2/107
f 108/2/109 100/1/108 99/1/108
f 100/1/108 108/2/109 106/2/109
f 104/2/99 109/8/110 103/2/99
f 109/8/110 104/2/99 110/8/110
f 109/8/111 105/2/101 103/2/101
f 105/2/101 109/8/111 111/8/111
f 112/8/112 104/2/103 106/2/103
f 104/2/103 112/8/112 110/8/112
f 113/8/113 108/2/105 107/2/105
f 108/2/105 113/8/113 114/8/113
f 111/8/114 107/2/107 105/2/107
f 107/2/107 111/8/114 113/8/114
f 117/4/117 116/4/116 115/4/115
f 116/4/116 117/4/117 118/4/118
f 116/4/116 118/4/118 119/4/119
f 119/4/119 118/4/118 120/4/120
f 114/8/121 106/2/109 108/2/109
f 106/2/109 114/8/121 112/8/121
f 109/8/110 119/4/119 120/4/120
f 119/4/119 109/8/110 110/8/110
f 119/4/119 112/8/112 116/4/116
f 112/8/112 119/4/119 110/8/112
f 117/4/117 114/8/113 113/8/113
f 114/8/113 117/4/117 115/4/115
f 109/8/111 118/4/118 111/8/111
f 118/4/118 109/8/111 120/4/120
f 115/4/115 112/8/121 114/8/121
f 112/8/121 115/4/115 116/4/116
f 111/8/114 117/4/117 113/8/114
f 117/4/117 111/8/114 118/4/118
f 123/1/1 122/1/1 121/1/1
f 122/1/1 123/1/1 124/1/1
f 124/1/1 123/1/1 125/1/1
f 124/1/1 125/1/1 126/1/1
f 125/1/122 127/2/123 126/1/122
f 127/2/123 125/1/122 128/2/123
f 127/2/125 124/1/124 126/1/124
f 124/1/124 127/2/125 129/2/125
f 130/2/127 125/1/126 123/1/126
f 125/1/126 130/2/127 128/2/127
f 131/2/129 121/1/128 122/1/128
f 121/1/128 131/2/129 132/2/129
f 129/2/131 122/1/130 124/1/130
f 122/1/130 129/2/131 131/2/131
f 132/2/133 123/1/132 121/1/132
f 123/1/132 132/2/133 130/2/133
f 128/2/123 133/7/134 127/2/123
f 133/7/134 128/2/123 134/7/134
f 133/7/135 129/2/125 127/2/125
f 129/2/125 133/7/135 135/7/135
f 136/7/136 130/2/133 132/2/133
f 130/2/133 136/7/136 137/7/136
f 138/7/137 132/2/129 131/2/129
f 132/2/129 138/7/137 136/7/137
f 137/7/138 128/2/127 130/2/127
f 128/2/127 137/7/138 134/7/138
f 141/4/141 140/4/140 139/4/139
f 140/4/140 141/4/141 142/4/142
f 142/4/142 141/4/141 143/4/143
f 142/4/142 143/4/143 144/4/144
f 135/7/145 131/2/131 129/2/131
f 131/2/131 135/7/145 138/7/145
f 133/7/134 144/4/144 143/4/143
f 144/4/144 133/7/134 134/7/134
f 133/7/135 141/4/141 135/7/135
f 141/4/141 133/7/135 143/4/143
f 140/4/140 137/7/136 136/7/136
f 137/7/136 140/4/140 142/4/142
f 139/4/139 136/7/137 138/7/137
f 136/7/137 139/4/139 140/4/140
f 135/7/145 139/4/139 138/7/145
f 139/4/139 135/7/145 141/4/141
f 144/4/144 137/7/138 142/4/142
f 137/7/138 144/4/144 134/7/138
f 147/10/148 146/9/147 145/9/146
f 146/9/147 147/10/148 148/10/149
f 147/10/148 150/9/151 149/10/150
f 150/9/151 147/10/148 145/9/146
f 153/9/154 152/10/153 151/10/152
f 152/10/153 153/9/154 154/9/155
f 156/9/157 148/10/149 155/10/156
f 148/10/149 156/9/157 146/9/147
f 150/9/151 151/10/152 149/10/150
f 151/10/152 150/9/151 153/9/154
f 155/10/1 151/10/1 152/10/1
f 151/10/1 155/10/1 148/10/1
f 151/10/1 148/10/1 149/10/1
f 149/10/1 148/10/1 147/10/1
f 153/9/154 156/9/157 154/9/155
f 156/9/157 153/9/154 146/9/147
f 146/9/147 153/9/154 150/9/151
f 146/9/147 150/9/151 145/9/146
f 154/9/155 155/10/156 152/10/153
f 155/10/156 154/9/155 156/9/157
f 159/10/160 158/9/159 157/10/158
f 158/9/159 159/10/160 160/9/161
f 163/9/164 162/9/163 161/9/162
f 162/9/163 163/9/164 164/9/165
f 164/9/165 163/9/164 158/9/159
f 164/9/165 158/9/159 160/9/161
f 158/9/159 165/10/166 157/10/158
f 165/10/166 158/9/159 163/9/164
f 161/9/162 167/10/168 166/10/167
f 167/10/168 161/9/162 162/9/163
f 162/9/163 168/10/169 167/10/168
f 168/10/169 162/9/163 164/9/165
f 167/10/1 165/10/1 166/10/1
f 165/10/1 167/10/1 168/10/1
f 165/10/1 168/10/1 157/10/1
f 157/10/1 168/10/1 159/10/1
f 164/9/165 159/10/160 168/10/169
f 159/10/160 164/9/165 160/9/161
f 163/9/164 166/10/167 165/10/166
f 166/10/167 163/9/164 161/9/162
f 171/10/1 170/10/1 169/10/1
f 170/10/1 171/10/1 172/10/1
f 172/10/1 171/10/1 173/10/1
f 172/10/1 173/10/1 174/10/1
f 174/10/172 175/9/171 172/10/170
f 175/9/171 174/10/172 176/9/173
f 173/10/174 176/9/173 174/10/172
f 176/9/173 173/10/174 177/9/175
f 180/9/178 179/9/177 178/9/176
f 179/9/177 180/9/178 175/9/171
f 179/9/177 175/9/171 177/9/175
f 177/9/175 175/9/171 176/9/173
f 175/9/171 170/10/179 172/10/170
f 170/10/179 175/9/171 180/9/178
f 179/9/177 173/10/174 171/10/180
f 173/10/174 179/9/177 177/9/175
f 179/9/177 169/10/181 178/9/176
f 169/10/181 179/9/177 171/10/180
f 180/9/178 169/10/181 170/10/179
f 169/10/181 180/9/178 178/9/176
f 183/9/184 182/10/183 181/10/182
f 182/10/183 183/9/184 184/9/185
f 186/9/187 181/10/182 185/10/186
f 181/10/182 186/9/187 183/9/184
f 189/9/190 188/10/189 187/10/188
f 188/10/189 189/9/190 190/9/191
f 186/9/187 184/9/185 183/9/184
f 184/9/185 186/9/187 189/9/190
f 189/9/190 186/9/187 191/9/192
f 189/9/190 191/9/192 190/9/191
f 188/10/189 191/9/192 192/10/193
f 191/9/192 188/10/189 190/9/191
f 191/9/192 185/10/186 192/10/193
f 185/10/186 191/9/192 186/9/187
f 184/9/185 187/10/188 182/10/183
f 187/10/188 184/9/185 189/9/190
f 182/10/1 185/10/1 181/10/1
f 185/10/1 182/10/1 187/10/1
f 185/10/1 187/10/1 192/10/1
f 192/10/1 187/10/1 188/10/1
f 195/9/196 194/9/195 193/9/194
f 194/9/195 195/9/196 196/9/197
f 196/9/197 195/9/196 197/9/198
f 196/9/197 197/9/198 198/9/199
f 201/10/1 200/10/1 199/10/1
f 200/10/1 201/10/1 202/10/1
f 200/10/1 202/10/1 203/10/1
f 203/10/1 202/10/1 204/10/1
f 204/10/200 196/9/197 198/9/199
f 196/9/197 204/10/200 202/10/201
f 197/9/198 200/10/203 203/10/202
f 200/10/203 197/9/198 195/9/196
f 193/9/194 201/10/205 199/10/204
f 201/10/205 193/9/194 194/9/195
f 194/9/195 202/10/201 201/10/205
f 202/10/201 194/9/195 196/9/197
f 195/9/196 199/10/204 200/10/203
f 199/10/204 195/9/196 193/9/194
f 204/10/200 197/9/198 203/10/202
f 197/9/198 204/10/200 198/9/199
g rocks
usemtl colormap
f 3/1/1 2/1/1 1/1/1
f 2/1/1 3/1/1 4/1/1
f 4/1/1 3/1/1 5/1/1
f 4/1/1 5/1/1 6/1/1
f 5/1/2 7/2/3 6/1/2
f 7/2/3 5/1/2 8/2/3
f 7/2/5 4/1/4 6/1/4
f 4/1/4 7/2/5 9/2/5
f 10/2/7 5/1/6 3/1/6
f 5/1/6 10/2/7 8/2/7
f 11/2/9 1/1/8 2/1/8
f 1/1/8 11/2/9 12/2/9
f 9/2/11 2/1/10 4/1/10
f 2/1/10 9/2/11 11/2/11
f 12/2/13 3/1/12 1/1/12
f 3/1/12 12/2/13 10/2/13
f 13/3/14 12/2/9 11/2/9
f 12/2/9 13/3/14 14/3/14
f 15/3/15 8/2/7 10/2/7
f 8/2/7 15/3/15 16/3/15
f 17/3/16 9/2/5 7/2/5
f 9/2/5 17/3/16 18/3/16
f 14/3/17 10/2/13 12/2/13
f 10/2/13 14/3/17 15/3/17
f 18/3/18 11/2/11 9/2/11
f 11/2/11 18/3/18 13/3/18
f 21/4/21 20/4/20 19/4/19
f 20/4/20 21/4/21 22/4/22
f 22/4/22 21/4/21 23/4/23
f 22/4/22 23/4/23 24/4/24
f 8/2/3 17/3/25 7/2/3
f 17/3/25 8/2/3 16/3/25
f 19/4/19 14/3/14 13/3/14
f 14/3/14 19/4/19 20/4/20
f 22/4/22 16/3/15 15/3/15
f 16/3/15 22/4/22 24/4/24
f 17/3/16 21/4/21 18/3/16
f 21/4/21 17/3/16 23/4/23
f 18/3/18 19/4/19 13/3/18
f 19/4/19 18/3/18 21/4/21
f 20/4/20 15/3/17 14/3/17
f 15/3/17 20/4/20 22/4/22
f 17/3/25 24/4/24 23/4/23
f 24/4/24 17/3/25 16/3/25
f 27/1/1 26/1/1 25/1/1
f 26/1/1 27/1/1 28/1/1
f 28/1/1 27/1/1 29/1/1
f 28/1/1 29/1/1 30/1/1
f 29/1/26 31/2/27 30/1/26
f 31/2/27 29/1/26 32/2/27
f 31/2/29 28/1/28 30/1/28
f 28/1/28 31/2/29 33/2/29
f 34/2/31 29/1/30 27/1/30
f 29/1/30 34/2/31 32/2/31
f 35/2/33 25/1/32 26/1/32
f 25/1/32 35/2/33 36/2/33
f 33/2/35 26/1/34 28/1/34
f 26/1/34 33/2/35 35/2/35
f 36/2/37 27/1/36 25/1/36
f 27/1/36 36/2/37 34/2/37
f 37/5/38 33/2/29 31/2/29
f 33/2/29 37/5/38 38/5/38
f 32/2/27 37/5/39 31/2/27
f 37/5/39 32/2/27 39/5/39
f 40/5/40 32/2/31 34/2/31
f 32/2/31 40/5/40 39/5/40
f 41/5/41 34/2/37 36/2/37
f 34/2/37 41/5/41 40/5/41
f 42/5/42 36/2/33 35/2/33
f 36/2/33 42/5/42 41/5/42
f 45/4/45 44/4/44 43/4/43
f 44/4/44 45/4/45 46/4/46
f 46/4/46 45/4/45 47/4/47
f 46/4/46 47/4/47 48/4/48
f 38/5/49 35/2/35 33/2/35
f 35/2/35 38/5/49 42/5/49
f 39/5/39 47/4/47 37/5/39
f 47/4/47 39/5/39 48/4/48
f 46/4/46 39/5/40 40/5/40
f 39/5/40 46/4/46 48/4/48
f 44/4/44 40/5/41 41/5/41
f 40/5/41 44/4/44 46/4/46
f 47/4/47 38/5/38 37/5/38
f 38/5/38 47/4/47 45/4/45
f 38/5/49 43/4/43 42/5/49
f 43/4/43 38/5/49 45/4/45
f 43/4/43 41/5/42 42/5/42
f 41/5/42 43/4/43 44/4/44
f 51/1/1 50/1/1 49/1/1
f 50/1/1 51/1/1 52/1/1
f 52/1/1 51/1/1 53/1/1
f 52/1/1 53/1/1 54/1/1
f 53/1/50 55/2/51 54/1/50
f 55/2/51 53/1/50 56/2/51
f 55/2/53 52/1/52 54/1/52
f 52/1/52 55/2/53 57/2/53
f 58/2/55 53/1/54 51/1/54
f 53/1/54 58/2/55 56/2/55
f 59/2/57 49/1/56 50/1/56
f 49/1/56 59/2/57 60/2/57
f 57/2/59 50/1/58 52/1/58
f 50/1/58 57/2/59 59/2/59
f 60/2/61 51/1/60 49/1/60
f 51/1/60 60/2/61 58/2/61
f 61/6/62 57/2/53 55/2/53
f 57/2/53 61/6/62 62/6/62
f 56/2/51 61/6/63 55/2/51
f 61/6/63 56/2/51 63/6/63
f 64/6/64 56/2/55 58/2/55
f 56/2/55 64/6/64 63/6/64
f 65/6/65 58/2/61 60/2/61
f 58/2/61 65/6/65 64/6/65
f 66/6/66 60/2/57 59/2/57
f 60/2/57 66/6/66 65/6/66
f 69/4/69 68/4/68 67/4/67
f 68/4/68 69/4/69 70/4/70
f 70/4/70 69/4/69 71/4/71
f 71/4/71 69/4/69 72/4/72
f 62/6/73 59/2/59 57/2/59
f 59/2/59 62/6/73 66/6/73
f 61/6/62 69/4/69 62/6/62
f 69/4/69 61/6/62 72/4/72
f 61/6/63 71/4/71 72/4/72
f 71/4/71 61/6/63 63/6/63
f 68/4/68 64/6/65 65/6/65
f 64/6/65 68/4/68 70/4/70
f 66/6/66 68/4/68 65/6/66
f 68/4/68 66/6/66 67/4/67
f 62/6/73 67/4/67 66/6/73
f 67/4/67 62/6/73 69/4/69
f 71/4/71 64/6/64 70/4/70
f 64/6/64 71/4/71 63/6/64
f 75/1/1 74/1/1 73/1/1
f 74/1/1 75/1/1 76/1/1
f 76/1/1 75/1/1 77/1/1
f 76/1/1 77/1/1 78/1/1
f 77/1/74 79/2/75 78/1/74
f 79/2/75 77/1/74 80/2/75
f 79/2/77 76/1/76 78/1/76
f 76/1/76 79/2/77 81/2/77
f 82/2/79 77/1/78 75/1/78
f 77/1/78 82/2/79 80/2/79
f 83/2/81 73/1/80 74/1/80
f 73/1/80 83/2/81 84/2/81
f 81/2/83 74/1/82 76/1/82
f 74/1/82 81/2/83 83/2/83
f 84/2/85 75/1/84 73/1/84
f 75/1/84 84/2/85 82/2/85
f 80/2/75 85/7/86 79/2/75
f 85/7/86 80/2/75 86/7/86
f 85/7/87 81/2/77 79/2/77
f 81/2/77 85/7/87 87/7/87
f 88/7/88 82/2/85 84/2/85
f 82/2/85 88/7/88 89/7/88
f 90/7/89 84/2/81 83/2/81
f 84/2/81 90/7/89 88/7/89
f 89/7/90 80/2/79 82/2/79
f 80/2/79 89/7/90 86/7/90
f 93/4/93 92/4/92 91/4/91
f 92/4/92 93/4/93 94/4/94
f 94/4/94 93/4/93 95/4/95
f 94/4/94 95/4/95 96/4/96
f 87/7/97 83/2/83 81/2/83
f 83/2/83 87/7/97 90/7/97
f 85/7/86 96/4/96 95/4/95
f 96/4/96 85/7/86 86/7/86
f 85/7/87 93/4/93 87/7/87
f 93/4/93 85/7/87 95/4/95
f 92/4/92 89/7/88 88/7/88
f 89/7/88 92/4/92 94/4/94
f 91/4/91 88/7/89 90/7/89
f 88/7/89 91/4/91 92/4/92
f 87/7/97 91/4/91 90/7/97
f 91/4/91 87/7/97 93/4/93
f 96/4/96 89/7/90 94/4/94
f 89/7/90 96/4/96 86/7/90
f 99/1/1 98/1/1 97/1/1
f 98/1/1 99/1/1 100/1/1
f 98/1/1 100/1/1 101/1/1
f 98/1/1 101/1/1 102/1/1
f 101/1/98 103/2/99 102/1/98
f 103/2/99 101/1/98 104/2/99
f 103/2/101 98/1/100 102/1/100
f 98/1/100 103/2/101 105/2/101
f 106/2/103 101/1/102 100/1/102
f 101/1/102 106/2/103 104/2/103
f 107/2/105 99/1/104 97/1/104
f 99/1/104 107/2/105 108/2/105
f 105/2/107 97/1/106 98/1/106
f 97/1/106 105/2/107 107/2/107
f 108/2/109 100/1/108 99/1/108
f 100/1/108 108/2/109 106/2/109
f 104/2/99 109/8/110 103/2/99
f 109/8/110 104/2/99 110/8/110
f 109/8/111 105/2/101 103/2/101
f 105/2/101 109/8/111 111/8/111
f 112/8/112 104/2/103 106/2/103
f 104/2/103 112/8/112 110/8/112
f 113/8/113 108/2/105 107/2/105
f 108/2/105 113/8/113 114/8/113
f 111/8/114 107/2/107 105/2/107
f 107/2/107 111/8/114 113/8/114
f 117/4/117 116/4/116 115/4/115
f 116/4/116 117/4/117 118/4/118
f 116/4/116 118/4/118 119/4/119
f 119/4/119 118/4/118 120/4/120
f 114/8/121 106/2/109 108/2/109
f 106/2/109 114/8/121 112/8/121
f 109/8/110 119/4/119 120/4/120
f 119/4/119 109/8/110 110/8/110
f 119/4/119 112/8/112 116/4/116
f 112/8/112 119/4/119 110/8/112
f 117/4/117 114/8/113 113/8/113
f 114/8/113 117/4/117 115/4/115
f 109/8/111 118/4/118 111/8/111
f 118/4/118 109/8/111 120/4/120
f 115/4/115 112/8/121 114/8/121
f 112/8/121 115/4/115 116/4/116
f 111/8/114 117/4/117 113/8/114
f 117/4/117 111/8/114 118/4/118
f 123/1/1 122/1/1 121/1/1
f 122/1/1 123/1/1 124/1/1
f 124/1/1 123/1/1 125/1/1
f 124/1/1 125/1/1 126/1/1
f 125/1/122 127/2/123 126/1/122
f 127/2/123 125/1/122 128/2/123
f 127/2/125 124/1/124 126/1/124
f 124/1/124 127/2/125 129/2/125
f 130/2/127 125/1/126 123/1/126
f 125/1/126 130/2/127 128/2/127
f 131/2/129 121/1/128 122/1/128
f 121/1/128 131/2/129 132/2/129
f 129/2/131 122/1/130 124/1/130
f 122/1/130 129/2/131 131/2/131
f 132/2/133 123/1/132 121/1/132
f 123/1/132 132/2/133 130/2/133
f 128/2/123 133/7/134 127/2/123
f 133/7/134 128/2/123 134/7/134
f 133/7/135 129/2/125 127/2/125
f 129/2/125 133/7/135 135/7/135
f 136/7/136 130/2/133 132/2/133
f 130/2/133 136/7/136 137/7/136
f 138/7/137 132/2/129 131/2/129
f 132/2/129 138/7/137 136/7/137
f 137/7/138 128/2/127 130/2/127
f 128/2/127 137/7/138 134/7/138
f 141/4/141 140/4/140 139/4/139
f 140/4/140 141/4/141 142/4/142
f 142/4/142 141/4/141 143/4/143
f 142/4/142 143/4/143 144/4/144
f 135/7/145 131/2/131 129/2/131
f 131/2/131 135/7/145 138/7/145
f 133/7/134 144/4/144 143/4/143
f 144/4/144 133/7/134 134/7/134
f 133/7/135 141/4/141 135/7/135
f 141/4/141 133/7/135 143/4/143
f 140/4/140 137/7/136 136/7/136
f 137/7/136 140/4/140 142/4/142
f 139/4/139 136/7/137 138/7/137
f 136/7/137 139/4/139 140/4/140
f 135/7/145 139/4/139 138/7/145
f 139/4/139 135/7/145 141/4/141
f 144/4/144 137/7/138 142/4/142
f 137/7/138 144/4/144 134/7/138
f 147/10/148 146/9/147 145/9/146
f 146/9/147 147/10/148 148/10/149
f 147/10/148 150/9/151 149/10/150
f 150/9/151 147/10/148 145/9/146
f 153/9/154 152/10/153 151/10/152
f 152/10/153 153/9/154 154/9/155
f 156/9/157 148/10/149 155/10/156
f 148/10/149 156/9/157 146/9/147
f 150/9/151 151/10/152 149/10/150
f 151/10/152 150/9/151 153/9/154
f 155/10/1 151/10/1 152/10/1
f 151/10/1 155/10/1 148/10/1
f 151/10/1 148/10/1 149/10/1
f 149/10/1 148/10/1 147/10/1
f 153/9/154 156/9/157 154/9/155
f 156/9/157 153/9/154 146/9/147
f 146/9/147 153/9/154 150/9/151
f 146/9/147 150/9/151 145/9/146
f 154/9/155 155/10/156 152/10/153
f 155/10/156 154/9/155 156/9/157
f 159/10/160 158/9/159 157/10/158
f 158/9/159 159/10/160 160/9/161
f 163/9/164 162/9/163 161/9/162
f 162/9/163 163/9/164 164/9/165
f 164/9/165 163/9/164 158/9/159
f 164/9/165 158/9/159 160/9/161
f 158/9/159 165/10/166 157/10/158
f 165/10/166 158/9/159 163/9/164
f 161/9/162 167/10/168 166/10/167
f 167/10/168 161/9/162 162/9/163
f 162/9/163 168/10/169 167/10/168
f 168/10/169 162/9/163 164/9/165
f 167/10/1 165/10/1 166/10/1
f 165/10/1 167/10/1 168/10/1
f 165/10/1 168/10/1 157/10/1
f 157/10/1 168/10/1 159/10/1
f 164/9/165 159/10/160 168/10/169
f 159/10/160 164/9/165 160/9/161
f 163/9/164 166/10/167 165/10/166
f 166/10/167 163/9/164 161/9/162
f 171/10/1 170/10/1 169/10/1
f 170/10/1 171/10/1 172/10/1
f 172/10/1 171/10/1 173/10/1
f 172/10/1 173/10/1 174/10/1
f 174/10/172 175/9/171 172/10/170
f 175/9/171 174/10/172 176/9/173
f 173/10/174 176/9/173 174/10/172
f 176/9/173 173/10/174 177/9/175
f 180/9/178 179/9/177 178/9/176
f 179/9/177 180/9/178 175/9/171
f 179/9/177 175/9/171 177/9/175
f 177/9/175 175/9/171 176/9/173
f 175/9/171 170/10/179 172/10/170
f 170/10/179 175/9/171 180/9/178
f 179/9/177 173/10/174 171/10/180
f 173/10/174 179/9/177 177/9/175
f 179/9/177 169/10/181 178/9/176
f 169/10/181 179/9/177 171/10/180
f 180/9/178 169/10/181 170/10/179
f 169/10/181 180/9/178 178/9/176
f 183/9/184 182/10/183 181/10/182
f 182/10/183 183/9/184 184/9/185
f 186/9/187 181/10/182 185/10/186
f 181/10/182 186/9/187 183/9/184
f 189/9/190 188/10/189 187/10/188
f 188/10/189 189/9/190 190/9/191
f 186/9/187 184/9/185 183/9/184
f 184/9/185 186/9/187 189/9/190
f 189/9/190 186/9/187 191/9/192
f 189/9/190 191/9/192 190/9/191
f 188/10/189 191/9/192 192/10/193
f 191/9/192 188/10/189 190/9/191
f 191/9/192 185/10/186 192/10/193
f 185/10/186 191/9/192 186/9/187
f 184/9/185 187/10/188 182/10/183
f 187/10/188 184/9/185 189/9/190
f 182/10/1 185/10/1 181/10/1
f 185/10/1 182/10/1 187/10/1
f 185/10/1 187/10/1 192/10/1
f 192/10/1 187/10/1 188/10/1
f 195/9/196 194/9/195 193/9/194
f 194/9/195 195/9/196 196/9/197
f 196/9/197 195/9/196 197/9/198
f 196/9/197 197/9/198 198/9/199
f 201/10/1 200/10/1 199/10/1
f 200/10/1 201/10/1 202/10/1
f 200/10/1 202/10/1 203/10/1
f 203/10/1 202/10/1 204/10/1
f 204/10/200 196/9/197 198/9/199
f 196/9/197 204/10/200 202/10/201
f 197/9/198 200/10/203 203/10/202
f 200/10/203 197/9/198 195/9/196
f 193/9/194 201/10/205 199/10/204
f 201/10/205 193/9/194 194/9/195
f 194/9/195 202/10/201 201/10/205
f 202/10/201 194/9/195 196/9/197
f 195/9/196 199/10/204 200/10/203
f 199/10/204 195/9/196 193/9/194
f 204/10/200 197/9/198 203/10/202
f 197/9/198 204/10/200 198/9/199
