mtllib yard_pumpkin-tall.mtl
g pumpkin-tall
v 0.069325 0.03777 0.0066753
v 7.2191e-16 0.03777 -0.02204
v 0.041595 0 0.034405
v 7.2191e-16 0 0.017176
v -0.041595 0 0.034405
v -0.069325 0.03777 0.0066753
v 0.058824 0 0.076
v 0.041595 0 0.11759
v 7.2191e-16 0 0.13482
v -0.041595 0 0.11759
v -0.058824 0 0.076
v 0.049221 0.24433 0.12522
v 2.9165e-15 0.24433 0.14561
v 0.029532 0.27114 0.10553
v 2.9165e-15 0.27114 0.11776
v 0.069608 0.24433 0.076
v 0.041765 0.27114 0.076
v 0.069325 0.03777 0.14532
v 7.2191e-16 0.03777 0.17404
v -0.029532 0.27114 0.046468
v -0.041765 0.27114 0.076
v -0.049221 0.24433 0.026779
v -0.069608 0.24433 0.076
v 0.049221 0.24433 0.026779
v 0.029532 0.27114 0.046468
v 2.9165e-15 0.24433 0.0063916
v 2.9165e-15 0.27114 0.034235
v -0.029532 0.27114 0.10553
v -0.049221 0.24433 0.12522
v -0.09804 0.03777 0.076
v -0.069325 0.03777 0.14532
v 0.09804 0.03777 0.076
v -0.079723 0.16331 -0.0037235
v 7.2191e-16 0.16331 -0.036746
v 0.079723 0.16331 0.15572
v 7.2191e-16 0.16331 0.18875
v -0.11275 0.16331 0.076
v -0.079723 0.16331 0.15572
v 0.079723 0.16331 -0.0037235
v 0.11275 0.16331 0.076
v 0.069325 0.03777 -0.093325
v 7.2191e-16 0.03777 -0.12204
v 0.041595 0 -0.065595
v 7.2191e-16 0 -0.082824
v -0.041595 0 -0.065595
v -0.069325 0.03777 -0.093325
v 0.058824 0 -0.024
v 0.041595 0 0.017595
v 7.2191e-16 0 0.034824
v -0.041595 0 0.017595
v -0.058824 0 -0.024
v 0.049221 0.24433 0.025221
v 2.9165e-15 0.24433 0.045608
v 0.029532 0.27114 0.0055323
v 2.9165e-15 0.27114 0.017765
v 0.069608 0.24433 -0.024
v 0.041765 0.27114 -0.024
v 0.069325 0.03777 0.045325
v 7.2191e-16 0.03777 0.07404
v -0.029532 0.27114 -0.053532
v -0.041765 0.27114 -0.024
v -0.049221 0.24433 -0.073221
v -0.069608 0.24433 -0.024
v 0.049221 0.24433 -0.073221
v 0.029532 0.27114 -0.053532
v 2.9165e-15 0.24433 -0.093608
v 2.9165e-15 0.27114 -0.065765
v -0.029532 0.27114 0.0055323
v -0.049221 0.24433 0.025221
v -0.09804 0.03777 -0.024
v -0.069325 0.03777 0.045325
v 0.09804 0.03777 -0.024
v -0.079723 0.16331 -0.10372
v 7.2191e-16 0.16331 -0.13675
v 0.079723 0.16331 0.055723
v 7.2191e-16 0.16331 0.088746
v -0.11275 0.16331 -0.024
v -0.079723 0.16331 0.055723
v 0.079723 0.16331 -0.10372
v 0.11275 0.16331 -0.024
v 0.11932 0.03777 -0.042196
v 0.05 0.03777 -0.070911
v 0.091595 0 -0.014466
v 0.05 0 -0.031695
v 0.0084052 0 -0.014466
v -0.019325 0.03777 -0.042196
v 0.10882 0 0.027129
v 0.091595 0 0.068724
v 0.05 0 0.085953
v 0.0084052 0 0.068724
v -0.008824 0 0.027129
v 0.099221 0.24433 0.07635
v 0.05 0.24433 0.096737
v 0.079532 0.27114 0.056661
v 0.05 0.27114 0.068894
v 0.11961 0.24433 0.027129
v 0.091765 0.27114 0.027129
v 0.11932 0.03777 0.096454
v 0.05 0.03777 0.12517
v 0.020468 0.27114 -0.0024033
v 0.008235 0.27114 0.027129
v 0.00077943 0.24433 -0.022092
v -0.019608 0.24433 0.027129
v 0.099221 0.24433 -0.022092
v 0.079532 0.27114 -0.0024033
v 0.05 0.24433 -0.042479
v 0.05 0.27114 -0.014636
v 0.020468 0.27114 0.056661
v 0.00077943 0.24433 0.07635
v -0.04804 0.03777 0.027129
v -0.019325 0.03777 0.096454
v 0.14804 0.03777 0.027129
v -0.029723 0.16331 -0.052594
v 0.05 0.16331 -0.085617
v 0.12972 0.16331 0.10685
v 0.05 0.16331 0.13987
v -0.062746 0.16331 0.027129
v -0.029723 0.16331 0.10685
v 0.12972 0.16331 -0.052594
v 0.16275 0.16331 0.027129
v 0.019325 0.03777 -0.042196
v -0.05 0.03777 -0.070911
v -0.0084052 0 -0.014466
v -0.05 0 -0.031695
v -0.091595 0 -0.014466
v -0.11932 0.03777 -0.042196
v 0.008824 0 0.027129
v -0.0084052 0 0.068724
v -0.05 0 0.085953
v -0.091595 0 0.068724
v -0.10882 0 0.027129
v -0.00077943 0.24433 0.07635
v -0.05 0.24433 0.096737
v -0.020468 0.27114 0.056661
v -0.05 0.27114 0.068894
v 0.019608 0.24433 0.027129
v -0.008235 0.27114 0.027129
v 0.019325 0.03777 0.096454
v -0.05 0.03777 0.12517
v -0.079532 0.27114 -0.0024033
v -0.091765 0.27114 0.027129
v -0.099221 0.24433 -0.022092
v -0.11961 0.24433 0.027129
v -0.00077943 0.24433 -0.022092
v -0.020468 0.27114 -0.0024033
v -0.05 0.24433 -0.042479
v -0.05 0.27114 -0.014636
v -0.079532 0.27114 0.056661
v -0.099221 0.24433 0.07635
v -0.14804 0.03777 0.027129
v -0.11932 0.03777 0.096454
v 0.04804 0.03777 0.027129
v -0.12972 0.16331 -0.052594
v -0.05 0.16331 -0.085617
v 0.029723 0.16331 0.10685
v -0.05 0.16331 0.13987
v -0.16275 0.16331 0.027129
v -0.12972 0.16331 0.10685
v 0.029723 0.16331 -0.052594
v 0.062746 0.16331 0.027129
v 0.020558 0.35967 0.027129
v 0.0087269 0.3565 0.056699
v 0.0087269 0.3565 -0.0024406
v -0.019835 0.34885 -0.014689
v -0.019835 0.34885 0.068947
v -0.048397 0.34119 -0.0024406
v -0.048397 0.34119 0.056699
v -0.060228 0.33802 0.027129
v -0.017302 0.27085 0.0093873
v -0.00016488 0.27544 0.0020384
v -0.00016488 0.27544 0.05222
v -0.017302 0.27085 0.044871
v -0.024401 0.26894 0.027129
v 0.016972 0.28003 0.0093873
v 0.024071 0.28193 0.027129
v 0.016972 0.28003 0.044871
v 0.05092 0.28414 0.027129
v 0.036006 0.28414 0.063135
v 0.036006 0.28414 -0.0088769
v 6.9015e-15 0.28414 -0.023791
v 6.9015e-15 0.28414 0.078049
v -0.036006 0.28414 -0.0088769
v -0.036006 0.28414 0.063135
v -0.05092 0.28414 0.027129
v 0.051053 0.24614 0.078182
v 3.0609e-15 0.24614 0.099329
v 0.051053 0.24614 -0.023924
v 0.0722 0.24614 0.027129
v -0.051053 0.24614 -0.023924
v 3.0609e-15 0.24614 -0.045071
v -0.0722 0.24614 0.027129
v -0.051053 0.24614 0.078182
vn 0.64351 -0.41446 -0.64351
vn 0 -0.41446 -0.91007
vn 0.49052 -0.72026 -0.49052
vn 0 -0.72026 -0.6937
vn -0.49052 -0.72026 -0.49052
vn -0.64351 -0.41446 -0.64351
vn 0 -1 0
vn 0.57364 0.58471 0.57364
vn 0 0.58471 0.81124
vn 0.31706 0.89383 0.31706
vn 0 0.89383 0.4484
vn 0.81124 0.58471 0
vn 0.4484 0.89383 0
vn 0.64351 -0.41446 0.64351
vn 0.49052 -0.72026 0.49052
vn 0 -0.41446 0.91007
vn 0 -0.72026 0.6937
vn -0.31706 0.89383 -0.31706
vn -0.4484 0.89383 0
vn -0.57364 0.58471 -0.57364
vn -0.81124 0.58471 0
vn 0.57364 0.58471 -0.57364
vn 0.31706 0.89383 -0.31706
vn 0 0.58471 -0.81124
vn 0 0.89383 -0.4484
vn -0.31706 0.89383 0.31706
vn -0.57364 0.58471 0.57364
vn -0.6937 -0.72026 0
vn -0.91007 -0.41446 0
vn -0.64351 -0.41446 0.64351
vn -0.49052 -0.72026 0.49052
vn 0.91007 -0.41446 0
vn 0.6937 -0.72026 0
vn -0.69641 0.17325 -0.69641
vn 0 0.17325 -0.98488
vn 0.69641 0.17325 0.69641
vn 0 0.17325 0.98488
vn -0.98488 0.17325 0
vn -0.69641 0.17325 0.69641
vn 0.69641 0.17325 -0.69641
vn 0.98488 0.17325 0
vn -0.25882 0.96593 0
vn -0.61141 -0.38636 -0.69058
vn 0.055633 -0.20762 -0.97663
vn 0.055633 -0.20762 0.97663
vn -0.61141 -0.38636 0.69058
vn -0.88771 -0.46039 0
vn 0.72268 -0.02889 -0.69058
vn 0.99898 0.045145 0
vn 0.72268 -0.02889 0.69058
vn 0.58782 0.80899 0
vn 0.41565 0.80899 0.41565
vn 0.41565 0.80899 -0.41565
vn 0 0.80899 -0.58782
vn 0 0.80899 0.58782
vn -0.41565 0.80899 -0.41565
vn -0.41565 0.80899 0.41565
vn -0.58782 0.80899 0
vn 0.61695 0.4886 0.61695
vn 0 0.4886 0.87251
vn 0.61695 0.4886 -0.61695
vn 0.87251 0.4886 0
vn -0.61695 0.4886 -0.61695
vn 0 0.4886 -0.87251
vn -0.87251 0.4886 0
vn -0.61695 0.4886 0.61695
vt 0.46875 0.05286
vt 0.46875 0.025
vt 0.46875 0.20522
vt 0.46875 0.225
vt 0.46875 0.14546
vt 0.71875 0.475
vt 0.71875 0.275
vt 0.71875 0.425
vt 0.71875 0.325
usemtl colormap
f 3/2/3 2/1/2 1/1/1
f 2/1/2 3/2/3 4/2/4
f 5/2/5 2/1/2 4/2/4
f 2/1/2 5/2/5 6/1/6
f 8/2/7 3/2/7 7/2/7
f 3/2/7 8/2/7 9/2/7
f 3/2/7 9/2/7 4/2/7
f 4/2/7 9/2/7 10/2/7
f 4/2/7 10/2/7 5/2/7
f 5/2/7 10/2/7 11/2/7
f 14/4/10 13/3/9 12/3/8
f 13/3/9 14/4/10 15/4/11
f 17/4/13 12/3/8 16/3/12
f 12/3/8 17/4/13 14/4/10
f 19/1/16 8/2/15 18/1/14
f 8/2/15 19/1/16 9/2/17
f 22/3/20 21/4/19 20/4/18
f 21/4/19 22/3/20 23/3/21
f 26/3/24 25/4/23 24/3/22
f 25/4/23 26/3/24 27/4/25
f 28/4/26 13/3/9 15/4/11
f 13/3/9 28/4/26 29/3/27
f 11/2/28 6/1/6 5/2/5
f 6/1/6 11/2/28 30/1/29
f 31/1/30 9/2/17 19/1/16
f 9/2/17 31/1/30 10/2/31
f 31/1/30 11/2/28 10/2/31
f 11/2/28 31/1/30 30/1/29
f 21/4/19 29/3/27 28/4/26
f 29/3/27 21/4/19 23/3/21
f 18/1/14 7/2/33 32/1/32
f 7/2/33 18/1/14 8/2/15
f 22/3/20 27/4/25 26/3/24
f 27/4/25 22/3/20 20/4/18
f 7/2/33 1/1/1 32/1/32
f 1/1/1 7/2/33 3/2/3
f 24/3/22 17/4/13 16/3/12
f 17/4/13 24/3/22 25/4/23
f 25/4/23 14/4/10 17/4/13
f 14/4/10 25/4/23 27/4/25
f 14/4/10 27/4/25 15/4/11
f 15/4/11 27/4/25 20/4/18
f 15/4/11 20/4/18 28/4/26
f 28/4/26 20/4/18 21/4/19
f 22/3/20 34/5/35 33/5/34
f 34/5/35 22/3/20 26/3/24
f 12/3/8 36/5/37 35/5/36
f 36/5/37 12/3/8 13/3/9
f 37/5/38 29/3/27 23/3/21
f 29/3/27 37/5/38 38/5/39
f 26/3/24 39/5/40 34/5/35
f 39/5/40 26/3/24 24/3/22
f 13/3/9 38/5/39 36/5/37
f 38/5/39 13/3/9 29/3/27
f 12/3/8 40/5/41 16/3/12
f 40/5/41 12/3/8 35/5/36
f 37/5/38 22/3/20 33/5/34
f 22/3/20 37/5/38 23/3/21
f 24/3/22 40/5/41 39/5/40
f 40/5/41 24/3/22 16/3/12
f 35/5/36 19/1/16 18/1/14
f 19/1/16 35/5/36 36/5/37
f 33/5/34 2/1/2 6/1/6
f 2/1/2 33/5/34 34/5/35
f 36/5/37 31/1/30 19/1/16
f 31/1/30 36/5/37 38/5/39
f 6/1/6 37/5/38 33/5/34
f 37/5/38 6/1/6 30/1/29
f 40/5/41 1/1/1 39/5/40
f 1/1/1 40/5/41 32/1/32
f 34/5/35 1/1/1 2/1/2
f 1/1/1 34/5/35 39/5/40
f 35/5/36 32/1/32 40/5/41
f 32/1/32 35/5/36 18/1/14
f 31/1/30 37/5/38 30/1/29
f 37/5/38 31/1/30 38/5/39
f 43/2/3 42/1/2 41/1/1
f 42/1/2 43/2/3 44/2/4
f 45/2/5 42/1/2 44/2/4
f 42/1/2 45/2/5 46/1/6
f 48/2/7 43/2/7 47/2/7
f 43/2/7 48/2/7 49/2/7
f 43/2/7 49/2/7 44/2/7
f 44/2/7 49/2/7 50/2/7
f 44/2/7 50/2/7 45/2/7
f 45/2/7 50/2/7 51/2/7
f 54/4/10 53/3/9 52/3/8
f 53/3/9 54/4/10 55/4/11
f 57/4/13 52/3/8 56/3/12
f 52/3/8 57/4/13 54/4/10
f 59/1/16 48/2/15 58/1/14
f 48/2/15 59/1/16 49/2/17
f 62/3/20 61/4/19 60/4/18
f 61/4/19 62/3/20 63/3/21
f 66/3/24 65/4/23 64/3/22
f 65/4/23 66/3/24 67/4/25
f 68/4/26 53/3/9 55/4/11
f 53/3/9 68/4/26 69/3/27
f 51/2/28 46/1/6 45/2/5
f 46/1/6 51/2/28 70/1/29
f 71/1/30 49/2/17 59/1/16
f 49/2/17 71/1/30 50/2/31
f 71/1/30 51/2/28 50/2/31
f 51/2/28 71/1/30 70/1/29
f 61/4/19 69/3/27 68/4/26
f 69/3/27 61/4/19 63/3/21
f 58/1/14 47/2/33 72/1/32
f 47/2/33 58/1/14 48/2/15
f 62/3/20 67/4/25 66/3/24
f 67/4/25 62/3/20 60/4/18
f 47/2/33 41/1/1 72/1/32
f 41/1/1 47/2/33 43/2/3
f 64/3/22 57/4/13 56/3/12
f 57/4/13 64/3/22 65/4/23
f 65/4/23 54/4/10 57/4/13
f 54/4/10 65/4/23 67/4/25
f 54/4/10 67/4/25 55/4/11
f 55/4/11 67/4/25 60/4/18
f 55/4/11 60/4/18 68/4/26
f 68/4/26 60/4/18 61/4/19
f 62/3/20 74/5/35 73/5/34
f 74/5/35 62/3/20 66/3/24
f 52/3/8 76/5/37 75/5/36
f 76/5/37 52/3/8 53/3/9
f 77/5/38 69/3/27 63/3/21
f 69/3/27 77/5/38 78/5/39
f 66/3/24 79/5/40 74/5/35
f 79/5/40 66/3/24 64/3/22
f 53/3/9 78/5/39 76/5/37
f 78/5/39 53/3/9 69/3/27
f 52/3/8 80/5/41 56/3/12
f 80/5/41 52/3/8 75/5/36
f 77/5/38 62/3/20 73/5/34
f 62/3/20 77/5/38 63/3/21
f 64/3/22 80/5/41 79/5/40
f 80/5/41 64/3/22 56/3/12
f 75/5/36 59/1/16 58/1/14
f 59/1/16 75/5/36 76/5/37
f 73/5/34 42/1/2 46/1/6
f 42/1/2 73/5/34 74/5/35
f 76/5/37 71/1/30 59/1/16
f 71/1/30 76/5/37 78/5/39
f 46/1/6 77/5/38 73/5/34
f 77/5/38 46/1/6 70/1/29
f 80/5/41 41/1/1 79/5/40
f 41/1/1 80/5/41 72/1/32
f 74/5/35 41/1/1 42/1/2
f 41/1/1 74/5/35 79/5/40
f 75/5/36 72/1/32 80/5/41
f 72/1/32 75/5/36 58/1/14
f 71/1/30 77/5/38 70/1/29
f 77/5/38 71/1/30 78/5/39
f 83/2/3 82/1/2 81/1/1
f 82/1/2 83/2/3 84/2/4
f 85/2/5 82/1/2 84/2/4
f 82/1/2 85/2/5 86/1/6
f 88/2/7 83/2/7 87/2/7
f 83/2/7 88/2/7 89/2/7
f 83/2/7 89/2/7 84/2/7
f 84/2/7 89/2/7 90/2/7
f 84/2/7 90/2/7 85/2/7
f 85/2/7 90/2/7 91/2/7
f 94/4/10 93/3/9 92/3/8
f 93/3/9 94/4/10 95/4/11
f 97/4/13 92/3/8 96/3/12
f 92/3/8 97/4/13 94/4/10
f 99/1/16 88/2/15 98/1/14
f 88/2/15 99/1/16 89/2/17
f 102/3/20 101/4/19 100/4/18
f 101/4/19 102/3/20 103/3/21
f 106/3/24 105/4/23 104/3/22
f 105/4/23 106/3/24 107/4/25
f 108/4/26 93/3/9 95/4/11
f 93/3/9 108/4/26 109/3/27
f 91/2/28 86/1/6 85/2/5
f 86/1/6 91/2/28 110/1/29
f 111/1/30 89/2/17 99/1/16
f 89/2/17 111/1/30 90/2/31
f 111/1/30 91/2/28 90/2/31
f 91/2/28 111/1/30 110/1/29
f 101/4/19 109/3/27 108/4/26
f 109/3/27 101/4/19 103/3/21
f 98/1/14 87/2/33 112/1/32
f 87/2/33 98/1/14 88/2/15
f 102/3/20 107/4/25 106/3/24
f 107/4/25 102/3/20 100/4/18
f 87/2/33 81/1/1 112/1/32
f 81/1/1 87/2/33 83/2/3
f 104/3/22 97/4/13 96/3/12
f 97/4/13 104/3/22 105/4/23
f 105/4/23 94/4/10 97/4/13
f 94/4/10 105/4/23 107/4/25
f 94/4/10 107/4/25 95/4/11
f 95/4/11 107/4/25 100/4/18
f 95/4/11 100/4/18 108/4/26
f 108/4/26 100/4/18 101/4/19
f 102/3/20 114/5/35 113/5/34
f 114/5/35 102/3/20 106/3/24
f 92/3/8 116/5/37 115/5/36
f 116/5/37 92/3/8 93/3/9
f 117/5/38 109/3/27 103/3/21
f 109/3/27 117/5/38 118/5/39
f 106/3/24 119/5/40 114/5/35
f 119/5/40 106/3/24 104/3/22
f 93/3/9 118/5/39 116/5/37
f 118/5/39 93/3/9 109/3/27
f 92/3/8 120/5/41 96/3/12
f 120/5/41 92/3/8 115/5/36
f 117/5/38 102/3/20 113/5/34
f 102/3/20 117/5/38 103/3/21
f 104/3/22 120/5/41 119/5/40
f 120/5/41 104/3/22 96/3/12
f 115/5/36 99/1/16 98/1/14
f 99/1/16 115/5/36 116/5/37
f 113/5/34 82/1/2 86/1/6
f 82/1/2 113/5/34 114/5/35
f 116/5/37 111/1/30 99/1/16
f 111/1/30 116/5/37 118/5/39
f 86/1/6 117/5/38 113/5/34
f 117/5/38 86/1/6 110/1/29
f 120/5/41 81/1/1 119/5/40
f 81/1/1 120/5/41 112/1/32
f 114/5/35 81/1/1 82/1/2
f 81/1/1 114/5/35 119/5/40
f 115/5/36 112/1/32 120/5/41
f 112/1/32 115/5/36 98/1/14
f 111/1/30 117/5/38 110/1/29
f 117/5/38 111/1/30 118/5/39
f 123/2/3 122/1/2 121/1/1
f 122/1/2 123/2/3 124/2/4
f 125/2/5 122/1/2 124/2/4
f 122/1/2 125/2/5 126/1/6
f 128/2/7 123/2/7 127/2/7
f 123/2/7 128/2/7 129/2/7
f 123/2/7 129/2/7 124/2/7
f 124/2/7 129/2/7 130/2/7
f 124/2/7 130/2/7 125/2/7
f 125/2/7 130/2/7 131/2/7
f 134/4/10 133/3/9 132/3/8
f 133/3/9 134/4/10 135/4/11
f 137/4/13 132/3/8 136/3/12
f 132/3/8 137/4/13 134/4/10
f 139/1/16 128/2/15 138/1/14
f 128/2/15 139/1/16 129/2/17
f 142/3/20 141/4/19 140/4/18
f 141/4/19 142/3/20 143/3/21
f 146/3/24 145/4/23 144/3/22
f 145/4/23 146/3/24 147/4/25
f 148/4/26 133/3/9 135/4/11
f 133/3/9 148/4/26 149/3/27
f 131/2/28 126/1/6 125/2/5
f 126/1/6 131/2/28 150/1/29
f 151/1/30 129/2/17 139/1/16
f 129/2/17 151/1/30 130/2/31
f 151/1/30 131/2/28 130/2/31
f 131/2/28 151/1/30 150/1/29
f 141/4/19 149/3/27 148/4/26
f 149/3/27 141/4/19 143/3/21
f 138/1/14 127/2/33 152/1/32
f 127/2/33 138/1/14 128/2/15
f 142/3/20 147/4/25 146/3/24
f 147/4/25 142/3/20 140/4/18
f 127/2/33 121/1/1 152/1/32
f 121/1/1 127/2/33 123/2/3
f 144/3/22 137/4/13 136/3/12
f 137/4/13 144/3/22 145/4/23
f 145/4/23 134/4/10 137/4/13
f 134/4/10 145/4/23 147/4/25
f 134/4/10 147/4/25 135/4/11
f 135/4/11 147/4/25 140/4/18
f 135/4/11 140/4/18 148/4/26
f 148/4/26 140/4/18 141/4/19
f 142/3/20 154/5/35 153/5/34
f 154/5/35 142/3/20 146/3/24
f 132/3/8 156/5/37 155/5/36
f 156/5/37 132/3/8 133/3/9
f 157/5/38 149/3/27 143/3/21
f 149/3/27 157/5/38 158/5/39
f 146/3/24 159/5/40 154/5/35
f 159/5/40 146/3/24 144/3/22
f 133/3/9 158/5/39 156/5/37
f 158/5/39 133/3/9 149/3/27
f 132/3/8 160/5/41 136/3/12
f 160/5/41 132/3/8 155/5/36
f 157/5/38 142/3/20 153/5/34
f 142/3/20 157/5/38 143/3/21
f 144/3/22 160/5/41 159/5/40
f 160/5/41 144/3/22 136/3/12
f 155/5/36 139/1/16 138/1/14
f 139/1/16 155/5/36 156/5/37
f 153/5/34 122/1/2 126/1/6
f 122/1/2 153/5/34 154/5/35
f 156/5/37 151/1/30 139/1/16
f 151/1/30 156/5/37 158/5/39
f 126/1/6 157/5/38 153/5/34
f 157/5/38 126/1/6 150/1/29
f 160/5/41 121/1/1 159/5/40
f 121/1/1 160/5/41 152/1/32
f 154/5/35 121/1/1 122/1/2
f 121/1/1 154/5/35 159/5/40
f 155/5/36 152/1/32 160/5/41
f 152/1/32 155/5/36 138/1/14
f 151/1/30 157/5/38 150/1/29
f 157/5/38 151/1/30 158/5/39
f 163/6/42 162/6/42 161/6/42
f 162/6/42 163/6/42 164/6/42
f 162/6/42 164/6/42 165/6/42
f 165/6/42 164/6/42 166/6/42
f 165/6/42 166/6/42 167/6/42
f 167/6/42 166/6/42 168/6/42
f 166/6/43 170/7/44 169/7/43
f 170/7/44 166/6/43 164/6/44
f 165/6/45 172/7/46 171/7/45
f 172/7/46 165/6/45 167/6/46
f 169/7/43 168/6/47 166/6/43
f 168/6/47 169/7/43 173/7/47
f 161/6/49 174/7/48 163/6/48
f 174/7/48 161/6/49 175/7/49
f 162/6/50 175/7/49 161/6/49
f 175/7/49 162/6/50 176/7/50
f 173/7/47 167/6/46 168/6/47
f 167/6/46 173/7/47 172/7/46
f 162/6/50 171/7/45 176/7/50
f 171/7/45 162/6/50 165/6/45
f 164/6/44 174/7/48 170/7/44
f 174/7/48 164/6/44 163/6/48
f 179/8/53 178/8/52 177/8/51
f 178/8/52 179/8/53 180/8/54
f 178/8/52 180/8/54 181/8/55
f 181/8/55 180/8/54 182/8/56
f 181/8/55 182/8/56 183/8/57
f 183/8/57 182/8/56 184/8/58
f 178/8/52 186/9/60 185/9/59
f 186/9/60 178/8/52 181/8/55
f 179/8/53 188/9/62 187/9/61
f 188/9/62 179/8/53 177/8/51
f 182/8/56 190/9/64 189/9/63
f 190/9/64 182/8/56 180/8/54
f 191/9/65 182/8/56 189/9/63
f 182/8/56 191/9/65 184/8/58
f 191/9/65 183/8/57 184/8/58
f 183/8/57 191/9/65 192/9/66
f 180/8/54 187/9/61 190/9/64
f 187/9/61 180/8/54 179/8/53
f 178/8/52 188/9/62 177/8/51
f 188/9/62 178/8/52 185/9/59
f 181/8/55 192/9/66 186/9/60
f 192/9/66 181/8/55 183/8/57
g pumpkin-tall
usemtl colormap
f 3/2/3 2/1/2 1/1/1
f 2/1/2 3/2/3 4/2/4
f 5/2/5 2/1/2 4/2/4
f 2/1/2 5/2/5 6/1/6
f 8/2/7 3/2/7 7/2/7
f 3/2/7 8/2/7 9/2/7
f 3/2/7 9/2/7 4/2/7
f 4/2/7 9/2/7 10/2/7
f 4/2/7 10/2/7 5/2/7
f 5/2/7 10/2/7 11/2/7
f 14/4/10 13/3/9 12/3/8
f 13/3/9 14/4/10 15/4/11
f 17/4/13 12/3/8 16/3/12
f 12/3/8 17/4/13 14/4/10
f 19/1/16 8/2/15 18/1/14
f 8/2/15 19/1/16 9/2/17
f 22/3/20 21/4/19 20/4/18
f 21/4/19 22/3/20 23/3/21
f 26/3/24 25/4/23 24/3/22
f 25/4/23 26/3/24 27/4/25
f 28/4/26 13/3/9 15/4/11
f 13/3/9 28/4/26 29/3/27
f 11/2/28 6/1/6 5/2/5
f 6/1/6 11/2/28 30/1/29
f 31/1/30 9/2/17 19/1/16
f 9/2/17 31/1/30 10/2/31
f 31/1/30 11/2/28 10/2/31
f 11/2/28 31/1/30 30/1/29
f 21/4/19 29/3/27 28/4/26
f 29/3/27 21/4/19 23/3/21
f 18/1/14 7/2/33 32/1/32
f 7/2/33 18/1/14 8/2/15
f 22/3/20 27/4/25 26/3/24
f 27/4/25 22/3/20 20/4/18
f 7/2/33 1/1/1 32/1/32
f 1/1/1 7/2/33 3/2/3
f 24/3/22 17/4/13 16/3/12
f 17/4/13 24/3/22 25/4/23
f 25/4/23 14/4/10 17/4/13
f 14/4/10 25/4/23 27/4/25
f 14/4/10 27/4/25 15/4/11
f 15/4/11 27/4/25 20/4/18
f 15/4/11 20/4/18 28/4/26
f 28/4/26 20/4/18 21/4/19
f 22/3/20 34/5/35 33/5/34
f 34/5/35 22/3/20 26/3/24
f 12/3/8 36/5/37 35/5/36
f 36/5/37 12/3/8 13/3/9
f 37/5/38 29/3/27 23/3/21
f 29/3/27 37/5/38 38/5/39
f 26/3/24 39/5/40 34/5/35
f 39/5/40 26/3/24 24/3/22
f 13/3/9 38/5/39 36/5/37
f 38/5/39 13/3/9 29/3/27
f 12/3/8 40/5/41 16/3/12
f 40/5/41 12/3/8 35/5/36
f 37/5/38 22/3/20 33/5/34
f 22/3/20 37/5/38 23/3/21
f 24/3/22 40/5/41 39/5/40
f 40/5/41 24/3/22 16/3/12
f 35/5/36 19/1/16 18/1/14
f 19/1/16 35/5/36 36/5/37
f 33/5/34 2/1/2 6/1/6
f 2/1/2 33/5/34 34/5/35
f 36/5/37 31/1/30 19/1/16
f 31/1/30 36/5/37 38/5/39
f 6/1/6 37/5/38 33/5/34
f 37/5/38 6/1/6 30/1/29
f 40/5/41 1/1/1 39/5/40
f 1/1/1 40/5/41 32/1/32
f 34/5/35 1/1/1 2/1/2
f 1/1/1 34/5/35 39/5/40
f 35/5/36 32/1/32 40/5/41
f 32/1/32 35/5/36 18/1/14
f 31/1/30 37/5/38 30/1/29
f 37/5/38 31/1/30 38/5/39
f 43/2/3 42/1/2 41/1/1
f 42/1/2 43/2/3 44/2/4
f 45/2/5 42/1/2 44/2/4
f 42/1/2 45/2/5 46/1/6
f 48/2/7 43/2/7 47/2/7
f 43/2/7 48/2/7 49/2/7
f 43/2/7 49/2/7 44/2/7
f 44/2/7 49/2/7 50/2/7
f 44/2/7 50/2/7 45/2/7
f 45/2/7 50/2/7 51/2/7
f 54/4/10 53/3/9 52/3/8
f 53/3/9 54/4/10 55/4/11
f 57/4/13 52/3/8 56/3/12
f 52/3/8 57/4/13 54/4/10
f 59/1/16 48/2/15 58/1/14
f 48/2/15 59/1/16 49/2/17
f 62/3/20 61/4/19 60/4/18
f 61/4/19 62/3/20 63/3/21
f 66/3/24 65/4/23 64/3/22
f 65/4/23 66/3/24 67/4/25
f 68/4/26 53/3/9 55/4/11
f 53/3/9 68/4/26 69/3/27
f 51/2/28 46/1/6 45/2/5
f 46/1/6 51/2/28 70/1/29
f 71/1/30 49/2/17 59/1/16
f 49/2/17 71/1/30 50/2/31
f 71/1/30 51/2/28 50/2/31
f 51/2/28 71/1/30 70/1/29
f 61/4/19 69/3/27 68/4/26
f 69/3/27 61/4/19 63/3/21
f 58/1/14 47/2/33 72/1/32
f 47/2/33 58/1/14 48/2/15
f 62/3/20 67/4/25 66/3/24
f 67/4/25 62/3/20 60/4/18
f 47/2/33 41/1/1 72/1/32
f 41/1/1 47/2/33 43/2/3
f 64/3/22 57/4/13 56/3/12
f 57/4/13 64/3/22 65/4/23
f 65/4/23 54/4/10 57/4/13
f 54/4/10 65/4/23 67/4/25
f 54/4/10 67/4/25 55/4/11
f 55/4/11 67/4/25 60/4/18
f 55/4/11 60/4/18 68/4/26
f 68/4/26 60/4/18 61/4/19
f 62/3/20 74/5/35 73/5/34
f 74/5/35 62/3/20 66/3/24
f 52/3/8 76/5/37 75/5/36
f 76/5/37 52/3/8 53/3/9
f 77/5/38 69/3/27 63/3/21
f 69/3/27 77/5/38 78/5/39
f 66/3/24 79/5/40 74/5/35
f 79/5/40 66/3/24 64/3/22
f 53/3/9 78/5/39 76/5/37
f 78/5/39 53/3/9 69/3/27
f 52/3/8 80/5/41 56/3/12
f 80/5/41 52/3/8 75/5/36
f 77/5/38 62/3/20 73/5/34
f 62/3/20 77/5/38 63/3/21
f 64/3/22 80/5/41 79/5/40
f 80/5/41 64/3/22 56/3/12
f 75/5/36 59/1/16 58/1/14
f 59/1/16 75/5/36 76/5/37
f 73/5/34 42/1/2 46/1/6
f 42/1/2 73/5/34 74/5/35
f 76/5/37 71/1/30 59/1/16
f 71/1/30 76/5/37 78/5/39
f 46/1/6 77/5/38 73/5/34
f 77/5/38 46/1/6 70/1/29
f 80/5/41 41/1/1 79/5/40
f 41/1/1 80/5/41 72/1/32
f 74/5/35 41/1/1 42/1/2
f 41/1/1 74/5/35 79/5/40
f 75/5/36 72/1/32 80/5/41
f 72/1/32 75/5/36 58/1/14
f 71/1/30 77/5/38 70/1/29
f 77/5/38 71/1/30 78/5/39
f 83/2/3 82/1/2 81/1/1
f 82/1/2 83/2/3 84/2/4
f 85/2/5 82/1/2 84/2/4
f 82/1/2 85/2/5 86/1/6
f 88/2/7 83/2/7 87/2/7
f 83/2/7 88/2/7 89/2/7
f 83/2/7 89/2/7 84/2/7
f 84/2/7 89/2/7 90/2/7
f 84/2/7 90/2/7 85/2/7
f 85/2/7 90/2/7 91/2/7
f 94/4/10 93/3/9 92/3/8
f 93/3/9 94/4/10 95/4/11
f 97/4/13 92/3/8 96/3/12
f 92/3/8 97/4/13 94/4/10
f 99/1/16 88/2/15 98/1/14
f 88/2/15 99/1/16 89/2/17
f 102/3/20 101/4/19 100/4/18
f 101/4/19 102/3/20 103/3/21
f 106/3/24 105/4/23 104/3/22
f 105/4/23 106/3/24 107/4/25
f 108/4/26 93/3/9 95/4/11
f 93/3/9 108/4/26 109/3/27
f 91/2/28 86/1/6 85/2/5
f 86/1/6 91/2/28 110/1/29
f 111/1/30 89/2/17 99/1/16
f 89/2/17 111/1/30 90/2/31
f 111/1/30 91/2/28 90/2/31
f 91/2/28 111/1/30 110/1/29
f 101/4/19 109/3/27 108/4/26
f 109/3/27 101/4/19 103/3/21
f 98/1/14 87/2/33 112/1/32
f 87/2/33 98/1/14 88/2/15
f 102/3/20 107/4/25 106/3/24
f 107/4/25 102/3/20 100/4/18
f 87/2/33 81/1/1 112/1/32
f 81/1/1 87/2/33 83/2/3
f 104/3/22 97/4/13 96/3/12
f 97/4/13 104/3/22 105/4/23
f 105/4/23 94/4/10 97/4/13
f 94/4/10 105/4/23 107/4/25
f 94/4/10 107/4/25 95/4/11
f 95/4/11 107/4/25 100/4/18
f 95/4/11 100/4/18 108/4/26
f 108/4/26 100/4/18 101/4/19
f 102/3/20 114/5/35 113/5/34
f 114/5/35 102/3/20 106/3/24
f 92/3/8 116/5/37 115/5/36
f 116/5/37 92/3/8 93/3/9
f 117/5/38 109/3/27 103/3/21
f 109/3/27 117/5/38 118/5/39
f 106/3/24 119/5/40 114/5/35
f 119/5/40 106/3/24 104/3/22
f 93/3/9 118/5/39 116/5/37
f 118/5/39 93/3/9 109/3/27
f 92/3/8 120/5/41 96/3/12
f 120/5/41 92/3/8 115/5/36
f 117/5/38 102/3/20 113/5/34
f 102/3/20 117/5/38 103/3/21
f 104/3/22 120/5/41 119/5/40
f 120/5/41 104/3/22 96/3/12
f 115/5/36 99/1/16 98/1/14
f 99/1/16 115/5/36 116/5/37
f 113/5/34 82/1/2 86/1/6
f 82/1/2 113/5/34 114/5/35
f 116/5/37 111/1/30 99/1/16
f 111/1/30 116/5/37 118/5/39
f 86/1/6 117/5/38 113/5/34
f 117/5/38 86/1/6 110/1/29
f 120/5/41 81/1/1 119/5/40
f 81/1/1 120/5/41 112/1/32
f 114/5/35 81/1/1 82/1/2
f 81/1/1 114/5/35 119/5/40
f 115/5/36 112/1/32 120/5/41
f 112/1/32 115/5/36 98/1/14
f 111/1/30 117/5/38 110/1/29
f 117/5/38 111/1/30 118/5/39
f 123/2/3 122/1/2 121/1/1
f 122/1/2 123/2/3 124/2/4
f 125/2/5 122/1/2 124/2/4
f 122/1/2 125/2/5 126/1/6
f 128/2/7 123/2/7 127/2/7
f 123/2/7 128/2/7 129/2/7
f 123/2/7 129/2/7 124/2/7
f 124/2/7 129/2/7 130/2/7
f 124/2/7 130/2/7 125/2/7
f 125/2/7 130/2/7 131/2/7
f 134/4/10 133/3/9 132/3/8
f 133/3/9 134/4/10 135/4/11
f 137/4/13 132/3/8 136/3/12
f 132/3/8 137/4/13 134/4/10
f 139/1/16 128/2/15 138/1/14
f 128/2/15 139/1/16 129/2/17
f 142/3/20 141/4/19 140/4/18
f 141/4/19 142/3/20 143/3/21
f 146/3/24 145/4/23 144/3/22
f 145/4/23 146/3/24 147/4/25
f 148/4/26 133/3/9 135/4/11
f 133/3/9 148/4/26 149/3/27
f 131/2/28 126/1/6 125/2/5
f 126/1/6 131/2/28 150/1/29
f 151/1/30 129/2/17 139/1/16
f 129/2/17 151/1/30 130/2/31
f 151/1/30 131/2/28 130/2/31
f 131/2/28 151/1/30 150/1/29
f 141/4/19 149/3/27 148/4/26
f 149/3/27 141/4/19 143/3/21
f 138/1/14 127/2/33 152/1/32
f 127/2/33 138/1/14 128/2/15
f 142/3/20 147/4/25 146/3/24
f 147/4/25 142/3/20 140/4/18
f 127/2/33 121/1/1 152/1/32
f 121/1/1 127/2/33 123/2/3
f 144/3/22 137/4/13 136/3/12
f 137/4/13 144/3/22 145/4/23
f 145/4/23 134/4/10 137/4/13
f 134/4/10 145/4/23 147/4/25
f 134/4/10 147/4/25 135/4/11
f 135/4/11 147/4/25 140/4/18
f 135/4/11 140/4/18 148/4/26
f 148/4/26 140/4/18 141/4/19
f 142/3/20 154/5/35 153/5/34
f 154/5/35 142/3/20 146/3/24
f 132/3/8 156/5/37 155/5/36
f 156/5/37 132/3/8 133/3/9
f 157/5/38 149/3/27 143/3/21
f 149/3/27 157/5/38 158/5/39
f 146/3/24 159/5/40 154/5/35
f 159/5/40 146/3/24 144/3/22
f 133/3/9 158/5/39 156/5/37
f 158/5/39 133/3/9 149/3/27
f 132/3/8 160/5/41 136/3/12
f 160/5/41 132/3/8 155/5/36
f 157/5/38 142/3/20 153/5/34
f 142/3/20 157/5/38 143/3/21
f 144/3/22 160/5/41 159/5/40
f 160/5/41 144/3/22 136/3/12
f 155/5/36 139/1/16 138/1/14
f 139/1/16 155/5/36 156/5/37
f 153/5/34 122/1/2 126/1/6
f 122/1/2 153/5/34 154/5/35
f 156/5/37 151/1/30 139/1/16
f 151/1/30 156/5/37 158/5/39
f 126/1/6 157/5/38 153/5/34
f 157/5/38 126/1/6 150/1/29
f 160/5/41 121/1/1 159/5/40
f 121/1/1 160/5/41 152/1/32
f 154/5/35 121/1/1 122/1/2
f 121/1/1 154/5/35 159/5/40
f 155/5/36 152/1/32 160/5/41
f 152/1/32 155/5/36 138/1/14
f 151/1/30 157/5/38 150/1/29
f 157/5/38 151/1/30 158/5/39
f 163/6/42 162/6/42 161/6/42
f 162/6/42 163/6/42 164/6/42
f 162/6/42 164/6/42 165/6/42
f 165/6/42 164/6/42 166/6/42
f 165/6/42 166/6/42 167/6/42
f 167/6/42 166/6/42 168/6/42
f 166/6/43 170/7/44 169/7/43
f 170/7/44 166/6/43 164/6/44
f 165/6/45 172/7/46 171/7/45
f 172/7/46 165/6/45 167/6/46
f 169/7/43 168/6/47 166/6/43
f 168/6/47 169/7/43 173/7/47
f 161/6/49 174/7/48 163/6/48
f 174/7/48 161/6/49 175/7/49
f 162/6/50 175/7/49 161/6/49
f 175/7/49 162/6/50 176/7/50
f 173/7/47 167/6/46 168/6/47
f 167/6/46 173/7/47 172/7/46
f 162/6/50 171/7/45 176/7/50
f 171/7/45 162/6/50 165/6/45
f 164/6/44 174/7/48 170/7/44
f 174/7/48 164/6/44 163/6/48
f 179/8/53 178/8/52 177/8/51
f 178/8/52 179/8/53 180/8/54
f 178/8/52 180/8/54 181/8/55
f 181/8/55 180/8/54 182/8/56
f 181/8/55 182/8/56 183/8/57
f 183/8/57 182/8/56 184/8/58
f 178/8/52 186/9/60 185/9/59
f 186/9/60 178/8/52 181/8/55
f 179/8/53 188/9/62 187/9/61
f 188/9/62 179/8/53 177/8/51
f 182/8/56 190/9/64 189/9/63
f 190/9/64 182/8/56 180/8/54
f 191/9/65 182/8/56 189/9/63
f 182/8/56 191/9/65 184/8/58
f 191/9/65 183/8/57 184/8/58
f 183/8/57 191/9/65 192/9/66
f 180/8/54 187/9/61 190/9/64
f 187/9/61 180/8/54 179/8/53
f 178/8/52 188/9/62 177/8/51
f 188/9/62 178/8/52 185/9/59
f 181/8/55 192/9/66 186/9/60
f 192/9/66 181/8/55 183/8/57
