mtllib wheel-tractor-front.mtl
g wheel-tractor-front
v 0.09488 -0.2332 0.13464
v -0.08464 -0.2332 0.13464
v 0.09488 -0.19041 0.19041
v -0.08464 -0.19041 0.19041
v 0.09488 -0.19041 -0.19041
v 0.18464 -0.16185 -0.16185
v 0.09488 -0.13464 -0.2332
v 0.18464 -0.11444 -0.19822
v -0.08464 -0.19041 -0.19041
v -0.08464 -0.13464 -0.2332
v 0.09488 -0.13464 0.2332
v -0.08464 -0.13464 0.2332
v 0.09488 -0.069695 0.2601
v -0.08464 -0.069695 0.2601
v 0.18464 0.19822 0.11444
v 0.18464 0.16185 0.16185
v 0.09488 0.2332 0.13464
v 0.09488 0.19041 0.19041
v 0.18464 -0.19822 -0.11444
v 0.09488 -0.2332 -0.13464
v 0.18464 -0.22109 -0.059241
v 0.09488 -0.2601 -0.069695
v 0.18464 0 -0.22889
v 0.18464 -0.059241 -0.22109
v 0.18464 0.059241 -0.22109
v 0.18464 0.11444 -0.19822
v 0.18464 0.16185 -0.16185
v 0.18464 1.3987e-15 -0.148
v 0.18464 0.038304 -0.14295
v 0.18464 -0.038304 -0.14295
v 0.18464 0.19822 -0.11444
v 0.18464 0.073998 -0.12817
v 0.18464 0.10465 -0.10465
v 0.18464 -0.073998 -0.12817
v 0.18464 -0.10465 -0.10465
v 0.18464 0.22109 -0.059241
v 0.18464 0.12817 -0.073998
v 0.18464 0.14295 -0.038304
v 0.18464 0.22889 4.3315e-15
v 0.18464 0.148 4.3315e-15
v 0.18464 -0.12817 -0.073998
v 0.18464 -0.14295 -0.038304
v 0.18464 0.22109 0.059241
v 0.18464 0.14295 0.038304
v 0.18464 0.12817 0.073998
v 0.18464 -0.22889 4.3315e-15
v 0.18464 -0.148 4.3315e-15
v 0.18464 -0.14295 0.038304
v 0.18464 -0.22109 0.059241
v 0.18464 -0.12817 0.073998
v 0.18464 0.10465 0.10465
v 0.18464 0.073998 0.12817
v 0.18464 -0.19822 0.11444
v 0.18464 -0.10465 0.10465
v 0.18464 -0.073998 0.12817
v 0.18464 -0.16185 0.16185
v 0.18464 0.038304 0.14295
v 0.18464 -0.038304 0.14295
v 0.18464 1.5341e-15 0.148
v 0.18464 0.11444 0.19822
v 0.18464 -0.11444 0.19822
v 0.18464 0.059241 0.22109
v 0.18464 -0.059241 0.22109
v 0.18464 4.5119e-17 0.22889
v 0.09488 -0.2601 0.069695
v 0.09488 0.13464 0.2332
v -0.08464 0.13464 0.2332
v -0.08464 0.19041 0.19041
v 0.09488 0.2332 -0.13464
v 0.09488 0.2601 -0.069695
v -0.08464 0.2332 0.13464
v -0.08464 0.2332 -0.13464
v -0.08464 0.2601 -0.069695
v 0.09488 0.26928 2.1657e-15
v -0.08464 0.26928 -2.1657e-15
v 0.09488 4.5119e-17 0.26928
v -0.08464 4.5119e-17 0.26928
v 0.09488 0.069695 0.2601
v -0.08464 0.069695 0.2601
v -0.08464 -0.069695 -0.2601
v 0.09488 -0.069695 -0.2601
v -0.08464 0 -0.26928
v 0.09488 0 -0.26928
v 0.09488 0.069695 -0.2601
v 0.09488 0.13464 -0.2332
v 0.09488 0.2601 0.069695
v 0.09488 0.19041 -0.19041
v -0.08464 -0.2332 -0.13464
v -0.08464 -0.2601 -0.069695
v -0.08464 0.19041 -0.19041
v -0.08464 0.2601 0.069695
v 0.09488 -0.26928 2.1657e-15
v -0.08464 -0.26928 -2.1657e-15
v -0.08464 -0.2601 0.069695
v -0.08464 0.069695 -0.2601
v -0.08464 0.13464 -0.2332
v -0.18464 0 -0.22754
v -0.18464 0.058892 -0.21979
v -0.18464 -0.058892 -0.21979
v -0.18464 0.11377 -0.19706
v -0.18464 -0.11377 -0.19706
v -0.18464 -0.1609 -0.1609
v -0.18464 0.1609 -0.1609
v -0.18464 -0.19706 -0.11377
v -0.18464 0.19706 -0.11377
v -0.18464 -0.21979 -0.058892
v -0.18464 0.21979 -0.058892
v -0.18464 -0.22754 -5.0534e-15
v -0.18464 0.22754 -5.0534e-15
v -0.18464 -0.21979 0.058892
v -0.18464 0.21979 0.058892
v -0.18464 -0.19706 0.11377
v -0.18464 0.19706 0.11377
v -0.18464 -0.1609 0.1609
v -0.18464 0.1609 0.1609
v -0.18464 -0.11377 0.19706
v -0.18464 0.11377 0.19706
v -0.18464 -0.058892 0.21979
v -0.18464 0.058892 0.21979
v -0.18464 4.5119e-17 0.22754
v 0.09488 0.019083 0.07122
v 0.18464 0.025445 0.09496
v 0.09488 0.036866 0.063854
v 0.18464 0.049155 0.085139
v 0.09488 9.9263e-16 -0.073733
v 0.09488 -0.019083 -0.07122
v 0.09488 0.019083 -0.07122
v 0.09488 0.036866 -0.063854
v 0.09488 -0.036866 -0.063854
v 0.09488 0.052137 -0.052137
v 0.09488 -0.052137 -0.052137
v 0.09488 0.063854 -0.036866
v 0.09488 -0.063854 -0.036866
v 0.09488 0.07122 -0.019083
v 0.09488 -0.07122 -0.019083
v 0.09488 0.073733 2.1657e-15
v 0.09488 -0.073733 2.1657e-15
v 0.09488 0.07122 0.019083
v 0.09488 -0.07122 0.019083
v 0.09488 0.063854 0.036866
v 0.09488 -0.063854 0.036866
v 0.09488 0.052137 0.052137
v 0.09488 -0.052137 0.052137
v 0.09488 -0.036866 0.063854
v 0.09488 -0.019083 0.07122
v 0.09488 7.2191e-16 0.073733
v 0.18464 -0.025445 0.09496
v 0.18464 8.1215e-16 0.09831
v 0.18464 -0.069516 -0.069516
v 0.18464 -0.085139 -0.049155
v 0.18464 0.069516 0.069516
v 0.18464 0.085139 0.049155
v 0.18464 -0.09496 -0.025445
v 0.18464 -0.069516 0.069516
v 0.18464 -0.049155 0.085139
v 0.18464 -0.09496 0.025445
v 0.18464 -0.085139 0.049155
v 0.18464 -0.049155 -0.085139
v 0.18464 -0.025445 -0.09496
v 0.18464 1.128e-15 -0.09831
v 0.18464 0.025445 -0.09496
v 0.18464 0.049155 -0.085139
v 0.18464 0.09496 0.025445
v 0.18464 0.09831 4.3315e-15
v 0.18464 -0.09831 4.3315e-15
v 0.18464 0.085139 -0.049155
v 0.18464 0.09496 -0.025445
v 0.18464 0.069516 -0.069516
v 0.18464 0 -0.148
v 0.18464 -0.038304 -0.14295
v 0.18464 0.038304 -0.14295
v 0.18464 0.10465 -0.10465
v 0.18464 -0.10465 -0.10465
v 0.18464 0 -0.09831
v 0.18464 -0.025445 -0.09496
v 0.18464 0.12817 -0.073998
v 0.18464 0.049155 -0.085139
v 0.18464 0.069516 -0.069516
v 0.18464 -0.049155 -0.085139
v 0.18464 0.14295 -0.038304
v 0.18464 0.085139 -0.049155
v 0.18464 0.09496 -0.025445
v 0.18464 0.09831 4.3315e-15
v 0.18464 -0.14295 -0.038304
v 0.18464 -0.085139 -0.049155
v 0.18464 -0.09496 -0.025445
v 0.18464 0.14295 0.038304
v 0.18464 0.09496 0.025445
v 0.18464 0.085139 0.049155
v 0.18464 -0.09496 0.025445
v 0.18464 -0.14295 0.038304
v 0.18464 -0.085139 0.049155
v 0.18464 0.12817 0.073998
v 0.18464 0.069516 0.069516
v 0.18464 0.049155 0.085139
v 0.18464 -0.049155 0.085139
v 0.18464 0.10465 0.10465
v 0.18464 -0.10465 0.10465
v 0.18464 -0.025445 0.09496
v 0.18464 0 0.09831
v 0.18464 0.038304 0.14295
v 0.18464 -0.038304 0.14295
v 0.18464 0 0.148
vn 0 -0.86603 0.5
vn 0 -0.70711 0.70711
vn 0.41036 -0.64483 -0.64483
vn 0.41036 -0.45596 -0.78975
vn 0 -0.70711 -0.70711
vn 0 -0.5 -0.86603
vn 0 -0.5 0.86603
vn 0 -0.25882 0.96593
vn 0.41036 0.78975 0.45596
vn 0.41036 0.64483 0.64483
vn 0.41036 -0.78975 -0.45596
vn 0.41036 -0.88085 -0.23602
vn 1 0 0
vn 0.41036 -0.88085 0.23602
vn 0.41036 -0.78975 0.45596
vn 0 0.5 0.86603
vn 0 0.70711 0.70711
vn 0.41036 0.78975 -0.45596
vn 0.41036 0.88085 -0.23602
vn 0 0.86603 0.5
vn 0 0.86603 -0.5
vn 0 0.96593 -0.25882
vn 0.41036 -0.64483 0.64483
vn 0.41036 -0.45596 0.78975
vn 0 1 0
vn 0 0 1
vn 0 0.25882 0.96593
vn 0 -0.25882 -0.96593
vn 0 0 -1
vn 0.41036 0.23602 -0.88085
vn 0.41036 0.45596 -0.78975
vn 0.41036 0.88085 0.23602
vn 0.41036 0.64483 -0.64483
vn 0.41036 0 0.91192
vn 0.41036 0.23602 0.88085
vn 0 -0.86603 -0.5
vn 0 -0.96593 -0.25882
vn 0.41036 0 -0.91192
vn 0.41036 0.91192 0
vn 0 0.70711 -0.70711
vn 0 0.96593 0.25882
vn 0 -1 0
vn 0 -0.96593 0.25882
vn 0.41036 0.45596 0.78975
vn 0.41036 -0.23602 0.88085
vn 0 0.25882 -0.96593
vn 0 0.5 -0.86603
vn 0.41036 -0.23602 -0.88085
vn 0.41036 -0.91192 0
vn -1 0 0
vn -0.38518 -0.65255 -0.65255
vn -0.38518 -0.7992 -0.46142
vn -0.38518 0 0.92284
vn -0.38518 0.23885 0.8914
vn -0.38518 0 -0.92284
vn -0.38518 0.23885 -0.8914
vn -0.38518 -0.65255 0.65255
vn -0.38518 -0.46142 0.7992
vn -0.38518 0.7992 0.46142
vn -0.38518 0.65255 0.65255
vn -0.38518 -0.23885 -0.8914
vn -0.38518 0.92284 0
vn -0.38518 0.8914 0.23885
vn -0.38518 0.8914 -0.23885
vn -0.38518 0.7992 -0.46142
vn -0.38518 -0.46142 -0.7992
vn -0.38518 -0.8914 -0.23885
vn -0.38518 -0.7992 0.46142
vn -0.38518 0.65255 -0.65255
vn -0.38518 0.46142 -0.7992
vn -0.38518 0.46142 0.7992
vn -0.38518 -0.8914 0.23885
vn -0.38518 -0.92284 0
vn -0.38518 -0.23885 0.8914
vn 0.26409 -0.24963 -0.93163
vn 0.26409 -0.48225 -0.83528
vn 0.26409 0.24963 -0.93163
vn 0.26409 0 -0.9645
vn 0.26409 0.682 0.682
vn 0.26409 0.83528 0.48225
vn 0.26409 -0.682 -0.682
vn 0.26409 -0.83528 -0.48225
vn 0.26409 0.93163 0.24963
vn 0.26409 0.682 -0.682
vn 0.26409 0.48225 -0.83528
vn 0.26409 0.93163 -0.24963
vn 0.26409 0.83528 -0.48225
vn 0.26409 0.48225 0.83528
vn 0.26409 0.24963 0.93163
vn 0.26409 0 0.9645
vn 0.26409 -0.24963 0.93163
vn 0.26409 -0.48225 0.83528
vn 0.26409 -0.93163 -0.24963
vn 0.26409 -0.9645 0
vn 0.26409 0.9645 0
vn 0.26409 -0.83528 0.48225
vn 0.26409 -0.93163 0.24963
vn 0.26409 -0.682 0.682
vt 0.34375 0.275
vt 0.34375 0.42222
vt 0.34375 0.39521
vt 0.34375 0.44821
vt 0.34375 0.41642
vt 0.34375 0.319
vt 0.34375 0.36
vt 0.34375 0.30345
vt 0.34375 0.32996
vt 0.34375 0.35273
vt 0.34375 0.43921
vt 0.34375 0.37019
vt 0.34375 0.38117
vt 0.34375 0.445
vt 0.34375 0.38492
vt 0.34375 0.375
vt 0.34375 0.46819
vt 0.34375 0.475
vt 0.34375 0.32676
vt 0.34375 0.31874
vt 0.34375 0.3595
vt 0.34375 0.3945
vt 0.34375 0.42136
vt 0.34375 0.43824
vt 0.34375 0.444
vt 0.59375 0.53917
vt 0.59375 0.5439
vt 0.59375 0.55238
vt 0.59375 0.56151
vt 0.59375 0.525
vt 0.59375 0.56372
vt 0.59375 0.57243
vt 0.59375 0.5779
vt 0.59375 0.57976
vt 0.59375 0.57663
vt 0.59375 0.58823
vt 0.59375 0.59553
vt 0.59375 0.59802
vt 0.59375 0.625
vt 0.59375 0.59912
vt 0.59375 0.65088
vt 0.59375 0.675
vt 0.59375 0.575
vt 0.59375 0.69571
vt 0.59375 0.55429
vt 0.59375 0.64219
vt 0.59375 0.60781
vt 0.59375 0.7116
vt 0.59375 0.65821
vt 0.59375 0.67197
vt 0.59375 0.5384
vt 0.59375 0.59179
vt 0.59375 0.57803
vt 0.59375 0.72159
vt 0.59375 0.68253
vt 0.59375 0.68916
vt 0.59375 0.725
vt 0.59375 0.69143
vt 0.59375 0.52841
vt 0.59375 0.56747
vt 0.59375 0.56084
vt 0.59375 0.55857
usemtl colormap
f 3/1/2 2/1/1 1/1/1
f 2/1/1 3/1/2 4/1/2
f 7/1/4 6/1/3 5/1/3
f 6/1/3 7/1/4 8/1/4
f 10/1/6 5/1/5 9/1/5
f 5/1/5 10/1/6 7/1/6
f 13/1/8 12/1/7 11/1/7
f 12/1/7 13/1/8 14/1/8
f 17/4/9 16/3/10 15/2/9
f 16/3/10 17/4/9 18/5/10
f 21/1/12 20/1/11 19/1/11
f 20/1/11 21/1/12 22/1/12
f 25/6/13 24/1/13 23/1/13
f 24/1/13 25/6/13 26/7/13
f 24/1/13 26/7/13 8/1/13
f 8/1/13 26/7/13 27/3/13
f 8/1/13 27/3/13 6/1/13
f 6/1/13 27/3/13 28/1/13
f 28/1/13 27/3/13 29/8/13
f 30/1/13 6/1/13 28/1/13
f 29/8/13 27/3/13 31/2/13
f 29/8/13 31/2/13 32/9/13
f 32/9/13 31/2/13 33/10/13
f 6/1/13 30/1/13 19/1/13
f 19/1/13 30/1/13 34/1/13
f 19/1/13 34/1/13 35/1/13
f 33/10/13 31/2/13 36/11/13
f 33/10/13 36/11/13 37/12/13
f 37/12/13 36/11/13 38/13/13
f 38/13/13 36/11/13 39/14/13
f 38/13/13 39/14/13 40/15/13
f 19/1/13 35/1/13 21/1/13
f 21/1/13 35/1/13 41/1/13
f 21/1/13 41/1/13 42/1/13
f 40/15/13 39/14/13 43/11/13
f 40/15/13 43/11/13 44/13/13
f 44/13/13 43/11/13 45/12/13
f 21/1/13 42/1/13 46/1/13
f 46/1/13 42/1/13 47/1/13
f 46/1/13 47/1/13 48/1/13
f 46/1/13 48/1/13 49/1/13
f 49/1/13 48/1/13 50/1/13
f 45/12/13 43/11/13 15/2/13
f 45/12/13 15/2/13 51/10/13
f 51/10/13 15/2/13 52/9/13
f 49/1/13 50/1/13 53/1/13
f 53/1/13 50/1/13 54/1/13
f 53/1/13 54/1/13 55/1/13
f 52/9/13 15/2/13 16/3/13
f 53/1/13 55/1/13 56/1/13
f 52/9/13 16/3/13 57/8/13
f 56/1/13 55/1/13 58/1/13
f 57/8/13 16/3/13 59/1/13
f 56/1/13 58/1/13 59/1/13
f 56/1/13 59/1/13 16/3/13
f 56/1/13 16/3/13 60/7/13
f 56/1/13 60/7/13 61/1/13
f 61/1/13 60/7/13 62/6/13
f 61/1/13 62/6/13 63/1/13
f 63/1/13 62/6/13 64/1/13
f 53/1/15 65/1/14 49/1/14
f 65/1/14 53/1/15 1/1/15
f 18/5/17 67/16/16 66/16/16
f 67/16/16 18/5/17 68/5/17
f 69/4/18 36/11/19 31/2/18
f 36/11/19 69/4/18 70/17/19
f 71/4/20 18/5/17 17/4/20
f 18/5/17 71/4/20 68/5/17
f 72/4/21 70/17/22 69/4/21
f 70/17/22 72/4/21 73/17/22
f 56/1/23 11/1/24 3/1/23
f 11/1/24 56/1/23 61/1/24
f 73/17/22 74/18/25 70/17/22
f 74/18/25 73/17/22 75/18/25
f 78/19/27 77/1/26 76/1/26
f 77/1/26 78/19/27 79/19/27
f 82/1/29 81/1/28 80/1/28
f 81/1/28 82/1/29 83/1/29
f 66/16/16 79/19/27 78/19/27
f 79/19/27 66/16/16 67/16/16
f 84/19/30 26/7/31 25/6/30
f 26/7/31 84/19/30 85/16/31
f 86/17/32 15/2/9 43/11/32
f 15/2/9 86/17/32 17/4/9
f 85/16/31 27/3/33 26/7/31
f 27/3/33 85/16/31 87/5/33
f 62/6/35 76/1/34 64/1/34
f 76/1/34 62/6/35 78/19/35
f 22/1/37 88/1/36 20/1/36
f 88/1/36 22/1/37 89/1/37
f 84/19/30 23/1/38 83/1/38
f 23/1/38 84/19/30 25/6/30
f 20/1/36 9/1/5 5/1/5
f 9/1/5 20/1/36 88/1/36
f 80/1/28 7/1/6 10/1/6
f 7/1/6 80/1/28 81/1/28
f 70/17/19 39/14/39 36/11/19
f 39/14/39 70/17/19 74/18/39
f 90/5/40 69/4/21 87/5/40
f 69/4/21 90/5/40 72/4/21
f 56/1/23 1/1/15 53/1/15
f 1/1/15 56/1/23 3/1/23
f 75/18/25 86/17/41 74/18/25
f 86/17/41 75/18/25 91/17/41
f 65/1/43 93/1/42 92/1/42
f 93/1/42 65/1/43 94/1/43
f 60/7/44 78/19/35 62/6/35
f 78/19/35 60/7/44 66/16/44
f 63/1/45 76/1/34 13/1/45
f 76/1/34 63/1/45 64/1/34
f 61/1/24 13/1/45 11/1/24
f 13/1/45 61/1/24 63/1/45
f 87/5/33 31/2/18 27/3/33
f 31/2/18 87/5/33 69/4/18
f 20/1/11 6/1/3 19/1/11
f 6/1/3 20/1/11 5/1/3
f 91/17/41 17/4/20 86/17/41
f 17/4/20 91/17/41 71/4/20
f 96/16/47 84/19/46 95/19/46
f 84/19/46 96/16/47 85/16/47
f 83/1/38 24/1/48 81/1/48
f 24/1/48 83/1/38 23/1/38
f 11/1/7 4/1/2 3/1/2
f 4/1/2 11/1/7 12/1/7
f 76/1/26 14/1/8 13/1/8
f 14/1/8 76/1/26 77/1/26
f 90/5/40 85/16/47 96/16/47
f 85/16/47 90/5/40 87/5/40
f 46/1/49 22/1/12 21/1/12
f 22/1/12 46/1/49 92/1/49
f 81/1/48 8/1/4 7/1/4
f 8/1/4 81/1/48 24/1/48
f 74/18/39 43/11/32 39/14/39
f 43/11/32 74/18/39 86/17/32
f 1/1/1 94/1/43 65/1/43
f 94/1/43 1/1/1 2/1/1
f 49/1/14 92/1/49 46/1/49
f 92/1/49 49/1/14 65/1/14
f 95/19/46 83/1/29 82/1/29
f 83/1/29 95/19/46 84/19/46
f 92/1/42 89/1/37 22/1/37
f 89/1/37 92/1/42 93/1/42
f 16/3/10 66/16/44 60/7/44
f 66/16/44 16/3/10 18/5/10
f 99/1/50 98/20/50 97/1/50
f 98/20/50 99/1/50 100/21/50
f 100/21/50 99/1/50 101/1/50
f 100/21/50 101/1/50 102/1/50
f 100/21/50 102/1/50 103/22/50
f 103/22/50 102/1/50 104/1/50
f 103/22/50 104/1/50 105/23/50
f 105/23/50 104/1/50 106/1/50
f 105/23/50 106/1/50 107/24/50
f 107/24/50 106/1/50 108/1/50
f 107/24/50 108/1/50 109/25/50
f 109/25/50 108/1/50 110/1/50
f 109/25/50 110/1/50 111/24/50
f 111/24/50 110/1/50 112/1/50
f 111/24/50 112/1/50 113/23/50
f 113/23/50 112/1/50 114/1/50
f 113/23/50 114/1/50 115/22/50
f 115/22/50 114/1/50 116/1/50
f 115/22/50 116/1/50 117/21/50
f 117/21/50 116/1/50 118/1/50
f 117/21/50 118/1/50 119/20/50
f 119/20/50 118/1/50 120/1/50
f 88/1/52 102/1/51 9/1/51
f 102/1/51 88/1/52 104/1/52
f 79/19/54 120/1/53 77/1/53
f 120/1/53 79/19/54 119/20/54
f 98/20/56 82/1/55 97/1/55
f 82/1/55 98/20/56 95/19/56
f 12/1/58 114/1/57 4/1/57
f 114/1/57 12/1/58 116/1/58
f 113/23/59 68/5/60 71/4/59
f 68/5/60 113/23/59 115/22/60
f 99/1/61 82/1/55 80/1/61
f 82/1/55 99/1/61 97/1/55
f 109/25/62 91/17/63 75/18/62
f 91/17/63 109/25/62 111/24/63
f 107/24/64 75/18/62 73/17/64
f 75/18/62 107/24/64 109/25/62
f 105/23/65 73/17/64 72/4/65
f 73/17/64 105/23/65 107/24/64
f 102/1/51 10/1/66 9/1/51
f 10/1/66 102/1/51 101/1/66
f 89/1/67 104/1/52 88/1/52
f 104/1/52 89/1/67 106/1/67
f 4/1/57 112/1/68 2/1/68
f 112/1/68 4/1/57 114/1/57
f 103/22/69 72/4/65 90/5/69
f 72/4/65 103/22/69 105/23/65
f 103/22/69 96/16/70 100/21/70
f 96/16/70 103/22/69 90/5/69
f 101/1/66 80/1/61 10/1/66
f 80/1/61 101/1/66 99/1/61
f 79/19/54 117/21/71 119/20/54
f 117/21/71 79/19/54 67/16/71
f 111/24/63 71/4/59 91/17/63
f 71/4/59 111/24/63 113/23/59
f 2/1/68 110/1/72 94/1/72
f 110/1/72 2/1/68 112/1/68
f 94/1/72 108/1/73 93/1/73
f 108/1/73 94/1/72 110/1/72
f 93/1/73 106/1/67 89/1/67
f 106/1/67 93/1/73 108/1/73
f 14/1/74 116/1/58 12/1/58
f 116/1/58 14/1/74 118/1/74
f 77/1/53 118/1/74 14/1/74
f 118/1/74 77/1/53 120/1/53
f 67/16/71 115/22/60 117/21/71
f 115/22/60 67/16/71 68/5/60
f 100/21/70 95/19/56 98/20/56
f 95/19/56 100/21/70 96/16/70
f 123/28/76 122/27/75 121/26/75
f 122/27/75 123/28/76 124/29/76
f 127/26/13 126/30/13 125/30/13
f 126/30/13 127/26/13 128/28/13
f 126/30/13 128/28/13 129/30/13
f 129/30/13 128/28/13 130/31/13
f 129/30/13 130/31/13 131/30/13
f 131/30/13 130/31/13 132/32/13
f 131/30/13 132/32/13 133/30/13
f 133/30/13 132/32/13 134/33/13
f 133/30/13 134/33/13 135/30/13
f 135/30/13 134/33/13 136/34/13
f 135/30/13 136/34/13 137/30/13
f 137/30/13 136/34/13 138/33/13
f 137/30/13 138/33/13 139/30/13
f 139/30/13 138/33/13 140/32/13
f 139/30/13 140/32/13 141/30/13
f 141/30/13 140/32/13 142/31/13
f 141/30/13 142/31/13 143/30/13
f 143/30/13 142/31/13 123/28/13
f 143/30/13 123/28/13 144/30/13
f 144/30/13 123/28/13 121/26/13
f 144/30/13 121/26/13 145/30/13
f 145/30/13 121/26/13 146/30/13
f 145/30/77 148/30/78 147/30/77
f 148/30/78 145/30/77 146/30/78
f 131/30/79 150/30/80 149/30/79
f 150/30/80 131/30/79 133/30/80
f 142/31/81 152/36/82 151/35/81
f 152/36/82 142/31/81 140/32/82
f 133/30/80 153/30/83 150/30/80
f 153/30/83 133/30/80 135/30/83
f 143/30/84 155/30/85 154/30/84
f 155/30/85 143/30/84 144/30/85
f 139/30/86 157/30/87 156/30/86
f 157/30/87 139/30/86 141/30/87
f 144/30/85 147/30/77 155/30/85
f 147/30/77 144/30/85 145/30/77
f 159/30/89 129/30/88 158/30/88
f 129/30/88 159/30/89 126/30/89
f 121/26/75 148/30/78 146/30/78
f 148/30/78 121/26/75 122/27/75
f 160/30/90 126/30/89 159/30/89
f 126/30/89 160/30/90 125/30/90
f 161/27/91 128/28/92 127/26/91
f 128/28/92 161/27/91 162/29/92
f 138/33/93 164/38/94 163/37/93
f 164/38/94 138/33/93 136/34/94
f 135/30/83 165/30/95 153/30/83
f 165/30/95 135/30/83 137/30/95
f 152/36/82 138/33/93 163/37/93
f 138/33/93 152/36/82 140/32/82
f 167/37/97 132/32/96 166/36/96
f 132/32/96 167/37/97 134/33/97
f 132/32/96 168/35/98 166/36/96
f 168/35/98 132/32/96 130/31/98
f 137/30/95 156/30/86 165/30/95
f 156/30/86 137/30/95 139/30/86
f 158/30/88 131/30/79 149/30/79
f 131/30/79 158/30/88 129/30/88
f 162/29/92 130/31/98 128/28/92
f 130/31/98 162/29/92 168/35/98
f 141/30/87 154/30/84 157/30/87
f 154/30/84 141/30/87 143/30/84
f 136/34/94 167/37/97 164/38/94
f 167/37/97 136/34/94 134/33/97
f 142/31/81 124/29/76 123/28/76
f 124/29/76 142/31/81 151/35/81
f 160/30/90 127/26/91 125/30/90
f 127/26/91 160/30/90 161/27/91
f 171/41/13 170/40/13 169/39/13
f 170/40/13 171/41/13 32/42/13
f 170/40/13 32/42/13 34/43/13
f 34/43/13 32/42/13 172/44/13
f 34/43/13 172/44/13 173/45/13
f 173/45/13 172/44/13 174/39/13
f 172/44/13 161/46/13 174/39/13
f 173/45/13 174/39/13 175/47/13
f 161/46/13 172/44/13 176/48/13
f 161/46/13 176/48/13 177/49/13
f 177/49/13 176/48/13 178/50/13
f 173/45/13 175/47/13 41/51/13
f 41/51/13 175/47/13 179/52/13
f 41/51/13 179/52/13 149/53/13
f 178/50/13 176/48/13 180/54/13
f 178/50/13 180/54/13 181/55/13
f 181/55/13 180/54/13 182/56/13
f 182/56/13 180/54/13 40/57/13
f 182/56/13 40/57/13 183/58/13
f 41/51/13 149/53/13 184/59/13
f 184/59/13 149/53/13 185/60/13
f 184/59/13 185/60/13 186/61/13
f 183/58/13 40/57/13 187/54/13
f 183/58/13 187/54/13 188/56/13
f 188/56/13 187/54/13 189/55/13
f 184/59/13 186/61/13 47/30/13
f 47/30/13 186/61/13 165/62/13
f 47/30/13 165/62/13 190/61/13
f 47/30/13 190/61/13 191/59/13
f 191/59/13 190/61/13 192/60/13
f 189/55/13 187/54/13 193/48/13
f 189/55/13 193/48/13 194/50/13
f 194/50/13 193/48/13 195/49/13
f 191/59/13 192/60/13 50/51/13
f 50/51/13 192/60/13 154/53/13
f 50/51/13 154/53/13 196/52/13
f 195/49/13 193/48/13 197/44/13
f 50/51/13 196/52/13 198/45/13
f 195/49/13 197/44/13 122/46/13
f 198/45/13 196/52/13 199/47/13
f 122/46/13 197/44/13 200/39/13
f 198/45/13 199/47/13 200/39/13
f 198/45/13 200/39/13 197/44/13
f 198/45/13 197/44/13 52/42/13
f 198/45/13 52/42/13 55/43/13
f 55/43/13 52/42/13 201/41/13
f 55/43/13 201/41/13 202/40/13
f 202/40/13 201/41/13 203/39/13
g wheel-tractor-front
usemtl colormap
f 3/1/2 2/1/1 1/1/1
f 2/1/1 3/1/2 4/1/2
f 7/1/4 6/1/3 5/1/3
f 6/1/3 7/1/4 8/1/4
f 10/1/6 5/1/5 9/1/5
f 5/1/5 10/1/6 7/1/6
f 13/1/8 12/1/7 11/1/7
f 12/1/7 13/1/8 14/1/8
f 17/4/9 16/3/10 15/2/9
f 16/3/10 17/4/9 18/5/10
f 21/1/12 20/1/11 19/1/11
f 20/1/11 21/1/12 22/1/12
f 25/6/13 24/1/13 23/1/13
f 24/1/13 25/6/13 26/7/13
f 24/1/13 26/7/13 8/1/13
f 8/1/13 26/7/13 27/3/13
f 8/1/13 27/3/13 6/1/13
f 6/1/13 27/3/13 28/1/13
f 28/1/13 27/3/13 29/8/13
f 30/1/13 6/1/13 28/1/13
f 29/8/13 27/3/13 31/2/13
f 29/8/13 31/2/13 32/9/13
f 32/9/13 31/2/13 33/10/13
f 6/1/13 30/1/13 19/1/13
f 19/1/13 30/1/13 34/1/13
f 19/1/13 34/1/13 35/1/13
f 33/10/13 31/2/13 36/11/13
f 33/10/13 36/11/13 37/12/13
f 37/12/13 36/11/13 38/13/13
f 38/13/13 36/11/13 39/14/13
f 38/13/13 39/14/13 40/15/13
f 19/1/13 35/1/13 21/1/13
f 21/1/13 35/1/13 41/1/13
f 21/1/13 41/1/13 42/1/13
f 40/15/13 39/14/13 43/11/13
f 40/15/13 43/11/13 44/13/13
f 44/13/13 43/11/13 45/12/13
f 21/1/13 42/1/13 46/1/13
f 46/1/13 42/1/13 47/1/13
f 46/1/13 47/1/13 48/1/13
f 46/1/13 48/1/13 49/1/13
f 49/1/13 48/1/13 50/1/13
f 45/12/13 43/11/13 15/2/13
f 45/12/13 15/2/13 51/10/13
f 51/10/13 15/2/13 52/9/13
f 49/1/13 50/1/13 53/1/13
f 53/1/13 50/1/13 54/1/13
f 53/1/13 54/1/13 55/1/13
f 52/9/13 15/2/13 16/3/13
f 53/1/13 55/1/13 56/1/13
f 52/9/13 16/3/13 57/8/13
f 56/1/13 55/1/13 58/1/13
f 57/8/13 16/3/13 59/1/13
f 56/1/13 58/1/13 59/1/13
f 56/1/13 59/1/13 16/3/13
f 56/1/13 16/3/13 60/7/13
f 56/1/13 60/7/13 61/1/13
f 61/1/13 60/7/13 62/6/13
f 61/1/13 62/6/13 63/1/13
f 63/1/13 62/6/13 64/1/13
f 53/1/15 65/1/14 49/1/14
f 65/1/14 53/1/15 1/1/15
f 18/5/17 67/16/16 66/16/16
f 67/16/16 18/5/17 68/5/17
f 69/4/18 36/11/19 31/2/18
f 36/11/19 69/4/18 70/17/19
f 71/4/20 18/5/17 17/4/20
f 18/5/17 71/4/20 68/5/17
f 72/4/21 70/17/22 69/4/21
f 70/17/22 72/4/21 73/17/22
f 56/1/23 11/1/24 3/1/23
f 11/1/24 56/1/23 61/1/24
f 73/17/22 74/18/25 70/17/22
f 74/18/25 73/17/22 75/18/25
f 78/19/27 77/1/26 76/1/26
f 77/1/26 78/19/27 79/19/27
f 82/1/29 81/1/28 80/1/28
f 81/1/28 82/1/29 83/1/29
f 66/16/16 79/19/27 78/19/27
f 79/19/27 66/16/16 67/16/16
f 84/19/30 26/7/31 25/6/30
f 26/7/31 84/19/30 85/16/31
f 86/17/32 15/2/9 43/11/32
f 15/2/9 86/17/32 17/4/9
f 85/16/31 27/3/33 26/7/31
f 27/3/33 85/16/31 87/5/33
f 62/6/35 76/1/34 64/1/34
f 76/1/34 62/6/35 78/19/35
f 22/1/37 88/1/36 20/1/36
f 88/1/36 22/1/37 89/1/37
f 84/19/30 23/1/38 83/1/38
f 23/1/38 84/19/30 25/6/30
f 20/1/36 9/1/5 5/1/5
f 9/1/5 20/1/36 88/1/36
f 80/1/28 7/1/6 10/1/6
f 7/1/6 80/1/28 81/1/28
f 70/17/19 39/14/39 36/11/19
f 39/14/39 70/17/19 74/18/39
f 90/5/40 69/4/21 87/5/40
f 69/4/21 90/5/40 72/4/21
f 56/1/23 1/1/15 53/1/15
f 1/1/15 56/1/23 3/1/23
f 75/18/25 86/17/41 74/18/25
f 86/17/41 75/18/25 91/17/41
f 65/1/43 93/1/42 92/1/42
f 93/1/42 65/1/43 94/1/43
f 60/7/44 78/19/35 62/6/35
f 78/19/35 60/7/44 66/16/44
f 63/1/45 76/1/34 13/1/45
f 76/1/34 63/1/45 64/1/34
f 61/1/24 13/1/45 11/1/24
f 13/1/45 61/1/24 63/1/45
f 87/5/33 31/2/18 27/3/33
f 31/2/18 87/5/33 69/4/18
f 20/1/11 6/1/3 19/1/11
f 6/1/3 20/1/11 5/1/3
f 91/17/41 17/4/20 86/17/41
f 17/4/20 91/17/41 71/4/20
f 96/16/47 84/19/46 95/19/46
f 84/19/46 96/16/47 85/16/47
f 83/1/38 24/1/48 81/1/48
f 24/1/48 83/1/38 23/1/38
f 11/1/7 4/1/2 3/1/2
f 4/1/2 11/1/7 12/1/7
f 76/1/26 14/1/8 13/1/8
f 14/1/8 76/1/26 77/1/26
f 90/5/40 85/16/47 96/16/47
f 85/16/47 90/5/40 87/5/40
f 46/1/49 22/1/12 21/1/12
f 22/1/12 46/1/49 92/1/49
f 81/1/48 8/1/4 7/1/4
f 8/1/4 81/1/48 24/1/48
f 74/18/39 43/11/32 39/14/39
f 43/11/32 74/18/39 86/17/32
f 1/1/1 94/1/43 65/1/43
f 94/1/43 1/1/1 2/1/1
f 49/1/14 92/1/49 46/1/49
f 92/1/49 49/1/14 65/1/14
f 95/19/46 83/1/29 82/1/29
f 83/1/29 95/19/46 84/19/46
f 92/1/42 89/1/37 22/1/37
f 89/1/37 92/1/42 93/1/42
f 16/3/10 66/16/44 60/7/44
f 66/16/44 16/3/10 18/5/10
f 99/1/50 98/20/50 97/1/50
f 98/20/50 99/1/50 100/21/50
f 100/21/50 99/1/50 101/1/50
f 100/21/50 101/1/50 102/1/50
f 100/21/50 102/1/50 103/22/50
f 103/22/50 102/1/50 104/1/50
f 103/22/50 104/1/50 105/23/50
f 105/23/50 104/1/50 106/1/50
f 105/23/50 106/1/50 107/24/50
f 107/24/50 106/1/50 108/1/50
f 107/24/50 108/1/50 109/25/50
f 109/25/50 108/1/50 110/1/50
f 109/25/50 110/1/50 111/24/50
f 111/24/50 110/1/50 112/1/50
f 111/24/50 112/1/50 113/23/50
f 113/23/50 112/1/50 114/1/50
f 113/23/50 114/1/50 115/22/50
f 115/22/50 114/1/50 116/1/50
f 115/22/50 116/1/50 117/21/50
f 117/21/50 116/1/50 118/1/50
f 117/21/50 118/1/50 119/20/50
f 119/20/50 118/1/50 120/1/50
f 88/1/52 102/1/51 9/1/51
f 102/1/51 88/1/52 104/1/52
f 79/19/54 120/1/53 77/1/53
f 120/1/53 79/19/54 119/20/54
f 98/20/56 82/1/55 97/1/55
f 82/1/55 98/20/56 95/19/56
f 12/1/58 114/1/57 4/1/57
f 114/1/57 12/1/58 116/1/58
f 113/23/59 68/5/60 71/4/59
f 68/5/60 113/23/59 115/22/60
f 99/1/61 82/1/55 80/1/61
f 82/1/55 99/1/61 97/1/55
f 109/25/62 91/17/63 75/18/62
f 91/17/63 109/25/62 111/24/63
f 107/24/64 75/18/62 73/17/64
f 75/18/62 107/24/64 109/25/62
f 105/23/65 73/17/64 72/4/65
f 73/17/64 105/23/65 107/24/64
f 102/1/51 10/1/66 9/1/51
f 10/1/66 102/1/51 101/1/66
f 89/1/67 104/1/52 88/1/52
f 104/1/52 89/1/67 106/1/67
f 4/1/57 112/1/68 2/1/68
f 112/1/68 4/1/57 114/1/57
f 103/22/69 72/4/65 90/5/69
f 72/4/65 103/22/69 105/23/65
f 103/22/69 96/16/70 100/21/70
f 96/16/70 103/22/69 90/5/69
f 101/1/66 80/1/61 10/1/66
f 80/1/61 101/1/66 99/1/61
f 79/19/54 117/21/71 119/20/54
f 117/21/71 79/19/54 67/16/71
f 111/24/63 71/4/59 91/17/63
f 71/4/59 111/24/63 113/23/59
f 2/1/68 110/1/72 94/1/72
f 110/1/72 2/1/68 112/1/68
f 94/1/72 108/1/73 93/1/73
f 108/1/73 94/1/72 110/1/72
f 93/1/73 106/1/67 89/1/67
f 106/1/67 93/1/73 108/1/73
f 14/1/74 116/1/58 12/1/58
f 116/1/58 14/1/74 118/1/74
f 77/1/53 118/1/74 14/1/74
f 118/1/74 77/1/53 120/1/53
f 67/16/71 115/22/60 117/21/71
f 115/22/60 67/16/71 68/5/60
f 100/21/70 95/19/56 98/20/56
f 95/19/56 100/21/70 96/16/70
f 123/28/76 122/27/75 121/26/75
f 122/27/75 123/28/76 124/29/76
f 127/26/13 126/30/13 125/30/13
f 126/30/13 127/26/13 128/28/13
f 126/30/13 128/28/13 129/30/13
f 129/30/13 128/28/13 130/31/13
f 129/30/13 130/31/13 131/30/13
f 131/30/13 130/31/13 132/32/13
f 131/30/13 132/32/13 133/30/13
f 133/30/13 132/32/13 134/33/13
f 133/30/13 134/33/13 135/30/13
f 135/30/13 134/33/13 136/34/13
f 135/30/13 136/34/13 137/30/13
f 137/30/13 136/34/13 138/33/13
f 137/30/13 138/33/13 139/30/13
f 139/30/13 138/33/13 140/32/13
f 139/30/13 140/32/13 141/30/13
f 141/30/13 140/32/13 142/31/13
f 141/30/13 142/31/13 143/30/13
f 143/30/13 142/31/13 123/28/13
f 143/30/13 123/28/13 144/30/13
f 144/30/13 123/28/13 121/26/13
f 144/30/13 121/26/13 145/30/13
f 145/30/13 121/26/13 146/30/13
f 145/30/77 148/30/78 147/30/77
f 148/30/78 145/30/77 146/30/78
f 131/30/79 150/30/80 149/30/79
f 150/30/80 131/30/79 133/30/80
f 142/31/81 152/36/82 151/35/81
f 152/36/82 142/31/81 140/32/82
f 133/30/80 153/30/83 150/30/80
f 153/30/83 133/30/80 135/30/83
f 143/30/84 155/30/85 154/30/84
f 155/30/85 143/30/84 144/30/85
f 139/30/86 157/30/87 156/30/86
f 157/30/87 139/30/86 141/30/87
f 144/30/85 147/30/77 155/30/85
f 147/30/77 144/30/85 145/30/77
f 159/30/89 129/30/88 158/30/88
f 129/30/88 159/30/89 126/30/89
f 121/26/75 148/30/78 146/30/78
f 148/30/78 121/26/75 122/27/75
f 160/30/90 126/30/89 159/30/89
f 126/30/89 160/30/90 125/30/90
f 161/27/91 128/28/92 127/26/91
f 128/28/92 161/27/91 162/29/92
f 138/33/93 164/38/94 163/37/93
f 164/38/94 138/33/93 136/34/94
f 135/30/83 165/30/95 153/30/83
f 165/30/95 135/30/83 137/30/95
f 152/36/82 138/33/93 163/37/93
f 138/33/93 152/36/82 140/32/82
f 167/37/97 132/32/96 166/36/96
f 132/32/96 167/37/97 134/33/97
f 132/32/96 168/35/98 166/36/96
f 168/35/98 132/32/96 130/31/98
f 137/30/95 156/30/86 165/30/95
f 156/30/86 137/30/95 139/30/86
f 158/30/88 131/30/79 149/30/79
f 131/30/79 158/30/88 129/30/88
f 162/29/92 130/31/98 128/28/92
f 130/31/98 162/29/92 168/35/98
f 141/30/87 154/30/84 157/30/87
f 154/30/84 141/30/87 143/30/84
f 136/34/94 167/37/97 164/38/94
f 167/37/97 136/34/94 134/33/97
f 142/31/81 124/29/76 123/28/76
f 124/29/76 142/31/81 151/35/81
f 160/30/90 127/26/91 125/30/90
f 127/26/91 160/30/90 161/27/91
f 171/41/13 170/40/13 169/39/13
f 170/40/13 171/41/13 32/42/13
f 170/40/13 32/42/13 34/43/13
f 34/43/13 32/42/13 172/44/13
f 34/43/13 172/44/13 173/45/13
f 173/45/13 172/44/13 174/39/13
f 172/44/13 161/46/13 174/39/13
f 173/45/13 174/39/13 175/47/13
f 161/46/13 172/44/13 176/48/13
f 161/46/13 176/48/13 177/49/13
f 177/49/13 176/48/13 178/50/13
f 173/45/13 175/47/13 41/51/13
f 41/51/13 175/47/13 179/52/13
f 41/51/13 179/52/13 149/53/13
f 178/50/13 176/48/13 180/54/13
f 178/50/13 180/54/13 181/55/13
f 181/55/13 180/54/13 182/56/13
f 182/56/13 180/54/13 40/57/13
f 182/56/13 40/57/13 183/58/13
f 41/51/13 149/53/13 184/59/13
f 184/59/13 149/53/13 185/60/13
f 184/59/13 185/60/13 186/61/13
f 183/58/13 40/57/13 187/54/13
f 183/58/13 187/54/13 188/56/13
f 188/56/13 187/54/13 189/55/13
f 184/59/13 186/61/13 47/30/13
f 47/30/13 186/61/13 165/62/13
f 47/30/13 165/62/13 190/61/13
f 47/30/13 190/61/13 191/59/13
f 191/59/13 190/61/13 192/60/13
f 189/55/13 187/54/13 193/48/13
f 189/55/13 193/48/13 194/50/13
f 194/50/13 193/48/13 195/49/13
f 191/59/13 192/60/13 50/51/13
f 50/51/13 192/60/13 154/53/13
f 50/51/13 154/53/13 196/52/13
f 195/49/13 193/48/13 197/44/13
f 50/51/13 196/52/13 198/45/13
f 195/49/13 197/44/13 122/46/13
f 198/45/13 196/52/13 199/47/13
f 122/46/13 197/44/13 200/39/13
f 198/45/13 199/47/13 200/39/13
f 198/45/13 200/39/13 197/44/13
f 198/45/13 197/44/13 52/42/13
f 198/45/13 52/42/13 55/43/13
f 55/43/13 52/42/13 201/41/13
f 55/43/13 201/41/13 202/40/13
f 202/40/13 201/41/13 203/39/13
