mtllib fish.mtl
g fish
v -0.042265 0.013242 0.016142
v -0.040854 4.1827e-05 0.032642
v -0.07824 0.019973 0.01243
v 0.10243 0.076127 -8.366e-10
v 0.10243 0.064978 -0.0026177
v 0.10243 0.064978 0.0026177
v 0.085296 0.022962 -0.0026177
v 0.10243 0.011148 -0.0026177
v 0.085296 0.038063 -0.003702
v 0.074333 0.027429 -0.0067121
v 0.074333 0.023023 -4.537e-11
v 0.085296 0.038063 0.003702
v 0.074333 0.027429 0.0067121
v 0.074333 0.038063 0.0094924
v 0.074333 0.038063 -0.0094924
v 0.085296 0.053165 -0.0026177
v 0.074333 0.048698 -0.0067121
v 0.074333 0.053103 -4.936e-10
v 0.085296 0.05942 -5.8771e-10
v 0.098294 0.038063 -0.003702
v 0.074333 0.048698 0.0067121
v 0.085296 0.053165 0.0026177
v 0.10243 0.011148 0.0026177
v 0.085296 0.016707 4.8773e-11
v 0.085296 0.022962 0.0026177
v 0.098294 0.038063 0.003702
v -0.040854 4.1827e-05 -0.032642
v -0.042265 0.013242 -0.016142
v -0.07824 0.019973 -0.01243
v 0.10243 0 2.978e-10
v -0.0049113 0.013242 -0.016142
v 0.043059 0.00021683 -0.030059
v 0.026559 0.016717 -0.013559
v 0.043059 0.00021683 0.030059
v -0.0049113 0.013242 0.016142
v 0.026559 0.016717 0.013559
v 0.06257 0.0019068 2.6931e-10
v 0.066641 0.016827 4.6966e-11
v 0.050176 0.017048 -0.0044612
v 0.054584 0.018266 -0.0033611
v 0.063415 0.020769 -0.0011613
v 0.021043 0.10633 -1.2868e-09
v -0.019471 0.073166 -7.9263e-10
v -0.022759 0.070475 -0.0042254
v -0.022759 0.070475 0.0042254
v 0.054421 0.05783 -0.0035194
v 0.064198 0.069774 -7.4204e-10
v 0.054498 0.057924 -0.0033205
v 0.055766 0.059473 -5.8854e-10
v 0.0544 0.057804 0.0035269
v 0.062345 0.055573 0.0015464
v 0.062145 0.055628 0.0015962
v 0.066641 0.060821 -6.0862e-10
v 0.062354 0.055584 -0.0015431
v 0.054746 0.05774 -0.0034382
v 0.062943 0.056304 -5.4131e-10
v 0.062388 0.055625 0.0014339
v 0.037739 0.06533 -6.7583e-10
v 0.026559 0.067771 0.00073698
v 0.024899 0.067969 0.00085122
v -0.0049113 0.071313 0.0029095
v 0.051223 0.015768 -0.0017647
v 0.051897 0.014945 7.4991e-11
v 0.050168 0.017058 0.0044641
v 0.063858 0.020227 -3.7077e-12
v 0.063623 0.020514 0.00060751
v 0.06341 0.020774 0.001163
v -0.0049113 0.071313 -0.0029095
v 0.00091091 0.070621 -0.0025086
v 0.026559 0.067771 -0.00073698
v 0.0277 0.067527 -0.00066162
v 0.062426 0.020502 0.0014087
v -0.042265 0.038063 0.022829
v -0.07824 0.038063 0.017578
v -0.042265 0.062885 0.016142
v -0.07824 0.01248 1.1165e-10
v -0.10243 0.03137 0.0043503
v -0.10243 0.044757 -0.0043503
v -0.07824 0.056153 -0.01243
v -0.10243 0.047529 -4.1064e-10
v -0.10243 0.03137 -0.0043503
v -0.07824 0.038063 -0.017578
v -0.097608 0.038063 -0.0061523
v -0.10243 0.044757 0.0043503
v -0.042265 0.0029604 2.5353e-10
v -0.07824 0.056153 0.01243
v 0.026559 0.038063 -0.019176
v -0.10243 0.028598 -1.2853e-10
v -0.042265 0.038063 -0.022829
v -0.042265 0.062885 -0.016142
v -0.07824 0.063646 -6.508e-10
v -0.097608 0.038063 0.0061523
v 0.064531 0.055603 -5.3086e-10
v 0.046199 0.06312 -6.4289e-10
v -0.042265 0.073166 -7.9264e-10
v -0.0049113 0.0029604 2.5355e-10
v 0.046199 0.013007 1.0387e-10
v 0.064531 0.025661 -0.0080869
v 0.046199 0.020346 -0.01139
v 0.064531 0.025661 0.0080869
v 0.046199 0.020346 0.01139
v 0.064531 0.050466 0.0080869
v 0.046199 0.055781 0.01139
v 0.064531 0.050466 -0.0080869
v 0.046199 0.055781 -0.01139
v 0.026559 0.038063 0.019176
v 0.026559 0.05941 0.013559
v 0.046199 0.038063 -0.016108
v 0.026559 0.0078748 1.8033e-10
v 0.064531 0.038063 0.011437
v 0.046199 0.038063 0.016108
v 0.026559 0.05941 -0.013559
v -0.0049113 0.038063 0.022829
v -0.0049113 0.062885 0.016142
v -0.0049113 0.038063 -0.022829
v -0.0049113 0.062885 -0.016142
v 0.064531 0.038063 -0.011437
v 0.064531 0.020524 -8.1329e-12
vn 0.082449 0.78164 0.61826
vn -0.082449 -0.78164 -0.61826
vn 1 0 0
vn 0.99654 -0.083136 0
vn 0.10275 -0.099381 -0.98973
vn -0.024291 -0.055675 -0.99815
vn 0.23405 -0.059393 -0.97041
vn -0.23012 -0.46984 -0.85223
vn -0.13448 -0.82844 -0.54369
vn -0.16428 -0.72305 -0.67098
vn 0.20128 -0.11068 0.97326
vn 0.38555 -0.13928 0.91211
vn 0.45504 -0.22523 0.86152
vn 0.25008 -0.24489 -0.93674
vn 0.38094 -0.13954 -0.91401
vn 0.38094 0.13954 -0.91401
vn 0.23405 0.059393 -0.97041
vn 0.10275 0.099381 -0.98973
vn 0.25008 0.24489 -0.93674
vn -0.16428 0.72305 -0.67098
vn -0.23012 0.46984 -0.85223
vn -0.30907 0.36715 -0.87731
vn 0 -0.040254 -0.99919
vn -0.43399 0.7532 0.49431
vn -0.19183 0.42379 0.88521
vn -0.26137 0.68987 0.6751
vn 0.037976 0.38577 0.92181
vn -0.22388 0.24595 0.94307
vn -0.22388 -0.24595 0.94307
vn -0.19183 -0.42379 0.88521
vn 0.037976 -0.38577 0.92181
vn -0.19986 0.25692 -0.94554
vn -0.43399 -0.7532 0.49431
vn -0.26137 -0.68987 0.6751
vn 0.20128 0.11068 0.97326
vn 0.38555 0.13928 0.91211
vn 0.10231 0.059479 0.99297
vn 0.10231 -0.059479 0.99297
vn -0.024291 0.055675 -0.99815
vn -0.031023 -0.044993 0.99851
vn -0.015522 -0.058311 0.99818
vn 0.082449 0.78164 -0.61826
vn -0.082449 -0.78164 0.61826
vn -0.21756 -0.22311 0.9502
vn -0.19986 -0.25692 -0.94554
vn -0.15569 -0.2258 -0.96165
vn -0.015522 0.058311 0.99818
vn -0.031023 0.044993 0.99851
vn -0.30907 -0.36715 -0.87731
vn -0.15569 0.2258 -0.96165
vn 0.45504 0.22523 0.86152
vn -0.018283 0.69779 -0.71607
vn 0.018283 -0.69779 0.71607
vn 0.99654 0.083136 0
vn -0.21756 0.22311 0.9502
vn -0.13448 0.82844 -0.54369
vn -0.018283 0.69779 0.71607
vn 0.018283 -0.69779 -0.71607
vn 0 0.040254 -0.99919
vn 0.25998 -0.070937 -0.96301
vn -0.63338 0.77384 0
vn -0.77381 0.63342 0
vn 0.25998 0.070937 0.96301
vn 0.25998 0.070937 -0.96301
vn 0.77381 -0.63342 0
vn 0.07213 0.029375 0.99696
vn -0.77381 -0.63342 0
vn 0.77381 0.63342 0
vn 0.07213 0.029375 -0.99696
vn 0.25998 -0.070937 0.96301
vn -0.069098 0.25948 0.96327
vn -0.28287 0.23182 0.93072
vn -0.067785 0.2615 0.96282
vn -0.36099 -0.79672 0.48468
vn -0.3436 -0.80367 0.48586
vn -0.49271 -0.73735 0.46211
vn -0.49966 0.73049 -0.46554
vn -0.35535 0.79986 -0.48369
vn -0.49859 0.73415 -0.46091
vn -0.46641 -0.058723 -0.88262
vn -0.27972 -0.23489 -0.9309
vn -0.50359 0.13288 -0.85366
vn -0.88809 -0.45966 0
vn -1 0 0
vn -0.10154 -0.84061 -0.53204
vn -0.35941 -0.79658 -0.48609
vn -0.34252 -0.80461 -0.48506
vn -0.26146 0.26421 0.92835
vn 0.05337 -0.25867 -0.96449
vn 0.12722 -0.253 -0.95906
vn 0.12868 -0.25358 -0.95872
vn -0.3853 0.093983 -0.91799
vn -0.31445 0.25702 -0.91382
vn -0.28223 0.23849 -0.92923
vn -0.1053 -0.83876 -0.53422
vn -0.10154 -0.84061 0.53204
vn -0.48986 -0.73519 0.46854
vn -0.069098 0.25948 -0.96327
vn -0.067785 0.2615 -0.96282
vn -0.49966 -0.73049 -0.46554
vn -0.49859 -0.73415 -0.46091
vn -0.3253 0.02023 -0.9454
vn -0.25759 -0.26149 0.9302
vn -0.27972 -0.23489 0.9309
vn -0.071495 -0.26149 0.96256
vn -0.1053 -0.83876 0.53423
vn -0.10895 0.83998 -0.53157
vn -0.33727 0.80412 -0.48953
vn -0.50359 -0.13288 0.85366
vn -0.46641 0.058723 0.88262
vn -0.48986 0.73519 0.46854
vn -0.3436 0.80367 0.48586
vn -0.49271 0.73735 0.46211
vn -0.25759 -0.26149 -0.9302
vn 0.34801 0.78807 0.50777
vn 0.28642 0.80802 0.51485
vn 0.34573 0.79128 0.50432
vn -0.069842 -0.25947 -0.96322
vn -0.071495 -0.26149 -0.96256
vn 0.29763 0.80999 -0.50531
vn 0.30914 0.8111 -0.49653
vn 0.25267 0.8148 -0.52179
vn -0.10154 0.84061 0.53204
vn -0.1053 0.83876 0.53422
vn -0.36099 0.79672 0.48468
vn 0.17121 -0.82627 -0.53662
vn 0.06792 -0.8415 -0.53597
vn 0.065356 -0.8408 -0.53739
vn 0.27851 -0.82307 -0.49497
vn 0.28343 -0.80097 -0.52737
vn 0.23579 -0.82099 -0.51998
vn 0.28228 -0.80534 -0.5213
vn 0.25517 -0.80329 -0.53815
vn 0.27184 -0.80922 0.52083
vn 0.33618 -0.78884 0.5145
vn 0.26019 -0.8049 0.53334
vn 0.33591 0.78857 0.51509
vn 0.27212 0.80898 0.52106
vn 0.26308 0.80785 0.52741
vn 0.25179 0.81398 0.52349
vn 0.3261 0.78025 0.53374
vn 0.29413 -0.79221 0.53469
vn 0.2794 -0.82152 0.49703
vn 0.23494 -0.82016 0.52167
vn 0.30805 0.80824 0.50184
vn 0.28112 0.80588 -0.52109
vn 0.29827 0.80467 -0.51336
vn 0.261 0.80676 -0.53012
vn 0.34596 0.78943 -0.50706
vn 0.34596 -0.78943 -0.50706
vn -0.88809 0.45966 0
vn 0.19029 0.25233 0.94875
vn 0.13073 0.25293 0.95861
vn 0.12932 0.25362 0.95862
vn 0.19434 -0.25224 -0.94795
vn 0.16798 -0.82625 -0.53767
vn 0.21592 0.25279 0.94312
vn 0.21539 0.25378 0.94297
vn 0.19289 0.25248 0.94818
vn 0.12722 -0.253 0.95906
vn 0.05337 -0.25867 0.96449
vn 0.12868 -0.25358 0.95872
vn 0.13073 0.25293 -0.95861
vn 0.19078 0.25175 -0.9488
vn 0.12932 0.25362 -0.95862
vn 0.16888 -0.82561 0.53837
vn 0.17233 -0.82666 0.53566
vn 0.17441 0.82536 0.537
vn 0.054044 0.25864 0.96446
vn 0.052262 0.25975 0.96426
vn 0.065356 -0.8408 0.53739
vn 0.19369 -0.25166 0.94823
vn 0.19125 -0.25312 0.94834
vn 0.19175 -0.25254 -0.9484
vn 0.06792 -0.8415 0.53597
vn 0.19354 0.25307 -0.94789
vn 0.054044 0.25864 -0.96446
vn 0.055236 -0.25971 -0.96411
vn 0.052262 0.25975 -0.96426
vn 0.067259 0.84154 0.536
vn 0.13521 0.83084 0.53984
vn 0.066053 0.84075 0.53738
vn 0.21646 0.82002 0.52982
vn 0.22203 0.81517 0.53498
vn 0.055236 -0.25971 0.96411
vn 0.17121 0.82627 -0.53662
vn 0.16932 0.82555 -0.53833
vn 0.13489 0.83477 -0.53382
vn 0.21264 -0.25282 -0.94386
vn 0.18324 -0.25311 -0.94993
vn 0.18846 -0.2484 -0.95015
vn 0.21264 0.25282 -0.94386
vn 0.21322 0.25386 -0.94345
vn 0.18402 0.25307 0.94978
vn 0.17839 -0.24887 0.95197
vn 0.21592 -0.25279 0.94312
vn 0.18402 -0.25307 0.94978
vn 0.21322 -0.25386 -0.94345
vn 0.28642 -0.80802 0.51485
vn 0.34801 -0.78807 0.50777
vn 0.34573 -0.79128 0.50432
vn 0.18846 0.2484 -0.95015
vn 0.18324 0.25311 -0.94993
vn 0.21495 0.82033 -0.52996
vn 0.20852 0.81766 -0.53662
vn 0.29062 0.80616 -0.51541
vn 0.22203 -0.81517 0.53498
vn 0.21646 -0.82002 0.52982
vn 0.17839 0.24887 0.95197
vn 0.28037 -0.82438 -0.49173
vn -0.46641 -0.058723 0.88262
vn 0.21495 -0.82033 -0.52996
vn 0.29062 -0.80616 -0.51541
vn 0.21539 -0.25378 0.94297
vn 0.20852 -0.81766 -0.53662
vn -0.10455 0.83883 -0.53427
vn -0.50359 0.13288 0.85366
vn -0.069842 -0.25947 0.96322
vn 0.21114 0.81934 -0.53302
vn 0.17419 0.82484 0.53787
vn 0.34504 -0.79225 0.50328
vn 0.34927 0.79093 -0.50244
vn 0.34927 -0.79093 -0.50244
vn 0.34504 0.79225 0.50328
vn 0.21454 0.82104 -0.52902
vn 0.21382 0.81827 0.53359
vn 0 0.84345 0.53721
vn 0.06792 0.8415 -0.53597
vn 0.069955 0.84138 -0.5359
vn 0 0.84345 -0.53721
vn 0.34502 0.789 -0.50837
vt 0.21875 0.29991
vt 0.21875 0.27508
vt 0.21875 0.31257
vt 0.21875 0.41819
vt 0.21875 0.39722
vt 0.21875 0.31819
vt 0.21875 0.29597
vt 0.21875 0.3466
vt 0.21875 0.32659
vt 0.21875 0.31831
vt 0.21875 0.375
vt 0.21875 0.3666
vt 0.21875 0.37489
vt 0.21875 0.38677
vt 0.21875 0.30643
vt 0.21875 0.275
vt 0.21875 0.27541
vt 0.21875 0.30644
vt 0.21875 0.27859
vt 0.21875 0.30665
vt 0.21875 0.30707
vt 0.21875 0.30936
vt 0.21875 0.31407
vt 0.21875 0.475
vt 0.21875 0.41263
vt 0.21875 0.40756
vt 0.21875 0.38378
vt 0.21875 0.40624
vt 0.21875 0.38395
vt 0.21875 0.38687
vt 0.21875 0.38373
vt 0.21875 0.37953
vt 0.21875 0.37964
vt 0.21875 0.3894
vt 0.21875 0.37955
vt 0.21875 0.38361
vt 0.21875 0.38091
vt 0.21875 0.37963
vt 0.21875 0.39789
vt 0.21875 0.40248
vt 0.21875 0.40285
vt 0.21875 0.40914
vt 0.21875 0.30466
vt 0.21875 0.30311
vt 0.21875 0.30709
vt 0.21875 0.31305
vt 0.21875 0.31359
vt 0.21875 0.31408
vt 0.21875 0.40784
vt 0.21875 0.40202
vt 0.21875 0.31356
vt 0.34375 0.3466
vt 0.34375 0.39329
vt 0.34375 0.31257
vt 0.34375 0.29848
vt 0.34375 0.33401
vt 0.34375 0.35919
vt 0.34375 0.38062
vt 0.34375 0.3644
vt 0.34375 0.28057
vt 0.34375 0.29991
vt 0.34375 0.30644
vt 0.34375 0.32879
vt 0.34375 0.39472
vt 0.34375 0.38091
vt 0.34375 0.37959
vt 0.34375 0.37963
vt 0.34375 0.38395
vt 0.34375 0.38687
vt 0.34375 0.39373
vt 0.34375 0.41263
vt 0.34375 0.30466
vt 0.34375 0.30707
vt 0.34375 0.29947
vt 0.34375 0.32327
vt 0.34375 0.31327
vt 0.34375 0.31356
vt 0.34375 0.37964
vt 0.34375 0.36993
vt 0.34375 0.37992
vt 0.34375 0.38373
vt 0.34375 0.30709
vt 0.34375 0.30311
vt 0.34375 0.38378
vt 0.34375 0.38361
vt 0.34375 0.30936
vt 0.34375 0.38675
vt 0.34375 0.28981
vt 0.34375 0.40914
vt 0.34375 0.40285
vt 0.34375 0.37489
vt 0.34375 0.3666
vt 0.34375 0.40248
vt 0.34375 0.40784
vt 0.34375 0.32659
vt 0.34375 0.31361
vt 0.34375 0.31305
vt 0.34375 0.31359
vt 0.34375 0.31831
vt 0.34375 0.40202
vt 0.34375 0.31408
vt 0.34375 0.37955
vt 0.34375 0.31407
vt 0.34375 0.37953
vt 0.34375 0.39789
vt 0.34375 0.40756
vt 0.46875 0.13361
vt 0.46875 0.13395
vt 0.46875 0.13378
usemtl colormap
f 3/3/1 2/2/1 1/1/1
f 1/1/2 2/2/2 3/3/2
f 6/5/4 5/5/4 4/4/3
f 9/8/7 8/7/6 7/6/5
f 11/10/10 10/9/9 7/6/8
f 14/8/13 13/9/12 12/8/11
f 15/8/15 7/6/5 10/9/14
f 16/11/18 9/8/17 15/8/16
f 16/11/18 15/8/16 17/12/19
f 19/14/22 16/11/21 18/13/20
f 20/8/23 8/7/6 9/8/7
f 21/12/26 19/14/25 18/13/24
f 6/5/28 19/14/25 22/11/27
f 25/6/31 24/15/30 23/7/29
f 4/4/32 16/11/21 19/14/22
f 13/9/34 11/10/33 24/15/30
f 22/11/37 21/12/36 12/8/35
f 12/8/11 13/9/12 25/6/38
f 5/5/39 9/8/17 16/11/18
f 26/8/41 25/6/38 23/7/40
f 29/3/42 28/1/42 27/2/42
f 27/2/43 28/1/43 29/3/43
f 24/15/30 30/16/44 23/7/29
f 7/6/8 8/7/46 30/16/45
f 6/5/48 22/11/37 26/8/47
f 11/10/10 7/6/8 24/15/49
f 9/8/7 7/6/5 15/8/15
f 4/4/32 5/5/50 16/11/21
f 21/12/36 14/8/51 12/8/35
f 22/11/37 12/8/35 26/8/47
f 26/8/41 12/8/11 25/6/38
f 33/18/52 32/17/52 31/1/52
f 31/1/53 32/17/53 33/18/53
f 13/9/34 24/15/30 25/6/31
f 23/7/54 30/16/3 8/7/54
f 4/4/55 19/14/25 6/5/28
f 18/13/20 16/11/21 17/12/56
f 36/18/57 35/1/57 34/17/57
f 34/17/58 35/1/58 36/18/58
f 5/5/39 20/8/59 9/8/17
f 19/14/25 21/12/26 22/11/27
f 7/6/8 30/16/45 24/15/49
f 39/21/60 38/20/60 37/19/60
f 38/20/60 39/21/60 40/22/60
f 38/20/60 40/22/60 41/23/60
f 44/26/61 43/25/61 42/24/61
f 45/26/61 42/24/61 43/25/61
f 48/29/62 47/28/62 46/27/62
f 47/28/62 48/29/62 49/30/62
f 47/28/62 49/30/62 50/31/62
f 53/34/63 52/33/63 51/32/63
f 52/33/63 53/34/63 50/31/63
f 50/31/63 53/34/63 47/28/63
f 55/36/64 53/34/64 54/35/64
f 53/34/64 55/36/64 46/27/64
f 53/34/64 46/27/64 47/28/64
f 53/34/65 56/37/65 54/35/65
f 56/37/65 53/34/65 51/32/65
f 56/37/65 51/32/65 57/38/65
f 42/24/66 59/40/66 58/39/66
f 59/40/66 42/24/66 60/41/66
f 60/41/66 42/24/66 61/42/66
f 42/24/66 45/26/66 61/42/66
f 37/19/67 62/43/67 39/21/67
f 62/43/67 37/19/67 63/44/67
f 63/44/67 37/19/67 64/45/67
f 65/46/68 38/20/68 41/23/68
f 38/20/68 65/46/68 66/47/68
f 38/20/68 66/47/68 67/48/68
f 42/24/69 68/42/69 44/26/69
f 42/24/69 69/49/69 68/42/69
f 42/24/69 70/40/69 69/49/69
f 42/24/69 71/50/69 70/40/69
f 71/50/69 42/24/69 58/39/69
f 38/20/70 64/45/70 37/19/70
f 64/45/70 38/20/70 67/48/70
f 64/45/70 67/48/70 72/51/70
f 5/5/4 26/8/3 20/8/3
f 26/8/3 5/5/4 6/5/4
f 26/8/3 8/7/54 20/8/3
f 8/7/54 26/8/3 23/7/54
f 75/53/73 74/52/72 73/52/71
f 77/56/76 76/55/75 3/54/74
f 80/59/79 79/58/78 78/57/77
f 83/52/82 82/52/81 81/56/80
f 84/57/83 80/59/84 78/57/83
f 76/55/87 29/54/86 85/60/85
f 75/53/73 86/58/88 74/52/72
f 87/52/91 33/62/90 31/61/89
f 79/58/94 82/52/93 83/52/92
f 29/54/86 28/61/95 85/60/85
f 3/54/74 76/55/75 85/60/96
f 77/56/76 88/63/97 76/55/75
f 90/53/99 89/52/98 82/52/93
f 88/63/101 81/56/100 29/54/86
f 79/58/94 83/52/92 78/57/102
f 73/52/105 74/52/104 3/54/103
f 3/54/74 85/60/96 1/61/106
f 91/64/108 90/53/107 79/58/78
f 84/57/110 92/52/109 74/52/72
f 84/57/113 91/64/112 80/59/111
f 82/52/81 29/54/114 81/56/80
f 57/67/117 93/66/116 56/65/115
f 89/52/119 28/61/118 29/54/114
f 88/63/101 29/54/86 76/55/87
f 94/70/122 49/69/121 48/68/120
f 86/58/125 75/53/124 95/71/123
f 96/60/128 31/61/127 33/62/126
f 97/74/131 39/73/130 62/72/129
f 99/76/133 98/75/132 39/73/130
f 101/76/136 72/77/135 100/75/134
f 103/80/139 102/79/138 52/78/137
f 103/80/139 50/81/141 94/70/140
f 97/74/144 63/83/143 64/82/142
f 94/70/140 50/81/141 49/69/145
f 97/74/131 99/76/133 39/73/130
f 103/80/139 52/78/137 50/81/141
f 101/76/136 97/74/144 64/82/142
f 101/76/136 64/82/142 72/77/135
f 105/80/148 46/84/147 104/79/146
f 46/84/147 55/85/149 104/79/146
f 39/73/130 98/75/132 40/86/150
f 77/56/151 81/56/151 88/63/84
f 107/87/154 106/52/153 103/80/152
f 108/52/155 33/62/90 87/52/91
f 109/88/156 99/76/133 97/74/131
f 103/80/152 110/52/158 102/79/157
f 103/80/152 111/52/159 110/52/158
f 84/57/113 86/58/125 91/64/112
f 106/52/162 35/61/161 36/62/160
f 109/88/156 33/62/126 99/76/133
f 105/80/148 48/68/120 46/84/147
f 103/80/152 106/52/153 111/52/159
f 112/87/165 105/80/164 87/52/163
f 36/62/167 109/88/166 97/74/144
f 107/87/168 103/80/139 94/70/140
f 36/62/167 97/74/144 101/76/136
f 114/53/170 113/52/169 107/87/154
f 96/60/171 109/88/166 36/62/167
f 94/70/122 48/68/120 105/80/148
f 86/58/125 95/71/123 91/64/112
f 106/52/162 36/62/160 111/52/172
f 111/52/172 36/62/160 101/76/173
f 108/52/155 99/76/174 33/62/90
f 35/61/175 96/60/171 36/62/167
f 105/80/164 108/52/176 87/52/163
f 112/87/165 87/52/163 115/52/177
f 87/52/91 31/61/89 115/52/178
f 116/53/179 112/87/165 115/52/177
f 114/53/182 60/90/181 61/89/180
f 96/60/128 33/62/126 109/88/156
f 102/79/138 21/92/184 18/91/183
f 113/52/185 35/61/161 106/52/162
f 69/94/188 70/93/187 112/87/186
f 15/52/191 10/95/190 117/52/189
f 104/79/193 117/52/192 108/52/176
f 107/87/154 113/52/169 106/52/153
f 102/79/157 110/52/158 14/52/194
f 102/79/138 18/91/183 93/66/116
f 14/52/197 100/75/196 13/95/195
f 117/52/189 98/75/198 108/52/155
f 66/98/201 65/97/200 118/96/199
f 82/52/81 89/52/119 29/54/114
f 17/92/203 15/52/202 117/52/192
f 93/66/206 18/91/205 17/92/204
f 100/75/134 11/99/208 13/95/207
f 102/79/157 14/52/194 21/92/209
f 108/52/155 98/75/198 99/76/174
f 105/80/164 104/79/193 108/52/176
f 97/74/131 62/72/129 63/83/210
f 117/52/189 10/95/190 98/75/198
f 74/52/104 77/56/211 3/54/103
f 118/96/213 98/75/132 10/95/212
f 110/52/214 101/76/173 100/75/196
f 90/53/99 82/52/93 79/58/94
f 118/96/213 10/95/212 11/99/215
f 91/64/108 95/71/216 90/53/107
f 104/79/193 17/92/203 117/52/192
f 80/59/79 91/64/108 79/58/78
f 86/58/88 84/57/110 74/52/72
f 93/66/206 17/92/204 104/79/146
f 74/52/104 92/52/217 77/56/211
f 110/52/214 100/75/196 14/52/197
f 73/52/105 3/54/103 1/61/218
f 111/52/172 101/76/173 110/52/214
f 100/75/134 118/96/199 11/99/208
f 112/87/186 71/100/219 105/80/148
f 71/100/219 112/87/186 70/93/187
f 60/90/181 107/87/168 59/93/220
f 107/87/168 60/90/181 114/53/182
f 100/75/134 66/98/201 118/96/199
f 66/98/201 100/75/134 67/101/221
f 67/101/221 100/75/134 72/77/135
f 54/102/222 104/79/146 55/85/149
f 104/79/146 54/102/222 93/66/206
f 93/66/206 54/102/222 56/65/222
f 98/75/132 41/103/223 40/86/150
f 41/103/223 98/75/132 118/96/213
f 41/103/223 118/96/213 65/97/223
f 57/67/117 102/79/138 93/66/116
f 102/79/138 57/67/117 51/104/224
f 102/79/138 51/104/224 52/78/137
f 89/52/119 31/61/89 28/61/118
f 31/61/89 89/52/119 115/52/178
f 35/61/161 73/52/105 1/61/218
f 73/52/105 35/61/161 113/52/185
f 71/100/219 94/70/122 105/80/148
f 94/70/122 71/100/219 58/105/225
f 58/105/226 107/87/168 94/70/140
f 107/87/168 58/105/226 59/93/220
f 35/61/175 85/60/96 96/60/171
f 85/60/96 35/61/175 1/61/106
f 96/60/128 28/61/95 31/61/127
f 28/61/95 96/60/128 85/60/85
f 95/71/123 45/106/227 43/71/227
f 75/53/124 45/106/227 95/71/123
f 114/53/182 45/106/227 75/53/124
f 45/106/227 114/53/182 61/89/180
f 90/53/99 115/52/177 89/52/98
f 115/52/177 90/53/99 116/53/179
f 90/53/107 68/89/229 116/53/228
f 68/89/229 90/53/107 44/106/230
f 95/71/216 44/106/230 90/53/107
f 44/106/230 95/71/216 43/71/230
f 113/52/169 75/53/73 73/52/71
f 75/53/73 113/52/169 114/53/170
f 81/56/151 92/52/84 83/52/84
f 92/52/84 81/56/151 77/56/151
f 92/52/84 78/57/83 83/52/84
f 78/57/83 92/52/84 84/57/83
f 116/53/228 69/94/188 112/87/186
f 69/94/188 116/53/228 68/89/229
f 46/109/231 48/108/231 55/107/231
g fish
usemtl colormap
f 3/3/1 2/2/1 1/1/1
f 1/1/2 2/2/2 3/3/2
f 6/5/4 5/5/4 4/4/3
f 9/8/7 8/7/6 7/6/5
f 11/10/10 10/9/9 7/6/8
f 14/8/13 13/9/12 12/8/11
f 15/8/15 7/6/5 10/9/14
f 16/11/18 9/8/17 15/8/16
f 16/11/18 15/8/16 17/12/19
f 19/14/22 16/11/21 18/13/20
f 20/8/23 8/7/6 9/8/7
f 21/12/26 19/14/25 18/13/24
f 6/5/28 19/14/25 22/11/27
f 25/6/31 24/15/30 23/7/29
f 4/4/32 16/11/21 19/14/22
f 13/9/34 11/10/33 24/15/30
f 22/11/37 21/12/36 12/8/35
f 12/8/11 13/9/12 25/6/38
f 5/5/39 9/8/17 16/11/18
f 26/8/41 25/6/38 23/7/40
f 29/3/42 28/1/42 27/2/42
f 27/2/43 28/1/43 29/3/43
f 24/15/30 30/16/44 23/7/29
f 7/6/8 8/7/46 30/16/45
f 6/5/48 22/11/37 26/8/47
f 11/10/10 7/6/8 24/15/49
f 9/8/7 7/6/5 15/8/15
f 4/4/32 5/5/50 16/11/21
f 21/12/36 14/8/51 12/8/35
f 22/11/37 12/8/35 26/8/47
f 26/8/41 12/8/11 25/6/38
f 33/18/52 32/17/52 31/1/52
f 31/1/53 32/17/53 33/18/53
f 13/9/34 24/15/30 25/6/31
f 23/7/54 30/16/3 8/7/54
f 4/4/55 19/14/25 6/5/28
f 18/13/20 16/11/21 17/12/56
f 36/18/57 35/1/57 34/17/57
f 34/17/58 35/1/58 36/18/58
f 5/5/39 20/8/59 9/8/17
f 19/14/25 21/12/26 22/11/27
f 7/6/8 30/16/45 24/15/49
f 39/21/60 38/20/60 37/19/60
f 38/20/60 39/21/60 40/22/60
f 38/20/60 40/22/60 41/23/60
f 44/26/61 43/25/61 42/24/61
f 45/26/61 42/24/61 43/25/61
f 48/29/62 47/28/62 46/27/62
f 47/28/62 48/29/62 49/30/62
f 47/28/62 49/30/62 50/31/62
f 53/34/63 52/33/63 51/32/63
f 52/33/63 53/34/63 50/31/63
f 50/31/63 53/34/63 47/28/63
f 55/36/64 53/34/64 54/35/64
f 53/34/64 55/36/64 46/27/64
f 53/34/64 46/27/64 47/28/64
f 53/34/65 56/37/65 54/35/65
f 56/37/65 53/34/65 51/32/65
f 56/37/65 51/32/65 57/38/65
f 42/24/66 59/40/66 58/39/66
f 59/40/66 42/24/66 60/41/66
f 60/41/66 42/24/66 61/42/66
f 42/24/66 45/26/66 61/42/66
f 37/19/67 62/43/67 39/21/67
f 62/43/67 37/19/67 63/44/67
f 63/44/67 37/19/67 64/45/67
f 65/46/68 38/20/68 41/23/68
f 38/20/68 65/46/68 66/47/68
f 38/20/68 66/47/68 67/48/68
f 42/24/69 68/42/69 44/26/69
f 42/24/69 69/49/69 68/42/69
f 42/24/69 70/40/69 69/49/69
f 42/24/69 71/50/69 70/40/69
f 71/50/69 42/24/69 58/39/69
f 38/20/70 64/45/70 37/19/70
f 64/45/70 38/20/70 67/48/70
f 64/45/70 67/48/70 72/51/70
f 5/5/4 26/8/3 20/8/3
f 26/8/3 5/5/4 6/5/4
f 26/8/3 8/7/54 20/8/3
f 8/7/54 26/8/3 23/7/54
f 75/53/73 74/52/72 73/52/71
f 77/56/76 76/55/75 3/54/74
f 80/59/79 79/58/78 78/57/77
f 83/52/82 82/52/81 81/56/80
f 84/57/83 80/59/84 78/57/83
f 76/55/87 29/54/86 85/60/85
f 75/53/73 86/58/88 74/52/72
f 87/52/91 33/62/90 31/61/89
f 79/58/94 82/52/93 83/52/92
f 29/54/86 28/61/95 85/60/85
f 3/54/74 76/55/75 85/60/96
f 77/56/76 88/63/97 76/55/75
f 90/53/99 89/52/98 82/52/93
f 88/63/101 81/56/100 29/54/86
f 79/58/94 83/52/92 78/57/102
f 73/52/105 74/52/104 3/54/103
f 3/54/74 85/60/96 1/61/106
f 91/64/108 90/53/107 79/58/78
f 84/57/110 92/52/109 74/52/72
f 84/57/113 91/64/112 80/59/111
f 82/52/81 29/54/114 81/56/80
f 57/67/117 93/66/116 56/65/115
f 89/52/119 28/61/118 29/54/114
f 88/63/101 29/54/86 76/55/87
f 94/70/122 49/69/121 48/68/120
f 86/58/125 75/53/124 95/71/123
f 96/60/128 31/61/127 33/62/126
f 97/74/131 39/73/130 62/72/129
f 99/76/133 98/75/132 39/73/130
f 101/76/136 72/77/135 100/75/134
f 103/80/139 102/79/138 52/78/137
f 103/80/139 50/81/141 94/70/140
f 97/74/144 63/83/143 64/82/142
f 94/70/140 50/81/141 49/69/145
f 97/74/131 99/76/133 39/73/130
f 103/80/139 52/78/137 50/81/141
f 101/76/136 97/74/144 64/82/142
f 101/76/136 64/82/142 72/77/135
f 105/80/148 46/84/147 104/79/146
f 46/84/147 55/85/149 104/79/146
f 39/73/130 98/75/132 40/86/150
f 77/56/151 81/56/151 88/63/84
f 107/87/154 106/52/153 103/80/152
f 108/52/155 33/62/90 87/52/91
f 109/88/156 99/76/133 97/74/131
f 103/80/152 110/52/158 102/79/157
f 103/80/152 111/52/159 110/52/158
f 84/57/113 86/58/125 91/64/112
f 106/52/162 35/61/161 36/62/160
f 109/88/156 33/62/126 99/76/133
f 105/80/148 48/68/120 46/84/147
f 103/80/152 106/52/153 111/52/159
f 112/87/165 105/80/164 87/52/163
f 36/62/167 109/88/166 97/74/144
f 107/87/168 103/80/139 94/70/140
f 36/62/167 97/74/144 101/76/136
f 114/53/170 113/52/169 107/87/154
f 96/60/171 109/88/166 36/62/167
f 94/70/122 48/68/120 105/80/148
f 86/58/125 95/71/123 91/64/112
f 106/52/162 36/62/160 111/52/172
f 111/52/172 36/62/160 101/76/173
f 108/52/155 99/76/174 33/62/90
f 35/61/175 96/60/171 36/62/167
f 105/80/164 108/52/176 87/52/163
f 112/87/165 87/52/163 115/52/177
f 87/52/91 31/61/89 115/52/178
f 116/53/179 112/87/165 115/52/177
f 114/53/182 60/90/181 61/89/180
f 96/60/128 33/62/126 109/88/156
f 102/79/138 21/92/184 18/91/183
f 113/52/185 35/61/161 106/52/162
f 69/94/188 70/93/187 112/87/186
f 15/52/191 10/95/190 117/52/189
f 104/79/193 117/52/192 108/52/176
f 107/87/154 113/52/169 106/52/153
f 102/79/157 110/52/158 14/52/194
f 102/79/138 18/91/183 93/66/116
f 14/52/197 100/75/196 13/95/195
f 117/52/189 98/75/198 108/52/155
f 66/98/201 65/97/200 118/96/199
f 82/52/81 89/52/119 29/54/114
f 17/92/203 15/52/202 117/52/192
f 93/66/206 18/91/205 17/92/204
f 100/75/134 11/99/208 13/95/207
f 102/79/157 14/52/194 21/92/209
f 108/52/155 98/75/198 99/76/174
f 105/80/164 104/79/193 108/52/176
f 97/74/131 62/72/129 63/83/210
f 117/52/189 10/95/190 98/75/198
f 74/52/104 77/56/211 3/54/103
f 118/96/213 98/75/132 10/95/212
f 110/52/214 101/76/173 100/75/196
f 90/53/99 82/52/93 79/58/94
f 118/96/213 10/95/212 11/99/215
f 91/64/108 95/71/216 90/53/107
f 104/79/193 17/92/203 117/52/192
f 80/59/79 91/64/108 79/58/78
f 86/58/88 84/57/110 74/52/72
f 93/66/206 17/92/204 104/79/146
f 74/52/104 92/52/217 77/56/211
f 110/52/214 100/75/196 14/52/197
f 73/52/105 3/54/103 1/61/218
f 111/52/172 101/76/173 110/52/214
f 100/75/134 118/96/199 11/99/208
f 112/87/186 71/100/219 105/80/148
f 71/100/219 112/87/186 70/93/187
f 60/90/181 107/87/168 59/93/220
f 107/87/168 60/90/181 114/53/182
f 100/75/134 66/98/201 118/96/199
f 66/98/201 100/75/134 67/101/221
f 67/101/221 100/75/134 72/77/135
f 54/102/222 104/79/146 55/85/149
f 104/79/146 54/102/222 93/66/206
f 93/66/206 54/102/222 56/65/222
f 98/75/132 41/103/223 40/86/150
f 41/103/223 98/75/132 118/96/213
f 41/103/223 118/96/213 65/97/223
f 57/67/117 102/79/138 93/66/116
f 102/79/138 57/67/117 51/104/224
f 102/79/138 51/104/224 52/78/137
f 89/52/119 31/61/89 28/61/118
f 31/61/89 89/52/119 115/52/178
f 35/61/161 73/52/105 1/61/218
f 73/52/105 35/61/161 113/52/185
f 71/100/219 94/70/122 105/80/148
f 94/70/122 71/100/219 58/105/225
f 58/105/226 107/87/168 94/70/140
f 107/87/168 58/105/226 59/93/220
f 35/61/175 85/60/96 96/60/171
f 85/60/96 35/61/175 1/61/106
f 96/60/128 28/61/95 31/61/127
f 28/61/95 96/60/128 85/60/85
f 95/71/123 45/106/227 43/71/227
f 75/53/124 45/106/227 95/71/123
f 114/53/182 45/106/227 75/53/124
f 45/106/227 114/53/182 61/89/180
f 90/53/99 115/52/177 89/52/98
f 115/52/177 90/53/99 116/53/179
f 90/53/107 68/89/229 116/53/228
f 68/89/229 90/53/107 44/106/230
f 95/71/216 44/106/230 90/53/107
f 44/106/230 95/71/216 43/71/230
f 113/52/169 75/53/73 73/52/71
f 75/53/73 113/52/169 114/53/170
f 81/56/151 92/52/84 83/52/84
f 92/52/84 81/56/151 77/56/151
f 92/52/84 78/57/83 83/52/84
f 78/57/83 92/52/84 84/57/83
f 116/53/228 69/94/188 112/87/186
f 69/94/188 116/53/228 68/89/229
f 46/109/231 48/108/231 55/107/231
