mtllib grass.mtl
g grass
v 0.017217 0.0432 -0.091103
v 0.11724 0.0432 -0.033353
v 0.079233 0.0912 -0.083018
v 0.017217 0 -0.080603
v 0.10815 0 -0.028103
v 0.10833 0.1425 0.021437
v 0.084319 0.0675 -0.036313
v 0.084319 0.0675 0.079187
v 0.075226 1.8048e-16 -0.031063
v 0.075226 1.8048e-16 0.073937
v 0.063917 0.0432 0.013826
v -0.036109 0.0432 0.071576
v 0.025907 0.0912 0.063491
v 0.054824 0 0.0085758
v -0.036109 0 0.061076
v -0.029075 0.0432 -0.12865
v -0.07874 0.0912 -0.090644
v -0.086825 0.0432 -0.028628
v -0.023825 1.8048e-16 -0.11956
v -0.076325 1.8048e-16 -0.028628
v -0.11724 0.0675 0.02928
v -0.017217 0.0675 -0.02847
v -0.079233 0.1425 -0.020385
v -0.10815 1.8048e-16 0.03453
v -0.017217 1.8048e-16 -0.01797
v -0.01168 0.0675 0.12865
v -0.11171 0.0675 0.070904
v -0.073696 0.1425 0.12057
v -0.01168 1.8048e-16 0.11815
v -0.10261 1.8048e-16 0.065654
vn 0.47848 -0.29021 -0.82876
vn 0.44719 -0.44731 -0.77456
vn -0.44719 0.44731 0.77456
vn -0.47848 0.29021 0.82876
vn 0.48928 -0.20598 -0.84745
vn -0.48928 0.20598 0.84745
vn 0.9524 -0.30485 0
vn 0.97973 -0.20033 0
vn -0.97973 0.20033 0
vn -0.9524 0.30485 0
vn 0.99105 -0.13351 0
vn -0.99105 0.13351 0
vn 0.47848 -0.29021 0.82876
vn 0.44719 -0.44731 0.77456
vn -0.44719 0.44731 -0.77456
vn -0.47848 0.29021 -0.82876
vn 0.48928 -0.20598 0.84745
vn -0.48928 0.20598 -0.84745
vn -0.82876 -0.29021 -0.47848
vn -0.77456 -0.44731 -0.44719
vn 0.82876 0.29021 0.47848
vn 0.77456 0.44731 0.44719
vn -0.84745 -0.20598 -0.48928
vn 0.84745 0.20598 0.48928
vn -0.48986 -0.20033 -0.84847
vn -0.4762 -0.30485 -0.8248
vn 0.4762 0.30485 0.8248
vn 0.48986 0.20033 0.84847
vn -0.49552 -0.13351 -0.85827
vn 0.49552 0.13351 0.85827
vn -0.48986 -0.20033 0.84847
vn -0.4762 -0.30485 0.8248
vn 0.4762 0.30485 -0.8248
vn 0.48986 0.20033 -0.84847
vn -0.49552 -0.13351 0.85827
vn 0.49552 0.13351 -0.85827
vt 0.09375 0.37003
vt 0.09375 0.41023
vt 0.09375 0.33385
vt 0.09375 0.38364
vt 0.09375 0.36099
vt 0.09375 0.3406
vt 0.09375 0.40701
vt 0.09375 0.39604
vt 0.09375 0.41689
vt 0.09375 0.35324
vt 0.09375 0.43043
vt 0.09375 0.28377
vt 0.09375 0.3428
vt 0.09375 0.37581
vt 0.09375 0.3131
vt 0.09375 0.36872
vt 0.09375 0.43044
vt 0.09375 0.31317
usemtl colormap
f 3/2/2 2/1/1 1/1/1
f 1/1/4 2/1/4 3/2/3
f 1/1/1 5/3/5 4/3/5
f 5/3/5 1/1/1 2/1/1
f 4/3/6 5/3/6 1/1/4
f 2/1/4 1/1/4 5/3/6
f 8/5/8 7/5/8 6/4/7
f 6/4/10 7/5/9 8/5/9
f 8/5/8 9/6/11 7/5/8
f 9/6/11 8/5/8 10/6/11
f 7/5/9 9/6/12 8/5/9
f 10/6/12 8/5/9 9/6/12
f 13/8/14 12/7/13 11/7/13
f 11/7/16 12/7/16 13/8/15
f 11/7/13 15/9/17 14/9/17
f 15/9/17 11/7/13 12/7/13
f 14/9/18 15/9/18 11/7/16
f 12/7/16 11/7/16 15/9/18
f 18/10/19 17/11/20 16/10/19
f 16/10/21 17/11/22 18/10/21
f 19/12/23 18/10/19 16/10/19
f 18/10/19 19/12/23 20/12/23
f 16/10/21 18/10/21 19/12/24
f 20/12/24 19/12/24 18/10/21
f 23/14/26 22/13/25 21/13/25
f 21/13/28 22/13/28 23/14/27
f 21/13/25 25/15/29 24/15/29
f 25/15/29 21/13/25 22/13/25
f 24/15/30 25/15/30 21/13/28
f 22/13/28 21/13/28 25/15/30
f 28/17/32 27/16/31 26/16/31
f 26/16/34 27/16/34 28/17/33
f 26/16/31 30/18/35 29/18/35
f 30/18/35 26/16/31 27/16/31
f 29/18/36 30/18/36 26/16/34
f 27/16/34 26/16/34 30/18/36
g grass
usemtl colormap
f 3/2/2 2/1/1 1/1/1
f 1/1/4 2/1/4 3/2/3
f 1/1/1 5/3/5 4/3/5
f 5/3/5 1/1/1 2/1/1
f 4/3/6 5/3/6 1/1/4
f 2/1/4 1/1/4 5/3/6
f 8/5/8 7/5/8 6/4/7
f 6/4/10 7/5/9 8/5/9
f 8/5/8 9/6/11 7/5/8
f 9/6/11 8/5/8 10/6/11
f 7/5/9 9/6/12 8/5/9
f 10/6/12 8/5/9 9/6/12
f 13/8/14 12/7/13 11/7/13
f 11/7/16 12/7/16 13/8/15
f 11/7/13 15/9/17 14/9/17
f 15/9/17 11/7/13 12/7/13
f 14/9/18 15/9/18 11/7/16
f 12/7/16 11/7/16 15/9/18
f 18/10/19 17/11/20 16/10/19
f 16/10/21 17/11/22 18/10/21
f 19/12/23 18/10/19 16/10/19
f 18/10/19 19/12/23 20/12/23
f 16/10/21 18/10/21 19/12/24
f 20/12/24 19/12/24 18/10/21
f 23/14/26 22/13/25 21/13/25
f 21/13/28 22/13/28 23/14/27
f 21/13/25 25/15/29 24/15/29
f 25/15/29 21/13/25 22/13/25
f 24/15/30 25/15/30 21/13/28
f 22/13/28 21/13/28 25/15/30
f 28/17/32 27/16/31 26/16/31
f 26/16/34 27/16/34 28/17/33
f 26/16/31 30/18/35 29/18/35
f 30/18/35 26/16/31 27/16/31
f 29/18/36 30/18/36 26/16/34
f 27/16/34 26/16/34 30/18/36
