mtllib grass-large.mtl
g grass-large
v -0.13097 0.0675 0.23365
v -0.231 0.0675 0.1759
v -0.19299 0.1425 0.22557
v -0.13097 1.8048e-16 0.22315
v -0.22191 1.8048e-16 0.17065
v -0.23654 0.0675 0.13428
v -0.13651 0.0675 0.07653
v -0.19853 0.1425 0.084615
v -0.22744 1.8048e-16 0.13953
v -0.13651 1.8048e-16 0.08703
v -0.055377 0.0432 0.11883
v -0.1554 0.0432 0.17658
v -0.093387 0.0912 0.16849
v -0.064471 0 0.11358
v -0.1554 0 0.16608
v -0.10208 0.0432 0.013897
v -0.0020514 0.0432 0.071647
v -0.040061 0.0912 0.021982
v -0.10208 0 0.024397
v -0.011145 0 0.076897
v -0.14837 0.0432 -0.023654
v -0.19803 0.0912 0.014356
v -0.20612 0.0432 0.076372
v -0.14312 1.8048e-16 -0.014561
v -0.19562 1.8048e-16 0.076372
v -0.13792 0.0432 -0.028175
v -0.23795 0.0432 -0.085925
v -0.19994 0.0912 -0.03626
v -0.13792 1.8048e-16 -0.038675
v -0.22886 1.8048e-16 -0.091175
v -0.14265 0.0432 -0.23224
v -0.19231 0.0912 -0.19423
v -0.2004 0.0432 -0.13222
v -0.1374 0 -0.22315
v -0.1899 0 -0.13222
v -0.14561 0.0675 -0.19932
v -0.030107 0.0675 -0.19932
v -0.087857 0.1425 -0.22333
v -0.14036 1.8048e-16 -0.19023
v -0.035357 1.8048e-16 -0.19023
v -0.045804 0.0912 -0.14091
v -0.095469 0.0432 -0.17892
v -0.037719 0.0432 -0.078891
v -0.10072 0 -0.16982
v -0.048219 0 -0.078891
v -0.13776 0.0675 -0.097783
v -0.12968 0.1425 -0.035767
v -0.080015 0.0675 0.002243
v -0.12726 1.8048e-16 -0.097783
v -0.074765 1.8048e-16 -0.0068503
v 0.011275 0.1425 -0.041304
v 0.01936 0.0675 -0.10332
v -0.03839 0.0675 -0.0032945
v 0.0088597 1.8048e-16 -0.10332
v -0.04364 1.8048e-16 -0.012388
v -0.010969 0.1425 0.12644
v -0.034975 0.0675 0.068687
v -0.034975 0.0675 0.18419
v -0.044068 1.8048e-16 0.073937
v -0.044068 1.8048e-16 0.17894
v 0.0034626 0.0675 0.14428
v 0.10349 0.0675 0.08653
v 0.041472 0.1425 0.094615
v 0.012556 1.8048e-16 0.14953
v 0.10349 1.8048e-16 0.09703
v 0.091631 0.0432 -0.013654
v 0.041966 0.0912 0.024356
v 0.033881 0.0432 0.086372
v 0.096881 1.8048e-16 -0.0045609
v 0.044381 1.8048e-16 0.086372
v 0.18462 0.0432 0.12883
v 0.084597 0.0432 0.18658
v 0.14661 0.0912 0.17849
v 0.17553 0 0.12358
v 0.084597 0 0.17608
v 0.10903 0.0675 0.24365
v 0.0090001 0.0675 0.1859
v 0.04701 0.1425 0.23557
v 0.10903 1.8048e-16 0.23315
v 0.018093 1.8048e-16 0.18065
v 0.13792 0.0432 0.023897
v 0.23795 0.0432 0.081647
v 0.19994 0.0912 0.031982
v 0.13792 0 0.034397
v 0.22886 0 0.086897
v 0.13225 0.0432 -0.017153
v 0.032221 0.0432 -0.074903
v 0.070231 0.0912 -0.025238
v 0.13225 9.0239e-17 -0.027653
v 0.041314 9.0239e-17 -0.080153
v 0.19945 0.0912 -0.024356
v 0.20753 0.0432 -0.086372
v 0.14978 0.0432 0.013654
v 0.19703 1.8048e-16 -0.086372
v 0.14453 1.8048e-16 0.0045609
v 0.23795 0.0675 -0.14428
v 0.13792 0.0675 -0.08653
v 0.19994 0.1425 -0.094615
v 0.22886 1.8048e-16 -0.14953
v 0.13792 1.8048e-16 -0.09703
v 0.056788 0.0432 -0.12883
v 0.15681 0.0432 -0.18658
v 0.094798 0.0912 -0.17849
v 0.065882 0 -0.12358
v 0.15681 0 -0.17608
v 0.13239 0.0675 -0.24365
v 0.23241 0.0675 -0.1859
v 0.1944 0.1425 -0.23557
v 0.13239 1.8048e-16 -0.23315
v 0.22332 1.8048e-16 -0.18065
v 0.036386 0.0675 -0.19419
v 0.01238 0.1425 -0.13644
v 0.036386 0.0675 -0.078687
v 0.04548 1.8048e-16 -0.18894
v 0.04548 1.8048e-16 -0.083937
v 0.22903 0.1425 0.13644
v 0.20502 0.0675 0.078687
v 0.20502 0.0675 0.19419
v 0.19593 1.8048e-16 0.083937
v 0.19593 1.8048e-16 0.18894
vn -0.48986 -0.20033 0.84847
vn -0.4762 -0.30485 0.8248
vn 0.4762 0.30485 -0.8248
vn 0.48986 0.20033 -0.84847
vn -0.49552 -0.13351 0.85827
vn 0.49552 0.13351 -0.85827
vn -0.48986 -0.20033 -0.84847
vn -0.4762 -0.30485 -0.8248
vn 0.4762 0.30485 0.8248
vn 0.48986 0.20033 0.84847
vn -0.49552 -0.13351 -0.85827
vn 0.49552 0.13351 0.85827
vn 0.47848 -0.29021 0.82876
vn 0.44719 -0.44731 0.77456
vn -0.44719 0.44731 -0.77456
vn -0.47848 0.29021 -0.82876
vn 0.48928 -0.20598 0.84745
vn -0.48928 0.20598 -0.84745
vn 0.47848 -0.29021 -0.82876
vn 0.44719 -0.44731 -0.77456
vn -0.44719 0.44731 0.77456
vn -0.47848 0.29021 0.82876
vn 0.48928 -0.20598 -0.84745
vn -0.48928 0.20598 0.84745
vn -0.82876 -0.29021 -0.47848
vn -0.77456 -0.44731 -0.44719
vn 0.82876 0.29021 0.47848
vn 0.77456 0.44731 0.44719
vn -0.84745 -0.20598 -0.48928
vn 0.84745 0.20598 0.48928
vn -0.47848 -0.29021 0.82876
vn -0.44719 -0.44731 0.77456
vn 0.44719 0.44731 -0.77456
vn 0.47848 0.29021 -0.82876
vn -0.48928 -0.20598 0.84745
vn 0.48928 0.20598 -0.84745
vn -0.82876 -0.29021 -0.47848
vn -0.77456 -0.44731 -0.44719
vn 0.82876 0.29021 0.47848
vn 0.77456 0.44731 0.44719
vn -0.84745 -0.20598 -0.48928
vn 0.84745 0.20598 0.48928
vn 0 -0.20033 -0.97973
vn 0 -0.30485 -0.9524
vn 0 0.30485 0.9524
vn 0 0.20033 0.97973
vn 0 -0.13351 -0.99105
vn 0 0.13351 0.99105
vn 0.77456 -0.44731 -0.44719
vn 0.82876 -0.29021 -0.47848
vn -0.82876 0.29021 0.47848
vn -0.77456 0.44731 0.44719
vn 0.84745 -0.20598 -0.48928
vn -0.84745 0.20598 0.48928
vn -0.84847 -0.20033 0.48986
vn -0.8248 -0.30485 0.4762
vn 0.84847 0.20033 -0.48986
vn 0.8248 0.30485 -0.4762
vn -0.85827 -0.13351 0.49552
vn 0.85827 0.13351 -0.49552
vn 0.8248 -0.30485 0.4762
vn 0.84847 -0.20033 0.48986
vn -0.84847 0.20033 -0.48986
vn -0.8248 0.30485 -0.4762
vn 0.85827 -0.13351 0.49552
vn -0.85827 0.13351 -0.49552
vn 0.9524 -0.30485 0
vn 0.97973 -0.20033 0
vn -0.97973 0.20033 0
vn -0.9524 0.30485 0
vn 0.99105 -0.13351 0
vn -0.99105 0.13351 0
vn 0.77456 -0.44731 0.44719
vn 0.82876 -0.29021 0.47848
vn -0.82876 0.29021 -0.47848
vn -0.77456 0.44731 -0.44719
vn 0.84745 -0.20598 0.48928
vn -0.84745 0.20598 -0.48928
vn 0.48986 -0.20033 0.84847
vn 0.4762 -0.30485 0.8248
vn -0.4762 0.30485 -0.8248
vn -0.48986 0.20033 -0.84847
vn 0.49552 -0.13351 0.85827
vn -0.49552 0.13351 -0.85827
vn -0.47848 -0.29021 -0.82876
vn -0.44719 -0.44731 -0.77456
vn 0.44719 0.44731 0.77456
vn 0.47848 0.29021 0.82876
vn -0.48928 -0.20598 -0.84745
vn 0.48928 0.20598 0.84745
vn 0.48986 -0.20033 -0.84847
vn 0.4762 -0.30485 -0.8248
vn -0.4762 0.30485 0.8248
vn -0.48986 0.20033 0.84847
vn 0.49552 -0.13351 -0.85827
vn -0.49552 0.13351 0.85827
vn -0.97973 -0.20033 0
vn -0.9524 -0.30485 0
vn 0.97973 0.20033 0
vn 0.9524 0.30485 0
vn -0.99105 -0.13351 0
vn 0.99105 0.13351 0
vt 0.09375 0.3431
vt 0.09375 0.3855
vt 0.09375 0.30495
vt 0.09375 0.40392
vt 0.09375 0.41627
vt 0.09375 0.3928
vt 0.09375 0.39837
vt 0.09375 0.38356
vt 0.09375 0.4117
vt 0.09375 0.39766
vt 0.09375 0.427
vt 0.09375 0.37127
vt 0.09375 0.37463
vt 0.09375 0.37359
vt 0.09375 0.37557
vt 0.09375 0.40183
vt 0.09375 0.39956
vt 0.09375 0.40387
vt 0.09375 0.36702
vt 0.09375 0.33899
vt 0.09375 0.39226
vt 0.09375 0.3853
vt 0.09375 0.39514
vt 0.09375 0.37645
vt 0.09375 0.40254
vt 0.09375 0.38541
vt 0.09375 0.36999
vt 0.09375 0.38985
vt 0.09375 0.38519
vt 0.09375 0.39405
vt 0.09375 0.4608
vt 0.09375 0.36655
vt 0.09375 0.28173
vt 0.09375 0.45719
vt 0.09375 0.36553
vt 0.09375 0.28304
vt 0.09375 0.32511
vt 0.09375 0.37633
vt 0.09375 0.27901
vt 0.09375 0.35203
vt 0.09375 0.41286
vt 0.09375 0.29729
vt 0.09375 0.43864
vt 0.09375 0.47167
vt 0.09375 0.40891
vt 0.09375 0.34909
vt 0.09375 0.40973
vt 0.09375 0.29452
vt 0.09375 0.36953
vt 0.09375 0.35903
vt 0.09375 0.37899
vt 0.09375 0.38109
vt 0.09375 0.33334
vt 0.09375 0.42406
vt 0.09375 0.37905
vt 0.09375 0.3494
vt 0.09375 0.32271
vt 0.09375 0.36791
vt 0.09375 0.36661
vt 0.09375 0.36908
vt 0.09375 0.36539
vt 0.09375 0.35526
vt 0.09375 0.37451
vt 0.09375 0.33935
vt 0.09375 0.40489
vt 0.09375 0.28036
vt 0.09375 0.40243
vt 0.09375 0.38238
vt 0.09375 0.42048
vt 0.09375 0.45304
vt 0.09375 0.43523
vt 0.09375 0.4192
usemtl colormap
f 3/2/2 2/1/1 1/1/1
f 1/1/4 2/1/4 3/2/3
f 1/1/1 5/3/5 4/3/5
f 5/3/5 1/1/1 2/1/1
f 4/3/6 5/3/6 1/1/4
f 2/1/4 1/1/4 5/3/6
f 8/5/8 7/4/7 6/4/7
f 6/4/10 7/4/10 8/5/9
f 6/4/7 10/6/11 9/6/11
f 10/6/11 6/4/7 7/4/7
f 9/6/12 10/6/12 6/4/10
f 7/4/10 6/4/10 10/6/12
f 13/8/14 12/7/13 11/7/13
f 11/7/16 12/7/16 13/8/15
f 11/7/13 15/9/17 14/9/17
f 15/9/17 11/7/13 12/7/13
f 14/9/18 15/9/18 11/7/16
f 12/7/16 11/7/16 15/9/18
f 18/11/20 17/10/19 16/10/19
f 16/10/22 17/10/22 18/11/21
f 16/10/19 20/12/23 19/12/23
f 20/12/23 16/10/19 17/10/19
f 19/12/24 20/12/24 16/10/22
f 17/10/22 16/10/22 20/12/24
f 23/13/25 22/14/26 21/13/25
f 21/13/27 22/14/28 23/13/27
f 24/15/29 23/13/25 21/13/25
f 23/13/25 24/15/29 25/15/29
f 21/13/27 23/13/27 24/15/30
f 25/15/30 24/15/30 23/13/27
f 28/17/32 27/16/31 26/16/31
f 26/16/34 27/16/34 28/17/33
f 26/16/31 30/18/35 29/18/35
f 30/18/35 26/16/31 27/16/31
f 29/18/36 30/18/36 26/16/34
f 27/16/34 26/16/34 30/18/36
f 33/19/37 32/20/38 31/19/37
f 31/19/39 32/20/40 33/19/39
f 34/21/41 33/19/37 31/19/37
f 33/19/37 34/21/41 35/21/41
f 31/19/39 33/19/39 34/21/42
f 35/21/42 34/21/42 33/19/39
f 38/23/44 37/22/43 36/22/43
f 36/22/46 37/22/46 38/23/45
f 36/22/43 40/24/47 39/24/47
f 40/24/47 36/22/43 37/22/43
f 39/24/48 40/24/48 36/22/46
f 37/22/46 36/22/46 40/24/48
f 43/26/50 42/26/50 41/25/49
f 41/25/52 42/26/51 43/26/51
f 43/26/50 44/27/53 42/26/50
f 44/27/53 43/26/50 45/27/53
f 42/26/51 44/27/54 43/26/51
f 45/27/54 43/26/51 44/27/54
f 48/28/55 47/29/56 46/28/55
f 46/28/57 47/29/58 48/28/57
f 49/30/59 48/28/55 46/28/55
f 48/28/55 49/30/59 50/30/59
f 46/28/57 48/28/57 49/30/60
f 50/30/60 49/30/60 48/28/57
f 53/32/62 52/32/62 51/31/61
f 51/31/64 52/32/63 53/32/63
f 52/32/62 55/33/65 54/33/65
f 55/33/65 52/32/62 53/32/62
f 54/33/66 55/33/66 52/32/63
f 53/32/63 52/32/63 55/33/66
f 58/35/68 57/35/68 56/34/67
f 56/34/70 57/35/69 58/35/69
f 58/35/68 59/36/71 57/35/68
f 59/36/71 58/35/68 60/36/71
f 57/35/69 59/36/72 58/35/69
f 60/36/72 58/35/69 59/36/72
f 63/38/8 62/37/7 61/37/7
f 61/37/10 62/37/10 63/38/9
f 61/37/7 65/39/11 64/39/11
f 65/39/11 61/37/7 62/37/7
f 64/39/12 65/39/12 61/37/10
f 62/37/10 61/37/10 65/39/12
f 68/40/25 67/41/26 66/40/25
f 66/40/27 67/41/28 68/40/27
f 69/42/29 68/40/25 66/40/25
f 68/40/25 69/42/29 70/42/29
f 66/40/27 68/40/27 69/42/30
f 70/42/30 69/42/30 68/40/27
f 73/44/14 72/43/13 71/43/13
f 71/43/16 72/43/16 73/44/15
f 71/43/13 75/45/17 74/45/17
f 75/45/17 71/43/13 72/43/13
f 74/45/18 75/45/18 71/43/16
f 72/43/16 71/43/16 75/45/18
f 78/47/2 77/46/1 76/46/1
f 76/46/4 77/46/4 78/47/3
f 76/46/1 80/48/5 79/48/5
f 80/48/5 76/46/1 77/46/1
f 79/48/6 80/48/6 76/46/4
f 77/46/4 76/46/4 80/48/6
f 83/50/20 82/49/19 81/49/19
f 81/49/22 82/49/22 83/50/21
f 81/49/19 85/51/23 84/51/23
f 85/51/23 81/49/19 82/49/19
f 84/51/24 85/51/24 81/49/22
f 82/49/22 81/49/22 85/51/24
f 88/53/32 87/52/31 86/52/31
f 86/52/34 87/52/34 88/53/33
f 86/52/31 90/54/35 89/54/35
f 90/54/35 86/52/31 87/52/31
f 89/54/36 90/54/36 86/52/34
f 87/52/34 86/52/34 90/54/36
f 93/56/74 92/56/74 91/55/73
f 91/55/76 92/56/75 93/56/75
f 93/56/74 94/57/77 92/56/74
f 94/57/77 93/56/74 95/57/77
f 92/56/75 94/57/78 93/56/75
f 95/57/78 93/56/75 94/57/78
f 98/59/80 97/58/79 96/58/79
f 96/58/82 97/58/82 98/59/81
f 96/58/79 100/60/83 99/60/83
f 100/60/83 96/58/79 97/58/79
f 99/60/84 100/60/84 96/58/82
f 97/58/82 96/58/82 100/60/84
f 103/62/86 102/61/85 101/61/85
f 101/61/88 102/61/88 103/62/87
f 101/61/85 105/63/89 104/63/89
f 105/63/89 101/61/85 102/61/85
f 104/63/90 105/63/90 101/61/88
f 102/61/88 101/61/88 105/63/90
f 108/65/92 107/64/91 106/64/91
f 106/64/94 107/64/94 108/65/93
f 106/64/91 110/66/95 109/66/95
f 110/66/95 106/64/91 107/64/91
f 109/66/96 110/66/96 106/64/94
f 107/64/94 106/64/94 110/66/96
f 113/67/97 112/68/98 111/67/97
f 111/67/99 112/68/100 113/67/99
f 114/69/101 113/67/97 111/67/97
f 113/67/97 114/69/101 115/69/101
f 111/67/99 113/67/99 114/69/102
f 115/69/102 114/69/102 113/67/99
f 118/71/68 117/71/68 116/70/67
f 116/70/70 117/71/69 118/71/69
f 118/71/68 119/72/71 117/71/68
f 119/72/71 118/71/68 120/72/71
f 117/71/69 119/72/72 118/71/69
f 120/72/72 118/71/69 119/72/72
g grass-large
usemtl colormap
f 3/2/2 2/1/1 1/1/1
f 1/1/4 2/1/4 3/2/3
f 1/1/1 5/3/5 4/3/5
f 5/3/5 1/1/1 2/1/1
f 4/3/6 5/3/6 1/1/4
f 2/1/4 1/1/4 5/3/6
f 8/5/8 7/4/7 6/4/7
f 6/4/10 7/4/10 8/5/9
f 6/4/7 10/6/11 9/6/11
f 10/6/11 6/4/7 7/4/7
f 9/6/12 10/6/12 6/4/10
f 7/4/10 6/4/10 10/6/12
f 13/8/14 12/7/13 11/7/13
f 11/7/16 12/7/16 13/8/15
f 11/7/13 15/9/17 14/9/17
f 15/9/17 11/7/13 12/7/13
f 14/9/18 15/9/18 11/7/16
f 12/7/16 11/7/16 15/9/18
f 18/11/20 17/10/19 16/10/19
f 16/10/22 17/10/22 18/11/21
f 16/10/19 20/12/23 19/12/23
f 20/12/23 16/10/19 17/10/19
f 19/12/24 20/12/24 16/10/22
f 17/10/22 16/10/22 20/12/24
f 23/13/25 22/14/26 21/13/25
f 21/13/27 22/14/28 23/13/27
f 24/15/29 23/13/25 21/13/25
f 23/13/25 24/15/29 25/15/29
f 21/13/27 23/13/27 24/15/30
f 25/15/30 24/15/30 23/13/27
f 28/17/32 27/16/31 26/16/31
f 26/16/34 27/16/34 28/17/33
f 26/16/31 30/18/35 29/18/35
f 30/18/35 26/16/31 27/16/31
f 29/18/36 30/18/36 26/16/34
f 27/16/34 26/16/34 30/18/36
f 33/19/37 32/20/38 31/19/37
f 31/19/39 32/20/40 33/19/39
f 34/21/41 33/19/37 31/19/37
f 33/19/37 34/21/41 35/21/41
f 31/19/39 33/19/39 34/21/42
f 35/21/42 34/21/42 33/19/39
f 38/23/44 37/22/43 36/22/43
f 36/22/46 37/22/46 38/23/45
f 36/22/43 40/24/47 39/24/47
f 40/24/47 36/22/43 37/22/43
f 39/24/48 40/24/48 36/22/46
f 37/22/46 36/22/46 40/24/48
f 43/26/50 42/26/50 41/25/49
f 41/25/52 42/26/51 43/26/51
f 43/26/50 44/27/53 42/26/50
f 44/27/53 43/26/50 45/27/53
f 42/26/51 44/27/54 43/26/51
f 45/27/54 43/26/51 44/27/54
f 48/28/55 47/29/56 46/28/55
f 46/28/57 47/29/58 48/28/57
f 49/30/59 48/28/55 46/28/55
f 48/28/55 49/30/59 50/30/59
f 46/28/57 48/28/57 49/30/60
f 50/30/60 49/30/60 48/28/57
f 53/32/62 52/32/62 51/31/61
f 51/31/64 52/32/63 53/32/63
f 52/32/62 55/33/65 54/33/65
f 55/33/65 52/32/62 53/32/62
f 54/33/66 55/33/66 52/32/63
f 53/32/63 52/32/63 55/33/66
f 58/35/68 57/35/68 56/34/67
f 56/34/70 57/35/69 58/35/69
f 58/35/68 59/36/71 57/35/68
f 59/36/71 58/35/68 60/36/71
f 57/35/69 59/36/72 58/35/69
f 60/36/72 58/35/69 59/36/72
f 63/38/8 62/37/7 61/37/7
f 61/37/10 62/37/10 63/38/9
f 61/37/7 65/39/11 64/39/11
f 65/39/11 61/37/7 62/37/7
f 64/39/12 65/39/12 61/37/10
f 62/37/10 61/37/10 65/39/12
f 68/40/25 67/41/26 66/40/25
f 66/40/27 67/41/28 68/40/27
f 69/42/29 68/40/25 66/40/25
f 68/40/25 69/42/29 70/42/29
f 66/40/27 68/40/27 69/42/30
f 70/42/30 69/42/30 68/40/27
f 73/44/14 72/43/13 71/43/13
f 71/43/16 72/43/16 73/44/15
f 71/43/13 75/45/17 74/45/17
f 75/45/17 71/43/13 72/43/13
f 74/45/18 75/45/18 71/43/16
f 72/43/16 71/43/16 75/45/18
f 78/47/2 77/46/1 76/46/1
f 76/46/4 77/46/4 78/47/3
f 76/46/1 80/48/5 79/48/5
f 80/48/5 76/46/1 77/46/1
f 79/48/6 80/48/6 76/46/4
f 77/46/4 76/46/4 80/48/6
f 83/50/20 82/49/19 81/49/19
f 81/49/22 82/49/22 83/50/21
f 81/49/19 85/51/23 84/51/23
f 85/51/23 81/49/19 82/49/19
f 84/51/24 85/51/24 81/49/22
f 82/49/22 81/49/22 85/51/24
f 88/53/32 87/52/31 86/52/31
f 86/52/34 87/52/34 88/53/33
f 86/52/31 90/54/35 89/54/35
f 90/54/35 86/52/31 87/52/31
f 89/54/36 90/54/36 86/52/34
f 87/52/34 86/52/34 90/54/36
f 93/56/74 92/56/74 91/55/73
f 91/55/76 92/56/75 93/56/75
f 93/56/74 94/57/77 92/56/74
f 94/57/77 93/56/74 95/57/77
f 92/56/75 94/57/78 93/56/75
f 95/57/78 93/56/75 94/57/78
f 98/59/80 97/58/79 96/58/79
f 96/58/82 97/58/82 98/59/81
f 96/58/79 100/60/83 99/60/83
f 100/60/83 96/58/79 97/58/79
f 99/60/84 100/60/84 96/58/82
f 97/58/82 96/58/82 100/60/84
f 103/62/86 102/61/85 101/61/85
f 101/61/88 102/61/88 103/62/87
f 101/61/85 105/63/89 104/63/89
f 105/63/89 101/61/85 102/61/85
f 104/63/90 105/63/90 101/61/88
f 102/61/88 101/61/88 105/63/90
f 108/65/92 107/64/91 106/64/91
f 106/64/94 107/64/94 108/65/93
f 106/64/91 110/66/95 109/66/95
f 110/66/95 106/64/91 107/64/91
f 109/66/96 110/66/96 106/64/94
f 107/64/94 106/64/94 110/66/96
f 113/67/97 112/68/98 111/67/97
f 111/67/99 112/68/100 113/67/99
f 114/69/101 113/67/97 111/67/97
f 113/67/97 114/69/101 115/69/101
f 111/67/99 113/67/99 114/69/102
f 115/69/102 114/69/102 113/67/99
f 118/71/68 117/71/68 116/70/67
f 116/70/70 117/71/69 118/71/69
f 118/71/68 119/72/71 117/71/68
f 119/72/71 118/71/68 120/72/71
f 117/71/69 119/72/72 118/71/69
f 120/72/72 118/71/69 119/72/72
