mtllib resource-stone-large.mtl
g resource-stone-large
v 0.031018 0 -0.16846
v 0.047765 0.077152 -0.13946
v 0.0013054 0 -0.117
v 0.027597 0.077152 -0.10453
v 0.15452 0.077152 -0.077822
v 0.11894 0.077152 -0.016185
v 0.11894 0.077152 -0.13946
v 0.1125 0.077152 -0.036069
v 0.10102 0.077152 -0.016185
v 0.072978 0.077152 -0.10453
v -0.030093 0.1602 -0.036069
v 0.0016805 0.1602 0.018964
v -0.059997 0 -0.036069
v -0.013272 0 0.044861
v 0.065226 0.1602 -0.091101
v 0.096999 0.1602 -0.036069
v 0.13568 0 0.01282
v 0.098678 0 0.01282
v 0.13568 0 -0.16846
v 0.080178 0 0.044861
v 0.065226 0.1602 0.018964
v 0.0016805 0.1602 -0.091101
v 0.18801 0 -0.077822
v -0.013272 0 -0.117
v 0.01627 0 0.037344
v -0.063218 0 0.058643
v -0.0023508 0.086054 0.018723
v -0.056403 0.086054 0.033206
v -0.091141 0.041444 -0.070067
v -0.081488 0.086054 -0.060414
v -0.10916 0.041444 -0.0028291
v -0.095971 0.086054 -0.0063623
v -0.075133 0 -0.11494
v -0.052091 0 -0.091901
v -0.082767 0.041444 -0.086455
v -0.071612 0.041444 -0.0753
v -0.072295 0 0.049566
v -0.0809 0.041444 0.025428
v -0.12284 0 0.06311
v -0.18801 0 -0.0020621
v -0.11521 0.041444 0.034621
v -0.15953 0.041444 -0.0096955
v -0.027436 0.086054 -0.074897
v -0.020621 0 -0.10033
v -0.1433 0.041444 -0.070234
v 0.037569 0 -0.042144
v 0.012132 0.086054 -0.035329
v -0.16416 0 -0.091089
v 0.10029 0 0.1476
v 0.022448 0 0.16846
v 0.082058 0.059407 0.12937
v 0.029123 0.059407 0.14355
v 0.04082 0 -0.024319
v 0.091701 0 0.026562
v 0.034861 0.12335 -0.0020775
v 0.06946 0.12335 0.032522
v -0.034538 0 0.11148
v -0.0096277 0.059407 0.1048
v 0.12115 0 0.06976
v 0.096242 0.059407 0.076434
v -0.028684 0 -0.0056953
v -0.012402 0.12335 0.010587
v -0.047308 0 0.063809
v -0.025066 0.12335 0.05785
v -0.027163 0 0.083954
v -0.0060576 0.059407 0.091478
v 0.088796 0 0.037404
v 0.07428 0.059407 0.054473
v 0.056796 0.12335 0.079785
v 0.0095326 0.12335 0.092449
v 0.0064432 0.059407 0.10398
v 0.065236 0.059407 0.088225
vn -0.45865 0.39821 -0.7944
vn -0.81063 0.3519 -0.46802
vn 0 1 0
vn -0.98302 0.1835 0
vn -0.49151 0.1835 0.85132
vn 0.49151 0.1835 -0.85132
vn 0.98302 0.1835 0
vn 0.45865 0.39821 0.7944
vn 0 0.3519 0.93604
vn 0.45865 0.39821 -0.7944
vn 0.49151 0.1835 0.85132
vn 0 -1 0
vn 0.9173 0.39821 0
vn 0.85493 0.15959 0.49359
vn -0.49151 0.1835 -0.85132
vn 0 0.15959 -0.98718
vn 0.67616 0.29262 0.67616
vn -0.24749 0.29262 0.92365
vn -0.67616 0.29262 -0.67616
vn -0.92365 0.29262 0.24749
vn 0.21087 0.57982 -0.78698
vn 0.60196 0.52467 -0.60196
vn -0.68351 0.25617 0.68351
vn -0.21087 0.57982 0.78698
vn -0.78698 0.57982 0.21087
vn -0.25018 0.25617 -0.93369
vn 0.24749 0.29262 -0.92365
vn 0.92365 0.29262 -0.24749
vn -0.57611 0.57982 -0.57611
vn 0.22033 0.52467 0.8223
vn 0.64863 0.39821 0.64863
vn -0.23741 0.39821 0.88604
vn 0.25442 0.1835 -0.94952
vn 0.94952 0.1835 -0.25442
vn -0.88604 0.39821 0.23741
vn 0.88604 0.39821 -0.23741
vn -0.6951 0.1835 -0.6951
vn -0.94952 0.1835 0.25442
vn -0.90414 0.3519 -0.24226
vn 0.66188 0.3519 -0.66188
vn -0.25442 0.1835 0.94952
vn -0.69804 0.15959 0.69804
vn 0.6951 0.1835 0.6951
vn 0.95355 0.15959 0.2555
vt 0.84375 0.025
vt 0.84375 0.12132
vt 0.84375 0.225
vt 0.84375 0.12132
vt 0.84375 0.07316
vt 0.84375 0.125
usemtl colormap
f 3/1/2 2/2/1 1/1/1
f 2/2/1 3/1/2 4/2/2
f 7/2/3 6/2/3 5/2/3
f 6/2/3 7/2/3 8/2/3
f 9/2/3 6/2/3 8/2/3
f 8/2/3 7/2/3 10/2/3
f 10/2/3 7/2/3 2/2/3
f 10/2/3 2/2/3 4/2/3
f 13/1/4 12/3/5 11/3/4
f 12/3/5 13/1/4 14/1/5
f 15/3/6 8/2/7 10/2/6
f 8/2/7 15/3/6 16/3/7
f 6/2/8 18/1/9 17/1/8
f 18/1/9 6/2/8 9/2/9
f 2/2/1 19/1/10 1/1/1
f 19/1/10 2/2/1 7/2/10
f 21/3/11 14/1/5 20/1/11
f 14/1/5 21/3/11 12/3/5
f 15/3/3 21/3/3 16/3/3
f 21/3/3 15/3/3 22/3/3
f 21/3/3 22/3/3 12/3/3
f 12/3/3 22/3/3 11/3/3
f 17/1/12 19/1/12 23/1/12
f 19/1/12 17/1/12 18/1/12
f 19/1/12 18/1/12 1/1/12
f 1/1/12 18/1/12 20/1/12
f 1/1/12 20/1/12 14/1/12
f 1/1/12 14/1/12 3/1/12
f 3/1/12 14/1/12 24/1/12
f 24/1/12 14/1/12 13/1/12
f 7/2/10 23/1/13 19/1/10
f 23/1/13 7/2/10 5/2/13
f 21/3/11 8/2/7 16/3/7
f 8/2/7 21/3/11 9/2/14
f 9/2/14 21/3/11 18/1/14
f 18/1/14 21/3/11 20/1/11
f 13/1/4 22/3/15 24/1/15
f 22/3/15 13/1/4 11/3/4
f 6/2/8 23/1/13 5/2/13
f 23/1/13 6/2/8 17/1/8
f 22/3/15 3/1/16 24/1/15
f 3/1/16 22/3/15 4/2/16
f 4/2/16 22/3/15 10/2/6
f 10/2/6 22/3/15 15/3/6
f 27/3/17 26/1/18 25/1/17
f 26/1/18 27/3/17 28/3/18
f 31/4/20 30/3/19 29/4/19
f 30/3/19 31/4/20 32/3/20
f 35/4/21 34/1/22 33/1/21
f 34/1/22 35/4/21 36/4/22
f 28/3/18 37/1/23 26/1/18
f 37/1/23 28/3/18 38/4/23
f 38/4/23 28/3/18 31/4/20
f 31/4/20 28/3/18 32/3/20
f 41/4/24 40/1/25 39/1/24
f 40/1/25 41/4/24 42/4/25
f 30/3/19 36/4/26 29/4/19
f 43/3/27 36/4/26 30/3/19
f 44/1/27 36/4/26 43/3/27
f 36/4/26 44/1/27 34/1/26
f 35/4/3 29/4/3 36/4/3
f 29/4/3 35/4/3 45/4/3
f 29/4/3 45/4/3 31/4/3
f 31/4/3 45/4/3 41/4/3
f 41/4/3 45/4/3 42/4/3
f 41/4/3 38/4/3 31/4/3
f 47/3/28 25/1/17 46/1/28
f 25/1/17 47/3/28 27/3/17
f 40/1/25 45/4/29 48/1/29
f 45/4/29 40/1/25 42/4/25
f 43/3/3 27/3/3 47/3/3
f 27/3/3 43/3/3 28/3/3
f 28/3/3 43/3/3 30/3/3
f 28/3/3 30/3/3 32/3/3
f 38/4/30 39/1/24 37/1/30
f 39/1/24 38/4/30 41/4/24
f 43/3/27 46/1/28 44/1/27
f 46/1/28 43/3/27 47/3/28
f 25/1/12 44/1/12 46/1/12
f 44/1/12 25/1/12 26/1/12
f 44/1/12 26/1/12 34/1/12
f 34/1/12 26/1/12 33/1/12
f 33/1/12 26/1/12 37/1/12
f 33/1/12 37/1/12 39/1/12
f 33/1/12 39/1/12 48/1/12
f 48/1/12 39/1/12 40/1/12
f 45/4/29 33/1/21 48/1/29
f 33/1/21 45/4/29 35/4/21
f 51/5/31 50/1/32 49/1/31
f 50/1/32 51/5/31 52/5/32
f 55/6/33 54/1/34 53/1/33
f 54/1/34 55/6/33 56/6/34
f 52/5/32 57/1/35 50/1/32
f 57/1/35 52/5/32 58/5/35
f 60/5/36 49/1/31 59/1/36
f 49/1/31 60/5/36 51/5/31
f 63/1/38 62/6/37 61/1/37
f 62/6/37 63/1/38 64/6/38
f 57/1/35 66/5/39 65/1/39
f 66/5/39 57/1/35 58/5/35
f 68/5/40 59/1/36 67/1/40
f 59/1/36 68/5/40 60/5/36
f 55/6/3 69/6/3 56/6/3
f 69/6/3 55/6/3 70/6/3
f 70/6/3 55/6/3 62/6/3
f 70/6/3 62/6/3 64/6/3
f 70/6/41 66/5/42 71/5/41
f 64/6/38 66/5/42 70/6/41
f 63/1/38 66/5/42 64/6/38
f 66/5/42 63/1/38 65/1/42
f 68/5/3 51/5/3 60/5/3
f 51/5/3 68/5/3 72/5/3
f 51/5/3 72/5/3 52/5/3
f 52/5/3 72/5/3 71/5/3
f 52/5/3 71/5/3 58/5/3
f 58/5/3 71/5/3 66/5/3
f 57/1/12 65/1/12 50/1/12
f 61/1/12 50/1/12 65/1/12
f 61/1/12 65/1/12 63/1/12
f 53/1/12 50/1/12 61/1/12
f 67/1/12 50/1/12 53/1/12
f 53/1/12 54/1/12 67/1/12
f 67/1/12 49/1/12 50/1/12
f 49/1/12 67/1/12 59/1/12
f 62/6/37 53/1/33 61/1/37
f 53/1/33 62/6/37 55/6/33
f 69/6/43 71/5/41 72/5/43
f 71/5/41 69/6/43 70/6/41
f 56/6/34 67/1/44 54/1/34
f 67/1/44 56/6/34 68/5/44
f 68/5/44 56/6/34 69/6/43
f 68/5/44 69/6/43 72/5/43
g resource-stone-large
usemtl colormap
f 3/1/2 2/2/1 1/1/1
f 2/2/1 3/1/2 4/2/2
f 7/2/3 6/2/3 5/2/3
f 6/2/3 7/2/3 8/2/3
f 9/2/3 6/2/3 8/2/3
f 8/2/3 7/2/3 10/2/3
f 10/2/3 7/2/3 2/2/3
f 10/2/3 2/2/3 4/2/3
f 13/1/4 12/3/5 11/3/4
f 12/3/5 13/1/4 14/1/5
f 15/3/6 8/2/7 10/2/6
f 8/2/7 15/3/6 16/3/7
f 6/2/8 18/1/9 17/1/8
f 18/1/9 6/2/8 9/2/9
f 2/2/1 19/1/10 1/1/1
f 19/1/10 2/2/1 7/2/10
f 21/3/11 14/1/5 20/1/11
f 14/1/5 21/3/11 12/3/5
f 15/3/3 21/3/3 16/3/3
f 21/3/3 15/3/3 22/3/3
f 21/3/3 22/3/3 12/3/3
f 12/3/3 22/3/3 11/3/3
f 17/1/12 19/1/12 23/1/12
f 19/1/12 17/1/12 18/1/12
f 19/1/12 18/1/12 1/1/12
f 1/1/12 18/1/12 20/1/12
f 1/1/12 20/1/12 14/1/12
f 1/1/12 14/1/12 3/1/12
f 3/1/12 14/1/12 24/1/12
f 24/1/12 14/1/12 13/1/12
f 7/2/10 23/1/13 19/1/10
f 23/1/13 7/2/10 5/2/13
f 21/3/11 8/2/7 16/3/7
f 8/2/7 21/3/11 9/2/14
f 9/2/14 21/3/11 18/1/14
f 18/1/14 21/3/11 20/1/11
f 13/1/4 22/3/15 24/1/15
f 22/3/15 13/1/4 11/3/4
f 6/2/8 23/1/13 5/2/13
f 23/1/13 6/2/8 17/1/8
f 22/3/15 3/1/16 24/1/15
f 3/1/16 22/3/15 4/2/16
f 4/2/16 22/3/15 10/2/6
f 10/2/6 22/3/15 15/3/6
f 27/3/17 26/1/18 25/1/17
f 26/1/18 27/3/17 28/3/18
f 31/4/20 30/3/19 29/4/19
f 30/3/19 31/4/20 32/3/20
f 35/4/21 34/1/22 33/1/21
f 34/1/22 35/4/21 36/4/22
f 28/3/18 37/1/23 26/1/18
f 37/1/23 28/3/18 38/4/23
f 38/4/23 28/3/18 31/4/20
f 31/4/20 28/3/18 32/3/20
f 41/4/24 40/1/25 39/1/24
f 40/1/25 41/4/24 42/4/25
f 30/3/19 36/4/26 29/4/19
f 43/3/27 36/4/26 30/3/19
f 44/1/27 36/4/26 43/3/27
f 36/4/26 44/1/27 34/1/26
f 35/4/3 29/4/3 36/4/3
f 29/4/3 35/4/3 45/4/3
f 29/4/3 45/4/3 31/4/3
f 31/4/3 45/4/3 41/4/3
f 41/4/3 45/4/3 42/4/3
f 41/4/3 38/4/3 31/4/3
f 47/3/28 25/1/17 46/1/28
f 25/1/17 47/3/28 27/3/17
f 40/1/25 45/4/29 48/1/29
f 45/4/29 40/1/25 42/4/25
f 43/3/3 27/3/3 47/3/3
f 27/3/3 43/3/3 28/3/3
f 28/3/3 43/3/3 30/3/3
f 28/3/3 30/3/3 32/3/3
f 38/4/30 39/1/24 37/1/30
f 39/1/24 38/4/30 41/4/24
f 43/3/27 46/1/28 44/1/27
f 46/1/28 43/3/27 47/3/28
f 25/1/12 44/1/12 46/1/12
f 44/1/12 25/1/12 26/1/12
f 44/1/12 26/1/12 34/1/12
f 34/1/12 26/1/12 33/1/12
f 33/1/12 26/1/12 37/1/12
f 33/1/12 37/1/12 39/1/12
f 33/1/12 39/1/12 48/1/12
f 48/1/12 39/1/12 40/1/12
f 45/4/29 33/1/21 48/1/29
f 33/1/21 45/4/29 35/4/21
f 51/5/31 50/1/32 49/1/31
f 50/1/32 51/5/31 52/5/32
f 55/6/33 54/1/34 53/1/33
f 54/1/34 55/6/33 56/6/34
f 52/5/32 57/1/35 50/1/32
f 57/1/35 52/5/32 58/5/35
f 60/5/36 49/1/31 59/1/36
f 49/1/31 60/5/36 51/5/31
f 63/1/38 62/6/37 61/1/37
f 62/6/37 63/1/38 64/6/38
f 57/1/35 66/5/39 65/1/39
f 66/5/39 57/1/35 58/5/35
f 68/5/40 59/1/36 67/1/40
f 59/1/36 68/5/40 60/5/36
f 55/6/3 69/6/3 56/6/3
f 69/6/3 55/6/3 70/6/3
f 70/6/3 55/6/3 62/6/3
f 70/6/3 62/6/3 64/6/3
f 70/6/41 66/5/42 71/5/41
f 64/6/38 66/5/42 70/6/41
f 63/1/38 66/5/42 64/6/38
f 66/5/42 63/1/38 65/1/42
f 68/5/3 51/5/3 60/5/3
f 51/5/3 68/5/3 72/5/3
f 51/5/3 72/5/3 52/5/3
f 52/5/3 72/5/3 71/5/3
f 52/5/3 71/5/3 58/5/3
f 58/5/3 71/5/3 66/5/3
f 57/1/12 65/1/12 50/1/12
f 61/1/12 50/1/12 65/1/12
f 61/1/12 65/1/12 63/1/12
f 53/1/12 50/1/12 61/1/12
f 67/1/12 50/1/12 53/1/12
f 53/1/12 54/1/12 67/1/12
f 67/1/12 49/1/12 50/1/12
f 49/1/12 67/1/12 59/1/12
f 62/6/37 53/1/33 61/1/37
f 53/1/33 62/6/37 55/6/33
f 69/6/43 71/5/41 72/5/43
f 71/5/41 69/6/43 70/6/41
f 56/6/34 67/1/44 54/1/34
f 67/1/44 56/6/34 68/5/44
f 68/5/44 56/6/34 69/6/43
f 68/5/44 69/6/43 72/5/43
