mtllib resource-stone.mtl
g resource-stone
v 0.047782 0 -0.071108
v 0.08267 0 -0.01068
v 0.036618 0.051435 -0.051771
v 0.060342 0.051435 -0.01068
v 0.021994 0.1068 0.017155
v 0.032328 0.051435 0.017155
v 0.00081166 0.1068 0.053843
v 0.024675 0.051435 0.03041
v 0.023112 0 0.049747
v 0.01078 0 0.071108
v 0.036618 0.051435 0.03041
v 0.0059791 0.051435 -0.028484
v -0.01083 0.051435 -0.051771
v -0.024275 0.051435 -0.028484
v 0.047782 0 0.049747
v -0.021994 0 -0.071108
v -0.05152 0 0.071108
v -0.041802 0 -0.036799
v -0.05152 0 -0.036799
v -0.08267 0 0.017155
v -0.041552 0.1068 -0.019533
v 0.00081166 0.1068 -0.019533
v -0.062734 0.1068 0.017155
v -0.041552 0.1068 0.053843
vn 0.45865 0.39821 -0.7944
vn 0.9173 0.39821 0
vn 0.98302 0.1835 0
vn 0.49151 0.1835 0.85132
vn 0.85493 0.15959 0.49359
vn 0 1 0
vn 0 -1 0
vn -0.49151 0.1835 -0.85132
vn 0 0.15959 -0.98718
vn 0.49151 0.1835 -0.85132
vn -0.98302 0.1835 0
vn -0.49151 0.1835 0.85132
vn 0.45865 0.39821 0.7944
vn 0 0.3519 0.93604
vn -0.45865 0.39821 -0.7944
vn -0.81063 0.3519 -0.46802
vt 0.84375 0.025
vt 0.84375 0.12132
vt 0.84375 0.225
usemtl colormap
f 3/2/1 2/1/2 1/1/1
f 2/1/2 3/2/1 4/2/2
f 7/3/4 6/2/3 5/3/3
f 6/2/3 7/3/4 8/2/5
f 8/2/5 7/3/4 9/1/5
f 9/1/5 7/3/4 10/1/4
f 3/2/6 11/2/6 4/2/6
f 11/2/6 3/2/6 6/2/6
f 8/2/6 11/2/6 6/2/6
f 6/2/6 3/2/6 12/2/6
f 12/2/6 3/2/6 13/2/6
f 12/2/6 13/2/6 14/2/6
f 15/1/7 1/1/7 2/1/7
f 1/1/7 15/1/7 9/1/7
f 1/1/7 9/1/7 16/1/7
f 16/1/7 9/1/7 10/1/7
f 16/1/7 10/1/7 17/1/7
f 16/1/7 17/1/7 18/1/7
f 18/1/7 17/1/7 19/1/7
f 19/1/7 17/1/7 20/1/7
f 21/3/8 18/1/9 19/1/8
f 18/1/9 21/3/8 14/2/9
f 14/2/9 21/3/8 12/2/10
f 12/2/10 21/3/8 22/3/10
f 20/1/11 21/3/8 19/1/8
f 21/3/8 20/1/11 23/3/11
f 20/1/11 24/3/12 23/3/11
f 24/3/12 20/1/11 17/1/12
f 22/3/10 6/2/3 12/2/10
f 6/2/3 22/3/10 5/3/3
f 11/2/13 2/1/2 4/2/2
f 2/1/2 11/2/13 15/1/13
f 11/2/13 9/1/14 15/1/13
f 9/1/14 11/2/13 8/2/14
f 18/1/16 13/2/15 16/1/15
f 13/2/15 18/1/16 14/2/16
f 7/3/4 17/1/12 10/1/4
f 17/1/12 7/3/4 24/3/12
f 13/2/15 1/1/1 16/1/15
f 1/1/1 13/2/15 3/2/1
f 22/3/6 7/3/6 5/3/6
f 7/3/6 22/3/6 21/3/6
f 7/3/6 21/3/6 24/3/6
f 24/3/6 21/3/6 23/3/6
g resource-stone
usemtl colormap
f 3/2/1 2/1/2 1/1/1
f 2/1/2 3/2/1 4/2/2
f 7/3/4 6/2/3 5/3/3
f 6/2/3 7/3/4 8/2/5
f 8/2/5 7/3/4 9/1/5
f 9/1/5 7/3/4 10/1/4
f 3/2/6 11/2/6 4/2/6
f 11/2/6 3/2/6 6/2/6
f 8/2/6 11/2/6 6/2/6
f 6/2/6 3/2/6 12/2/6
f 12/2/6 3/2/6 13/2/6
f 12/2/6 13/2/6 14/2/6
f 15/1/7 1/1/7 2/1/7
f 1/1/7 15/1/7 9/1/7
f 1/1/7 9/1/7 16/1/7
f 16/1/7 9/1/7 10/1/7
f 16/1/7 10/1/7 17/1/7
f 16/1/7 17/1/7 18/1/7
f 18/1/7 17/1/7 19/1/7
f 19/1/7 17/1/7 20/1/7
f 21/3/8 18/1/9 19/1/8
f 18/1/9 21/3/8 14/2/9
f 14/2/9 21/3/8 12/2/10
f 12/2/10 21/3/8 22/3/10
f 20/1/11 21/3/8 19/1/8
f 21/3/8 20/1/11 23/3/11
f 20/1/11 24/3/12 23/3/11
f 24/3/12 20/1/11 17/1/12
f 22/3/10 6/2/3 12/2/10
f 6/2/3 22/3/10 5/3/3
f 11/2/13 2/1/2 4/2/2
f 2/1/2 11/2/13 15/1/13
f 11/2/13 9/1/14 15/1/13
f 9/1/14 11/2/13 8/2/14
f 18/1/16 13/2/15 16/1/15
f 13/2/15 18/1/16 14/2/16
f 7/3/4 17/1/12 10/1/4
f 17/1/12 7/3/4 24/3/12
f 13/2/15 1/1/1 16/1/15
f 1/1/1 13/2/15 3/2/1
f 22/3/6 7/3/6 5/3/6
f 7/3/6 22/3/6 21/3/6
f 7/3/6 21/3/6 24/3/6
f 24/3/6 21/3/6 23/3/6
