mtllib rock-c.mtl
g rock-c
v -0.24122 5.4161e-16 -0.203
v -0.24122 5.4161e-16 -0.15569
v 0.021459 5.4161e-16 -0.28835
v -0.1124 5.4161e-16 0.25745
v -0.028698 5.4161e-16 0.14225
v 0.021459 5.4161e-16 0.15855
v 0.062648 4.5128e-16 -0.23166
v 0.063769 4.5128e-16 0.10031
v 0.24006 3.6096e-16 -0.28931
v 0.24006 3.6096e-16 0.15759
v 0.40241 3.6096e-16 -0.065858
v -0.27789 5.4161e-16 0.20368
v -0.27789 5.4161e-16 0.1409
v -0.3813 5.4161e-16 0.1073
v -0.3813 5.4161e-16 -0.11018
v -0.25758 0.51 0.087151
v -0.35035 0.255 0.087185
v -0.31939 0.51 0.0020765
v -0.3813 5.4161e-16 -0.11018
v -0.24122 5.4161e-16 -0.15569
v -0.31939 0.51 -0.069945
v -0.18152 0.24591 -0.14599
v -0.18908 0.51 -0.11228
v -0.085952 0.32385 -0.0014388
v -0.10855 0.51 -0.0014388
v -0.16259 0.32385 -0.10693
v -0.1803 0.20362 0.14852
v -0.22835 0.20362 0.1329
v -0.18908 0.51 0.10941
v -0.3813 5.4161e-16 0.1073
v -0.11934 0.20362 0.064607
v -0.11442 0.32385 0.03775
v -0.045262 0.32385 -0.19003
v 0.018318 0.054801 -0.27436
v 0.032661 0.32385 -0.16471
v 0.032661 0.32385 0.034903
v 0.01378 0.13398 0.12434
v -0.045262 0.32385 0.060222
v -0.16259 0.32385 -0.10693
v -0.18152 0.24591 -0.14599
v -0.16259 0.32385 -0.15191
v 0.10518 0.32385 -0.064904
v 0.14449 0.16193 -0.064904
v 0.075892 0.16193 -0.15932
v 0.021459 5.4161e-16 -0.28835
v 0.021459 5.4161e-16 0.15855
v -0.034475 0.10012 0.11668
v -0.090734 0.20362 0.073902
v -0.11442 0.32385 0.03775
v -0.11934 0.20362 0.064607
v 0.063769 4.5128e-16 0.10031
v 0.077014 0.16193 0.027969
v -0.085952 0.32385 -0.0014388
v 0.027766 4.5119e-17 0.26635
v 0.017506 4.5119e-17 0.19205
v -0.046529 4.5119e-17 0.2766
v -0.056789 4.5119e-17 0.20231
v -0.035323 0.025875 0.26181
v -0.041992 0.025875 0.21352
v 0.012969 0.025875 0.25514
v 0.0062997 0.025875 0.20685
v -0.048276 0.32385 0.025538
v 0.025038 0.32385 0.0097227
v -0.064091 0.32385 -0.047776
v 0.0092228 0.32385 -0.063591
v -0.048493 0.34973 -0.037713
v -0.00083938 0.34973 -0.047993
v -0.038213 0.34973 0.0099404
v 0.0094405 0.34973 -0.00033947
v 0.3758 0.054801 -0.065858
v 0.25057 0.16193 0.034903
v 0.29262 0.16193 -0.10874
v 0.40241 3.6096e-16 -0.065858
v 0.24006 3.6096e-16 -0.28931
v 0.2215 0.16193 -0.20663
v 0.077014 0.16193 0.027969
v 0.14449 0.16193 -0.064904
v 0.2215 0.16193 0.074916
v 0.075892 0.16193 -0.15932
v 0.24006 3.6096e-16 0.15759
v 0.063769 4.5128e-16 0.10031
v -0.034475 0.10012 0.11668
v -0.059656 0.20362 0.11668
v -0.090734 0.20362 0.073902
v -0.22835 0.20362 0.17149
v -0.22835 0.20362 0.1329
v -0.12409 0.20362 0.20537
v -0.1803 0.20362 0.14852
v -0.1124 5.4161e-16 0.25745
v -0.028698 5.4161e-16 0.14225
v -0.27789 5.4161e-16 0.20368
v -0.27789 5.4161e-16 0.1409
vn 0 -1 0
vn -0.77609 0.28241 0.56386
vn -0.30708 0.11184 -0.94509
vn 0.80514 0.097744 -0.58497
vn -0.30708 0.11184 0.94509
vn 0 1 0
vn 0.80514 0.097744 0.58497
vn -0.99271 0.12051 3.9319e-14
vn 0.28971 0.34795 -0.89163
vn 0.28519 0.38509 0.87771
vn -0.97177 0.23594 3.8489e-14
vn 0.79385 0.19274 -0.57676
vn -0.30147 0.21959 0.92784
vn -0.30147 0.21959 -0.92784
vn 0.79385 0.19274 0.57676
vn 0.122 0.45238 0.88344
vn -0.88344 0.45238 0.122
vn 0.88344 0.45238 -0.122
vn -0.122 0.45238 -0.88344
vn -0.87177 0.45238 0.18806
vn -0.18806 0.45238 -0.87177
vn 0.18806 0.45238 0.87177
vn 0.87177 0.45238 -0.18806
vn 0.72849 0.65102 0.21325
vn 0.75299 0.36565 -0.54708
vn 0.75299 0.36565 0.54708
vn -0.28178 0.4105 -0.86723
vn -0.28178 0.4105 0.86723
vn 0.79379 0.19311 -0.57672
vn 0.79379 0.19311 0.57672
vn -0.30145 0.22001 0.92775
vn -0.97166 0.23639 3.8485e-14
vt 0.84375 0.225
vt 0.84375 0.125
vt 0.84375 0.025
vt 0.21875 0.225
vt 0.21875 0.125
vt 0.21875 0.025
vt 0.21875 0.12144
vt 0.21875 0.152
vt 0.21875 0.10485
vt 0.21875 0.058844
vt 0.21875 0.10774
vt 0.21875 0.17687
vt 0.21875 0.086829
vt 0.21875 0.15075
vt 0.21875 0.074169
usemtl colormap
f 3/1/1 2/1/1 1/1/1
f 2/1/1 3/1/1 4/1/1
f 4/1/1 3/1/1 5/1/1
f 5/1/1 3/1/1 6/1/1
f 6/1/1 3/1/1 7/2/1
f 6/1/1 7/2/1 8/2/1
f 8/2/1 7/2/1 9/3/1
f 8/2/1 9/3/1 10/3/1
f 10/3/1 9/3/1 11/3/1
f 12/1/1 2/1/1 4/1/1
f 13/1/1 2/1/1 12/1/1
f 14/1/1 2/1/1 13/1/1
f 2/1/1 14/1/1 15/1/1
f 18/4/2 17/5/2 16/4/2
f 21/4/3 20/6/3 19/6/3
f 20/6/3 21/4/3 22/7/3
f 22/7/3 21/4/3 23/4/3
f 26/8/4 25/4/4 24/8/4
f 25/4/4 26/8/4 23/4/4
f 23/4/4 26/8/4 22/7/4
f 29/4/5 28/9/5 27/9/5
f 28/9/5 29/4/5 17/5/5
f 17/5/5 29/4/5 16/4/5
f 30/6/5 28/9/5 17/5/5
f 28/9/5 30/6/5 13/6/5
f 18/4/6 23/4/6 21/4/6
f 23/4/6 18/4/6 16/4/6
f 23/4/6 16/4/6 29/4/6
f 23/4/6 29/4/6 25/4/6
f 31/9/7 29/4/7 27/9/7
f 29/4/7 31/9/7 25/4/7
f 25/4/7 31/9/7 32/8/7
f 25/4/7 32/8/7 24/8/7
f 17/5/8 19/6/8 30/6/8
f 19/6/8 17/5/8 18/4/8
f 19/6/8 18/4/8 21/4/8
f 35/4/9 34/10/9 33/4/9
f 38/4/10 37/11/10 36/4/10
f 41/4/11 40/12/11 39/4/11
f 40/12/11 41/4/11 2/6/11
f 2/6/11 41/4/11 1/6/11
f 43/5/12 35/4/12 42/4/12
f 35/4/12 43/5/12 44/5/12
f 35/4/12 44/5/12 7/6/12
f 35/4/12 7/6/12 34/10/12
f 34/10/12 7/6/12 45/6/12
f 37/11/13 5/6/13 46/6/13
f 5/6/13 37/11/13 47/13/13
f 47/13/13 37/11/13 48/14/13
f 48/14/13 37/11/13 38/4/13
f 49/4/13 48/14/13 38/4/13
f 48/14/13 49/4/13 50/14/13
f 41/4/14 45/6/14 1/6/14
f 45/6/14 41/4/14 34/10/14
f 34/10/14 41/4/14 33/4/14
f 51/6/15 37/11/15 46/6/15
f 37/11/15 51/6/15 36/4/15
f 36/4/15 51/6/15 52/5/15
f 36/4/15 52/5/15 42/4/15
f 42/4/15 52/5/15 43/5/15
f 38/4/6 53/4/6 49/4/6
f 53/4/6 38/4/6 33/4/6
f 33/4/6 39/4/6 53/4/6
f 39/4/6 33/4/6 41/4/6
f 33/4/6 38/4/6 35/4/6
f 35/4/6 38/4/6 36/4/6
f 35/4/6 36/4/6 42/4/6
f 56/6/1 55/6/1 54/6/1
f 55/6/1 56/6/1 57/6/1
f 60/4/6 59/4/6 58/4/6
f 59/4/6 60/4/6 61/4/6
f 60/4/16 56/6/16 54/6/16
f 56/6/16 60/4/16 58/4/16
f 58/4/17 57/6/17 56/6/17
f 57/6/17 58/4/17 59/4/17
f 61/4/18 54/6/18 55/6/18
f 54/6/18 61/4/18 60/4/18
f 57/6/19 61/4/19 55/6/19
f 61/4/19 57/6/19 59/4/19
f 64/6/1 63/6/1 62/6/1
f 63/6/1 64/6/1 65/6/1
f 68/4/6 67/4/6 66/4/6
f 67/4/6 68/4/6 69/4/6
f 68/4/20 64/6/20 62/6/20
f 64/6/20 68/4/20 66/4/20
f 66/4/21 65/6/21 64/6/21
f 65/6/21 66/4/21 67/4/21
f 69/4/22 62/6/22 63/6/22
f 62/6/22 69/4/22 68/4/22
f 65/6/23 69/4/23 63/6/23
f 69/4/23 65/6/23 67/4/23
f 72/5/24 71/5/24 70/10/24
f 73/6/25 72/5/25 70/10/25
f 72/5/25 73/6/25 74/6/25
f 72/5/25 74/6/25 75/5/25
f 78/5/6 77/5/6 76/5/6
f 77/5/6 78/5/6 75/5/6
f 75/5/6 79/5/6 77/5/6
f 75/5/6 78/5/6 72/5/6
f 72/5/6 78/5/6 71/5/6
f 73/6/26 78/5/26 80/6/26
f 78/5/26 73/6/26 71/5/26
f 71/5/26 73/6/26 70/10/26
f 7/6/27 75/5/27 74/6/27
f 75/5/27 7/6/27 79/5/27
f 78/5/28 81/6/28 80/6/28
f 81/6/28 78/5/28 76/5/28
f 84/5/29 83/5/29 82/15/29
f 87/5/6 86/5/6 85/5/6
f 86/5/6 87/5/6 88/5/6
f 88/5/6 87/5/6 31/5/6
f 31/5/6 87/5/6 83/5/6
f 31/5/6 83/5/6 84/5/6
f 90/6/30 87/5/30 89/6/30
f 87/5/30 90/6/30 83/5/30
f 83/5/30 90/6/30 82/15/30
f 87/5/31 91/6/31 89/6/31
f 91/6/31 87/5/31 85/5/31
f 85/5/32 92/6/32 91/6/32
f 92/6/32 85/5/32 86/5/32
g rock-c
usemtl colormap
f 3/1/1 2/1/1 1/1/1
f 2/1/1 3/1/1 4/1/1
f 4/1/1 3/1/1 5/1/1
f 5/1/1 3/1/1 6/1/1
f 6/1/1 3/1/1 7/2/1
f 6/1/1 7/2/1 8/2/1
f 8/2/1 7/2/1 9/3/1
f 8/2/1 9/3/1 10/3/1
f 10/3/1 9/3/1 11/3/1
f 12/1/1 2/1/1 4/1/1
f 13/1/1 2/1/1 12/1/1
f 14/1/1 2/1/1 13/1/1
f 2/1/1 14/1/1 15/1/1
f 18/4/2 17/5/2 16/4/2
f 21/4/3 20/6/3 19/6/3
f 20/6/3 21/4/3 22/7/3
f 22/7/3 21/4/3 23/4/3
f 26/8/4 25/4/4 24/8/4
f 25/4/4 26/8/4 23/4/4
f 23/4/4 26/8/4 22/7/4
f 29/4/5 28/9/5 27/9/5
f 28/9/5 29/4/5 17/5/5
f 17/5/5 29/4/5 16/4/5
f 30/6/5 28/9/5 17/5/5
f 28/9/5 30/6/5 13/6/5
f 18/4/6 23/4/6 21/4/6
f 23/4/6 18/4/6 16/4/6
f 23/4/6 16/4/6 29/4/6
f 23/4/6 29/4/6 25/4/6
f 31/9/7 29/4/7 27/9/7
f 29/4/7 31/9/7 25/4/7
f 25/4/7 31/9/7 32/8/7
f 25/4/7 32/8/7 24/8/7
f 17/5/8 19/6/8 30/6/8
f 19/6/8 17/5/8 18/4/8
f 19/6/8 18/4/8 21/4/8
f 35/4/9 34/10/9 33/4/9
f 38/4/10 37/11/10 36/4/10
f 41/4/11 40/12/11 39/4/11
f 40/12/11 41/4/11 2/6/11
f 2/6/11 41/4/11 1/6/11
f 43/5/12 35/4/12 42/4/12
f 35/4/12 43/5/12 44/5/12
f 35/4/12 44/5/12 7/6/12
f 35/4/12 7/6/12 34/10/12
f 34/10/12 7/6/12 45/6/12
f 37/11/13 5/6/13 46/6/13
f 5/6/13 37/11/13 47/13/13
f 47/13/13 37/11/13 48/14/13
f 48/14/13 37/11/13 38/4/13
f 49/4/13 48/14/13 38/4/13
f 48/14/13 49/4/13 50/14/13
f 41/4/14 45/6/14 1/6/14
f 45/6/14 41/4/14 34/10/14
f 34/10/14 41/4/14 33/4/14
f 51/6/15 37/11/15 46/6/15
f 37/11/15 51/6/15 36/4/15
f 36/4/15 51/6/15 52/5/15
f 36/4/15 52/5/15 42/4/15
f 42/4/15 52/5/15 43/5/15
f 38/4/6 53/4/6 49/4/6
f 53/4/6 38/4/6 33/4/6
f 33/4/6 39/4/6 53/4/6
f 39/4/6 33/4/6 41/4/6
f 33/4/6 38/4/6 35/4/6
f 35/4/6 38/4/6 36/4/6
f 35/4/6 36/4/6 42/4/6
f 56/6/1 55/6/1 54/6/1
f 55/6/1 56/6/1 57/6/1
f 60/4/6 59/4/6 58/4/6
f 59/4/6 60/4/6 61/4/6
f 60/4/16 56/6/16 54/6/16
f 56/6/16 60/4/16 58/4/16
f 58/4/17 57/6/17 56/6/17
f 57/6/17 58/4/17 59/4/17
f 61/4/18 54/6/18 55/6/18
f 54/6/18 61/4/18 60/4/18
f 57/6/19 61/4/19 55/6/19
f 61/4/19 57/6/19 59/4/19
f 64/6/1 63/6/1 62/6/1
f 63/6/1 64/6/1 65/6/1
f 68/4/6 67/4/6 66/4/6
f 67/4/6 68/4/6 69/4/6
f 68/4/20 64/6/20 62/6/20
f 64/6/20 68/4/20 66/4/20
f 66/4/21 65/6/21 64/6/21
f 65/6/21 66/4/21 67/4/21
f 69/4/22 62/6/22 63/6/22
f 62/6/22 69/4/22 68/4/22
f 65/6/23 69/4/23 63/6/23
f 69/4/23 65/6/23 67/4/23
f 72/5/24 71/5/24 70/10/24
f 73/6/25 72/5/25 70/10/25
f 72/5/25 73/6/25 74/6/25
f 72/5/25 74/6/25 75/5/25
f 78/5/6 77/5/6 76/5/6
f 77/5/6 78/5/6 75/5/6
f 75/5/6 79/5/6 77/5/6
f 75/5/6 78/5/6 72/5/6
f 72/5/6 78/5/6 71/5/6
f 73/6/26 78/5/26 80/6/26
f 78/5/26 73/6/26 71/5/26
f 71/5/26 73/6/26 70/10/26
f 7/6/27 75/5/27 74/6/27
f 75/5/27 7/6/27 79/5/27
f 78/5/28 81/6/28 80/6/28
f 81/6/28 78/5/28 76/5/28
f 84/5/29 83/5/29 82/15/29
f 87/5/6 86/5/6 85/5/6
f 86/5/6 87/5/6 88/5/6
f 88/5/6 87/5/6 31/5/6
f 31/5/6 87/5/6 83/5/6
f 31/5/6 83/5/6 84/5/6
f 90/6/30 87/5/30 89/6/30
f 87/5/30 90/6/30 83/5/30
f 83/5/30 90/6/30 82/15/30
f 87/5/31 91/6/31 89/6/31
f 91/6/31 87/5/31 85/5/31
f 85/5/32 92/6/32 91/6/32
f 92/6/32 85/5/32 86/5/32
