mtllib rock-sand-b.mtl
g rock-sand-b
v -0.21644 0 -0.18712
v -0.19599 2.8694e-21 -0.12418
v -0.033916 0 -0.31973
v 0.016992 0 0.32035
v 0.049596 9.3285e-19 -0.25905
v -0.27701 0 0.32035
v -0.37838 0 0.0083413
v 0.033048 0 0.36977
v 0.25866 0 0.36977
v 0.18157 1.8657e-18 -0.35494
v 0.25223 9.3285e-19 0.099871
v 0.32838 0 0.15519
v 0.42068 1.8657e-18 -0.18122
v 0.32935 1.8657e-18 0.099871
v 0.2 0.18925 -0.013346
v 0.1288 0.41861 0.089792
v 0.1288 0.41861 -0.026409
v -0.13989 0.15631 -0.014657
v -0.12762 0.15631 -0.02357
v -0.093387 0.41861 -0.0042163
v -0.11365 0.2173 -0.023433
v -0.08207 0.27427 -0.036775
v 0.032977 0.27427 -0.12036
v 0.032977 0.41861 -0.096025
v -0.04512 0.41861 0.14433
v 0.11107 0.41861 0.14433
v 0.017968 0.12764 0.19339
v 0.0028425 0.15631 0.18856
v 0.034974 0.18925 0.18301
v -0.073861 0.15631 0.18856
v 0.1362 0.18925 0.18301
v 0.16333 0.18925 0.09951
v 0.19801 0.033164 0.071732
v 0.20536 0.099166 0.01573
v 0.21597 0.099166 -0.016931
v 0.058327 0.27427 -0.10194
v 0.098425 0.099166 -0.10234
v -0.067766 4.5119e-17 0.42547
v -0.019461 4.5119e-17 0.41256
v -0.080675 4.5119e-17 0.37717
v -0.03237 4.5119e-17 0.36426
v -0.030173 0.03 0.40637
v -0.061571 0.03 0.41476
v -0.038564 0.03 0.37497
v -0.069962 0.03 0.38336
v -0.20016 0.15631 0.093933
v -0.16232 0.15631 0.061248
v -0.23284 0.15631 0.056096
v -0.19501 0.15631 0.02341
v -0.17466 0.18631 0.060346
v -0.19926 0.18631 0.081592
v -0.19591 0.18631 0.035752
v -0.2205 0.18631 0.056998
v 0.14637 0.18925 0.2294
v 0.19539 0.18925 0.23928
v 0.15626 0.18925 0.18038
v 0.20527 0.18925 0.19027
v 0.18854 0.21925 0.22897
v 0.15668 0.21925 0.22255
v 0.19497 0.21925 0.19712
v 0.16311 0.21925 0.19069
v 0.012356 0.41861 0.0081706
v 0.060304 0.41861 0.022349
v 0.026535 0.41861 -0.039777
v 0.074483 0.41861 -0.025598
v 0.054394 0.44861 0.011477
v 0.023228 0.44861 0.0022611
v 0.063611 0.44861 -0.019689
v 0.032445 0.44861 -0.028905
v 0.091735 2.256e-16 -0.3171
v 0.0744 2.256e-16 -0.36399
v 0.044836 2.256e-16 -0.29976
v 0.027501 2.256e-16 -0.34666
v 0.069226 0.03 -0.35275
v 0.080494 0.03 -0.32227
v 0.038742 0.03 -0.34148
v 0.05001 0.03 -0.311
v -0.13715 0.27427 -0.13576
v -0.20423 0.049583 -0.18438
v -0.11812 0.27427 -0.19432
v -0.08207 0.27427 -0.036775
v -0.11365 0.2173 -0.023433
v -0.10498 0.27427 -0.036775
v -0.12762 0.15631 -0.02357
v -0.14257 0.15631 -0.069588
v -0.21644 0 -0.18712
v 0.058327 0.27427 -0.10194
v 0.081075 0.27427 -0.17196
v 0.098425 0.099166 -0.10234
v 0.12419 0.099166 -0.18164
v -0.033916 0.27427 -0.2555
v 0.049596 9.3285e-19 -0.25905
v 0.091519 0.099166 -0.20537
v 0.23549 0.18925 0.2484
v 0.25174 0.031401 0.35911
v 0.15684 0.18925 0.30554
v 0.033048 0 0.36977
v 0.016992 0 0.32035
v 0.074787 0.18925 0.30554
v 0.025862 0.064894 0.28157
v 0.034974 0.18925 0.18301
v 0.017968 0.12764 0.19339
v 0.25866 0 0.36977
v 0.32838 0 0.15519
v 0.26085 0.18925 0.17036
v 0.1362 0.18925 0.18301
v 0.16333 0.18925 0.09951
v 0.25223 9.3285e-19 0.099871
v 0.19801 0.033164 0.071732
v -0.25775 0.049583 0.29072
v -0.24728 0.15631 0.13166
v -0.17272 0.15631 0.22695
v -0.28018 0.15631 0.030389
v -0.13989 0.15631 -0.014657
v -0.12762 0.15631 -0.02357
v -0.0096325 0.15631 0.22695
v 0.0028425 0.15631 0.18856
v -0.37838 0 0.0083413
v -0.19599 2.8694e-21 -0.12418
v 0.017968 0.12764 0.19339
v 0.31552 0.099166 -0.11
v 0.25174 0.099166 -0.21982
v 0.37645 0.049583 -0.17129
v 0.20536 0.099166 0.01573
v 0.21597 0.099166 -0.016931
v 0.27467 0.099166 0.01573
v 0.18157 0.099166 -0.2708
v 0.12419 0.099166 -0.18164
v 0.091519 0.099166 -0.20537
v 0.098425 0.099166 -0.10234
v 0.18157 1.8657e-18 -0.35494
v 0.42068 1.8657e-18 -0.18122
v 0.25223 9.3285e-19 0.099871
v 0.19801 0.033164 0.071732
v 0.32935 1.8657e-18 0.099871
v 0.049596 9.3285e-19 -0.25905
vn 0 -1 0
vn 0.94848 0.17599 0.26348
vn 0.95789 0.20871 0.19721
vn 0.95503 0.2965 -2.3221e-14
vn -0.58239 0.13516 -0.80159
vn 0 1 0
vn 2.3975e-14 0.16626 0.98608
vn -0.93965 0.15443 0.30531
vn 0.93965 0.15443 0.30531
vn 0.58239 0.13516 -0.80159
vn 0.24786 0.28 0.92745
vn -0.92745 0.28 0.24786
vn 0.92745 0.28 -0.24786
vn -0.24786 0.28 -0.92745
vn 0.62756 0.28 0.72647
vn -0.72647 0.28 0.62756
vn 0.72647 0.28 -0.62756
vn -0.62756 0.28 -0.72647
vn -0.18979 0.28 0.94105
vn -0.94105 0.28 -0.18979
vn 0.94105 0.28 0.18979
vn 0.18979 0.28 -0.94105
vn -0.27223 0.28 0.92059
vn -0.92059 0.28 -0.27223
vn 0.92059 0.28 0.27223
vn 0.27223 0.28 -0.92059
vn 0.90045 0.28 -0.33284
vn 0.33284 0.28 0.90045
vn -0.33284 0.28 -0.90045
vn -0.90045 0.28 0.33284
vn -0.89743 0.33104 -0.29159
vn 2.3673e-14 0.22801 0.97366
vn -0.92941 0.21216 0.30198
vn 0.92941 0.21216 0.30198
vn -0.57751 0.18614 -0.79488
vn 0.57751 0.18614 -0.79488
vn 0.49778 0.53178 0.68514
vn -0.90721 0.30013 0.29477
vn 0.90721 0.30013 0.29477
vn 0.56681 0.26477 -0.78014
vn 2.3024e-14 0.32139 0.94695
vn -0.55811 0.70559 0.43664
vn -0.5292 0.43522 -0.72838
vn 0.83195 0.48456 0.27032
vn 2.0872e-14 0.51293 0.85843
vn -0.83195 0.48456 0.27032
vn 0.44165 0.85974 -0.25651
vn 0.4846 0.56593 -0.667
vn 1.854e-14 0.64698 0.76251
vn 0.74752 0.61824 0.24288
vn -0.4846 0.56593 -0.667
vt 0.84375 0.025
vt 0.84375 0.025308
vt 0.84375 0.125
vt 0.84375 0.225
vt 0.84375 0.10599
vt 0.84375 0.088896
vt 0.84375 0.12055
vt 0.84375 0.15011
vt 0.84375 0.074022
vt 0.84375 0.059247
vt 0.84375 0.14308
vt 0.84375 0.20423
vt 0.84375 0.18199
vt 0.84375 0.16116
vt 0.84375 0.14159
vt 0.84375 0.15929
vt 0.84375 0.19245
vt 0.84375 0.14252
vt 0.84375 0.056722
vt 0.84375 0.066518
vt 0.84375 0.10666
vt 0.84375 0.075
vt 0.84375 0.058443
usemtl colormap
f 3/1/1 2/2/1 1/1/1
f 4/1/1 2/2/1 3/1/1
f 4/1/1 3/1/1 5/3/1
f 6/1/1 2/2/1 4/1/1
f 2/2/1 6/1/1 7/1/1
f 4/1/1 5/3/1 8/1/1
f 8/1/1 5/3/1 9/1/1
f 9/1/1 5/3/1 10/4/1
f 9/1/1 10/4/1 11/3/1
f 9/1/1 11/3/1 12/1/1
f 13/4/1 11/3/1 10/4/1
f 11/3/1 13/4/1 14/4/1
f 17/4/4 16/4/3 15/5/2
f 20/4/5 19/6/5 18/6/5
f 19/6/5 20/4/5 21/7/5
f 21/7/5 20/4/5 22/8/5
f 22/8/5 20/4/5 23/8/5
f 23/8/5 20/4/5 24/4/5
f 25/4/6 24/4/6 20/4/6
f 24/4/6 25/4/6 26/4/6
f 24/4/6 26/4/6 17/4/6
f 17/4/6 26/4/6 16/4/6
f 29/5/7 28/6/7 27/9/7
f 28/6/7 29/5/7 30/6/7
f 30/6/7 29/5/7 25/4/7
f 25/4/7 29/5/7 31/5/7
f 25/4/7 31/5/7 26/4/7
f 25/4/8 18/6/8 30/6/8
f 18/6/8 25/4/8 20/4/8
f 32/5/9 26/4/9 31/5/9
f 26/4/9 32/5/9 16/4/3
f 16/4/3 32/5/9 33/1/9
f 16/4/3 33/1/9 15/5/2
f 15/5/2 33/1/9 34/10/9
f 15/5/2 34/10/9 35/10/9
f 24/4/10 36/8/10 23/8/10
f 17/4/10 36/8/10 24/4/10
f 15/5/10 36/8/10 17/4/10
f 15/5/10 37/10/10 36/8/10
f 37/10/10 15/5/10 35/10/10
f 40/1/1 39/1/1 38/1/1
f 39/1/1 40/1/1 41/1/1
f 44/4/6 43/4/6 42/4/6
f 43/4/6 44/4/6 45/4/6
f 42/4/11 38/1/11 39/1/11
f 38/1/11 42/4/11 43/4/11
f 43/4/12 40/1/12 38/1/12
f 40/1/12 43/4/12 45/4/12
f 44/4/13 39/1/13 41/1/13
f 39/1/13 44/4/13 42/4/13
f 40/1/14 44/4/14 41/1/14
f 44/4/14 40/1/14 45/4/14
f 48/1/1 47/1/1 46/1/1
f 47/1/1 48/1/1 49/1/1
f 52/4/6 51/4/6 50/4/6
f 51/4/6 52/4/6 53/4/6
f 50/4/15 46/1/15 47/1/15
f 46/1/15 50/4/15 51/4/15
f 51/4/16 48/1/16 46/1/16
f 48/1/16 51/4/16 53/4/16
f 52/4/17 47/1/17 49/1/17
f 47/1/17 52/4/17 50/4/17
f 48/1/18 52/4/18 49/1/18
f 52/4/18 48/1/18 53/4/18
f 56/1/1 55/1/1 54/1/1
f 55/1/1 56/1/1 57/1/1
f 60/4/6 59/4/6 58/4/6
f 59/4/6 60/4/6 61/4/6
f 58/4/19 54/1/19 55/1/19
f 54/1/19 58/4/19 59/4/19
f 59/4/20 56/1/20 54/1/20
f 56/1/20 59/4/20 61/4/20
f 60/4/21 55/1/21 57/1/21
f 55/1/21 60/4/21 58/4/21
f 56/1/22 60/4/22 57/1/22
f 60/4/22 56/1/22 61/4/22
f 64/1/1 63/1/1 62/1/1
f 63/1/1 64/1/1 65/1/1
f 68/4/6 67/4/6 66/4/6
f 67/4/6 68/4/6 69/4/6
f 66/4/23 62/1/23 63/1/23
f 62/1/23 66/4/23 67/4/23
f 67/4/24 64/1/24 62/1/24
f 64/1/24 67/4/24 69/4/24
f 68/4/25 63/1/25 65/1/25
f 63/1/25 68/4/25 66/4/25
f 64/1/26 68/4/26 65/1/26
f 68/4/26 64/1/26 69/4/26
f 72/1/1 71/1/1 70/1/1
f 71/1/1 72/1/1 73/1/1
f 76/4/6 75/4/6 74/4/6
f 75/4/6 76/4/6 77/4/6
f 74/4/27 70/1/27 71/1/27
f 70/1/27 74/4/27 75/4/27
f 75/4/28 72/1/28 70/1/28
f 72/1/28 75/4/28 77/4/28
f 76/4/29 71/1/29 73/1/29
f 71/1/29 76/4/29 74/4/29
f 72/1/30 76/4/30 73/1/30
f 76/4/30 72/1/30 77/4/30
f 80/4/31 79/11/31 78/4/31
f 83/4/32 82/12/32 81/4/32
f 83/4/33 84/13/33 82/12/33
f 84/13/33 83/4/33 85/13/33
f 85/13/33 83/4/33 78/4/33
f 85/13/33 78/4/33 2/3/33
f 2/3/33 78/4/33 86/3/33
f 86/3/33 78/4/33 79/11/33
f 89/14/34 88/4/34 87/4/34
f 88/4/34 89/14/34 90/14/34
f 83/4/6 80/4/6 78/4/6
f 80/4/6 83/4/6 91/4/6
f 91/4/6 83/4/6 81/4/6
f 91/4/6 81/4/6 23/4/6
f 91/4/6 23/4/6 88/4/6
f 88/4/6 23/4/6 87/4/6
f 79/11/35 3/3/35 86/3/35
f 3/3/35 79/11/35 91/4/35
f 91/4/35 79/11/35 80/4/35
f 91/4/36 92/3/36 3/3/36
f 92/3/36 91/4/36 93/14/36
f 88/4/36 93/14/36 91/4/36
f 93/14/36 88/4/36 90/14/36
f 96/4/37 95/15/37 94/4/37
f 99/4/38 98/3/38 97/3/38
f 98/3/38 99/4/38 100/16/38
f 100/16/38 99/4/38 101/4/38
f 100/16/38 101/4/38 102/17/38
f 104/3/39 95/15/39 103/3/39
f 95/15/39 104/3/39 94/4/39
f 94/4/39 104/3/39 105/4/39
f 99/4/6 106/4/6 101/4/6
f 106/4/6 99/4/6 96/4/6
f 106/4/6 96/4/6 107/4/6
f 107/4/6 96/4/6 94/4/6
f 107/4/6 94/4/6 105/4/6
f 108/3/40 105/4/40 104/3/40
f 105/4/40 108/3/40 109/18/40
f 105/4/40 109/18/40 107/4/40
f 95/15/41 97/3/41 103/3/41
f 97/3/41 95/15/41 99/4/41
f 99/4/41 95/15/41 96/4/41
f 112/3/42 111/3/42 110/19/42
f 111/3/6 85/3/6 113/3/6
f 85/3/6 111/3/6 112/3/6
f 85/3/6 112/3/6 114/3/6
f 115/3/6 85/3/6 114/3/6
f 114/3/6 112/3/6 30/3/6
f 30/3/6 112/3/6 116/3/6
f 30/3/6 116/3/6 117/3/6
f 113/3/43 119/1/43 118/1/43
f 119/1/43 113/3/43 85/3/43
f 120/21/44 116/3/44 100/20/44
f 116/3/44 120/21/44 117/3/44
f 100/20/45 6/1/45 98/1/45
f 6/1/45 100/20/45 110/19/45
f 110/19/45 100/20/45 112/3/45
f 112/3/45 100/20/45 116/3/45
f 110/19/46 118/1/46 6/1/46
f 118/1/46 110/19/46 111/3/46
f 118/1/46 111/3/46 113/3/46
f 123/22/47 122/3/47 121/3/47
f 126/3/6 125/3/6 124/3/6
f 125/3/6 126/3/6 122/3/6
f 122/3/6 126/3/6 121/3/6
f 127/3/6 125/3/6 122/3/6
f 128/3/6 125/3/6 127/3/6
f 127/3/6 129/3/6 128/3/6
f 125/3/6 128/3/6 130/3/6
f 127/3/48 132/1/48 131/1/48
f 132/1/48 127/3/48 123/22/48
f 123/22/48 127/3/48 122/3/48
f 135/1/49 134/23/49 133/1/49
f 134/23/49 135/1/49 126/3/49
f 134/23/49 126/3/49 124/3/49
f 132/1/50 126/3/50 135/1/50
f 126/3/50 132/1/50 121/3/50
f 121/3/50 132/1/50 123/22/50
f 129/3/51 131/1/51 136/1/51
f 131/1/51 129/3/51 127/3/51
g rock-sand-b
usemtl colormap
f 3/1/1 2/2/1 1/1/1
f 4/1/1 2/2/1 3/1/1
f 4/1/1 3/1/1 5/3/1
f 6/1/1 2/2/1 4/1/1
f 2/2/1 6/1/1 7/1/1
f 4/1/1 5/3/1 8/1/1
f 8/1/1 5/3/1 9/1/1
f 9/1/1 5/3/1 10/4/1
f 9/1/1 10/4/1 11/3/1
f 9/1/1 11/3/1 12/1/1
f 13/4/1 11/3/1 10/4/1
f 11/3/1 13/4/1 14/4/1
f 17/4/4 16/4/3 15/5/2
f 20/4/5 19/6/5 18/6/5
f 19/6/5 20/4/5 21/7/5
f 21/7/5 20/4/5 22/8/5
f 22/8/5 20/4/5 23/8/5
f 23/8/5 20/4/5 24/4/5
f 25/4/6 24/4/6 20/4/6
f 24/4/6 25/4/6 26/4/6
f 24/4/6 26/4/6 17/4/6
f 17/4/6 26/4/6 16/4/6
f 29/5/7 28/6/7 27/9/7
f 28/6/7 29/5/7 30/6/7
f 30/6/7 29/5/7 25/4/7
f 25/4/7 29/5/7 31/5/7
f 25/4/7 31/5/7 26/4/7
f 25/4/8 18/6/8 30/6/8
f 18/6/8 25/4/8 20/4/8
f 32/5/9 26/4/9 31/5/9
f 26/4/9 32/5/9 16/4/3
f 16/4/3 32/5/9 33/1/9
f 16/4/3 33/1/9 15/5/2
f 15/5/2 33/1/9 34/10/9
f 15/5/2 34/10/9 35/10/9
f 24/4/10 36/8/10 23/8/10
f 17/4/10 36/8/10 24/4/10
f 15/5/10 36/8/10 17/4/10
f 15/5/10 37/10/10 36/8/10
f 37/10/10 15/5/10 35/10/10
f 40/1/1 39/1/1 38/1/1
f 39/1/1 40/1/1 41/1/1
f 44/4/6 43/4/6 42/4/6
f 43/4/6 44/4/6 45/4/6
f 42/4/11 38/1/11 39/1/11
f 38/1/11 42/4/11 43/4/11
f 43/4/12 40/1/12 38/1/12
f 40/1/12 43/4/12 45/4/12
f 44/4/13 39/1/13 41/1/13
f 39/1/13 44/4/13 42/4/13
f 40/1/14 44/4/14 41/1/14
f 44/4/14 40/1/14 45/4/14
f 48/1/1 47/1/1 46/1/1
f 47/1/1 48/1/1 49/1/1
f 52/4/6 51/4/6 50/4/6
f 51/4/6 52/4/6 53/4/6
f 50/4/15 46/1/15 47/1/15
f 46/1/15 50/4/15 51/4/15
f 51/4/16 48/1/16 46/1/16
f 48/1/16 51/4/16 53/4/16
f 52/4/17 47/1/17 49/1/17
f 47/1/17 52/4/17 50/4/17
f 48/1/18 52/4/18 49/1/18
f 52/4/18 48/1/18 53/4/18
f 56/1/1 55/1/1 54/1/1
f 55/1/1 56/1/1 57/1/1
f 60/4/6 59/4/6 58/4/6
f 59/4/6 60/4/6 61/4/6
f 58/4/19 54/1/19 55/1/19
f 54/1/19 58/4/19 59/4/19
f 59/4/20 56/1/20 54/1/20
f 56/1/20 59/4/20 61/4/20
f 60/4/21 55/1/21 57/1/21
f 55/1/21 60/4/21 58/4/21
f 56/1/22 60/4/22 57/1/22
f 60/4/22 56/1/22 61/4/22
f 64/1/1 63/1/1 62/1/1
f 63/1/1 64/1/1 65/1/1
f 68/4/6 67/4/6 66/4/6
f 67/4/6 68/4/6 69/4/6
f 66/4/23 62/1/23 63/1/23
f 62/1/23 66/4/23 67/4/23
f 67/4/24 64/1/24 62/1/24
f 64/1/24 67/4/24 69/4/24
f 68/4/25 63/1/25 65/1/25
f 63/1/25 68/4/25 66/4/25
f 64/1/26 68/4/26 65/1/26
f 68/4/26 64/1/26 69/4/26
f 72/1/1 71/1/1 70/1/1
f 71/1/1 72/1/1 73/1/1
f 76/4/6 75/4/6 74/4/6
f 75/4/6 76/4/6 77/4/6
f 74/4/27 70/1/27 71/1/27
f 70/1/27 74/4/27 75/4/27
f 75/4/28 72/1/28 70/1/28
f 72/1/28 75/4/28 77/4/28
f 76/4/29 71/1/29 73/1/29
f 71/1/29 76/4/29 74/4/29
f 72/1/30 76/4/30 73/1/30
f 76/4/30 72/1/30 77/4/30
f 80/4/31 79/11/31 78/4/31
f 83/4/32 82/12/32 81/4/32
f 83/4/33 84/13/33 82/12/33
f 84/13/33 83/4/33 85/13/33
f 85/13/33 83/4/33 78/4/33
f 85/13/33 78/4/33 2/3/33
f 2/3/33 78/4/33 86/3/33
f 86/3/33 78/4/33 79/11/33
f 89/14/34 88/4/34 87/4/34
f 88/4/34 89/14/34 90/14/34
f 83/4/6 80/4/6 78/4/6
f 80/4/6 83/4/6 91/4/6
f 91/4/6 83/4/6 81/4/6
f 91/4/6 81/4/6 23/4/6
f 91/4/6 23/4/6 88/4/6
f 88/4/6 23/4/6 87/4/6
f 79/11/35 3/3/35 86/3/35
f 3/3/35 79/11/35 91/4/35
f 91/4/35 79/11/35 80/4/35
f 91/4/36 92/3/36 3/3/36
f 92/3/36 91/4/36 93/14/36
f 88/4/36 93/14/36 91/4/36
f 93/14/36 88/4/36 90/14/36
f 96/4/37 95/15/37 94/4/37
f 99/4/38 98/3/38 97/3/38
f 98/3/38 99/4/38 100/16/38
f 100/16/38 99/4/38 101/4/38
f 100/16/38 101/4/38 102/17/38
f 104/3/39 95/15/39 103/3/39
f 95/15/39 104/3/39 94/4/39
f 94/4/39 104/3/39 105/4/39
f 99/4/6 106/4/6 101/4/6
f 106/4/6 99/4/6 96/4/6
f 106/4/6 96/4/6 107/4/6
f 107/4/6 96/4/6 94/4/6
f 107/4/6 94/4/6 105/4/6
f 108/3/40 105/4/40 104/3/40
f 105/4/40 108/3/40 109/18/40
f 105/4/40 109/18/40 107/4/40
f 95/15/41 97/3/41 103/3/41
f 97/3/41 95/15/41 99/4/41
f 99/4/41 95/15/41 96/4/41
f 112/3/42 111/3/42 110/19/42
f 111/3/6 85/3/6 113/3/6
f 85/3/6 111/3/6 112/3/6
f 85/3/6 112/3/6 114/3/6
f 115/3/6 85/3/6 114/3/6
f 114/3/6 112/3/6 30/3/6
f 30/3/6 112/3/6 116/3/6
f 30/3/6 116/3/6 117/3/6
f 113/3/43 119/1/43 118/1/43
f 119/1/43 113/3/43 85/3/43
f 120/21/44 116/3/44 100/20/44
f 116/3/44 120/21/44 117/3/44
f 100/20/45 6/1/45 98/1/45
f 6/1/45 100/20/45 110/19/45
f 110/19/45 100/20/45 112/3/45
f 112/3/45 100/20/45 116/3/45
f 110/19/46 118/1/46 6/1/46
f 118/1/46 110/19/46 111/3/46
f 118/1/46 111/3/46 113/3/46
f 123/22/47 122/3/47 121/3/47
f 126/3/6 125/3/6 124/3/6
f 125/3/6 126/3/6 122/3/6
f 122/3/6 126/3/6 121/3/6
f 127/3/6 125/3/6 122/3/6
f 128/3/6 125/3/6 127/3/6
f 127/3/6 129/3/6 128/3/6
f 125/3/6 128/3/6 130/3/6
f 127/3/48 132/1/48 131/1/48
f 132/1/48 127/3/48 123/22/48
f 123/22/48 127/3/48 122/3/48
f 135/1/49 134/23/49 133/1/49
f 134/23/49 135/1/49 126/3/49
f 134/23/49 126/3/49 124/3/49
f 132/1/50 126/3/50 135/1/50
f 126/3/50 132/1/50 121/3/50
f 121/3/50 132/1/50 123/22/50
f 129/3/51 131/1/51 136/1/51
f 131/1/51 129/3/51 127/3/51
