mtllib rock-b.mtl
g rock-b
v 0.2 0.18925 -0.013346
v 0.1288 0.41861 0.089792
v 0.1288 0.41861 -0.026409
v -0.13989 0.15631 -0.014657
v -0.12762 0.15631 -0.02357
v -0.093387 0.41861 -0.0042163
v -0.11365 0.2173 -0.023433
v -0.08207 0.27427 -0.036775
v 0.032977 0.27427 -0.12036
v 0.032977 0.41861 -0.096025
v -0.04512 0.41861 0.14433
v 0.11107 0.41861 0.14433
v 0.017968 0.12764 0.19339
v 0.0028425 0.15631 0.18856
v 0.034974 0.18925 0.18301
v -0.073861 0.15631 0.18856
v 0.1362 0.18925 0.18301
v 0.16333 0.18925 0.09951
v 0.19801 0.033164 0.071732
v 0.20536 0.099166 0.01573
v 0.21597 0.099166 -0.016931
v 0.058327 0.27427 -0.10194
v 0.098425 0.099166 -0.10234
v 0.44733 -1.3395e-16 0.19179
v 0.45626 -1.3395e-16 0.11732
v 0.37286 -1.3395e-16 0.18286
v 0.38179 -1.3395e-16 0.10839
v 0.38745 0.025875 0.17139
v 0.39326 0.025875 0.12299
v 0.43586 0.025875 0.17719
v 0.44166 0.025875 0.12879
v 0.15607 0.099166 -0.084621
v 0.23002 0.099166 -0.072076
v 0.16862 0.099166 -0.15856
v 0.24256 0.099166 -0.14602
v 0.17936 0.12504 -0.14343
v 0.22743 0.12504 -0.13527
v 0.17121 0.12504 -0.095366
v 0.21927 0.12504 -0.087211
v -0.14743 0.15631 0.057056
v -0.21998 0.15631 0.038026
v -0.16646 0.15631 0.1296
v -0.23901 0.15631 0.11057
v -0.17583 0.18218 0.11358
v -0.22298 0.18218 0.10121
v -0.16346 0.18218 0.066421
v -0.21061 0.18218 0.054052
v 0.23549 0.18925 0.2484
v 0.25174 0.031401 0.35911
v 0.15684 0.18925 0.30554
v 0.033048 0 0.36977
v 0.016992 0 0.32035
v 0.074787 0.18925 0.30554
v 0.025862 0.064894 0.28157
v 0.034974 0.18925 0.18301
v 0.017968 0.12764 0.19339
v 0.25866 0 0.36977
v 0.32838 0 0.15519
v 0.26085 0.18925 0.17036
v 0.1362 0.18925 0.18301
v 0.16333 0.18925 0.09951
v 0.25223 9.3285e-19 0.099871
v 0.19801 0.033164 0.071732
v -0.13715 0.27427 -0.13576
v -0.20423 0.049583 -0.18438
v -0.11812 0.27427 -0.19432
v -0.08207 0.27427 -0.036775
v -0.11365 0.2173 -0.023433
v -0.10498 0.27427 -0.036775
v -0.12762 0.15631 -0.02357
v -0.14257 0.15631 -0.069588
v -0.19599 2.8694e-21 -0.12418
v -0.21644 0 -0.18712
v 0.058327 0.27427 -0.10194
v 0.081075 0.27427 -0.17196
v 0.098425 0.099166 -0.10234
v 0.12419 0.099166 -0.18164
v -0.033916 0.27427 -0.2555
v -0.033916 0 -0.31973
v 0.049596 9.3285e-19 -0.25905
v 0.091519 0.099166 -0.20537
v -0.25775 0.049583 0.29072
v -0.24728 0.15631 0.13166
v -0.17272 0.15631 0.22695
v -0.28018 0.15631 0.030389
v -0.13989 0.15631 -0.014657
v -0.12762 0.15631 -0.02357
v -0.0096325 0.15631 0.22695
v 0.0028425 0.15631 0.18856
v -0.37838 0 0.0083413
v -0.19599 2.8694e-21 -0.12418
v 0.017968 0.12764 0.19339
v -0.27701 0 0.32035
v 0.31552 0.099166 -0.11
v 0.25174 0.099166 -0.21982
v 0.37645 0.049583 -0.17129
v 0.20536 0.099166 0.01573
v 0.21597 0.099166 -0.016931
v 0.27467 0.099166 0.01573
v 0.18157 0.099166 -0.2708
v 0.12419 0.099166 -0.18164
v 0.091519 0.099166 -0.20537
v 0.098425 0.099166 -0.10234
v 0.18157 1.8657e-18 -0.35494
v 0.42068 1.8657e-18 -0.18122
v 0.25223 9.3285e-19 0.099871
v 0.19801 0.033164 0.071732
v 0.32935 1.8657e-18 0.099871
v 0.049596 9.3285e-19 -0.25905
v -0.21644 0 -0.18712
v 0.016992 0 0.32035
v 0.049596 9.3285e-19 -0.25905
v -0.37838 0 0.0083413
v 0.033048 0 0.36977
v 0.25866 0 0.36977
v 0.18157 1.8657e-18 -0.35494
v 0.25223 9.3285e-19 0.099871
v 0.32838 0 0.15519
v 0.42068 1.8657e-18 -0.18122
v 0.32935 1.8657e-18 0.099871
vn 0.94848 0.17599 0.26348
vn 0.95789 0.20871 0.19721
vn 0.95503 0.2965 -3.9873e-13
vn -0.58239 0.13516 -0.80159
vn 0 1 0
vn 4.1169e-13 0.16626 0.98608
vn -0.93965 0.15443 0.30531
vn 0.93965 0.15443 0.30531
vn 0.58239 0.13516 -0.80159
vn 0 -1 0
vn -0.10621 0.45238 0.88548
vn -0.88548 0.45238 -0.10621
vn 0.88548 0.45238 0.10621
vn 0.10621 0.45238 -0.88548
vn -0.87926 0.45238 -0.14917
vn 0.14917 0.45238 -0.87926
vn -0.14917 0.45238 0.87926
vn 0.87926 0.45238 0.14917
vn 0.86264 0.45238 0.22629
vn -0.22629 0.45238 0.86264
vn 0.22629 0.45238 -0.86264
vn -0.86264 0.45238 -0.22629
vn 0.49778 0.53178 0.68514
vn -0.90721 0.30013 0.29477
vn 0.90721 0.30013 0.29477
vn 0.56681 0.26477 -0.78014
vn 3.9535e-13 0.32139 0.94695
vn -0.89743 0.33104 -0.29159
vn 4.065e-13 0.22801 0.97366
vn -0.92941 0.21216 0.30198
vn 0.92941 0.21216 0.30198
vn -0.57751 0.18614 -0.79488
vn 0.57751 0.18614 -0.79488
vn -0.55811 0.70559 0.43664
vn -0.5292 0.43522 -0.72838
vn 0.83195 0.48456 0.27032
vn 3.5839e-13 0.51293 0.85843
vn -0.83195 0.48456 0.27032
vn 0.44165 0.85974 -0.25651
vn 0.4846 0.56593 -0.667
vn 3.1835e-13 0.64698 0.76251
vn 0.74752 0.61824 0.24288
vn -0.4846 0.56593 -0.667
vt 0.21875 0.10599
vt 0.21875 0.225
vt 0.21875 0.088896
vt 0.21875 0.12055
vt 0.21875 0.15011
vt 0.21875 0.074022
vt 0.21875 0.025
vt 0.21875 0.059247
vt 0.21875 0.14159
vt 0.21875 0.125
vt 0.21875 0.15929
vt 0.21875 0.19245
vt 0.21875 0.14252
vt 0.21875 0.14308
vt 0.21875 0.20423
vt 0.21875 0.18199
vt 0.21875 0.16116
vt 0.21875 0.056722
vt 0.21875 0.066518
vt 0.21875 0.10666
vt 0.21875 0.075
vt 0.21875 0.058443
vt 0.84375 0.025
vt 0.84375 0.025308
vt 0.84375 0.125
vt 0.84375 0.225
usemtl colormap
f 3/2/3 2/2/2 1/1/1
f 6/2/4 5/3/4 4/3/4
f 5/3/4 6/2/4 7/4/4
f 7/4/4 6/2/4 8/5/4
f 8/5/4 6/2/4 9/5/4
f 9/5/4 6/2/4 10/2/4
f 11/2/5 10/2/5 6/2/5
f 10/2/5 11/2/5 12/2/5
f 10/2/5 12/2/5 3/2/5
f 3/2/5 12/2/5 2/2/5
f 15/1/6 14/3/6 13/6/6
f 14/3/6 15/1/6 16/3/6
f 16/3/6 15/1/6 11/2/6
f 11/2/6 15/1/6 17/1/6
f 11/2/6 17/1/6 12/2/6
f 11/2/7 4/3/7 16/3/7
f 4/3/7 11/2/7 6/2/7
f 18/1/8 12/2/8 17/1/8
f 12/2/8 18/1/8 2/2/2
f 2/2/2 18/1/8 19/7/8
f 2/2/2 19/7/8 1/1/1
f 1/1/1 19/7/8 20/8/8
f 1/1/1 20/8/8 21/8/8
f 10/2/9 22/5/9 9/5/9
f 3/2/9 22/5/9 10/2/9
f 1/1/9 22/5/9 3/2/9
f 1/1/9 23/8/9 22/5/9
f 23/8/9 1/1/9 21/8/9
f 26/7/10 25/7/10 24/7/10
f 25/7/10 26/7/10 27/7/10
f 30/2/5 29/2/5 28/2/5
f 29/2/5 30/2/5 31/2/5
f 30/2/11 26/7/11 24/7/11
f 26/7/11 30/2/11 28/2/11
f 28/2/12 27/7/12 26/7/12
f 27/7/12 28/2/12 29/2/12
f 31/2/13 24/7/13 25/7/13
f 24/7/13 31/2/13 30/2/13
f 27/7/14 31/2/14 25/7/14
f 31/2/14 27/7/14 29/2/14
f 34/7/10 33/7/10 32/7/10
f 33/7/10 34/7/10 35/7/10
f 38/2/5 37/2/5 36/2/5
f 37/2/5 38/2/5 39/2/5
f 38/2/15 34/7/15 32/7/15
f 34/7/15 38/2/15 36/2/15
f 36/2/16 35/7/16 34/7/16
f 35/7/16 36/2/16 37/2/16
f 39/2/17 32/7/17 33/7/17
f 32/7/17 39/2/17 38/2/17
f 35/7/18 39/2/18 33/7/18
f 39/2/18 35/7/18 37/2/18
f 42/7/10 41/7/10 40/7/10
f 41/7/10 42/7/10 43/7/10
f 46/2/5 45/2/5 44/2/5
f 45/2/5 46/2/5 47/2/5
f 46/2/19 42/7/19 40/7/19
f 42/7/19 46/2/19 44/2/19
f 44/2/20 43/7/20 42/7/20
f 43/7/20 44/2/20 45/2/20
f 47/2/21 40/7/21 41/7/21
f 40/7/21 47/2/21 46/2/21
f 43/7/22 47/2/22 41/7/22
f 47/2/22 43/7/22 45/2/22
f 50/2/23 49/9/23 48/2/23
f 53/2/24 52/10/24 51/10/24
f 52/10/24 53/2/24 54/11/24
f 54/11/24 53/2/24 55/2/24
f 54/11/24 55/2/24 56/12/24
f 58/10/25 49/9/25 57/10/25
f 49/9/25 58/10/25 48/2/25
f 48/2/25 58/10/25 59/2/25
f 53/2/5 60/2/5 55/2/5
f 60/2/5 53/2/5 50/2/5
f 60/2/5 50/2/5 61/2/5
f 61/2/5 50/2/5 48/2/5
f 61/2/5 48/2/5 59/2/5
f 62/10/26 59/2/26 58/10/26
f 59/2/26 62/10/26 63/13/26
f 59/2/26 63/13/26 61/2/26
f 49/9/27 51/10/27 57/10/27
f 51/10/27 49/9/27 53/2/27
f 53/2/27 49/9/27 50/2/27
f 66/2/28 65/14/28 64/2/28
f 69/2/29 68/15/29 67/2/29
f 69/2/30 70/16/30 68/15/30
f 70/16/30 69/2/30 71/16/30
f 71/16/30 69/2/30 64/2/30
f 71/16/30 64/2/30 72/10/30
f 72/10/30 64/2/30 73/10/30
f 73/10/30 64/2/30 65/14/30
f 76/17/31 75/2/31 74/2/31
f 75/2/31 76/17/31 77/17/31
f 69/2/5 66/2/5 64/2/5
f 66/2/5 69/2/5 78/2/5
f 78/2/5 69/2/5 67/2/5
f 78/2/5 67/2/5 9/2/5
f 78/2/5 9/2/5 75/2/5
f 75/2/5 9/2/5 74/2/5
f 65/14/32 79/10/32 73/10/32
f 79/10/32 65/14/32 78/2/32
f 78/2/32 65/14/32 66/2/32
f 78/2/33 80/10/33 79/10/33
f 80/10/33 78/2/33 81/17/33
f 75/2/33 81/17/33 78/2/33
f 81/17/33 75/2/33 77/17/33
f 84/10/34 83/10/34 82/18/34
f 83/10/5 71/10/5 85/10/5
f 71/10/5 83/10/5 84/10/5
f 71/10/5 84/10/5 86/10/5
f 87/10/5 71/10/5 86/10/5
f 86/10/5 84/10/5 16/10/5
f 16/10/5 84/10/5 88/10/5
f 16/10/5 88/10/5 89/10/5
f 85/10/35 91/7/35 90/7/35
f 91/7/35 85/10/35 71/10/35
f 92/20/36 88/10/36 54/19/36
f 88/10/36 92/20/36 89/10/36
f 54/19/37 93/7/37 52/7/37
f 93/7/37 54/19/37 82/18/37
f 82/18/37 54/19/37 84/10/37
f 84/10/37 54/19/37 88/10/37
f 82/18/38 90/7/38 93/7/38
f 90/7/38 82/18/38 83/10/38
f 90/7/38 83/10/38 85/10/38
f 96/21/39 95/10/39 94/10/39
f 99/10/5 98/10/5 97/10/5
f 98/10/5 99/10/5 95/10/5
f 95/10/5 99/10/5 94/10/5
f 100/10/5 98/10/5 95/10/5
f 101/10/5 98/10/5 100/10/5
f 100/10/5 102/10/5 101/10/5
f 98/10/5 101/10/5 103/10/5
f 100/10/40 105/7/40 104/7/40
f 105/7/40 100/10/40 96/21/40
f 96/21/40 100/10/40 95/10/40
f 108/7/41 107/22/41 106/7/41
f 107/22/41 108/7/41 99/10/41
f 107/22/41 99/10/41 97/10/41
f 105/7/42 99/10/42 108/7/42
f 99/10/42 105/7/42 94/10/42
f 94/10/42 105/7/42 96/21/42
f 102/10/43 104/7/43 109/7/43
f 104/7/43 102/10/43 100/10/43
f 79/23/10 72/24/10 110/23/10
f 111/23/10 72/24/10 79/23/10
f 111/23/10 79/23/10 112/25/10
f 93/23/10 72/24/10 111/23/10
f 72/24/10 93/23/10 113/23/10
f 111/23/10 112/25/10 114/23/10
f 114/23/10 112/25/10 115/23/10
f 115/23/10 112/25/10 116/26/10
f 115/23/10 116/26/10 117/25/10
f 115/23/10 117/25/10 118/23/10
f 119/26/10 117/25/10 116/26/10
f 117/25/10 119/26/10 120/26/10
g rock-b
usemtl colormap
f 3/2/3 2/2/2 1/1/1
f 6/2/4 5/3/4 4/3/4
f 5/3/4 6/2/4 7/4/4
f 7/4/4 6/2/4 8/5/4
f 8/5/4 6/2/4 9/5/4
f 9/5/4 6/2/4 10/2/4
f 11/2/5 10/2/5 6/2/5
f 10/2/5 11/2/5 12/2/5
f 10/2/5 12/2/5 3/2/5
f 3/2/5 12/2/5 2/2/5
f 15/1/6 14/3/6 13/6/6
f 14/3/6 15/1/6 16/3/6
f 16/3/6 15/1/6 11/2/6
f 11/2/6 15/1/6 17/1/6
f 11/2/6 17/1/6 12/2/6
f 11/2/7 4/3/7 16/3/7
f 4/3/7 11/2/7 6/2/7
f 18/1/8 12/2/8 17/1/8
f 12/2/8 18/1/8 2/2/2
f 2/2/2 18/1/8 19/7/8
f 2/2/2 19/7/8 1/1/1
f 1/1/1 19/7/8 20/8/8
f 1/1/1 20/8/8 21/8/8
f 10/2/9 22/5/9 9/5/9
f 3/2/9 22/5/9 10/2/9
f 1/1/9 22/5/9 3/2/9
f 1/1/9 23/8/9 22/5/9
f 23/8/9 1/1/9 21/8/9
f 26/7/10 25/7/10 24/7/10
f 25/7/10 26/7/10 27/7/10
f 30/2/5 29/2/5 28/2/5
f 29/2/5 30/2/5 31/2/5
f 30/2/11 26/7/11 24/7/11
f 26/7/11 30/2/11 28/2/11
f 28/2/12 27/7/12 26/7/12
f 27/7/12 28/2/12 29/2/12
f 31/2/13 24/7/13 25/7/13
f 24/7/13 31/2/13 30/2/13
f 27/7/14 31/2/14 25/7/14
f 31/2/14 27/7/14 29/2/14
f 34/7/10 33/7/10 32/7/10
f 33/7/10 34/7/10 35/7/10
f 38/2/5 37/2/5 36/2/5
f 37/2/5 38/2/5 39/2/5
f 38/2/15 34/7/15 32/7/15
f 34/7/15 38/2/15 36/2/15
f 36/2/16 35/7/16 34/7/16
f 35/7/16 36/2/16 37/2/16
f 39/2/17 32/7/17 33/7/17
f 32/7/17 39/2/17 38/2/17
f 35/7/18 39/2/18 33/7/18
f 39/2/18 35/7/18 37/2/18
f 42/7/10 41/7/10 40/7/10
f 41/7/10 42/7/10 43/7/10
f 46/2/5 45/2/5 44/2/5
f 45/2/5 46/2/5 47/2/5
f 46/2/19 42/7/19 40/7/19
f 42/7/19 46/2/19 44/2/19
f 44/2/20 43/7/20 42/7/20
f 43/7/20 44/2/20 45/2/20
f 47/2/21 40/7/21 41/7/21
f 40/7/21 47/2/21 46/2/21
f 43/7/22 47/2/22 41/7/22
f 47/2/22 43/7/22 45/2/22
f 50/2/23 49/9/23 48/2/23
f 53/2/24 52/10/24 51/10/24
f 52/10/24 53/2/24 54/11/24
f 54/11/24 53/2/24 55/2/24
f 54/11/24 55/2/24 56/12/24
f 58/10/25 49/9/25 57/10/25
f 49/9/25 58/10/25 48/2/25
f 48/2/25 58/10/25 59/2/25
f 53/2/5 60/2/5 55/2/5
f 60/2/5 53/2/5 50/2/5
f 60/2/5 50/2/5 61/2/5
f 61/2/5 50/2/5 48/2/5
f 61/2/5 48/2/5 59/2/5
f 62/10/26 59/2/26 58/10/26
f 59/2/26 62/10/26 63/13/26
f 59/2/26 63/13/26 61/2/26
f 49/9/27 51/10/27 57/10/27
f 51/10/27 49/9/27 53/2/27
f 53/2/27 49/9/27 50/2/27
f 66/2/28 65/14/28 64/2/28
f 69/2/29 68/15/29 67/2/29
f 69/2/30 70/16/30 68/15/30
f 70/16/30 69/2/30 71/16/30
f 71/16/30 69/2/30 64/2/30
f 71/16/30 64/2/30 72/10/30
f 72/10/30 64/2/30 73/10/30
f 73/10/30 64/2/30 65/14/30
f 76/17/31 75/2/31 74/2/31
f 75/2/31 76/17/31 77/17/31
f 69/2/5 66/2/5 64/2/5
f 66/2/5 69/2/5 78/2/5
f 78/2/5 69/2/5 67/2/5
f 78/2/5 67/2/5 9/2/5
f 78/2/5 9/2/5 75/2/5
f 75/2/5 9/2/5 74/2/5
f 65/14/32 79/10/32 73/10/32
f 79/10/32 65/14/32 78/2/32
f 78/2/32 65/14/32 66/2/32
f 78/2/33 80/10/33 79/10/33
f 80/10/33 78/2/33 81/17/33
f 75/2/33 81/17/33 78/2/33
f 81/17/33 75/2/33 77/17/33
f 84/10/34 83/10/34 82/18/34
f 83/10/5 71/10/5 85/10/5
f 71/10/5 83/10/5 84/10/5
f 71/10/5 84/10/5 86/10/5
f 87/10/5 71/10/5 86/10/5
f 86/10/5 84/10/5 16/10/5
f 16/10/5 84/10/5 88/10/5
f 16/10/5 88/10/5 89/10/5
f 85/10/35 91/7/35 90/7/35
f 91/7/35 85/10/35 71/10/35
f 92/20/36 88/10/36 54/19/36
f 88/10/36 92/20/36 89/10/36
f 54/19/37 93/7/37 52/7/37
f 93/7/37 54/19/37 82/18/37
f 82/18/37 54/19/37 84/10/37
f 84/10/37 54/19/37 88/10/37
f 82/18/38 90/7/38 93/7/38
f 90/7/38 82/18/38 83/10/38
f 90/7/38 83/10/38 85/10/38
f 96/21/39 95/10/39 94/10/39
f 99/10/5 98/10/5 97/10/5
f 98/10/5 99/10/5 95/10/5
f 95/10/5 99/10/5 94/10/5
f 100/10/5 98/10/5 95/10/5
f 101/10/5 98/10/5 100/10/5
f 100/10/5 102/10/5 101/10/5
f 98/10/5 101/10/5 103/10/5
f 100/10/40 105/7/40 104/7/40
f 105/7/40 100/10/40 96/21/40
f 96/21/40 100/10/40 95/10/40
f 108/7/41 107/22/41 106/7/41
f 107/22/41 108/7/41 99/10/41
f 107/22/41 99/10/41 97/10/41
f 105/7/42 99/10/42 108/7/42
f 99/10/42 105/7/42 94/10/42
f 94/10/42 105/7/42 96/21/42
f 102/10/43 104/7/43 109/7/43
f 104/7/43 102/10/43 100/10/43
f 79/23/10 72/24/10 110/23/10
f 111/23/10 72/24/10 79/23/10
f 111/23/10 79/23/10 112/25/10
f 93/23/10 72/24/10 111/23/10
f 72/24/10 93/23/10 113/23/10
f 111/23/10 112/25/10 114/23/10
f 114/23/10 112/25/10 115/23/10
f 115/23/10 112/25/10 116/26/10
f 115/23/10 116/26/10 117/25/10
f 115/23/10 117/25/10 118/23/10
f 119/26/10 117/25/10 116/26/10
f 117/25/10 119/26/10 120/26/10
