mtllib rock-sand-c.mtl
g rock-sand-c
v -0.045262 0.32385 -0.19003
v 0.018318 0.054801 -0.27436
v 0.032661 0.32385 -0.16471
v 0.032661 0.32385 0.034903
v 0.01378 0.13398 0.12434
v -0.045262 0.32385 0.060222
v -0.16259 0.32385 -0.10693
v -0.18152 0.24591 -0.14599
v -0.16259 0.32385 -0.15191
v -0.24122 5.4161e-16 -0.15569
v -0.24122 5.4161e-16 -0.203
v 0.10518 0.32385 -0.064904
v 0.14449 0.16193 -0.064904
v 0.075892 0.16193 -0.15932
v 0.062648 4.5128e-16 -0.23166
v 0.021459 5.4161e-16 -0.28835
v 0.021459 5.4161e-16 0.15855
v -0.028698 5.4161e-16 0.14225
v -0.034475 0.10012 0.11668
v -0.090734 0.20362 0.073902
v -0.11442 0.32385 0.03775
v -0.11934 0.20362 0.064607
v 0.063769 4.5128e-16 0.10031
v 0.077014 0.16193 0.027969
v -0.085952 0.32385 -0.0014388
v -0.25758 0.51 0.087151
v -0.35035 0.255 0.087185
v -0.31939 0.51 0.0020765
v -0.3813 5.4161e-16 -0.11018
v -0.24122 5.4161e-16 -0.15569
v -0.31939 0.51 -0.069945
v -0.18152 0.24591 -0.14599
v -0.18908 0.51 -0.11228
v -0.085952 0.32385 -0.0014388
v -0.10855 0.51 -0.0014388
v -0.16259 0.32385 -0.10693
v -0.1803 0.20362 0.14852
v -0.22835 0.20362 0.1329
v -0.18908 0.51 0.10941
v -0.3813 5.4161e-16 0.1073
v -0.27789 5.4161e-16 0.1409
v -0.11934 0.20362 0.064607
v -0.11442 0.32385 0.03775
v 0.021459 5.4161e-16 -0.28835
v -0.1124 5.4161e-16 0.25745
v 0.021459 5.4161e-16 0.15855
v 0.063769 4.5128e-16 0.10031
v 0.24006 3.6096e-16 -0.28931
v 0.24006 3.6096e-16 0.15759
v 0.40241 3.6096e-16 -0.065858
v -0.27789 5.4161e-16 0.20368
v -0.3813 5.4161e-16 0.1073
v -0.3813 5.4161e-16 -0.11018
v -0.044926 4.5119e-17 0.21876
v -0.019988 4.5119e-17 0.2621
v -0.0015889 4.5119e-17 0.19383
v 0.023349 4.5119e-17 0.23716
v -0.016768 0.03 0.25015
v -0.032978 0.03 0.22198
v 0.011401 0.03 0.23394
v -0.0048087 0.03 0.20577
v 0.18015 0.16193 0.023363
v 0.20845 0.16193 -0.017855
v 0.13893 0.16193 -0.0049398
v 0.16723 0.16193 -0.046158
v 0.19628 0.19193 -0.015595
v 0.17789 0.19193 0.011197
v 0.16949 0.19193 -0.033992
v 0.1511 0.19193 -0.0072
v -0.10211 0.32385 -0.077408
v -0.064275 0.32385 -0.11009
v -0.1348 0.32385 -0.11525
v -0.096958 0.32385 -0.14793
v -0.076616 0.35385 -0.11099
v -0.10121 0.35385 -0.089749
v -0.09786 0.35385 -0.13559
v -0.12246 0.35385 -0.11434
v -0.33036 -1.3536e-16 -0.27868
v -0.30205 -1.3536e-16 -0.23746
v -0.28914 -1.3536e-16 -0.30698
v -0.26083 -1.3536e-16 -0.26577
v -0.29979 0.03 -0.24963
v -0.31819 0.03 -0.27642
v -0.273 0.03 -0.26803
v -0.2914 0.03 -0.29482
v 0.3758 0.054801 -0.065858
v 0.25057 0.16193 0.034903
v 0.29262 0.16193 -0.10874
v 0.40241 3.6096e-16 -0.065858
v 0.24006 3.6096e-16 -0.28931
v 0.2215 0.16193 -0.20663
v 0.077014 0.16193 0.027969
v 0.14449 0.16193 -0.064904
v 0.2215 0.16193 0.074916
v 0.075892 0.16193 -0.15932
v 0.24006 3.6096e-16 0.15759
v 0.063769 4.5128e-16 0.10031
v -0.034475 0.10012 0.11668
v -0.059656 0.20362 0.11668
v -0.090734 0.20362 0.073902
v -0.22835 0.20362 0.17149
v -0.22835 0.20362 0.1329
v -0.12409 0.20362 0.20537
v -0.1803 0.20362 0.14852
v -0.1124 5.4161e-16 0.25745
v -0.028698 5.4161e-16 0.14225
v -0.27789 5.4161e-16 0.20368
v -0.27789 5.4161e-16 0.1409
vn 0.28971 0.34795 -0.89163
vn 0.28519 0.38509 0.87771
vn -0.97177 0.23594 -3.9379e-15
vn 0.79385 0.19274 -0.57676
vn -0.30147 0.21959 0.92784
vn -0.30147 0.21959 -0.92784
vn 0.79385 0.19274 0.57676
vn 0 1 0
vn -0.77609 0.28241 0.56386
vn -0.30708 0.11184 -0.94509
vn 0.80514 0.097744 -0.58497
vn -0.30708 0.11184 0.94509
vn 0.80514 0.097744 0.58497
vn -0.99271 0.12051 -4.0228e-15
vn 0 -1 0
vn -0.83207 0.28 0.47881
vn -0.47881 0.28 -0.83207
vn 0.47881 0.28 0.83207
vn 0.83207 0.28 -0.47881
vn 0.79139 0.28 0.54342
vn -0.54342 0.28 0.79139
vn 0.54342 0.28 -0.79139
vn -0.79139 0.28 -0.54342
vn 0.62752 0.28 0.72651
vn -0.72651 0.28 0.62752
vn 0.72651 0.28 -0.62752
vn -0.62752 0.28 -0.72651
vn -0.79134 0.28 0.54349
vn -0.54349 0.28 -0.79134
vn 0.54349 0.28 0.79134
vn 0.79134 0.28 -0.54349
vn 0.72849 0.65102 0.21325
vn 0.75299 0.36565 -0.54708
vn 0.75299 0.36565 0.54708
vn -0.28178 0.4105 -0.86723
vn -0.28178 0.4105 0.86723
vn 0.79379 0.19311 -0.57672
vn 0.79379 0.19311 0.57672
vn -0.30145 0.22001 0.92775
vn -0.97166 0.23639 -3.9375e-15
vt 0.84375 0.225
vt 0.84375 0.058844
vt 0.84375 0.10774
vt 0.84375 0.17687
vt 0.84375 0.025
vt 0.84375 0.125
vt 0.84375 0.086829
vt 0.84375 0.15075
vt 0.84375 0.12144
vt 0.84375 0.152
vt 0.84375 0.10485
vt 0.84375 0.074169
usemtl colormap
f 3/1/1 2/2/1 1/1/1
f 6/1/2 5/3/2 4/1/2
f 9/1/3 8/4/3 7/1/3
f 8/4/3 9/1/3 10/5/3
f 10/5/3 9/1/3 11/5/3
f 13/6/4 3/1/4 12/1/4
f 3/1/4 13/6/4 14/6/4
f 3/1/4 14/6/4 15/5/4
f 3/1/4 15/5/4 2/2/4
f 2/2/4 15/5/4 16/5/4
f 5/3/5 18/5/5 17/5/5
f 18/5/5 5/3/5 19/7/5
f 19/7/5 5/3/5 20/8/5
f 20/8/5 5/3/5 6/1/5
f 21/1/5 20/8/5 6/1/5
f 20/8/5 21/1/5 22/8/5
f 9/1/6 16/5/6 11/5/6
f 16/5/6 9/1/6 2/2/6
f 2/2/6 9/1/6 1/1/6
f 23/5/7 5/3/7 17/5/7
f 5/3/7 23/5/7 4/1/7
f 4/1/7 23/5/7 24/6/7
f 4/1/7 24/6/7 12/1/7
f 12/1/7 24/6/7 13/6/7
f 6/1/8 25/1/8 21/1/8
f 25/1/8 6/1/8 1/1/8
f 1/1/8 7/1/8 25/1/8
f 7/1/8 1/1/8 9/1/8
f 1/1/8 6/1/8 3/1/8
f 3/1/8 6/1/8 4/1/8
f 3/1/8 4/1/8 12/1/8
f 28/1/9 27/6/9 26/1/9
f 31/1/10 30/5/10 29/5/10
f 30/5/10 31/1/10 32/9/10
f 32/9/10 31/1/10 33/1/10
f 36/10/11 35/1/11 34/10/11
f 35/1/11 36/10/11 33/1/11
f 33/1/11 36/10/11 32/9/11
f 39/1/12 38/11/12 37/11/12
f 38/11/12 39/1/12 27/6/12
f 27/6/12 39/1/12 26/1/12
f 40/5/12 38/11/12 27/6/12
f 38/11/12 40/5/12 41/5/12
f 28/1/8 33/1/8 31/1/8
f 33/1/8 28/1/8 26/1/8
f 33/1/8 26/1/8 39/1/8
f 33/1/8 39/1/8 35/1/8
f 42/11/13 39/1/13 37/11/13
f 39/1/13 42/11/13 35/1/13
f 35/1/13 42/11/13 43/10/13
f 35/1/13 43/10/13 34/10/13
f 27/6/14 29/5/14 40/5/14
f 29/5/14 27/6/14 28/1/14
f 29/5/14 28/1/14 31/1/14
f 44/1/15 10/1/15 11/1/15
f 10/1/15 44/1/15 45/1/15
f 45/1/15 44/1/15 18/1/15
f 18/1/15 44/1/15 46/1/15
f 46/1/15 44/1/15 15/6/15
f 46/1/15 15/6/15 47/6/15
f 47/6/15 15/6/15 48/5/15
f 47/6/15 48/5/15 49/5/15
f 49/5/15 48/5/15 50/5/15
f 51/1/15 10/1/15 45/1/15
f 41/1/15 10/1/15 51/1/15
f 52/1/15 10/1/15 41/1/15
f 10/1/15 52/1/15 53/1/15
f 56/5/15 55/5/15 54/5/15
f 55/5/15 56/5/15 57/5/15
f 60/1/8 59/1/8 58/1/8
f 59/1/8 60/1/8 61/1/8
f 58/1/16 54/5/16 55/5/16
f 54/5/16 58/1/16 59/1/16
f 59/1/17 56/5/17 54/5/17
f 56/5/17 59/1/17 61/1/17
f 60/1/18 55/5/18 57/5/18
f 55/5/18 60/1/18 58/1/18
f 56/5/19 60/1/19 57/5/19
f 60/1/19 56/5/19 61/1/19
f 64/5/15 63/5/15 62/5/15
f 63/5/15 64/5/15 65/5/15
f 68/1/8 67/1/8 66/1/8
f 67/1/8 68/1/8 69/1/8
f 66/1/20 62/5/20 63/5/20
f 62/5/20 66/1/20 67/1/20
f 67/1/21 64/5/21 62/5/21
f 64/5/21 67/1/21 69/1/21
f 68/1/22 63/5/22 65/5/22
f 63/5/22 68/1/22 66/1/22
f 64/5/23 68/1/23 65/5/23
f 68/1/23 64/5/23 69/1/23
f 72/5/15 71/5/15 70/5/15
f 71/5/15 72/5/15 73/5/15
f 76/1/8 75/1/8 74/1/8
f 75/1/8 76/1/8 77/1/8
f 74/1/24 70/5/24 71/5/24
f 70/5/24 74/1/24 75/1/24
f 75/1/25 72/5/25 70/5/25
f 72/5/25 75/1/25 77/1/25
f 76/1/26 71/5/26 73/5/26
f 71/5/26 76/1/26 74/1/26
f 72/5/27 76/1/27 73/5/27
f 76/1/27 72/5/27 77/1/27
f 80/5/15 79/5/15 78/5/15
f 79/5/15 80/5/15 81/5/15
f 84/1/8 83/1/8 82/1/8
f 83/1/8 84/1/8 85/1/8
f 82/1/28 78/5/28 79/5/28
f 78/5/28 82/1/28 83/1/28
f 83/1/29 80/5/29 78/5/29
f 80/5/29 83/1/29 85/1/29
f 84/1/30 79/5/30 81/5/30
f 79/5/30 84/1/30 82/1/30
f 80/5/31 84/1/31 81/5/31
f 84/1/31 80/5/31 85/1/31
f 88/6/32 87/6/32 86/2/32
f 89/5/33 88/6/33 86/2/33
f 88/6/33 89/5/33 90/5/33
f 88/6/33 90/5/33 91/6/33
f 94/6/8 93/6/8 92/6/8
f 93/6/8 94/6/8 91/6/8
f 91/6/8 95/6/8 93/6/8
f 91/6/8 94/6/8 88/6/8
f 88/6/8 94/6/8 87/6/8
f 89/5/34 94/6/34 96/5/34
f 94/6/34 89/5/34 87/6/34
f 87/6/34 89/5/34 86/2/34
f 15/5/35 91/6/35 90/5/35
f 91/6/35 15/5/35 95/6/35
f 94/6/36 97/5/36 96/5/36
f 97/5/36 94/6/36 92/6/36
f 100/6/37 99/6/37 98/12/37
f 103/6/8 102/6/8 101/6/8
f 102/6/8 103/6/8 104/6/8
f 104/6/8 103/6/8 42/6/8
f 42/6/8 103/6/8 99/6/8
f 42/6/8 99/6/8 100/6/8
f 106/5/38 103/6/38 105/5/38
f 103/6/38 106/5/38 99/6/38
f 99/6/38 106/5/38 98/12/38
f 103/6/39 107/5/39 105/5/39
f 107/5/39 103/6/39 101/6/39
f 101/6/40 108/5/40 107/5/40
f 108/5/40 101/6/40 102/6/40
g rock-sand-c
usemtl colormap
f 3/1/1 2/2/1 1/1/1
f 6/1/2 5/3/2 4/1/2
f 9/1/3 8/4/3 7/1/3
f 8/4/3 9/1/3 10/5/3
f 10/5/3 9/1/3 11/5/3
f 13/6/4 3/1/4 12/1/4
f 3/1/4 13/6/4 14/6/4
f 3/1/4 14/6/4 15/5/4
f 3/1/4 15/5/4 2/2/4
f 2/2/4 15/5/4 16/5/4
f 5/3/5 18/5/5 17/5/5
f 18/5/5 5/3/5 19/7/5
f 19/7/5 5/3/5 20/8/5
f 20/8/5 5/3/5 6/1/5
f 21/1/5 20/8/5 6/1/5
f 20/8/5 21/1/5 22/8/5
f 9/1/6 16/5/6 11/5/6
f 16/5/6 9/1/6 2/2/6
f 2/2/6 9/1/6 1/1/6
f 23/5/7 5/3/7 17/5/7
f 5/3/7 23/5/7 4/1/7
f 4/1/7 23/5/7 24/6/7
f 4/1/7 24/6/7 12/1/7
f 12/1/7 24/6/7 13/6/7
f 6/1/8 25/1/8 21/1/8
f 25/1/8 6/1/8 1/1/8
f 1/1/8 7/1/8 25/1/8
f 7/1/8 1/1/8 9/1/8
f 1/1/8 6/1/8 3/1/8
f 3/1/8 6/1/8 4/1/8
f 3/1/8 4/1/8 12/1/8
f 28/1/9 27/6/9 26/1/9
f 31/1/10 30/5/10 29/5/10
f 30/5/10 31/1/10 32/9/10
f 32/9/10 31/1/10 33/1/10
f 36/10/11 35/1/11 34/10/11
f 35/1/11 36/10/11 33/1/11
f 33/1/11 36/10/11 32/9/11
f 39/1/12 38/11/12 37/11/12
f 38/11/12 39/1/12 27/6/12
f 27/6/12 39/1/12 26/1/12
f 40/5/12 38/11/12 27/6/12
f 38/11/12 40/5/12 41/5/12
f 28/1/8 33/1/8 31/1/8
f 33/1/8 28/1/8 26/1/8
f 33/1/8 26/1/8 39/1/8
f 33/1/8 39/1/8 35/1/8
f 42/11/13 39/1/13 37/11/13
f 39/1/13 42/11/13 35/1/13
f 35/1/13 42/11/13 43/10/13
f 35/1/13 43/10/13 34/10/13
f 27/6/14 29/5/14 40/5/14
f 29/5/14 27/6/14 28/1/14
f 29/5/14 28/1/14 31/1/14
f 44/1/15 10/1/15 11/1/15
f 10/1/15 44/1/15 45/1/15
f 45/1/15 44/1/15 18/1/15
f 18/1/15 44/1/15 46/1/15
f 46/1/15 44/1/15 15/6/15
f 46/1/15 15/6/15 47/6/15
f 47/6/15 15/6/15 48/5/15
f 47/6/15 48/5/15 49/5/15
f 49/5/15 48/5/15 50/5/15
f 51/1/15 10/1/15 45/1/15
f 41/1/15 10/1/15 51/1/15
f 52/1/15 10/1/15 41/1/15
f 10/1/15 52/1/15 53/1/15
f 56/5/15 55/5/15 54/5/15
f 55/5/15 56/5/15 57/5/15
f 60/1/8 59/1/8 58/1/8
f 59/1/8 60/1/8 61/1/8
f 58/1/16 54/5/16 55/5/16
f 54/5/16 58/1/16 59/1/16
f 59/1/17 56/5/17 54/5/17
f 56/5/17 59/1/17 61/1/17
f 60/1/18 55/5/18 57/5/18
f 55/5/18 60/1/18 58/1/18
f 56/5/19 60/1/19 57/5/19
f 60/1/19 56/5/19 61/1/19
f 64/5/15 63/5/15 62/5/15
f 63/5/15 64/5/15 65/5/15
f 68/1/8 67/1/8 66/1/8
f 67/1/8 68/1/8 69/1/8
f 66/1/20 62/5/20 63/5/20
f 62/5/20 66/1/20 67/1/20
f 67/1/21 64/5/21 62/5/21
f 64/5/21 67/1/21 69/1/21
f 68/1/22 63/5/22 65/5/22
f 63/5/22 68/1/22 66/1/22
f 64/5/23 68/1/23 65/5/23
f 68/1/23 64/5/23 69/1/23
f 72/5/15 71/5/15 70/5/15
f 71/5/15 72/5/15 73/5/15
f 76/1/8 75/1/8 74/1/8
f 75/1/8 76/1/8 77/1/8
f 74/1/24 70/5/24 71/5/24
f 70/5/24 74/1/24 75/1/24
f 75/1/25 72/5/25 70/5/25
f 72/5/25 75/1/25 77/1/25
f 76/1/26 71/5/26 73/5/26
f 71/5/26 76/1/26 74/1/26
f 72/5/27 76/1/27 73/5/27
f 76/1/27 72/5/27 77/1/27
f 80/5/15 79/5/15 78/5/15
f 79/5/15 80/5/15 81/5/15
f 84/1/8 83/1/8 82/1/8
f 83/1/8 84/1/8 85/1/8
f 82/1/28 78/5/28 79/5/28
f 78/5/28 82/1/28 83/1/28
f 83/1/29 80/5/29 78/5/29
f 80/5/29 83/1/29 85/1/29
f 84/1/30 79/5/30 81/5/30
f 79/5/30 84/1/30 82/1/30
f 80/5/31 84/1/31 81/5/31
f 84/1/31 80/5/31 85/1/31
f 88/6/32 87/6/32 86/2/32
f 89/5/33 88/6/33 86/2/33
f 88/6/33 89/5/33 90/5/33
f 88/6/33 90/5/33 91/6/33
f 94/6/8 93/6/8 92/6/8
f 93/6/8 94/6/8 91/6/8
f 91/6/8 95/6/8 93/6/8
f 91/6/8 94/6/8 88/6/8
f 88/6/8 94/6/8 87/6/8
f 89/5/34 94/6/34 96/5/34
f 94/6/34 89/5/34 87/6/34
f 87/6/34 89/5/34 86/2/34
f 15/5/35 91/6/35 90/5/35
f 91/6/35 15/5/35 95/6/35
f 94/6/36 97/5/36 96/5/36
f 97/5/36 94/6/36 92/6/36
f 100/6/37 99/6/37 98/12/37
f 103/6/8 102/6/8 101/6/8
f 102/6/8 103/6/8 104/6/8
f 104/6/8 103/6/8 42/6/8
f 42/6/8 103/6/8 99/6/8
f 42/6/8 99/6/8 100/6/8
f 106/5/38 103/6/38 105/5/38
f 103/6/38 106/5/38 99/6/38
f 99/6/38 106/5/38 98/12/38
f 103/6/39 107/5/39 105/5/39
f 107/5/39 103/6/39 101/6/39
f 101/6/40 108/5/40 107/5/40
f 108/5/40 101/6/40 102/6/40
