mtllib signpost-single.mtl
g signpost-single
v 0.018 0 -0.018
v 0.018 0 0.018
v 0.01152 0.46008 -0.01152
v 0.01152 0.46008 0.01152
v -0.018 0 -0.018
v -0.01152 0.46008 -0.01152
v -0.018 0 0.018
v -0.01152 0.46008 0.01152
v 0.088196 0.33352 0.024978
v -0.071515 0.34805 0.024978
v 0.096358 0.4232 0.024978
v -0.11228 0.39698 0.024978
v -0.063353 0.43774 0.024978
v 0.096358 0.4232 0
v -0.063353 0.43774 0
v 0.088196 0.33352 0
v -0.071515 0.34805 0
v -0.11228 0.39698 0
vn 0.9999 0.014083 0
vn 0 0.014083 -0.9999
vn -0.9999 0.014083 0
vn 0 0.014083 0.9999
vn 0 1 0
vn 0 -1 0
vn 0 0 1
vn 0.090633 0.99588 0
vn 0.99588 -0.090633 0
vn -0.090633 -0.99588 0
vn -0.76828 -0.64011 0
vn -0.64011 0.76828 0
vn 0 0 -1
vt 0.59375 0.225
vt 0.59375 0.025
vt 0.59375 0.075
vt 0.59375 0.088946
vt 0.59375 0.16105
vt 0.59375 0.13589
vt 0.59375 0.175
usemtl colormap
f 3/2/1 2/1/1 1/1/1
f 2/1/1 3/2/1 4/2/1
f 6/2/2 1/1/2 5/1/2
f 1/1/2 6/2/2 3/2/2
f 7/1/3 6/2/3 5/1/3
f 6/2/3 7/1/3 8/2/3
f 4/2/4 7/1/4 2/1/4
f 7/1/4 4/2/4 8/2/4
f 6/2/5 4/2/5 3/2/5
f 4/2/5 6/2/5 8/2/5
f 7/1/6 1/1/6 2/1/6
f 1/1/6 7/1/6 5/1/6
f 11/5/7 10/4/7 9/3/7
f 10/4/7 11/5/7 12/6/7
f 12/6/7 11/5/7 13/7/7
f 15/7/8 11/5/8 14/5/8
f 11/5/8 15/7/8 13/7/8
f 11/5/9 16/3/9 14/5/9
f 16/3/9 11/5/9 9/3/9
f 10/4/10 16/3/10 9/3/10
f 16/3/10 10/4/10 17/4/10
f 10/4/11 18/6/11 17/4/11
f 18/6/11 10/4/11 12/6/11
f 18/6/12 13/7/12 15/7/12
f 13/7/12 18/6/12 12/6/12
f 17/4/13 14/5/13 16/3/13
f 14/5/13 17/4/13 18/6/13
f 14/5/13 18/6/13 15/7/13
g signpost-single
usemtl colormap
f 3/2/1 2/1/1 1/1/1
f 2/1/1 3/2/1 4/2/1
f 6/2/2 1/1/2 5/1/2
f 1/1/2 6/2/2 3/2/2
f 7/1/3 6/2/3 5/1/3
f 6/2/3 7/1/3 8/2/3
f 4/2/4 7/1/4 2/1/4
f 7/1/4 4/2/4 8/2/4
f 6/2/5 4/2/5 3/2/5
f 4/2/5 6/2/5 8/2/5
f 7/1/6 1/1/6 2/1/6
f 1/1/6 7/1/6 5/1/6
f 11/5/7 10/4/7 9/3/7
f 10/4/7 11/5/7 12/6/7
f 12/6/7 11/5/7 13/7/7
f 15/7/8 11/5/8 14/5/8
f 11/5/8 15/7/8 13/7/8
f 11/5/9 16/3/9 14/5/9
f 16/3/9 11/5/9 9/3/9
f 10/4/10 16/3/10 9/3/10
f 16/3/10 10/4/10 17/4/10
f 10/4/11 18/6/11 17/4/11
f 18/6/11 10/4/11 12/6/11
f 18/6/12 13/7/12 15/7/12
f 13/7/12 18/6/12 12/6/12
f 17/4/13 14/5/13 16/3/13
f 14/5/13 17/4/13 18/6/13
f 14/5/13 18/6/13 15/7/13
