mtllib structure-roof.mtl
g structure-roof
v 0.25 0 -0.19653
v 0.25 0 -0.25
v 0.19653 0 -0.19653
v 0.19653 0 -0.25
v 0.20321 0.65718 -0.24332
v 0.24332 0.65718 -0.24332
v 0.24332 0.65718 -0.20321
v 0.20321 0.65718 -0.20321
v 0.25 0 0.25
v 0.25 0 0.19653
v 0.19653 0 0.25
v 0.19653 0 0.19653
v 0.20321 0.65718 0.20321
v 0.24332 0.65718 0.20321
v 0.24332 0.65718 0.24332
v 0.20321 0.65718 0.24332
v -0.19653 0 -0.19653
v -0.19653 0 -0.25
v -0.25 0 -0.19653
v -0.25 0 -0.25
v -0.24332 0.51747 -0.24332
v -0.20321 0.51747 -0.24332
v -0.20321 0.51747 -0.20321
v -0.24332 0.51747 -0.20321
v -0.19653 0 0.25
v -0.19653 0 0.19653
v -0.25 0 0.25
v -0.25 0 0.19653
v -0.24332 0.51747 0.20321
v -0.20321 0.51747 0.20321
v -0.20321 0.51747 0.24332
v -0.24332 0.51747 0.24332
v 0.23489 0.36747 0.20321
v 0.21164 0.36747 0.20321
v 0.23489 0.36747 -0.20321
v 0.21164 0.36747 -0.20321
v 0.23489 0.32097 0.20321
v 0.23489 0.32097 -0.20321
v 0.21164 0.32097 0.20321
v 0.21164 0.32097 -0.20321
v -0.21164 0.36747 0.20321
v -0.23489 0.36747 0.20321
v -0.21164 0.36747 -0.20321
v -0.23489 0.36747 -0.20321
v -0.21164 0.32097 0.20321
v -0.21164 0.32097 -0.20321
v -0.23489 0.32097 0.20321
v -0.23489 0.32097 -0.20321
v 0.20321 0.36747 0.21164
v 0.20321 0.36747 0.23489
v -0.20321 0.36747 0.21164
v -0.20321 0.36747 0.23489
v 0.20321 0.32097 0.21164
v -0.20321 0.32097 0.21164
v 0.20321 0.32097 0.23489
v -0.20321 0.32097 0.23489
v 0.20321 0.36747 -0.23489
v 0.20321 0.36747 -0.21164
v -0.20321 0.36747 -0.23489
v -0.20321 0.36747 -0.21164
v 0.20321 0.32097 -0.23489
v -0.20321 0.32097 -0.23489
v 0.20321 0.32097 -0.21164
v -0.20321 0.32097 -0.21164
vn 0 -1 0
vn 0 0.010171 -0.99995
vn 0 0.010171 0.99995
vn 0.99995 0.010171 0
vn -0.99995 0.010171 0
vn 0 1 0
vn 0 0.012916 -0.99992
vn 0 0.012916 0.99992
vn 0.99992 0.012916 0
vn -0.99992 0.012916 0
vn 1 0 1.1921e-07
vn -1 0 -1.1921e-07
vn 0 0 -1
vn 0 0 1
vt 0.59375 0.025
vt 0.59375 0.225
vt 0.59375 0.175
vt 0.59375 0.075
usemtl colormap
f 3/1/1 2/1/1 1/1/1
f 2/1/1 3/1/1 4/1/1
f 5/2/2 2/1/2 4/1/2
f 2/1/2 5/2/2 6/2/2
f 7/2/3 3/1/3 1/1/3
f 3/1/3 7/2/3 8/2/3
f 6/2/4 1/1/4 2/1/4
f 1/1/4 6/2/4 7/2/4
f 3/1/5 5/2/5 4/1/5
f 5/2/5 3/1/5 8/2/5
f 5/2/6 7/2/6 6/2/6
f 7/2/6 5/2/6 8/2/6
f 11/1/1 10/1/1 9/1/1
f 10/1/1 11/1/1 12/1/1
f 13/2/2 10/1/2 12/1/2
f 10/1/2 13/2/2 14/2/2
f 15/2/3 11/1/3 9/1/3
f 11/1/3 15/2/3 16/2/3
f 14/2/4 9/1/4 10/1/4
f 9/1/4 14/2/4 15/2/4
f 11/1/5 13/2/5 12/1/5
f 13/2/5 11/1/5 16/2/5
f 13/2/6 15/2/6 14/2/6
f 15/2/6 13/2/6 16/2/6
f 19/1/1 18/1/1 17/1/1
f 18/1/1 19/1/1 20/1/1
f 21/2/7 18/1/7 20/1/7
f 18/1/7 21/2/7 22/2/7
f 23/2/8 19/1/8 17/1/8
f 19/1/8 23/2/8 24/2/8
f 22/2/9 17/1/9 18/1/9
f 17/1/9 22/2/9 23/2/9
f 19/1/10 21/2/10 20/1/10
f 21/2/10 19/1/10 24/2/10
f 21/2/6 23/2/6 22/2/6
f 23/2/6 21/2/6 24/2/6
f 27/1/1 26/1/1 25/1/1
f 26/1/1 27/1/1 28/1/1
f 29/2/7 26/1/7 28/1/7
f 26/1/7 29/2/7 30/2/7
f 31/2/8 27/1/8 25/1/8
f 27/1/8 31/2/8 32/2/8
f 30/2/9 25/1/9 26/1/9
f 25/1/9 30/2/9 31/2/9
f 27/1/10 29/2/10 28/1/10
f 29/2/10 27/1/10 32/2/10
f 29/2/6 31/2/6 30/2/6
f 31/2/6 29/2/6 32/2/6
f 35/3/6 34/3/6 33/3/6
f 34/3/6 35/3/6 36/3/6
f 38/4/11 33/3/11 37/4/11
f 33/3/11 38/4/11 35/3/11
f 34/3/12 40/4/12 39/4/12
f 40/4/12 34/3/12 36/3/12
f 40/4/1 37/4/1 39/4/1
f 37/4/1 40/4/1 38/4/1
f 43/3/6 42/3/6 41/3/6
f 42/3/6 43/3/6 44/3/6
f 46/4/11 41/3/11 45/4/11
f 41/3/11 46/4/11 43/3/11
f 42/3/12 48/4/12 47/4/12
f 48/4/12 42/3/12 44/3/12
f 48/4/1 45/4/1 47/4/1
f 45/4/1 48/4/1 46/4/1
f 51/3/6 50/3/6 49/3/6
f 50/3/6 51/3/6 52/3/6
f 54/4/13 49/3/13 53/4/13
f 49/3/13 54/4/13 51/3/13
f 50/3/14 56/4/14 55/4/14
f 56/4/14 50/3/14 52/3/14
f 56/4/1 53/4/1 55/4/1
f 53/4/1 56/4/1 54/4/1
f 59/3/6 58/3/6 57/3/6
f 58/3/6 59/3/6 60/3/6
f 62/4/13 57/3/13 61/4/13
f 57/3/13 62/4/13 59/3/13
f 58/3/14 64/4/14 63/4/14
f 64/4/14 58/3/14 60/3/14
f 64/4/1 61/4/1 63/4/1
f 61/4/1 64/4/1 62/4/1
g structure-roof
usemtl colormap
f 3/1/1 2/1/1 1/1/1
f 2/1/1 3/1/1 4/1/1
f 5/2/2 2/1/2 4/1/2
f 2/1/2 5/2/2 6/2/2
f 7/2/3 3/1/3 1/1/3
f 3/1/3 7/2/3 8/2/3
f 6/2/4 1/1/4 2/1/4
f 1/1/4 6/2/4 7/2/4
f 3/1/5 5/2/5 4/1/5
f 5/2/5 3/1/5 8/2/5
f 5/2/6 7/2/6 6/2/6
f 7/2/6 5/2/6 8/2/6
f 11/1/1 10/1/1 9/1/1
f 10/1/1 11/1/1 12/1/1
f 13/2/2 10/1/2 12/1/2
f 10/1/2 13/2/2 14/2/2
f 15/2/3 11/1/3 9/1/3
f 11/1/3 15/2/3 16/2/3
f 14/2/4 9/1/4 10/1/4
f 9/1/4 14/2/4 15/2/4
f 11/1/5 13/2/5 12/1/5
f 13/2/5 11/1/5 16/2/5
f 13/2/6 15/2/6 14/2/6
f 15/2/6 13/2/6 16/2/6
f 19/1/1 18/1/1 17/1/1
f 18/1/1 19/1/1 20/1/1
f 21/2/7 18/1/7 20/1/7
f 18/1/7 21/2/7 22/2/7
f 23/2/8 19/1/8 17/1/8
f 19/1/8 23/2/8 24/2/8
f 22/2/9 17/1/9 18/1/9
f 17/1/9 22/2/9 23/2/9
f 19/1/10 21/2/10 20/1/10
f 21/2/10 19/1/10 24/2/10
f 21/2/6 23/2/6 22/2/6
f 23/2/6 21/2/6 24/2/6
f 27/1/1 26/1/1 25/1/1
f 26/1/1 27/1/1 28/1/1
f 29/2/7 26/1/7 28/1/7
f 26/1/7 29/2/7 30/2/7
f 31/2/8 27/1/8 25/1/8
f 27/1/8 31/2/8 32/2/8
f 30/2/9 25/1/9 26/1/9
f 25/1/9 30/2/9 31/2/9
f 27/1/10 29/2/10 28/1/10
f 29/2/10 27/1/10 32/2/10
f 29/2/6 31/2/6 30/2/6
f 31/2/6 29/2/6 32/2/6
f 35/3/6 34/3/6 33/3/6
f 34/3/6 35/3/6 36/3/6
f 38/4/11 33/3/11 37/4/11
f 33/3/11 38/4/11 35/3/11
f 34/3/12 40/4/12 39/4/12
f 40/4/12 34/3/12 36/3/12
f 40/4/1 37/4/1 39/4/1
f 37/4/1 40/4/1 38/4/1
f 43/3/6 42/3/6 41/3/6
f 42/3/6 43/3/6 44/3/6
f 46/4/11 41/3/11 45/4/11
f 41/3/11 46/4/11 43/3/11
f 42/3/12 48/4/12 47/4/12
f 48/4/12 42/3/12 44/3/12
f 48/4/1 45/4/1 47/4/1
f 45/4/1 48/4/1 46/4/1
f 51/3/6 50/3/6 49/3/6
f 50/3/6 51/3/6 52/3/6
f 54/4/13 49/3/13 53/4/13
f 49/3/13 54/4/13 51/3/13
f 50/3/14 56/4/14 55/4/14
f 56/4/14 50/3/14 52/3/14
f 56/4/1 53/4/1 55/4/1
f 53/4/1 56/4/1 54/4/1
f 59/3/6 58/3/6 57/3/6
f 58/3/6 59/3/6 60/3/6
f 62/4/13 57/3/13 61/4/13
f 57/3/13 62/4/13 59/3/13
f 58/3/14 64/4/14 63/4/14
f 64/4/14 58/3/14 60/3/14
f 64/4/1 61/4/1 63/4/1
f 61/4/1 64/4/1 62/4/1
g Group
v 0.26322 0.5878 0.21221
v 0.25514 0.61793 0.21221
v -0.26418 0.44648 0.21221
v -0.27226 0.47662 0.21221
v 0.26322 0.5878 0.265
v 0.25514 0.61793 0.265
v -0.27226 0.47662 0.265
v -0.26418 0.44648 0.265
v 0.26322 0.5878 -0.265
v 0.25514 0.61793 -0.265
v -0.26418 0.44648 -0.265
v -0.27226 0.47662 -0.265
v 0.26322 0.5878 -0.21221
v 0.25514 0.61793 -0.21221
v -0.27226 0.47662 -0.21221
v -0.26418 0.44648 -0.21221
v 0.26322 0.5878 -0.18495
v 0.25514 0.61793 -0.18495
v -0.26418 0.44648 -0.18495
v -0.27226 0.47662 -0.18495
v 0.26322 0.5878 -0.079363
v 0.25514 0.61793 -0.079363
v -0.27226 0.47662 -0.079363
v -0.26418 0.44648 -0.079363
v 0.26322 0.5878 0.079363
v 0.25514 0.61793 0.079363
v -0.26418 0.44648 0.079363
v -0.27226 0.47662 0.079363
v 0.26322 0.5878 0.18495
v 0.25514 0.61793 0.18495
v -0.27226 0.47662 0.18495
v -0.26418 0.44648 0.18495
v 0.26322 0.5878 -0.052794
v 0.25514 0.61793 -0.052794
v -0.26418 0.44648 -0.052794
v -0.27226 0.47662 -0.052794
v 0.26322 0.5878 0.052794
v 0.25514 0.61793 0.052794
v -0.27226 0.47662 0.052794
v -0.26418 0.44648 0.052794
v 0.18273 0.54553 0.265
v 0.17755 0.56484 0.265
v 0.18273 0.54553 -0.265
v 0.17755 0.56484 -0.265
v 0.11735 0.52801 0.265
v 0.11217 0.54733 0.265
v 0.11218 0.54733 -0.265
v 0.11735 0.52801 -0.265
v -0.1041 0.46867 0.265
v -0.10928 0.48799 0.265
v -0.1041 0.46867 -0.265
v -0.10928 0.48799 -0.265
v -0.16948 0.45115 0.265
v -0.17465 0.47047 0.265
v -0.17465 0.47047 -0.265
v -0.16948 0.45115 -0.265
v 0.17781 0.59721 0.2738
v 0.17263 0.61653 0.2738
v 0.16112 0.59274 -0.27593
v 0.15594 0.61206 -0.27593
v 0.11246 0.5797 0.27593
v 0.10728 0.59902 0.27593
v 0.090596 0.59455 -0.2738
v 0.095772 0.57523 -0.2738
v -0.12195 0.51689 0.27305
v -0.12713 0.53621 0.27305
v -0.11276 0.51936 -0.27187
v -0.11794 0.53867 -0.27187
v -0.18732 0.49938 0.27187
v -0.19249 0.5187 0.27187
v -0.18331 0.52116 -0.27305
v -0.17813 0.50184 -0.27305
vn 1.19e-07 1.646e-08 -1
vn 0.96593 0.25882 1.19e-07
vn -1.19e-07 -1.646e-08 1
vn 0.25882 -0.96593 1.646e-08
vn -0.25882 0.96593 -1.646e-08
vn -0.96593 -0.25882 -1.19e-07
vn 0.96593 0.25882 2.3821e-07
vn -2.3415e-07 -4.7314e-08 1
vn -0.96593 -0.25882 -2.3821e-07
vn 0.25882 -0.96593 1.646e-08
vn -0.25882 0.96593 -1.646e-08
vn 2.3415e-07 4.7314e-08 -1
vn 0.96545 0.25869 -0.031411
vn 0.03034 0.0081297 0.99951
vn -0.96545 -0.25869 0.031411
vn 0.25882 -0.96593 1.5998e-08
vn -0.25882 0.96593 -1.5998e-08
vn -0.03034 -0.0081297 -0.99951
vn 0.96578 0.25878 0.017453
vn -0.016858 -0.0045171 0.99985
vn -0.96578 -0.25878 -0.017453
vn 0.25882 -0.96593 1.6151e-08
vn -0.25882 0.96593 -1.6151e-08
vn 0.016858 0.0045171 -0.99985
vt 0.59375 0.125
usemtl colormap
f 67/1/15 66/2/15 65/1/15
f 66/2/15 67/1/15 68/2/15
f 66/2/16 69/1/16 65/1/16
f 69/1/16 66/2/16 70/2/16
f 71/2/17 69/1/17 70/2/17
f 69/1/17 71/2/17 72/1/17
f 67/1/18 69/1/18 72/1/18
f 69/1/18 67/1/18 65/1/18
f 66/2/19 71/2/19 70/2/19
f 71/2/19 66/2/19 68/2/19
f 71/2/20 67/1/20 72/1/20
f 67/1/20 71/2/20 68/2/20
f 75/1/15 74/2/15 73/1/15
f 74/2/15 75/1/15 76/2/15
f 74/2/16 77/1/16 73/1/16
f 77/1/16 74/2/16 78/2/16
f 79/2/17 77/1/17 78/2/17
f 77/1/17 79/2/17 80/1/17
f 75/1/18 77/1/18 80/1/18
f 77/1/18 75/1/18 73/1/18
f 74/2/19 79/2/19 78/2/19
f 79/2/19 74/2/19 76/2/19
f 79/2/20 75/1/20 80/1/20
f 75/1/20 79/2/20 76/2/20
f 83/1/15 82/2/15 81/1/15
f 82/2/15 83/1/15 84/2/15
f 82/2/16 85/1/16 81/1/16
f 85/1/16 82/2/16 86/2/16
f 87/2/17 85/1/17 86/2/17
f 85/1/17 87/2/17 88/1/17
f 83/1/18 85/1/18 88/1/18
f 85/1/18 83/1/18 81/1/18
f 82/2/19 87/2/19 86/2/19
f 87/2/19 82/2/19 84/2/19
f 87/2/20 83/1/20 88/1/20
f 83/1/20 87/2/20 84/2/20
f 91/1/15 90/2/15 89/1/15
f 90/2/15 91/1/15 92/2/15
f 90/2/16 93/1/16 89/1/16
f 93/1/16 90/2/16 94/2/16
f 95/2/17 93/1/17 94/2/17
f 93/1/17 95/2/17 96/1/17
f 91/1/18 93/1/18 96/1/18
f 93/1/18 91/1/18 89/1/18
f 90/2/19 95/2/19 94/2/19
f 95/2/19 90/2/19 92/2/19
f 95/2/20 91/1/20 96/1/20
f 91/1/20 95/2/20 92/2/20
f 99/1/15 98/2/15 97/1/15
f 98/2/15 99/1/15 100/2/15
f 98/2/16 101/1/16 97/1/16
f 101/1/16 98/2/16 102/2/16
f 103/2/17 101/1/17 102/2/17
f 101/1/17 103/2/17 104/1/17
f 99/1/18 101/1/18 104/1/18
f 101/1/18 99/1/18 97/1/18
f 98/2/19 103/2/19 102/2/19
f 103/2/19 98/2/19 100/2/19
f 103/2/20 99/1/20 104/1/20
f 99/1/20 103/2/20 100/2/20
f 107/1/21 106/5/21 105/1/21
f 106/5/21 107/1/21 108/5/21
f 106/5/22 109/1/22 105/1/22
f 109/1/22 106/5/22 110/5/22
f 111/5/23 109/1/23 110/5/23
f 109/1/23 111/5/23 112/1/23
f 107/1/24 109/1/24 112/1/24
f 109/1/24 107/1/24 105/1/24
f 106/5/25 111/5/25 110/5/25
f 111/5/25 106/5/25 108/5/25
f 111/5/26 107/1/26 112/1/26
f 107/1/26 111/5/26 108/5/26
f 115/1/21 114/5/21 113/1/21
f 114/5/21 115/1/21 116/5/21
f 114/5/22 117/1/22 113/1/22
f 117/1/22 114/5/22 118/5/22
f 119/5/23 117/1/23 118/5/23
f 117/1/23 119/5/23 120/1/23
f 115/1/24 117/1/24 120/1/24
f 117/1/24 115/1/24 113/1/24
f 114/5/25 119/5/25 118/5/25
f 119/5/25 114/5/25 116/5/25
f 119/5/26 115/1/26 120/1/26
f 115/1/26 119/5/26 116/5/26
f 123/1/27 122/5/27 121/1/27
f 122/5/27 123/1/27 124/5/27
f 122/5/28 125/1/28 121/1/28
f 125/1/28 122/5/28 126/5/28
f 127/5/29 125/1/29 126/5/29
f 125/1/29 127/5/29 128/1/29
f 123/1/30 125/1/30 128/1/30
f 125/1/30 123/1/30 121/1/30
f 122/5/31 127/5/31 126/5/31
f 127/5/31 122/5/31 124/5/31
f 127/5/32 123/1/32 128/1/32
f 123/1/32 127/5/32 124/5/32
f 131/1/33 130/5/33 129/1/33
f 130/5/33 131/1/33 132/5/33
f 130/5/34 133/1/34 129/1/34
f 133/1/34 130/5/34 134/5/34
f 135/5/35 133/1/35 134/5/35
f 133/1/35 135/5/35 136/1/35
f 131/1/36 133/1/36 136/1/36
f 133/1/36 131/1/36 129/1/36
f 130/5/37 135/5/37 134/5/37
f 135/5/37 130/5/37 132/5/37
f 135/5/38 131/1/38 136/1/38
f 131/1/38 135/5/38 132/5/38
