mtllib tool-hoe.mtl
g tool-hoe
v -0.015463 0.23174 0.0072005
v -0.041169 0.23174 0.0072005
v -0.015463 0.23174 -0.0072005
v -0.041169 0.23174 -0.0072005
v 0.015463 0.2 0.015463
v -0.015463 0.2 0.015463
v 0.015463 0.24 0.015463
v -0.015463 0.24 0.015463
v 0.015463 0.24 -0.015463
v -0.015463 0.24 -0.015463
v 0.015463 0.2 -0.015463
v -0.015463 0.2 -0.015463
v -0.069304 0.21864 -0.035464
v -0.069304 0.21864 0.035464
v -0.069304 0.20826 -0.035464
v -0.069304 0.20826 0.035464
v -0.055237 0.22519 0.0072005
v -0.055237 0.22519 -0.0072005
v -0.055237 0.22519 0.035464
v -0.055237 0.22519 -0.035464
v -0.015463 0.20826 0.0072005
v -0.055237 0.20826 0.0072005
v -0.055237 0.20826 -0.035464
v -0.055237 0.20826 -0.0072005
v -0.015463 0.20826 -0.0072005
v -0.055237 0.20826 0.035464
v 0.0129 0 0.0129
v 0.0129 0 -0.0129
v -0.0129 0 0.0129
v -0.0129 0 -0.0129
v 0.00915 0.2 -0.00915
v 0.00915 0.2 0.00915
v -0.00915 0.2 0.00915
v -0.00915 0.2 -0.00915
vn 0 1 0
vn -0.21611 0.97637 0
vn -0.21611 0.97637 0
vn 0 0 1
vn 1 0 0
vn 0 0 -1
vn -0.84321 0.53758 0
vn -1 0 0
vn 0 -1 0
vn -0.42201 0.90659 0
vn 0.99982 0.018747 0
vn 0 0.018747 0.99982
vn -0.99982 0.018747 0
vn 0 0.018747 -0.99982
vt 0.34375 0.18368
vt 0.34375 0.025
vt 0.34375 0.225
vt 0.34375 0.1182
vt 0.34375 0.066315
vt 0.34375 0.15094
vt 0.59375 0.025
vt 0.59375 0.225
usemtl colormap
f 3/1/1 2/1/2 1/1/1
f 2/1/2 3/1/1 4/1/3
f 7/3/4 6/2/4 5/2/4
f 6/2/4 7/3/4 8/3/4
f 10/3/1 7/3/1 9/3/1
f 7/3/1 10/3/1 8/3/1
f 7/3/5 11/2/5 9/3/5
f 11/2/5 7/3/5 5/2/5
f 10/3/6 11/2/6 12/2/6
f 11/2/6 10/3/6 9/3/6
f 15/5/8 14/4/7 13/4/7
f 14/4/7 15/5/8 16/5/8
f 6/2/9 11/2/9 5/2/9
f 11/2/9 6/2/9 12/2/9
f 4/1/3 17/6/10 2/1/2
f 17/6/10 4/1/3 18/6/10
f 14/4/7 17/6/10 18/6/10
f 17/6/10 14/4/7 19/6/10
f 14/4/7 18/6/10 20/6/10
f 14/4/7 20/6/10 13/4/7
f 1/1/4 22/5/4 21/5/4
f 22/5/4 1/1/4 17/6/4
f 17/6/4 1/1/4 2/1/4
f 13/4/6 23/5/6 15/5/6
f 23/5/6 13/4/6 20/6/6
f 18/6/6 25/5/6 24/5/6
f 25/5/6 18/6/6 3/1/6
f 3/1/6 18/6/6 4/1/6
f 16/5/9 22/5/9 26/5/9
f 22/5/9 16/5/9 24/5/9
f 24/5/9 16/5/9 23/5/9
f 23/5/9 16/5/9 15/5/9
f 25/5/9 22/5/9 24/5/9
f 22/5/9 25/5/9 21/5/9
f 19/6/5 22/5/5 17/6/5
f 22/5/5 19/6/5 26/5/5
f 19/6/4 16/5/4 26/5/4
f 16/5/4 19/6/4 14/4/4
f 18/6/5 23/5/5 20/6/5
f 23/5/5 18/6/5 24/5/5
f 8/3/8 3/1/8 1/1/8
f 8/3/8 1/1/8 21/5/8
f 3/1/8 8/3/8 10/3/8
f 8/3/8 21/5/8 6/2/8
f 10/3/8 25/5/8 3/1/8
f 25/5/8 6/2/8 21/5/8
f 12/2/8 25/5/8 10/3/8
f 25/5/8 12/2/8 6/2/8
f 29/7/9 28/7/9 27/7/9
f 28/7/9 29/7/9 30/7/9
f 31/8/11 27/7/11 28/7/11
f 27/7/11 31/8/11 32/8/11
f 32/8/12 29/7/12 27/7/12
f 29/7/12 32/8/12 33/8/12
f 29/7/13 34/8/13 30/7/13
f 34/8/13 29/7/13 33/8/13
f 34/8/14 28/7/14 30/7/14
f 28/7/14 34/8/14 31/8/14
g tool-hoe
usemtl colormap
f 3/1/1 2/1/2 1/1/1
f 2/1/2 3/1/1 4/1/3
f 7/3/4 6/2/4 5/2/4
f 6/2/4 7/3/4 8/3/4
f 10/3/1 7/3/1 9/3/1
f 7/3/1 10/3/1 8/3/1
f 7/3/5 11/2/5 9/3/5
f 11/2/5 7/3/5 5/2/5
f 10/3/6 11/2/6 12/2/6
f 11/2/6 10/3/6 9/3/6
f 15/5/8 14/4/7 13/4/7
f 14/4/7 15/5/8 16/5/8
f 6/2/9 11/2/9 5/2/9
f 11/2/9 6/2/9 12/2/9
f 4/1/3 17/6/10 2/1/2
f 17/6/10 4/1/3 18/6/10
f 14/4/7 17/6/10 18/6/10
f 17/6/10 14/4/7 19/6/10
f 14/4/7 18/6/10 20/6/10
f 14/4/7 20/6/10 13/4/7
f 1/1/4 22/5/4 21/5/4
f 22/5/4 1/1/4 17/6/4
f 17/6/4 1/1/4 2/1/4
f 13/4/6 23/5/6 15/5/6
f 23/5/6 13/4/6 20/6/6
f 18/6/6 25/5/6 24/5/6
f 25/5/6 18/6/6 3/1/6
f 3/1/6 18/6/6 4/1/6
f 16/5/9 22/5/9 26/5/9
f 22/5/9 16/5/9 24/5/9
f 24/5/9 16/5/9 23/5/9
f 23/5/9 16/5/9 15/5/9
f 25/5/9 22/5/9 24/5/9
f 22/5/9 25/5/9 21/5/9
f 19/6/5 22/5/5 17/6/5
f 22/5/5 19/6/5 26/5/5
f 19/6/4 16/5/4 26/5/4
f 16/5/4 19/6/4 14/4/4
f 18/6/5 23/5/5 20/6/5
f 23/5/5 18/6/5 24/5/5
f 8/3/8 3/1/8 1/1/8
f 8/3/8 1/1/8 21/5/8
f 3/1/8 8/3/8 10/3/8
f 8/3/8 21/5/8 6/2/8
f 10/3/8 25/5/8 3/1/8
f 25/5/8 6/2/8 21/5/8
f 12/2/8 25/5/8 10/3/8
f 25/5/8 12/2/8 6/2/8
f 29/7/9 28/7/9 27/7/9
f 28/7/9 29/7/9 30/7/9
f 31/8/11 27/7/11 28/7/11
f 27/7/11 31/8/11 32/8/11
f 32/8/12 29/7/12 27/7/12
f 29/7/12 32/8/12 33/8/12
f 29/7/13 34/8/13 30/7/13
f 34/8/13 29/7/13 33/8/13
f 34/8/14 28/7/14 30/7/14
f 28/7/14 34/8/14 31/8/14
