mtllib tool-shovel.mtl
g tool-shovel
v 0.0129 0.04 0.0129
v 0.024732 0.036832 0.0129
v -0.0129 0.04 0.0129
v -0.024732 0.036832 0.0129
v -0.01523 0.02733 0.0129
v -0.0279 0.02733 0.0129
v -0.0279 0.01267 0.0129
v 0.01523 0.02733 0.0129
v 0.0279 0.02733 0.0129
v 0.0279 0.01267 0.0129
v -0.01523 0.01267 0.0129
v 0.01523 0.01267 0.0129
v 0.024732 0.0031675 0.0129
v -0.024732 0.0031675 0.0129
v 0.01523 1.888e-10 0.0129
v -0.01523 0 0.0129
v -0.01523 0.02733 -0.0129
v -0.01523 0.01267 -0.0129
v -0.0129 0.04 -0.0129
v -0.024732 0.036832 -0.0129
v 0.01523 0.01267 -0.0129
v 0.024732 0.036832 -0.0129
v 0.0129 0.04 -0.0129
v 0.024732 0.0031675 -0.0129
v 0.01523 1.888e-10 -0.0129
v 0.0279 0.02733 -0.0129
v -0.01523 0 -0.0129
v -0.0279 0.01267 -0.0129
v -0.0279 0.02733 -0.0129
v -0.012367 0.062736 -0.012367
v -0.012367 0.062736 0.012367
v -0.024732 0.0031675 -0.0129
v 0.012367 0.062736 0.012367
v 0.01523 0.02733 -0.0129
v 0.0279 0.01267 -0.0129
v 0.012367 0.062736 -0.012367
v 0.026598 0.28306 -0.00915
v 0.026598 0.28306 0.015463
v -1.0829e-15 0.29 -0.00915
v -1.0829e-15 0.29 0.015463
v -0.01915 0.22369 -0.015463
v 0.01915 0.22369 -0.015463
v -0.01915 0.23 -0.00915
v 0.01915 0.23 -0.00915
v -0.035464 0.2 -0.00915
v -0.035464 0.26224 -0.00915
v -0.035464 0.2 0.015463
v -0.035464 0.26224 0.015463
v 0.01915 0.2 -0.00915
v 0.01915 0.20631 -0.015463
v 0.00915 0.2 -0.00915
v -0.01915 0.20631 -0.015463
v -0.00915 0.2 -0.00915
v -0.01915 0.2 -0.00915
v 0.035464 0.26224 -0.00915
v 0.035464 0.26224 0.015463
v -0.026598 0.28306 -0.00915
v -0.026598 0.28306 0.015463
v 0.035464 0.2 -0.00915
v -0.00915 0.2 0.00915
v 0.00915 0.2 0.00915
v 0.035464 0.2 0.015463
v 0.00915 0.2 0.00915
v -0.00915 0.2 0.00915
v -0.00915 0.2 -0.00915
v 0.00915 0.2 -0.00915
vn 0 0 1
vn 0.70711 -0.70711 0
vn 0.70711 0.70711 0
vn -0.25859 0.96599 0
vn -0.68551 0.72806 0
vn -0.70711 0.70711 0
vn 0.68551 0.72806 0
vn 0.25859 0.96599 0
vn 0.31623 -0.94868 0
vn 0.98709 0.16018 0
vn 0 -1 0
vn -0.98709 -0.16018 0
vn -0.98709 0.16018 0
vn -0.99973 0.023431 0
vn -0.70711 -0.70711 0
vn 0 0.023431 0.99973
vn -0.31623 -0.94868 0
vn 0.98709 -0.16018 0
vn 0.99973 0.023431 0
vn 0 0.023431 -0.99973
vn 0 0 -1
vn 0.65313 0.75725 0
vn 0 1 0
vn 0 0.38268 -0.92388
vn 0 0.70711 -0.70711
vn -1 0 0
vn -0.97981 0.19994 0
vn 0 -0.70711 -0.70711
vn 0 -0.38268 -0.92388
vn 0.97981 0.19994 0
vn -0.65313 0.75725 0
vn 1 0 0
vt 0.34375 0.15252
vt 0.34375 0.14242
vt 0.34375 0.11213
vt 0.34375 0.065392
vt 0.34375 0.035098
vt 0.34375 0.025
vt 0.34375 0.225
vt 0.34375 0.20958
vt 0.34375 0.077637
vt 0.34375 0.091667
vt 0.34375 0.16331
vt 0.34375 0.03903
vt 0.59375 0.025
vt 0.59375 0.225
usemtl colormap
f 3/1/1 2/2/1 1/1/1
f 4/2/1 2/2/1 3/1/1
f 5/3/1 2/2/1 4/2/1
f 6/3/1 5/3/1 4/2/1
f 7/4/1 5/3/1 6/3/1
f 8/3/1 2/2/1 5/3/1
f 8/3/1 9/3/1 2/2/1
f 8/3/1 10/4/1 9/3/1
f 7/4/1 11/4/1 5/3/1
f 12/4/1 10/4/1 8/3/1
f 7/4/1 12/4/1 11/4/1
f 10/4/1 12/4/1 13/5/1
f 7/4/1 13/5/1 12/4/1
f 14/5/1 13/5/1 7/4/1
f 14/5/1 15/6/1 13/5/1
f 15/6/1 14/5/1 16/6/1
f 5/3/2 18/4/3 17/3/2
f 18/4/3 5/3/2 11/4/3
f 20/2/5 3/1/4 19/1/4
f 3/1/4 20/2/5 4/2/5
f 18/4/3 12/4/6 21/4/6
f 12/4/6 18/4/3 11/4/3
f 23/1/8 2/2/7 22/2/7
f 2/2/7 23/1/8 1/1/8
f 15/6/9 24/5/2 13/5/2
f 24/5/2 15/6/9 25/6/9
f 2/2/7 26/3/10 22/2/7
f 26/3/10 2/2/7 9/3/10
f 16/6/11 25/6/11 15/6/11
f 25/6/11 16/6/11 27/6/11
f 7/4/12 29/3/13 28/4/12
f 29/3/13 7/4/12 6/3/13
f 3/1/14 30/7/14 19/1/14
f 30/7/14 3/1/14 31/7/14
f 14/5/15 28/4/12 32/5/15
f 28/4/12 14/5/15 7/4/12
f 33/7/16 3/1/16 1/1/16
f 3/1/16 33/7/16 31/7/16
f 14/5/15 27/6/17 16/6/17
f 27/6/17 14/5/15 32/5/15
f 5/3/2 34/3/15 8/3/15
f 34/3/15 5/3/2 17/3/2
f 9/3/10 35/4/18 26/3/10
f 35/4/18 9/3/10 10/4/18
f 36/7/19 1/1/19 23/1/19
f 1/1/19 36/7/19 33/7/19
f 6/3/13 20/2/5 29/3/13
f 20/2/5 6/3/13 4/2/5
f 12/4/6 34/3/15 21/4/6
f 34/3/15 12/4/6 8/3/15
f 10/4/18 24/5/2 35/4/18
f 24/5/2 10/4/18 13/5/2
f 30/7/20 23/1/20 19/1/20
f 23/1/20 30/7/20 36/7/20
f 22/2/21 19/1/21 23/1/21
f 22/2/21 20/2/21 19/1/21
f 26/3/21 20/2/21 22/2/21
f 34/3/21 20/2/21 26/3/21
f 35/4/21 34/3/21 26/3/21
f 17/3/21 20/2/21 34/3/21
f 17/3/21 29/3/21 20/2/21
f 18/4/21 29/3/21 17/3/21
f 35/4/21 21/4/21 34/3/21
f 29/3/21 18/4/21 28/4/21
f 21/4/21 28/4/21 18/4/21
f 24/5/21 21/4/21 35/4/21
f 24/5/21 28/4/21 21/4/21
f 24/5/21 32/5/21 28/4/21
f 25/6/21 32/5/21 24/5/21
f 32/5/21 25/6/21 27/6/21
f 39/7/23 38/8/22 37/8/22
f 38/8/22 39/7/23 40/7/23
f 43/10/25 42/9/24 41/9/24
f 42/9/24 43/10/25 44/10/25
f 47/6/26 46/11/27 45/6/26
f 46/11/27 47/6/26 48/11/27
f 51/6/28 50/12/29 49/6/28
f 50/12/29 51/6/28 52/12/29
f 52/12/29 51/6/28 53/6/28
f 52/12/29 53/6/28 54/6/28
f 41/9/24 50/12/29 52/12/29
f 50/12/29 41/9/24 42/9/24
f 38/8/22 55/11/30 37/8/22
f 55/11/30 38/8/22 56/11/30
f 57/8/31 40/7/23 39/7/23
f 40/7/23 57/8/31 58/8/31
f 46/11/21 54/6/21 45/6/21
f 54/6/21 46/11/21 43/10/21
f 43/10/21 46/11/21 44/10/21
f 55/11/21 44/10/21 46/11/21
f 55/11/21 46/11/21 57/8/21
f 59/6/21 44/10/21 55/11/21
f 44/10/21 59/6/21 49/6/21
f 55/11/21 57/8/21 37/8/21
f 37/8/21 57/8/21 39/7/21
f 54/6/11 47/6/11 45/6/11
f 53/6/11 47/6/11 54/6/11
f 60/6/11 47/6/11 53/6/11
f 61/6/11 47/6/11 60/6/11
f 61/6/11 62/6/11 47/6/11
f 62/6/11 61/6/11 59/6/11
f 59/6/11 61/6/11 49/6/11
f 51/6/11 49/6/11 61/6/11
f 56/11/30 59/6/32 55/11/30
f 59/6/32 56/11/30 62/6/32
f 48/11/27 57/8/31 46/11/27
f 57/8/31 48/11/27 58/8/31
f 56/11/1 47/6/1 62/6/1
f 47/6/1 56/11/1 48/11/1
f 48/11/1 56/11/1 38/8/1
f 48/11/1 38/8/1 58/8/1
f 58/8/1 38/8/1 40/7/1
f 54/6/26 41/9/26 52/12/26
f 41/9/26 54/6/26 43/10/26
f 44/10/32 50/12/32 42/9/32
f 50/12/32 44/10/32 49/6/32
f 63/14/16 31/13/16 33/13/16
f 31/13/16 63/14/16 64/14/16
f 65/14/20 36/13/20 30/13/20
f 36/13/20 65/14/20 66/14/20
f 66/14/19 33/13/19 36/13/19
f 33/13/19 66/14/19 63/14/19
f 31/13/14 65/14/14 30/13/14
f 65/14/14 31/13/14 64/14/14
g tool-shovel
usemtl colormap
f 3/1/1 2/2/1 1/1/1
f 4/2/1 2/2/1 3/1/1
f 5/3/1 2/2/1 4/2/1
f 6/3/1 5/3/1 4/2/1
f 7/4/1 5/3/1 6/3/1
f 8/3/1 2/2/1 5/3/1
f 8/3/1 9/3/1 2/2/1
f 8/3/1 10/4/1 9/3/1
f 7/4/1 11/4/1 5/3/1
f 12/4/1 10/4/1 8/3/1
f 7/4/1 12/4/1 11/4/1
f 10/4/1 12/4/1 13/5/1
f 7/4/1 13/5/1 12/4/1
f 14/5/1 13/5/1 7/4/1
f 14/5/1 15/6/1 13/5/1
f 15/6/1 14/5/1 16/6/1
f 5/3/2 18/4/3 17/3/2
f 18/4/3 5/3/2 11/4/3
f 20/2/5 3/1/4 19/1/4
f 3/1/4 20/2/5 4/2/5
f 18/4/3 12/4/6 21/4/6
f 12/4/6 18/4/3 11/4/3
f 23/1/8 2/2/7 22/2/7
f 2/2/7 23/1/8 1/1/8
f 15/6/9 24/5/2 13/5/2
f 24/5/2 15/6/9 25/6/9
f 2/2/7 26/3/10 22/2/7
f 26/3/10 2/2/7 9/3/10
f 16/6/11 25/6/11 15/6/11
f 25/6/11 16/6/11 27/6/11
f 7/4/12 29/3/13 28/4/12
f 29/3/13 7/4/12 6/3/13
f 3/1/14 30/7/14 19/1/14
f 30/7/14 3/1/14 31/7/14
f 14/5/15 28/4/12 32/5/15
f 28/4/12 14/5/15 7/4/12
f 33/7/16 3/1/16 1/1/16
f 3/1/16 33/7/16 31/7/16
f 14/5/15 27/6/17 16/6/17
f 27/6/17 14/5/15 32/5/15
f 5/3/2 34/3/15 8/3/15
f 34/3/15 5/3/2 17/3/2
f 9/3/10 35/4/18 26/3/10
f 35/4/18 9/3/10 10/4/18
f 36/7/19 1/1/19 23/1/19
f 1/1/19 36/7/19 33/7/19
f 6/3/13 20/2/5 29/3/13
f 20/2/5 6/3/13 4/2/5
f 12/4/6 34/3/15 21/4/6
f 34/3/15 12/4/6 8/3/15
f 10/4/18 24/5/2 35/4/18
f 24/5/2 10/4/18 13/5/2
f 30/7/20 23/1/20 19/1/20
f 23/1/20 30/7/20 36/7/20
f 22/2/21 19/1/21 23/1/21
f 22/2/21 20/2/21 19/1/21
f 26/3/21 20/2/21 22/2/21
f 34/3/21 20/2/21 26/3/21
f 35/4/21 34/3/21 26/3/21
f 17/3/21 20/2/21 34/3/21
f 17/3/21 29/3/21 20/2/21
f 18/4/21 29/3/21 17/3/21
f 35/4/21 21/4/21 34/3/21
f 29/3/21 18/4/21 28/4/21
f 21/4/21 28/4/21 18/4/21
f 24/5/21 21/4/21 35/4/21
f 24/5/21 28/4/21 21/4/21
f 24/5/21 32/5/21 28/4/21
f 25/6/21 32/5/21 24/5/21
f 32/5/21 25/6/21 27/6/21
f 39/7/23 38/8/22 37/8/22
f 38/8/22 39/7/23 40/7/23
f 43/10/25 42/9/24 41/9/24
f 42/9/24 43/10/25 44/10/25
f 47/6/26 46/11/27 45/6/26
f 46/11/27 47/6/26 48/11/27
f 51/6/28 50/12/29 49/6/28
f 50/12/29 51/6/28 52/12/29
f 52/12/29 51/6/28 53/6/28
f 52/12/29 53/6/28 54/6/28
f 41/9/24 50/12/29 52/12/29
f 50/12/29 41/9/24 42/9/24
f 38/8/22 55/11/30 37/8/22
f 55/11/30 38/8/22 56/11/30
f 57/8/31 40/7/23 39/7/23
f 40/7/23 57/8/31 58/8/31
f 46/11/21 54/6/21 45/6/21
f 54/6/21 46/11/21 43/10/21
f 43/10/21 46/11/21 44/10/21
f 55/11/21 44/10/21 46/11/21
f 55/11/21 46/11/21 57/8/21
f 59/6/21 44/10/21 55/11/21
f 44/10/21 59/6/21 49/6/21
f 55/11/21 57/8/21 37/8/21
f 37/8/21 57/8/21 39/7/21
f 54/6/11 47/6/11 45/6/11
f 53/6/11 47/6/11 54/6/11
f 60/6/11 47/6/11 53/6/11
f 61/6/11 47/6/11 60/6/11
f 61/6/11 62/6/11 47/6/11
f 62/6/11 61/6/11 59/6/11
f 59/6/11 61/6/11 49/6/11
f 51/6/11 49/6/11 61/6/11
f 56/11/30 59/6/32 55/11/30
f 59/6/32 56/11/30 62/6/32
f 48/11/27 57/8/31 46/11/27
f 57/8/31 48/11/27 58/8/31
f 56/11/1 47/6/1 62/6/1
f 47/6/1 56/11/1 48/11/1
f 48/11/1 56/11/1 38/8/1
f 48/11/1 38/8/1 58/8/1
f 58/8/1 38/8/1 40/7/1
f 54/6/26 41/9/26 52/12/26
f 41/9/26 54/6/26 43/10/26
f 44/10/32 50/12/32 42/9/32
f 50/12/32 44/10/32 49/6/32
f 63/14/16 31/13/16 33/13/16
f 31/13/16 63/14/16 64/14/16
f 65/14/20 36/13/20 30/13/20
f 36/13/20 65/14/20 66/14/20
f 66/14/19 33/13/19 36/13/19
f 33/13/19 66/14/19 63/14/19
f 31/13/14 65/14/14 30/13/14
f 65/14/14 31/13/14 64/14/14
