mtllib tree-autumn.mtl
g tree-autumn
v 0.1 0 0.05
v 0.1 0 -0.05
v 0.05 0 0.1
v 0.05 0 -0.1
v -0.05 0 0.1
v -0.05 0 -0.1
v -0.1 0 0.05
v -0.1 0 -0.05
v 0.05 0.18106 -0.025
v 0.05 0.18106 0.025
v 0.025 0.18106 0.05
v 0.025 0.18106 -0.05
v -0.025 0.18106 -0.05
v -0.05 0.18106 -0.025
v -0.05 0.18106 0.025
v -0.025 0.18106 0.05
v -0.0625 0.45266 -0.03125
v -0.0625 0.45266 0.03125
v -0.03125 0.45266 0.0625
v 0.0625 0.45266 -0.03125
v 0.0625 0.45266 0.03125
v -0.03125 0.45266 -0.0625
v 0.03125 0.45266 -0.0625
v 0.03125 0.45266 0.0625
v 0.11967 0.45266 0.21567
v -0.12937 0.45266 0.21567
v 0.068618 0.75202 0.12725
v -0.078314 0.75202 0.12725
v 0.11967 0.45266 -0.21567
v 0.24419 0.45266 -5.5668e-09
v 0.068618 0.75202 -0.12725
v 0.14208 0.75202 -4.0451e-09
v -0.12937 0.45266 -0.21567
v -0.078314 0.75202 -0.12725
v -0.15178 0.75202 3.3441e-10
v -0.25388 0.45266 1.8561e-09
v 0.13875 1.0736 -2.7473e-09
v 0.066949 1.0736 0.12436
v 0.028157 1.411 -1.0993e-09
v 0.011654 1.411 0.028583
v -0.037853 1.411 -1.1558e-10
v -0.02135 1.411 0.028583
v -0.14844 1.0736 1.5325e-09
v -0.076645 1.0736 0.12436
v -0.076645 1.0736 -0.12436
v 0.066949 1.0736 -0.12436
v -0.02135 1.411 -0.028583
v 0.011654 1.411 -0.028583
v 0.17049 0.75202 -0.10123
v 0.17049 0.75202 0.10123
v 0.075496 1.0736 -0.046386
v 0.075496 1.0736 0.046386
v -0.004848 0.75202 -0.20247
v -0.004848 1.0736 -0.092773
v -0.004848 0.75202 0.20247
v -0.004848 1.0736 0.092773
v -0.18019 0.75202 0.10123
v -0.085192 1.0736 0.046386
v -0.18019 0.75202 -0.10123
v -0.085192 1.0736 -0.046386
v -0.004848 0.35927 0.26312
v -0.14306 0.40597 0.23939
v 0.13337 0.40597 0.23939
v -0.14306 0.40597 -0.23939
v -0.23272 0.35927 -0.13156
v -0.28128 0.40597 2.2643e-09
v -0.23272 0.35927 0.13156
v 0.27158 0.40597 -5.975e-09
v 0.22302 0.35927 0.13156
v -0.004848 0.35927 -0.26312
v 0.13337 0.40597 -0.23939
v 0.22302 0.35927 -0.13156
v -0.11181 0.67609 -0.18526
v -0.004848 0.71405 -0.22474
v -0.19948 0.71405 -0.11237
v 0.18978 0.71405 -0.11237
v 0.20907 0.67609 -4.5243e-09
v 0.18978 0.71405 0.11237
v -0.11181 0.67609 0.18526
v -0.19948 0.71405 0.11237
v -0.004848 0.71405 0.22474
v -0.21877 0.67609 -1.1795e-09
v 0.10211 0.67609 0.18526
v 0.10211 0.67609 -0.18526
v -0.084543 1.0467 -0.13804
v -0.13624 1.0198 -0.075857
v -0.16424 1.0467 1.7679e-09
v -0.13624 1.0198 0.075857
v -0.084543 1.0467 0.13804
v 0.074847 1.0467 -0.13804
v 0.12654 1.0198 -0.075857
v 0.15454 1.0467 -2.9827e-09
v -0.004848 1.0198 0.15171
v 0.074847 1.0467 0.13804
v -0.004848 1.0198 -0.15171
v 0.12654 1.0198 0.075857
vn 0 -1 0
vn 0.88123 0.29442 -0.36979
vn 0.88123 0.29442 0.36979
vn 0.88506 0.29422 -0.36071
vn 0.88506 0.29422 0.36071
vn 0.36071 0.29422 0.88506
vn 0.36979 0.29442 0.88123
vn 0.36979 0.29442 -0.88123
vn 0.36071 0.29422 -0.88506
vn -0.36979 0.29442 -0.88123
vn -0.36071 0.29422 -0.88506
vn -0.88123 0.29442 -0.36979
vn -0.88506 0.29422 -0.36071
vn -0.88123 0.29442 0.36979
vn -0.88506 0.29422 0.36071
vn -0.36979 0.29442 0.88123
vn -0.36071 0.29422 0.88506
vn -0.92233 -0.051261 -0.38298
vn -0.92233 -0.051261 0.38298
vn -0.92301 -0.051255 -0.38135
vn -0.92301 -0.051255 0.38135
vn -0.38135 -0.051255 0.92301
vn -0.38298 -0.051261 0.92233
vn 0.92233 -0.051261 -0.38298
vn 0.92301 -0.051255 -0.38135
vn 0.92233 -0.051261 0.38298
vn 0.92301 -0.051255 0.38135
vn -0.38135 -0.051255 -0.92301
vn 0.38135 -0.051255 -0.92301
vn -0.38298 -0.051261 -0.92233
vn 0.38298 -0.051261 -0.92233
vn 0.38135 -0.051255 0.92301
vn 0.38298 -0.051261 0.92233
vn 0.47323 0.32281 0.81966
vn -0.47323 0.32281 0.81966
vn 0.47323 0.32281 -0.81966
vn 0.94646 0.32281 0
vn -0.47323 0.32281 -0.81966
vn -0.94646 0.32281 0
vn 0.95024 0.31152 0
vn 0.47512 0.31152 0.82293
vn 0.68773 0.72596 0
vn 0.34387 0.72596 0.59559
vn -0.68773 0.72596 0
vn -0.34387 0.72596 0.59559
vn -0.95024 0.31152 0
vn -0.47512 0.31152 0.82293
vn -0.47512 0.31152 -0.82293
vn 0.47512 0.31152 -0.82293
vn -0.34387 0.72596 -0.59559
vn 0.34387 0.72596 -0.59559
vn 0.81966 0.32281 -0.47323
vn 0.81966 0.32281 0.47323
vn 0 0.32281 -0.94646
vn 0 0.32281 0.94646
vn -0.81966 0.32281 0.47323
vn -0.81966 0.32281 -0.47323
vn 0 0.45296 0.89153
vn -0.43126 0.50601 0.74697
vn 0.43126 0.50601 0.74697
vn -0.43126 -0.50601 -0.74697
vn 0.43126 -0.50601 -0.74697
vn 0 -0.45296 -0.89153
vn -0.43126 0.50601 -0.74697
vn -0.77209 0.45296 -0.44577
vn -0.86252 0.50601 0
vn 0.77209 -0.45296 0.44577
vn 0.43126 -0.50601 0.74697
vn 0.86252 -0.50601 0
vn -0.77209 0.45296 0.44577
vn 0.77209 -0.45296 -0.44577
vn 0.86252 0.50601 0
vn 0.77209 0.45296 0.44577
vn -0.86252 -0.50601 0
vn -0.77209 -0.45296 -0.44577
vn 0 0.45296 -0.89153
vn 0.43126 0.50601 -0.74697
vn -0.43126 -0.50601 0.74697
vn 0 -0.45296 0.89153
vn 0.77209 0.45296 -0.44577
vn -0.77209 -0.45296 0.44577
vn -0.44577 0.45296 -0.77209
vn 0 0.50601 -0.86252
vn -0.74697 0.50601 -0.43126
vn 0.74697 -0.50601 0.43126
vn 0 -0.50601 0.86252
vn 0.44577 -0.45296 0.77209
vn 0.74697 0.50601 -0.43126
vn 0.89153 0.45296 0
vn 0.74697 0.50601 0.43126
vn -0.74697 -0.50601 0.43126
vn -0.89153 -0.45296 0
vn -0.74697 -0.50601 -0.43126
vn -0.44577 0.45296 0.77209
vn -0.74697 0.50601 0.43126
vn 0 0.50601 0.86252
vn 0 -0.50601 -0.86252
vn 0.74697 -0.50601 -0.43126
vn 0.44577 -0.45296 -0.77209
vn -0.89153 0.45296 0
vn 0.89153 -0.45296 0
vn 0.44577 0.45296 0.77209
vn -0.44577 -0.45296 -0.77209
vn 0.44577 0.45296 -0.77209
vn -0.44577 -0.45296 0.77209
vn -0.77209 0.45296 -0.44577
vn 0.77209 -0.45296 0.44577
vn -0.43126 0.50601 0.74697
vn -0.77209 0.45296 0.44577
vn 0.43126 -0.50601 -0.74697
vn 0.77209 -0.45296 -0.44577
vn 0.77209 0.45296 -0.44577
vn 0.86252 0.50601 0
vn -0.77209 -0.45296 0.44577
vn -0.86252 -0.50601 0
vn 0 0.45296 -0.89153
vn 0 -0.45296 0.89153
vt 0.84375 0.125
vt 0.84375 0.165
vt 0.84375 0.225
vt 0.34375 0.34878
vt 0.34375 0.425
vt 0.34375 0.33877
vt 0.34375 0.3441
vt 0.34375 0.325
vt 0.34375 0.375
usemtl colormap
f 3/1/1 2/1/1 1/1/1
f 2/1/1 3/1/1 4/1/1
f 4/1/1 3/1/1 5/1/1
f 4/1/1 5/1/1 6/1/1
f 6/1/1 5/1/1 7/1/1
f 6/1/1 7/1/1 8/1/1
f 9/2/4 1/1/3 2/1/2
f 1/1/3 9/2/4 10/2/5
f 11/2/6 1/1/3 10/2/5
f 1/1/3 11/2/6 3/1/7
f 12/2/9 2/1/2 4/1/8
f 2/1/2 12/2/9 9/2/4
f 13/2/11 4/1/8 6/1/10
f 4/1/8 13/2/11 12/2/9
f 7/1/14 14/2/13 8/1/12
f 14/2/13 7/1/14 15/2/15
f 11/2/6 5/1/16 3/1/7
f 5/1/16 11/2/6 16/2/17
f 8/1/12 13/2/11 6/1/10
f 13/2/11 8/1/12 14/2/13
f 7/1/14 16/2/17 15/2/15
f 16/2/17 7/1/14 5/1/16
f 14/2/20 18/3/19 17/3/18
f 18/3/19 14/2/20 15/2/21
f 16/2/22 18/3/19 15/2/21
f 18/3/19 16/2/22 19/3/23
f 21/3/26 9/2/25 20/3/24
f 9/2/25 21/3/26 10/2/27
f 22/3/30 12/2/29 13/2/28
f 12/2/29 22/3/30 23/3/31
f 21/3/26 11/2/32 10/2/27
f 11/2/32 21/3/26 24/3/33
f 13/2/28 17/3/18 22/3/30
f 17/3/18 13/2/28 14/2/20
f 20/3/24 12/2/29 23/3/31
f 12/2/29 20/3/24 9/2/25
f 24/3/33 16/2/22 11/2/32
f 16/2/22 24/3/33 19/3/23
f 27/5/34 26/4/35 25/4/34
f 26/4/35 27/5/34 28/5/35
f 31/5/36 30/4/37 29/4/36
f 30/4/37 31/5/36 32/5/37
f 34/5/38 29/4/36 33/4/38
f 29/4/36 34/5/38 31/5/36
f 32/5/37 25/4/34 30/4/37
f 25/4/34 32/5/37 27/5/34
f 36/4/39 28/5/35 35/5/39
f 28/5/35 36/4/39 26/4/35
f 36/4/39 34/5/38 33/4/38
f 34/5/38 36/4/39 35/5/39
f 25/4/1 29/4/1 30/4/1
f 29/4/1 25/4/1 26/4/1
f 29/4/1 26/4/1 33/4/1
f 33/4/1 26/4/1 36/4/1
f 39/5/42 38/6/41 37/6/40
f 38/6/41 39/5/42 40/5/43
f 43/6/46 42/5/45 41/5/44
f 42/5/45 43/6/46 44/6/47
f 47/5/50 46/6/49 45/6/48
f 46/6/49 47/5/50 48/5/51
f 48/5/51 37/6/40 46/6/49
f 37/6/40 48/5/51 39/5/42
f 48/5/51 40/5/43 39/5/42
f 40/5/43 48/5/51 42/5/45
f 42/5/45 48/5/51 47/5/50
f 42/5/45 47/5/50 41/5/44
f 43/6/46 47/5/50 45/6/48
f 47/5/50 43/6/46 41/5/44
f 38/6/1 46/6/1 37/6/1
f 46/6/1 38/6/1 44/6/1
f 46/6/1 44/6/1 45/6/1
f 45/6/1 44/6/1 43/6/1
f 40/5/43 44/6/47 38/6/41
f 44/6/47 40/5/43 42/5/45
f 51/5/52 50/7/53 49/7/52
f 50/7/53 51/5/52 52/5/53
f 54/5/54 49/7/52 53/7/54
f 49/7/52 54/5/54 51/5/52
f 52/5/53 55/7/55 50/7/53
f 55/7/55 52/5/53 56/5/55
f 56/5/55 57/7/56 55/7/55
f 57/7/56 56/5/55 58/5/56
f 55/7/1 49/7/1 50/7/1
f 49/7/1 55/7/1 53/7/1
f 53/7/1 55/7/1 57/7/1
f 53/7/1 57/7/1 59/7/1
f 60/5/57 53/7/54 59/7/57
f 53/7/54 60/5/57 54/5/54
f 57/7/56 60/5/57 59/7/57
f 60/5/57 57/7/56 58/5/56
f 63/9/60 62/9/59 61/8/58
f 62/9/59 63/9/60 25/5/60
f 62/9/59 25/5/60 26/5/59
f 61/8/63 62/9/62 63/9/61
f 25/5/61 63/9/61 62/9/62
f 26/5/62 25/5/61 62/9/62
f 65/8/65 33/5/64 64/9/64
f 33/5/64 65/8/65 36/5/66
f 36/5/66 65/8/65 66/9/66
f 64/9/68 33/5/68 65/8/67
f 36/5/69 65/8/67 33/5/68
f 66/9/69 65/8/67 36/5/69
f 66/9/66 26/5/59 36/5/66
f 26/5/59 66/9/66 67/8/70
f 26/5/59 67/8/70 62/9/59
f 36/5/69 26/5/62 66/9/69
f 67/8/71 66/9/69 26/5/62
f 62/9/62 67/8/71 26/5/62
f 30/5/72 69/8/73 68/9/72
f 69/8/73 30/5/72 25/5/60
f 69/8/73 25/5/60 63/9/60
f 68/9/74 69/8/75 30/5/74
f 25/5/61 30/5/74 69/8/75
f 63/9/61 25/5/61 69/8/75
f 64/9/64 71/9/77 70/8/76
f 71/9/77 64/9/64 33/5/64
f 71/9/77 33/5/64 29/5/77
f 70/8/79 71/9/78 64/9/68
f 33/5/68 64/9/68 71/9/78
f 29/5/78 33/5/68 71/9/78
f 29/5/77 72/8/80 71/9/77
f 72/8/80 29/5/77 30/5/72
f 72/8/80 30/5/72 68/9/72
f 71/9/78 72/8/81 29/5/78
f 30/5/74 29/5/78 72/8/81
f 68/9/74 30/5/74 72/8/81
f 75/9/84 74/9/83 73/8/82
f 74/9/83 75/9/84 59/5/84
f 74/9/83 59/5/84 53/5/83
f 73/8/87 74/9/86 75/9/85
f 59/5/85 75/9/85 74/9/86
f 53/5/86 59/5/85 74/9/86
f 49/5/88 77/8/89 76/9/88
f 77/8/89 49/5/88 50/5/90
f 77/8/89 50/5/90 78/9/90
f 76/9/91 77/8/92 49/5/91
f 50/5/93 49/5/91 77/8/92
f 78/9/93 50/5/93 77/8/92
f 81/9/96 80/9/95 79/8/94
f 80/9/95 81/9/96 55/5/96
f 80/9/95 55/5/96 57/5/95
f 79/8/99 80/9/98 81/9/97
f 55/5/97 81/9/97 80/9/98
f 57/5/98 55/5/97 80/9/98
f 82/8/100 59/5/84 75/9/84
f 59/5/84 82/8/100 57/5/95
f 57/5/95 82/8/100 80/9/95
f 75/9/85 59/5/85 82/8/101
f 57/5/98 82/8/101 59/5/85
f 80/9/98 82/8/101 57/5/98
f 78/9/90 81/9/96 83/8/102
f 81/9/96 78/9/90 50/5/90
f 81/9/96 50/5/90 55/5/96
f 83/8/103 81/9/97 78/9/93
f 50/5/93 78/9/93 81/9/97
f 55/5/97 50/5/93 81/9/97
f 74/9/83 76/9/88 84/8/104
f 76/9/88 74/9/83 53/5/83
f 76/9/88 53/5/83 49/5/88
f 84/8/105 76/9/91 74/9/86
f 53/5/86 74/9/86 76/9/91
f 49/5/91 53/5/86 76/9/91
f 86/8/106 45/5/64 85/9/64
f 45/5/64 86/8/106 43/5/66
f 43/5/66 86/8/106 87/9/66
f 85/9/68 45/5/68 86/8/107
f 43/5/69 86/8/107 45/5/68
f 87/9/69 86/8/107 43/5/69
f 87/9/66 44/5/108 43/5/66
f 44/5/108 87/9/66 88/8/109
f 44/5/108 88/8/109 89/9/59
f 43/5/69 44/5/110 87/9/69
f 88/8/111 87/9/69 44/5/110
f 89/9/62 88/8/111 44/5/110
f 46/5/77 91/8/112 90/9/77
f 91/8/112 46/5/77 37/5/113
f 91/8/112 37/5/113 92/9/113
f 90/9/78 91/8/114 46/5/78
f 37/5/115 46/5/78 91/8/114
f 92/9/115 37/5/115 91/8/114
f 94/9/60 89/9/59 93/8/58
f 89/9/59 94/9/60 38/5/60
f 89/9/59 38/5/60 44/5/108
f 93/8/63 89/9/62 94/9/61
f 38/5/61 94/9/61 89/9/62
f 44/5/110 38/5/61 89/9/62
f 85/9/64 90/9/77 95/8/116
f 90/9/77 85/9/64 45/5/64
f 90/9/77 45/5/64 46/5/77
f 95/8/117 90/9/78 85/9/68
f 45/5/68 85/9/68 90/9/78
f 46/5/78 45/5/68 90/9/78
f 37/5/113 96/8/73 92/9/113
f 96/8/73 37/5/113 38/5/60
f 96/8/73 38/5/60 94/9/60
f 92/9/115 96/8/75 37/5/115
f 38/5/61 37/5/115 96/8/75
f 94/9/61 38/5/61 96/8/75
g tree-autumn
usemtl colormap
f 3/1/1 2/1/1 1/1/1
f 2/1/1 3/1/1 4/1/1
f 4/1/1 3/1/1 5/1/1
f 4/1/1 5/1/1 6/1/1
f 6/1/1 5/1/1 7/1/1
f 6/1/1 7/1/1 8/1/1
f 9/2/4 1/1/3 2/1/2
f 1/1/3 9/2/4 10/2/5
f 11/2/6 1/1/3 10/2/5
f 1/1/3 11/2/6 3/1/7
f 12/2/9 2/1/2 4/1/8
f 2/1/2 12/2/9 9/2/4
f 13/2/11 4/1/8 6/1/10
f 4/1/8 13/2/11 12/2/9
f 7/1/14 14/2/13 8/1/12
f 14/2/13 7/1/14 15/2/15
f 11/2/6 5/1/16 3/1/7
f 5/1/16 11/2/6 16/2/17
f 8/1/12 13/2/11 6/1/10
f 13/2/11 8/1/12 14/2/13
f 7/1/14 16/2/17 15/2/15
f 16/2/17 7/1/14 5/1/16
f 14/2/20 18/3/19 17/3/18
f 18/3/19 14/2/20 15/2/21
f 16/2/22 18/3/19 15/2/21
f 18/3/19 16/2/22 19/3/23
f 21/3/26 9/2/25 20/3/24
f 9/2/25 21/3/26 10/2/27
f 22/3/30 12/2/29 13/2/28
f 12/2/29 22/3/30 23/3/31
f 21/3/26 11/2/32 10/2/27
f 11/2/32 21/3/26 24/3/33
f 13/2/28 17/3/18 22/3/30
f 17/3/18 13/2/28 14/2/20
f 20/3/24 12/2/29 23/3/31
f 12/2/29 20/3/24 9/2/25
f 24/3/33 16/2/22 11/2/32
f 16/2/22 24/3/33 19/3/23
f 27/5/34 26/4/35 25/4/34
f 26/4/35 27/5/34 28/5/35
f 31/5/36 30/4/37 29/4/36
f 30/4/37 31/5/36 32/5/37
f 34/5/38 29/4/36 33/4/38
f 29/4/36 34/5/38 31/5/36
f 32/5/37 25/4/34 30/4/37
f 25/4/34 32/5/37 27/5/34
f 36/4/39 28/5/35 35/5/39
f 28/5/35 36/4/39 26/4/35
f 36/4/39 34/5/38 33/4/38
f 34/5/38 36/4/39 35/5/39
f 25/4/1 29/4/1 30/4/1
f 29/4/1 25/4/1 26/4/1
f 29/4/1 26/4/1 33/4/1
f 33/4/1 26/4/1 36/4/1
f 39/5/42 38/6/41 37/6/40
f 38/6/41 39/5/42 40/5/43
f 43/6/46 42/5/45 41/5/44
f 42/5/45 43/6/46 44/6/47
f 47/5/50 46/6/49 45/6/48
f 46/6/49 47/5/50 48/5/51
f 48/5/51 37/6/40 46/6/49
f 37/6/40 48/5/51 39/5/42
f 48/5/51 40/5/43 39/5/42
f 40/5/43 48/5/51 42/5/45
f 42/5/45 48/5/51 47/5/50
f 42/5/45 47/5/50 41/5/44
f 43/6/46 47/5/50 45/6/48
f 47/5/50 43/6/46 41/5/44
f 38/6/1 46/6/1 37/6/1
f 46/6/1 38/6/1 44/6/1
f 46/6/1 44/6/1 45/6/1
f 45/6/1 44/6/1 43/6/1
f 40/5/43 44/6/47 38/6/41
f 44/6/47 40/5/43 42/5/45
f 51/5/52 50/7/53 49/7/52
f 50/7/53 51/5/52 52/5/53
f 54/5/54 49/7/52 53/7/54
f 49/7/52 54/5/54 51/5/52
f 52/5/53 55/7/55 50/7/53
f 55/7/55 52/5/53 56/5/55
f 56/5/55 57/7/56 55/7/55
f 57/7/56 56/5/55 58/5/56
f 55/7/1 49/7/1 50/7/1
f 49/7/1 55/7/1 53/7/1
f 53/7/1 55/7/1 57/7/1
f 53/7/1 57/7/1 59/7/1
f 60/5/57 53/7/54 59/7/57
f 53/7/54 60/5/57 54/5/54
f 57/7/56 60/5/57 59/7/57
f 60/5/57 57/7/56 58/5/56
f 63/9/60 62/9/59 61/8/58
f 62/9/59 63/9/60 25/5/60
f 62/9/59 25/5/60 26/5/59
f 61/8/63 62/9/62 63/9/61
f 25/5/61 63/9/61 62/9/62
f 26/5/62 25/5/61 62/9/62
f 65/8/65 33/5/64 64/9/64
f 33/5/64 65/8/65 36/5/66
f 36/5/66 65/8/65 66/9/66
f 64/9/68 33/5/68 65/8/67
f 36/5/69 65/8/67 33/5/68
f 66/9/69 65/8/67 36/5/69
f 66/9/66 26/5/59 36/5/66
f 26/5/59 66/9/66 67/8/70
f 26/5/59 67/8/70 62/9/59
f 36/5/69 26/5/62 66/9/69
f 67/8/71 66/9/69 26/5/62
f 62/9/62 67/8/71 26/5/62
f 30/5/72 69/8/73 68/9/72
f 69/8/73 30/5/72 25/5/60
f 69/8/73 25/5/60 63/9/60
f 68/9/74 69/8/75 30/5/74
f 25/5/61 30/5/74 69/8/75
f 63/9/61 25/5/61 69/8/75
f 64/9/64 71/9/77 70/8/76
f 71/9/77 64/9/64 33/5/64
f 71/9/77 33/5/64 29/5/77
f 70/8/79 71/9/78 64/9/68
f 33/5/68 64/9/68 71/9/78
f 29/5/78 33/5/68 71/9/78
f 29/5/77 72/8/80 71/9/77
f 72/8/80 29/5/77 30/5/72
f 72/8/80 30/5/72 68/9/72
f 71/9/78 72/8/81 29/5/78
f 30/5/74 29/5/78 72/8/81
f 68/9/74 30/5/74 72/8/81
f 75/9/84 74/9/83 73/8/82
f 74/9/83 75/9/84 59/5/84
f 74/9/83 59/5/84 53/5/83
f 73/8/87 74/9/86 75/9/85
f 59/5/85 75/9/85 74/9/86
f 53/5/86 59/5/85 74/9/86
f 49/5/88 77/8/89 76/9/88
f 77/8/89 49/5/88 50/5/90
f 77/8/89 50/5/90 78/9/90
f 76/9/91 77/8/92 49/5/91
f 50/5/93 49/5/91 77/8/92
f 78/9/93 50/5/93 77/8/92
f 81/9/96 80/9/95 79/8/94
f 80/9/95 81/9/96 55/5/96
f 80/9/95 55/5/96 57/5/95
f 79/8/99 80/9/98 81/9/97
f 55/5/97 81/9/97 80/9/98
f 57/5/98 55/5/97 80/9/98
f 82/8/100 59/5/84 75/9/84
f 59/5/84 82/8/100 57/5/95
f 57/5/95 82/8/100 80/9/95
f 75/9/85 59/5/85 82/8/101
f 57/5/98 82/8/101 59/5/85
f 80/9/98 82/8/101 57/5/98
f 78/9/90 81/9/96 83/8/102
f 81/9/96 78/9/90 50/5/90
f 81/9/96 50/5/90 55/5/96
f 83/8/103 81/9/97 78/9/93
f 50/5/93 78/9/93 81/9/97
f 55/5/97 50/5/93 81/9/97
f 74/9/83 76/9/88 84/8/104
f 76/9/88 74/9/83 53/5/83
f 76/9/88 53/5/83 49/5/88
f 84/8/105 76/9/91 74/9/86
f 53/5/86 74/9/86 76/9/91
f 49/5/91 53/5/86 76/9/91
f 86/8/106 45/5/64 85/9/64
f 45/5/64 86/8/106 43/5/66
f 43/5/66 86/8/106 87/9/66
f 85/9/68 45/5/68 86/8/107
f 43/5/69 86/8/107 45/5/68
f 87/9/69 86/8/107 43/5/69
f 87/9/66 44/5/108 43/5/66
f 44/5/108 87/9/66 88/8/109
f 44/5/108 88/8/109 89/9/59
f 43/5/69 44/5/110 87/9/69
f 88/8/111 87/9/69 44/5/110
f 89/9/62 88/8/111 44/5/110
f 46/5/77 91/8/112 90/9/77
f 91/8/112 46/5/77 37/5/113
f 91/8/112 37/5/113 92/9/113
f 90/9/78 91/8/114 46/5/78
f 37/5/115 46/5/78 91/8/114
f 92/9/115 37/5/115 91/8/114
f 94/9/60 89/9/59 93/8/58
f 89/9/59 94/9/60 38/5/60
f 89/9/59 38/5/60 44/5/108
f 93/8/63 89/9/62 94/9/61
f 38/5/61 94/9/61 89/9/62
f 44/5/110 38/5/61 89/9/62
f 85/9/64 90/9/77 95/8/116
f 90/9/77 85/9/64 45/5/64
f 90/9/77 45/5/64 46/5/77
f 95/8/117 90/9/78 85/9/68
f 45/5/68 85/9/68 90/9/78
f 46/5/78 45/5/68 90/9/78
f 37/5/113 96/8/73 92/9/113
f 96/8/73 37/5/113 38/5/60
f 96/8/73 38/5/60 94/9/60
f 92/9/115 96/8/75 37/5/115
f 38/5/61 37/5/115 96/8/75
f 94/9/61 38/5/61 96/8/75
