mtllib tree-log-small.mtl
g tree-log-small
v -0.10266 0.10566 -0.125
v -0.10266 0.10566 0.125
v -0.052662 0.019053 -0.125
v -0.052662 0.019053 0.125
v 0.047338 0.19226 -0.125
v 0.097338 0.10566 -0.125
v 0.047338 0.19226 0.125
v 0.097338 0.10566 0.125
v 0.058338 0.21131 0.325
v 0.11934 0.10566 0.325
v -0.052662 0.19226 -0.125
v -0.052662 0.19226 0.125
v -0.063662 0.21131 0.325
v 0.047338 0.019053 0.125
v 0.047338 0.019053 -0.125
v -0.12466 0.10566 0.325
v -0.063662 2.1673e-13 0.325
v 0.058338 2.1673e-13 0.325
v 0.058338 0 -0.325
v -0.063662 0 -0.325
v 0.11934 0.10566 -0.325
v 0.058338 0.21131 -0.325
v -0.063662 0.21131 -0.325
v -0.12466 0.10566 -0.325
v -0.037681 0.045 -0.325
v 0.032358 0.045 -0.325
v -0.0727 0.10566 -0.325
v -0.037681 0.16631 -0.325
v 0.067377 0.10566 -0.325
v 0.032358 0.16631 -0.325
v 0.035244 0.17131 0.325
v 0.07315 0.10566 0.325
v -0.040568 0.17131 0.325
v -0.078474 0.10566 0.325
v -0.040568 0.04 0.325
v 0.035244 0.04 0.325
v 0.067947 0.13411 0.085667
v 0.067947 0.13411 0.15229
v 0.12474 0.25517 0.097013
v 0.12474 0.25517 0.14094
v 0.086698 0.27714 0.097013
v 0.086698 0.27714 0.14094
v 0.01025 0.16742 0.085667
v 0.01025 0.16742 0.15229
v -0.077602 0.13773 -0.09662
v -0.12474 0.23822 -0.10604
v -0.029714 0.16538 -0.09662
v -0.093166 0.25645 -0.10604
v -0.029714 0.16538 -0.15192
v -0.093166 0.25645 -0.1425
v -0.12474 0.23822 -0.1425
v -0.077602 0.13773 -0.15192
v -0.040568 0.04 0.325
v 0.07315 0.10566 0.325
v -0.040568 0.17131 0.325
v 0.032358 0.045 -0.325
v -0.0727 0.10566 -0.325
v 0.067377 0.10566 -0.325
v 0.032358 0.16631 -0.325
vn -0.99845 0 0.05573
vn -0.99845 0 -0.05573
vn -0.49922 -0.86468 0.05573
vn -0.49922 -0.86468 -0.05573
vn 0.49922 0.86468 0.05573
vn 0.99845 0 0.05573
vn 0.49922 0.86468 -0.05573
vn 0.99845 0 -0.05573
vn 0.497 0.86083 -0.10934
vn 0.994 0 -0.10934
vn -0.49922 0.86468 0.05573
vn -0.49922 0.86468 -0.05573
vn -0.497 0.86083 -0.10934
vn 0.49922 -0.86468 -0.05573
vn 0.49922 -0.86468 0.05573
vn -0.994 0 -0.10934
vn -0.497 -0.86083 -0.10934
vn 0.497 -0.86083 -0.10934
vn 0.497 -0.86083 0.10934
vn -0.497 -0.86083 0.10934
vn 0.994 0 0.10934
vn 0.497 0.86083 0.10934
vn -0.497 0.86083 0.10934
vn -0.994 0 0.10934
vn 0 0 -1
vn 0 0 1
vn 0.66776 -0.24748 -0.70203
vn 0.66776 -0.24748 0.70203
vn 0.5 0.86603 0
vn -0.5482 0.45456 -0.70203
vn -0.5482 0.45456 0.70203
vn -0.66776 -0.24748 0.70203
vn 0.5482 0.45456 0.70203
vn 0.5482 0.45456 -0.70203
vn -0.5 0.86603 0
vn -0.66776 -0.24748 -0.70203
vt 0.59375 0.125
vt 0.59375 0.043033
vt 0.59375 0.20697
vt 0.59375 0.225
vt 0.59375 0.025
vt 0.59375 0.067591
vt 0.59375 0.18241
vt 0.59375 0.18714
vt 0.59375 0.062859
vt 0.59375 0.19429
vt 0.59375 0.071579
vt 0.84375 0.025
vt 0.84375 0.125
vt 0.84375 0.225
vt 0.84375 0.032616
vt 0.84375 0.21738
usemtl colormap
f 3/2/3 2/1/2 1/1/1
f 2/1/2 3/2/3 4/2/4
f 7/3/7 6/1/6 5/3/5
f 6/1/6 7/3/7 8/1/8
f 9/4/9 8/1/8 7/3/7
f 8/1/8 9/4/9 10/1/10
f 11/3/11 7/3/7 5/3/5
f 7/3/7 11/3/11 12/3/12
f 7/3/7 13/4/13 9/4/9
f 13/4/13 7/3/7 12/3/12
f 4/2/4 15/2/15 14/2/14
f 15/2/15 4/2/4 3/2/3
f 8/1/8 15/2/15 6/1/6
f 15/2/15 8/1/8 14/2/14
f 2/1/2 13/4/13 12/3/12
f 13/4/13 2/1/2 16/1/16
f 4/2/4 16/1/16 2/1/2
f 16/1/16 4/2/4 17/5/17
f 10/1/10 14/2/14 8/1/8
f 14/2/14 10/1/10 18/5/18
f 15/2/15 20/5/20 19/5/19
f 20/5/20 15/2/15 3/2/3
f 6/1/6 19/5/19 21/1/21
f 19/5/19 6/1/6 15/2/15
f 23/4/23 5/3/5 22/4/22
f 5/3/5 23/4/23 11/3/11
f 20/5/20 1/1/1 24/1/24
f 1/1/1 20/5/20 3/2/3
f 17/5/17 14/2/14 18/5/18
f 14/2/14 17/5/17 4/2/4
f 1/1/1 12/3/12 11/3/11
f 12/3/12 1/1/1 2/1/2
f 5/3/5 21/1/21 22/4/22
f 21/1/21 5/3/5 6/1/6
f 24/1/24 11/3/11 23/4/23
f 11/3/11 24/1/24 1/1/1
f 20/5/25 25/6/25 19/5/25
f 25/6/25 20/5/25 24/1/25
f 26/6/25 19/5/25 25/6/25
f 25/6/25 24/1/25 27/1/25
f 27/1/25 24/1/25 28/7/25
f 28/7/25 24/1/25 23/4/25
f 19/5/25 26/6/25 21/1/25
f 21/1/25 26/6/25 29/1/25
f 28/7/25 23/4/25 30/7/25
f 21/1/25 29/1/25 30/7/25
f 22/4/25 30/7/25 23/4/25
f 21/1/25 30/7/25 22/4/25
f 32/1/26 9/4/26 31/8/26
f 31/8/26 9/4/26 33/8/26
f 32/1/26 10/1/26 9/4/26
f 13/4/26 33/8/26 9/4/26
f 13/4/26 34/1/26 33/8/26
f 16/1/26 34/1/26 13/4/26
f 16/1/26 35/9/26 34/1/26
f 35/9/26 16/1/26 17/5/26
f 36/9/26 10/1/26 32/1/26
f 17/5/26 36/9/26 35/9/26
f 36/9/26 18/5/26 10/1/26
f 18/5/26 36/9/26 17/5/26
f 39/10/27 38/5/28 37/5/27
f 38/5/28 39/10/27 40/10/28
f 41/4/29 40/10/29 39/10/29
f 40/10/29 41/4/29 42/4/29
f 43/11/30 39/10/27 37/5/27
f 39/10/27 43/11/30 41/4/30
f 40/10/28 44/11/31 38/5/28
f 44/11/31 40/10/28 42/4/31
f 44/11/31 41/4/30 43/11/30
f 41/4/30 44/11/31 42/4/31
f 47/11/33 46/10/32 45/5/32
f 46/10/32 47/11/33 48/4/33
f 50/4/34 47/11/33 49/11/34
f 47/11/33 50/4/34 48/4/33
f 51/10/35 48/4/35 50/4/35
f 48/4/35 51/10/35 46/10/35
f 51/10/36 49/11/34 52/5/36
f 49/11/34 51/10/36 50/4/34
f 45/5/32 51/10/36 52/5/36
f 51/10/36 45/5/32 46/10/32
f 36/12/26 34/13/26 53/12/26
f 34/13/26 36/12/26 54/13/26
f 34/13/26 54/13/26 55/14/26
f 55/14/26 54/13/26 31/14/26
f 57/13/25 56/15/25 25/15/25
f 56/15/25 57/13/25 58/13/25
f 58/13/25 57/13/25 28/16/25
f 58/13/25 28/16/25 59/16/25
g tree-log-small
usemtl colormap
f 3/2/3 2/1/2 1/1/1
f 2/1/2 3/2/3 4/2/4
f 7/3/7 6/1/6 5/3/5
f 6/1/6 7/3/7 8/1/8
f 9/4/9 8/1/8 7/3/7
f 8/1/8 9/4/9 10/1/10
f 11/3/11 7/3/7 5/3/5
f 7/3/7 11/3/11 12/3/12
f 7/3/7 13/4/13 9/4/9
f 13/4/13 7/3/7 12/3/12
f 4/2/4 15/2/15 14/2/14
f 15/2/15 4/2/4 3/2/3
f 8/1/8 15/2/15 6/1/6
f 15/2/15 8/1/8 14/2/14
f 2/1/2 13/4/13 12/3/12
f 13/4/13 2/1/2 16/1/16
f 4/2/4 16/1/16 2/1/2
f 16/1/16 4/2/4 17/5/17
f 10/1/10 14/2/14 8/1/8
f 14/2/14 10/1/10 18/5/18
f 15/2/15 20/5/20 19/5/19
f 20/5/20 15/2/15 3/2/3
f 6/1/6 19/5/19 21/1/21
f 19/5/19 6/1/6 15/2/15
f 23/4/23 5/3/5 22/4/22
f 5/3/5 23/4/23 11/3/11
f 20/5/20 1/1/1 24/1/24
f 1/1/1 20/5/20 3/2/3
f 17/5/17 14/2/14 18/5/18
f 14/2/14 17/5/17 4/2/4
f 1/1/1 12/3/12 11/3/11
f 12/3/12 1/1/1 2/1/2
f 5/3/5 21/1/21 22/4/22
f 21/1/21 5/3/5 6/1/6
f 24/1/24 11/3/11 23/4/23
f 11/3/11 24/1/24 1/1/1
f 20/5/25 25/6/25 19/5/25
f 25/6/25 20/5/25 24/1/25
f 26/6/25 19/5/25 25/6/25
f 25/6/25 24/1/25 27/1/25
f 27/1/25 24/1/25 28/7/25
f 28/7/25 24/1/25 23/4/25
f 19/5/25 26/6/25 21/1/25
f 21/1/25 26/6/25 29/1/25
f 28/7/25 23/4/25 30/7/25
f 21/1/25 29/1/25 30/7/25
f 22/4/25 30/7/25 23/4/25
f 21/1/25 30/7/25 22/4/25
f 32/1/26 9/4/26 31/8/26
f 31/8/26 9/4/26 33/8/26
f 32/1/26 10/1/26 9/4/26
f 13/4/26 33/8/26 9/4/26
f 13/4/26 34/1/26 33/8/26
f 16/1/26 34/1/26 13/4/26
f 16/1/26 35/9/26 34/1/26
f 35/9/26 16/1/26 17/5/26
f 36/9/26 10/1/26 32/1/26
f 17/5/26 36/9/26 35/9/26
f 36/9/26 18/5/26 10/1/26
f 18/5/26 36/9/26 17/5/26
f 39/10/27 38/5/28 37/5/27
f 38/5/28 39/10/27 40/10/28
f 41/4/29 40/10/29 39/10/29
f 40/10/29 41/4/29 42/4/29
f 43/11/30 39/10/27 37/5/27
f 39/10/27 43/11/30 41/4/30
f 40/10/28 44/11/31 38/5/28
f 44/11/31 40/10/28 42/4/31
f 44/11/31 41/4/30 43/11/30
f 41/4/30 44/11/31 42/4/31
f 47/11/33 46/10/32 45/5/32
f 46/10/32 47/11/33 48/4/33
f 50/4/34 47/11/33 49/11/34
f 47/11/33 50/4/34 48/4/33
f 51/10/35 48/4/35 50/4/35
f 48/4/35 51/10/35 46/10/35
f 51/10/36 49/11/34 52/5/36
f 49/11/34 51/10/36 50/4/34
f 45/5/32 51/10/36 52/5/36
f 51/10/36 45/5/32 46/10/32
f 36/12/26 34/13/26 53/12/26
f 34/13/26 36/12/26 54/13/26
f 34/13/26 54/13/26 55/14/26
f 55/14/26 54/13/26 31/14/26
f 57/13/25 56/15/25 25/15/25
f 56/15/25 57/13/25 58/13/25
f 58/13/25 57/13/25 28/16/25
f 58/13/25 28/16/25 59/16/25
